<?xml version="1.0" standalone="no"?>
<!DOCTYPE svg PUBLIC "-//W3C//DTD SVG 1.1//EN" 
  "http://www.w3.org/Graphics/SVG/1.1/DTD/svg11.dtd">
<svg width="40.300mm" height="128.400mm" version="1.1"
     viewBox="0 0 40.300 128.400"
     xmlns="http://www.w3.org/2000/svg"  xmlns:xlink="http://www.w3.org/1999/xlink" 
     xmlns:fpd="http://www.schaeffer-ag.de">
  <desc>Created with the Front Panel Designer by the export of the file '8hp-3x-NCJ9FI-S.fpd'.</desc>
  <defs>
    <pattern id="revside-fill" x="1" y="1" width="1.5" height="1.5" patternUnits="userSpaceOnUse">
      <line x1="0" y1="0" x2="1" y2="1" style="stroke-width:0.2; stroke:black; stroke-dasharray:none;" />
      <line x1="0" y1="1" x2="1" y2="0" style="stroke-width:0.2; stroke:black; stroke-dasharray:none;" />
    </pattern>
    <pattern id="revside-fill-silver" x="1" y="1" width="1.5" height="1.5" patternUnits="userSpaceOnUse">
      <line x1="0" y1="0" x2="1.5" y2="1.5" style="stroke-width:0.2; stroke:#e0e0e0; stroke-dasharray:none;" />
      <line x1="0" y1="1.5" x2="1.5" y2="0" style="stroke-width:0.2; stroke:#e0e0e0; stroke-dasharray:none;" />
    </pattern>
  </defs>
<g transform="scale(1,-1) translate(0, -128.400)" 
   fill-rule="evenodd"
   style="stroke-linecap:round; stroke-linejoin:round; stroke-opacity:1.0; stroke-opacity:1.0;">
<path d="
M40.300 128.400
L40.300 0.000
L0.000 0.000
L0.000 128.400
L40.300 128.400
" 
fill="#cccccc" vector-effect="non-scaling-stroke" stroke="#000000" stroke-width="0.100mm" />
<path d="
M6.500 86.402
L33.500 86.402
L33.500 116.402
L6.500 116.402
L6.500 86.402
" 
fill="none" vector-effect="non-scaling-stroke" stroke="#689dbb" stroke-width="0.200mm" fpd:engraving="1" />
<path d="
M6.500 49.402
L33.500 49.402
L33.500 79.402
L6.500 79.402
L6.500 49.402
" 
fill="none" vector-effect="non-scaling-stroke" stroke="#689dbb" stroke-width="0.200mm" fpd:engraving="1" />
<path d="
M6.500 12.402
L33.500 12.402
L33.500 42.402
L6.500 42.402
L6.500 12.402
" 
fill="none" vector-effect="non-scaling-stroke" stroke="#689dbb" stroke-width="0.200mm" fpd:engraving="1" />
<path d="
M6.000 125.500
A1.500,1.500 0 1,0 9.000,125.500
A1.500,1.500 0 1,0 6.000,125.500
" 
fill="#ffffff" vector-effect="non-scaling-stroke" stroke="#000000" stroke-width="0.100mm" />
<path d="
M6.000 3.000
A1.500,1.500 0 1,0 9.000,3.000
A1.500,1.500 0 1,0 6.000,3.000
" 
fill="#ffffff" vector-effect="non-scaling-stroke" stroke="#000000" stroke-width="0.100mm" />
<path d="
M8.000 101.402
A12.000,12.000 0 1,0 32.000,101.402
A12.000,12.000 0 1,0 8.000,101.402
" 
fill="#ffffff" vector-effect="non-scaling-stroke" stroke="#000000" stroke-width="0.100mm" />
<path d="
M8.400 112.902
A1.600,1.600 0 1,0 11.600,112.902
A1.600,1.600 0 1,0 8.400,112.902
" 
fill="#ffffff" vector-effect="non-scaling-stroke" stroke="#000000" stroke-width="0.100mm" />
<path d="
M28.400 89.902
A1.600,1.600 0 1,0 31.600,89.902
A1.600,1.600 0 1,0 28.400,89.902
" 
fill="#ffffff" vector-effect="non-scaling-stroke" stroke="#000000" stroke-width="0.100mm" />
<path d="
M8.000 64.402
A12.000,12.000 0 1,0 32.000,64.402
A12.000,12.000 0 1,0 8.000,64.402
" 
fill="#ffffff" vector-effect="non-scaling-stroke" stroke="#000000" stroke-width="0.100mm" />
<path d="
M8.400 75.902
A1.600,1.600 0 1,0 11.600,75.902
A1.600,1.600 0 1,0 8.400,75.902
" 
fill="#ffffff" vector-effect="non-scaling-stroke" stroke="#000000" stroke-width="0.100mm" />
<path d="
M28.400 52.902
A1.600,1.600 0 1,0 31.600,52.902
A1.600,1.600 0 1,0 28.400,52.902
" 
fill="#ffffff" vector-effect="non-scaling-stroke" stroke="#000000" stroke-width="0.100mm" />
<path d="
M8.000 27.402
A12.000,12.000 0 1,0 32.000,27.402
A12.000,12.000 0 1,0 8.000,27.402
" 
fill="#ffffff" vector-effect="non-scaling-stroke" stroke="#000000" stroke-width="0.100mm" />
<path d="
M8.400 38.902
A1.600,1.600 0 1,0 11.600,38.902
A1.600,1.600 0 1,0 8.400,38.902
" 
fill="#ffffff" vector-effect="non-scaling-stroke" stroke="#000000" stroke-width="0.100mm" />
<path d="
M28.400 15.902
A1.600,1.600 0 1,0 31.600,15.902
A1.600,1.600 0 1,0 28.400,15.902
" 
fill="#ffffff" vector-effect="non-scaling-stroke" stroke="#000000" stroke-width="0.100mm" />
<path d="
M40.300 128.400
L40.300 0.000
L0.000 0.000
L0.000 128.400
L40.300 128.400
" 
fill="none" vector-effect="non-scaling-stroke" stroke="#000000" stroke-width="0.100mm" />
<path d="
M-1.000 0.000
L1.000 0.000
M0.000 -1.000
L0.000 1.000
" 
fill="none" vector-effect="non-scaling-stroke" stroke="#ff0000" stroke-width="0.100mm" />
<path d="
M6.500 125.500
L8.500 125.500
M7.500 124.500
L7.500 126.500
" 
fill="none" vector-effect="non-scaling-stroke" stroke="#ff0000" stroke-width="0.100mm" />
<path d="
M6.500 3.000
L8.500 3.000
M7.500 2.000
L7.500 4.000
" 
fill="none" vector-effect="non-scaling-stroke" stroke="#ff0000" stroke-width="0.100mm" />
<path d="
M19.000 101.402
L21.000 101.402
M20.000 100.402
L20.000 102.402
" 
fill="none" vector-effect="non-scaling-stroke" stroke="#808080" stroke-width="0.100mm" />
<path d="
M19.000 101.402
L21.000 101.402
M20.000 100.402
L20.000 102.402
" 
fill="none" vector-effect="non-scaling-stroke" stroke="#808080" stroke-width="0.100mm" />
<path d="
M9.000 112.902
L11.000 112.902
M10.000 111.902
L10.000 113.902
" 
fill="none" vector-effect="non-scaling-stroke" stroke="#808080" stroke-width="0.100mm" />
<path d="
M29.000 89.902
L31.000 89.902
M30.000 88.902
L30.000 90.902
" 
fill="none" vector-effect="non-scaling-stroke" stroke="#808080" stroke-width="0.100mm" />
<path d="
M19.000 101.402
L21.000 101.402
M20.000 100.402
L20.000 102.402
" 
fill="none" vector-effect="non-scaling-stroke" stroke="#00d000" stroke-width="0.100mm" />
<path d="
M19.000 64.402
L21.000 64.402
M20.000 63.402
L20.000 65.402
" 
fill="none" vector-effect="non-scaling-stroke" stroke="#808080" stroke-width="0.100mm" />
<path d="
M19.000 64.402
L21.000 64.402
M20.000 63.402
L20.000 65.402
" 
fill="none" vector-effect="non-scaling-stroke" stroke="#808080" stroke-width="0.100mm" />
<path d="
M9.000 75.902
L11.000 75.902
M10.000 74.902
L10.000 76.902
" 
fill="none" vector-effect="non-scaling-stroke" stroke="#808080" stroke-width="0.100mm" />
<path d="
M29.000 52.902
L31.000 52.902
M30.000 51.902
L30.000 53.902
" 
fill="none" vector-effect="non-scaling-stroke" stroke="#808080" stroke-width="0.100mm" />
<path d="
M19.000 64.402
L21.000 64.402
M20.000 63.402
L20.000 65.402
" 
fill="none" vector-effect="non-scaling-stroke" stroke="#00d000" stroke-width="0.100mm" />
<path d="
M19.000 27.402
L21.000 27.402
M20.000 26.402
L20.000 28.402
" 
fill="none" vector-effect="non-scaling-stroke" stroke="#808080" stroke-width="0.100mm" />
<path d="
M19.000 27.402
L21.000 27.402
M20.000 26.402
L20.000 28.402
" 
fill="none" vector-effect="non-scaling-stroke" stroke="#808080" stroke-width="0.100mm" />
<path d="
M9.000 38.902
L11.000 38.902
M10.000 37.902
L10.000 39.902
" 
fill="none" vector-effect="non-scaling-stroke" stroke="#808080" stroke-width="0.100mm" />
<path d="
M29.000 15.902
L31.000 15.902
M30.000 14.902
L30.000 16.902
" 
fill="none" vector-effect="non-scaling-stroke" stroke="#808080" stroke-width="0.100mm" />
<path d="
M19.000 27.402
L21.000 27.402
M20.000 26.402
L20.000 28.402
" 
fill="none" vector-effect="non-scaling-stroke" stroke="#00d000" stroke-width="0.100mm" />
<path d="
M19.000 64.402
L21.000 64.402
M20.000 63.402
L20.000 65.402
" 
fill="none" vector-effect="non-scaling-stroke" stroke="#ff0000" stroke-width="0.100mm" />
</g>
</svg>
