  0
SECTION
  2
HEADER
  9
$MEASUREMENT
  70
  1
  9
$INSUNITS
  70
  4
  0
ENDSEC
  0
SECTION
  2
TABLES
  0
TABLE
  2
LTYPE
 70
     1
  0
LTYPE
  2
CONTINUOUS
 70
    64
  3
Ausgezogene Linie
 72
    65
 73
     0
 40
0.0
  0
ENDTAB
  0
TABLE
  2
LAYER
 70
     3
  0
LAYER
  2
Contour
 70
    64
 62
     7
  6
CONTINUOUS
  0
LAYER
  2
Engraving
 70
    64
 62
     7
  6
CONTINUOUS
  0
LAYER
  2
Reference_points
 70
    64
 62
     1
  6
CONTINUOUS
  0
ENDTAB
  0
TABLE
  2
STYLE
 70
     1
  0
STYLE
  2
TXT
 70
    64
 40
0.0
 41
1.0
 50
0.0
 71
     0
 42
3.500000
  3
TXT
  0
ENDTAB
  0
ENDSEC
  0
SECTION
  2
BLOCKS
  0
ENDSEC
  0
SECTION
  2
ENTITIES
  0
LINE
  8
Contour
 62
   7
 39
0.100
  6
CONTINUOUS
 10
101.26000
 20
128.40000
 30
 0
 11
101.26000
 21
0.00000
  0
LINE
  8
Contour
 62
   7
 39
0.100
  6
CONTINUOUS
 10
101.26000
 20
0.00000
 30
 0
 11
0.00000
 21
0.00000
  0
LINE
  8
Contour
 62
   7
 39
0.100
  6
CONTINUOUS
 10
0.00000
 20
0.00000
 30
 0
 11
0.00000
 21
128.40000
  0
LINE
  8
Contour
 62
   7
 39
0.100
  6
CONTINUOUS
 10
0.00000
 20
128.40000
 30
 0
 11
101.26000
 21
128.40000
  0
LINE
  8
Engraving
 62
   133
 39
0.400
  6
CONTINUOUS
 10
91.25000
 20
108.92100
 30
 0
 11
5.25000
 21
108.92100
  0
LINE
  8
Engraving
 62
   133
 39
0.400
  6
CONTINUOUS
 10
5.25000
 20
108.92100
 30
 0
 11
5.25000
 21
58.92100
  0
LINE
  8
Engraving
 62
   133
 39
0.400
  6
CONTINUOUS
 10
5.25000
 20
58.92100
 30
 0
 11
91.25000
 21
58.92100
  0
LINE
  8
Engraving
 62
   133
 39
0.400
  6
CONTINUOUS
 10
91.25000
 20
58.92100
 30
 0
 11
91.25000
 21
108.92100
  0
LINE
  8
Engraving
 62
   133
 39
0.200
  6
CONTINUOUS
 10
6.05000
 20
101.63000
 30
 0
 11
6.05000
 21
68.61000
  0
LINE
  8
Engraving
 62
   133
 39
0.200
  6
CONTINUOUS
 10
6.05000
 20
68.61000
 30
 0
 11
8.05000
 21
68.61000
  0
LINE
  8
Engraving
 62
   133
 39
0.200
  6
CONTINUOUS
 10
8.05000
 20
68.61000
 30
 0
 11
8.05000
 21
101.63000
  0
LINE
  8
Engraving
 62
   133
 39
0.200
  6
CONTINUOUS
 10
8.05000
 20
101.63000
 30
 0
 11
6.05000
 21
101.63000
  0
LINE
  8
Engraving
 62
   133
 39
0.200
  6
CONTINUOUS
 10
6.42500
 20
101.25500
 30
 0
 11
6.42500
 21
100.00500
  0
LINE
  8
Engraving
 62
   133
 39
0.200
  6
CONTINUOUS
 10
6.42500
 20
100.00500
 30
 0
 11
7.67500
 21
100.00500
  0
LINE
  8
Engraving
 62
   133
 39
0.200
  6
CONTINUOUS
 10
7.67500
 20
100.00500
 30
 0
 11
7.67500
 21
101.25500
  0
LINE
  8
Engraving
 62
   133
 39
0.200
  6
CONTINUOUS
 10
7.67500
 20
101.25500
 30
 0
 11
6.42500
 21
101.25500
  0
CIRCLE
  8
Engraving
 62
   133
 39
0.200
  6
CONTINUOUS
 10
74.00000
 20
37.00000
 30
 0
 40
10.00000
  0
CIRCLE
  8
Engraving
 62
   133
 39
0.200
  6
CONTINUOUS
 10
52.00000
 20
37.00000
 30
 0
 40
10.00000
  0
CIRCLE
  8
Engraving
 62
   133
 39
0.200
  6
CONTINUOUS
 10
30.00000
 20
37.00000
 30
 0
 40
10.00000
  0
CIRCLE
  8
Engraving
 62
   253
 39
0.200
  6
CONTINUOUS
 10
11.97000
 20
61.72200
 30
 0
 40
2.25000
  0
CIRCLE
  8
Engraving
 62
   253
 39
0.200
  6
CONTINUOUS
 10
88.45000
 20
61.72400
 30
 0
 40
2.25000
  0
CIRCLE
  8
Engraving
 62
   253
 39
0.200
  6
CONTINUOUS
 10
88.45000
 20
106.12100
 30
 0
 40
2.25000
  0
CIRCLE
  8
Engraving
 62
   253
 39
0.200
  6
CONTINUOUS
 10
11.97000
 20
106.12000
 30
 0
 40
2.25000
  0
LINE
  8
Engraving
 62
   7
 39
0.400
  6
CONTINUOUS
 10
101.01100
 20
128.99072
 30
 0
 11
-0.04300
 21
129.03128
  0
CIRCLE
  8
Contour
 62
   7
 39
0.100
  6
CONTINUOUS
 10
7.50000
 20
125.50000
 30
 0
 40
1.50000
  0
CIRCLE
  8
Contour
 62
   7
 39
0.100
  6
CONTINUOUS
 10
7.50000
 20
3.00000
 30
 0
 40
1.50000
  0
CIRCLE
  8
Contour
 62
   7
 39
0.100
  6
CONTINUOUS
 10
88.78000
 20
125.50000
 30
 0
 40
1.50000
  0
CIRCLE
  8
Contour
 62
   7
 39
0.100
  6
CONTINUOUS
 10
88.78000
 20
3.00000
 30
 0
 40
1.50000
  0
ARC
  8
Contour
 62
   7
 39
0.100
  6
CONTINUOUS
 10
84.55000
 20
108.42100
 30
 0
 40
0.50000
 50
0.00000
 51
90.00000
  0
LINE
  8
Contour
 62
   7
 39
0.100
  6
CONTINUOUS
 10
84.55000
 20
108.92100
 30
 0
 11
16.35000
 21
108.92100
  0
ARC
  8
Contour
 62
   7
 39
0.100
  6
CONTINUOUS
 10
16.35000
 20
108.42100
 30
 0
 40
0.50000
 50
90.00000
 51
180.00000
  0
LINE
  8
Contour
 62
   7
 39
0.100
  6
CONTINUOUS
 10
15.85000
 20
108.42100
 30
 0
 11
15.85000
 21
59.42100
  0
ARC
  8
Contour
 62
   7
 39
0.100
  6
CONTINUOUS
 10
16.35000
 20
59.42100
 30
 0
 40
0.50000
 50
180.00000
 51
270.00000
  0
LINE
  8
Contour
 62
   7
 39
0.100
  6
CONTINUOUS
 10
16.35000
 20
58.92100
 30
 0
 11
84.55000
 21
58.92100
  0
ARC
  8
Contour
 62
   7
 39
0.100
  6
CONTINUOUS
 10
84.55000
 20
59.42100
 30
 0
 40
0.50000
 50
270.00000
 51
360.00000
  0
LINE
  8
Contour
 62
   7
 39
0.100
  6
CONTINUOUS
 10
85.05000
 20
59.42100
 30
 0
 11
85.05000
 21
108.42100
  0
CIRCLE
  8
Contour
 62
   7
 39
0.100
  6
CONTINUOUS
 10
11.97000
 20
61.72200
 30
 0
 40
1.50000
  0
CIRCLE
  8
Contour
 62
   7
 39
0.100
  6
CONTINUOUS
 10
88.45000
 20
61.72400
 30
 0
 40
1.50000
  0
CIRCLE
  8
Contour
 62
   7
 39
0.100
  6
CONTINUOUS
 10
88.45000
 20
106.12100
 30
 0
 40
1.50000
  0
CIRCLE
  8
Contour
 62
   7
 39
0.100
  6
CONTINUOUS
 10
11.97000
 20
106.12000
 30
 0
 40
1.50000
  0
CIRCLE
  8
Contour
 62
   7
 39
0.100
  6
CONTINUOUS
 10
30.00000
 20
37.00000
 30
 0
 40
3.50000
  0
CIRCLE
  8
Contour
 62
   7
 39
0.100
  6
CONTINUOUS
 10
52.00000
 20
37.00000
 30
 0
 40
3.50000
  0
CIRCLE
  8
Contour
 62
   7
 39
0.100
  6
CONTINUOUS
 10
74.00000
 20
37.00000
 30
 0
 40
3.50000
  0
LINE
  8
Reference_points
 62
   1
 39
0.100
  6
CONTINUOUS
 10
-1.00000
 20
0.00000
 30
 0
 11
1.00000
 21
0.00000
  0
LINE
  8
Reference_points
 62
   1
 39
0.100
  6
CONTINUOUS
 10
0.00000
 20
-1.00000
 30
 0
 11
0.00000
 21
1.00000
  0
LINE
  8
Reference_points
 62
   1
 39
0.100
  6
CONTINUOUS
 10
6.50000
 20
125.50000
 30
 0
 11
8.50000
 21
125.50000
  0
LINE
  8
Reference_points
 62
   1
 39
0.100
  6
CONTINUOUS
 10
7.50000
 20
124.50000
 30
 0
 11
7.50000
 21
126.50000
  0
LINE
  8
Reference_points
 62
   1
 39
0.100
  6
CONTINUOUS
 10
6.50000
 20
3.00000
 30
 0
 11
8.50000
 21
3.00000
  0
LINE
  8
Reference_points
 62
   1
 39
0.100
  6
CONTINUOUS
 10
7.50000
 20
2.00000
 30
 0
 11
7.50000
 21
4.00000
  0
LINE
  8
Reference_points
 62
   1
 39
0.100
  6
CONTINUOUS
 10
87.78000
 20
125.50000
 30
 0
 11
89.78000
 21
125.50000
  0
LINE
  8
Reference_points
 62
   1
 39
0.100
  6
CONTINUOUS
 10
88.78000
 20
124.50000
 30
 0
 11
88.78000
 21
126.50000
  0
LINE
  8
Reference_points
 62
   1
 39
0.100
  6
CONTINUOUS
 10
87.78000
 20
3.00000
 30
 0
 11
89.78000
 21
3.00000
  0
LINE
  8
Reference_points
 62
   1
 39
0.100
  6
CONTINUOUS
 10
88.78000
 20
2.00000
 30
 0
 11
88.78000
 21
4.00000
  0
LINE
  8
Reference_points
 62
   1
 39
0.100
  6
CONTINUOUS
 10
47.25000
 20
83.92100
 30
 0
 11
49.25000
 21
83.92100
  0
LINE
  8
Reference_points
 62
   1
 39
0.100
  6
CONTINUOUS
 10
48.25000
 20
82.92100
 30
 0
 11
48.25000
 21
84.92100
  0
LINE
  8
Reference_points
 62
   1
 39
0.100
  6
CONTINUOUS
 10
49.45000
 20
83.92100
 30
 0
 11
51.45000
 21
83.92100
  0
LINE
  8
Reference_points
 62
   1
 39
0.100
  6
CONTINUOUS
 10
50.45000
 20
82.92100
 30
 0
 11
50.45000
 21
84.92100
  0
LINE
  8
Reference_points
 62
   1
 39
0.100
  6
CONTINUOUS
 10
10.97000
 20
61.72200
 30
 0
 11
12.97000
 21
61.72200
  0
LINE
  8
Reference_points
 62
   1
 39
0.100
  6
CONTINUOUS
 10
11.97000
 20
60.72200
 30
 0
 11
11.97000
 21
62.72200
  0
LINE
  8
Reference_points
 62
   1
 39
0.100
  6
CONTINUOUS
 10
10.97000
 20
61.72200
 30
 0
 11
12.97000
 21
61.72200
  0
LINE
  8
Reference_points
 62
   1
 39
0.100
  6
CONTINUOUS
 10
11.97000
 20
60.72200
 30
 0
 11
11.97000
 21
62.72200
  0
LINE
  8
Reference_points
 62
   1
 39
0.100
  6
CONTINUOUS
 10
87.45000
 20
61.72400
 30
 0
 11
89.45000
 21
61.72400
  0
LINE
  8
Reference_points
 62
   1
 39
0.100
  6
CONTINUOUS
 10
88.45000
 20
60.72400
 30
 0
 11
88.45000
 21
62.72400
  0
LINE
  8
Reference_points
 62
   1
 39
0.100
  6
CONTINUOUS
 10
87.45000
 20
61.72400
 30
 0
 11
89.45000
 21
61.72400
  0
LINE
  8
Reference_points
 62
   1
 39
0.100
  6
CONTINUOUS
 10
88.45000
 20
60.72400
 30
 0
 11
88.45000
 21
62.72400
  0
LINE
  8
Reference_points
 62
   1
 39
0.100
  6
CONTINUOUS
 10
87.45000
 20
106.12100
 30
 0
 11
89.45000
 21
106.12100
  0
LINE
  8
Reference_points
 62
   1
 39
0.100
  6
CONTINUOUS
 10
88.45000
 20
105.12100
 30
 0
 11
88.45000
 21
107.12100
  0
LINE
  8
Reference_points
 62
   1
 39
0.100
  6
CONTINUOUS
 10
87.45000
 20
106.12100
 30
 0
 11
89.45000
 21
106.12100
  0
LINE
  8
Reference_points
 62
   1
 39
0.100
  6
CONTINUOUS
 10
88.45000
 20
105.12100
 30
 0
 11
88.45000
 21
107.12100
  0
LINE
  8
Reference_points
 62
   1
 39
0.100
  6
CONTINUOUS
 10
10.97000
 20
106.12000
 30
 0
 11
12.97000
 21
106.12000
  0
LINE
  8
Reference_points
 62
   1
 39
0.100
  6
CONTINUOUS
 10
11.97000
 20
105.12000
 30
 0
 11
11.97000
 21
107.12000
  0
LINE
  8
Reference_points
 62
   1
 39
0.100
  6
CONTINUOUS
 10
10.97000
 20
106.12000
 30
 0
 11
12.97000
 21
106.12000
  0
LINE
  8
Reference_points
 62
   1
 39
0.100
  6
CONTINUOUS
 10
11.97000
 20
105.12000
 30
 0
 11
11.97000
 21
107.12000
  0
LINE
  8
Reference_points
 62
   1
 39
0.100
  6
CONTINUOUS
 10
6.05000
 20
85.12000
 30
 0
 11
8.05000
 21
85.12000
  0
LINE
  8
Reference_points
 62
   1
 39
0.100
  6
CONTINUOUS
 10
7.05000
 20
84.12000
 30
 0
 11
7.05000
 21
86.12000
  0
LINE
  8
Reference_points
 62
   1
 39
0.100
  6
CONTINUOUS
 10
6.05000
 20
100.63000
 30
 0
 11
8.05000
 21
100.63000
  0
LINE
  8
Reference_points
 62
   1
 39
0.100
  6
CONTINUOUS
 10
7.05000
 20
99.63000
 30
 0
 11
7.05000
 21
101.63000
  0
LINE
  8
Reference_points
 62
   1
 39
0.100
  6
CONTINUOUS
 10
47.25000
 20
83.92100
 30
 0
 11
49.25000
 21
83.92100
  0
LINE
  8
Reference_points
 62
   1
 39
0.100
  6
CONTINUOUS
 10
48.25000
 20
82.92100
 30
 0
 11
48.25000
 21
84.92100
  0
LINE
  8
Reference_points
 62
   1
 39
0.100
  6
CONTINUOUS
 10
49.48400
 20
129.01100
 30
 0
 11
51.48400
 21
129.01100
  0
LINE
  8
Reference_points
 62
   1
 39
0.100
  6
CONTINUOUS
 10
50.48400
 20
128.01100
 30
 0
 11
50.48400
 21
130.01100
  0
LINE
  8
Reference_points
 62
   1
 39
0.100
  6
CONTINUOUS
 10
73.00000
 20
37.00000
 30
 0
 11
75.00000
 21
37.00000
  0
LINE
  8
Reference_points
 62
   1
 39
0.100
  6
CONTINUOUS
 10
74.00000
 20
36.00000
 30
 0
 11
74.00000
 21
38.00000
  0
LINE
  8
Reference_points
 62
   1
 39
0.100
  6
CONTINUOUS
 10
51.00000
 20
37.00000
 30
 0
 11
53.00000
 21
37.00000
  0
LINE
  8
Reference_points
 62
   1
 39
0.100
  6
CONTINUOUS
 10
52.00000
 20
36.00000
 30
 0
 11
52.00000
 21
38.00000
  0
LINE
  8
Reference_points
 62
   1
 39
0.100
  6
CONTINUOUS
 10
29.00000
 20
37.00000
 30
 0
 11
31.00000
 21
37.00000
  0
LINE
  8
Reference_points
 62
   1
 39
0.100
  6
CONTINUOUS
 10
30.00000
 20
36.00000
 30
 0
 11
30.00000
 21
38.00000
  0
LINE
  8
Reference_points
 62
   1
 39
0.100
  6
CONTINUOUS
 10
29.00000
 20
37.00000
 30
 0
 11
31.00000
 21
37.00000
  0
LINE
  8
Reference_points
 62
   1
 39
0.100
  6
CONTINUOUS
 10
30.00000
 20
36.00000
 30
 0
 11
30.00000
 21
38.00000
  0
LINE
  8
Reference_points
 62
   1
 39
0.100
  6
CONTINUOUS
 10
51.00000
 20
37.00000
 30
 0
 11
53.00000
 21
37.00000
  0
LINE
  8
Reference_points
 62
   1
 39
0.100
  6
CONTINUOUS
 10
52.00000
 20
36.00000
 30
 0
 11
52.00000
 21
38.00000
  0
LINE
  8
Reference_points
 62
   1
 39
0.100
  6
CONTINUOUS
 10
73.00000
 20
37.00000
 30
 0
 11
75.00000
 21
37.00000
  0
LINE
  8
Reference_points
 62
   1
 39
0.100
  6
CONTINUOUS
 10
74.00000
 20
36.00000
 30
 0
 11
74.00000
 21
38.00000
  0
ENDSEC
  0
EOF
