<?xml version="1.0" standalone="no"?>
 <!DOCTYPE svg PUBLIC "-//W3C//DTD SVG 1.1//EN" 
 "http://www.w3.org/Graphics/SVG/1.1/DTD/svg11.dtd"> 
<svg xmlns="http://www.w3.org/2000/svg" version="1.1" 
    width="11.4376cm" height="10.1676cm" viewBox="0 0 45030 40030 ">
<title>SVG Picture created as Mainboard-brd.svg date 2019/10/21 22:09:44 </title>
  <desc>Picture generated by PCBNEW </desc>
<g style="fill:#000000; fill-opacity:1;stroke:#000000; stroke-opacity:1;
stroke-linecap:round; stroke-linejoin:round; "
 transform="translate(0 0) scale(1 1)">
</g>
<g style="fill:#000000; fill-opacity:0.0; 
stroke:#000000; stroke-width:-0.000393701; stroke-opacity:1; 
stroke-linecap:round; stroke-linejoin:round;">
</g>
<g style="fill:#000000; fill-opacity:0.0; 
stroke:#000000; stroke-width:59.0551; stroke-opacity:1; 
stroke-linecap:round; stroke-linejoin:round;">
<path d="M33852 36273
L33852 39265
" />
<path d="M33852 39265
L29167 39265
" />
<path d="M29167 39265
L29167 36273
" />
<path d="M29167 36273
L33852 36273
" />
</g>
<g style="fill:#000000; fill-opacity:0.0; 
stroke:#000000; stroke-width:39.3701; stroke-opacity:1; 
stroke-linecap:round; stroke-linejoin:round;">
<path d="M10892 31017
L10892 31037
" />
<path d="M17191 31017
L17191 31037
" />
<path d="M10892 31037
L10183 31037
" />
<path d="M17900 31037
L17191 31037
" />
<path d="M17191 31017
L10892 31017
" />
<path d="M11173 29108
L11173 29305
" />
<path d="M16909 29108
L16909 29305
" />
<path d="M11173 29305
L10183 29305
" />
<path d="M17900 29305
L16909 29305
" />
<path d="M10183 29305
L10183 31037
" />
<path d="M17900 29305
L17900 31037
" />
<path d="M16909 29108
L11173 29108
" />
<g >
</g>
<g >
</g>
<g >
</g>
<g >
</g>
<g >
</g>
<g >
</g>
<g >
</g>
<g >
</g>
<g >
</g>
<g >
</g>
<g >
</g>
<g >
</g>
<g >
</g>
<g >
</g>
<g >
</g>
<g >
</g>
<g >
</g>
<g >
</g>
<g >
</g>
<g >
</g>
<g >
</g>
<g >
</g>
<g >
</g>
<g >
</g>
<g >
</g>
<g >
</g>
<g >
</g>
<g >
</g>
<g >
</g>
<g >
</g>
<g >
</g>
<g >
</g>
<g >
</g>
<g >
</g>
<g >
</g>
<g >
</g>
<g >
</g>
<g >
</g>
<g >
</g>
<g >
</g>
<g >
</g>
<g >
</g>
<g >
</g>
<g >
</g>
<g >
</g>
<g >
</g>
<g >
</g>
<g >
</g>
<g >
</g>
<g >
</g>
<g >
</g>
<g >
</g>
<g >
</g>
<g >
</g>
<g >
</g>
<g >
</g>
<g >
</g>
<g >
</g>
<g >
</g>
<g >
</g>
<g >
</g>
<g >
</g>
<g >
</g>
<g >
</g>
<g >
</g>
<g >
</g>
<g >
</g>
<g >
</g>
<g >
</g>
<g >
</g>
<g >
</g>
<g >
</g>
<g >
</g>
<g >
</g>
<g >
</g>
<g >
</g>
<g >
</g>
<g >
</g>
<g >
</g>
<g >
</g>
<g >
</g>
<g >
</g>
<g >
</g>
<g >
</g>
<g >
</g>
<g >
</g>
<g >
</g>
<g >
</g>
<g >
</g>
<g >
</g>
<g >
</g>
<g >
</g>
<g >
</g>
<g >
</g>
<g >
</g>
<g >
</g>
<g >
</g>
<g >
</g>
<g >
</g>
<g >
</g>
<g >
</g>
<g >
</g>
<g >
</g>
<g >
</g>
<g >
</g>
<g >
</g>
<g >
</g>
<g >
</g>
<g >
</g>
<g >
</g>
<g >
</g>
<g >
</g>
</g>
<g style="fill:#000000; fill-opacity:0.0; 
stroke:#000000; stroke-width:39.3701; stroke-opacity:1; 
stroke-linecap:round; stroke-linejoin:round;">
</g>
<g style="fill:#000000; fill-opacity:0.0; 
stroke:#000000; stroke-width:36.5748; stroke-opacity:1; 
stroke-linecap:round; stroke-linejoin:round;">
<text x="21760.3" y="9902.19"
textLength="-277.769" font-size="-443.333" lengthAdjust="spacingAndGlyphs"
text-anchor="end" opacity="0">0</text>
<g class="stroked-text"><desc>0</desc>
<path d="M21562 9553
L21594 9553
L21625 9569
L21641 9585
L21657 9617
L21673 9680
L21673 9759
L21657 9823
L21641 9854
L21625 9870
L21594 9886
L21562 9886
L21530 9870
L21514 9854
L21499 9823
L21483 9759
L21483 9680
L21499 9617
L21514 9585
L21530 9569
L21562 9553
" />
</g><g >
</g>
</g>
<g style="fill:#000000; fill-opacity:0.0; 
stroke:#000000; stroke-width:36.5748; stroke-opacity:1; 
stroke-linecap:round; stroke-linejoin:round;">
</g>
<g style="fill:#000000; fill-opacity:0.0; 
stroke:#000000; stroke-width:98.4252; stroke-opacity:1; 
stroke-linecap:round; stroke-linejoin:round;">
<circle cx="30329.2" cy="35505.9" r="49.2126" /> 
</g>
<g style="fill:#000000; fill-opacity:0.0; 
stroke:#000000; stroke-width:59.0551; stroke-opacity:1; 
stroke-linecap:round; stroke-linejoin:round;">
<path d="M33085 39265
L29935 39265
" />
<path d="M29167 36273
L29167 37848
" />
<path d="M33852 36273
L33852 37848
" />
<path d="M33852 36273
L33459 36273
" />
<path d="M29561 36273
L29167 36273
" />
</g>
<g style="fill:#000000; fill-opacity:0.0; 
stroke:#000000; stroke-width:50; stroke-opacity:1; 
stroke-linecap:round; stroke-linejoin:round;">
<path d="M360 20658
L360 16419
" />
<path d="M360 16419
L1909 14870
" />
<path d="M1909 14870
L6149 14870
" />
<path d="M6659.92 15380.9 A510.785 510.785 0.0 0 0 6149.14 14870.1 " />
<path d="M6659 15380
L6659 20658
" />
<path d="M6149.14 21169.3 A510.785 510.785 0.0 0 0 6659.92 20658.5 " />
<path d="M6149 21169
L871 21169
" />
<path d="M360.708 20658.5 A510.785 510.785 0.0 0 0 871.493 21169.3 " />
<path d="M360 13658
L360 9419
" />
<path d="M360 9419
L1909 7870
" />
<path d="M1909 7870
L6149 7870
" />
<path d="M6659.92 8380.86 A510.785 510.785 0.0 0 0 6149.14 7870.08 " />
<path d="M6659 8380
L6659 13658
" />
<path d="M6149.14 14169.3 A510.785 510.785 0.0 0 0 6659.92 13658.5 " />
<path d="M6149 14169
L871 14169
" />
<path d="M360.708 13658.5 A510.785 510.785 0.0 0 0 871.493 14169.3 " />
<path d="M360 6658
L360 2419
" />
<path d="M360 2419
L1909 870
" />
<path d="M1909 870
L6149 870
" />
<path d="M6659.92 1380.86 A510.785 510.785 0.0 0 0 6149.14 870.079 " />
<path d="M6659 1380
L6659 6658
" />
<path d="M6149.14 7169.29 A510.785 510.785 0.0 0 0 6659.92 6658.51 " />
<path d="M6149 7169
L871 7169
" />
<path d="M360.708 6658.51 A510.785 510.785 0.0 0 0 871.493 7169.29 " />
<path d="M38360 27658
L38360 23419
" />
<path d="M38360 23419
L39909 21870
" />
<path d="M39909 21870
L44149 21870
" />
<path d="M44659.9 22380.9 A510.785 510.785 0.0 0 0 44149.1 21870.1 " />
<path d="M44659 22380
L44659 27658
" />
<path d="M44149.1 28169.3 A510.785 510.785 0.0 0 0 44659.9 27658.5 " />
<path d="M44149 28169
L38871 28169
" />
<path d="M38360.7 27658.5 A510.785 510.785 0.0 0 0 38871.5 28169.3 " />
<path d="M38360 20658
L38360 16419
" />
<path d="M38360 16419
L39909 14870
" />
<path d="M39909 14870
L44149 14870
" />
<path d="M44659.9 15380.9 A510.785 510.785 0.0 0 0 44149.1 14870.1 " />
<path d="M44659 15380
L44659 20658
" />
<path d="M44149.1 21169.3 A510.785 510.785 0.0 0 0 44659.9 20658.5 " />
<path d="M44149 21169
L38871 21169
" />
<path d="M38360.7 20658.5 A510.785 510.785 0.0 0 0 38871.5 21169.3 " />
<path d="M38360 13658
L38360 9419
" />
<path d="M38360 9419
L39909 7870
" />
<path d="M39909 7870
L44149 7870
" />
<path d="M44659.9 8380.86 A510.785 510.785 0.0 0 0 44149.1 7870.08 " />
<path d="M44659 8380
L44659 13658
" />
<path d="M44149.1 14169.3 A510.785 510.785 0.0 0 0 44659.9 13658.5 " />
<path d="M44149 14169
L38871 14169
" />
<path d="M38360.7 13658.5 A510.785 510.785 0.0 0 0 38871.5 14169.3 " />
<path d="M38360 6658
L38360 2419
" />
<path d="M38360 2419
L39909 870
" />
<path d="M39909 870
L44149 870
" />
<path d="M44659.9 1380.86 A510.785 510.785 0.0 0 0 44149.1 870.079 " />
<path d="M44659 1380
L44659 6658
" />
<path d="M44149.1 7169.29 A510.785 510.785 0.0 0 0 44659.9 6658.51 " />
<path d="M44149 7169
L38871 7169
" />
<path d="M38360.7 6658.51 A510.785 510.785 0.0 0 0 38871.5 7169.29 " />
</g>
<g style="fill:#000000; fill-opacity:0.0; 
stroke:#000000; stroke-width:59.0551; stroke-opacity:1; 
stroke-linecap:round; stroke-linejoin:round;">
<path d="M10183 30564
L10183 31037
" />
<path d="M10970 31037
L10183 31037
" />
<path d="M10183 29305
L10183 29383
" />
<path d="M17900 29305
L10183 29305
" />
<path d="M17900 31037
L17112 31037
" />
<path d="M17900 30564
L17900 31037
" />
<path d="M17900 29305
L17900 29383
" />
</g>
<g style="fill:#000000; fill-opacity:0.0; 
stroke:#000000; stroke-width:98.4252; stroke-opacity:1; 
stroke-linecap:round; stroke-linejoin:round;">
<circle cx="16896.1" cy="31706.7" r="49.2126" /> 
</g>
<g style="fill:#000000; fill-opacity:0.0; 
stroke:#000000; stroke-width:36.5748; stroke-opacity:1; 
stroke-linecap:round; stroke-linejoin:round;">
<text x="22352.8" y="8752.19"
textLength="-601.619" font-size="-443.333" lengthAdjust="spacingAndGlyphs"
text-anchor="end" opacity="0">R4</text>
<g class="stroked-text"><desc>R4</desc>
<path d="M21949 8736
L21838 8578
" />
<path d="M21759 8736
L21759 8403
L21885 8403
L21917 8419
L21933 8435
L21949 8467
L21949 8514
L21933 8546
L21917 8562
L21885 8578
L21759 8578
" />
<path d="M22234 8514
L22234 8736
" />
<path d="M22154 8388
L22075 8625
L22281 8625
" />
</g></g>
<g style="fill:#000000; fill-opacity:0.0; 
stroke:#000000; stroke-width:29.9213; stroke-opacity:1; 
stroke-linecap:round; stroke-linejoin:round;">
<text x="33902" y="39482.3"
textLength="-593.622" font-size="-498.687" lengthAdjust="spacingAndGlyphs"
text-anchor="end" opacity="0">J2</text>
<g class="stroked-text"><desc>J2</desc>
<path d="M33437 39090
L33437 39357
L33419 39411
L33383 39446
L33330 39464
L33294 39464
" />
<path d="M33597 39126
L33615 39108
L33651 39090
L33740 39090
L33775 39108
L33793 39126
L33811 39161
L33811 39197
L33793 39250
L33579 39464
L33811 39464
" />
</g><text x="18687.5" y="31755.9"
textLength="-602.272" font-size="-498.687" lengthAdjust="spacingAndGlyphs"
text-anchor="end" opacity="0">J1</text>
<g class="stroked-text"><desc>J1</desc>
<path d="M18222 31364
L18222 31631
L18204 31684
L18169 31720
L18115 31738
L18080 31738
" />
<path d="M18596 31738
L18383 31738
" />
<path d="M18489 31738
L18489 31364
L18454 31417
L18418 31453
L18383 31470
" />
</g><g >
</g>
</g>
<g style="fill:#000000; fill-opacity:0.0; 
stroke:#000000; stroke-width:29.9213; stroke-opacity:1; 
stroke-linecap:round; stroke-linejoin:round;">
</g>
<g style="fill:#000000; fill-opacity:0.0; 
stroke:#000000; stroke-width:39.3701; stroke-opacity:1; 
stroke-linecap:round; stroke-linejoin:round;">
<path d="M44010 40019
L45010 39019
" />
<path d="M1010 40019
L44010 40019
" />
<path d="M10 39019
L1010 40019
" />
<path d="M10 1019
L10 39019
" />
<path d="M1010 19
L10 1019
" />
<path d="M44010 19
L1010 19
" />
<path d="M45010 1019
L44010 19
" />
<path d="M45010 39019
L45010 1019
" />
<g >
</g>
<g >
</g>
<g >
</g>
<g >
</g>
<g >
</g>
<g >
</g>
<g >
</g>
<g >
</g>
<g >
</g>
<g >
</g>
<g >
</g>
<g >
</g>
<g >
</g>
<g >
</g>
<g >
</g>
<g >
</g>
<g >
</g>
<g >
</g>
<g >
</g>
<g >
</g>
<g >
</g>
<g >
</g>
<g >
</g>
<g >
</g>
<g >
</g>
<g >
</g>
<g >
</g>
<g >
</g>
<g >
</g>
<g >
</g>
<g >
</g>
<g >
</g>
<g >
</g>
<g >
</g>
<g >
</g>
<g >
</g>
<g >
</g>
<g >
</g>
<g >
</g>
<g >
</g>
<g >
</g>
<g >
</g>
<g >
</g>
<g >
</g>
<g >
</g>
<g >
</g>
<g >
</g>
<g >
</g>
<g >
</g>
<g >
</g>
<g >
</g>
<g >
</g>
<g >
</g>
<g >
</g>
<g >
</g>
<g >
</g>
<g >
</g>
<g >
</g>
<g >
</g>
<g >
</g>
<g >
</g>
<g >
</g>
<g >
</g>
<g >
</g>
<g >
</g>
<g >
</g>
<g >
</g>
<g >
</g>
<g >
</g>
<g >
</g>
<g >
</g>
<g >
</g>
<g >
</g>
<g >
</g>
<g >
</g>
<g >
</g>
<g >
</g>
<g >
</g>
<g >
</g>
<g >
</g>
<g >
</g>
<g >
</g>
<g >
</g>
<g >
</g>
<g >
</g>
<g >
</g>
<g >
</g>
<g >
</g>
<g >
</g>
<g >
</g>
<g >
</g>
<g >
</g>
<g >
</g>
<g >
</g>
<g >
</g>
<g >
</g>
<g >
</g>
<g >
</g>
<g >
</g>
<g >
</g>
<g >
</g>
<g >
</g>
<g >
</g>
<g >
</g>
<g >
</g>
<g >
</g>
<g >
</g>
<g >
</g>
<g >
</g>
<g >
</g>
<g >
</g>
<g >
</g>
<g >
</g>
</g> 
</svg>
