<?xml version="1.0" standalone="no"?>
<!DOCTYPE svg PUBLIC "-//W3C//DTD SVG 1.1//EN" 
  "http://www.w3.org/Graphics/SVG/1.1/DTD/svg11.dtd">
<svg width="60.620mm" height="128.400mm" version="1.1"
     viewBox="0 0 60.620 128.400"
     xmlns="http://www.w3.org/2000/svg"  xmlns:xlink="http://www.w3.org/1999/xlink" 
     xmlns:fpd="http://www.schaeffer-ag.de">
  <desc>Created with the Front Panel Designer by the export of the file '12hp-1.44-ST7735-128x128-3xRotaryEncoders.fpd'.</desc>
  <defs>
    <pattern id="revside-fill" x="1" y="1" width="1.5" height="1.5" patternUnits="userSpaceOnUse">
      <line x1="0" y1="0" x2="1" y2="1" style="stroke-width:0.2; stroke:black; stroke-dasharray:none;" />
      <line x1="0" y1="1" x2="1" y2="0" style="stroke-width:0.2; stroke:black; stroke-dasharray:none;" />
    </pattern>
    <pattern id="revside-fill-silver" x="1" y="1" width="1.5" height="1.5" patternUnits="userSpaceOnUse">
      <line x1="0" y1="0" x2="1.5" y2="1.5" style="stroke-width:0.2; stroke:#e0e0e0; stroke-dasharray:none;" />
      <line x1="0" y1="1.5" x2="1.5" y2="0" style="stroke-width:0.2; stroke:#e0e0e0; stroke-dasharray:none;" />
    </pattern>
  </defs>
<g transform="scale(1,-1) translate(0, -128.400)" 
   fill-rule="evenodd"
   style="stroke-linecap:round; stroke-linejoin:round; stroke-opacity:1.0; stroke-opacity:1.0;">
<path d="
M60.620 128.400
L60.620 0.000
L0.000 0.000
L0.000 128.400
L60.620 128.400
" 
fill="#cccccc" vector-effect="non-scaling-stroke" stroke="#000000" stroke-width="0.100mm" />
<path d="
M50.250 119.000
A1.000,1.000 0 0,1 49.250,120.000
L4.750 120.000
A1.000,1.000 0 0,1 3.750,119.000
L3.750 91.000
A1.000,1.000 0 0,1 4.750,90.000
L49.250 90.000
A1.000,1.000 0 0,1 50.250,91.000
L50.250 119.000
" 
fill="none" vector-effect="non-scaling-stroke" stroke="#689dbb" stroke-width="0.400mm" fpd:engraving="1" />
<path d="
M45.250 119.750
L8.750 119.750
L8.750 90.250
L45.250 90.250
L45.250 119.750
" 
fill="none" vector-effect="non-scaling-stroke" stroke="#689dbb" stroke-width="0.200mm" fpd:engraving="1" />
<path d="
M6.000 125.500
A1.500,1.500 0 1,0 9.000,125.500
A1.500,1.500 0 1,0 6.000,125.500
" 
fill="#ffffff" vector-effect="non-scaling-stroke" stroke="#000000" stroke-width="0.100mm" />
<path d="
M6.000 3.000
A1.500,1.500 0 1,0 9.000,3.000
A1.500,1.500 0 1,0 6.000,3.000
" 
fill="#ffffff" vector-effect="non-scaling-stroke" stroke="#000000" stroke-width="0.100mm" />
<path d="
M46.640 125.500
A1.500,1.500 0 1,0 49.640,125.500
A1.500,1.500 0 1,0 46.640,125.500
" 
fill="#ffffff" vector-effect="non-scaling-stroke" stroke="#000000" stroke-width="0.100mm" />
<path d="
M46.640 3.000
A1.500,1.500 0 1,0 49.640,3.000
A1.500,1.500 0 1,0 46.640,3.000
" 
fill="#ffffff" vector-effect="non-scaling-stroke" stroke="#000000" stroke-width="0.100mm" />
<path d="
M44.500 119.250
A0.500,0.500 0 0,1 44.000,119.750
L15.500 119.750
A0.500,0.500 0 0,1 15.000,119.250
L15.000 90.750
A0.500,0.500 0 0,1 15.500,90.250
L44.000 90.250
A0.500,0.500 0 0,1 44.500,90.750
L44.500 119.250
" 
fill="#ffffff" vector-effect="non-scaling-stroke" stroke="#000000" stroke-width="0.100mm" />
<path d="
M49.250 92.505
A1.500,1.500 0 1,0 46.250,92.505
A1.500,1.500 0 1,0 49.250,92.505
" 
fill="#ffffff" vector-effect="non-scaling-stroke" stroke="#000000" stroke-width="0.100mm" />
<path d="
M49.250 117.496
A1.500,1.500 0 1,0 46.250,117.496
A1.500,1.500 0 1,0 49.250,117.496
" 
fill="#ffffff" vector-effect="non-scaling-stroke" stroke="#000000" stroke-width="0.100mm" />
<path d="
M8.000 92.504
A1.500,1.500 0 1,0 5.000,92.504
A1.500,1.500 0 1,0 8.000,92.504
" 
fill="#ffffff" vector-effect="non-scaling-stroke" stroke="#000000" stroke-width="0.100mm" />
<path d="
M8.000 117.495
A1.500,1.500 0 1,0 5.000,117.495
A1.500,1.500 0 1,0 8.000,117.495
" 
fill="#ffffff" vector-effect="non-scaling-stroke" stroke="#000000" stroke-width="0.100mm" />
<path d="
M29.500 76.500
A3.500,3.500 0 1,0 29.500,69.500
A3.500,3.500 0 1,0 29.500,76.500
" 
fill="#ffffff" vector-effect="non-scaling-stroke" stroke="#000000" stroke-width="0.100mm" />
<path d="
M29.500 51.750
A3.500,3.500 0 1,0 29.500,44.750
A3.500,3.500 0 1,0 29.500,51.750
" 
fill="#ffffff" vector-effect="non-scaling-stroke" stroke="#000000" stroke-width="0.100mm" />
<path d="
M29.500 27.000
A3.500,3.500 0 1,0 29.500,20.000
A3.500,3.500 0 1,0 29.500,27.000
" 
fill="#ffffff" vector-effect="non-scaling-stroke" stroke="#000000" stroke-width="0.100mm" />
<path d="
M60.620 128.400
L60.620 0.000
L0.000 0.000
L0.000 128.400
L60.620 128.400
" 
fill="none" vector-effect="non-scaling-stroke" stroke="#000000" stroke-width="0.100mm" />
<path d="
M-1.000 0.000
L1.000 0.000
M0.000 -1.000
L0.000 1.000
" 
fill="none" vector-effect="non-scaling-stroke" stroke="#ff0000" stroke-width="0.100mm" />
<path d="
M6.500 125.500
L8.500 125.500
M7.500 124.500
L7.500 126.500
" 
fill="none" vector-effect="non-scaling-stroke" stroke="#ff0000" stroke-width="0.100mm" />
<path d="
M6.500 3.000
L8.500 3.000
M7.500 2.000
L7.500 4.000
" 
fill="none" vector-effect="non-scaling-stroke" stroke="#ff0000" stroke-width="0.100mm" />
<path d="
M47.140 125.500
L49.140 125.500
M48.140 124.500
L48.140 126.500
" 
fill="none" vector-effect="non-scaling-stroke" stroke="#ff0000" stroke-width="0.100mm" />
<path d="
M47.140 3.000
L49.140 3.000
M48.140 2.000
L48.140 4.000
" 
fill="none" vector-effect="non-scaling-stroke" stroke="#ff0000" stroke-width="0.100mm" />
<path d="
M28.750 105.000
L30.750 105.000
M29.750 104.000
L29.750 106.000
" 
fill="none" vector-effect="non-scaling-stroke" stroke="#00d000" stroke-width="0.100mm" />
<path d="
M26.000 105.000
L28.000 105.000
M27.000 104.000
L27.000 106.000
" 
fill="none" vector-effect="non-scaling-stroke" stroke="#808080" stroke-width="0.100mm" />
<path d="
M26.000 105.000
L28.000 105.000
M27.000 104.000
L27.000 106.000
" 
fill="none" vector-effect="non-scaling-stroke" stroke="#808080" stroke-width="0.100mm" />
<path d="
M46.750 92.505
L48.750 92.505
M47.750 91.505
L47.750 93.505
" 
fill="none" vector-effect="non-scaling-stroke" stroke="#808080" stroke-width="0.100mm" />
<path d="
M46.750 117.496
L48.750 117.496
M47.750 116.496
L47.750 118.496
" 
fill="none" vector-effect="non-scaling-stroke" stroke="#808080" stroke-width="0.100mm" />
<path d="
M5.500 92.504
L7.500 92.504
M6.500 91.504
L6.500 93.504
" 
fill="none" vector-effect="non-scaling-stroke" stroke="#808080" stroke-width="0.100mm" />
<path d="
M5.500 117.495
L7.500 117.495
M6.500 116.495
L6.500 118.495
" 
fill="none" vector-effect="non-scaling-stroke" stroke="#808080" stroke-width="0.100mm" />
<path d="
M26.000 105.000
L28.000 105.000
M27.000 104.000
L27.000 106.000
" 
fill="none" vector-effect="non-scaling-stroke" stroke="#00d000" stroke-width="0.100mm" />
<path d="
M26.000 105.000
L28.000 105.000
M27.000 104.000
L27.000 106.000
" 
fill="none" vector-effect="non-scaling-stroke" stroke="#ff0000" stroke-width="0.100mm" />
<path d="
M28.500 73.000
L30.500 73.000
M29.500 72.000
L29.500 74.000
" 
fill="none" vector-effect="non-scaling-stroke" stroke="#00d000" stroke-width="0.100mm" />
<path d="
M28.500 48.250
L30.500 48.250
M29.500 47.250
L29.500 49.250
" 
fill="none" vector-effect="non-scaling-stroke" stroke="#00d000" stroke-width="0.100mm" />
<path d="
M28.500 23.500
L30.500 23.500
M29.500 22.500
L29.500 24.500
" 
fill="none" vector-effect="non-scaling-stroke" stroke="#00d000" stroke-width="0.100mm" />
<path d="
M28.500 48.250
L30.500 48.250
M29.500 47.250
L29.500 49.250
" 
fill="none" vector-effect="non-scaling-stroke" stroke="#ff0000" stroke-width="0.100mm" />
</g>
</svg>
