<?xml version="1.0" standalone="no"?>
 <!DOCTYPE svg PUBLIC "-//W3C//DTD SVG 1.1//EN" 
 "http://www.w3.org/Graphics/SVG/1.1/DTD/svg11.dtd"> 
<svg xmlns="http://www.w3.org/2000/svg" version="1.1" 
    width="12.6213cm" height="14.1224cm" viewBox="0 0 49690 55600 ">
<title>SVG Picture created as TopBreakout-brd.svg date 2019/10/20 13:19:40 </title>
  <desc>Picture generated by PCBNEW </desc>
<g style="fill:#000000; fill-opacity:1;stroke:#000000; stroke-opacity:1;
stroke-linecap:round; stroke-linejoin:round; "
 transform="translate(0 0) scale(1 1)">
</g>
<g style="fill:#000000; fill-opacity:0.0; 
stroke:#000000; stroke-width:-0.000393701; stroke-opacity:1; 
stroke-linecap:round; stroke-linejoin:round;">
</g>
<g style="fill:#000000; fill-opacity:1.0; 
stroke:#000000; stroke-width:0; stroke-opacity:1; 
stroke-linecap:round; stroke-linejoin:round;">
<path style="fill:#000000; fill-opacity:1.0; 
stroke:#000000; stroke-width:0; stroke-opacity:1; 
stroke-linecap:round; stroke-linejoin:round;fill-rule:evenodd;"
d="M 28218.9,37884.4
28018.9,37884.4
28018.9,37684.4
28218.9,37684.4
Z" /> 
<path style="fill:#000000; fill-opacity:1.0; 
stroke:#000000; stroke-width:0; stroke-opacity:1; 
stroke-linecap:round; stroke-linejoin:round;fill-rule:evenodd;"
d="M 27218.9,37884.4
27018.9,37884.4
27018.9,37684.4
27218.9,37684.4
Z" /> 
<path style="fill:#000000; fill-opacity:1.0; 
stroke:#000000; stroke-width:0; stroke-opacity:1; 
stroke-linecap:round; stroke-linejoin:round;fill-rule:evenodd;"
d="M 26218.9,37884.4
26018.9,37884.4
26018.9,37684.4
26218.9,37684.4
Z" /> 
<path style="fill:#000000; fill-opacity:1.0; 
stroke:#000000; stroke-width:0; stroke-opacity:1; 
stroke-linecap:round; stroke-linejoin:round;fill-rule:evenodd;"
d="M 25218.9,37884.4
25018.9,37884.4
25018.9,37684.4
25218.9,37684.4
Z" /> 
<path style="fill:#000000; fill-opacity:1.0; 
stroke:#000000; stroke-width:0; stroke-opacity:1; 
stroke-linecap:round; stroke-linejoin:round;fill-rule:evenodd;"
d="M 24218.9,37884.4
24018.9,37884.4
24018.9,37684.4
24218.9,37684.4
Z" /> 
<path style="fill:#000000; fill-opacity:1.0; 
stroke:#000000; stroke-width:0; stroke-opacity:1; 
stroke-linecap:round; stroke-linejoin:round;fill-rule:evenodd;"
d="M 23218.9,37884.4
23018.9,37884.4
23018.9,37684.4
23218.9,37684.4
Z" /> 
<path style="fill:#000000; fill-opacity:1.0; 
stroke:#000000; stroke-width:0; stroke-opacity:1; 
stroke-linecap:round; stroke-linejoin:round;fill-rule:evenodd;"
d="M 22218.9,37884.4
22018.9,37884.4
22018.9,37684.4
22218.9,37684.4
Z" /> 
<path style="fill:#000000; fill-opacity:1.0; 
stroke:#000000; stroke-width:0; stroke-opacity:1; 
stroke-linecap:round; stroke-linejoin:round;fill-rule:evenodd;"
d="M 29218.9,37884.4
29018.9,37884.4
29018.9,37684.4
29218.9,37684.4
Z" /> 
</g>
<g style="fill:#000000; fill-opacity:0.0; 
stroke:#000000; stroke-width:50; stroke-opacity:1; 
stroke-linecap:round; stroke-linejoin:round;">
<circle cx="37727.1" cy="28663.1" r="2755.91" /> 
<circle cx="13977.1" cy="28684.8" r="2755.91" /> 
</g>
<g style="fill:#000000; fill-opacity:0.0; 
stroke:#000000; stroke-width:31.4961; stroke-opacity:1; 
stroke-linecap:round; stroke-linejoin:round;">
<path d="M37320 39815
L37320 44540
" />
<path d="M36414 44540
L36414 39815
" />
</g>
<g style="fill:#000000; fill-opacity:0.0; 
stroke:#000000; stroke-width:19.685; stroke-opacity:1; 
stroke-linecap:round; stroke-linejoin:round;">
<path d="M36946 39711
L36946 44132
" />
<path d="M36946 44132
L36611 44132
" />
<path d="M36611 44132
L36611 39711
" />
<path d="M36611 39711
L36946 39711
" />
</g>
<g style="fill:#000000; fill-opacity:0.0; 
stroke:#000000; stroke-width:3.93701; stroke-opacity:1; 
stroke-linecap:round; stroke-linejoin:round;">
<path d="M35536 42178
L38686 42178
" />
</g>
<g style="fill:#000000; fill-opacity:0.0; 
stroke:#000000; stroke-width:50; stroke-opacity:1; 
stroke-linecap:round; stroke-linejoin:round;">
<path d="M40738 37040
L39557 37040
" />
<path d="M39557 37040
L38376 37040
" />
<path d="M38376 37040
L37195 37040
" />
<path d="M40738 37040
L40738 32906
" />
<path d="M40738 32906
L38888 32906
" />
<path d="M38888 32906
L37195 32906
" />
<path d="M37195 32906
L37195 37040
" />
<path d="M39557 37040
L39557 36252
" />
<path d="M39557 36252
L38376 36252
" />
<path d="M38376 36252
L38376 37040
" />
<path d="M39046 32867
L39046 32040
" />
<path d="M39046 32040
L38888 32040
" />
<path d="M38888 32040
L38888 32906
" />
<circle cx="38967.3" cy="34678.1" r="1244.99" /> 
<path d="M36988 37040
L35807 37040
" />
<path d="M35807 37040
L34626 37040
" />
<path d="M34626 37040
L33445 37040
" />
<path d="M36988 37040
L36988 32906
" />
<path d="M36988 32906
L35138 32906
" />
<path d="M35138 32906
L33445 32906
" />
<path d="M33445 32906
L33445 37040
" />
<path d="M35807 37040
L35807 36252
" />
<path d="M35807 36252
L34626 36252
" />
<path d="M34626 36252
L34626 37040
" />
<path d="M35296 32867
L35296 32040
" />
<path d="M35296 32040
L35138 32040
" />
<path d="M35138 32040
L35138 32906
" />
<circle cx="35217.3" cy="34678.1" r="1244.99" /> 
<path d="M33238 37040
L32057 37040
" />
<path d="M32057 37040
L30876 37040
" />
<path d="M30876 37040
L29695 37040
" />
<path d="M33238 37040
L33238 32906
" />
<path d="M33238 32906
L31388 32906
" />
<path d="M31388 32906
L29695 32906
" />
<path d="M29695 32906
L29695 37040
" />
<path d="M32057 37040
L32057 36252
" />
<path d="M32057 36252
L30876 36252
" />
<path d="M30876 36252
L30876 37040
" />
<path d="M31546 32867
L31546 32040
" />
<path d="M31546 32040
L31388 32040
" />
<path d="M31388 32040
L31388 32906
" />
<circle cx="31467.3" cy="34678.1" r="1244.99" /> 
<path d="M29488 37040
L28307 37040
" />
<path d="M28307 37040
L27126 37040
" />
<path d="M27126 37040
L25945 37040
" />
<path d="M29488 37040
L29488 32906
" />
<path d="M29488 32906
L27638 32906
" />
<path d="M27638 32906
L25945 32906
" />
<path d="M25945 32906
L25945 37040
" />
<path d="M28307 37040
L28307 36252
" />
<path d="M28307 36252
L27126 36252
" />
<path d="M27126 36252
L27126 37040
" />
<path d="M27796 32867
L27796 32040
" />
<path d="M27796 32040
L27638 32040
" />
<path d="M27638 32040
L27638 32906
" />
<circle cx="27717.3" cy="34678.1" r="1244.99" /> 
<path d="M25738 37040
L24557 37040
" />
<path d="M24557 37040
L23376 37040
" />
<path d="M23376 37040
L22195 37040
" />
<path d="M25738 37040
L25738 32906
" />
<path d="M25738 32906
L23888 32906
" />
<path d="M23888 32906
L22195 32906
" />
<path d="M22195 32906
L22195 37040
" />
<path d="M24557 37040
L24557 36252
" />
<path d="M24557 36252
L23376 36252
" />
<path d="M23376 36252
L23376 37040
" />
<path d="M24046 32867
L24046 32040
" />
<path d="M24046 32040
L23888 32040
" />
<path d="M23888 32040
L23888 32906
" />
<circle cx="23967.3" cy="34678.1" r="1244.99" /> 
<path d="M21988 37040
L20807 37040
" />
<path d="M20807 37040
L19626 37040
" />
<path d="M19626 37040
L18445 37040
" />
<path d="M21988 37040
L21988 32906
" />
<path d="M21988 32906
L20138 32906
" />
<path d="M20138 32906
L18445 32906
" />
<path d="M18445 32906
L18445 37040
" />
<path d="M20807 37040
L20807 36252
" />
<path d="M20807 36252
L19626 36252
" />
<path d="M19626 36252
L19626 37040
" />
<path d="M20296 32867
L20296 32040
" />
<path d="M20296 32040
L20138 32040
" />
<path d="M20138 32040
L20138 32906
" />
<circle cx="20217.3" cy="34678.1" r="1244.99" /> 
<path d="M18238 37040
L17057 37040
" />
<path d="M17057 37040
L15876 37040
" />
<path d="M15876 37040
L14695 37040
" />
<path d="M18238 37040
L18238 32906
" />
<path d="M18238 32906
L16388 32906
" />
<path d="M16388 32906
L14695 32906
" />
<path d="M14695 32906
L14695 37040
" />
<path d="M17057 37040
L17057 36252
" />
<path d="M17057 36252
L15876 36252
" />
<path d="M15876 36252
L15876 37040
" />
<path d="M16546 32867
L16546 32040
" />
<path d="M16546 32040
L16388 32040
" />
<path d="M16388 32040
L16388 32906
" />
<circle cx="16467.3" cy="34678.1" r="1244.99" /> 
<path d="M14488 37040
L13307 37040
" />
<path d="M13307 37040
L12126 37040
" />
<path d="M12126 37040
L10945 37040
" />
<path d="M14488 37040
L14488 32906
" />
<path d="M14488 32906
L12638 32906
" />
<path d="M12638 32906
L10945 32906
" />
<path d="M10945 32906
L10945 37040
" />
<path d="M13307 37040
L13307 36252
" />
<path d="M13307 36252
L12126 36252
" />
<path d="M12126 36252
L12126 37040
" />
<path d="M12796 32867
L12796 32040
" />
<path d="M12796 32040
L12638 32040
" />
<path d="M12638 32040
L12638 32906
" />
<circle cx="12717.3" cy="34678.1" r="1244.99" /> 
<path d="M40738 25040
L39557 25040
" />
<path d="M39557 25040
L38376 25040
" />
<path d="M38376 25040
L37195 25040
" />
<path d="M40738 25040
L40738 20906
" />
<path d="M40738 20906
L38888 20906
" />
<path d="M38888 20906
L37195 20906
" />
<path d="M37195 20906
L37195 25040
" />
<path d="M39557 25040
L39557 24252
" />
<path d="M39557 24252
L38376 24252
" />
<path d="M38376 24252
L38376 25040
" />
<path d="M39046 20867
L39046 20040
" />
<path d="M39046 20040
L38888 20040
" />
<path d="M38888 20040
L38888 20906
" />
<circle cx="38967.3" cy="22678.1" r="1244.99" /> 
<path d="M36988 25040
L35807 25040
" />
<path d="M35807 25040
L34626 25040
" />
<path d="M34626 25040
L33445 25040
" />
<path d="M36988 25040
L36988 20906
" />
<path d="M36988 20906
L35138 20906
" />
<path d="M35138 20906
L33445 20906
" />
<path d="M33445 20906
L33445 25040
" />
<path d="M35807 25040
L35807 24252
" />
<path d="M35807 24252
L34626 24252
" />
<path d="M34626 24252
L34626 25040
" />
<path d="M35296 20867
L35296 20040
" />
<path d="M35296 20040
L35138 20040
" />
<path d="M35138 20040
L35138 20906
" />
<circle cx="35217.3" cy="22678.1" r="1244.99" /> 
<path d="M33238 25040
L32057 25040
" />
<path d="M32057 25040
L30876 25040
" />
<path d="M30876 25040
L29695 25040
" />
<path d="M33238 25040
L33238 20906
" />
<path d="M33238 20906
L31388 20906
" />
<path d="M31388 20906
L29695 20906
" />
<path d="M29695 20906
L29695 25040
" />
<path d="M32057 25040
L32057 24252
" />
<path d="M32057 24252
L30876 24252
" />
<path d="M30876 24252
L30876 25040
" />
<path d="M31546 20867
L31546 20040
" />
<path d="M31546 20040
L31388 20040
" />
<path d="M31388 20040
L31388 20906
" />
<circle cx="31467.3" cy="22678.1" r="1244.99" /> 
<path d="M29488 25040
L28307 25040
" />
<path d="M28307 25040
L27126 25040
" />
<path d="M27126 25040
L25945 25040
" />
<path d="M29488 25040
L29488 20906
" />
<path d="M29488 20906
L27638 20906
" />
<path d="M27638 20906
L25945 20906
" />
<path d="M25945 20906
L25945 25040
" />
<path d="M28307 25040
L28307 24252
" />
<path d="M28307 24252
L27126 24252
" />
<path d="M27126 24252
L27126 25040
" />
<path d="M27796 20867
L27796 20040
" />
<path d="M27796 20040
L27638 20040
" />
<path d="M27638 20040
L27638 20906
" />
<circle cx="27717.3" cy="22678.1" r="1244.99" /> 
<path d="M25738 25040
L24557 25040
" />
<path d="M24557 25040
L23376 25040
" />
<path d="M23376 25040
L22195 25040
" />
<path d="M25738 25040
L25738 20906
" />
<path d="M25738 20906
L23888 20906
" />
<path d="M23888 20906
L22195 20906
" />
<path d="M22195 20906
L22195 25040
" />
<path d="M24557 25040
L24557 24252
" />
<path d="M24557 24252
L23376 24252
" />
<path d="M23376 24252
L23376 25040
" />
<path d="M24046 20867
L24046 20040
" />
<path d="M24046 20040
L23888 20040
" />
<path d="M23888 20040
L23888 20906
" />
<circle cx="23967.3" cy="22678.1" r="1244.99" /> 
<path d="M21988 25040
L20807 25040
" />
<path d="M20807 25040
L19626 25040
" />
<path d="M19626 25040
L18445 25040
" />
<path d="M21988 25040
L21988 20906
" />
<path d="M21988 20906
L20138 20906
" />
<path d="M20138 20906
L18445 20906
" />
<path d="M18445 20906
L18445 25040
" />
<path d="M20807 25040
L20807 24252
" />
<path d="M20807 24252
L19626 24252
" />
<path d="M19626 24252
L19626 25040
" />
<path d="M20296 20867
L20296 20040
" />
<path d="M20296 20040
L20138 20040
" />
<path d="M20138 20040
L20138 20906
" />
<circle cx="20217.3" cy="22678.1" r="1244.99" /> 
<path d="M18238 25040
L17057 25040
" />
<path d="M17057 25040
L15876 25040
" />
<path d="M15876 25040
L14695 25040
" />
<path d="M18238 25040
L18238 20906
" />
<path d="M18238 20906
L16388 20906
" />
<path d="M16388 20906
L14695 20906
" />
<path d="M14695 20906
L14695 25040
" />
<path d="M17057 25040
L17057 24252
" />
<path d="M17057 24252
L15876 24252
" />
<path d="M15876 24252
L15876 25040
" />
<path d="M16546 20867
L16546 20040
" />
<path d="M16546 20040
L16388 20040
" />
<path d="M16388 20040
L16388 20906
" />
<circle cx="16467.3" cy="22678.1" r="1244.99" /> 
<path d="M14488 25040
L13307 25040
" />
<path d="M13307 25040
L12126 25040
" />
<path d="M12126 25040
L10945 25040
" />
<path d="M14488 25040
L14488 20906
" />
<path d="M14488 20906
L12638 20906
" />
<path d="M12638 20906
L10945 20906
" />
<path d="M10945 20906
L10945 25040
" />
<path d="M13307 25040
L13307 24252
" />
<path d="M13307 24252
L12126 24252
" />
<path d="M12126 24252
L12126 25040
" />
<path d="M12796 20867
L12796 20040
" />
<path d="M12796 20040
L12638 20040
" />
<path d="M12638 20040
L12638 20906
" />
<circle cx="12717.3" cy="22678.1" r="1244.99" /> 
<path d="M20276.4 30922.2 A610.236 610.236 0.0 0 0 20886.6 31532.4 " />
<path d="M20276 30922
L20276 26434
" />
<path d="M20886.6 25823.8 A610.236 610.236 0.0 0 0 20276.4 26434 " />
<path d="M20886 25823
L22422 25823
" />
<path d="M23032.3 26434 A610.236 610.236 0.0 0 0 22422 25823.8 " />
<path d="M23032 26434
L23032 30922
" />
<path d="M22422 31532.4 A610.237 610.237 0.0 0 0 23032.3 30922.2 " />
<path d="M22422 31532
L20886 31532
" />
</g>
<g style="fill:#000000; fill-opacity:0.0; 
stroke:#000000; stroke-width:59.0551; stroke-opacity:1; 
stroke-linecap:round; stroke-linejoin:round;">
<path d="M26473 26237
L30961 26237
" />
<path d="M30961 26237
L30961 31119
" />
<path d="M30961 31119
L26473 31119
" />
<path d="M26473 31119
L26473 26237
" />
<g >
</g>
<g >
</g>
<g >
</g>
<g >
</g>
<g >
</g>
<g >
</g>
<g >
</g>
<g >
</g>
<g >
</g>
<g >
</g>
<g >
</g>
<g >
</g>
<g >
</g>
<g >
</g>
<g >
</g>
<g >
</g>
<g >
</g>
<g >
</g>
<g >
</g>
<g >
</g>
<g >
</g>
<g >
</g>
<g >
</g>
<g >
</g>
<g >
</g>
<g >
</g>
<g >
</g>
<g >
</g>
<g >
</g>
<g >
</g>
<g >
</g>
<g >
</g>
<g >
</g>
<g >
</g>
<g >
</g>
<g >
</g>
<g >
</g>
<g >
</g>
<g >
</g>
<g >
</g>
<g >
</g>
<g >
</g>
<g >
</g>
<g >
</g>
<g >
</g>
<g >
</g>
<g >
</g>
<g >
</g>
<g >
</g>
<g >
</g>
<g >
</g>
<g >
</g>
</g>
<g style="fill:#000000; fill-opacity:0.0; 
stroke:#000000; stroke-width:59.0551; stroke-opacity:1; 
stroke-linecap:round; stroke-linejoin:round;">
<g transform="rotate(-90 27527.1 43363.1)">
<text x="27527.1" y="43560"
textLength="374.954" font-size="524.934" lengthAdjust="spacingAndGlyphs"
text-anchor="middle" opacity="0">0</text>
</g>
<g class="stroked-text"><desc>0</desc>
<path d="M27311 43381
L27311 43344
L27330 43306
L27349 43288
L27386 43269
L27461 43250
L27555 43250
L27630 43269
L27667 43288
L27686 43306
L27705 43344
L27705 43381
L27686 43419
L27667 43438
L27630 43456
L27555 43475
L27461 43475
L27386 43456
L27349 43438
L27330 43419
L27311 43381
" />
</g><g >
</g>
</g>
<g style="fill:#000000; fill-opacity:0.0; 
stroke:#000000; stroke-width:59.0551; stroke-opacity:1; 
stroke-linecap:round; stroke-linejoin:round;">
</g>
<g style="fill:#000000; fill-opacity:0.0; 
stroke:#000000; stroke-width:19.685; stroke-opacity:1; 
stroke-linecap:round; stroke-linejoin:round;">
<path d="M40717 19678
L10967 19678
" />
<path d="M10967 19678
L10967 48428
" />
<path d="M10967 48428
L13967 48427
" />
<path d="M13967 48427
L16967 48428
" />
<path d="M16967 48428
L40717 48428
" />
<path d="M40717 48428
L40717 37249
" />
<path d="M40717 37249
L40717 19678
" />
<g >
</g>
<g >
</g>
<g >
</g>
<g >
</g>
<g >
</g>
<g >
</g>
<g >
</g>
<g >
</g>
<g >
</g>
<g >
</g>
<g >
</g>
<g >
</g>
<g >
</g>
<g >
</g>
<g >
</g>
<g >
</g>
<g >
</g>
<g >
</g>
<g >
</g>
<g >
</g>
<g >
</g>
<g >
</g>
<g >
</g>
<g >
</g>
<g >
</g>
<g >
</g>
<g >
</g>
<g >
</g>
<g >
</g>
<g >
</g>
<g >
</g>
<g >
</g>
<g >
</g>
<g >
</g>
<g >
</g>
<g >
</g>
<g >
</g>
<g >
</g>
<g >
</g>
<g >
</g>
<g >
</g>
<g >
</g>
<g >
</g>
<g >
</g>
<g >
</g>
<g >
</g>
<g >
</g>
<g >
</g>
<g >
</g>
<g >
</g>
<g >
</g>
<g >
</g>
<g >
</g>
</g> 
</svg>
