<?xml version="1.0" standalone="no"?>
 <!DOCTYPE svg PUBLIC "-//W3C//DTD SVG 1.1//EN" 
 "http://www.w3.org/Graphics/SVG/1.1/DTD/svg11.dtd"> 
<svg xmlns="http://www.w3.org/2000/svg" version="1.1" 
    width="29.7002cm" height="21.0007cm" viewBox="0 0 116930 82680 ">
<title>SVG Picture created as TopBreakout-brd.svg date 2019/10/21 21:57:55 </title>
  <desc>Picture generated by PCBNEW </desc>
<g style="fill:#000000; fill-opacity:1;stroke:#000000; stroke-opacity:1;
stroke-linecap:round; stroke-linejoin:round; "
 transform="translate(0 0) scale(1 1)">
</g>
<g style="fill:#000000; fill-opacity:0.0; 
stroke:#000000; stroke-width:-0.000393701; stroke-opacity:1; 
stroke-linecap:round; stroke-linejoin:round;">
</g>
<g style="fill:#000000; fill-opacity:0.0; 
stroke:#000000; stroke-width:39.3701; stroke-opacity:1; 
stroke-linecap:round; stroke-linejoin:round;">
<path d="M59371 52683
L59371 48746
" />
<path d="M63308 52683
L63308 48746
" />
<path d="M59371 48746
L63308 48746
" />
<path d="M59371 52683
L63308 52683
" />
<circle cx="62954.3" cy="52329.1" r="196.85" /> 
<path d="M56555 54038
L56555 54825
" />
<path d="M56555 54825
L57044 54825
" />
<path d="M57044 54825
L57044 54038
" />
<path d="M57044 54038
L56555 54038
" />
<path d="M55155 54038
L55155 54825
" />
<path d="M55155 54825
L55644 54825
" />
<path d="M55644 54825
L55644 54038
" />
<path d="M55644 54038
L55155 54038
" />
<path d="M50706 36693
L51493 36693
" />
<path d="M51493 36693
L51493 36182
" />
<path d="M51493 36182
L50706 36182
" />
<path d="M50706 36182
L50706 36693
" />
<path d="M51178 36516
L51060 36437
" />
<path d="M51060 36437
L51178 36359
" />
<path d="M51178 36359
L51178 36516
" />
<path d="M51060 36516
L51060 36359
" />
<path d="M51060 36437
L50981 36437
" />
<path d="M51178 36437
L51257 36437
" />
<path d="M58974 33931
L58974 37746
" />
<path d="M58974 33931
L55974 33931
" />
<path d="M55974 33931
L55974 37742
" />
<path d="M55974 37742
L58966 37742
" />
<path d="M50706 34919
L51493 34919
" />
<path d="M51493 34919
L51493 34431
" />
<path d="M51493 34431
L50706 34431
" />
<path d="M50706 34431
L50706 34919
" />
<path d="M63706 36044
L64493 36044
" />
<path d="M64493 36044
L64493 35555
" />
<path d="M64493 35555
L63706 35555
" />
<path d="M63706 35555
L63706 36044
" />
<path d="M50806 38444
L51593 38444
" />
<path d="M51593 38444
L51593 37955
" />
<path d="M51593 37955
L50806 37955
" />
<path d="M50806 37955
L50806 38444
" />
<path d="M50706 33144
L51493 33144
" />
<path d="M51493 33144
L51493 32655
" />
<path d="M51493 32655
L50706 32655
" />
<path d="M50706 32655
L50706 33144
" />
<path d="M64644 55093
L64644 54306
" />
<path d="M64644 54306
L64155 54306
" />
<path d="M64155 54306
L64155 55093
" />
<path d="M64155 55093
L64644 55093
" />
<path d="M60289 54306
L60289 55093
" />
<path d="M60289 55093
L60777 55093
" />
<path d="M60777 55093
L60777 54306
" />
<path d="M60777 54306
L60289 54306
" />
<path d="M58844 55093
L58844 54306
" />
<path d="M58844 54306
L58355 54306
" />
<path d="M58355 54306
L58355 55093
" />
<path d="M58355 55093
L58844 55093
" />
<path d="M53055 46906
L53055 47693
" />
<path d="M53055 47693
L53544 47693
" />
<path d="M53544 47693
L53544 46906
" />
<path d="M53544 46906
L53055 46906
" />
<path d="M62710 55093
L62710 54306
" />
<path d="M62710 54306
L62222 54306
" />
<path d="M62222 54306
L62222 55093
" />
<path d="M62222 55093
L62710 55093
" />
</g>
<g style="fill:#000000; fill-opacity:0.0; 
stroke:#000000; stroke-width:59.0551; stroke-opacity:1; 
stroke-linecap:round; stroke-linejoin:round;">
<path d="M72692 55804
L72692 53974
" />
<path d="M72692 53974
L68881 53974
" />
<path d="M68881 53974
L68881 55804
" />
<path d="M68881 55804
L72692 55804
" />
</g>
<g style="fill:#000000; fill-opacity:0.0; 
stroke:#000000; stroke-width:39.3701; stroke-opacity:1; 
stroke-linecap:round; stroke-linejoin:round;">
<path d="M46475 45600
L45924 45600
" />
<path d="M46475 44399
L45924 44399
" />
<path d="M45924 45600
L45924 44399
" />
<path d="M46475 45600
L46475 44399
" />
<path d="M47864 46444
L49635 46444
" />
<path d="M47864 49555
L49635 49555
" />
<path d="M49635 46444
L49635 49555
" />
<path d="M47864 46444
L47864 49555
" />
<circle cx="48218.5" cy="49200.8" r="196.85" /> 
<path d="M46850 53776
L46850 53757
" />
<path d="M53149 53776
L53149 53757
" />
<path d="M46850 53757
L46141 53757
" />
<path d="M53858 53757
L53149 53757
" />
<path d="M53149 53776
L46850 53776
" />
<path d="M47131 55686
L47131 55489
" />
<path d="M52868 55686
L52868 55489
" />
<path d="M47131 55489
L46141 55489
" />
<path d="M53858 55489
L52868 55489
" />
<path d="M46141 55489
L46141 53757
" />
<path d="M53858 55489
L53858 53757
" />
<path d="M52868 55686
L47131 55686
" />
</g>
<g style="fill:#000000; fill-opacity:0.0; 
stroke:#000000; stroke-width:40; stroke-opacity:1; 
stroke-linecap:round; stroke-linejoin:round;">
<path d="M47920 45309
L48679 45309
" />
<path d="M47920 44690
L48679 44690
" />
</g>
<g style="fill:#000000; fill-opacity:1.0; 
stroke:#000000; stroke-width:0; stroke-opacity:1; 
stroke-linecap:round; stroke-linejoin:round;">
<path style="fill:#000000; fill-opacity:1.0; 
stroke:#000000; stroke-width:0; stroke-opacity:1; 
stroke-linecap:round; stroke-linejoin:round;fill-rule:evenodd;"
d="M 47925.3,45334.3
47630,45334.3
47630,44665
47925.3,44665
Z" /> 
<path style="fill:#000000; fill-opacity:1.0; 
stroke:#000000; stroke-width:0; stroke-opacity:1; 
stroke-linecap:round; stroke-linejoin:round;fill-rule:evenodd;"
d="M 48970,45335
48674.7,45335
48674.7,44665.7
48970,44665.7
Z" /> 
</g>
<g style="fill:#000000; fill-opacity:1.0; 
stroke:#000000; stroke-width:40; stroke-opacity:1; 
stroke-linecap:round; stroke-linejoin:round;">
</g>
<g style="fill:#000000; fill-opacity:0.0; 
stroke:#000000; stroke-width:40; stroke-opacity:1; 
stroke-linecap:round; stroke-linejoin:round;">
<path d="M63460 47274
L64220 47274
" />
<path d="M63460 46655
L64220 46655
" />
</g>
<g style="fill:#000000; fill-opacity:1.0; 
stroke:#000000; stroke-width:0; stroke-opacity:1; 
stroke-linecap:round; stroke-linejoin:round;">
<path style="fill:#000000; fill-opacity:1.0; 
stroke:#000000; stroke-width:0; stroke-opacity:1; 
stroke-linecap:round; stroke-linejoin:round;fill-rule:evenodd;"
d="M 63465.5,47299.3
63170.2,47299.3
63170.2,46630
63465.5,46630
Z" /> 
<path style="fill:#000000; fill-opacity:1.0; 
stroke:#000000; stroke-width:0; stroke-opacity:1; 
stroke-linecap:round; stroke-linejoin:round;fill-rule:evenodd;"
d="M 64510.2,47300
64214.8,47300
64214.8,46630.7
64510.2,46630.7
Z" /> 
</g>
<g style="fill:#000000; fill-opacity:1.0; 
stroke:#000000; stroke-width:40; stroke-opacity:1; 
stroke-linecap:round; stroke-linejoin:round;">
</g>
<g style="fill:#000000; fill-opacity:0.0; 
stroke:#000000; stroke-width:40; stroke-opacity:1; 
stroke-linecap:round; stroke-linejoin:round;">
<path d="M59220 46655
L58460 46655
" />
<path d="M59220 47274
L58460 47274
" />
</g>
<g style="fill:#000000; fill-opacity:1.0; 
stroke:#000000; stroke-width:0; stroke-opacity:1; 
stroke-linecap:round; stroke-linejoin:round;">
<path style="fill:#000000; fill-opacity:1.0; 
stroke:#000000; stroke-width:0; stroke-opacity:1; 
stroke-linecap:round; stroke-linejoin:round;fill-rule:evenodd;"
d="M 59510.2,47300
59214.8,47300
59214.8,46630.7
59510.2,46630.7
Z" /> 
<path style="fill:#000000; fill-opacity:1.0; 
stroke:#000000; stroke-width:0; stroke-opacity:1; 
stroke-linecap:round; stroke-linejoin:round;fill-rule:evenodd;"
d="M 58465.5,47299.3
58170.2,47299.3
58170.2,46630
58465.5,46630
Z" /> 
</g>
<g style="fill:#000000; fill-opacity:1.0; 
stroke:#000000; stroke-width:40; stroke-opacity:1; 
stroke-linecap:round; stroke-linejoin:round;">
</g>
<g style="fill:#000000; fill-opacity:0.0; 
stroke:#000000; stroke-width:40; stroke-opacity:1; 
stroke-linecap:round; stroke-linejoin:round;">
<path d="M51079 44690
L50320 44690
" />
<path d="M51079 45309
L50320 45309
" />
</g>
<g style="fill:#000000; fill-opacity:1.0; 
stroke:#000000; stroke-width:0; stroke-opacity:1; 
stroke-linecap:round; stroke-linejoin:round;">
<path style="fill:#000000; fill-opacity:1.0; 
stroke:#000000; stroke-width:0; stroke-opacity:1; 
stroke-linecap:round; stroke-linejoin:round;fill-rule:evenodd;"
d="M 51370,45335
51074.7,45335
51074.7,44665.7
51370,44665.7
Z" /> 
<path style="fill:#000000; fill-opacity:1.0; 
stroke:#000000; stroke-width:0; stroke-opacity:1; 
stroke-linecap:round; stroke-linejoin:round;fill-rule:evenodd;"
d="M 50325.3,45334.3
50030,45334.3
50030,44665
50325.3,44665
Z" /> 
</g>
<g style="fill:#000000; fill-opacity:1.0; 
stroke:#000000; stroke-width:40; stroke-opacity:1; 
stroke-linecap:round; stroke-linejoin:round;">
</g>
<g style="fill:#000000; fill-opacity:0.0; 
stroke:#000000; stroke-width:40; stroke-opacity:1; 
stroke-linecap:round; stroke-linejoin:round;">
<path d="M60960 47274
L61720 47274
" />
<path d="M60960 46655
L61720 46655
" />
</g>
<g style="fill:#000000; fill-opacity:1.0; 
stroke:#000000; stroke-width:0; stroke-opacity:1; 
stroke-linecap:round; stroke-linejoin:round;">
<path style="fill:#000000; fill-opacity:1.0; 
stroke:#000000; stroke-width:0; stroke-opacity:1; 
stroke-linecap:round; stroke-linejoin:round;fill-rule:evenodd;"
d="M 60965.5,47299.3
60670.2,47299.3
60670.2,46630
60965.5,46630
Z" /> 
<path style="fill:#000000; fill-opacity:1.0; 
stroke:#000000; stroke-width:0; stroke-opacity:1; 
stroke-linecap:round; stroke-linejoin:round;fill-rule:evenodd;"
d="M 62010.2,47300
61714.8,47300
61714.8,46630.7
62010.2,46630.7
Z" /> 
</g>
<g style="fill:#000000; fill-opacity:1.0; 
stroke:#000000; stroke-width:40; stroke-opacity:1; 
stroke-linecap:round; stroke-linejoin:round;">
</g>
<g style="fill:#000000; fill-opacity:0.0; 
stroke:#000000; stroke-width:40; stroke-opacity:1; 
stroke-linecap:round; stroke-linejoin:round;">
<path d="M66475 54951
L67204 54951
" />
<path d="M67204 54478
L66475 54478
" />
</g>
<g style="fill:#000000; fill-opacity:1.0; 
stroke:#000000; stroke-width:0; stroke-opacity:1; 
stroke-linecap:round; stroke-linejoin:round;">
<path style="fill:#000000; fill-opacity:1.0; 
stroke:#000000; stroke-width:0; stroke-opacity:1; 
stroke-linecap:round; stroke-linejoin:round;fill-rule:evenodd;"
d="M 66643.3,54970.9
66446.5,54970.9
66446.5,54459.1
66643.3,54459.1
Z" /> 
<path style="fill:#000000; fill-opacity:1.0; 
stroke:#000000; stroke-width:0; stroke-opacity:1; 
stroke-linecap:round; stroke-linejoin:round;fill-rule:evenodd;"
d="M 67233.9,54970.9
67037,54970.9
67037,54459.1
67233.9,54459.1
Z" /> 
</g>
<g style="fill:#000000; fill-opacity:1.0; 
stroke:#000000; stroke-width:40; stroke-opacity:1; 
stroke-linecap:round; stroke-linejoin:round;">
</g>
<g style="fill:#000000; fill-opacity:0.0; 
stroke:#000000; stroke-width:40; stroke-opacity:1; 
stroke-linecap:round; stroke-linejoin:round;">
<path d="M66475 51336
L67204 51336
" />
<path d="M67204 50863
L66475 50863
" />
</g>
<g style="fill:#000000; fill-opacity:1.0; 
stroke:#000000; stroke-width:0; stroke-opacity:1; 
stroke-linecap:round; stroke-linejoin:round;">
<path style="fill:#000000; fill-opacity:1.0; 
stroke:#000000; stroke-width:0; stroke-opacity:1; 
stroke-linecap:round; stroke-linejoin:round;fill-rule:evenodd;"
d="M 66643.3,51355.9
66446.5,51355.9
66446.5,50844.1
66643.3,50844.1
Z" /> 
<path style="fill:#000000; fill-opacity:1.0; 
stroke:#000000; stroke-width:0; stroke-opacity:1; 
stroke-linecap:round; stroke-linejoin:round;fill-rule:evenodd;"
d="M 67233.9,51355.9
67037,51355.9
67037,50844.1
67233.9,50844.1
Z" /> 
</g>
<g style="fill:#000000; fill-opacity:1.0; 
stroke:#000000; stroke-width:40; stroke-opacity:1; 
stroke-linecap:round; stroke-linejoin:round;">
</g>
<g style="fill:#000000; fill-opacity:0.0; 
stroke:#000000; stroke-width:40; stroke-opacity:1; 
stroke-linecap:round; stroke-linejoin:round;">
<path d="M66475 53746
L67204 53746
" />
<path d="M67204 53273
L66475 53273
" />
</g>
<g style="fill:#000000; fill-opacity:1.0; 
stroke:#000000; stroke-width:0; stroke-opacity:1; 
stroke-linecap:round; stroke-linejoin:round;">
<path style="fill:#000000; fill-opacity:1.0; 
stroke:#000000; stroke-width:0; stroke-opacity:1; 
stroke-linecap:round; stroke-linejoin:round;fill-rule:evenodd;"
d="M 66643.3,53765.7
66446.5,53765.7
66446.5,53253.9
66643.3,53253.9
Z" /> 
<path style="fill:#000000; fill-opacity:1.0; 
stroke:#000000; stroke-width:0; stroke-opacity:1; 
stroke-linecap:round; stroke-linejoin:round;fill-rule:evenodd;"
d="M 67233.9,53765.7
67037,53765.7
67037,53253.9
67233.9,53253.9
Z" /> 
</g>
<g style="fill:#000000; fill-opacity:1.0; 
stroke:#000000; stroke-width:40; stroke-opacity:1; 
stroke-linecap:round; stroke-linejoin:round;">
</g>
<g style="fill:#000000; fill-opacity:0.0; 
stroke:#000000; stroke-width:40; stroke-opacity:1; 
stroke-linecap:round; stroke-linejoin:round;">
<path d="M66475 52541
L67204 52541
" />
<path d="M67204 52068
L66475 52068
" />
</g>
<g style="fill:#000000; fill-opacity:1.0; 
stroke:#000000; stroke-width:0; stroke-opacity:1; 
stroke-linecap:round; stroke-linejoin:round;">
<path style="fill:#000000; fill-opacity:1.0; 
stroke:#000000; stroke-width:0; stroke-opacity:1; 
stroke-linecap:round; stroke-linejoin:round;fill-rule:evenodd;"
d="M 66643.3,52561
66446.5,52561
66446.5,52049.2
66643.3,52049.2
Z" /> 
<path style="fill:#000000; fill-opacity:1.0; 
stroke:#000000; stroke-width:0; stroke-opacity:1; 
stroke-linecap:round; stroke-linejoin:round;fill-rule:evenodd;"
d="M 67233.9,52561
67037,52561
67037,52049.2
67233.9,52049.2
Z" /> 
<g >
</g>
<g >
</g>
<g >
</g>
<g >
</g>
<g >
</g>
<g >
</g>
<g >
</g>
<g >
</g>
<g >
</g>
<g >
</g>
<g >
</g>
<g >
</g>
<g >
</g>
<g >
</g>
<g >
</g>
<g >
</g>
<g >
</g>
<g >
</g>
<g >
</g>
<g >
</g>
<g >
</g>
<g >
</g>
<g >
</g>
<g >
</g>
<g >
</g>
<g >
</g>
<g >
</g>
<g >
</g>
<g >
</g>
<g >
</g>
<g >
</g>
<g >
</g>
<g >
</g>
<g >
</g>
<g >
</g>
<g >
</g>
<g >
</g>
<g >
</g>
<g >
</g>
<g >
</g>
<g >
</g>
<g >
</g>
<g >
</g>
<g >
</g>
<g >
</g>
<g >
</g>
<g >
</g>
<g >
</g>
<g >
</g>
<g >
</g>
<g >
</g>
<g >
</g>
</g>
<g style="fill:#000000; fill-opacity:1.0; 
stroke:#000000; stroke-width:0; stroke-opacity:1; 
stroke-linecap:round; stroke-linejoin:round;">
</g>
<g style="fill:#000000; fill-opacity:0.0; 
stroke:#000000; stroke-width:0; stroke-opacity:1; 
stroke-linecap:round; stroke-linejoin:round;">
</g>
<g style="fill:#000000; fill-opacity:0.0; 
stroke:#000000; stroke-width:59.0551; stroke-opacity:1; 
stroke-linecap:round; stroke-linejoin:round;">
<text x="51100" y="35965.5"
textLength="-354.803" font-size="-524.934" lengthAdjust="spacingAndGlyphs"
text-anchor="middle" opacity="0">D</text>
<g class="stroked-text"><desc>D</desc>
<path d="M51203 35946
L51203 35553
L51109 35553
L51053 35571
L51015 35609
L50996 35646
L50978 35721
L50978 35777
L50996 35852
L51015 35890
L51053 35927
L51109 35946
L51203 35946
" />
</g><g >
</g>
</g>
<g style="fill:#000000; fill-opacity:0.0; 
stroke:#000000; stroke-width:59.0551; stroke-opacity:1; 
stroke-linecap:round; stroke-linejoin:round;">
<text x="51131.9" y="55364.2"
textLength="14475" font-size="524.934" lengthAdjust="spacingAndGlyphs"
text-anchor="middle" opacity="0">https://github.com/newdigate/teensy-eurorack</text>
<g class="stroked-text"><desc>https://github.com/newdigate/teensy-eurorack</desc>
<path d="M44026 55345
L44026 54951
" />
<path d="M44195 55345
L44195 55139
L44176 55101
L44139 55082
L44082 55082
L44045 55101
L44026 55120
" />
<path d="M44326 55082
L44476 55082
" />
<path d="M44382 54951
L44382 55289
L44401 55326
L44438 55345
L44476 55345
" />
<path d="M44551 55082
L44701 55082
" />
<path d="M44607 54951
L44607 55289
L44626 55326
L44663 55345
L44701 55345
" />
<path d="M44832 55082
L44832 55476
" />
<path d="M44832 55101
L44870 55082
L44945 55082
L44982 55101
L45001 55120
L45020 55157
L45020 55270
L45001 55307
L44982 55326
L44945 55345
L44870 55345
L44832 55326
" />
<path d="M45170 55326
L45207 55345
L45282 55345
L45320 55326
L45338 55289
L45338 55270
L45320 55232
L45282 55214
L45226 55214
L45188 55195
L45170 55157
L45170 55139
L45188 55101
L45226 55082
L45282 55082
L45320 55101
" />
<path d="M45507 55307
L45526 55326
L45507 55345
L45488 55326
L45507 55307
L45507 55345
" />
<path d="M45507 55101
L45526 55120
L45507 55139
L45488 55120
L45507 55101
L45507 55139
" />
<path d="M45976 54932
L45638 55439
" />
<path d="M46388 54932
L46051 55439
" />
<path d="M46688 55082
L46688 55401
L46669 55439
L46651 55457
L46613 55476
L46557 55476
L46519 55457
" />
<path d="M46688 55326
L46651 55345
L46576 55345
L46538 55326
L46519 55307
L46501 55270
L46501 55157
L46519 55120
L46538 55101
L46576 55082
L46651 55082
L46688 55101
" />
<path d="M46876 55345
L46876 55082
" />
<path d="M46876 54951
L46857 54970
L46876 54989
L46894 54970
L46876 54951
L46876 54989
" />
<path d="M47007 55082
L47157 55082
" />
<path d="M47063 54951
L47063 55289
L47082 55326
L47119 55345
L47157 55345
" />
<path d="M47288 55345
L47288 54951
" />
<path d="M47457 55345
L47457 55139
L47438 55101
L47401 55082
L47344 55082
L47307 55101
L47288 55120
" />
<path d="M47813 55082
L47813 55345
" />
<path d="M47644 55082
L47644 55289
L47663 55326
L47701 55345
L47757 55345
L47794 55326
L47813 55307
" />
<path d="M48001 55345
L48001 54951
" />
<path d="M48001 55101
L48038 55082
L48113 55082
L48151 55101
L48169 55120
L48188 55157
L48188 55270
L48169 55307
L48151 55326
L48113 55345
L48038 55345
L48001 55326
" />
<path d="M48357 55307
L48375 55326
L48357 55345
L48338 55326
L48357 55307
L48357 55345
" />
<path d="M48713 55326
L48675 55345
L48600 55345
L48563 55326
L48544 55307
L48525 55270
L48525 55157
L48544 55120
L48563 55101
L48600 55082
L48675 55082
L48713 55101
" />
<path d="M48938 55345
L48900 55326
L48882 55307
L48863 55270
L48863 55157
L48882 55120
L48900 55101
L48938 55082
L48994 55082
L49032 55101
L49050 55120
L49069 55157
L49069 55270
L49050 55307
L49032 55326
L48994 55345
L48938 55345
" />
<path d="M49238 55345
L49238 55082
" />
<path d="M49238 55120
L49257 55101
L49294 55082
L49350 55082
L49388 55101
L49407 55139
L49407 55345
" />
<path d="M49407 55139
L49425 55101
L49463 55082
L49519 55082
L49557 55101
L49575 55139
L49575 55345
" />
<path d="M50044 54932
L49707 55439
" />
<path d="M50175 55082
L50175 55345
" />
<path d="M50175 55120
L50194 55101
L50232 55082
L50288 55082
L50325 55101
L50344 55139
L50344 55345
" />
<path d="M50681 55326
L50644 55345
L50569 55345
L50531 55326
L50513 55289
L50513 55139
L50531 55101
L50569 55082
L50644 55082
L50681 55101
L50700 55139
L50700 55176
L50513 55214
" />
<path d="M50831 55082
L50906 55345
L50981 55157
L51056 55345
L51131 55082
" />
<path d="M51450 55345
L51450 54951
" />
<path d="M51450 55326
L51413 55345
L51338 55345
L51300 55326
L51281 55307
L51263 55270
L51263 55157
L51281 55120
L51300 55101
L51338 55082
L51413 55082
L51450 55101
" />
<path d="M51638 55345
L51638 55082
" />
<path d="M51638 54951
L51619 54970
L51638 54989
L51656 54970
L51638 54951
L51638 54989
" />
<path d="M51994 55082
L51994 55401
L51975 55439
L51956 55457
L51919 55476
L51863 55476
L51825 55457
" />
<path d="M51994 55326
L51956 55345
L51881 55345
L51844 55326
L51825 55307
L51806 55270
L51806 55157
L51825 55120
L51844 55101
L51881 55082
L51956 55082
L51994 55101
" />
<path d="M52350 55345
L52350 55139
L52331 55101
L52294 55082
L52219 55082
L52181 55101
" />
<path d="M52350 55326
L52312 55345
L52219 55345
L52181 55326
L52163 55289
L52163 55251
L52181 55214
L52219 55195
L52312 55195
L52350 55176
" />
<path d="M52481 55082
L52631 55082
" />
<path d="M52537 54951
L52537 55289
L52556 55326
L52594 55345
L52631 55345
" />
<path d="M52912 55326
L52875 55345
L52800 55345
L52762 55326
L52744 55289
L52744 55139
L52762 55101
L52800 55082
L52875 55082
L52912 55101
L52931 55139
L52931 55176
L52744 55214
" />
<path d="M53381 54932
L53044 55439
" />
<path d="M53456 55082
L53606 55082
" />
<path d="M53512 54951
L53512 55289
L53531 55326
L53569 55345
L53606 55345
" />
<path d="M53887 55326
L53850 55345
L53775 55345
L53737 55326
L53719 55289
L53719 55139
L53737 55101
L53775 55082
L53850 55082
L53887 55101
L53906 55139
L53906 55176
L53719 55214
" />
<path d="M54225 55326
L54187 55345
L54112 55345
L54075 55326
L54056 55289
L54056 55139
L54075 55101
L54112 55082
L54187 55082
L54225 55101
L54244 55139
L54244 55176
L54056 55214
" />
<path d="M54412 55082
L54412 55345
" />
<path d="M54412 55120
L54431 55101
L54468 55082
L54525 55082
L54562 55101
L54581 55139
L54581 55345
" />
<path d="M54750 55326
L54787 55345
L54862 55345
L54900 55326
L54918 55289
L54918 55270
L54900 55232
L54862 55214
L54806 55214
L54768 55195
L54750 55157
L54750 55139
L54768 55101
L54806 55082
L54862 55082
L54900 55101
" />
<path d="M55050 55082
L55143 55345
" />
<path d="M55237 55082
L55143 55345
L55106 55439
L55087 55457
L55050 55476
" />
<path d="M55387 55195
L55687 55195
" />
<path d="M56025 55326
L55987 55345
L55912 55345
L55875 55326
L55856 55289
L55856 55139
L55875 55101
L55912 55082
L55987 55082
L56025 55101
L56043 55139
L56043 55176
L55856 55214
" />
<path d="M56381 55082
L56381 55345
" />
<path d="M56212 55082
L56212 55289
L56231 55326
L56268 55345
L56324 55345
L56362 55326
L56381 55307
" />
<path d="M56568 55345
L56568 55082
" />
<path d="M56568 55157
L56587 55120
L56606 55101
L56643 55082
L56681 55082
" />
<path d="M56868 55345
L56831 55326
L56812 55307
L56793 55270
L56793 55157
L56812 55120
L56831 55101
L56868 55082
L56924 55082
L56962 55101
L56981 55120
L56999 55157
L56999 55270
L56981 55307
L56962 55326
L56924 55345
L56868 55345
" />
<path d="M57168 55345
L57168 55082
" />
<path d="M57168 55157
L57187 55120
L57206 55101
L57243 55082
L57281 55082
" />
<path d="M57581 55345
L57581 55139
L57562 55101
L57524 55082
L57449 55082
L57412 55101
" />
<path d="M57581 55326
L57543 55345
L57449 55345
L57412 55326
L57393 55289
L57393 55251
L57412 55214
L57449 55195
L57543 55195
L57581 55176
" />
<path d="M57937 55326
L57899 55345
L57824 55345
L57787 55326
L57768 55307
L57749 55270
L57749 55157
L57768 55120
L57787 55101
L57824 55082
L57899 55082
L57937 55101
" />
<path d="M58106 55345
L58106 54951
" />
<path d="M58143 55195
L58255 55345
" />
<path d="M58255 55082
L58106 55232
" />
</g><text x="66978.3" y="45468.5"
textLength="1651.57" font-size="524.934" lengthAdjust="spacingAndGlyphs"
text-anchor="middle" opacity="0">kryon</text>
<g class="stroked-text"><desc>kryon</desc>
<path d="M66284 45449
L66284 45056
" />
<path d="M66322 45299
L66434 45449
" />
<path d="M66434 45187
L66284 45337
" />
<path d="M66603 45449
L66603 45187
" />
<path d="M66603 45262
L66622 45224
L66640 45206
L66678 45187
L66715 45187
" />
<path d="M66809 45187
L66903 45449
" />
<path d="M66997 45187
L66903 45449
L66865 45543
L66847 45562
L66809 45580
" />
<path d="M67203 45449
L67165 45431
L67147 45412
L67128 45374
L67128 45262
L67147 45224
L67165 45206
L67203 45187
L67259 45187
L67297 45206
L67315 45224
L67334 45262
L67334 45374
L67315 45412
L67297 45431
L67259 45449
L67203 45449
" />
<path d="M67503 45187
L67503 45449
" />
<path d="M67503 45224
L67522 45206
L67559 45187
L67615 45187
L67653 45206
L67672 45243
L67672 45449
" />
</g><text x="66978.3" y="46102.4"
textLength="3863.8" font-size="524.934" lengthAdjust="spacingAndGlyphs"
text-anchor="middle" opacity="0">topbreakout </text>
<g class="stroked-text"><desc>topbreakout </desc>
<path d="M65122 45821
L65272 45821
" />
<path d="M65178 45689
L65178 46027
L65197 46064
L65234 46083
L65272 46083
" />
<path d="M65459 46083
L65422 46064
L65403 46046
L65384 46008
L65384 45896
L65403 45858
L65422 45839
L65459 45821
L65516 45821
L65553 45839
L65572 45858
L65591 45896
L65591 46008
L65572 46046
L65553 46064
L65516 46083
L65459 46083
" />
<path d="M65759 45821
L65759 46214
" />
<path d="M65759 45839
L65797 45821
L65872 45821
L65909 45839
L65928 45858
L65947 45896
L65947 46008
L65928 46046
L65909 46064
L65872 46083
L65797 46083
L65759 46064
" />
<path d="M66115 46083
L66115 45689
" />
<path d="M66115 45839
L66153 45821
L66228 45821
L66265 45839
L66284 45858
L66303 45896
L66303 46008
L66284 46046
L66265 46064
L66228 46083
L66153 46083
L66115 46064
" />
<path d="M66472 46083
L66472 45821
" />
<path d="M66472 45896
L66490 45858
L66509 45839
L66547 45821
L66584 45821
" />
<path d="M66865 46064
L66828 46083
L66753 46083
L66715 46064
L66697 46027
L66697 45877
L66715 45839
L66753 45821
L66828 45821
L66865 45839
L66884 45877
L66884 45914
L66697 45952
" />
<path d="M67222 46083
L67222 45877
L67203 45839
L67165 45821
L67090 45821
L67053 45839
" />
<path d="M67222 46064
L67184 46083
L67090 46083
L67053 46064
L67034 46027
L67034 45989
L67053 45952
L67090 45933
L67184 45933
L67222 45914
" />
<path d="M67409 46083
L67409 45689
" />
<path d="M67447 45933
L67559 46083
" />
<path d="M67559 45821
L67409 45971
" />
<path d="M67784 46083
L67747 46064
L67728 46046
L67709 46008
L67709 45896
L67728 45858
L67747 45839
L67784 45821
L67840 45821
L67878 45839
L67896 45858
L67915 45896
L67915 46008
L67896 46046
L67878 46064
L67840 46083
L67784 46083
" />
<path d="M68253 45821
L68253 46083
" />
<path d="M68084 45821
L68084 46027
L68103 46064
L68140 46083
L68196 46083
L68234 46064
L68253 46046
" />
<path d="M68384 45821
L68534 45821
" />
<path d="M68440 45689
L68440 46027
L68459 46064
L68496 46083
L68534 46083
" />
</g><text x="66978.3" y="46736.2"
textLength="1314.12" font-size="524.934" lengthAdjust="spacingAndGlyphs"
text-anchor="middle" opacity="0">v1.4</text>
<g class="stroked-text"><desc>v1.4</desc>
<path d="M66415 46455
L66509 46717
L66603 46455
" />
<path d="M66959 46717
L66734 46717
" />
<path d="M66847 46717
L66847 46323
L66809 46380
L66772 46417
L66734 46436
" />
<path d="M67128 46679
L67147 46698
L67128 46717
L67109 46698
L67128 46679
L67128 46717
" />
<path d="M67484 46455
L67484 46717
" />
<path d="M67390 46305
L67297 46586
L67540 46586
" />
</g></g>
<g style="fill:#000000; fill-opacity:0.0; 
stroke:#000000; stroke-width:50; stroke-opacity:1; 
stroke-linecap:round; stroke-linejoin:round;">
<path d="M52340 46433
L52340 44858
" />
<path d="M52340 44858
L52733 44464
" />
<path d="M52733 44464
L63757 44464
" />
<path d="M63757 44464
L64151 44858
" />
<path d="M64151 44858
L64151 46433
" />
<path d="M52340 46433
L52340 62575
" />
<path d="M52340 62575
L52537 62772
" />
<path d="M64151 46433
L64151 62575
" />
<path d="M64151 62575
L63954 62772
" />
<path d="M63954 62772
L52537 62772
" />
<path d="M52340 46433
L64151 46433
" />
<circle cx="70350" cy="35950" r="3149.61" /> 
<circle cx="46600" cy="35971.7" r="3149.61" /> 
</g>
<g style="fill:#000000; fill-opacity:0.0; 
stroke:#000000; stroke-width:31.4961; stroke-opacity:1; 
stroke-linecap:round; stroke-linejoin:round;">
<path d="M69942 51827
L69037 51827
" />
<path d="M69037 47102
L69037 46787
" />
<path d="M69037 46787
L69942 46787
" />
<path d="M69942 46787
L69942 47102
" />
</g>
<g style="fill:#000000; fill-opacity:0.0; 
stroke:#000000; stroke-width:23.622; stroke-opacity:1; 
stroke-linecap:round; stroke-linejoin:round;">
<path d="M69037 47102
L68722 47102
" />
<path d="M68722 47102
L68722 51827
" />
<path d="M68722 51827
L69037 51827
" />
<path d="M69942 47102
L70651 47102
" />
<path d="M70651 47102
L70651 51827
" />
<path d="M70651 51827
L69942 51827
" />
</g>
<g style="fill:#000000; fill-opacity:0.0; 
stroke:#000000; stroke-width:50; stroke-opacity:1; 
stroke-linecap:round; stroke-linejoin:round;">
<path d="M73361 44130
L73361 44327
" />
<path d="M73361 44327
L73164 44327
" />
<path d="M70015 44327
L69818 44327
" />
<path d="M69818 44327
L69818 44130
" />
<path d="M69818 40390
L69818 40193
" />
<path d="M69818 40193
L70015 40193
" />
<path d="M73361 40390
L73361 40193
" />
<path d="M73361 40193
L73164 40193
" />
<circle cx="71590.2" cy="41965" r="1059.34" /> 
<path d="M69611 44130
L69611 44327
" />
<path d="M69611 44327
L69414 44327
" />
<path d="M66265 44327
L66068 44327
" />
<path d="M66068 44327
L66068 44130
" />
<path d="M66068 40390
L66068 40193
" />
<path d="M66068 40193
L66265 40193
" />
<path d="M69611 40390
L69611 40193
" />
<path d="M69611 40193
L69414 40193
" />
<circle cx="67840.2" cy="41965" r="1059.34" /> 
<path d="M65861 44130
L65861 44327
" />
<path d="M65861 44327
L65664 44327
" />
<path d="M62515 44327
L62318 44327
" />
<path d="M62318 44327
L62318 44130
" />
<path d="M62318 40390
L62318 40193
" />
<path d="M62318 40193
L62515 40193
" />
<path d="M65861 40390
L65861 40193
" />
<path d="M65861 40193
L65664 40193
" />
<circle cx="64090.2" cy="41965" r="1059.34" /> 
<path d="M62111 44130
L62111 44327
" />
<path d="M62111 44327
L61914 44327
" />
<path d="M58765 44327
L58568 44327
" />
<path d="M58568 44327
L58568 44130
" />
<path d="M58568 40390
L58568 40193
" />
<path d="M58568 40193
L58765 40193
" />
<path d="M62111 40390
L62111 40193
" />
<path d="M62111 40193
L61914 40193
" />
<circle cx="60340.2" cy="41965" r="1059.34" /> 
<path d="M58361 44130
L58361 44327
" />
<path d="M58361 44327
L58164 44327
" />
<path d="M55015 44327
L54818 44327
" />
<path d="M54818 44327
L54818 44130
" />
<path d="M54818 40390
L54818 40193
" />
<path d="M54818 40193
L55015 40193
" />
<path d="M58361 40390
L58361 40193
" />
<path d="M58361 40193
L58164 40193
" />
<circle cx="56590.2" cy="41965" r="1059.34" /> 
<path d="M54611 44130
L54611 44327
" />
<path d="M54611 44327
L54414 44327
" />
<path d="M51265 44327
L51068 44327
" />
<path d="M51068 44327
L51068 44130
" />
<path d="M51068 40390
L51068 40193
" />
<path d="M51068 40193
L51265 40193
" />
<path d="M54611 40390
L54611 40193
" />
<path d="M54611 40193
L54414 40193
" />
<circle cx="52840.2" cy="41965" r="1059.34" /> 
<path d="M50861 44130
L50861 44327
" />
<path d="M50861 44327
L50664 44327
" />
<path d="M47515 44327
L47318 44327
" />
<path d="M47318 44327
L47318 44130
" />
<path d="M47318 40390
L47318 40193
" />
<path d="M47318 40193
L47515 40193
" />
<path d="M50861 40390
L50861 40193
" />
<path d="M50861 40193
L50664 40193
" />
<circle cx="49090.2" cy="41965" r="1059.34" /> 
<path d="M47111 44130
L47111 44327
" />
<path d="M47111 44327
L46914 44327
" />
<path d="M43765 44327
L43568 44327
" />
<path d="M43568 44327
L43568 44130
" />
<path d="M43568 40390
L43568 40193
" />
<path d="M43568 40193
L43765 40193
" />
<path d="M47111 40390
L47111 40193
" />
<path d="M47111 40193
L46914 40193
" />
<circle cx="45340.2" cy="41965" r="1059.34" /> 
<path d="M73361 32130
L73361 32327
" />
<path d="M73361 32327
L73164 32327
" />
<path d="M70015 32327
L69818 32327
" />
<path d="M69818 32327
L69818 32130
" />
<path d="M69818 28390
L69818 28193
" />
<path d="M69818 28193
L70015 28193
" />
<path d="M73361 28390
L73361 28193
" />
<path d="M73361 28193
L73164 28193
" />
<circle cx="71590.2" cy="29965" r="1059.34" /> 
<path d="M69611 32130
L69611 32327
" />
<path d="M69611 32327
L69414 32327
" />
<path d="M66265 32327
L66068 32327
" />
<path d="M66068 32327
L66068 32130
" />
<path d="M66068 28390
L66068 28193
" />
<path d="M66068 28193
L66265 28193
" />
<path d="M69611 28390
L69611 28193
" />
<path d="M69611 28193
L69414 28193
" />
<circle cx="67840.2" cy="29965" r="1059.34" /> 
<path d="M65861 32130
L65861 32327
" />
<path d="M65861 32327
L65664 32327
" />
<path d="M62515 32327
L62318 32327
" />
<path d="M62318 32327
L62318 32130
" />
<path d="M62318 28390
L62318 28193
" />
<path d="M62318 28193
L62515 28193
" />
<path d="M65861 28390
L65861 28193
" />
<path d="M65861 28193
L65664 28193
" />
<circle cx="64090.2" cy="29965" r="1059.34" /> 
<path d="M62111 32130
L62111 32327
" />
<path d="M62111 32327
L61914 32327
" />
<path d="M58765 32327
L58568 32327
" />
<path d="M58568 32327
L58568 32130
" />
<path d="M58568 28390
L58568 28193
" />
<path d="M58568 28193
L58765 28193
" />
<path d="M62111 28390
L62111 28193
" />
<path d="M62111 28193
L61914 28193
" />
<circle cx="60340.2" cy="29965" r="1059.34" /> 
<path d="M58361 32130
L58361 32327
" />
<path d="M58361 32327
L58164 32327
" />
<path d="M55015 32327
L54818 32327
" />
<path d="M54818 32327
L54818 32130
" />
<path d="M54818 28390
L54818 28193
" />
<path d="M54818 28193
L55015 28193
" />
<path d="M58361 28390
L58361 28193
" />
<path d="M58361 28193
L58164 28193
" />
<circle cx="56590.2" cy="29965" r="1059.34" /> 
<path d="M54611 32130
L54611 32327
" />
<path d="M54611 32327
L54414 32327
" />
<path d="M51265 32327
L51068 32327
" />
<path d="M51068 32327
L51068 32130
" />
<path d="M51068 28390
L51068 28193
" />
<path d="M51068 28193
L51265 28193
" />
<path d="M54611 28390
L54611 28193
" />
<path d="M54611 28193
L54414 28193
" />
<circle cx="52840.2" cy="29965" r="1059.34" /> 
<path d="M50861 32130
L50861 32327
" />
<path d="M50861 32327
L50664 32327
" />
<path d="M47515 32327
L47318 32327
" />
<path d="M47318 32327
L47318 32130
" />
<path d="M47318 28390
L47318 28193
" />
<path d="M47318 28193
L47515 28193
" />
<path d="M50861 28390
L50861 28193
" />
<path d="M50861 28193
L50664 28193
" />
<circle cx="49090.2" cy="29965" r="1059.34" /> 
<path d="M47111 32130
L47111 32327
" />
<path d="M47111 32327
L46914 32327
" />
<path d="M43765 32327
L43568 32327
" />
<path d="M43568 32327
L43568 32130
" />
<path d="M43568 28390
L43568 28193
" />
<path d="M43568 28193
L43765 28193
" />
<path d="M47111 28390
L47111 28193
" />
<path d="M47111 28193
L46914 28193
" />
<circle cx="45340.2" cy="29965" r="1059.34" /> 
<path d="M55852 33156.3 A242.52 242.52 0.0 0 0 55609.4 32913.8 " />
<path d="M55851 33156
L55851 38773
" />
<path d="M55609.4 39016.2 A242.52 242.52 0.0 0 0 55852 38773.7 " />
<path d="M54070 39016
L53509 39016
" />
<path d="M52702.4 38209.1 A807.087 807.087 0.0 0 0 53509.4 39016.2 " />
<path d="M52702 38209
L52702 33720
" />
<path d="M53509.4 32913.8 A807.087 807.087 0.0 0 0 52702.4 33720.9 " />
<path d="M53509 32913
L54070 32913
" />
</g>
<g style="fill:#000000; fill-opacity:0.0; 
stroke:#000000; stroke-width:59.0551; stroke-opacity:1; 
stroke-linecap:round; stroke-linejoin:round;">
<path d="M63584 33524
L63584 38405
" />
<path d="M59096 38405
L60157 38405
" />
<path d="M61830 38405
L63584 38405
" />
<path d="M59096 33524
L59096 38405
" />
<path d="M59096 33524
L60157 33524
" />
<path d="M61830 33524
L63584 33524
" />
</g>
<g style="fill:#000000; fill-opacity:0.0; 
stroke:#000000; stroke-width:98.4252; stroke-opacity:1; 
stroke-linecap:round; stroke-linejoin:round;">
<circle cx="63818.5" cy="36457.1" r="49.2126" /> 
</g>
<g style="fill:#000000; fill-opacity:0.0; 
stroke:#000000; stroke-width:66.5; stroke-opacity:1; 
stroke-linecap:round; stroke-linejoin:round;">
<text x="72100" y="39450"
textLength="5175.11" font-size="886.667" lengthAdjust="spacingAndGlyphs"
text-anchor="end" opacity="0">MIDI_OUT1</text>
<g class="stroked-text"><desc>MIDI_OUT1</desc>
<path d="M67116 39418
L67116 38753
L67338 39228
L67560 38753
L67560 39418
" />
<path d="M67876 39418
L67876 38753
" />
<path d="M68193 39418
L68193 38753
L68351 38753
L68446 38785
L68510 38848
L68541 38911
L68573 39038
L68573 39133
L68541 39260
L68510 39323
L68446 39386
L68351 39418
L68193 39418
" />
<path d="M68858 39418
L68858 38753
" />
<path d="M69016 39481
L69523 39481
" />
<path d="M69808 38753
L69935 38753
L69998 38785
L70061 38848
L70093 38975
L70093 39196
L70061 39323
L69998 39386
L69935 39418
L69808 39418
L69745 39386
L69681 39323
L69650 39196
L69650 38975
L69681 38848
L69745 38785
L69808 38753
" />
<path d="M70378 38753
L70378 39291
L70410 39355
L70441 39386
L70505 39418
L70631 39418
L70695 39386
L70726 39355
L70758 39291
L70758 38753
" />
<path d="M70980 38753
L71360 38753
" />
<path d="M71170 39418
L71170 38753
" />
<path d="M71930 39418
L71550 39418
" />
<path d="M71740 39418
L71740 38753
L71676 38848
L71613 38911
L71550 38943
" />
</g><text x="48350" y="39471.7"
textLength="4298.12" font-size="886.667" lengthAdjust="spacingAndGlyphs"
text-anchor="end" opacity="0">MIDI_IN1</text>
<g class="stroked-text"><desc>MIDI_IN1</desc>
<path d="M44253 39439
L44253 38774
L44475 39249
L44696 38774
L44696 39439
" />
<path d="M45013 39439
L45013 38774
" />
<path d="M45330 39439
L45330 38774
L45488 38774
L45583 38806
L45646 38869
L45678 38933
L45710 39059
L45710 39154
L45678 39281
L45646 39344
L45583 39408
L45488 39439
L45330 39439
" />
<path d="M45995 39439
L45995 38774
" />
<path d="M46153 39503
L46660 39503
" />
<path d="M46818 39439
L46818 38774
" />
<path d="M47135 39439
L47135 38774
L47515 39439
L47515 38774
" />
<path d="M48180 39439
L47800 39439
" />
<path d="M47990 39439
L47990 38774
L47926 38869
L47863 38933
L47800 38964
" />
</g></g>
<g style="fill:#000000; fill-opacity:0.0; 
stroke:#000000; stroke-width:59.0551; stroke-opacity:1; 
stroke-linecap:round; stroke-linejoin:round;">
<g transform="rotate(-90 62952 50666)">
<text x="62952" y="50862.9"
textLength="1230.06" font-size="524.934" lengthAdjust="spacingAndGlyphs"
text-anchor="middle" opacity="0">R11</text>
</g>
<g class="stroked-text"><desc>R11</desc>
<path d="M63130 50919
L62942 51050
" />
<path d="M63130 51144
L62736 51144
L62736 50994
L62755 50956
L62773 50937
L62811 50919
L62867 50919
L62905 50937
L62923 50956
L62942 50994
L62942 51144
" />
<path d="M63130 50544
L63130 50769
" />
<path d="M63130 50656
L62736 50656
L62792 50694
L62830 50731
L62848 50769
" />
<path d="M63130 50169
L63130 50394
" />
<path d="M63130 50281
L62736 50281
L62792 50319
L62830 50356
L62848 50394
" />
</g></g>
<g style="fill:#000000; fill-opacity:0.0; 
stroke:#000000; stroke-width:30.4; stroke-opacity:1; 
stroke-linecap:round; stroke-linejoin:round;">
<text x="69810.2" y="40105"
textLength="1433.91" font-size="506.667" lengthAdjust="spacingAndGlyphs"
text-anchor="end" opacity="0">JDA8</text>
<g class="stroked-text"><desc>JDA8</desc>
<path d="M68632 39706
L68632 39978
L68614 40032
L68578 40068
L68523 40086
L68487 40086
" />
<path d="M68813 40086
L68813 39706
L68903 39706
L68958 39724
L68994 39761
L69012 39797
L69030 39869
L69030 39924
L69012 39996
L68994 40032
L68958 40068
L68903 40086
L68813 40086
" />
<path d="M69175 39978
L69356 39978
" />
<path d="M69138 40086
L69265 39706
L69392 40086
" />
<path d="M69573 39869
L69537 39851
L69518 39833
L69500 39797
L69500 39779
L69518 39743
L69537 39724
L69573 39706
L69645 39706
L69681 39724
L69699 39743
L69718 39779
L69718 39797
L69699 39833
L69681 39851
L69645 39869
L69573 39869
L69537 39887
L69518 39905
L69500 39942
L69500 40014
L69518 40050
L69537 40068
L69573 40086
L69645 40086
L69681 40068
L69699 40050
L69718 40014
L69718 39942
L69699 39905
L69681 39887
L69645 39869
" />
</g><text x="66060.2" y="40105"
textLength="1396.66" font-size="506.667" lengthAdjust="spacingAndGlyphs"
text-anchor="end" opacity="0">JDA7</text>
<g class="stroked-text"><desc>JDA7</desc>
<path d="M64882 39706
L64882 39978
L64864 40032
L64828 40068
L64773 40086
L64737 40086
" />
<path d="M65063 40086
L65063 39706
L65153 39706
L65208 39724
L65244 39761
L65262 39797
L65280 39869
L65280 39924
L65262 39996
L65244 40032
L65208 40068
L65153 40086
L65063 40086
" />
<path d="M65425 39978
L65606 39978
" />
<path d="M65388 40086
L65515 39706
L65642 40086
" />
<path d="M65732 39706
L65986 39706
L65823 40086
" />
</g><text x="62310.2" y="40105"
textLength="1396.66" font-size="506.667" lengthAdjust="spacingAndGlyphs"
text-anchor="end" opacity="0">JDA6</text>
<g class="stroked-text"><desc>JDA6</desc>
<path d="M61132 39706
L61132 39978
L61114 40032
L61078 40068
L61023 40086
L60987 40086
" />
<path d="M61313 40086
L61313 39706
L61403 39706
L61458 39724
L61494 39761
L61512 39797
L61530 39869
L61530 39924
L61512 39996
L61494 40032
L61458 40068
L61403 40086
L61313 40086
" />
<path d="M61675 39978
L61856 39978
" />
<path d="M61638 40086
L61765 39706
L61892 40086
" />
<path d="M62181 39706
L62109 39706
L62073 39724
L62055 39743
L62018 39797
L62000 39869
L62000 40014
L62018 40050
L62037 40068
L62073 40086
L62145 40086
L62181 40068
L62199 40050
L62218 40014
L62218 39924
L62199 39887
L62181 39869
L62145 39851
L62073 39851
L62037 39869
L62018 39887
L62000 39924
" />
</g><text x="58560.2" y="40105"
textLength="1396.66" font-size="506.667" lengthAdjust="spacingAndGlyphs"
text-anchor="end" opacity="0">JDA5</text>
<g class="stroked-text"><desc>JDA5</desc>
<path d="M57382 39706
L57382 39978
L57364 40032
L57328 40068
L57273 40086
L57237 40086
" />
<path d="M57563 40086
L57563 39706
L57653 39706
L57708 39724
L57744 39761
L57762 39797
L57780 39869
L57780 39924
L57762 39996
L57744 40032
L57708 40068
L57653 40086
L57563 40086
" />
<path d="M57925 39978
L58106 39978
" />
<path d="M57888 40086
L58015 39706
L58142 40086
" />
<path d="M58449 39706
L58268 39706
L58250 39887
L58268 39869
L58305 39851
L58395 39851
L58431 39869
L58449 39887
L58468 39924
L58468 40014
L58449 40050
L58431 40068
L58395 40086
L58305 40086
L58268 40068
L58250 40050
" />
</g><text x="54810.2" y="40105"
textLength="1396.66" font-size="506.667" lengthAdjust="spacingAndGlyphs"
text-anchor="end" opacity="0">JDA4</text>
<g class="stroked-text"><desc>JDA4</desc>
<path d="M53632 39706
L53632 39978
L53614 40032
L53578 40068
L53523 40086
L53487 40086
" />
<path d="M53813 40086
L53813 39706
L53903 39706
L53958 39724
L53994 39761
L54012 39797
L54030 39869
L54030 39924
L54012 39996
L53994 40032
L53958 40068
L53903 40086
L53813 40086
" />
<path d="M54175 39978
L54356 39978
" />
<path d="M54138 40086
L54265 39706
L54392 40086
" />
<path d="M54681 39833
L54681 40086
" />
<path d="M54591 39688
L54500 39960
L54736 39960
" />
</g><text x="51060.2" y="40105"
textLength="1396.66" font-size="506.667" lengthAdjust="spacingAndGlyphs"
text-anchor="end" opacity="0">JDA3</text>
<g class="stroked-text"><desc>JDA3</desc>
<path d="M49882 39706
L49882 39978
L49864 40032
L49828 40068
L49773 40086
L49737 40086
" />
<path d="M50063 40086
L50063 39706
L50153 39706
L50208 39724
L50244 39761
L50262 39797
L50280 39869
L50280 39924
L50262 39996
L50244 40032
L50208 40068
L50153 40086
L50063 40086
" />
<path d="M50425 39978
L50606 39978
" />
<path d="M50388 40086
L50515 39706
L50642 40086
" />
<path d="M50732 39706
L50968 39706
L50841 39851
L50895 39851
L50931 39869
L50949 39887
L50968 39924
L50968 40014
L50949 40050
L50931 40068
L50895 40086
L50787 40086
L50750 40068
L50732 40050
" />
</g><text x="47310.2" y="40105"
textLength="1396.66" font-size="506.667" lengthAdjust="spacingAndGlyphs"
text-anchor="end" opacity="0">JDA2</text>
<g class="stroked-text"><desc>JDA2</desc>
<path d="M46132 39706
L46132 39978
L46114 40032
L46078 40068
L46023 40086
L45987 40086
" />
<path d="M46313 40086
L46313 39706
L46403 39706
L46458 39724
L46494 39761
L46512 39797
L46530 39869
L46530 39924
L46512 39996
L46494 40032
L46458 40068
L46403 40086
L46313 40086
" />
<path d="M46675 39978
L46856 39978
" />
<path d="M46638 40086
L46765 39706
L46892 40086
" />
<path d="M47000 39743
L47018 39724
L47055 39706
L47145 39706
L47181 39724
L47199 39743
L47218 39779
L47218 39815
L47199 39869
L46982 40086
L47218 40086
" />
</g><text x="43560.2" y="40105"
textLength="1396.66" font-size="506.667" lengthAdjust="spacingAndGlyphs"
text-anchor="end" opacity="0">JDA1</text>
<g class="stroked-text"><desc>JDA1</desc>
<path d="M42382 39706
L42382 39978
L42364 40032
L42328 40068
L42273 40086
L42237 40086
" />
<path d="M42563 40086
L42563 39706
L42653 39706
L42708 39724
L42744 39761
L42762 39797
L42780 39869
L42780 39924
L42762 39996
L42744 40032
L42708 40068
L42653 40086
L42563 40086
" />
<path d="M42925 39978
L43106 39978
" />
<path d="M42888 40086
L43015 39706
L43142 40086
" />
<path d="M43468 40086
L43250 40086
" />
<path d="M43359 40086
L43359 39706
L43323 39761
L43287 39797
L43250 39815
" />
</g><text x="69810.2" y="28105"
textLength="1396.66" font-size="506.667" lengthAdjust="spacingAndGlyphs"
text-anchor="end" opacity="0">JAD8</text>
<g class="stroked-text"><desc>JAD8</desc>
<path d="M68632 27706
L68632 27978
L68614 28032
L68578 28068
L68523 28086
L68487 28086
" />
<path d="M68795 27978
L68976 27978
" />
<path d="M68758 28086
L68885 27706
L69012 28086
" />
<path d="M69138 28086
L69138 27706
L69229 27706
L69283 27725
L69319 27761
L69338 27797
L69356 27869
L69356 27924
L69338 27996
L69319 28032
L69283 28068
L69229 28086
L69138 28086
" />
<path d="M69573 27869
L69537 27851
L69518 27833
L69500 27797
L69500 27779
L69518 27743
L69537 27725
L69573 27706
L69645 27706
L69681 27725
L69699 27743
L69718 27779
L69718 27797
L69699 27833
L69681 27851
L69645 27869
L69573 27869
L69537 27887
L69518 27905
L69500 27942
L69500 28014
L69518 28050
L69537 28068
L69573 28086
L69645 28086
L69681 28068
L69699 28050
L69718 28014
L69718 27942
L69699 27905
L69681 27887
L69645 27869
" />
</g><text x="66060.2" y="28105"
textLength="1396.66" font-size="506.667" lengthAdjust="spacingAndGlyphs"
text-anchor="end" opacity="0">JAD7</text>
<g class="stroked-text"><desc>JAD7</desc>
<path d="M64882 27706
L64882 27978
L64864 28032
L64828 28068
L64773 28086
L64737 28086
" />
<path d="M65045 27978
L65226 27978
" />
<path d="M65008 28086
L65135 27706
L65262 28086
" />
<path d="M65388 28086
L65388 27706
L65479 27706
L65533 27725
L65569 27761
L65588 27797
L65606 27869
L65606 27924
L65588 27996
L65569 28032
L65533 28068
L65479 28086
L65388 28086
" />
<path d="M65732 27706
L65986 27706
L65823 28086
" />
</g><text x="62310.2" y="28105"
textLength="1396.66" font-size="506.667" lengthAdjust="spacingAndGlyphs"
text-anchor="end" opacity="0">JAD6</text>
<g class="stroked-text"><desc>JAD6</desc>
<path d="M61132 27706
L61132 27978
L61114 28032
L61078 28068
L61023 28086
L60987 28086
" />
<path d="M61295 27978
L61476 27978
" />
<path d="M61258 28086
L61385 27706
L61512 28086
" />
<path d="M61638 28086
L61638 27706
L61729 27706
L61783 27725
L61819 27761
L61838 27797
L61856 27869
L61856 27924
L61838 27996
L61819 28032
L61783 28068
L61729 28086
L61638 28086
" />
<path d="M62181 27706
L62109 27706
L62073 27725
L62055 27743
L62018 27797
L62000 27869
L62000 28014
L62018 28050
L62037 28068
L62073 28086
L62145 28086
L62181 28068
L62199 28050
L62218 28014
L62218 27924
L62199 27887
L62181 27869
L62145 27851
L62073 27851
L62037 27869
L62018 27887
L62000 27924
" />
</g><text x="58560.2" y="28105"
textLength="1396.66" font-size="506.667" lengthAdjust="spacingAndGlyphs"
text-anchor="end" opacity="0">JAD5</text>
<g class="stroked-text"><desc>JAD5</desc>
<path d="M57382 27706
L57382 27978
L57364 28032
L57328 28068
L57273 28086
L57237 28086
" />
<path d="M57545 27978
L57726 27978
" />
<path d="M57508 28086
L57635 27706
L57762 28086
" />
<path d="M57888 28086
L57888 27706
L57979 27706
L58033 27725
L58069 27761
L58088 27797
L58106 27869
L58106 27924
L58088 27996
L58069 28032
L58033 28068
L57979 28086
L57888 28086
" />
<path d="M58449 27706
L58268 27706
L58250 27887
L58268 27869
L58305 27851
L58395 27851
L58431 27869
L58449 27887
L58468 27924
L58468 28014
L58449 28050
L58431 28068
L58395 28086
L58305 28086
L58268 28068
L58250 28050
" />
</g><text x="54810.2" y="28105"
textLength="1396.66" font-size="506.667" lengthAdjust="spacingAndGlyphs"
text-anchor="end" opacity="0">JAD4</text>
<g class="stroked-text"><desc>JAD4</desc>
<path d="M53632 27706
L53632 27978
L53614 28032
L53578 28068
L53523 28086
L53487 28086
" />
<path d="M53795 27978
L53976 27978
" />
<path d="M53758 28086
L53885 27706
L54012 28086
" />
<path d="M54138 28086
L54138 27706
L54229 27706
L54283 27725
L54319 27761
L54338 27797
L54356 27869
L54356 27924
L54338 27996
L54319 28032
L54283 28068
L54229 28086
L54138 28086
" />
<path d="M54681 27833
L54681 28086
" />
<path d="M54591 27688
L54500 27960
L54736 27960
" />
</g><text x="51060.2" y="28105"
textLength="1396.66" font-size="506.667" lengthAdjust="spacingAndGlyphs"
text-anchor="end" opacity="0">JAD3</text>
<g class="stroked-text"><desc>JAD3</desc>
<path d="M49882 27706
L49882 27978
L49864 28032
L49828 28068
L49773 28086
L49737 28086
" />
<path d="M50045 27978
L50226 27978
" />
<path d="M50008 28086
L50135 27706
L50262 28086
" />
<path d="M50388 28086
L50388 27706
L50479 27706
L50533 27725
L50569 27761
L50588 27797
L50606 27869
L50606 27924
L50588 27996
L50569 28032
L50533 28068
L50479 28086
L50388 28086
" />
<path d="M50732 27706
L50968 27706
L50841 27851
L50895 27851
L50931 27869
L50949 27887
L50968 27924
L50968 28014
L50949 28050
L50931 28068
L50895 28086
L50787 28086
L50750 28068
L50732 28050
" />
</g><text x="47310.2" y="28105"
textLength="1396.66" font-size="506.667" lengthAdjust="spacingAndGlyphs"
text-anchor="end" opacity="0">JAD2</text>
<g class="stroked-text"><desc>JAD2</desc>
<path d="M46132 27706
L46132 27978
L46114 28032
L46078 28068
L46023 28086
L45987 28086
" />
<path d="M46295 27978
L46476 27978
" />
<path d="M46258 28086
L46385 27706
L46512 28086
" />
<path d="M46638 28086
L46638 27706
L46729 27706
L46783 27725
L46819 27761
L46838 27797
L46856 27869
L46856 27924
L46838 27996
L46819 28032
L46783 28068
L46729 28086
L46638 28086
" />
<path d="M47000 27743
L47018 27725
L47055 27706
L47145 27706
L47181 27725
L47199 27743
L47218 27779
L47218 27815
L47199 27869
L46982 28086
L47218 28086
" />
</g><text x="43560.2" y="28105"
textLength="1396.66" font-size="506.667" lengthAdjust="spacingAndGlyphs"
text-anchor="end" opacity="0">JAD1</text>
<g class="stroked-text"><desc>JAD1</desc>
<path d="M42382 27706
L42382 27978
L42364 28032
L42328 28068
L42273 28086
L42237 28086
" />
<path d="M42545 27978
L42726 27978
" />
<path d="M42508 28086
L42635 27706
L42762 28086
" />
<path d="M42888 28086
L42888 27706
L42979 27706
L43033 27725
L43069 27761
L43088 27797
L43106 27869
L43106 27924
L43088 27996
L43069 28032
L43033 28068
L42979 28086
L42888 28086
" />
<path d="M43468 28086
L43250 28086
" />
<path d="M43359 28086
L43359 27706
L43323 27761
L43287 27797
L43250 27815
" />
</g></g>
<g style="fill:#000000; fill-opacity:0.0; 
stroke:#000000; stroke-width:38.0126; stroke-opacity:1; 
stroke-linecap:round; stroke-linejoin:round;">
<g transform="rotate(-90 52477.1 37146.5)">
<text x="52477.1" y="37146.5"
textLength="854.082" font-size="633.548" lengthAdjust="spacingAndGlyphs"
text-anchor="start" opacity="0">J3</text>
</g>
<g class="stroked-text"><desc>J3</desc>
<path d="M51979 36872
L52318 36872
L52386 36895
L52431 36940
L52454 37008
L52454 37053
" />
<path d="M51979 36691
L51979 36397
L52160 36556
L52160 36488
L52182 36442
L52205 36420
L52250 36397
L52364 36397
L52409 36420
L52431 36442
L52454 36488
L52454 36624
L52431 36669
L52409 36691
" />
</g></g>
<g style="fill:#000000; fill-opacity:0.0; 
stroke:#000000; stroke-width:29.9213; stroke-opacity:1; 
stroke-linecap:round; stroke-linejoin:round;">
<g transform="rotate(90 63702.4 33524.1)">
<text x="63702.4" y="33524.1"
textLength="690.586" font-size="498.687" lengthAdjust="spacingAndGlyphs"
text-anchor="end" opacity="0">J1</text>
</g>
<g class="stroked-text"><desc>J1</desc>
<path d="M64094 33059
L63827 33059
L63773 33041
L63737 33005
L63720 32952
L63720 32916
" />
<path d="M63720 33433
L63720 33219
" />
<path d="M63720 33326
L64094 33326
L64040 33290
L64005 33255
L63987 33219
" />
</g><g >
</g>
</g>
<g style="fill:#000000; fill-opacity:0.0; 
stroke:#000000; stroke-width:29.9213; stroke-opacity:1; 
stroke-linecap:round; stroke-linejoin:round;">
</g>
<g style="fill:#000000; fill-opacity:0.0; 
stroke:#000000; stroke-width:19.685; stroke-opacity:1; 
stroke-linecap:round; stroke-linejoin:round;">
<path d="M73339 26965
L43589 26965
" />
<path d="M43589 26965
L43589 55715
" />
<path d="M43589 55715
L46589 55714
" />
<path d="M46589 55714
L49589 55715
" />
<path d="M49589 55715
L73339 55715
" />
<path d="M73339 55715
L73340 44536
" />
<path d="M73340 44536
L73339 26965
" />
<g >
</g>
<g >
</g>
<g >
</g>
<g >
</g>
<g >
</g>
<g >
</g>
<g >
</g>
<g >
</g>
<g >
</g>
<g >
</g>
<g >
</g>
<g >
</g>
<g >
</g>
<g >
</g>
<g >
</g>
<g >
</g>
<g >
</g>
<g >
</g>
<g >
</g>
<g >
</g>
<g >
</g>
<g >
</g>
<g >
</g>
<g >
</g>
<g >
</g>
<g >
</g>
<g >
</g>
<g >
</g>
<g >
</g>
<g >
</g>
<g >
</g>
<g >
</g>
<g >
</g>
<g >
</g>
<g >
</g>
<g >
</g>
<g >
</g>
<g >
</g>
<g >
</g>
<g >
</g>
<g >
</g>
<g >
</g>
<g >
</g>
<g >
</g>
<g >
</g>
<g >
</g>
<g >
</g>
<g >
</g>
<g >
</g>
<g >
</g>
<g >
</g>
<g >
</g>
<g >
</g>
</g> 
</svg>
