  0
SECTION
  2
HEADER
  9
$MEASUREMENT
  70
  1
  9
$INSUNITS
  70
  4
  0
ENDSEC
  0
SECTION
  2
TABLES
  0
TABLE
  2
LTYPE
 70
     1
  0
LTYPE
  2
CONTINUOUS
 70
    64
  3
Ausgezogene Linie
 72
    65
 73
     0
 40
0.0
  0
ENDTAB
  0
TABLE
  2
LAYER
 70
     3
  0
LAYER
  2
Contour
 70
    64
 62
     7
  6
CONTINUOUS
  0
LAYER
  2
Engraving
 70
    64
 62
     7
  6
CONTINUOUS
  0
LAYER
  2
Reference_points
 70
    64
 62
     1
  6
CONTINUOUS
  0
ENDTAB
  0
TABLE
  2
STYLE
 70
     1
  0
STYLE
  2
TXT
 70
    64
 40
0.0
 41
1.0
 50
0.0
 71
     0
 42
3.500000
  3
TXT
  0
ENDTAB
  0
ENDSEC
  0
SECTION
  2
BLOCKS
  0
ENDSEC
  0
SECTION
  2
ENTITIES
  0
LINE
  8
Contour
 62
   7
 39
0.100
  6
CONTINUOUS
 10
60.62000
 20
128.40000
 30
 0
 11
60.62000
 21
0.00000
  0
LINE
  8
Contour
 62
   7
 39
0.100
  6
CONTINUOUS
 10
60.62000
 20
0.00000
 30
 0
 11
0.00000
 21
0.00000
  0
LINE
  8
Contour
 62
   7
 39
0.100
  6
CONTINUOUS
 10
0.00000
 20
0.00000
 30
 0
 11
0.00000
 21
128.40000
  0
LINE
  8
Contour
 62
   7
 39
0.100
  6
CONTINUOUS
 10
0.00000
 20
128.40000
 30
 0
 11
60.62000
 21
128.40000
  0
ARC
  8
Engraving
 62
   133
 39
0.400
  6
CONTINUOUS
 10
49.25000
 20
119.00000
 30
 0
 40
1.00000
 50
0.00000
 51
90.00000
  0
LINE
  8
Engraving
 62
   133
 39
0.400
  6
CONTINUOUS
 10
49.25000
 20
120.00000
 30
 0
 11
4.75000
 21
120.00000
  0
ARC
  8
Engraving
 62
   133
 39
0.400
  6
CONTINUOUS
 10
4.75000
 20
119.00000
 30
 0
 40
1.00000
 50
90.00000
 51
180.00000
  0
LINE
  8
Engraving
 62
   133
 39
0.400
  6
CONTINUOUS
 10
3.75000
 20
119.00000
 30
 0
 11
3.75000
 21
91.00000
  0
ARC
  8
Engraving
 62
   133
 39
0.400
  6
CONTINUOUS
 10
4.75000
 20
91.00000
 30
 0
 40
1.00000
 50
180.00000
 51
270.00000
  0
LINE
  8
Engraving
 62
   133
 39
0.400
  6
CONTINUOUS
 10
4.75000
 20
90.00000
 30
 0
 11
49.25000
 21
90.00000
  0
ARC
  8
Engraving
 62
   133
 39
0.400
  6
CONTINUOUS
 10
49.25000
 20
91.00000
 30
 0
 40
1.00000
 50
270.00000
 51
360.00000
  0
LINE
  8
Engraving
 62
   133
 39
0.400
  6
CONTINUOUS
 10
50.25000
 20
91.00000
 30
 0
 11
50.25000
 21
119.00000
  0
LINE
  8
Engraving
 62
   133
 39
0.200
  6
CONTINUOUS
 10
45.25000
 20
119.75000
 30
 0
 11
8.75000
 21
119.75000
  0
LINE
  8
Engraving
 62
   133
 39
0.200
  6
CONTINUOUS
 10
8.75000
 20
119.75000
 30
 0
 11
8.75000
 21
90.25000
  0
LINE
  8
Engraving
 62
   133
 39
0.200
  6
CONTINUOUS
 10
8.75000
 20
90.25000
 30
 0
 11
45.25000
 21
90.25000
  0
LINE
  8
Engraving
 62
   133
 39
0.200
  6
CONTINUOUS
 10
45.25000
 20
90.25000
 30
 0
 11
45.25000
 21
119.75000
  0
CIRCLE
  8
Contour
 62
   7
 39
0.100
  6
CONTINUOUS
 10
7.50000
 20
125.50000
 30
 0
 40
1.50000
  0
CIRCLE
  8
Contour
 62
   7
 39
0.100
  6
CONTINUOUS
 10
7.50000
 20
3.00000
 30
 0
 40
1.50000
  0
CIRCLE
  8
Contour
 62
   7
 39
0.100
  6
CONTINUOUS
 10
48.14000
 20
125.50000
 30
 0
 40
1.50000
  0
CIRCLE
  8
Contour
 62
   7
 39
0.100
  6
CONTINUOUS
 10
48.14000
 20
3.00000
 30
 0
 40
1.50000
  0
ARC
  8
Contour
 62
   7
 39
0.100
  6
CONTINUOUS
 10
44.00000
 20
119.25000
 30
 0
 40
0.50000
 50
0.00000
 51
90.00000
  0
LINE
  8
Contour
 62
   7
 39
0.100
  6
CONTINUOUS
 10
44.00000
 20
119.75000
 30
 0
 11
15.50000
 21
119.75000
  0
ARC
  8
Contour
 62
   7
 39
0.100
  6
CONTINUOUS
 10
15.50000
 20
119.25000
 30
 0
 40
0.50000
 50
90.00000
 51
180.00000
  0
LINE
  8
Contour
 62
   7
 39
0.100
  6
CONTINUOUS
 10
15.00000
 20
119.25000
 30
 0
 11
15.00000
 21
90.75000
  0
ARC
  8
Contour
 62
   7
 39
0.100
  6
CONTINUOUS
 10
15.50000
 20
90.75000
 30
 0
 40
0.50000
 50
180.00000
 51
270.00000
  0
LINE
  8
Contour
 62
   7
 39
0.100
  6
CONTINUOUS
 10
15.50000
 20
90.25000
 30
 0
 11
44.00000
 21
90.25000
  0
ARC
  8
Contour
 62
   7
 39
0.100
  6
CONTINUOUS
 10
44.00000
 20
90.75000
 30
 0
 40
0.50000
 50
270.00000
 51
360.00000
  0
LINE
  8
Contour
 62
   7
 39
0.100
  6
CONTINUOUS
 10
44.50000
 20
90.75000
 30
 0
 11
44.50000
 21
119.25000
  0
CIRCLE
  8
Contour
 62
   7
 39
0.100
  6
CONTINUOUS
 10
47.75000
 20
92.50500
 30
 0
 40
1.50000
  0
CIRCLE
  8
Contour
 62
   7
 39
0.100
  6
CONTINUOUS
 10
47.75000
 20
117.49600
 30
 0
 40
1.50000
  0
CIRCLE
  8
Contour
 62
   7
 39
0.100
  6
CONTINUOUS
 10
6.50000
 20
92.50400
 30
 0
 40
1.50000
  0
CIRCLE
  8
Contour
 62
   7
 39
0.100
  6
CONTINUOUS
 10
6.50000
 20
117.49500
 30
 0
 40
1.50000
  0
CIRCLE
  8
Contour
 62
   7
 39
0.100
  6
CONTINUOUS
 10
29.50000
 20
73.00000
 30
 0
 40
3.50000
  0
CIRCLE
  8
Contour
 62
   7
 39
0.100
  6
CONTINUOUS
 10
29.50000
 20
48.25000
 30
 0
 40
3.50000
  0
CIRCLE
  8
Contour
 62
   7
 39
0.100
  6
CONTINUOUS
 10
29.50000
 20
23.50000
 30
 0
 40
3.50000
  0
LINE
  8
Reference_points
 62
   1
 39
0.100
  6
CONTINUOUS
 10
-1.00000
 20
0.00000
 30
 0
 11
1.00000
 21
0.00000
  0
LINE
  8
Reference_points
 62
   1
 39
0.100
  6
CONTINUOUS
 10
0.00000
 20
-1.00000
 30
 0
 11
0.00000
 21
1.00000
  0
LINE
  8
Reference_points
 62
   1
 39
0.100
  6
CONTINUOUS
 10
6.50000
 20
125.50000
 30
 0
 11
8.50000
 21
125.50000
  0
LINE
  8
Reference_points
 62
   1
 39
0.100
  6
CONTINUOUS
 10
7.50000
 20
124.50000
 30
 0
 11
7.50000
 21
126.50000
  0
LINE
  8
Reference_points
 62
   1
 39
0.100
  6
CONTINUOUS
 10
6.50000
 20
3.00000
 30
 0
 11
8.50000
 21
3.00000
  0
LINE
  8
Reference_points
 62
   1
 39
0.100
  6
CONTINUOUS
 10
7.50000
 20
2.00000
 30
 0
 11
7.50000
 21
4.00000
  0
LINE
  8
Reference_points
 62
   1
 39
0.100
  6
CONTINUOUS
 10
47.14000
 20
125.50000
 30
 0
 11
49.14000
 21
125.50000
  0
LINE
  8
Reference_points
 62
   1
 39
0.100
  6
CONTINUOUS
 10
48.14000
 20
124.50000
 30
 0
 11
48.14000
 21
126.50000
  0
LINE
  8
Reference_points
 62
   1
 39
0.100
  6
CONTINUOUS
 10
47.14000
 20
3.00000
 30
 0
 11
49.14000
 21
3.00000
  0
LINE
  8
Reference_points
 62
   1
 39
0.100
  6
CONTINUOUS
 10
48.14000
 20
2.00000
 30
 0
 11
48.14000
 21
4.00000
  0
LINE
  8
Reference_points
 62
   1
 39
0.100
  6
CONTINUOUS
 10
28.75000
 20
105.00000
 30
 0
 11
30.75000
 21
105.00000
  0
LINE
  8
Reference_points
 62
   1
 39
0.100
  6
CONTINUOUS
 10
29.75000
 20
104.00000
 30
 0
 11
29.75000
 21
106.00000
  0
LINE
  8
Reference_points
 62
   1
 39
0.100
  6
CONTINUOUS
 10
26.00000
 20
105.00000
 30
 0
 11
28.00000
 21
105.00000
  0
LINE
  8
Reference_points
 62
   1
 39
0.100
  6
CONTINUOUS
 10
27.00000
 20
104.00000
 30
 0
 11
27.00000
 21
106.00000
  0
LINE
  8
Reference_points
 62
   1
 39
0.100
  6
CONTINUOUS
 10
26.00000
 20
105.00000
 30
 0
 11
28.00000
 21
105.00000
  0
LINE
  8
Reference_points
 62
   1
 39
0.100
  6
CONTINUOUS
 10
27.00000
 20
104.00000
 30
 0
 11
27.00000
 21
106.00000
  0
LINE
  8
Reference_points
 62
   1
 39
0.100
  6
CONTINUOUS
 10
46.75000
 20
92.50500
 30
 0
 11
48.75000
 21
92.50500
  0
LINE
  8
Reference_points
 62
   1
 39
0.100
  6
CONTINUOUS
 10
47.75000
 20
91.50500
 30
 0
 11
47.75000
 21
93.50500
  0
LINE
  8
Reference_points
 62
   1
 39
0.100
  6
CONTINUOUS
 10
46.75000
 20
117.49600
 30
 0
 11
48.75000
 21
117.49600
  0
LINE
  8
Reference_points
 62
   1
 39
0.100
  6
CONTINUOUS
 10
47.75000
 20
116.49600
 30
 0
 11
47.75000
 21
118.49600
  0
LINE
  8
Reference_points
 62
   1
 39
0.100
  6
CONTINUOUS
 10
5.50000
 20
92.50400
 30
 0
 11
7.50000
 21
92.50400
  0
LINE
  8
Reference_points
 62
   1
 39
0.100
  6
CONTINUOUS
 10
6.50000
 20
91.50400
 30
 0
 11
6.50000
 21
93.50400
  0
LINE
  8
Reference_points
 62
   1
 39
0.100
  6
CONTINUOUS
 10
5.50000
 20
117.49500
 30
 0
 11
7.50000
 21
117.49500
  0
LINE
  8
Reference_points
 62
   1
 39
0.100
  6
CONTINUOUS
 10
6.50000
 20
116.49500
 30
 0
 11
6.50000
 21
118.49500
  0
LINE
  8
Reference_points
 62
   1
 39
0.100
  6
CONTINUOUS
 10
26.00000
 20
105.00000
 30
 0
 11
28.00000
 21
105.00000
  0
LINE
  8
Reference_points
 62
   1
 39
0.100
  6
CONTINUOUS
 10
27.00000
 20
104.00000
 30
 0
 11
27.00000
 21
106.00000
  0
LINE
  8
Reference_points
 62
   1
 39
0.100
  6
CONTINUOUS
 10
26.00000
 20
105.00000
 30
 0
 11
28.00000
 21
105.00000
  0
LINE
  8
Reference_points
 62
   1
 39
0.100
  6
CONTINUOUS
 10
27.00000
 20
104.00000
 30
 0
 11
27.00000
 21
106.00000
  0
LINE
  8
Reference_points
 62
   1
 39
0.100
  6
CONTINUOUS
 10
28.50000
 20
73.00000
 30
 0
 11
30.50000
 21
73.00000
  0
LINE
  8
Reference_points
 62
   1
 39
0.100
  6
CONTINUOUS
 10
29.50000
 20
72.00000
 30
 0
 11
29.50000
 21
74.00000
  0
LINE
  8
Reference_points
 62
   1
 39
0.100
  6
CONTINUOUS
 10
28.50000
 20
48.25000
 30
 0
 11
30.50000
 21
48.25000
  0
LINE
  8
Reference_points
 62
   1
 39
0.100
  6
CONTINUOUS
 10
29.50000
 20
47.25000
 30
 0
 11
29.50000
 21
49.25000
  0
LINE
  8
Reference_points
 62
   1
 39
0.100
  6
CONTINUOUS
 10
28.50000
 20
23.50000
 30
 0
 11
30.50000
 21
23.50000
  0
LINE
  8
Reference_points
 62
   1
 39
0.100
  6
CONTINUOUS
 10
29.50000
 20
22.50000
 30
 0
 11
29.50000
 21
24.50000
  0
LINE
  8
Reference_points
 62
   1
 39
0.100
  6
CONTINUOUS
 10
28.50000
 20
48.25000
 30
 0
 11
30.50000
 21
48.25000
  0
LINE
  8
Reference_points
 62
   1
 39
0.100
  6
CONTINUOUS
 10
29.50000
 20
47.25000
 30
 0
 11
29.50000
 21
49.25000
  0
ENDSEC
  0
EOF
