<?xml version="1.0" standalone="no"?>
<!DOCTYPE svg PUBLIC "-//W3C//DTD SVG 1.1//EN" 
  "http://www.w3.org/Graphics/SVG/1.1/DTD/svg11.dtd">
<svg width="60.620mm" height="128.400mm" version="1.1"
     viewBox="0 0 60.620 128.400"
     xmlns="http://www.w3.org/2000/svg"  xmlns:xlink="http://www.w3.org/1999/xlink" 
     xmlns:fpd="http://www.schaeffer-ag.de">
  <desc>Created with the Front Panel Designer by the export of the file '12hp-TeensyGuitarAudioProShield.fpd'.</desc>
  <defs>
    <pattern id="revside-fill" x="1" y="1" width="1.5" height="1.5" patternUnits="userSpaceOnUse">
      <line x1="0" y1="0" x2="1" y2="1" style="stroke-width:0.2; stroke:black; stroke-dasharray:none;" />
      <line x1="0" y1="1" x2="1" y2="0" style="stroke-width:0.2; stroke:black; stroke-dasharray:none;" />
    </pattern>
    <pattern id="revside-fill-silver" x="1" y="1" width="1.5" height="1.5" patternUnits="userSpaceOnUse">
      <line x1="0" y1="0" x2="1.5" y2="1.5" style="stroke-width:0.2; stroke:#e0e0e0; stroke-dasharray:none;" />
      <line x1="0" y1="1.5" x2="1.5" y2="0" style="stroke-width:0.2; stroke:#e0e0e0; stroke-dasharray:none;" />
    </pattern>
  </defs>
<g transform="scale(1,-1) translate(0, -128.400)" 
   fill-rule="evenodd"
   style="stroke-linecap:round; stroke-linejoin:round; stroke-opacity:1.0; stroke-opacity:1.0;">
<path d="
M60.620 128.400
L60.620 0.000
L0.000 0.000
L0.000 128.400
L60.620 128.400
" 
fill="#cccccc" vector-effect="non-scaling-stroke" stroke="#000000" stroke-width="0.100mm" />
<path d="
M6.000 125.500
A1.500,1.500 0 1,0 9.000,125.500
A1.500,1.500 0 1,0 6.000,125.500
" 
fill="#ffffff" vector-effect="non-scaling-stroke" stroke="#000000" stroke-width="0.100mm" />
<path d="
M6.000 3.000
A1.500,1.500 0 1,0 9.000,3.000
A1.500,1.500 0 1,0 6.000,3.000
" 
fill="#ffffff" vector-effect="non-scaling-stroke" stroke="#000000" stroke-width="0.100mm" />
<path d="
M46.640 125.500
A1.500,1.500 0 1,0 49.640,125.500
A1.500,1.500 0 1,0 46.640,125.500
" 
fill="#ffffff" vector-effect="non-scaling-stroke" stroke="#000000" stroke-width="0.100mm" />
<path d="
M46.640 3.000
A1.500,1.500 0 1,0 49.640,3.000
A1.500,1.500 0 1,0 46.640,3.000
" 
fill="#ffffff" vector-effect="non-scaling-stroke" stroke="#000000" stroke-width="0.100mm" />
<path d="
M20.000 75.000
A5.000,5.000 0 1,0 30.000,75.000
A5.000,5.000 0 1,0 20.000,75.000
" 
fill="#ffffff" vector-effect="non-scaling-stroke" stroke="#000000" stroke-width="0.100mm" />
<path d="
M20.000 55.000
A5.000,5.000 0 1,0 30.000,55.000
A5.000,5.000 0 1,0 20.000,55.000
" 
fill="#ffffff" vector-effect="non-scaling-stroke" stroke="#000000" stroke-width="0.100mm" />
<path d="
M20.000 95.000
A5.000,5.000 0 1,0 30.000,95.000
A5.000,5.000 0 1,0 20.000,95.000
" 
fill="#ffffff" vector-effect="non-scaling-stroke" stroke="#000000" stroke-width="0.100mm" />
<path d="
M60.620 128.400
L60.620 0.000
L0.000 0.000
L0.000 128.400
L60.620 128.400
" 
fill="none" vector-effect="non-scaling-stroke" stroke="#000000" stroke-width="0.100mm" />
<path d="
M-1.000 0.000
L1.000 0.000
M0.000 -1.000
L0.000 1.000
" 
fill="none" vector-effect="non-scaling-stroke" stroke="#ff0000" stroke-width="0.100mm" />
<path d="
M6.500 125.500
L8.500 125.500
M7.500 124.500
L7.500 126.500
" 
fill="none" vector-effect="non-scaling-stroke" stroke="#ff0000" stroke-width="0.100mm" />
<path d="
M6.500 3.000
L8.500 3.000
M7.500 2.000
L7.500 4.000
" 
fill="none" vector-effect="non-scaling-stroke" stroke="#ff0000" stroke-width="0.100mm" />
<path d="
M47.140 125.500
L49.140 125.500
M48.140 124.500
L48.140 126.500
" 
fill="none" vector-effect="non-scaling-stroke" stroke="#ff0000" stroke-width="0.100mm" />
<path d="
M47.140 3.000
L49.140 3.000
M48.140 2.000
L48.140 4.000
" 
fill="none" vector-effect="non-scaling-stroke" stroke="#ff0000" stroke-width="0.100mm" />
<path d="
M24.000 75.000
L26.000 75.000
M25.000 74.000
L25.000 76.000
" 
fill="none" vector-effect="non-scaling-stroke" stroke="#00d000" stroke-width="0.100mm" />
<path d="
M24.000 55.000
L26.000 55.000
M25.000 54.000
L25.000 56.000
" 
fill="none" vector-effect="non-scaling-stroke" stroke="#00d000" stroke-width="0.100mm" />
<path d="
M24.000 95.000
L26.000 95.000
M25.000 94.000
L25.000 96.000
" 
fill="none" vector-effect="non-scaling-stroke" stroke="#00d000" stroke-width="0.100mm" />
<path d="
M24.000 75.000
L26.000 75.000
M25.000 74.000
L25.000 76.000
" 
fill="none" vector-effect="non-scaling-stroke" stroke="#ff0000" stroke-width="0.100mm" />
</g>
</svg>
