<?xml version="1.0" standalone="no"?>
<!DOCTYPE svg PUBLIC "-//W3C//DTD SVG 1.1//EN" 
  "http://www.w3.org/Graphics/SVG/1.1/DTD/svg11.dtd">
<svg width="121.920mm" height="128.500mm" version="1.1"
     viewBox="0 0 121.920 128.500"
     xmlns="http://www.w3.org/2000/svg"  xmlns:xlink="http://www.w3.org/1999/xlink" 
     xmlns:fpd="http://www.schaeffer-ag.de">
  <desc>Created with the Front Panel Designer by the export of the file 'panel.fpd'.</desc>
  <defs>
    <pattern id="revside-fill" x="1" y="1" width="1.5" height="1.5" patternUnits="userSpaceOnUse">
      <line x1="0" y1="0" x2="1" y2="1" style="stroke-width:0.2; stroke:black; stroke-dasharray:none;" />
      <line x1="0" y1="1" x2="1" y2="0" style="stroke-width:0.2; stroke:black; stroke-dasharray:none;" />
    </pattern>
    <pattern id="revside-fill-silver" x="1" y="1" width="1.5" height="1.5" patternUnits="userSpaceOnUse">
      <line x1="0" y1="0" x2="1.5" y2="1.5" style="stroke-width:0.2; stroke:#e0e0e0; stroke-dasharray:none;" />
      <line x1="0" y1="1.5" x2="1.5" y2="0" style="stroke-width:0.2; stroke:#e0e0e0; stroke-dasharray:none;" />
    </pattern>
  </defs>
<g transform="scale(1,-1) translate( -0.000, -128.500)" 
   fill-rule="evenodd"
   style="stroke-linecap:round; stroke-linejoin:round; stroke-opacity:1.0; stroke-opacity:1.0;">
<path d="
M0.000 126.900
A1.600,1.600 0 0,0 1.600,128.500
L1.600 128.500
L120.320 128.500
A1.600,1.600 0 0,0 121.920,126.900
L121.920 126.900
L121.920 1.600
A1.600,1.600 0 0,0 120.320,0.000
L120.320 0.000
L1.600 0.000
A1.600,1.600 0 0,0 0.000,1.600
L0.000 1.600
L0.000 126.900
" 
fill="#cccccc" vector-effect="non-scaling-stroke" stroke="#000000" stroke-width="0.100mm" />
<path d="
M4.669 3.983
A2.950,2.950 0 0,1 4.669,2.017
A1.000,1.000 0 0,1 5.612,1.350
L9.288 1.350
A1.000,1.000 0 0,1 10.231,2.017
A2.950,2.950 0 0,1 10.231,3.983
A1.000,1.000 0 0,1 9.288,4.650
L5.612 4.650
A1.000,1.000 0 0,1 4.669,3.983
" 
fill="#ffffff" vector-effect="non-scaling-stroke" stroke="#000000" stroke-width="0.100mm" />
<path d="
M4.669 126.483
A2.950,2.950 0 0,1 4.669,124.517
A1.000,1.000 0 0,1 5.612,123.850
L9.288 123.850
A1.000,1.000 0 0,1 10.231,124.517
A2.950,2.950 0 0,1 10.231,126.483
A1.000,1.000 0 0,1 9.288,127.150
L5.612 127.150
A1.000,1.000 0 0,1 4.669,126.483
" 
fill="#ffffff" vector-effect="non-scaling-stroke" stroke="#000000" stroke-width="0.100mm" />
<path d="
M111.689 3.983
A2.950,2.950 0 0,1 111.689,2.017
A1.000,1.000 0 0,1 112.632,1.350
L116.308 1.350
A1.000,1.000 0 0,1 117.251,2.017
A2.950,2.950 0 0,1 117.251,3.983
A1.000,1.000 0 0,1 116.308,4.650
L112.632 4.650
A1.000,1.000 0 0,1 111.689,3.983
" 
fill="#ffffff" vector-effect="non-scaling-stroke" stroke="#000000" stroke-width="0.100mm" />
<path d="
M111.689 126.483
A2.950,2.950 0 0,1 111.689,124.517
A1.000,1.000 0 0,1 112.632,123.850
L116.308 123.850
A1.000,1.000 0 0,1 117.251,124.517
A2.950,2.950 0 0,1 117.251,126.483
A1.000,1.000 0 0,1 116.308,127.150
L112.632 127.150
A1.000,1.000 0 0,1 111.689,126.483
" 
fill="#ffffff" vector-effect="non-scaling-stroke" stroke="#000000" stroke-width="0.100mm" />
<path d="
M10.770 17.920
A3.600,3.600 0 1,0 17.970,17.920
A3.600,3.600 0 1,0 10.770,17.920
" 
fill="#ffffff" vector-effect="non-scaling-stroke" stroke="#000000" stroke-width="0.100mm" />
<path d="
M58.270 17.920
A3.600,3.600 0 1,0 65.470,17.920
A3.600,3.600 0 1,0 58.270,17.920
" 
fill="#ffffff" vector-effect="non-scaling-stroke" stroke="#000000" stroke-width="0.100mm" />
<path d="
M105.770 17.920
A3.600,3.600 0 1,0 112.970,17.920
A3.600,3.600 0 1,0 105.770,17.920
" 
fill="#ffffff" vector-effect="non-scaling-stroke" stroke="#000000" stroke-width="0.100mm" />
<path d="
M28.670 36.750
A4.500,4.500 0 1,0 37.670,36.750
A4.500,4.500 0 1,0 28.670,36.750
" 
fill="#ffffff" vector-effect="non-scaling-stroke" stroke="#000000" stroke-width="0.100mm" />
<path d="
M104.870 39.930
A4.500,4.500 0 1,0 113.870,39.930
A4.500,4.500 0 1,0 104.870,39.930
" 
fill="#ffffff" vector-effect="non-scaling-stroke" stroke="#000000" stroke-width="0.100mm" />
<path d="
M85.820 36.750
A4.500,4.500 0 1,0 94.820,36.750
A4.500,4.500 0 1,0 85.820,36.750
" 
fill="#ffffff" vector-effect="non-scaling-stroke" stroke="#000000" stroke-width="0.100mm" />
<path d="
M10.770 56.490
A3.600,3.600 0 1,0 17.970,56.490
A3.600,3.600 0 1,0 10.770,56.490
" 
fill="#ffffff" vector-effect="non-scaling-stroke" stroke="#000000" stroke-width="0.100mm" />
<path d="
M72.689 43.841
L72.724 43.843
L72.892 43.852
L72.951 43.856
L73.009 43.862
L73.068 43.870
L73.099 43.875
L73.265 43.904
L73.323 43.915
L73.381 43.928
L73.445 43.945
L73.606 43.991
L73.662 44.009
L73.718 44.028
L73.798 44.059
L73.954 44.124
L74.008 44.147
L74.062 44.173
L74.126 44.206
L74.273 44.287
L74.324 44.317
L74.374 44.348
L74.439 44.392
L74.576 44.489
L74.624 44.524
L74.670 44.560
L74.728 44.609
L74.854 44.721
L74.897 44.761
L74.939 44.803
L74.999 44.866
L75.111 44.992
L75.150 45.037
L75.187 45.083
L75.231 45.144
L75.328 45.281
L75.362 45.330
L75.393 45.380
L75.433 45.447
L75.514 45.594
L75.541 45.647
L75.567 45.700
L75.596 45.766
L75.661 45.922
L75.683 45.977
L75.703 46.033
L75.729 46.114
L75.775 46.275
L75.790 46.332
L75.803 46.390
L75.816 46.455
L75.845 46.621
L75.854 46.679
L75.861 46.738
L75.867 46.797
L75.868 46.828
L75.877 46.996
L75.880 47.056
L75.880 72.630
L75.879 72.689
L75.877 72.724
L75.868 72.892
L75.864 72.951
L75.858 73.009
L75.850 73.068
L75.845 73.099
L75.816 73.265
L75.805 73.323
L75.792 73.381
L75.775 73.445
L75.729 73.606
L75.711 73.662
L75.692 73.718
L75.661 73.798
L75.596 73.954
L75.573 74.008
L75.547 74.062
L75.514 74.126
L75.433 74.273
L75.403 74.324
L75.372 74.374
L75.328 74.439
L75.231 74.576
L75.196 74.624
L75.160 74.670
L75.111 74.728
L74.999 74.854
L74.959 74.897
L74.917 74.939
L74.854 74.999
L74.728 75.111
L74.683 75.150
L74.637 75.187
L74.576 75.231
L74.439 75.328
L74.390 75.362
L74.340 75.393
L74.273 75.433
L74.126 75.514
L74.073 75.541
L74.020 75.567
L73.954 75.596
L73.798 75.661
L73.743 75.683
L73.687 75.703
L73.606 75.729
L73.445 75.775
L73.388 75.790
L73.330 75.803
L73.265 75.816
L73.099 75.845
L73.041 75.854
L72.982 75.861
L72.923 75.867
L72.892 75.868
L72.724 75.877
L72.664 75.880
L46.830 75.880
L46.771 75.879
L46.736 75.877
L46.568 75.868
L46.509 75.864
L46.451 75.858
L46.392 75.850
L46.361 75.845
L46.195 75.816
L46.137 75.805
L46.079 75.792
L46.015 75.775
L45.854 75.729
L45.798 75.711
L45.742 75.692
L45.662 75.661
L45.506 75.596
L45.452 75.573
L45.398 75.547
L45.334 75.514
L45.187 75.433
L45.136 75.403
L45.086 75.372
L45.021 75.328
L44.884 75.231
L44.836 75.196
L44.790 75.160
L44.732 75.111
L44.606 74.999
L44.563 74.959
L44.521 74.917
L44.461 74.854
L44.349 74.728
L44.310 74.683
L44.273 74.637
L44.229 74.576
L44.132 74.439
L44.098 74.390
L44.067 74.340
L44.027 74.273
L43.946 74.126
L43.919 74.073
L43.893 74.020
L43.864 73.954
L43.799 73.798
L43.777 73.743
L43.757 73.687
L43.731 73.606
L43.685 73.445
L43.670 73.388
L43.657 73.330
L43.644 73.265
L43.615 73.099
L43.606 73.041
L43.599 72.982
L43.593 72.923
L43.592 72.892
L43.583 72.724
L43.580 72.664
L43.580 47.090
L43.581 47.031
L43.583 46.996
L43.592 46.828
L43.596 46.769
L43.602 46.711
L43.610 46.652
L43.615 46.621
L43.644 46.455
L43.655 46.397
L43.668 46.339
L43.685 46.275
L43.731 46.114
L43.749 46.058
L43.768 46.002
L43.799 45.922
L43.864 45.766
L43.887 45.712
L43.913 45.658
L43.946 45.594
L44.027 45.447
L44.057 45.396
L44.088 45.346
L44.132 45.281
L44.229 45.144
L44.264 45.096
L44.300 45.050
L44.349 44.992
L44.461 44.866
L44.501 44.823
L44.543 44.781
L44.606 44.721
L44.732 44.609
L44.777 44.570
L44.823 44.533
L44.884 44.489
L45.021 44.392
L45.070 44.358
L45.120 44.327
L45.187 44.287
L45.334 44.206
L45.387 44.179
L45.440 44.153
L45.506 44.124
L45.662 44.059
L45.717 44.037
L45.773 44.017
L45.854 43.991
L46.015 43.945
L46.072 43.930
L46.130 43.917
L46.195 43.904
L46.361 43.875
L46.419 43.866
L46.478 43.859
L46.537 43.853
L46.568 43.852
L46.736 43.843
L46.796 43.840
L72.630 43.840
L72.689 43.841
M45.330 47.090
A1.500,1.500 0 0,1 46.830,45.590
L72.630 45.590
A1.500,1.500 0 0,1 74.130,47.090
L74.130 72.630
A1.500,1.500 0 0,1 72.630,74.130
L46.830 74.130
A1.500,1.500 0 0,1 45.330,72.630
L45.330 47.090
" 
fill="#e0e0e0" vector-effect="non-scaling-stroke" stroke="#0000ff" stroke-width="0.100mm" />
<path d="
M72.689 43.841
L72.724 43.843
L72.892 43.852
L72.951 43.856
L73.009 43.862
L73.068 43.870
L73.099 43.875
L73.265 43.904
L73.323 43.915
L73.381 43.928
L73.445 43.945
L73.606 43.991
L73.662 44.009
L73.718 44.028
L73.798 44.059
L73.954 44.124
L74.008 44.147
L74.062 44.173
L74.126 44.206
L74.273 44.287
L74.324 44.317
L74.374 44.348
L74.439 44.392
L74.576 44.489
L74.624 44.524
L74.670 44.560
L74.728 44.609
L74.854 44.721
L74.897 44.761
L74.939 44.803
L74.999 44.866
L75.111 44.992
L75.150 45.037
L75.187 45.083
L75.231 45.144
L75.328 45.281
L75.362 45.330
L75.393 45.380
L75.433 45.447
L75.514 45.594
L75.541 45.647
L75.567 45.700
L75.596 45.766
L75.661 45.922
L75.683 45.977
L75.703 46.033
L75.729 46.114
L75.775 46.275
L75.790 46.332
L75.803 46.390
L75.816 46.455
L75.845 46.621
L75.854 46.679
L75.861 46.738
L75.867 46.797
L75.868 46.828
L75.877 46.996
L75.880 47.056
L75.880 72.630
L75.879 72.689
L75.877 72.724
L75.868 72.892
L75.864 72.951
L75.858 73.009
L75.850 73.068
L75.845 73.099
L75.816 73.265
L75.805 73.323
L75.792 73.381
L75.775 73.445
L75.729 73.606
L75.711 73.662
L75.692 73.718
L75.661 73.798
L75.596 73.954
L75.573 74.008
L75.547 74.062
L75.514 74.126
L75.433 74.273
L75.403 74.324
L75.372 74.374
L75.328 74.439
L75.231 74.576
L75.196 74.624
L75.160 74.670
L75.111 74.728
L74.999 74.854
L74.959 74.897
L74.917 74.939
L74.854 74.999
L74.728 75.111
L74.683 75.150
L74.637 75.187
L74.576 75.231
L74.439 75.328
L74.390 75.362
L74.340 75.393
L74.273 75.433
L74.126 75.514
L74.073 75.541
L74.020 75.567
L73.954 75.596
L73.798 75.661
L73.743 75.683
L73.687 75.703
L73.606 75.729
L73.445 75.775
L73.388 75.790
L73.330 75.803
L73.265 75.816
L73.099 75.845
L73.041 75.854
L72.982 75.861
L72.923 75.867
L72.892 75.868
L72.724 75.877
L72.664 75.880
L46.830 75.880
L46.771 75.879
L46.736 75.877
L46.568 75.868
L46.509 75.864
L46.451 75.858
L46.392 75.850
L46.361 75.845
L46.195 75.816
L46.137 75.805
L46.079 75.792
L46.015 75.775
L45.854 75.729
L45.798 75.711
L45.742 75.692
L45.662 75.661
L45.506 75.596
L45.452 75.573
L45.398 75.547
L45.334 75.514
L45.187 75.433
L45.136 75.403
L45.086 75.372
L45.021 75.328
L44.884 75.231
L44.836 75.196
L44.790 75.160
L44.732 75.111
L44.606 74.999
L44.563 74.959
L44.521 74.917
L44.461 74.854
L44.349 74.728
L44.310 74.683
L44.273 74.637
L44.229 74.576
L44.132 74.439
L44.098 74.390
L44.067 74.340
L44.027 74.273
L43.946 74.126
L43.919 74.073
L43.893 74.020
L43.864 73.954
L43.799 73.798
L43.777 73.743
L43.757 73.687
L43.731 73.606
L43.685 73.445
L43.670 73.388
L43.657 73.330
L43.644 73.265
L43.615 73.099
L43.606 73.041
L43.599 72.982
L43.593 72.923
L43.592 72.892
L43.583 72.724
L43.580 72.664
L43.580 47.090
L43.581 47.031
L43.583 46.996
L43.592 46.828
L43.596 46.769
L43.602 46.711
L43.610 46.652
L43.615 46.621
L43.644 46.455
L43.655 46.397
L43.668 46.339
L43.685 46.275
L43.731 46.114
L43.749 46.058
L43.768 46.002
L43.799 45.922
L43.864 45.766
L43.887 45.712
L43.913 45.658
L43.946 45.594
L44.027 45.447
L44.057 45.396
L44.088 45.346
L44.132 45.281
L44.229 45.144
L44.264 45.096
L44.300 45.050
L44.349 44.992
L44.461 44.866
L44.501 44.823
L44.543 44.781
L44.606 44.721
L44.732 44.609
L44.777 44.570
L44.823 44.533
L44.884 44.489
L45.021 44.392
L45.070 44.358
L45.120 44.327
L45.187 44.287
L45.334 44.206
L45.387 44.179
L45.440 44.153
L45.506 44.124
L45.662 44.059
L45.717 44.037
L45.773 44.017
L45.854 43.991
L46.015 43.945
L46.072 43.930
L46.130 43.917
L46.195 43.904
L46.361 43.875
L46.419 43.866
L46.478 43.859
L46.537 43.853
L46.568 43.852
L46.736 43.843
L46.796 43.840
L72.630 43.840
L72.689 43.841
" 
fill="none" vector-effect="non-scaling-stroke" stroke="#0000ff" stroke-width="0.100mm" />
<path d="
M45.330 47.090
A1.500,1.500 0 0,1 46.830,45.590
L72.630 45.590
A1.500,1.500 0 0,1 74.130,47.090
L74.130 72.630
A1.500,1.500 0 0,1 72.630,74.130
L46.830 74.130
A1.500,1.500 0 0,1 45.330,72.630
L45.330 47.090
" 
fill="#ffffff" vector-effect="non-scaling-stroke" stroke="#000000" stroke-width="0.100mm" />
<path d="
M22.380 97.160
A8.500,8.500 0 1,0 39.380,97.160
A8.500,8.500 0 1,0 22.380,97.160
" 
fill="#ffffff" vector-effect="non-scaling-stroke" stroke="#000000" stroke-width="0.100mm" />
<path d="
M45.950 90.440
A1.000,1.000 0 0,1 46.950,89.440
L52.950 89.440
A1.000,1.000 0 0,1 53.950,90.440
L53.950 103.940
A1.000,1.000 0 0,1 52.950,104.940
L46.950 104.940
A1.000,1.000 0 0,1 45.950,103.940
L45.950 90.440
" 
fill="#ffffff" vector-effect="non-scaling-stroke" stroke="#000000" stroke-width="0.100mm" />
<path d="
M61.960 91.345
A1.000,1.000 0 0,1 62.960,90.345
L73.660 90.345
A1.000,1.000 0 0,1 74.660,91.345
L74.660 103.055
A1.000,1.000 0 0,1 73.660,104.055
L62.960 104.055
A1.000,1.000 0 0,1 61.960,103.055
L61.960 91.345
" 
fill="#ffffff" vector-effect="non-scaling-stroke" stroke="#000000" stroke-width="0.100mm" />
<path d="
M82.700 97.160
A8.500,8.500 0 1,0 99.700,97.160
A8.500,8.500 0 1,0 82.700,97.160
" 
fill="#ffffff" vector-effect="non-scaling-stroke" stroke="#000000" stroke-width="0.100mm" />
<path d="
M81.735 112.358
A3.125,3.125 0 1,0 87.985,112.358
A3.125,3.125 0 1,0 81.735,112.358
" 
fill="#ffffff" vector-effect="non-scaling-stroke" stroke="#000000" stroke-width="0.100mm" />
<path d="
M91.265 112.358
A3.125,3.125 0 1,0 97.515,112.358
A3.125,3.125 0 1,0 91.265,112.358
" 
fill="#ffffff" vector-effect="non-scaling-stroke" stroke="#000000" stroke-width="0.100mm" />
<path d="
M72.205 112.358
A3.125,3.125 0 1,0 78.455,112.358
A3.125,3.125 0 1,0 72.205,112.358
" 
fill="#ffffff" vector-effect="non-scaling-stroke" stroke="#000000" stroke-width="0.100mm" />
<path d="
M62.675 112.358
A3.125,3.125 0 1,0 68.925,112.358
A3.125,3.125 0 1,0 62.675,112.358
" 
fill="#ffffff" vector-effect="non-scaling-stroke" stroke="#000000" stroke-width="0.100mm" />
<path d="
M53.145 112.358
A3.125,3.125 0 1,0 59.395,112.358
A3.125,3.125 0 1,0 53.145,112.358
" 
fill="#ffffff" vector-effect="non-scaling-stroke" stroke="#000000" stroke-width="0.100mm" />
<path d="
M43.615 112.358
A3.125,3.125 0 1,0 49.865,112.358
A3.125,3.125 0 1,0 43.615,112.358
" 
fill="#ffffff" vector-effect="non-scaling-stroke" stroke="#000000" stroke-width="0.100mm" />
<path d="
M34.185 112.358
A3.125,3.125 0 1,0 40.435,112.358
A3.125,3.125 0 1,0 34.185,112.358
" 
fill="#ffffff" vector-effect="non-scaling-stroke" stroke="#000000" stroke-width="0.100mm" />
<path d="
M24.555 112.358
A3.125,3.125 0 1,0 30.805,112.358
A3.125,3.125 0 1,0 24.555,112.358
" 
fill="#ffffff" vector-effect="non-scaling-stroke" stroke="#000000" stroke-width="0.100mm" />
<path d="
M81.730 81.828
A3.125,3.125 0 1,0 87.980,81.828
A3.125,3.125 0 1,0 81.730,81.828
" 
fill="#ffffff" vector-effect="non-scaling-stroke" stroke="#000000" stroke-width="0.100mm" />
<path d="
M91.260 81.828
A3.125,3.125 0 1,0 97.510,81.828
A3.125,3.125 0 1,0 91.260,81.828
" 
fill="#ffffff" vector-effect="non-scaling-stroke" stroke="#000000" stroke-width="0.100mm" />
<path d="
M72.200 81.828
A3.125,3.125 0 1,0 78.450,81.828
A3.125,3.125 0 1,0 72.200,81.828
" 
fill="#ffffff" vector-effect="non-scaling-stroke" stroke="#000000" stroke-width="0.100mm" />
<path d="
M62.670 81.828
A3.125,3.125 0 1,0 68.920,81.828
A3.125,3.125 0 1,0 62.670,81.828
" 
fill="#ffffff" vector-effect="non-scaling-stroke" stroke="#000000" stroke-width="0.100mm" />
<path d="
M53.140 81.828
A3.125,3.125 0 1,0 59.390,81.828
A3.125,3.125 0 1,0 53.140,81.828
" 
fill="#ffffff" vector-effect="non-scaling-stroke" stroke="#000000" stroke-width="0.100mm" />
<path d="
M43.610 81.828
A3.125,3.125 0 1,0 49.860,81.828
A3.125,3.125 0 1,0 43.610,81.828
" 
fill="#ffffff" vector-effect="non-scaling-stroke" stroke="#000000" stroke-width="0.100mm" />
<path d="
M34.180 81.828
A3.125,3.125 0 1,0 40.430,81.828
A3.125,3.125 0 1,0 34.180,81.828
" 
fill="#ffffff" vector-effect="non-scaling-stroke" stroke="#000000" stroke-width="0.100mm" />
<path d="
M24.550 81.828
A3.125,3.125 0 1,0 30.800,81.828
A3.125,3.125 0 1,0 24.550,81.828
" 
fill="#ffffff" vector-effect="non-scaling-stroke" stroke="#000000" stroke-width="0.100mm" />
<path d="
M106.400 108.370
A4.750,4.750 0 1,0 115.900,108.370
A4.750,4.750 0 1,0 106.400,108.370
" 
fill="#ffffff" vector-effect="non-scaling-stroke" stroke="#000000" stroke-width="0.100mm" />
<path d="
M106.400 91.860
A4.750,4.750 0 1,0 115.900,91.860
A4.750,4.750 0 1,0 106.400,91.860
" 
fill="#ffffff" vector-effect="non-scaling-stroke" stroke="#000000" stroke-width="0.100mm" />
<path d="
M106.400 75.350
A4.750,4.750 0 1,0 115.900,75.350
A4.750,4.750 0 1,0 106.400,75.350
" 
fill="#ffffff" vector-effect="non-scaling-stroke" stroke="#000000" stroke-width="0.100mm" />
<path d="
M106.400 58.840
A4.750,4.750 0 1,0 115.900,58.840
A4.750,4.750 0 1,0 106.400,58.840
" 
fill="#ffffff" vector-effect="non-scaling-stroke" stroke="#000000" stroke-width="0.100mm" />
<path d="
M4.800 108.370
A4.750,4.750 0 1,0 14.300,108.370
A4.750,4.750 0 1,0 4.800,108.370
" 
fill="#ffffff" vector-effect="non-scaling-stroke" stroke="#000000" stroke-width="0.100mm" />
<path d="
M4.800 91.860
A4.750,4.750 0 1,0 14.300,91.860
A4.750,4.750 0 1,0 4.800,91.860
" 
fill="#ffffff" vector-effect="non-scaling-stroke" stroke="#000000" stroke-width="0.100mm" />
<path d="
M4.800 75.350
A4.750,4.750 0 1,0 14.300,75.350
A4.750,4.750 0 1,0 4.800,75.350
" 
fill="#ffffff" vector-effect="non-scaling-stroke" stroke="#000000" stroke-width="0.100mm" />
<path d="
M84.040 69.878
A0.500,0.500 0 0,1 84.540,69.378
L97.540 69.378
A0.500,0.500 0 0,1 98.040,69.878
L98.040 72.878
A0.500,0.500 0 0,1 97.540,73.378
L84.540 73.378
A0.500,0.500 0 0,1 84.040,72.878
L84.040 69.878
" 
fill="#ffffff" vector-effect="non-scaling-stroke" stroke="#000000" stroke-width="0.100mm" />
<path d="
M0.000 126.900
A1.600,1.600 0 0,0 1.600,128.500
L1.600 128.500
L120.320 128.500
A1.600,1.600 0 0,0 121.920,126.900
L121.920 126.900
L121.920 1.600
A1.600,1.600 0 0,0 120.320,0.000
L120.320 0.000
L1.600 0.000
A1.600,1.600 0 0,0 0.000,1.600
L0.000 1.600
L0.000 126.900
" 
fill="none" vector-effect="non-scaling-stroke" stroke="#000000" stroke-width="0.100mm" />
<path d="
M-0.713 0.000
L0.713 0.000
M0.000 -0.713
L0.000 0.713
" 
fill="none" vector-effect="non-scaling-stroke" stroke="#ff0000" stroke-width="0.100mm" />
<path d="
M6.737 3.000
L8.163 3.000
M7.450 2.287
L7.450 3.713
" 
fill="none" vector-effect="non-scaling-stroke" stroke="#ff0000" stroke-width="0.100mm" />
<path d="
M6.737 125.500
L8.163 125.500
M7.450 124.787
L7.450 126.213
" 
fill="none" vector-effect="non-scaling-stroke" stroke="#ff0000" stroke-width="0.100mm" />
<path d="
M113.757 3.000
L115.183 3.000
M114.470 2.287
L114.470 3.713
" 
fill="none" vector-effect="non-scaling-stroke" stroke="#ff0000" stroke-width="0.100mm" />
<path d="
M113.757 125.500
L115.183 125.500
M114.470 124.787
L114.470 126.213
" 
fill="none" vector-effect="non-scaling-stroke" stroke="#ff0000" stroke-width="0.100mm" />
<path d="
M13.657 17.920
L15.083 17.920
M14.370 17.207
L14.370 18.633
" 
fill="none" vector-effect="non-scaling-stroke" stroke="#ff0000" stroke-width="0.100mm" />
<path d="
M61.157 17.920
L62.583 17.920
M61.870 17.207
L61.870 18.633
" 
fill="none" vector-effect="non-scaling-stroke" stroke="#ff0000" stroke-width="0.100mm" />
<path d="
M108.657 17.920
L110.083 17.920
M109.370 17.207
L109.370 18.633
" 
fill="none" vector-effect="non-scaling-stroke" stroke="#ff0000" stroke-width="0.100mm" />
<path d="
M32.457 36.750
L33.883 36.750
M33.170 36.037
L33.170 37.463
" 
fill="none" vector-effect="non-scaling-stroke" stroke="#ff0000" stroke-width="0.100mm" />
<path d="
M108.657 39.930
L110.083 39.930
M109.370 39.217
L109.370 40.643
" 
fill="none" vector-effect="non-scaling-stroke" stroke="#ff0000" stroke-width="0.100mm" />
<path d="
M89.607 36.750
L91.033 36.750
M90.320 36.037
L90.320 37.463
" 
fill="none" vector-effect="non-scaling-stroke" stroke="#ff0000" stroke-width="0.100mm" />
<path d="
M13.657 56.490
L15.083 56.490
M14.370 55.777
L14.370 57.203
" 
fill="none" vector-effect="non-scaling-stroke" stroke="#ff0000" stroke-width="0.100mm" />
<path d="
M59.017 59.860
L60.443 59.860
M59.730 59.147
L59.730 60.573
" 
fill="none" vector-effect="non-scaling-stroke" stroke="#ff0000" stroke-width="0.100mm" />
<path d="
M30.167 97.160
L31.593 97.160
M30.880 96.447
L30.880 97.873
" 
fill="none" vector-effect="non-scaling-stroke" stroke="#ff0000" stroke-width="0.100mm" />
<path d="
M49.237 97.190
L50.663 97.190
M49.950 96.477
L49.950 97.903
" 
fill="none" vector-effect="non-scaling-stroke" stroke="#ff0000" stroke-width="0.100mm" />
<path d="
M67.597 97.200
L69.023 97.200
M68.310 96.487
L68.310 97.913
" 
fill="none" vector-effect="non-scaling-stroke" stroke="#ff0000" stroke-width="0.100mm" />
<path d="
M90.487 97.160
L91.913 97.160
M91.200 96.447
L91.200 97.873
" 
fill="none" vector-effect="non-scaling-stroke" stroke="#ff0000" stroke-width="0.100mm" />
<path d="
M84.147 112.358
L85.573 112.358
M84.860 111.645
L84.860 113.071
" 
fill="none" vector-effect="non-scaling-stroke" stroke="#00d000" stroke-width="0.100mm" />
<path d="
M93.677 112.358
L95.103 112.358
M94.390 111.645
L94.390 113.071
" 
fill="none" vector-effect="non-scaling-stroke" stroke="#00d000" stroke-width="0.100mm" />
<path d="
M74.617 112.358
L76.043 112.358
M75.330 111.645
L75.330 113.071
" 
fill="none" vector-effect="non-scaling-stroke" stroke="#00d000" stroke-width="0.100mm" />
<path d="
M65.087 112.358
L66.513 112.358
M65.800 111.645
L65.800 113.071
" 
fill="none" vector-effect="non-scaling-stroke" stroke="#00d000" stroke-width="0.100mm" />
<path d="
M55.557 112.358
L56.983 112.358
M56.270 111.645
L56.270 113.071
" 
fill="none" vector-effect="non-scaling-stroke" stroke="#00d000" stroke-width="0.100mm" />
<path d="
M46.027 112.358
L47.453 112.358
M46.740 111.645
L46.740 113.071
" 
fill="none" vector-effect="non-scaling-stroke" stroke="#00d000" stroke-width="0.100mm" />
<path d="
M36.597 112.358
L38.023 112.358
M37.310 111.645
L37.310 113.071
" 
fill="none" vector-effect="non-scaling-stroke" stroke="#00d000" stroke-width="0.100mm" />
<path d="
M26.967 112.358
L28.393 112.358
M27.680 111.645
L27.680 113.071
" 
fill="none" vector-effect="non-scaling-stroke" stroke="#00d000" stroke-width="0.100mm" />
<path d="
M60.322 112.358
L61.748 112.358
M61.035 111.645
L61.035 113.071
" 
fill="none" vector-effect="non-scaling-stroke" stroke="#ff0000" stroke-width="0.100mm" />
<path d="
M84.142 81.828
L85.568 81.828
M84.855 81.115
L84.855 82.541
" 
fill="none" vector-effect="non-scaling-stroke" stroke="#00d000" stroke-width="0.100mm" />
<path d="
M93.672 81.828
L95.098 81.828
M94.385 81.115
L94.385 82.541
" 
fill="none" vector-effect="non-scaling-stroke" stroke="#00d000" stroke-width="0.100mm" />
<path d="
M74.612 81.828
L76.038 81.828
M75.325 81.115
L75.325 82.541
" 
fill="none" vector-effect="non-scaling-stroke" stroke="#00d000" stroke-width="0.100mm" />
<path d="
M65.082 81.828
L66.508 81.828
M65.795 81.115
L65.795 82.541
" 
fill="none" vector-effect="non-scaling-stroke" stroke="#00d000" stroke-width="0.100mm" />
<path d="
M55.552 81.828
L56.978 81.828
M56.265 81.115
L56.265 82.541
" 
fill="none" vector-effect="non-scaling-stroke" stroke="#00d000" stroke-width="0.100mm" />
<path d="
M46.022 81.828
L47.448 81.828
M46.735 81.115
L46.735 82.541
" 
fill="none" vector-effect="non-scaling-stroke" stroke="#00d000" stroke-width="0.100mm" />
<path d="
M36.592 81.828
L38.018 81.828
M37.305 81.115
L37.305 82.541
" 
fill="none" vector-effect="non-scaling-stroke" stroke="#00d000" stroke-width="0.100mm" />
<path d="
M26.962 81.828
L28.388 81.828
M27.675 81.115
L27.675 82.541
" 
fill="none" vector-effect="non-scaling-stroke" stroke="#00d000" stroke-width="0.100mm" />
<path d="
M60.317 81.828
L61.743 81.828
M61.030 81.115
L61.030 82.541
" 
fill="none" vector-effect="non-scaling-stroke" stroke="#ff0000" stroke-width="0.100mm" />
<path d="
M110.437 108.370
L111.863 108.370
M111.150 107.657
L111.150 109.083
" 
fill="none" vector-effect="non-scaling-stroke" stroke="#ff0000" stroke-width="0.100mm" />
<path d="
M110.437 91.860
L111.863 91.860
M111.150 91.147
L111.150 92.573
" 
fill="none" vector-effect="non-scaling-stroke" stroke="#ff0000" stroke-width="0.100mm" />
<path d="
M110.437 75.350
L111.863 75.350
M111.150 74.637
L111.150 76.063
" 
fill="none" vector-effect="non-scaling-stroke" stroke="#ff0000" stroke-width="0.100mm" />
<path d="
M110.437 58.840
L111.863 58.840
M111.150 58.127
L111.150 59.553
" 
fill="none" vector-effect="non-scaling-stroke" stroke="#ff0000" stroke-width="0.100mm" />
<path d="
M8.837 108.370
L10.263 108.370
M9.550 107.657
L9.550 109.083
" 
fill="none" vector-effect="non-scaling-stroke" stroke="#ff0000" stroke-width="0.100mm" />
<path d="
M8.837 91.860
L10.263 91.860
M9.550 91.147
L9.550 92.573
" 
fill="none" vector-effect="non-scaling-stroke" stroke="#ff0000" stroke-width="0.100mm" />
<path d="
M8.837 75.350
L10.263 75.350
M9.550 74.637
L9.550 76.063
" 
fill="none" vector-effect="non-scaling-stroke" stroke="#ff0000" stroke-width="0.100mm" />
<path d="
M90.327 71.378
L91.753 71.378
M91.040 70.665
L91.040 72.091
" 
fill="none" vector-effect="non-scaling-stroke" stroke="#ff0000" stroke-width="0.100mm" />
</g>
</svg>
