<?xml version="1.0" encoding="UTF-8" standalone="no"?>
<svg
   xmlns:dc="http://purl.org/dc/elements/1.1/"
   xmlns:cc="http://creativecommons.org/ns#"
   xmlns:rdf="http://www.w3.org/1999/02/22-rdf-syntax-ns#"
   xmlns:svg="http://www.w3.org/2000/svg"
   xmlns="http://www.w3.org/2000/svg"
   xmlns:sodipodi="http://sodipodi.sourceforge.net/DTD/sodipodi-0.dtd"
   xmlns:inkscape="http://www.inkscape.org/namespaces/inkscape"
   width="123.01096mm"
   height="129.59096mm"
   version="1.1"
   viewBox="0 0 123.01096 129.59096"
   id="svg200"
   sodipodi:docname="panel-front.svg"
   inkscape:version="1.0.1 (c497b03c, 2020-09-10)">
  <metadata
     id="metadata204">
    <rdf:RDF>
      <cc:Work
         rdf:about="">
        <dc:format>image/svg+xml</dc:format>
        <dc:type
           rdf:resource="http://purl.org/dc/dcmitype/StillImage" />
        <dc:title></dc:title>
      </cc:Work>
    </rdf:RDF>
  </metadata>
  <sodipodi:namedview
     pagecolor="#000000"
     bordercolor="#666666"
     borderopacity="1"
     objecttolerance="10"
     gridtolerance="10"
     guidetolerance="10"
     inkscape:pageopacity="0"
     inkscape:pageshadow="2"
     inkscape:window-width="1635"
     inkscape:window-height="1005"
     id="namedview202"
     showgrid="false"
     inkscape:pagecheckerboard="false"
     inkscape:zoom="1.5133755"
     inkscape:cx="307.81579"
     inkscape:cy="243.54887"
     inkscape:window-x="45"
     inkscape:window-y="23"
     inkscape:window-maximized="1"
     inkscape:current-layer="g1076"
     showguides="true"
     inkscape:guide-bbox="true"
     fit-margin-top="0"
     fit-margin-left="0"
     fit-margin-right="0"
     fit-margin-bottom="0">
    <sodipodi:guide
       position="206.85164,136.04552"
       orientation="-0.70710678,-0.70710678"
       id="guide1078" />
  </sodipodi:namedview>
  <desc
     id="desc10">Created with the Front Panel Designer by the export of the file 'panel.fpd'.</desc>
  <defs
     id="defs22">
    <pattern
       id="revside-fill"
       x="1"
       y="1"
       width="1.5"
       height="1.5"
       patternUnits="userSpaceOnUse">
      <line
         x1="0"
         y1="0"
         x2="1"
         y2="1"
         style="stroke-width:0.2; stroke:black; stroke-dasharray:none;"
         id="line12" />
      <line
         x1="0"
         y1="1"
         x2="1"
         y2="0"
         style="stroke-width:0.2; stroke:black; stroke-dasharray:none;"
         id="line14" />
    </pattern>
    <pattern
       id="revside-fill-silver"
       x="1"
       y="1"
       width="1.5"
       height="1.5"
       patternUnits="userSpaceOnUse">
      <line
         x1="0"
         y1="0"
         x2="1.5"
         y2="1.5"
         style="stroke-width:0.2; stroke:#e0e0e0; stroke-dasharray:none;"
         id="line17" />
      <line
         x1="0"
         y1="1.5"
         x2="1.5"
         y2="0"
         style="stroke-width:0.2; stroke:#e0e0e0; stroke-dasharray:none;"
         id="line19" />
    </pattern>
  </defs>
  <g
     transform="matrix(1,0,0,-1,0.90197638,128.68898)"
     fill-rule="evenodd"
     style="opacity:1;stroke-linecap:round;stroke-linejoin:round;stroke-opacity:1"
     id="g198">
    <path
       d="m 0,126.9 a 1.6,1.6 0 0 0 1.6,1.6 v 0 h 118.72 a 1.6,1.6 0 0 0 1.6,-1.6 v 0 V 1.6 A 1.6,1.6 0 0 0 120.32,0 V 0 H 1.6 A 1.6,1.6 0 0 0 0,1.6 v 0 125.3"
       fill="#cccccc"
       vector-effect="non-scaling-stroke"
       stroke="#000000"
       stroke-width="0.1mm"
       id="path24" />
    <path
       d="m 72.689,43.841 0.035,0.002 0.168,0.009 0.059,0.004 0.058,0.006 0.059,0.008 0.031,0.005 0.166,0.029 0.058,0.011 0.058,0.013 0.064,0.017 0.161,0.046 0.056,0.018 0.056,0.019 0.08,0.031 0.156,0.065 0.054,0.023 0.054,0.026 0.064,0.033 0.147,0.081 0.051,0.03 0.05,0.031 0.065,0.044 0.137,0.097 0.048,0.035 0.046,0.036 0.058,0.049 0.126,0.112 0.043,0.04 0.042,0.042 0.06,0.063 0.112,0.126 0.039,0.045 0.037,0.046 0.044,0.061 0.097,0.137 0.034,0.049 0.031,0.05 0.04,0.067 0.081,0.147 0.027,0.053 0.026,0.053 0.029,0.066 0.065,0.156 0.022,0.055 0.02,0.056 0.026,0.081 0.046,0.161 0.015,0.057 0.013,0.058 0.013,0.065 0.029,0.166 0.009,0.058 0.007,0.059 0.006,0.059 10e-4,0.031 0.009,0.168 0.003,0.06 V 72.63 l -10e-4,0.059 -0.002,0.035 -0.009,0.168 -0.004,0.059 -0.006,0.058 -0.008,0.059 -0.005,0.031 -0.029,0.166 -0.011,0.058 -0.013,0.058 -0.017,0.064 -0.046,0.161 -0.018,0.056 -0.019,0.056 -0.031,0.08 -0.065,0.156 -0.023,0.054 -0.026,0.054 -0.033,0.064 -0.081,0.147 -0.03,0.051 -0.031,0.05 -0.044,0.065 -0.097,0.137 -0.035,0.048 -0.036,0.046 -0.049,0.058 -0.112,0.126 -0.04,0.043 -0.042,0.042 -0.063,0.06 -0.126,0.112 -0.045,0.039 -0.046,0.037 -0.061,0.044 -0.137,0.097 -0.049,0.034 -0.05,0.031 -0.067,0.04 -0.147,0.081 -0.053,0.027 -0.053,0.026 -0.066,0.029 -0.156,0.065 -0.055,0.022 -0.056,0.02 -0.081,0.026 -0.161,0.046 -0.057,0.015 -0.058,0.013 -0.065,0.013 -0.166,0.029 -0.058,0.009 -0.059,0.007 -0.059,0.006 -0.031,10e-4 -0.168,0.009 -0.06,0.003 H 46.83 L 46.771,75.879 46.736,75.877 46.568,75.868 46.509,75.864 46.451,75.858 46.392,75.85 46.361,75.845 46.195,75.816 46.137,75.805 46.079,75.792 46.015,75.775 45.854,75.729 45.798,75.711 45.742,75.692 45.662,75.661 45.506,75.596 45.452,75.573 45.398,75.547 45.334,75.514 45.187,75.433 45.136,75.403 45.086,75.372 45.021,75.328 44.884,75.231 44.836,75.196 44.79,75.16 44.732,75.111 44.606,74.999 44.563,74.959 44.521,74.917 44.461,74.854 44.349,74.728 44.31,74.683 44.273,74.637 44.229,74.576 44.132,74.439 44.098,74.39 44.067,74.34 44.027,74.273 43.946,74.126 43.919,74.073 43.893,74.02 43.864,73.954 43.799,73.798 43.777,73.743 43.757,73.687 43.731,73.606 43.685,73.445 43.67,73.388 43.657,73.33 43.644,73.265 43.615,73.099 43.606,73.041 43.599,72.982 43.593,72.923 43.592,72.892 43.583,72.724 43.58,72.664 V 47.09 l 0.001,-0.059 0.002,-0.035 0.009,-0.168 0.004,-0.059 0.006,-0.058 0.008,-0.059 0.005,-0.031 0.029,-0.166 0.011,-0.058 0.013,-0.058 0.017,-0.064 0.046,-0.161 0.018,-0.056 0.019,-0.056 0.031,-0.08 0.065,-0.156 0.023,-0.054 0.026,-0.054 0.033,-0.064 0.081,-0.147 0.03,-0.051 0.031,-0.05 0.044,-0.065 0.097,-0.137 0.035,-0.048 0.036,-0.046 0.049,-0.058 0.112,-0.126 0.04,-0.043 0.042,-0.042 0.063,-0.06 0.126,-0.112 0.045,-0.039 0.046,-0.037 0.061,-0.044 0.137,-0.097 0.049,-0.034 0.05,-0.031 0.067,-0.04 0.147,-0.081 0.053,-0.027 0.053,-0.026 0.066,-0.029 0.156,-0.065 0.055,-0.022 0.056,-0.02 0.081,-0.026 0.161,-0.046 0.057,-0.015 0.058,-0.013 0.065,-0.013 0.166,-0.029 0.058,-0.009 0.059,-0.007 0.059,-0.006 0.031,-0.001 0.168,-0.009 0.06,-0.003 H 72.63 l 0.059,10e-4 M 45.33,47.09 a 1.5,1.5 0 0 1 1.5,-1.5 h 25.8 a 1.5,1.5 0 0 1 1.5,1.5 v 25.54 a 1.5,1.5 0 0 1 -1.5,1.5 h -25.8 a 1.5,1.5 0 0 1 -1.5,-1.5 V 47.09"
       fill="#e0e0e0"
       vector-effect="non-scaling-stroke"
       stroke="#0000ff"
       stroke-width="0.1mm"
       id="path48" />
    <path
       d="m 72.689,43.841 0.035,0.002 0.168,0.009 0.059,0.004 0.058,0.006 0.059,0.008 0.031,0.005 0.166,0.029 0.058,0.011 0.058,0.013 0.064,0.017 0.161,0.046 0.056,0.018 0.056,0.019 0.08,0.031 0.156,0.065 0.054,0.023 0.054,0.026 0.064,0.033 0.147,0.081 0.051,0.03 0.05,0.031 0.065,0.044 0.137,0.097 0.048,0.035 0.046,0.036 0.058,0.049 0.126,0.112 0.043,0.04 0.042,0.042 0.06,0.063 0.112,0.126 0.039,0.045 0.037,0.046 0.044,0.061 0.097,0.137 0.034,0.049 0.031,0.05 0.04,0.067 0.081,0.147 0.027,0.053 0.026,0.053 0.029,0.066 0.065,0.156 0.022,0.055 0.02,0.056 0.026,0.081 0.046,0.161 0.015,0.057 0.013,0.058 0.013,0.065 0.029,0.166 0.009,0.058 0.007,0.059 0.006,0.059 10e-4,0.031 0.009,0.168 0.003,0.06 V 72.63 l -10e-4,0.059 -0.002,0.035 -0.009,0.168 -0.004,0.059 -0.006,0.058 -0.008,0.059 -0.005,0.031 -0.029,0.166 -0.011,0.058 -0.013,0.058 -0.017,0.064 -0.046,0.161 -0.018,0.056 -0.019,0.056 -0.031,0.08 -0.065,0.156 -0.023,0.054 -0.026,0.054 -0.033,0.064 -0.081,0.147 -0.03,0.051 -0.031,0.05 -0.044,0.065 -0.097,0.137 -0.035,0.048 -0.036,0.046 -0.049,0.058 -0.112,0.126 -0.04,0.043 -0.042,0.042 -0.063,0.06 -0.126,0.112 -0.045,0.039 -0.046,0.037 -0.061,0.044 -0.137,0.097 -0.049,0.034 -0.05,0.031 -0.067,0.04 -0.147,0.081 -0.053,0.027 -0.053,0.026 -0.066,0.029 -0.156,0.065 -0.055,0.022 -0.056,0.02 -0.081,0.026 -0.161,0.046 -0.057,0.015 -0.058,0.013 -0.065,0.013 -0.166,0.029 -0.058,0.009 -0.059,0.007 -0.059,0.006 -0.031,10e-4 -0.168,0.009 -0.06,0.003 H 46.83 L 46.771,75.879 46.736,75.877 46.568,75.868 46.509,75.864 46.451,75.858 46.392,75.85 46.361,75.845 46.195,75.816 46.137,75.805 46.079,75.792 46.015,75.775 45.854,75.729 45.798,75.711 45.742,75.692 45.662,75.661 45.506,75.596 45.452,75.573 45.398,75.547 45.334,75.514 45.187,75.433 45.136,75.403 45.086,75.372 45.021,75.328 44.884,75.231 44.836,75.196 44.79,75.16 44.732,75.111 44.606,74.999 44.563,74.959 44.521,74.917 44.461,74.854 44.349,74.728 44.31,74.683 44.273,74.637 44.229,74.576 44.132,74.439 44.098,74.39 44.067,74.34 44.027,74.273 43.946,74.126 43.919,74.073 43.893,74.02 43.864,73.954 43.799,73.798 43.777,73.743 43.757,73.687 43.731,73.606 43.685,73.445 43.67,73.388 43.657,73.33 43.644,73.265 43.615,73.099 43.606,73.041 43.599,72.982 43.593,72.923 43.592,72.892 43.583,72.724 43.58,72.664 V 47.09 l 0.001,-0.059 0.002,-0.035 0.009,-0.168 0.004,-0.059 0.006,-0.058 0.008,-0.059 0.005,-0.031 0.029,-0.166 0.011,-0.058 0.013,-0.058 0.017,-0.064 0.046,-0.161 0.018,-0.056 0.019,-0.056 0.031,-0.08 0.065,-0.156 0.023,-0.054 0.026,-0.054 0.033,-0.064 0.081,-0.147 0.03,-0.051 0.031,-0.05 0.044,-0.065 0.097,-0.137 0.035,-0.048 0.036,-0.046 0.049,-0.058 0.112,-0.126 0.04,-0.043 0.042,-0.042 0.063,-0.06 0.126,-0.112 0.045,-0.039 0.046,-0.037 0.061,-0.044 0.137,-0.097 0.049,-0.034 0.05,-0.031 0.067,-0.04 0.147,-0.081 0.053,-0.027 0.053,-0.026 0.066,-0.029 0.156,-0.065 0.055,-0.022 0.056,-0.02 0.081,-0.026 0.161,-0.046 0.057,-0.015 0.058,-0.013 0.065,-0.013 0.166,-0.029 0.058,-0.009 0.059,-0.007 0.059,-0.006 0.031,-0.001 0.168,-0.009 0.06,-0.003 H 72.63 l 0.059,10e-4"
       fill="none"
       vector-effect="non-scaling-stroke"
       stroke="#0000ff"
       stroke-width="0.1mm"
       id="path50" />
    <g
       id="g1076"
       style="mix-blend-mode:difference">
      <path
         d="m 4.669,3.983 a 2.95,2.95 0 0 1 0,-1.966 1,1 0 0 1 0.943,-0.667 h 3.676 a 1,1 0 0 1 0.943,0.667 2.95,2.95 0 0 1 0,1.966 A 1,1 0 0 1 9.288,4.65 H 5.612 A 1,1 0 0 1 4.669,3.983"
         fill="#ffffff"
         vector-effect="non-scaling-stroke"
         stroke="#000000"
         stroke-width="0.1mm"
         id="path26" />
      <path
         d="m 4.669,126.483 a 2.95,2.95 0 0 1 0,-1.966 1,1 0 0 1 0.943,-0.667 h 3.676 a 1,1 0 0 1 0.943,0.667 2.95,2.95 0 0 1 0,1.966 1,1 0 0 1 -0.943,0.667 H 5.612 a 1,1 0 0 1 -0.943,-0.667"
         fill="#ffffff"
         vector-effect="non-scaling-stroke"
         stroke="#000000"
         stroke-width="0.1mm"
         id="path28" />
      <path
         d="m 111.689,3.983 a 2.95,2.95 0 0 1 0,-1.966 1,1 0 0 1 0.943,-0.667 h 3.676 a 1,1 0 0 1 0.943,0.667 2.95,2.95 0 0 1 0,1.966 1,1 0 0 1 -0.943,0.667 h -3.676 a 1,1 0 0 1 -0.943,-0.667"
         fill="#ffffff"
         vector-effect="non-scaling-stroke"
         stroke="#000000"
         stroke-width="0.1mm"
         id="path30" />
      <path
         d="m 111.689,126.483 a 2.95,2.95 0 0 1 0,-1.966 1,1 0 0 1 0.943,-0.667 h 3.676 a 1,1 0 0 1 0.943,0.667 2.95,2.95 0 0 1 0,1.966 1,1 0 0 1 -0.943,0.667 h -3.676 a 1,1 0 0 1 -0.943,-0.667"
         fill="#ffffff"
         vector-effect="non-scaling-stroke"
         stroke="#000000"
         stroke-width="0.1mm"
         id="path32" />
      <path
         d="m 10.77,17.92 a 3.6,3.6 0 1 0 7.2,0 3.6,3.6 0 1 0 -7.2,0"
         fill="#ffffff"
         vector-effect="non-scaling-stroke"
         stroke="#000000"
         stroke-width="0.1mm"
         id="path34" />
      <path
         d="m 58.27,17.92 a 3.6,3.6 0 1 0 7.2,0 3.6,3.6 0 1 0 -7.2,0"
         fill="#ffffff"
         vector-effect="non-scaling-stroke"
         stroke="#000000"
         stroke-width="0.1mm"
         id="path36" />
      <path
         d="m 105.77,17.92 a 3.6,3.6 0 1 0 7.2,0 3.6,3.6 0 1 0 -7.2,0"
         fill="#ffffff"
         vector-effect="non-scaling-stroke"
         stroke="#000000"
         stroke-width="0.1mm"
         id="path38" />
      <path
         d="m 28.67,36.75 a 4.5,4.5 0 1 0 9,0 4.5,4.5 0 1 0 -9,0"
         fill="#ffffff"
         vector-effect="non-scaling-stroke"
         stroke="#000000"
         stroke-width="0.1mm"
         id="path40" />
      <path
         d="m 104.87,39.93 a 4.5,4.5 0 1 0 9,0 4.5,4.5 0 1 0 -9,0"
         fill="#ffffff"
         vector-effect="non-scaling-stroke"
         stroke="#000000"
         stroke-width="0.1mm"
         id="path42" />
      <path
         d="m 85.82,36.75 a 4.5,4.5 0 1 0 9,0 4.5,4.5 0 1 0 -9,0"
         fill="#ffffff"
         vector-effect="non-scaling-stroke"
         stroke="#000000"
         stroke-width="0.1mm"
         id="path44" />
      <path
         d="m 10.77,56.49 a 3.6,3.6 0 1 0 7.2,0 3.6,3.6 0 1 0 -7.2,0"
         fill="#ffffff"
         vector-effect="non-scaling-stroke"
         stroke="#000000"
         stroke-width="0.1mm"
         id="path46" />
      <path
         d="m 45.33,47.09 a 1.5,1.5 0 0 1 1.5,-1.5 h 25.8 a 1.5,1.5 0 0 1 1.5,1.5 v 25.54 a 1.5,1.5 0 0 1 -1.5,1.5 h -25.8 a 1.5,1.5 0 0 1 -1.5,-1.5 V 47.09"
         fill="#ffffff"
         vector-effect="non-scaling-stroke"
         stroke="#000000"
         stroke-width="0.1mm"
         id="path52" />
      <path
         d="m 22.38,97.16 a 8.5,8.5 0 1 0 17,0 8.5,8.5 0 1 0 -17,0"
         fill="#ffffff"
         vector-effect="non-scaling-stroke"
         stroke="#000000"
         stroke-width="0.1mm"
         id="path54" />
      <path
         d="m 45.95,90.44 a 1,1 0 0 1 1,-1 h 6 a 1,1 0 0 1 1,1 v 13.5 a 1,1 0 0 1 -1,1 h -6 a 1,1 0 0 1 -1,-1 v -13.5"
         fill="#ffffff"
         vector-effect="non-scaling-stroke"
         stroke="#000000"
         stroke-width="0.1mm"
         id="path56" />
      <path
         d="m 61.96,91.345 a 1,1 0 0 1 1,-1 h 10.7 a 1,1 0 0 1 1,1 v 11.71 a 1,1 0 0 1 -1,1 h -10.7 a 1,1 0 0 1 -1,-1 v -11.71"
         fill="#ffffff"
         vector-effect="non-scaling-stroke"
         stroke="#000000"
         stroke-width="0.1mm"
         id="path58" />
      <path
         d="m 82.7,97.16 a 8.5,8.5 0 1 0 17,0 8.5,8.5 0 1 0 -17,0"
         fill="#ffffff"
         vector-effect="non-scaling-stroke"
         stroke="#000000"
         stroke-width="0.1mm"
         id="path60" />
      <path
         d="m 81.735,112.358 a 3.125,3.125 0 1 0 6.25,0 3.125,3.125 0 1 0 -6.25,0"
         fill="#ffffff"
         vector-effect="non-scaling-stroke"
         stroke="#000000"
         stroke-width="0.1mm"
         id="path62" />
      <path
         d="m 91.265,112.358 a 3.125,3.125 0 1 0 6.25,0 3.125,3.125 0 1 0 -6.25,0"
         fill="#ffffff"
         vector-effect="non-scaling-stroke"
         stroke="#000000"
         stroke-width="0.1mm"
         id="path64" />
      <path
         d="m 72.205,112.358 a 3.125,3.125 0 1 0 6.25,0 3.125,3.125 0 1 0 -6.25,0"
         fill="#ffffff"
         vector-effect="non-scaling-stroke"
         stroke="#000000"
         stroke-width="0.1mm"
         id="path66" />
      <path
         d="m 62.675,112.358 a 3.125,3.125 0 1 0 6.25,0 3.125,3.125 0 1 0 -6.25,0"
         fill="#ffffff"
         vector-effect="non-scaling-stroke"
         stroke="#000000"
         stroke-width="0.1mm"
         id="path68" />
      <path
         d="m 53.145,112.358 a 3.125,3.125 0 1 0 6.25,0 3.125,3.125 0 1 0 -6.25,0"
         fill="#ffffff"
         vector-effect="non-scaling-stroke"
         stroke="#000000"
         stroke-width="0.1mm"
         id="path70" />
      <path
         d="m 43.615,112.358 a 3.125,3.125 0 1 0 6.25,0 3.125,3.125 0 1 0 -6.25,0"
         fill="#ffffff"
         vector-effect="non-scaling-stroke"
         stroke="#000000"
         stroke-width="0.1mm"
         id="path72" />
      <path
         d="m 34.185,112.358 a 3.125,3.125 0 1 0 6.25,0 3.125,3.125 0 1 0 -6.25,0"
         fill="#ffffff"
         vector-effect="non-scaling-stroke"
         stroke="#000000"
         stroke-width="0.1mm"
         id="path74" />
      <path
         d="m 24.555,112.358 a 3.125,3.125 0 1 0 6.25,0 3.125,3.125 0 1 0 -6.25,0"
         fill="#ffffff"
         vector-effect="non-scaling-stroke"
         stroke="#000000"
         stroke-width="0.1mm"
         id="path76" />
      <path
         d="m 81.73,81.828 a 3.125,3.125 0 1 0 6.25,0 3.125,3.125 0 1 0 -6.25,0"
         fill="#ffffff"
         vector-effect="non-scaling-stroke"
         stroke="#000000"
         stroke-width="0.1mm"
         id="path78" />
      <path
         d="m 91.26,81.828 a 3.125,3.125 0 1 0 6.25,0 3.125,3.125 0 1 0 -6.25,0"
         fill="#ffffff"
         vector-effect="non-scaling-stroke"
         stroke="#000000"
         stroke-width="0.1mm"
         id="path80" />
      <path
         d="m 72.2,81.828 a 3.125,3.125 0 1 0 6.25,0 3.125,3.125 0 1 0 -6.25,0"
         fill="#ffffff"
         vector-effect="non-scaling-stroke"
         stroke="#000000"
         stroke-width="0.1mm"
         id="path82" />
      <path
         d="m 62.67,81.828 a 3.125,3.125 0 1 0 6.25,0 3.125,3.125 0 1 0 -6.25,0"
         fill="#ffffff"
         vector-effect="non-scaling-stroke"
         stroke="#000000"
         stroke-width="0.1mm"
         id="path84" />
      <path
         d="m 53.14,81.828 a 3.125,3.125 0 1 0 6.25,0 3.125,3.125 0 1 0 -6.25,0"
         fill="#ffffff"
         vector-effect="non-scaling-stroke"
         stroke="#000000"
         stroke-width="0.1mm"
         id="path86" />
      <path
         d="m 43.61,81.828 a 3.125,3.125 0 1 0 6.25,0 3.125,3.125 0 1 0 -6.25,0"
         fill="#ffffff"
         vector-effect="non-scaling-stroke"
         stroke="#000000"
         stroke-width="0.1mm"
         id="path88" />
      <path
         d="m 34.18,81.828 a 3.125,3.125 0 1 0 6.25,0 3.125,3.125 0 1 0 -6.25,0"
         fill="#ffffff"
         vector-effect="non-scaling-stroke"
         stroke="#000000"
         stroke-width="0.1mm"
         id="path90" />
      <path
         d="m 24.55,81.828 a 3.125,3.125 0 1 0 6.25,0 3.125,3.125 0 1 0 -6.25,0"
         fill="#ffffff"
         vector-effect="non-scaling-stroke"
         stroke="#000000"
         stroke-width="0.1mm"
         id="path92" />
      <path
         d="m 106.4,108.37 a 4.75,4.75 0 1 0 9.5,0 4.75,4.75 0 1 0 -9.5,0"
         fill="#ffffff"
         vector-effect="non-scaling-stroke"
         stroke="#000000"
         stroke-width="0.1mm"
         id="path94" />
      <path
         d="m 106.4,91.86 a 4.75,4.75 0 1 0 9.5,0 4.75,4.75 0 1 0 -9.5,0"
         fill="#ffffff"
         vector-effect="non-scaling-stroke"
         stroke="#000000"
         stroke-width="0.1mm"
         id="path96" />
      <path
         d="m 106.4,75.35 a 4.75,4.75 0 1 0 9.5,0 4.75,4.75 0 1 0 -9.5,0"
         fill="#ffffff"
         vector-effect="non-scaling-stroke"
         stroke="#000000"
         stroke-width="0.1mm"
         id="path98" />
      <path
         d="m 106.4,58.84 a 4.75,4.75 0 1 0 9.5,0 4.75,4.75 0 1 0 -9.5,0"
         fill="#ffffff"
         vector-effect="non-scaling-stroke"
         stroke="#000000"
         stroke-width="0.1mm"
         id="path100" />
      <path
         d="m 4.8,108.37 a 4.75,4.75 0 1 0 9.5,0 4.75,4.75 0 1 0 -9.5,0"
         fill="#ffffff"
         vector-effect="non-scaling-stroke"
         stroke="#000000"
         stroke-width="0.1mm"
         id="path102"
         style="mix-blend-mode:normal;fill:#ffffff;fill-opacity:1" />
      <path
         d="m 4.8,91.86 a 4.75,4.75 0 1 0 9.5,0 4.75,4.75 0 1 0 -9.5,0"
         fill="#ffffff"
         vector-effect="non-scaling-stroke"
         stroke="#000000"
         stroke-width="0.1mm"
         id="path104" />
      <path
         d="m 4.8,75.35 a 4.75,4.75 0 1 0 9.5,0 4.75,4.75 0 1 0 -9.5,0"
         fill="#ffffff"
         vector-effect="non-scaling-stroke"
         stroke="#000000"
         stroke-width="0.1mm"
         id="path106" />
      <path
         d="m 84.04,69.878 a 0.5,0.5 0 0 1 0.5,-0.5 h 13 a 0.5,0.5 0 0 1 0.5,0.5 v 3 a 0.5,0.5 0 0 1 -0.5,0.5 h -13 a 0.5,0.5 0 0 1 -0.5,-0.5 v -3"
         fill="#ffffff"
         vector-effect="non-scaling-stroke"
         stroke="#000000"
         stroke-width="0.1mm"
         id="path108" />
    </g>
    <path
       d="m 0,126.9 a 1.6,1.6 0 0 0 1.6,1.6 v 0 h 118.72 a 1.6,1.6 0 0 0 1.6,-1.6 v 0 V 1.6 A 1.6,1.6 0 0 0 120.32,0 V 0 H 1.6 A 1.6,1.6 0 0 0 0,1.6 v 0 125.3"
       fill="none"
       vector-effect="non-scaling-stroke"
       stroke="#000000"
       stroke-width="0.1mm"
       id="path110" />
    <path
       d="M -0.713,0 H 0.713 M 0,-0.713 v 1.426"
       fill="none"
       vector-effect="non-scaling-stroke"
       stroke="#ff0000"
       stroke-width="0.1mm"
       id="path112" />
    <path
       d="M 6.737,3 H 8.163 M 7.45,2.287 v 1.426"
       fill="none"
       vector-effect="non-scaling-stroke"
       stroke="#ff0000"
       stroke-width="0.1mm"
       id="path114" />
    <path
       d="M 6.737,125.5 H 8.163 M 7.45,124.787 v 1.426"
       fill="none"
       vector-effect="non-scaling-stroke"
       stroke="#ff0000"
       stroke-width="0.1mm"
       id="path116" />
    <path
       d="m 113.757,3 h 1.426 M 114.47,2.287 v 1.426"
       fill="none"
       vector-effect="non-scaling-stroke"
       stroke="#ff0000"
       stroke-width="0.1mm"
       id="path118" />
    <path
       d="m 113.757,125.5 h 1.426 m -0.713,-0.713 v 1.426"
       fill="none"
       vector-effect="non-scaling-stroke"
       stroke="#ff0000"
       stroke-width="0.1mm"
       id="path120" />
    <path
       d="m 13.657,17.92 h 1.426 M 14.37,17.207 v 1.426"
       fill="none"
       vector-effect="non-scaling-stroke"
       stroke="#ff0000"
       stroke-width="0.1mm"
       id="path122" />
    <path
       d="m 61.157,17.92 h 1.426 M 61.87,17.207 v 1.426"
       fill="none"
       vector-effect="non-scaling-stroke"
       stroke="#ff0000"
       stroke-width="0.1mm"
       id="path124" />
    <path
       d="m 108.657,17.92 h 1.426 m -0.713,-0.713 v 1.426"
       fill="none"
       vector-effect="non-scaling-stroke"
       stroke="#ff0000"
       stroke-width="0.1mm"
       id="path126" />
    <path
       d="m 32.457,36.75 h 1.426 M 33.17,36.037 v 1.426"
       fill="none"
       vector-effect="non-scaling-stroke"
       stroke="#ff0000"
       stroke-width="0.1mm"
       id="path128" />
    <path
       d="m 108.657,39.93 h 1.426 m -0.713,-0.713 v 1.426"
       fill="none"
       vector-effect="non-scaling-stroke"
       stroke="#ff0000"
       stroke-width="0.1mm"
       id="path130" />
    <path
       d="m 89.607,36.75 h 1.426 M 90.32,36.037 v 1.426"
       fill="none"
       vector-effect="non-scaling-stroke"
       stroke="#ff0000"
       stroke-width="0.1mm"
       id="path132" />
    <path
       d="m 13.657,56.49 h 1.426 M 14.37,55.777 v 1.426"
       fill="none"
       vector-effect="non-scaling-stroke"
       stroke="#ff0000"
       stroke-width="0.1mm"
       id="path134" />
    <path
       d="m 59.017,59.86 h 1.426 M 59.73,59.147 v 1.426"
       fill="none"
       vector-effect="non-scaling-stroke"
       stroke="#ff0000"
       stroke-width="0.1mm"
       id="path136" />
    <path
       d="m 30.167,97.16 h 1.426 M 30.88,96.447 v 1.426"
       fill="none"
       vector-effect="non-scaling-stroke"
       stroke="#ff0000"
       stroke-width="0.1mm"
       id="path138" />
    <path
       d="m 49.237,97.19 h 1.426 M 49.95,96.477 v 1.426"
       fill="none"
       vector-effect="non-scaling-stroke"
       stroke="#ff0000"
       stroke-width="0.1mm"
       id="path140" />
    <path
       d="m 67.597,97.2 h 1.426 M 68.31,96.487 v 1.426"
       fill="none"
       vector-effect="non-scaling-stroke"
       stroke="#ff0000"
       stroke-width="0.1mm"
       id="path142" />
    <path
       d="m 90.487,97.16 h 1.426 M 91.2,96.447 v 1.426"
       fill="none"
       vector-effect="non-scaling-stroke"
       stroke="#ff0000"
       stroke-width="0.1mm"
       id="path144" />
    <path
       d="m 84.147,112.358 h 1.426 m -0.713,-0.713 v 1.426"
       fill="none"
       vector-effect="non-scaling-stroke"
       stroke="#00d000"
       stroke-width="0.1mm"
       id="path146" />
    <path
       d="m 93.677,112.358 h 1.426 m -0.713,-0.713 v 1.426"
       fill="none"
       vector-effect="non-scaling-stroke"
       stroke="#00d000"
       stroke-width="0.1mm"
       id="path148" />
    <path
       d="m 74.617,112.358 h 1.426 m -0.713,-0.713 v 1.426"
       fill="none"
       vector-effect="non-scaling-stroke"
       stroke="#00d000"
       stroke-width="0.1mm"
       id="path150" />
    <path
       d="m 65.087,112.358 h 1.426 M 65.8,111.645 v 1.426"
       fill="none"
       vector-effect="non-scaling-stroke"
       stroke="#00d000"
       stroke-width="0.1mm"
       id="path152" />
    <path
       d="m 55.557,112.358 h 1.426 m -0.713,-0.713 v 1.426"
       fill="none"
       vector-effect="non-scaling-stroke"
       stroke="#00d000"
       stroke-width="0.1mm"
       id="path154" />
    <path
       d="m 46.027,112.358 h 1.426 m -0.713,-0.713 v 1.426"
       fill="none"
       vector-effect="non-scaling-stroke"
       stroke="#00d000"
       stroke-width="0.1mm"
       id="path156" />
    <path
       d="m 36.597,112.358 h 1.426 m -0.713,-0.713 v 1.426"
       fill="none"
       vector-effect="non-scaling-stroke"
       stroke="#00d000"
       stroke-width="0.1mm"
       id="path158" />
    <path
       d="m 26.967,112.358 h 1.426 m -0.713,-0.713 v 1.426"
       fill="none"
       vector-effect="non-scaling-stroke"
       stroke="#00d000"
       stroke-width="0.1mm"
       id="path160" />
    <path
       d="m 60.322,112.358 h 1.426 m -0.713,-0.713 v 1.426"
       fill="none"
       vector-effect="non-scaling-stroke"
       stroke="#ff0000"
       stroke-width="0.1mm"
       id="path162" />
    <path
       d="m 84.142,81.828 h 1.426 m -0.713,-0.713 v 1.426"
       fill="none"
       vector-effect="non-scaling-stroke"
       stroke="#00d000"
       stroke-width="0.1mm"
       id="path164" />
    <path
       d="m 93.672,81.828 h 1.426 m -0.713,-0.713 v 1.426"
       fill="none"
       vector-effect="non-scaling-stroke"
       stroke="#00d000"
       stroke-width="0.1mm"
       id="path166" />
    <path
       d="m 74.612,81.828 h 1.426 m -0.713,-0.713 v 1.426"
       fill="none"
       vector-effect="non-scaling-stroke"
       stroke="#00d000"
       stroke-width="0.1mm"
       id="path168" />
    <path
       d="m 65.082,81.828 h 1.426 m -0.713,-0.713 v 1.426"
       fill="none"
       vector-effect="non-scaling-stroke"
       stroke="#00d000"
       stroke-width="0.1mm"
       id="path170" />
    <path
       d="m 55.552,81.828 h 1.426 m -0.713,-0.713 v 1.426"
       fill="none"
       vector-effect="non-scaling-stroke"
       stroke="#00d000"
       stroke-width="0.1mm"
       id="path172" />
    <path
       d="m 46.022,81.828 h 1.426 m -0.713,-0.713 v 1.426"
       fill="none"
       vector-effect="non-scaling-stroke"
       stroke="#00d000"
       stroke-width="0.1mm"
       id="path174" />
    <path
       d="m 36.592,81.828 h 1.426 m -0.713,-0.713 v 1.426"
       fill="none"
       vector-effect="non-scaling-stroke"
       stroke="#00d000"
       stroke-width="0.1mm"
       id="path176" />
    <path
       d="m 26.962,81.828 h 1.426 m -0.713,-0.713 v 1.426"
       fill="none"
       vector-effect="non-scaling-stroke"
       stroke="#00d000"
       stroke-width="0.1mm"
       id="path178" />
    <path
       d="m 60.317,81.828 h 1.426 M 61.03,81.115 v 1.426"
       fill="none"
       vector-effect="non-scaling-stroke"
       stroke="#ff0000"
       stroke-width="0.1mm"
       id="path180" />
    <path
       d="m 110.437,108.37 h 1.426 m -0.713,-0.713 v 1.426"
       fill="none"
       vector-effect="non-scaling-stroke"
       stroke="#ff0000"
       stroke-width="0.1mm"
       id="path182" />
    <path
       d="m 110.437,91.86 h 1.426 m -0.713,-0.713 v 1.426"
       fill="none"
       vector-effect="non-scaling-stroke"
       stroke="#ff0000"
       stroke-width="0.1mm"
       id="path184" />
    <path
       d="m 110.437,75.35 h 1.426 m -0.713,-0.713 v 1.426"
       fill="none"
       vector-effect="non-scaling-stroke"
       stroke="#ff0000"
       stroke-width="0.1mm"
       id="path186" />
    <path
       d="m 110.437,58.84 h 1.426 m -0.713,-0.713 v 1.426"
       fill="none"
       vector-effect="non-scaling-stroke"
       stroke="#ff0000"
       stroke-width="0.1mm"
       id="path188" />
    <path
       d="m 8.837,108.37 h 1.426 M 9.55,107.657 v 1.426"
       fill="none"
       vector-effect="non-scaling-stroke"
       stroke="#ff0000"
       stroke-width="0.1mm"
       id="path190" />
    <path
       d="m 8.837,91.86 h 1.426 M 9.55,91.147 v 1.426"
       fill="none"
       vector-effect="non-scaling-stroke"
       stroke="#ff0000"
       stroke-width="0.1mm"
       id="path192" />
    <path
       d="m 8.837,75.35 h 1.426 M 9.55,74.637 v 1.426"
       fill="none"
       vector-effect="non-scaling-stroke"
       stroke="#ff0000"
       stroke-width="0.1mm"
       id="path194" />
    <path
       d="m 90.327,71.378 h 1.426 M 91.04,70.665 v 1.426"
       fill="none"
       vector-effect="non-scaling-stroke"
       stroke="#ff0000"
       stroke-width="0.1mm"
       id="path196" />
  </g>
</svg>
