  0
SECTION
  2
HEADER
  9
$MEASUREMENT
  70
  1
  9
$INSUNITS
  70
  4
  0
ENDSEC
  0
SECTION
  2
TABLES
  0
TABLE
  2
LTYPE
 70
     1
  0
LTYPE
  2
CONTINUOUS
 70
    64
  3
Ausgezogene Linie
 72
    65
 73
     0
 40
0.0
  0
ENDTAB
  0
TABLE
  2
LAYER
 70
     3
  0
LAYER
  2
Contour
 70
    64
 62
     7
  6
CONTINUOUS
  0
LAYER
  2
Engraving
 70
    64
 62
     7
  6
CONTINUOUS
  0
LAYER
  2
Reference_points
 70
    64
 62
     1
  6
CONTINUOUS
  0
ENDTAB
  0
TABLE
  2
STYLE
 70
     1
  0
STYLE
  2
TXT
 70
    64
 40
0.0
 41
1.0
 50
0.0
 71
     0
 42
3.500000
  3
TXT
  0
ENDTAB
  0
ENDSEC
  0
SECTION
  2
BLOCKS
  0
ENDSEC
  0
SECTION
  2
ENTITIES
  0
LINE
  8
Contour
 62
   7
 39
0.100
  6
CONTINUOUS
 10
60.62000
 20
128.40000
 30
 0
 11
60.62000
 21
0.00000
  0
LINE
  8
Contour
 62
   7
 39
0.100
  6
CONTINUOUS
 10
60.62000
 20
0.00000
 30
 0
 11
0.00000
 21
0.00000
  0
LINE
  8
Contour
 62
   7
 39
0.100
  6
CONTINUOUS
 10
0.00000
 20
0.00000
 30
 0
 11
0.00000
 21
128.40000
  0
LINE
  8
Contour
 62
   7
 39
0.100
  6
CONTINUOUS
 10
0.00000
 20
128.40000
 30
 0
 11
60.62000
 21
128.40000
  0
CIRCLE
  8
Contour
 62
   7
 39
0.100
  6
CONTINUOUS
 10
7.50000
 20
125.50000
 30
 0
 40
1.50000
  0
CIRCLE
  8
Contour
 62
   7
 39
0.100
  6
CONTINUOUS
 10
7.50000
 20
3.00000
 30
 0
 40
1.50000
  0
CIRCLE
  8
Contour
 62
   7
 39
0.100
  6
CONTINUOUS
 10
48.14000
 20
125.50000
 30
 0
 40
1.50000
  0
CIRCLE
  8
Contour
 62
   7
 39
0.100
  6
CONTINUOUS
 10
48.14000
 20
3.00000
 30
 0
 40
1.50000
  0
ARC
  8
Contour
 62
   7
 39
0.100
  6
CONTINUOUS
 10
20.32000
 20
79.48500
 30
 0
 40
1.50000
 50
180.00000
 51
270.00000
  0
LINE
  8
Contour
 62
   7
 39
0.100
  6
CONTINUOUS
 10
20.32000
 20
77.98500
 30
 0
 11
35.32000
 21
77.98500
  0
ARC
  8
Contour
 62
   7
 39
0.100
  6
CONTINUOUS
 10
35.32000
 20
79.48500
 30
 0
 40
1.50000
 50
270.00000
 51
360.00000
  0
LINE
  8
Contour
 62
   7
 39
0.100
  6
CONTINUOUS
 10
36.82000
 20
79.48500
 30
 0
 11
36.82000
 21
91.48500
  0
ARC
  8
Contour
 62
   7
 39
0.100
  6
CONTINUOUS
 10
35.32000
 20
91.48500
 30
 0
 40
1.50000
 50
0.00000
 51
90.00000
  0
LINE
  8
Contour
 62
   7
 39
0.100
  6
CONTINUOUS
 10
35.32000
 20
92.98500
 30
 0
 11
20.32000
 21
92.98500
  0
ARC
  8
Contour
 62
   7
 39
0.100
  6
CONTINUOUS
 10
20.32000
 20
91.48500
 30
 0
 40
1.50000
 50
90.00000
 51
180.00000
  0
LINE
  8
Contour
 62
   7
 39
0.100
  6
CONTINUOUS
 10
18.82000
 20
91.48500
 30
 0
 11
18.82000
 21
79.48500
  0
LINE
  8
Contour
 62
   7
 39
0.100
  6
CONTINUOUS
 10
13.46400
 20
82.48800
 30
 0
 11
13.51400
 21
82.49100
  0
LINE
  8
Contour
 62
   7
 39
0.100
  6
CONTINUOUS
 10
13.51400
 20
82.49100
 30
 0
 11
13.55500
 21
82.49400
  0
LINE
  8
Contour
 62
   7
 39
0.100
  6
CONTINUOUS
 10
13.55500
 20
82.49400
 30
 0
 11
13.66400
 21
82.50500
  0
LINE
  8
Contour
 62
   7
 39
0.100
  6
CONTINUOUS
 10
13.66400
 20
82.50500
 30
 0
 11
13.73100
 21
82.51400
  0
LINE
  8
Contour
 62
   7
 39
0.100
  6
CONTINUOUS
 10
13.73100
 20
82.51400
 30
 0
 11
13.84000
 21
82.53100
  0
LINE
  8
Contour
 62
   7
 39
0.100
  6
CONTINUOUS
 10
13.84000
 20
82.53100
 30
 0
 11
13.89000
 21
82.54000
  0
LINE
  8
Contour
 62
   7
 39
0.100
  6
CONTINUOUS
 10
13.89000
 20
82.54000
 30
 0
 11
13.92100
 21
82.54600
  0
LINE
  8
Contour
 62
   7
 39
0.100
  6
CONTINUOUS
 10
13.92100
 20
82.54600
 30
 0
 11
14.02800
 21
82.57000
  0
LINE
  8
Contour
 62
   7
 39
0.100
  6
CONTINUOUS
 10
14.02800
 20
82.57000
 30
 0
 11
14.07700
 21
82.58200
  0
LINE
  8
Contour
 62
   7
 39
0.100
  6
CONTINUOUS
 10
14.07700
 20
82.58200
 30
 0
 11
14.10600
 21
82.59000
  0
LINE
  8
Contour
 62
   7
 39
0.100
  6
CONTINUOUS
 10
14.10600
 20
82.59000
 30
 0
 11
14.21200
 21
82.62100
  0
LINE
  8
Contour
 62
   7
 39
0.100
  6
CONTINUOUS
 10
14.21200
 20
82.62100
 30
 0
 11
14.28000
 21
82.64300
  0
LINE
  8
Contour
 62
   7
 39
0.100
  6
CONTINUOUS
 10
14.28000
 20
82.64300
 30
 0
 11
14.38400
 21
82.68000
  0
LINE
  8
Contour
 62
   7
 39
0.100
  6
CONTINUOUS
 10
14.38400
 20
82.68000
 30
 0
 11
14.43000
 21
82.69800
  0
LINE
  8
Contour
 62
   7
 39
0.100
  6
CONTINUOUS
 10
14.43000
 20
82.69800
 30
 0
 11
14.46400
 21
82.71200
  0
LINE
  8
Contour
 62
   7
 39
0.100
  6
CONTINUOUS
 10
14.46400
 20
82.71200
 30
 0
 11
14.56500
 21
82.75600
  0
LINE
  8
Contour
 62
   7
 39
0.100
  6
CONTINUOUS
 10
14.56500
 20
82.75600
 30
 0
 11
14.61000
 21
82.77700
  0
LINE
  8
Contour
 62
   7
 39
0.100
  6
CONTINUOUS
 10
14.61000
 20
82.77700
 30
 0
 11
14.63400
 21
82.78800
  0
LINE
  8
Contour
 62
   7
 39
0.100
  6
CONTINUOUS
 10
14.63400
 20
82.78800
 30
 0
 11
14.73200
 21
82.83800
  0
LINE
  8
Contour
 62
   7
 39
0.100
  6
CONTINUOUS
 10
14.73200
 20
82.83800
 30
 0
 11
14.77600
 21
82.86200
  0
LINE
  8
Contour
 62
   7
 39
0.100
  6
CONTINUOUS
 10
14.77600
 20
82.86200
 30
 0
 11
14.80300
 21
82.87800
  0
LINE
  8
Contour
 62
   7
 39
0.100
  6
CONTINUOUS
 10
14.80300
 20
82.87800
 30
 0
 11
14.89700
 21
82.93400
  0
LINE
  8
Contour
 62
   7
 39
0.100
  6
CONTINUOUS
 10
14.89700
 20
82.93400
 30
 0
 11
14.95300
 21
82.97000
  0
LINE
  8
Contour
 62
   7
 39
0.100
  6
CONTINUOUS
 10
14.95300
 20
82.97000
 30
 0
 11
15.04400
 21
83.03100
  0
LINE
  8
Contour
 62
   7
 39
0.100
  6
CONTINUOUS
 10
15.04400
 20
83.03100
 30
 0
 11
15.08500
 21
83.05900
  0
LINE
  8
Contour
 62
   7
 39
0.100
  6
CONTINUOUS
 10
15.08500
 20
83.05900
 30
 0
 11
15.11800
 21
83.08400
  0
LINE
  8
Contour
 62
   7
 39
0.100
  6
CONTINUOUS
 10
15.11800
 20
83.08400
 30
 0
 11
15.20500
 21
83.15200
  0
LINE
  8
Contour
 62
   7
 39
0.100
  6
CONTINUOUS
 10
15.20500
 20
83.15200
 30
 0
 11
15.26100
 21
83.19800
  0
LINE
  8
Contour
 62
   7
 39
0.100
  6
CONTINUOUS
 10
15.26100
 20
83.19800
 30
 0
 11
15.34400
 21
83.27100
  0
LINE
  8
Contour
 62
   7
 39
0.100
  6
CONTINUOUS
 10
15.34400
 20
83.27100
 30
 0
 11
15.38100
 21
83.30500
  0
LINE
  8
Contour
 62
   7
 39
0.100
  6
CONTINUOUS
 10
15.38100
 20
83.30500
 30
 0
 11
15.47900
 21
83.40300
  0
LINE
  8
Contour
 62
   7
 39
0.100
  6
CONTINUOUS
 10
15.47900
 20
83.40300
 30
 0
 11
15.51400
 21
83.43900
  0
LINE
  8
Contour
 62
   7
 39
0.100
  6
CONTINUOUS
 10
15.51400
 20
83.43900
 30
 0
 11
15.53400
 21
83.46100
  0
LINE
  8
Contour
 62
   7
 39
0.100
  6
CONTINUOUS
 10
15.53400
 20
83.46100
 30
 0
 11
15.60700
 21
83.54400
  0
LINE
  8
Contour
 62
   7
 39
0.100
  6
CONTINUOUS
 10
15.60700
 20
83.54400
 30
 0
 11
15.65300
 21
83.60000
  0
LINE
  8
Contour
 62
   7
 39
0.100
  6
CONTINUOUS
 10
15.65300
 20
83.60000
 30
 0
 11
15.72100
 21
83.68700
  0
LINE
  8
Contour
 62
   7
 39
0.100
  6
CONTINUOUS
 10
15.72100
 20
83.68700
 30
 0
 11
15.75100
 21
83.72700
  0
LINE
  8
Contour
 62
   7
 39
0.100
  6
CONTINUOUS
 10
15.75100
 20
83.72700
 30
 0
 11
15.77400
 21
83.76100
  0
LINE
  8
Contour
 62
   7
 39
0.100
  6
CONTINUOUS
 10
15.77400
 20
83.76100
 30
 0
 11
15.83500
 21
83.85200
  0
LINE
  8
Contour
 62
   7
 39
0.100
  6
CONTINUOUS
 10
15.83500
 20
83.85200
 30
 0
 11
15.87100
 21
83.90800
  0
LINE
  8
Contour
 62
   7
 39
0.100
  6
CONTINUOUS
 10
15.87100
 20
83.90800
 30
 0
 11
15.92700
 21
84.00200
  0
LINE
  8
Contour
 62
   7
 39
0.100
  6
CONTINUOUS
 10
15.92700
 20
84.00200
 30
 0
 11
15.95200
 21
84.04500
  0
LINE
  8
Contour
 62
   7
 39
0.100
  6
CONTINUOUS
 10
15.95200
 20
84.04500
 30
 0
 11
15.96700
 21
84.07300
  0
LINE
  8
Contour
 62
   7
 39
0.100
  6
CONTINUOUS
 10
15.96700
 20
84.07300
 30
 0
 11
16.01700
 21
84.17100
  0
LINE
  8
Contour
 62
   7
 39
0.100
  6
CONTINUOUS
 10
16.01700
 20
84.17100
 30
 0
 11
16.03800
 21
84.21600
  0
LINE
  8
Contour
 62
   7
 39
0.100
  6
CONTINUOUS
 10
16.03800
 20
84.21600
 30
 0
 11
16.04900
 21
84.24000
  0
LINE
  8
Contour
 62
   7
 39
0.100
  6
CONTINUOUS
 10
16.04900
 20
84.24000
 30
 0
 11
16.09300
 21
84.34100
  0
LINE
  8
Contour
 62
   7
 39
0.100
  6
CONTINUOUS
 10
16.09300
 20
84.34100
 30
 0
 11
16.11200
 21
84.38700
  0
LINE
  8
Contour
 62
   7
 39
0.100
  6
CONTINUOUS
 10
16.11200
 20
84.38700
 30
 0
 11
16.12500
 21
84.42100
  0
LINE
  8
Contour
 62
   7
 39
0.100
  6
CONTINUOUS
 10
16.12500
 20
84.42100
 30
 0
 11
16.16200
 21
84.52500
  0
LINE
  8
Contour
 62
   7
 39
0.100
  6
CONTINUOUS
 10
16.16200
 20
84.52500
 30
 0
 11
16.18400
 21
84.59300
  0
LINE
  8
Contour
 62
   7
 39
0.100
  6
CONTINUOUS
 10
16.18400
 20
84.59300
 30
 0
 11
16.21500
 21
84.69900
  0
LINE
  8
Contour
 62
   7
 39
0.100
  6
CONTINUOUS
 10
16.21500
 20
84.69900
 30
 0
 11
16.22800
 21
84.74800
  0
LINE
  8
Contour
 62
   7
 39
0.100
  6
CONTINUOUS
 10
16.22800
 20
84.74800
 30
 0
 11
16.23500
 21
84.77700
  0
LINE
  8
Contour
 62
   7
 39
0.100
  6
CONTINUOUS
 10
16.23500
 20
84.77700
 30
 0
 11
16.25900
 21
84.88400
  0
LINE
  8
Contour
 62
   7
 39
0.100
  6
CONTINUOUS
 10
16.25900
 20
84.88400
 30
 0
 11
16.26900
 21
84.93300
  0
LINE
  8
Contour
 62
   7
 39
0.100
  6
CONTINUOUS
 10
16.26900
 20
84.93300
 30
 0
 11
16.27400
 21
84.96500
  0
LINE
  8
Contour
 62
   7
 39
0.100
  6
CONTINUOUS
 10
16.27400
 20
84.96500
 30
 0
 11
16.29100
 21
85.07400
  0
LINE
  8
Contour
 62
   7
 39
0.100
  6
CONTINUOUS
 10
16.29100
 20
85.07400
 30
 0
 11
16.30000
 21
85.14100
  0
LINE
  8
Contour
 62
   7
 39
0.100
  6
CONTINUOUS
 10
16.30000
 20
85.14100
 30
 0
 11
16.31100
 21
85.25000
  0
LINE
  8
Contour
 62
   7
 39
0.100
  6
CONTINUOUS
 10
16.31100
 20
85.25000
 30
 0
 11
16.31500
 21
85.29900
  0
LINE
  8
Contour
 62
   7
 39
0.100
  6
CONTINUOUS
 10
16.31500
 20
85.29900
 30
 0
 11
16.31700
 21
85.34100
  0
LINE
  8
Contour
 62
   7
 39
0.100
  6
CONTINUOUS
 10
16.31700
 20
85.34100
 30
 0
 11
16.32000
 21
85.45100
  0
LINE
  8
Contour
 62
   7
 39
0.100
  6
CONTINUOUS
 10
16.32000
 20
85.45100
 30
 0
 11
16.32000
 21
85.51900
  0
LINE
  8
Contour
 62
   7
 39
0.100
  6
CONTINUOUS
 10
16.32000
 20
85.51900
 30
 0
 11
16.31700
 21
85.62900
  0
LINE
  8
Contour
 62
   7
 39
0.100
  6
CONTINUOUS
 10
16.31700
 20
85.62900
 30
 0
 11
16.31400
 21
85.67900
  0
LINE
  8
Contour
 62
   7
 39
0.100
  6
CONTINUOUS
 10
16.31400
 20
85.67900
 30
 0
 11
16.31100
 21
85.72000
  0
LINE
  8
Contour
 62
   7
 39
0.100
  6
CONTINUOUS
 10
16.31100
 20
85.72000
 30
 0
 11
16.30000
 21
85.82900
  0
LINE
  8
Contour
 62
   7
 39
0.100
  6
CONTINUOUS
 10
16.30000
 20
85.82900
 30
 0
 11
16.29100
 21
85.89600
  0
LINE
  8
Contour
 62
   7
 39
0.100
  6
CONTINUOUS
 10
16.29100
 20
85.89600
 30
 0
 11
16.27400
 21
86.00500
  0
LINE
  8
Contour
 62
   7
 39
0.100
  6
CONTINUOUS
 10
16.27400
 20
86.00500
 30
 0
 11
16.26500
 21
86.05500
  0
LINE
  8
Contour
 62
   7
 39
0.100
  6
CONTINUOUS
 10
16.26500
 20
86.05500
 30
 0
 11
16.25900
 21
86.08600
  0
LINE
  8
Contour
 62
   7
 39
0.100
  6
CONTINUOUS
 10
16.25900
 20
86.08600
 30
 0
 11
16.23500
 21
86.19300
  0
LINE
  8
Contour
 62
   7
 39
0.100
  6
CONTINUOUS
 10
16.23500
 20
86.19300
 30
 0
 11
16.22300
 21
86.24200
  0
LINE
  8
Contour
 62
   7
 39
0.100
  6
CONTINUOUS
 10
16.22300
 20
86.24200
 30
 0
 11
16.21500
 21
86.27100
  0
LINE
  8
Contour
 62
   7
 39
0.100
  6
CONTINUOUS
 10
16.21500
 20
86.27100
 30
 0
 11
16.18400
 21
86.37700
  0
LINE
  8
Contour
 62
   7
 39
0.100
  6
CONTINUOUS
 10
16.18400
 20
86.37700
 30
 0
 11
16.16200
 21
86.44500
  0
LINE
  8
Contour
 62
   7
 39
0.100
  6
CONTINUOUS
 10
16.16200
 20
86.44500
 30
 0
 11
16.12500
 21
86.54900
  0
LINE
  8
Contour
 62
   7
 39
0.100
  6
CONTINUOUS
 10
16.12500
 20
86.54900
 30
 0
 11
16.10700
 21
86.59500
  0
LINE
  8
Contour
 62
   7
 39
0.100
  6
CONTINUOUS
 10
16.10700
 20
86.59500
 30
 0
 11
16.09300
 21
86.62900
  0
LINE
  8
Contour
 62
   7
 39
0.100
  6
CONTINUOUS
 10
16.09300
 20
86.62900
 30
 0
 11
16.04900
 21
86.73000
  0
LINE
  8
Contour
 62
   7
 39
0.100
  6
CONTINUOUS
 10
16.04900
 20
86.73000
 30
 0
 11
16.02800
 21
86.77500
  0
LINE
  8
Contour
 62
   7
 39
0.100
  6
CONTINUOUS
 10
16.02800
 20
86.77500
 30
 0
 11
16.01700
 21
86.79900
  0
LINE
  8
Contour
 62
   7
 39
0.100
  6
CONTINUOUS
 10
16.01700
 20
86.79900
 30
 0
 11
15.96700
 21
86.89700
  0
LINE
  8
Contour
 62
   7
 39
0.100
  6
CONTINUOUS
 10
15.96700
 20
86.89700
 30
 0
 11
15.94300
 21
86.94100
  0
LINE
  8
Contour
 62
   7
 39
0.100
  6
CONTINUOUS
 10
15.94300
 20
86.94100
 30
 0
 11
15.92700
 21
86.96800
  0
LINE
  8
Contour
 62
   7
 39
0.100
  6
CONTINUOUS
 10
15.92700
 20
86.96800
 30
 0
 11
15.87100
 21
87.06200
  0
LINE
  8
Contour
 62
   7
 39
0.100
  6
CONTINUOUS
 10
15.87100
 20
87.06200
 30
 0
 11
15.83500
 21
87.11800
  0
LINE
  8
Contour
 62
   7
 39
0.100
  6
CONTINUOUS
 10
15.83500
 20
87.11800
 30
 0
 11
15.77400
 21
87.20900
  0
LINE
  8
Contour
 62
   7
 39
0.100
  6
CONTINUOUS
 10
15.77400
 20
87.20900
 30
 0
 11
15.74600
 21
87.25000
  0
LINE
  8
Contour
 62
   7
 39
0.100
  6
CONTINUOUS
 10
15.74600
 20
87.25000
 30
 0
 11
15.72100
 21
87.28300
  0
LINE
  8
Contour
 62
   7
 39
0.100
  6
CONTINUOUS
 10
15.72100
 20
87.28300
 30
 0
 11
15.65300
 21
87.37000
  0
LINE
  8
Contour
 62
   7
 39
0.100
  6
CONTINUOUS
 10
15.65300
 20
87.37000
 30
 0
 11
15.60700
 21
87.42600
  0
LINE
  8
Contour
 62
   7
 39
0.100
  6
CONTINUOUS
 10
15.60700
 20
87.42600
 30
 0
 11
15.53400
 21
87.50900
  0
LINE
  8
Contour
 62
   7
 39
0.100
  6
CONTINUOUS
 10
15.53400
 20
87.50900
 30
 0
 11
15.50000
 21
87.54600
  0
LINE
  8
Contour
 62
   7
 39
0.100
  6
CONTINUOUS
 10
15.50000
 20
87.54600
 30
 0
 11
15.40200
 21
87.64400
  0
LINE
  8
Contour
 62
   7
 39
0.100
  6
CONTINUOUS
 10
15.40200
 20
87.64400
 30
 0
 11
15.36600
 21
87.67900
  0
LINE
  8
Contour
 62
   7
 39
0.100
  6
CONTINUOUS
 10
15.36600
 20
87.67900
 30
 0
 11
15.34400
 21
87.69900
  0
LINE
  8
Contour
 62
   7
 39
0.100
  6
CONTINUOUS
 10
15.34400
 20
87.69900
 30
 0
 11
15.26100
 21
87.77200
  0
LINE
  8
Contour
 62
   7
 39
0.100
  6
CONTINUOUS
 10
15.26100
 20
87.77200
 30
 0
 11
15.20500
 21
87.81800
  0
LINE
  8
Contour
 62
   7
 39
0.100
  6
CONTINUOUS
 10
15.20500
 20
87.81800
 30
 0
 11
15.11800
 21
87.88600
  0
LINE
  8
Contour
 62
   7
 39
0.100
  6
CONTINUOUS
 10
15.11800
 20
87.88600
 30
 0
 11
15.07800
 21
87.91600
  0
LINE
  8
Contour
 62
   7
 39
0.100
  6
CONTINUOUS
 10
15.07800
 20
87.91600
 30
 0
 11
15.04400
 21
87.93900
  0
LINE
  8
Contour
 62
   7
 39
0.100
  6
CONTINUOUS
 10
15.04400
 20
87.93900
 30
 0
 11
14.95300
 21
88.00000
  0
LINE
  8
Contour
 62
   7
 39
0.100
  6
CONTINUOUS
 10
14.95300
 20
88.00000
 30
 0
 11
14.89700
 21
88.03600
  0
LINE
  8
Contour
 62
   7
 39
0.100
  6
CONTINUOUS
 10
14.89700
 20
88.03600
 30
 0
 11
14.80300
 21
88.09200
  0
LINE
  8
Contour
 62
   7
 39
0.100
  6
CONTINUOUS
 10
14.80300
 20
88.09200
 30
 0
 11
14.76000
 21
88.11700
  0
LINE
  8
Contour
 62
   7
 39
0.100
  6
CONTINUOUS
 10
14.76000
 20
88.11700
 30
 0
 11
14.73200
 21
88.13200
  0
LINE
  8
Contour
 62
   7
 39
0.100
  6
CONTINUOUS
 10
14.73200
 20
88.13200
 30
 0
 11
14.63400
 21
88.18200
  0
LINE
  8
Contour
 62
   7
 39
0.100
  6
CONTINUOUS
 10
14.63400
 20
88.18200
 30
 0
 11
14.58900
 21
88.20300
  0
LINE
  8
Contour
 62
   7
 39
0.100
  6
CONTINUOUS
 10
14.58900
 20
88.20300
 30
 0
 11
14.56500
 21
88.21400
  0
LINE
  8
Contour
 62
   7
 39
0.100
  6
CONTINUOUS
 10
14.56500
 20
88.21400
 30
 0
 11
14.46400
 21
88.25800
  0
LINE
  8
Contour
 62
   7
 39
0.100
  6
CONTINUOUS
 10
14.46400
 20
88.25800
 30
 0
 11
14.41800
 21
88.27700
  0
LINE
  8
Contour
 62
   7
 39
0.100
  6
CONTINUOUS
 10
14.41800
 20
88.27700
 30
 0
 11
14.38400
 21
88.29000
  0
LINE
  8
Contour
 62
   7
 39
0.100
  6
CONTINUOUS
 10
14.38400
 20
88.29000
 30
 0
 11
14.28000
 21
88.32700
  0
LINE
  8
Contour
 62
   7
 39
0.100
  6
CONTINUOUS
 10
14.28000
 20
88.32700
 30
 0
 11
14.21200
 21
88.34900
  0
LINE
  8
Contour
 62
   7
 39
0.100
  6
CONTINUOUS
 10
14.21200
 20
88.34900
 30
 0
 11
14.10600
 21
88.38000
  0
LINE
  8
Contour
 62
   7
 39
0.100
  6
CONTINUOUS
 10
14.10600
 20
88.38000
 30
 0
 11
14.05700
 21
88.39300
  0
LINE
  8
Contour
 62
   7
 39
0.100
  6
CONTINUOUS
 10
14.05700
 20
88.39300
 30
 0
 11
14.02800
 21
88.40000
  0
LINE
  8
Contour
 62
   7
 39
0.100
  6
CONTINUOUS
 10
14.02800
 20
88.40000
 30
 0
 11
13.92100
 21
88.42400
  0
LINE
  8
Contour
 62
   7
 39
0.100
  6
CONTINUOUS
 10
13.92100
 20
88.42400
 30
 0
 11
13.87200
 21
88.43400
  0
LINE
  8
Contour
 62
   7
 39
0.100
  6
CONTINUOUS
 10
13.87200
 20
88.43400
 30
 0
 11
13.84000
 21
88.43900
  0
LINE
  8
Contour
 62
   7
 39
0.100
  6
CONTINUOUS
 10
13.84000
 20
88.43900
 30
 0
 11
13.73100
 21
88.45600
  0
LINE
  8
Contour
 62
   7
 39
0.100
  6
CONTINUOUS
 10
13.73100
 20
88.45600
 30
 0
 11
13.66400
 21
88.46500
  0
LINE
  8
Contour
 62
   7
 39
0.100
  6
CONTINUOUS
 10
13.66400
 20
88.46500
 30
 0
 11
13.55500
 21
88.47600
  0
LINE
  8
Contour
 62
   7
 39
0.100
  6
CONTINUOUS
 10
13.55500
 20
88.47600
 30
 0
 11
13.50600
 21
88.48000
  0
LINE
  8
Contour
 62
   7
 39
0.100
  6
CONTINUOUS
 10
13.50600
 20
88.48000
 30
 0
 11
13.46400
 21
88.48200
  0
LINE
  8
Contour
 62
   7
 39
0.100
  6
CONTINUOUS
 10
13.46400
 20
88.48200
 30
 0
 11
13.35400
 21
88.48500
  0
LINE
  8
Contour
 62
   7
 39
0.100
  6
CONTINUOUS
 10
13.35400
 20
88.48500
 30
 0
 11
13.28600
 21
88.48500
  0
LINE
  8
Contour
 62
   7
 39
0.100
  6
CONTINUOUS
 10
13.28600
 20
88.48500
 30
 0
 11
13.17600
 21
88.48200
  0
LINE
  8
Contour
 62
   7
 39
0.100
  6
CONTINUOUS
 10
13.17600
 20
88.48200
 30
 0
 11
13.12600
 21
88.47900
  0
LINE
  8
Contour
 62
   7
 39
0.100
  6
CONTINUOUS
 10
13.12600
 20
88.47900
 30
 0
 11
13.08500
 21
88.47600
  0
LINE
  8
Contour
 62
   7
 39
0.100
  6
CONTINUOUS
 10
13.08500
 20
88.47600
 30
 0
 11
12.97600
 21
88.46500
  0
LINE
  8
Contour
 62
   7
 39
0.100
  6
CONTINUOUS
 10
12.97600
 20
88.46500
 30
 0
 11
12.90900
 21
88.45600
  0
LINE
  8
Contour
 62
   7
 39
0.100
  6
CONTINUOUS
 10
12.90900
 20
88.45600
 30
 0
 11
12.80000
 21
88.43900
  0
LINE
  8
Contour
 62
   7
 39
0.100
  6
CONTINUOUS
 10
12.80000
 20
88.43900
 30
 0
 11
12.75000
 21
88.43000
  0
LINE
  8
Contour
 62
   7
 39
0.100
  6
CONTINUOUS
 10
12.75000
 20
88.43000
 30
 0
 11
12.71900
 21
88.42400
  0
LINE
  8
Contour
 62
   7
 39
0.100
  6
CONTINUOUS
 10
12.71900
 20
88.42400
 30
 0
 11
12.61200
 21
88.40000
  0
LINE
  8
Contour
 62
   7
 39
0.100
  6
CONTINUOUS
 10
12.61200
 20
88.40000
 30
 0
 11
12.56300
 21
88.38800
  0
LINE
  8
Contour
 62
   7
 39
0.100
  6
CONTINUOUS
 10
12.56300
 20
88.38800
 30
 0
 11
12.53400
 21
88.38000
  0
LINE
  8
Contour
 62
   7
 39
0.100
  6
CONTINUOUS
 10
12.53400
 20
88.38000
 30
 0
 11
12.42800
 21
88.34900
  0
LINE
  8
Contour
 62
   7
 39
0.100
  6
CONTINUOUS
 10
12.42800
 20
88.34900
 30
 0
 11
12.36000
 21
88.32700
  0
LINE
  8
Contour
 62
   7
 39
0.100
  6
CONTINUOUS
 10
12.36000
 20
88.32700
 30
 0
 11
12.25600
 21
88.29000
  0
LINE
  8
Contour
 62
   7
 39
0.100
  6
CONTINUOUS
 10
12.25600
 20
88.29000
 30
 0
 11
12.21000
 21
88.27200
  0
LINE
  8
Contour
 62
   7
 39
0.100
  6
CONTINUOUS
 10
12.21000
 20
88.27200
 30
 0
 11
12.17600
 21
88.25800
  0
LINE
  8
Contour
 62
   7
 39
0.100
  6
CONTINUOUS
 10
12.17600
 20
88.25800
 30
 0
 11
12.07500
 21
88.21400
  0
LINE
  8
Contour
 62
   7
 39
0.100
  6
CONTINUOUS
 10
12.07500
 20
88.21400
 30
 0
 11
12.03000
 21
88.19300
  0
LINE
  8
Contour
 62
   7
 39
0.100
  6
CONTINUOUS
 10
12.03000
 20
88.19300
 30
 0
 11
12.00600
 21
88.18200
  0
LINE
  8
Contour
 62
   7
 39
0.100
  6
CONTINUOUS
 10
12.00600
 20
88.18200
 30
 0
 11
11.90800
 21
88.13200
  0
LINE
  8
Contour
 62
   7
 39
0.100
  6
CONTINUOUS
 10
11.90800
 20
88.13200
 30
 0
 11
11.86400
 21
88.10800
  0
LINE
  8
Contour
 62
   7
 39
0.100
  6
CONTINUOUS
 10
11.86400
 20
88.10800
 30
 0
 11
11.83700
 21
88.09200
  0
LINE
  8
Contour
 62
   7
 39
0.100
  6
CONTINUOUS
 10
11.83700
 20
88.09200
 30
 0
 11
11.74300
 21
88.03600
  0
LINE
  8
Contour
 62
   7
 39
0.100
  6
CONTINUOUS
 10
11.74300
 20
88.03600
 30
 0
 11
11.68700
 21
88.00000
  0
LINE
  8
Contour
 62
   7
 39
0.100
  6
CONTINUOUS
 10
11.68700
 20
88.00000
 30
 0
 11
11.59600
 21
87.93900
  0
LINE
  8
Contour
 62
   7
 39
0.100
  6
CONTINUOUS
 10
11.59600
 20
87.93900
 30
 0
 11
11.55500
 21
87.91100
  0
LINE
  8
Contour
 62
   7
 39
0.100
  6
CONTINUOUS
 10
11.55500
 20
87.91100
 30
 0
 11
11.52200
 21
87.88600
  0
LINE
  8
Contour
 62
   7
 39
0.100
  6
CONTINUOUS
 10
11.52200
 20
87.88600
 30
 0
 11
11.43500
 21
87.81800
  0
LINE
  8
Contour
 62
   7
 39
0.100
  6
CONTINUOUS
 10
11.43500
 20
87.81800
 30
 0
 11
11.37900
 21
87.77200
  0
LINE
  8
Contour
 62
   7
 39
0.100
  6
CONTINUOUS
 10
11.37900
 20
87.77200
 30
 0
 11
11.29600
 21
87.69900
  0
LINE
  8
Contour
 62
   7
 39
0.100
  6
CONTINUOUS
 10
11.29600
 20
87.69900
 30
 0
 11
11.25900
 21
87.66500
  0
LINE
  8
Contour
 62
   7
 39
0.100
  6
CONTINUOUS
 10
11.25900
 20
87.66500
 30
 0
 11
11.16100
 21
87.56700
  0
LINE
  8
Contour
 62
   7
 39
0.100
  6
CONTINUOUS
 10
11.16100
 20
87.56700
 30
 0
 11
11.12600
 21
87.53100
  0
LINE
  8
Contour
 62
   7
 39
0.100
  6
CONTINUOUS
 10
11.12600
 20
87.53100
 30
 0
 11
11.10600
 21
87.50900
  0
LINE
  8
Contour
 62
   7
 39
0.100
  6
CONTINUOUS
 10
11.10600
 20
87.50900
 30
 0
 11
11.03300
 21
87.42600
  0
LINE
  8
Contour
 62
   7
 39
0.100
  6
CONTINUOUS
 10
11.03300
 20
87.42600
 30
 0
 11
10.98700
 21
87.37000
  0
LINE
  8
Contour
 62
   7
 39
0.100
  6
CONTINUOUS
 10
10.98700
 20
87.37000
 30
 0
 11
10.91900
 21
87.28300
  0
LINE
  8
Contour
 62
   7
 39
0.100
  6
CONTINUOUS
 10
10.91900
 20
87.28300
 30
 0
 11
10.88900
 21
87.24300
  0
LINE
  8
Contour
 62
   7
 39
0.100
  6
CONTINUOUS
 10
10.88900
 20
87.24300
 30
 0
 11
10.86600
 21
87.20900
  0
LINE
  8
Contour
 62
   7
 39
0.100
  6
CONTINUOUS
 10
10.86600
 20
87.20900
 30
 0
 11
10.80500
 21
87.11800
  0
LINE
  8
Contour
 62
   7
 39
0.100
  6
CONTINUOUS
 10
10.80500
 20
87.11800
 30
 0
 11
10.76900
 21
87.06200
  0
LINE
  8
Contour
 62
   7
 39
0.100
  6
CONTINUOUS
 10
10.76900
 20
87.06200
 30
 0
 11
10.71300
 21
86.96800
  0
LINE
  8
Contour
 62
   7
 39
0.100
  6
CONTINUOUS
 10
10.71300
 20
86.96800
 30
 0
 11
10.68800
 21
86.92500
  0
LINE
  8
Contour
 62
   7
 39
0.100
  6
CONTINUOUS
 10
10.68800
 20
86.92500
 30
 0
 11
10.67300
 21
86.89700
  0
LINE
  8
Contour
 62
   7
 39
0.100
  6
CONTINUOUS
 10
10.67300
 20
86.89700
 30
 0
 11
10.62300
 21
86.79900
  0
LINE
  8
Contour
 62
   7
 39
0.100
  6
CONTINUOUS
 10
10.62300
 20
86.79900
 30
 0
 11
10.60200
 21
86.75400
  0
LINE
  8
Contour
 62
   7
 39
0.100
  6
CONTINUOUS
 10
10.60200
 20
86.75400
 30
 0
 11
10.59100
 21
86.73000
  0
LINE
  8
Contour
 62
   7
 39
0.100
  6
CONTINUOUS
 10
10.59100
 20
86.73000
 30
 0
 11
10.54700
 21
86.62900
  0
LINE
  8
Contour
 62
   7
 39
0.100
  6
CONTINUOUS
 10
10.54700
 20
86.62900
 30
 0
 11
10.52800
 21
86.58300
  0
LINE
  8
Contour
 62
   7
 39
0.100
  6
CONTINUOUS
 10
10.52800
 20
86.58300
 30
 0
 11
10.51500
 21
86.54900
  0
LINE
  8
Contour
 62
   7
 39
0.100
  6
CONTINUOUS
 10
10.51500
 20
86.54900
 30
 0
 11
10.47800
 21
86.44500
  0
LINE
  8
Contour
 62
   7
 39
0.100
  6
CONTINUOUS
 10
10.47800
 20
86.44500
 30
 0
 11
10.45600
 21
86.37700
  0
LINE
  8
Contour
 62
   7
 39
0.100
  6
CONTINUOUS
 10
10.45600
 20
86.37700
 30
 0
 11
10.42500
 21
86.27100
  0
LINE
  8
Contour
 62
   7
 39
0.100
  6
CONTINUOUS
 10
10.42500
 20
86.27100
 30
 0
 11
10.41200
 21
86.22200
  0
LINE
  8
Contour
 62
   7
 39
0.100
  6
CONTINUOUS
 10
10.41200
 20
86.22200
 30
 0
 11
10.40500
 21
86.19300
  0
LINE
  8
Contour
 62
   7
 39
0.100
  6
CONTINUOUS
 10
10.40500
 20
86.19300
 30
 0
 11
10.38100
 21
86.08600
  0
LINE
  8
Contour
 62
   7
 39
0.100
  6
CONTINUOUS
 10
10.38100
 20
86.08600
 30
 0
 11
10.37100
 21
86.03700
  0
LINE
  8
Contour
 62
   7
 39
0.100
  6
CONTINUOUS
 10
10.37100
 20
86.03700
 30
 0
 11
10.36600
 21
86.00500
  0
LINE
  8
Contour
 62
   7
 39
0.100
  6
CONTINUOUS
 10
10.36600
 20
86.00500
 30
 0
 11
10.34900
 21
85.89600
  0
LINE
  8
Contour
 62
   7
 39
0.100
  6
CONTINUOUS
 10
10.34900
 20
85.89600
 30
 0
 11
10.34000
 21
85.82900
  0
LINE
  8
Contour
 62
   7
 39
0.100
  6
CONTINUOUS
 10
10.34000
 20
85.82900
 30
 0
 11
10.32900
 21
85.72000
  0
LINE
  8
Contour
 62
   7
 39
0.100
  6
CONTINUOUS
 10
10.32900
 20
85.72000
 30
 0
 11
10.32500
 21
85.67100
  0
LINE
  8
Contour
 62
   7
 39
0.100
  6
CONTINUOUS
 10
10.32500
 20
85.67100
 30
 0
 11
10.32300
 21
85.62900
  0
LINE
  8
Contour
 62
   7
 39
0.100
  6
CONTINUOUS
 10
10.32300
 20
85.62900
 30
 0
 11
10.32000
 21
85.51900
  0
LINE
  8
Contour
 62
   7
 39
0.100
  6
CONTINUOUS
 10
10.32000
 20
85.51900
 30
 0
 11
10.32000
 21
85.45100
  0
LINE
  8
Contour
 62
   7
 39
0.100
  6
CONTINUOUS
 10
10.32000
 20
85.45100
 30
 0
 11
10.32300
 21
85.34100
  0
LINE
  8
Contour
 62
   7
 39
0.100
  6
CONTINUOUS
 10
10.32300
 20
85.34100
 30
 0
 11
10.32600
 21
85.29100
  0
LINE
  8
Contour
 62
   7
 39
0.100
  6
CONTINUOUS
 10
10.32600
 20
85.29100
 30
 0
 11
10.32900
 21
85.25000
  0
LINE
  8
Contour
 62
   7
 39
0.100
  6
CONTINUOUS
 10
10.32900
 20
85.25000
 30
 0
 11
10.34000
 21
85.14100
  0
LINE
  8
Contour
 62
   7
 39
0.100
  6
CONTINUOUS
 10
10.34000
 20
85.14100
 30
 0
 11
10.34900
 21
85.07400
  0
LINE
  8
Contour
 62
   7
 39
0.100
  6
CONTINUOUS
 10
10.34900
 20
85.07400
 30
 0
 11
10.36600
 21
84.96500
  0
LINE
  8
Contour
 62
   7
 39
0.100
  6
CONTINUOUS
 10
10.36600
 20
84.96500
 30
 0
 11
10.37500
 21
84.91500
  0
LINE
  8
Contour
 62
   7
 39
0.100
  6
CONTINUOUS
 10
10.37500
 20
84.91500
 30
 0
 11
10.38100
 21
84.88400
  0
LINE
  8
Contour
 62
   7
 39
0.100
  6
CONTINUOUS
 10
10.38100
 20
84.88400
 30
 0
 11
10.40500
 21
84.77700
  0
LINE
  8
Contour
 62
   7
 39
0.100
  6
CONTINUOUS
 10
10.40500
 20
84.77700
 30
 0
 11
10.41700
 21
84.72800
  0
LINE
  8
Contour
 62
   7
 39
0.100
  6
CONTINUOUS
 10
10.41700
 20
84.72800
 30
 0
 11
10.42500
 21
84.69900
  0
LINE
  8
Contour
 62
   7
 39
0.100
  6
CONTINUOUS
 10
10.42500
 20
84.69900
 30
 0
 11
10.45600
 21
84.59300
  0
LINE
  8
Contour
 62
   7
 39
0.100
  6
CONTINUOUS
 10
10.45600
 20
84.59300
 30
 0
 11
10.47800
 21
84.52500
  0
LINE
  8
Contour
 62
   7
 39
0.100
  6
CONTINUOUS
 10
10.47800
 20
84.52500
 30
 0
 11
10.51500
 21
84.42100
  0
LINE
  8
Contour
 62
   7
 39
0.100
  6
CONTINUOUS
 10
10.51500
 20
84.42100
 30
 0
 11
10.53300
 21
84.37500
  0
LINE
  8
Contour
 62
   7
 39
0.100
  6
CONTINUOUS
 10
10.53300
 20
84.37500
 30
 0
 11
10.54700
 21
84.34100
  0
LINE
  8
Contour
 62
   7
 39
0.100
  6
CONTINUOUS
 10
10.54700
 20
84.34100
 30
 0
 11
10.59100
 21
84.24000
  0
LINE
  8
Contour
 62
   7
 39
0.100
  6
CONTINUOUS
 10
10.59100
 20
84.24000
 30
 0
 11
10.61200
 21
84.19500
  0
LINE
  8
Contour
 62
   7
 39
0.100
  6
CONTINUOUS
 10
10.61200
 20
84.19500
 30
 0
 11
10.62300
 21
84.17100
  0
LINE
  8
Contour
 62
   7
 39
0.100
  6
CONTINUOUS
 10
10.62300
 20
84.17100
 30
 0
 11
10.67300
 21
84.07300
  0
LINE
  8
Contour
 62
   7
 39
0.100
  6
CONTINUOUS
 10
10.67300
 20
84.07300
 30
 0
 11
10.69700
 21
84.02900
  0
LINE
  8
Contour
 62
   7
 39
0.100
  6
CONTINUOUS
 10
10.69700
 20
84.02900
 30
 0
 11
10.71300
 21
84.00200
  0
LINE
  8
Contour
 62
   7
 39
0.100
  6
CONTINUOUS
 10
10.71300
 20
84.00200
 30
 0
 11
10.76900
 21
83.90800
  0
LINE
  8
Contour
 62
   7
 39
0.100
  6
CONTINUOUS
 10
10.76900
 20
83.90800
 30
 0
 11
10.80500
 21
83.85200
  0
LINE
  8
Contour
 62
   7
 39
0.100
  6
CONTINUOUS
 10
10.80500
 20
83.85200
 30
 0
 11
10.86600
 21
83.76100
  0
LINE
  8
Contour
 62
   7
 39
0.100
  6
CONTINUOUS
 10
10.86600
 20
83.76100
 30
 0
 11
10.89400
 21
83.72000
  0
LINE
  8
Contour
 62
   7
 39
0.100
  6
CONTINUOUS
 10
10.89400
 20
83.72000
 30
 0
 11
10.91900
 21
83.68700
  0
LINE
  8
Contour
 62
   7
 39
0.100
  6
CONTINUOUS
 10
10.91900
 20
83.68700
 30
 0
 11
10.98700
 21
83.60000
  0
LINE
  8
Contour
 62
   7
 39
0.100
  6
CONTINUOUS
 10
10.98700
 20
83.60000
 30
 0
 11
11.03300
 21
83.54400
  0
LINE
  8
Contour
 62
   7
 39
0.100
  6
CONTINUOUS
 10
11.03300
 20
83.54400
 30
 0
 11
11.10600
 21
83.46100
  0
LINE
  8
Contour
 62
   7
 39
0.100
  6
CONTINUOUS
 10
11.10600
 20
83.46100
 30
 0
 11
11.14000
 21
83.42400
  0
LINE
  8
Contour
 62
   7
 39
0.100
  6
CONTINUOUS
 10
11.14000
 20
83.42400
 30
 0
 11
11.23800
 21
83.32600
  0
LINE
  8
Contour
 62
   7
 39
0.100
  6
CONTINUOUS
 10
11.23800
 20
83.32600
 30
 0
 11
11.27400
 21
83.29100
  0
LINE
  8
Contour
 62
   7
 39
0.100
  6
CONTINUOUS
 10
11.27400
 20
83.29100
 30
 0
 11
11.29600
 21
83.27100
  0
LINE
  8
Contour
 62
   7
 39
0.100
  6
CONTINUOUS
 10
11.29600
 20
83.27100
 30
 0
 11
11.37900
 21
83.19800
  0
LINE
  8
Contour
 62
   7
 39
0.100
  6
CONTINUOUS
 10
11.37900
 20
83.19800
 30
 0
 11
11.43500
 21
83.15200
  0
LINE
  8
Contour
 62
   7
 39
0.100
  6
CONTINUOUS
 10
11.43500
 20
83.15200
 30
 0
 11
11.52200
 21
83.08400
  0
LINE
  8
Contour
 62
   7
 39
0.100
  6
CONTINUOUS
 10
11.52200
 20
83.08400
 30
 0
 11
11.56200
 21
83.05400
  0
LINE
  8
Contour
 62
   7
 39
0.100
  6
CONTINUOUS
 10
11.56200
 20
83.05400
 30
 0
 11
11.59600
 21
83.03100
  0
LINE
  8
Contour
 62
   7
 39
0.100
  6
CONTINUOUS
 10
11.59600
 20
83.03100
 30
 0
 11
11.68700
 21
82.97000
  0
LINE
  8
Contour
 62
   7
 39
0.100
  6
CONTINUOUS
 10
11.68700
 20
82.97000
 30
 0
 11
11.74300
 21
82.93400
  0
LINE
  8
Contour
 62
   7
 39
0.100
  6
CONTINUOUS
 10
11.74300
 20
82.93400
 30
 0
 11
11.83700
 21
82.87800
  0
LINE
  8
Contour
 62
   7
 39
0.100
  6
CONTINUOUS
 10
11.83700
 20
82.87800
 30
 0
 11
11.88000
 21
82.85300
  0
LINE
  8
Contour
 62
   7
 39
0.100
  6
CONTINUOUS
 10
11.88000
 20
82.85300
 30
 0
 11
11.90800
 21
82.83800
  0
LINE
  8
Contour
 62
   7
 39
0.100
  6
CONTINUOUS
 10
11.90800
 20
82.83800
 30
 0
 11
12.00600
 21
82.78800
  0
LINE
  8
Contour
 62
   7
 39
0.100
  6
CONTINUOUS
 10
12.00600
 20
82.78800
 30
 0
 11
12.05100
 21
82.76700
  0
LINE
  8
Contour
 62
   7
 39
0.100
  6
CONTINUOUS
 10
12.05100
 20
82.76700
 30
 0
 11
12.07500
 21
82.75600
  0
LINE
  8
Contour
 62
   7
 39
0.100
  6
CONTINUOUS
 10
12.07500
 20
82.75600
 30
 0
 11
12.17600
 21
82.71200
  0
LINE
  8
Contour
 62
   7
 39
0.100
  6
CONTINUOUS
 10
12.17600
 20
82.71200
 30
 0
 11
12.22200
 21
82.69300
  0
LINE
  8
Contour
 62
   7
 39
0.100
  6
CONTINUOUS
 10
12.22200
 20
82.69300
 30
 0
 11
12.25600
 21
82.68000
  0
LINE
  8
Contour
 62
   7
 39
0.100
  6
CONTINUOUS
 10
12.25600
 20
82.68000
 30
 0
 11
12.36000
 21
82.64300
  0
LINE
  8
Contour
 62
   7
 39
0.100
  6
CONTINUOUS
 10
12.36000
 20
82.64300
 30
 0
 11
12.42800
 21
82.62100
  0
LINE
  8
Contour
 62
   7
 39
0.100
  6
CONTINUOUS
 10
12.42800
 20
82.62100
 30
 0
 11
12.53400
 21
82.59000
  0
LINE
  8
Contour
 62
   7
 39
0.100
  6
CONTINUOUS
 10
12.53400
 20
82.59000
 30
 0
 11
12.58300
 21
82.57700
  0
LINE
  8
Contour
 62
   7
 39
0.100
  6
CONTINUOUS
 10
12.58300
 20
82.57700
 30
 0
 11
12.61200
 21
82.57000
  0
LINE
  8
Contour
 62
   7
 39
0.100
  6
CONTINUOUS
 10
12.61200
 20
82.57000
 30
 0
 11
12.71900
 21
82.54600
  0
LINE
  8
Contour
 62
   7
 39
0.100
  6
CONTINUOUS
 10
12.71900
 20
82.54600
 30
 0
 11
12.76800
 21
82.53600
  0
LINE
  8
Contour
 62
   7
 39
0.100
  6
CONTINUOUS
 10
12.76800
 20
82.53600
 30
 0
 11
12.80000
 21
82.53100
  0
LINE
  8
Contour
 62
   7
 39
0.100
  6
CONTINUOUS
 10
12.80000
 20
82.53100
 30
 0
 11
12.90900
 21
82.51400
  0
LINE
  8
Contour
 62
   7
 39
0.100
  6
CONTINUOUS
 10
12.90900
 20
82.51400
 30
 0
 11
12.97600
 21
82.50500
  0
LINE
  8
Contour
 62
   7
 39
0.100
  6
CONTINUOUS
 10
12.97600
 20
82.50500
 30
 0
 11
13.08500
 21
82.49400
  0
LINE
  8
Contour
 62
   7
 39
0.100
  6
CONTINUOUS
 10
13.08500
 20
82.49400
 30
 0
 11
13.13400
 21
82.49000
  0
LINE
  8
Contour
 62
   7
 39
0.100
  6
CONTINUOUS
 10
13.13400
 20
82.49000
 30
 0
 11
13.17600
 21
82.48800
  0
LINE
  8
Contour
 62
   7
 39
0.100
  6
CONTINUOUS
 10
13.17600
 20
82.48800
 30
 0
 11
13.28600
 21
82.48500
  0
LINE
  8
Contour
 62
   7
 39
0.100
  6
CONTINUOUS
 10
13.28600
 20
82.48500
 30
 0
 11
13.35400
 21
82.48500
  0
LINE
  8
Contour
 62
   7
 39
0.100
  6
CONTINUOUS
 10
13.35400
 20
82.48500
 30
 0
 11
13.46400
 21
82.48800
  0
CIRCLE
  8
Contour
 62
   7
 39
0.100
  6
CONTINUOUS
 10
13.32000
 20
85.48500
 30
 0
 40
1.75100
  0
LINE
  8
Contour
 62
   7
 39
0.100
  6
CONTINUOUS
 10
13.46400
 20
82.48800
 30
 0
 11
13.51400
 21
82.49100
  0
LINE
  8
Contour
 62
   7
 39
0.100
  6
CONTINUOUS
 10
13.51400
 20
82.49100
 30
 0
 11
13.55500
 21
82.49400
  0
LINE
  8
Contour
 62
   7
 39
0.100
  6
CONTINUOUS
 10
13.55500
 20
82.49400
 30
 0
 11
13.66400
 21
82.50500
  0
LINE
  8
Contour
 62
   7
 39
0.100
  6
CONTINUOUS
 10
13.66400
 20
82.50500
 30
 0
 11
13.73100
 21
82.51400
  0
LINE
  8
Contour
 62
   7
 39
0.100
  6
CONTINUOUS
 10
13.73100
 20
82.51400
 30
 0
 11
13.84000
 21
82.53100
  0
LINE
  8
Contour
 62
   7
 39
0.100
  6
CONTINUOUS
 10
13.84000
 20
82.53100
 30
 0
 11
13.89000
 21
82.54000
  0
LINE
  8
Contour
 62
   7
 39
0.100
  6
CONTINUOUS
 10
13.89000
 20
82.54000
 30
 0
 11
13.92100
 21
82.54600
  0
LINE
  8
Contour
 62
   7
 39
0.100
  6
CONTINUOUS
 10
13.92100
 20
82.54600
 30
 0
 11
14.02800
 21
82.57000
  0
LINE
  8
Contour
 62
   7
 39
0.100
  6
CONTINUOUS
 10
14.02800
 20
82.57000
 30
 0
 11
14.07700
 21
82.58200
  0
LINE
  8
Contour
 62
   7
 39
0.100
  6
CONTINUOUS
 10
14.07700
 20
82.58200
 30
 0
 11
14.10600
 21
82.59000
  0
LINE
  8
Contour
 62
   7
 39
0.100
  6
CONTINUOUS
 10
14.10600
 20
82.59000
 30
 0
 11
14.21200
 21
82.62100
  0
LINE
  8
Contour
 62
   7
 39
0.100
  6
CONTINUOUS
 10
14.21200
 20
82.62100
 30
 0
 11
14.28000
 21
82.64300
  0
LINE
  8
Contour
 62
   7
 39
0.100
  6
CONTINUOUS
 10
14.28000
 20
82.64300
 30
 0
 11
14.38400
 21
82.68000
  0
LINE
  8
Contour
 62
   7
 39
0.100
  6
CONTINUOUS
 10
14.38400
 20
82.68000
 30
 0
 11
14.43000
 21
82.69800
  0
LINE
  8
Contour
 62
   7
 39
0.100
  6
CONTINUOUS
 10
14.43000
 20
82.69800
 30
 0
 11
14.46400
 21
82.71200
  0
LINE
  8
Contour
 62
   7
 39
0.100
  6
CONTINUOUS
 10
14.46400
 20
82.71200
 30
 0
 11
14.56500
 21
82.75600
  0
LINE
  8
Contour
 62
   7
 39
0.100
  6
CONTINUOUS
 10
14.56500
 20
82.75600
 30
 0
 11
14.61000
 21
82.77700
  0
LINE
  8
Contour
 62
   7
 39
0.100
  6
CONTINUOUS
 10
14.61000
 20
82.77700
 30
 0
 11
14.63400
 21
82.78800
  0
LINE
  8
Contour
 62
   7
 39
0.100
  6
CONTINUOUS
 10
14.63400
 20
82.78800
 30
 0
 11
14.73200
 21
82.83800
  0
LINE
  8
Contour
 62
   7
 39
0.100
  6
CONTINUOUS
 10
14.73200
 20
82.83800
 30
 0
 11
14.77600
 21
82.86200
  0
LINE
  8
Contour
 62
   7
 39
0.100
  6
CONTINUOUS
 10
14.77600
 20
82.86200
 30
 0
 11
14.80300
 21
82.87800
  0
LINE
  8
Contour
 62
   7
 39
0.100
  6
CONTINUOUS
 10
14.80300
 20
82.87800
 30
 0
 11
14.89700
 21
82.93400
  0
LINE
  8
Contour
 62
   7
 39
0.100
  6
CONTINUOUS
 10
14.89700
 20
82.93400
 30
 0
 11
14.95300
 21
82.97000
  0
LINE
  8
Contour
 62
   7
 39
0.100
  6
CONTINUOUS
 10
14.95300
 20
82.97000
 30
 0
 11
15.04400
 21
83.03100
  0
LINE
  8
Contour
 62
   7
 39
0.100
  6
CONTINUOUS
 10
15.04400
 20
83.03100
 30
 0
 11
15.08500
 21
83.05900
  0
LINE
  8
Contour
 62
   7
 39
0.100
  6
CONTINUOUS
 10
15.08500
 20
83.05900
 30
 0
 11
15.11800
 21
83.08400
  0
LINE
  8
Contour
 62
   7
 39
0.100
  6
CONTINUOUS
 10
15.11800
 20
83.08400
 30
 0
 11
15.20500
 21
83.15200
  0
LINE
  8
Contour
 62
   7
 39
0.100
  6
CONTINUOUS
 10
15.20500
 20
83.15200
 30
 0
 11
15.26100
 21
83.19800
  0
LINE
  8
Contour
 62
   7
 39
0.100
  6
CONTINUOUS
 10
15.26100
 20
83.19800
 30
 0
 11
15.34400
 21
83.27100
  0
LINE
  8
Contour
 62
   7
 39
0.100
  6
CONTINUOUS
 10
15.34400
 20
83.27100
 30
 0
 11
15.38100
 21
83.30500
  0
LINE
  8
Contour
 62
   7
 39
0.100
  6
CONTINUOUS
 10
15.38100
 20
83.30500
 30
 0
 11
15.47900
 21
83.40300
  0
LINE
  8
Contour
 62
   7
 39
0.100
  6
CONTINUOUS
 10
15.47900
 20
83.40300
 30
 0
 11
15.51400
 21
83.43900
  0
LINE
  8
Contour
 62
   7
 39
0.100
  6
CONTINUOUS
 10
15.51400
 20
83.43900
 30
 0
 11
15.53400
 21
83.46100
  0
LINE
  8
Contour
 62
   7
 39
0.100
  6
CONTINUOUS
 10
15.53400
 20
83.46100
 30
 0
 11
15.60700
 21
83.54400
  0
LINE
  8
Contour
 62
   7
 39
0.100
  6
CONTINUOUS
 10
15.60700
 20
83.54400
 30
 0
 11
15.65300
 21
83.60000
  0
LINE
  8
Contour
 62
   7
 39
0.100
  6
CONTINUOUS
 10
15.65300
 20
83.60000
 30
 0
 11
15.72100
 21
83.68700
  0
LINE
  8
Contour
 62
   7
 39
0.100
  6
CONTINUOUS
 10
15.72100
 20
83.68700
 30
 0
 11
15.75100
 21
83.72700
  0
LINE
  8
Contour
 62
   7
 39
0.100
  6
CONTINUOUS
 10
15.75100
 20
83.72700
 30
 0
 11
15.77400
 21
83.76100
  0
LINE
  8
Contour
 62
   7
 39
0.100
  6
CONTINUOUS
 10
15.77400
 20
83.76100
 30
 0
 11
15.83500
 21
83.85200
  0
LINE
  8
Contour
 62
   7
 39
0.100
  6
CONTINUOUS
 10
15.83500
 20
83.85200
 30
 0
 11
15.87100
 21
83.90800
  0
LINE
  8
Contour
 62
   7
 39
0.100
  6
CONTINUOUS
 10
15.87100
 20
83.90800
 30
 0
 11
15.92700
 21
84.00200
  0
LINE
  8
Contour
 62
   7
 39
0.100
  6
CONTINUOUS
 10
15.92700
 20
84.00200
 30
 0
 11
15.95200
 21
84.04500
  0
LINE
  8
Contour
 62
   7
 39
0.100
  6
CONTINUOUS
 10
15.95200
 20
84.04500
 30
 0
 11
15.96700
 21
84.07300
  0
LINE
  8
Contour
 62
   7
 39
0.100
  6
CONTINUOUS
 10
15.96700
 20
84.07300
 30
 0
 11
16.01700
 21
84.17100
  0
LINE
  8
Contour
 62
   7
 39
0.100
  6
CONTINUOUS
 10
16.01700
 20
84.17100
 30
 0
 11
16.03800
 21
84.21600
  0
LINE
  8
Contour
 62
   7
 39
0.100
  6
CONTINUOUS
 10
16.03800
 20
84.21600
 30
 0
 11
16.04900
 21
84.24000
  0
LINE
  8
Contour
 62
   7
 39
0.100
  6
CONTINUOUS
 10
16.04900
 20
84.24000
 30
 0
 11
16.09300
 21
84.34100
  0
LINE
  8
Contour
 62
   7
 39
0.100
  6
CONTINUOUS
 10
16.09300
 20
84.34100
 30
 0
 11
16.11200
 21
84.38700
  0
LINE
  8
Contour
 62
   7
 39
0.100
  6
CONTINUOUS
 10
16.11200
 20
84.38700
 30
 0
 11
16.12500
 21
84.42100
  0
LINE
  8
Contour
 62
   7
 39
0.100
  6
CONTINUOUS
 10
16.12500
 20
84.42100
 30
 0
 11
16.16200
 21
84.52500
  0
LINE
  8
Contour
 62
   7
 39
0.100
  6
CONTINUOUS
 10
16.16200
 20
84.52500
 30
 0
 11
16.18400
 21
84.59300
  0
LINE
  8
Contour
 62
   7
 39
0.100
  6
CONTINUOUS
 10
16.18400
 20
84.59300
 30
 0
 11
16.21500
 21
84.69900
  0
LINE
  8
Contour
 62
   7
 39
0.100
  6
CONTINUOUS
 10
16.21500
 20
84.69900
 30
 0
 11
16.22800
 21
84.74800
  0
LINE
  8
Contour
 62
   7
 39
0.100
  6
CONTINUOUS
 10
16.22800
 20
84.74800
 30
 0
 11
16.23500
 21
84.77700
  0
LINE
  8
Contour
 62
   7
 39
0.100
  6
CONTINUOUS
 10
16.23500
 20
84.77700
 30
 0
 11
16.25900
 21
84.88400
  0
LINE
  8
Contour
 62
   7
 39
0.100
  6
CONTINUOUS
 10
16.25900
 20
84.88400
 30
 0
 11
16.26900
 21
84.93300
  0
LINE
  8
Contour
 62
   7
 39
0.100
  6
CONTINUOUS
 10
16.26900
 20
84.93300
 30
 0
 11
16.27400
 21
84.96500
  0
LINE
  8
Contour
 62
   7
 39
0.100
  6
CONTINUOUS
 10
16.27400
 20
84.96500
 30
 0
 11
16.29100
 21
85.07400
  0
LINE
  8
Contour
 62
   7
 39
0.100
  6
CONTINUOUS
 10
16.29100
 20
85.07400
 30
 0
 11
16.30000
 21
85.14100
  0
LINE
  8
Contour
 62
   7
 39
0.100
  6
CONTINUOUS
 10
16.30000
 20
85.14100
 30
 0
 11
16.31100
 21
85.25000
  0
LINE
  8
Contour
 62
   7
 39
0.100
  6
CONTINUOUS
 10
16.31100
 20
85.25000
 30
 0
 11
16.31500
 21
85.29900
  0
LINE
  8
Contour
 62
   7
 39
0.100
  6
CONTINUOUS
 10
16.31500
 20
85.29900
 30
 0
 11
16.31700
 21
85.34100
  0
LINE
  8
Contour
 62
   7
 39
0.100
  6
CONTINUOUS
 10
16.31700
 20
85.34100
 30
 0
 11
16.32000
 21
85.45100
  0
LINE
  8
Contour
 62
   7
 39
0.100
  6
CONTINUOUS
 10
16.32000
 20
85.45100
 30
 0
 11
16.32000
 21
85.51900
  0
LINE
  8
Contour
 62
   7
 39
0.100
  6
CONTINUOUS
 10
16.32000
 20
85.51900
 30
 0
 11
16.31700
 21
85.62900
  0
LINE
  8
Contour
 62
   7
 39
0.100
  6
CONTINUOUS
 10
16.31700
 20
85.62900
 30
 0
 11
16.31400
 21
85.67900
  0
LINE
  8
Contour
 62
   7
 39
0.100
  6
CONTINUOUS
 10
16.31400
 20
85.67900
 30
 0
 11
16.31100
 21
85.72000
  0
LINE
  8
Contour
 62
   7
 39
0.100
  6
CONTINUOUS
 10
16.31100
 20
85.72000
 30
 0
 11
16.30000
 21
85.82900
  0
LINE
  8
Contour
 62
   7
 39
0.100
  6
CONTINUOUS
 10
16.30000
 20
85.82900
 30
 0
 11
16.29100
 21
85.89600
  0
LINE
  8
Contour
 62
   7
 39
0.100
  6
CONTINUOUS
 10
16.29100
 20
85.89600
 30
 0
 11
16.27400
 21
86.00500
  0
LINE
  8
Contour
 62
   7
 39
0.100
  6
CONTINUOUS
 10
16.27400
 20
86.00500
 30
 0
 11
16.26500
 21
86.05500
  0
LINE
  8
Contour
 62
   7
 39
0.100
  6
CONTINUOUS
 10
16.26500
 20
86.05500
 30
 0
 11
16.25900
 21
86.08600
  0
LINE
  8
Contour
 62
   7
 39
0.100
  6
CONTINUOUS
 10
16.25900
 20
86.08600
 30
 0
 11
16.23500
 21
86.19300
  0
LINE
  8
Contour
 62
   7
 39
0.100
  6
CONTINUOUS
 10
16.23500
 20
86.19300
 30
 0
 11
16.22300
 21
86.24200
  0
LINE
  8
Contour
 62
   7
 39
0.100
  6
CONTINUOUS
 10
16.22300
 20
86.24200
 30
 0
 11
16.21500
 21
86.27100
  0
LINE
  8
Contour
 62
   7
 39
0.100
  6
CONTINUOUS
 10
16.21500
 20
86.27100
 30
 0
 11
16.18400
 21
86.37700
  0
LINE
  8
Contour
 62
   7
 39
0.100
  6
CONTINUOUS
 10
16.18400
 20
86.37700
 30
 0
 11
16.16200
 21
86.44500
  0
LINE
  8
Contour
 62
   7
 39
0.100
  6
CONTINUOUS
 10
16.16200
 20
86.44500
 30
 0
 11
16.12500
 21
86.54900
  0
LINE
  8
Contour
 62
   7
 39
0.100
  6
CONTINUOUS
 10
16.12500
 20
86.54900
 30
 0
 11
16.10700
 21
86.59500
  0
LINE
  8
Contour
 62
   7
 39
0.100
  6
CONTINUOUS
 10
16.10700
 20
86.59500
 30
 0
 11
16.09300
 21
86.62900
  0
LINE
  8
Contour
 62
   7
 39
0.100
  6
CONTINUOUS
 10
16.09300
 20
86.62900
 30
 0
 11
16.04900
 21
86.73000
  0
LINE
  8
Contour
 62
   7
 39
0.100
  6
CONTINUOUS
 10
16.04900
 20
86.73000
 30
 0
 11
16.02800
 21
86.77500
  0
LINE
  8
Contour
 62
   7
 39
0.100
  6
CONTINUOUS
 10
16.02800
 20
86.77500
 30
 0
 11
16.01700
 21
86.79900
  0
LINE
  8
Contour
 62
   7
 39
0.100
  6
CONTINUOUS
 10
16.01700
 20
86.79900
 30
 0
 11
15.96700
 21
86.89700
  0
LINE
  8
Contour
 62
   7
 39
0.100
  6
CONTINUOUS
 10
15.96700
 20
86.89700
 30
 0
 11
15.94300
 21
86.94100
  0
LINE
  8
Contour
 62
   7
 39
0.100
  6
CONTINUOUS
 10
15.94300
 20
86.94100
 30
 0
 11
15.92700
 21
86.96800
  0
LINE
  8
Contour
 62
   7
 39
0.100
  6
CONTINUOUS
 10
15.92700
 20
86.96800
 30
 0
 11
15.87100
 21
87.06200
  0
LINE
  8
Contour
 62
   7
 39
0.100
  6
CONTINUOUS
 10
15.87100
 20
87.06200
 30
 0
 11
15.83500
 21
87.11800
  0
LINE
  8
Contour
 62
   7
 39
0.100
  6
CONTINUOUS
 10
15.83500
 20
87.11800
 30
 0
 11
15.77400
 21
87.20900
  0
LINE
  8
Contour
 62
   7
 39
0.100
  6
CONTINUOUS
 10
15.77400
 20
87.20900
 30
 0
 11
15.74600
 21
87.25000
  0
LINE
  8
Contour
 62
   7
 39
0.100
  6
CONTINUOUS
 10
15.74600
 20
87.25000
 30
 0
 11
15.72100
 21
87.28300
  0
LINE
  8
Contour
 62
   7
 39
0.100
  6
CONTINUOUS
 10
15.72100
 20
87.28300
 30
 0
 11
15.65300
 21
87.37000
  0
LINE
  8
Contour
 62
   7
 39
0.100
  6
CONTINUOUS
 10
15.65300
 20
87.37000
 30
 0
 11
15.60700
 21
87.42600
  0
LINE
  8
Contour
 62
   7
 39
0.100
  6
CONTINUOUS
 10
15.60700
 20
87.42600
 30
 0
 11
15.53400
 21
87.50900
  0
LINE
  8
Contour
 62
   7
 39
0.100
  6
CONTINUOUS
 10
15.53400
 20
87.50900
 30
 0
 11
15.50000
 21
87.54600
  0
LINE
  8
Contour
 62
   7
 39
0.100
  6
CONTINUOUS
 10
15.50000
 20
87.54600
 30
 0
 11
15.40200
 21
87.64400
  0
LINE
  8
Contour
 62
   7
 39
0.100
  6
CONTINUOUS
 10
15.40200
 20
87.64400
 30
 0
 11
15.36600
 21
87.67900
  0
LINE
  8
Contour
 62
   7
 39
0.100
  6
CONTINUOUS
 10
15.36600
 20
87.67900
 30
 0
 11
15.34400
 21
87.69900
  0
LINE
  8
Contour
 62
   7
 39
0.100
  6
CONTINUOUS
 10
15.34400
 20
87.69900
 30
 0
 11
15.26100
 21
87.77200
  0
LINE
  8
Contour
 62
   7
 39
0.100
  6
CONTINUOUS
 10
15.26100
 20
87.77200
 30
 0
 11
15.20500
 21
87.81800
  0
LINE
  8
Contour
 62
   7
 39
0.100
  6
CONTINUOUS
 10
15.20500
 20
87.81800
 30
 0
 11
15.11800
 21
87.88600
  0
LINE
  8
Contour
 62
   7
 39
0.100
  6
CONTINUOUS
 10
15.11800
 20
87.88600
 30
 0
 11
15.07800
 21
87.91600
  0
LINE
  8
Contour
 62
   7
 39
0.100
  6
CONTINUOUS
 10
15.07800
 20
87.91600
 30
 0
 11
15.04400
 21
87.93900
  0
LINE
  8
Contour
 62
   7
 39
0.100
  6
CONTINUOUS
 10
15.04400
 20
87.93900
 30
 0
 11
14.95300
 21
88.00000
  0
LINE
  8
Contour
 62
   7
 39
0.100
  6
CONTINUOUS
 10
14.95300
 20
88.00000
 30
 0
 11
14.89700
 21
88.03600
  0
LINE
  8
Contour
 62
   7
 39
0.100
  6
CONTINUOUS
 10
14.89700
 20
88.03600
 30
 0
 11
14.80300
 21
88.09200
  0
LINE
  8
Contour
 62
   7
 39
0.100
  6
CONTINUOUS
 10
14.80300
 20
88.09200
 30
 0
 11
14.76000
 21
88.11700
  0
LINE
  8
Contour
 62
   7
 39
0.100
  6
CONTINUOUS
 10
14.76000
 20
88.11700
 30
 0
 11
14.73200
 21
88.13200
  0
LINE
  8
Contour
 62
   7
 39
0.100
  6
CONTINUOUS
 10
14.73200
 20
88.13200
 30
 0
 11
14.63400
 21
88.18200
  0
LINE
  8
Contour
 62
   7
 39
0.100
  6
CONTINUOUS
 10
14.63400
 20
88.18200
 30
 0
 11
14.58900
 21
88.20300
  0
LINE
  8
Contour
 62
   7
 39
0.100
  6
CONTINUOUS
 10
14.58900
 20
88.20300
 30
 0
 11
14.56500
 21
88.21400
  0
LINE
  8
Contour
 62
   7
 39
0.100
  6
CONTINUOUS
 10
14.56500
 20
88.21400
 30
 0
 11
14.46400
 21
88.25800
  0
LINE
  8
Contour
 62
   7
 39
0.100
  6
CONTINUOUS
 10
14.46400
 20
88.25800
 30
 0
 11
14.41800
 21
88.27700
  0
LINE
  8
Contour
 62
   7
 39
0.100
  6
CONTINUOUS
 10
14.41800
 20
88.27700
 30
 0
 11
14.38400
 21
88.29000
  0
LINE
  8
Contour
 62
   7
 39
0.100
  6
CONTINUOUS
 10
14.38400
 20
88.29000
 30
 0
 11
14.28000
 21
88.32700
  0
LINE
  8
Contour
 62
   7
 39
0.100
  6
CONTINUOUS
 10
14.28000
 20
88.32700
 30
 0
 11
14.21200
 21
88.34900
  0
LINE
  8
Contour
 62
   7
 39
0.100
  6
CONTINUOUS
 10
14.21200
 20
88.34900
 30
 0
 11
14.10600
 21
88.38000
  0
LINE
  8
Contour
 62
   7
 39
0.100
  6
CONTINUOUS
 10
14.10600
 20
88.38000
 30
 0
 11
14.05700
 21
88.39300
  0
LINE
  8
Contour
 62
   7
 39
0.100
  6
CONTINUOUS
 10
14.05700
 20
88.39300
 30
 0
 11
14.02800
 21
88.40000
  0
LINE
  8
Contour
 62
   7
 39
0.100
  6
CONTINUOUS
 10
14.02800
 20
88.40000
 30
 0
 11
13.92100
 21
88.42400
  0
LINE
  8
Contour
 62
   7
 39
0.100
  6
CONTINUOUS
 10
13.92100
 20
88.42400
 30
 0
 11
13.87200
 21
88.43400
  0
LINE
  8
Contour
 62
   7
 39
0.100
  6
CONTINUOUS
 10
13.87200
 20
88.43400
 30
 0
 11
13.84000
 21
88.43900
  0
LINE
  8
Contour
 62
   7
 39
0.100
  6
CONTINUOUS
 10
13.84000
 20
88.43900
 30
 0
 11
13.73100
 21
88.45600
  0
LINE
  8
Contour
 62
   7
 39
0.100
  6
CONTINUOUS
 10
13.73100
 20
88.45600
 30
 0
 11
13.66400
 21
88.46500
  0
LINE
  8
Contour
 62
   7
 39
0.100
  6
CONTINUOUS
 10
13.66400
 20
88.46500
 30
 0
 11
13.55500
 21
88.47600
  0
LINE
  8
Contour
 62
   7
 39
0.100
  6
CONTINUOUS
 10
13.55500
 20
88.47600
 30
 0
 11
13.50600
 21
88.48000
  0
LINE
  8
Contour
 62
   7
 39
0.100
  6
CONTINUOUS
 10
13.50600
 20
88.48000
 30
 0
 11
13.46400
 21
88.48200
  0
LINE
  8
Contour
 62
   7
 39
0.100
  6
CONTINUOUS
 10
13.46400
 20
88.48200
 30
 0
 11
13.35400
 21
88.48500
  0
LINE
  8
Contour
 62
   7
 39
0.100
  6
CONTINUOUS
 10
13.35400
 20
88.48500
 30
 0
 11
13.28600
 21
88.48500
  0
LINE
  8
Contour
 62
   7
 39
0.100
  6
CONTINUOUS
 10
13.28600
 20
88.48500
 30
 0
 11
13.17600
 21
88.48200
  0
LINE
  8
Contour
 62
   7
 39
0.100
  6
CONTINUOUS
 10
13.17600
 20
88.48200
 30
 0
 11
13.12600
 21
88.47900
  0
LINE
  8
Contour
 62
   7
 39
0.100
  6
CONTINUOUS
 10
13.12600
 20
88.47900
 30
 0
 11
13.08500
 21
88.47600
  0
LINE
  8
Contour
 62
   7
 39
0.100
  6
CONTINUOUS
 10
13.08500
 20
88.47600
 30
 0
 11
12.97600
 21
88.46500
  0
LINE
  8
Contour
 62
   7
 39
0.100
  6
CONTINUOUS
 10
12.97600
 20
88.46500
 30
 0
 11
12.90900
 21
88.45600
  0
LINE
  8
Contour
 62
   7
 39
0.100
  6
CONTINUOUS
 10
12.90900
 20
88.45600
 30
 0
 11
12.80000
 21
88.43900
  0
LINE
  8
Contour
 62
   7
 39
0.100
  6
CONTINUOUS
 10
12.80000
 20
88.43900
 30
 0
 11
12.75000
 21
88.43000
  0
LINE
  8
Contour
 62
   7
 39
0.100
  6
CONTINUOUS
 10
12.75000
 20
88.43000
 30
 0
 11
12.71900
 21
88.42400
  0
LINE
  8
Contour
 62
   7
 39
0.100
  6
CONTINUOUS
 10
12.71900
 20
88.42400
 30
 0
 11
12.61200
 21
88.40000
  0
LINE
  8
Contour
 62
   7
 39
0.100
  6
CONTINUOUS
 10
12.61200
 20
88.40000
 30
 0
 11
12.56300
 21
88.38800
  0
LINE
  8
Contour
 62
   7
 39
0.100
  6
CONTINUOUS
 10
12.56300
 20
88.38800
 30
 0
 11
12.53400
 21
88.38000
  0
LINE
  8
Contour
 62
   7
 39
0.100
  6
CONTINUOUS
 10
12.53400
 20
88.38000
 30
 0
 11
12.42800
 21
88.34900
  0
LINE
  8
Contour
 62
   7
 39
0.100
  6
CONTINUOUS
 10
12.42800
 20
88.34900
 30
 0
 11
12.36000
 21
88.32700
  0
LINE
  8
Contour
 62
   7
 39
0.100
  6
CONTINUOUS
 10
12.36000
 20
88.32700
 30
 0
 11
12.25600
 21
88.29000
  0
LINE
  8
Contour
 62
   7
 39
0.100
  6
CONTINUOUS
 10
12.25600
 20
88.29000
 30
 0
 11
12.21000
 21
88.27200
  0
LINE
  8
Contour
 62
   7
 39
0.100
  6
CONTINUOUS
 10
12.21000
 20
88.27200
 30
 0
 11
12.17600
 21
88.25800
  0
LINE
  8
Contour
 62
   7
 39
0.100
  6
CONTINUOUS
 10
12.17600
 20
88.25800
 30
 0
 11
12.07500
 21
88.21400
  0
LINE
  8
Contour
 62
   7
 39
0.100
  6
CONTINUOUS
 10
12.07500
 20
88.21400
 30
 0
 11
12.03000
 21
88.19300
  0
LINE
  8
Contour
 62
   7
 39
0.100
  6
CONTINUOUS
 10
12.03000
 20
88.19300
 30
 0
 11
12.00600
 21
88.18200
  0
LINE
  8
Contour
 62
   7
 39
0.100
  6
CONTINUOUS
 10
12.00600
 20
88.18200
 30
 0
 11
11.90800
 21
88.13200
  0
LINE
  8
Contour
 62
   7
 39
0.100
  6
CONTINUOUS
 10
11.90800
 20
88.13200
 30
 0
 11
11.86400
 21
88.10800
  0
LINE
  8
Contour
 62
   7
 39
0.100
  6
CONTINUOUS
 10
11.86400
 20
88.10800
 30
 0
 11
11.83700
 21
88.09200
  0
LINE
  8
Contour
 62
   7
 39
0.100
  6
CONTINUOUS
 10
11.83700
 20
88.09200
 30
 0
 11
11.74300
 21
88.03600
  0
LINE
  8
Contour
 62
   7
 39
0.100
  6
CONTINUOUS
 10
11.74300
 20
88.03600
 30
 0
 11
11.68700
 21
88.00000
  0
LINE
  8
Contour
 62
   7
 39
0.100
  6
CONTINUOUS
 10
11.68700
 20
88.00000
 30
 0
 11
11.59600
 21
87.93900
  0
LINE
  8
Contour
 62
   7
 39
0.100
  6
CONTINUOUS
 10
11.59600
 20
87.93900
 30
 0
 11
11.55500
 21
87.91100
  0
LINE
  8
Contour
 62
   7
 39
0.100
  6
CONTINUOUS
 10
11.55500
 20
87.91100
 30
 0
 11
11.52200
 21
87.88600
  0
LINE
  8
Contour
 62
   7
 39
0.100
  6
CONTINUOUS
 10
11.52200
 20
87.88600
 30
 0
 11
11.43500
 21
87.81800
  0
LINE
  8
Contour
 62
   7
 39
0.100
  6
CONTINUOUS
 10
11.43500
 20
87.81800
 30
 0
 11
11.37900
 21
87.77200
  0
LINE
  8
Contour
 62
   7
 39
0.100
  6
CONTINUOUS
 10
11.37900
 20
87.77200
 30
 0
 11
11.29600
 21
87.69900
  0
LINE
  8
Contour
 62
   7
 39
0.100
  6
CONTINUOUS
 10
11.29600
 20
87.69900
 30
 0
 11
11.25900
 21
87.66500
  0
LINE
  8
Contour
 62
   7
 39
0.100
  6
CONTINUOUS
 10
11.25900
 20
87.66500
 30
 0
 11
11.16100
 21
87.56700
  0
LINE
  8
Contour
 62
   7
 39
0.100
  6
CONTINUOUS
 10
11.16100
 20
87.56700
 30
 0
 11
11.12600
 21
87.53100
  0
LINE
  8
Contour
 62
   7
 39
0.100
  6
CONTINUOUS
 10
11.12600
 20
87.53100
 30
 0
 11
11.10600
 21
87.50900
  0
LINE
  8
Contour
 62
   7
 39
0.100
  6
CONTINUOUS
 10
11.10600
 20
87.50900
 30
 0
 11
11.03300
 21
87.42600
  0
LINE
  8
Contour
 62
   7
 39
0.100
  6
CONTINUOUS
 10
11.03300
 20
87.42600
 30
 0
 11
10.98700
 21
87.37000
  0
LINE
  8
Contour
 62
   7
 39
0.100
  6
CONTINUOUS
 10
10.98700
 20
87.37000
 30
 0
 11
10.91900
 21
87.28300
  0
LINE
  8
Contour
 62
   7
 39
0.100
  6
CONTINUOUS
 10
10.91900
 20
87.28300
 30
 0
 11
10.88900
 21
87.24300
  0
LINE
  8
Contour
 62
   7
 39
0.100
  6
CONTINUOUS
 10
10.88900
 20
87.24300
 30
 0
 11
10.86600
 21
87.20900
  0
LINE
  8
Contour
 62
   7
 39
0.100
  6
CONTINUOUS
 10
10.86600
 20
87.20900
 30
 0
 11
10.80500
 21
87.11800
  0
LINE
  8
Contour
 62
   7
 39
0.100
  6
CONTINUOUS
 10
10.80500
 20
87.11800
 30
 0
 11
10.76900
 21
87.06200
  0
LINE
  8
Contour
 62
   7
 39
0.100
  6
CONTINUOUS
 10
10.76900
 20
87.06200
 30
 0
 11
10.71300
 21
86.96800
  0
LINE
  8
Contour
 62
   7
 39
0.100
  6
CONTINUOUS
 10
10.71300
 20
86.96800
 30
 0
 11
10.68800
 21
86.92500
  0
LINE
  8
Contour
 62
   7
 39
0.100
  6
CONTINUOUS
 10
10.68800
 20
86.92500
 30
 0
 11
10.67300
 21
86.89700
  0
LINE
  8
Contour
 62
   7
 39
0.100
  6
CONTINUOUS
 10
10.67300
 20
86.89700
 30
 0
 11
10.62300
 21
86.79900
  0
LINE
  8
Contour
 62
   7
 39
0.100
  6
CONTINUOUS
 10
10.62300
 20
86.79900
 30
 0
 11
10.60200
 21
86.75400
  0
LINE
  8
Contour
 62
   7
 39
0.100
  6
CONTINUOUS
 10
10.60200
 20
86.75400
 30
 0
 11
10.59100
 21
86.73000
  0
LINE
  8
Contour
 62
   7
 39
0.100
  6
CONTINUOUS
 10
10.59100
 20
86.73000
 30
 0
 11
10.54700
 21
86.62900
  0
LINE
  8
Contour
 62
   7
 39
0.100
  6
CONTINUOUS
 10
10.54700
 20
86.62900
 30
 0
 11
10.52800
 21
86.58300
  0
LINE
  8
Contour
 62
   7
 39
0.100
  6
CONTINUOUS
 10
10.52800
 20
86.58300
 30
 0
 11
10.51500
 21
86.54900
  0
LINE
  8
Contour
 62
   7
 39
0.100
  6
CONTINUOUS
 10
10.51500
 20
86.54900
 30
 0
 11
10.47800
 21
86.44500
  0
LINE
  8
Contour
 62
   7
 39
0.100
  6
CONTINUOUS
 10
10.47800
 20
86.44500
 30
 0
 11
10.45600
 21
86.37700
  0
LINE
  8
Contour
 62
   7
 39
0.100
  6
CONTINUOUS
 10
10.45600
 20
86.37700
 30
 0
 11
10.42500
 21
86.27100
  0
LINE
  8
Contour
 62
   7
 39
0.100
  6
CONTINUOUS
 10
10.42500
 20
86.27100
 30
 0
 11
10.41200
 21
86.22200
  0
LINE
  8
Contour
 62
   7
 39
0.100
  6
CONTINUOUS
 10
10.41200
 20
86.22200
 30
 0
 11
10.40500
 21
86.19300
  0
LINE
  8
Contour
 62
   7
 39
0.100
  6
CONTINUOUS
 10
10.40500
 20
86.19300
 30
 0
 11
10.38100
 21
86.08600
  0
LINE
  8
Contour
 62
   7
 39
0.100
  6
CONTINUOUS
 10
10.38100
 20
86.08600
 30
 0
 11
10.37100
 21
86.03700
  0
LINE
  8
Contour
 62
   7
 39
0.100
  6
CONTINUOUS
 10
10.37100
 20
86.03700
 30
 0
 11
10.36600
 21
86.00500
  0
LINE
  8
Contour
 62
   7
 39
0.100
  6
CONTINUOUS
 10
10.36600
 20
86.00500
 30
 0
 11
10.34900
 21
85.89600
  0
LINE
  8
Contour
 62
   7
 39
0.100
  6
CONTINUOUS
 10
10.34900
 20
85.89600
 30
 0
 11
10.34000
 21
85.82900
  0
LINE
  8
Contour
 62
   7
 39
0.100
  6
CONTINUOUS
 10
10.34000
 20
85.82900
 30
 0
 11
10.32900
 21
85.72000
  0
LINE
  8
Contour
 62
   7
 39
0.100
  6
CONTINUOUS
 10
10.32900
 20
85.72000
 30
 0
 11
10.32500
 21
85.67100
  0
LINE
  8
Contour
 62
   7
 39
0.100
  6
CONTINUOUS
 10
10.32500
 20
85.67100
 30
 0
 11
10.32300
 21
85.62900
  0
LINE
  8
Contour
 62
   7
 39
0.100
  6
CONTINUOUS
 10
10.32300
 20
85.62900
 30
 0
 11
10.32000
 21
85.51900
  0
LINE
  8
Contour
 62
   7
 39
0.100
  6
CONTINUOUS
 10
10.32000
 20
85.51900
 30
 0
 11
10.32000
 21
85.45100
  0
LINE
  8
Contour
 62
   7
 39
0.100
  6
CONTINUOUS
 10
10.32000
 20
85.45100
 30
 0
 11
10.32300
 21
85.34100
  0
LINE
  8
Contour
 62
   7
 39
0.100
  6
CONTINUOUS
 10
10.32300
 20
85.34100
 30
 0
 11
10.32600
 21
85.29100
  0
LINE
  8
Contour
 62
   7
 39
0.100
  6
CONTINUOUS
 10
10.32600
 20
85.29100
 30
 0
 11
10.32900
 21
85.25000
  0
LINE
  8
Contour
 62
   7
 39
0.100
  6
CONTINUOUS
 10
10.32900
 20
85.25000
 30
 0
 11
10.34000
 21
85.14100
  0
LINE
  8
Contour
 62
   7
 39
0.100
  6
CONTINUOUS
 10
10.34000
 20
85.14100
 30
 0
 11
10.34900
 21
85.07400
  0
LINE
  8
Contour
 62
   7
 39
0.100
  6
CONTINUOUS
 10
10.34900
 20
85.07400
 30
 0
 11
10.36600
 21
84.96500
  0
LINE
  8
Contour
 62
   7
 39
0.100
  6
CONTINUOUS
 10
10.36600
 20
84.96500
 30
 0
 11
10.37500
 21
84.91500
  0
LINE
  8
Contour
 62
   7
 39
0.100
  6
CONTINUOUS
 10
10.37500
 20
84.91500
 30
 0
 11
10.38100
 21
84.88400
  0
LINE
  8
Contour
 62
   7
 39
0.100
  6
CONTINUOUS
 10
10.38100
 20
84.88400
 30
 0
 11
10.40500
 21
84.77700
  0
LINE
  8
Contour
 62
   7
 39
0.100
  6
CONTINUOUS
 10
10.40500
 20
84.77700
 30
 0
 11
10.41700
 21
84.72800
  0
LINE
  8
Contour
 62
   7
 39
0.100
  6
CONTINUOUS
 10
10.41700
 20
84.72800
 30
 0
 11
10.42500
 21
84.69900
  0
LINE
  8
Contour
 62
   7
 39
0.100
  6
CONTINUOUS
 10
10.42500
 20
84.69900
 30
 0
 11
10.45600
 21
84.59300
  0
LINE
  8
Contour
 62
   7
 39
0.100
  6
CONTINUOUS
 10
10.45600
 20
84.59300
 30
 0
 11
10.47800
 21
84.52500
  0
LINE
  8
Contour
 62
   7
 39
0.100
  6
CONTINUOUS
 10
10.47800
 20
84.52500
 30
 0
 11
10.51500
 21
84.42100
  0
LINE
  8
Contour
 62
   7
 39
0.100
  6
CONTINUOUS
 10
10.51500
 20
84.42100
 30
 0
 11
10.53300
 21
84.37500
  0
LINE
  8
Contour
 62
   7
 39
0.100
  6
CONTINUOUS
 10
10.53300
 20
84.37500
 30
 0
 11
10.54700
 21
84.34100
  0
LINE
  8
Contour
 62
   7
 39
0.100
  6
CONTINUOUS
 10
10.54700
 20
84.34100
 30
 0
 11
10.59100
 21
84.24000
  0
LINE
  8
Contour
 62
   7
 39
0.100
  6
CONTINUOUS
 10
10.59100
 20
84.24000
 30
 0
 11
10.61200
 21
84.19500
  0
LINE
  8
Contour
 62
   7
 39
0.100
  6
CONTINUOUS
 10
10.61200
 20
84.19500
 30
 0
 11
10.62300
 21
84.17100
  0
LINE
  8
Contour
 62
   7
 39
0.100
  6
CONTINUOUS
 10
10.62300
 20
84.17100
 30
 0
 11
10.67300
 21
84.07300
  0
LINE
  8
Contour
 62
   7
 39
0.100
  6
CONTINUOUS
 10
10.67300
 20
84.07300
 30
 0
 11
10.69700
 21
84.02900
  0
LINE
  8
Contour
 62
   7
 39
0.100
  6
CONTINUOUS
 10
10.69700
 20
84.02900
 30
 0
 11
10.71300
 21
84.00200
  0
LINE
  8
Contour
 62
   7
 39
0.100
  6
CONTINUOUS
 10
10.71300
 20
84.00200
 30
 0
 11
10.76900
 21
83.90800
  0
LINE
  8
Contour
 62
   7
 39
0.100
  6
CONTINUOUS
 10
10.76900
 20
83.90800
 30
 0
 11
10.80500
 21
83.85200
  0
LINE
  8
Contour
 62
   7
 39
0.100
  6
CONTINUOUS
 10
10.80500
 20
83.85200
 30
 0
 11
10.86600
 21
83.76100
  0
LINE
  8
Contour
 62
   7
 39
0.100
  6
CONTINUOUS
 10
10.86600
 20
83.76100
 30
 0
 11
10.89400
 21
83.72000
  0
LINE
  8
Contour
 62
   7
 39
0.100
  6
CONTINUOUS
 10
10.89400
 20
83.72000
 30
 0
 11
10.91900
 21
83.68700
  0
LINE
  8
Contour
 62
   7
 39
0.100
  6
CONTINUOUS
 10
10.91900
 20
83.68700
 30
 0
 11
10.98700
 21
83.60000
  0
LINE
  8
Contour
 62
   7
 39
0.100
  6
CONTINUOUS
 10
10.98700
 20
83.60000
 30
 0
 11
11.03300
 21
83.54400
  0
LINE
  8
Contour
 62
   7
 39
0.100
  6
CONTINUOUS
 10
11.03300
 20
83.54400
 30
 0
 11
11.10600
 21
83.46100
  0
LINE
  8
Contour
 62
   7
 39
0.100
  6
CONTINUOUS
 10
11.10600
 20
83.46100
 30
 0
 11
11.14000
 21
83.42400
  0
LINE
  8
Contour
 62
   7
 39
0.100
  6
CONTINUOUS
 10
11.14000
 20
83.42400
 30
 0
 11
11.23800
 21
83.32600
  0
LINE
  8
Contour
 62
   7
 39
0.100
  6
CONTINUOUS
 10
11.23800
 20
83.32600
 30
 0
 11
11.27400
 21
83.29100
  0
LINE
  8
Contour
 62
   7
 39
0.100
  6
CONTINUOUS
 10
11.27400
 20
83.29100
 30
 0
 11
11.29600
 21
83.27100
  0
LINE
  8
Contour
 62
   7
 39
0.100
  6
CONTINUOUS
 10
11.29600
 20
83.27100
 30
 0
 11
11.37900
 21
83.19800
  0
LINE
  8
Contour
 62
   7
 39
0.100
  6
CONTINUOUS
 10
11.37900
 20
83.19800
 30
 0
 11
11.43500
 21
83.15200
  0
LINE
  8
Contour
 62
   7
 39
0.100
  6
CONTINUOUS
 10
11.43500
 20
83.15200
 30
 0
 11
11.52200
 21
83.08400
  0
LINE
  8
Contour
 62
   7
 39
0.100
  6
CONTINUOUS
 10
11.52200
 20
83.08400
 30
 0
 11
11.56200
 21
83.05400
  0
LINE
  8
Contour
 62
   7
 39
0.100
  6
CONTINUOUS
 10
11.56200
 20
83.05400
 30
 0
 11
11.59600
 21
83.03100
  0
LINE
  8
Contour
 62
   7
 39
0.100
  6
CONTINUOUS
 10
11.59600
 20
83.03100
 30
 0
 11
11.68700
 21
82.97000
  0
LINE
  8
Contour
 62
   7
 39
0.100
  6
CONTINUOUS
 10
11.68700
 20
82.97000
 30
 0
 11
11.74300
 21
82.93400
  0
LINE
  8
Contour
 62
   7
 39
0.100
  6
CONTINUOUS
 10
11.74300
 20
82.93400
 30
 0
 11
11.83700
 21
82.87800
  0
LINE
  8
Contour
 62
   7
 39
0.100
  6
CONTINUOUS
 10
11.83700
 20
82.87800
 30
 0
 11
11.88000
 21
82.85300
  0
LINE
  8
Contour
 62
   7
 39
0.100
  6
CONTINUOUS
 10
11.88000
 20
82.85300
 30
 0
 11
11.90800
 21
82.83800
  0
LINE
  8
Contour
 62
   7
 39
0.100
  6
CONTINUOUS
 10
11.90800
 20
82.83800
 30
 0
 11
12.00600
 21
82.78800
  0
LINE
  8
Contour
 62
   7
 39
0.100
  6
CONTINUOUS
 10
12.00600
 20
82.78800
 30
 0
 11
12.05100
 21
82.76700
  0
LINE
  8
Contour
 62
   7
 39
0.100
  6
CONTINUOUS
 10
12.05100
 20
82.76700
 30
 0
 11
12.07500
 21
82.75600
  0
LINE
  8
Contour
 62
   7
 39
0.100
  6
CONTINUOUS
 10
12.07500
 20
82.75600
 30
 0
 11
12.17600
 21
82.71200
  0
LINE
  8
Contour
 62
   7
 39
0.100
  6
CONTINUOUS
 10
12.17600
 20
82.71200
 30
 0
 11
12.22200
 21
82.69300
  0
LINE
  8
Contour
 62
   7
 39
0.100
  6
CONTINUOUS
 10
12.22200
 20
82.69300
 30
 0
 11
12.25600
 21
82.68000
  0
LINE
  8
Contour
 62
   7
 39
0.100
  6
CONTINUOUS
 10
12.25600
 20
82.68000
 30
 0
 11
12.36000
 21
82.64300
  0
LINE
  8
Contour
 62
   7
 39
0.100
  6
CONTINUOUS
 10
12.36000
 20
82.64300
 30
 0
 11
12.42800
 21
82.62100
  0
LINE
  8
Contour
 62
   7
 39
0.100
  6
CONTINUOUS
 10
12.42800
 20
82.62100
 30
 0
 11
12.53400
 21
82.59000
  0
LINE
  8
Contour
 62
   7
 39
0.100
  6
CONTINUOUS
 10
12.53400
 20
82.59000
 30
 0
 11
12.58300
 21
82.57700
  0
LINE
  8
Contour
 62
   7
 39
0.100
  6
CONTINUOUS
 10
12.58300
 20
82.57700
 30
 0
 11
12.61200
 21
82.57000
  0
LINE
  8
Contour
 62
   7
 39
0.100
  6
CONTINUOUS
 10
12.61200
 20
82.57000
 30
 0
 11
12.71900
 21
82.54600
  0
LINE
  8
Contour
 62
   7
 39
0.100
  6
CONTINUOUS
 10
12.71900
 20
82.54600
 30
 0
 11
12.76800
 21
82.53600
  0
LINE
  8
Contour
 62
   7
 39
0.100
  6
CONTINUOUS
 10
12.76800
 20
82.53600
 30
 0
 11
12.80000
 21
82.53100
  0
LINE
  8
Contour
 62
   7
 39
0.100
  6
CONTINUOUS
 10
12.80000
 20
82.53100
 30
 0
 11
12.90900
 21
82.51400
  0
LINE
  8
Contour
 62
   7
 39
0.100
  6
CONTINUOUS
 10
12.90900
 20
82.51400
 30
 0
 11
12.97600
 21
82.50500
  0
LINE
  8
Contour
 62
   7
 39
0.100
  6
CONTINUOUS
 10
12.97600
 20
82.50500
 30
 0
 11
13.08500
 21
82.49400
  0
LINE
  8
Contour
 62
   7
 39
0.100
  6
CONTINUOUS
 10
13.08500
 20
82.49400
 30
 0
 11
13.13400
 21
82.49000
  0
LINE
  8
Contour
 62
   7
 39
0.100
  6
CONTINUOUS
 10
13.13400
 20
82.49000
 30
 0
 11
13.17600
 21
82.48800
  0
LINE
  8
Contour
 62
   7
 39
0.100
  6
CONTINUOUS
 10
13.17600
 20
82.48800
 30
 0
 11
13.28600
 21
82.48500
  0
LINE
  8
Contour
 62
   7
 39
0.100
  6
CONTINUOUS
 10
13.28600
 20
82.48500
 30
 0
 11
13.35400
 21
82.48500
  0
LINE
  8
Contour
 62
   7
 39
0.100
  6
CONTINUOUS
 10
13.35400
 20
82.48500
 30
 0
 11
13.46400
 21
82.48800
  0
CIRCLE
  8
Contour
 62
   7
 39
0.100
  6
CONTINUOUS
 10
13.32000
 20
85.48500
 30
 0
 40
1.75100
  0
LINE
  8
Contour
 62
   7
 39
0.100
  6
CONTINUOUS
 10
42.46400
 20
82.48800
 30
 0
 11
42.51400
 21
82.49100
  0
LINE
  8
Contour
 62
   7
 39
0.100
  6
CONTINUOUS
 10
42.51400
 20
82.49100
 30
 0
 11
42.55500
 21
82.49400
  0
LINE
  8
Contour
 62
   7
 39
0.100
  6
CONTINUOUS
 10
42.55500
 20
82.49400
 30
 0
 11
42.66400
 21
82.50500
  0
LINE
  8
Contour
 62
   7
 39
0.100
  6
CONTINUOUS
 10
42.66400
 20
82.50500
 30
 0
 11
42.73100
 21
82.51400
  0
LINE
  8
Contour
 62
   7
 39
0.100
  6
CONTINUOUS
 10
42.73100
 20
82.51400
 30
 0
 11
42.84000
 21
82.53100
  0
LINE
  8
Contour
 62
   7
 39
0.100
  6
CONTINUOUS
 10
42.84000
 20
82.53100
 30
 0
 11
42.89000
 21
82.54000
  0
LINE
  8
Contour
 62
   7
 39
0.100
  6
CONTINUOUS
 10
42.89000
 20
82.54000
 30
 0
 11
42.92100
 21
82.54600
  0
LINE
  8
Contour
 62
   7
 39
0.100
  6
CONTINUOUS
 10
42.92100
 20
82.54600
 30
 0
 11
43.02800
 21
82.57000
  0
LINE
  8
Contour
 62
   7
 39
0.100
  6
CONTINUOUS
 10
43.02800
 20
82.57000
 30
 0
 11
43.07700
 21
82.58200
  0
LINE
  8
Contour
 62
   7
 39
0.100
  6
CONTINUOUS
 10
43.07700
 20
82.58200
 30
 0
 11
43.10600
 21
82.59000
  0
LINE
  8
Contour
 62
   7
 39
0.100
  6
CONTINUOUS
 10
43.10600
 20
82.59000
 30
 0
 11
43.21200
 21
82.62100
  0
LINE
  8
Contour
 62
   7
 39
0.100
  6
CONTINUOUS
 10
43.21200
 20
82.62100
 30
 0
 11
43.28000
 21
82.64300
  0
LINE
  8
Contour
 62
   7
 39
0.100
  6
CONTINUOUS
 10
43.28000
 20
82.64300
 30
 0
 11
43.38400
 21
82.68000
  0
LINE
  8
Contour
 62
   7
 39
0.100
  6
CONTINUOUS
 10
43.38400
 20
82.68000
 30
 0
 11
43.43000
 21
82.69800
  0
LINE
  8
Contour
 62
   7
 39
0.100
  6
CONTINUOUS
 10
43.43000
 20
82.69800
 30
 0
 11
43.46400
 21
82.71200
  0
LINE
  8
Contour
 62
   7
 39
0.100
  6
CONTINUOUS
 10
43.46400
 20
82.71200
 30
 0
 11
43.56500
 21
82.75600
  0
LINE
  8
Contour
 62
   7
 39
0.100
  6
CONTINUOUS
 10
43.56500
 20
82.75600
 30
 0
 11
43.61000
 21
82.77700
  0
LINE
  8
Contour
 62
   7
 39
0.100
  6
CONTINUOUS
 10
43.61000
 20
82.77700
 30
 0
 11
43.63400
 21
82.78800
  0
LINE
  8
Contour
 62
   7
 39
0.100
  6
CONTINUOUS
 10
43.63400
 20
82.78800
 30
 0
 11
43.73200
 21
82.83800
  0
LINE
  8
Contour
 62
   7
 39
0.100
  6
CONTINUOUS
 10
43.73200
 20
82.83800
 30
 0
 11
43.77600
 21
82.86200
  0
LINE
  8
Contour
 62
   7
 39
0.100
  6
CONTINUOUS
 10
43.77600
 20
82.86200
 30
 0
 11
43.80300
 21
82.87800
  0
LINE
  8
Contour
 62
   7
 39
0.100
  6
CONTINUOUS
 10
43.80300
 20
82.87800
 30
 0
 11
43.89700
 21
82.93400
  0
LINE
  8
Contour
 62
   7
 39
0.100
  6
CONTINUOUS
 10
43.89700
 20
82.93400
 30
 0
 11
43.95300
 21
82.97000
  0
LINE
  8
Contour
 62
   7
 39
0.100
  6
CONTINUOUS
 10
43.95300
 20
82.97000
 30
 0
 11
44.04400
 21
83.03100
  0
LINE
  8
Contour
 62
   7
 39
0.100
  6
CONTINUOUS
 10
44.04400
 20
83.03100
 30
 0
 11
44.08500
 21
83.05900
  0
LINE
  8
Contour
 62
   7
 39
0.100
  6
CONTINUOUS
 10
44.08500
 20
83.05900
 30
 0
 11
44.11800
 21
83.08400
  0
LINE
  8
Contour
 62
   7
 39
0.100
  6
CONTINUOUS
 10
44.11800
 20
83.08400
 30
 0
 11
44.20500
 21
83.15200
  0
LINE
  8
Contour
 62
   7
 39
0.100
  6
CONTINUOUS
 10
44.20500
 20
83.15200
 30
 0
 11
44.26100
 21
83.19800
  0
LINE
  8
Contour
 62
   7
 39
0.100
  6
CONTINUOUS
 10
44.26100
 20
83.19800
 30
 0
 11
44.34400
 21
83.27100
  0
LINE
  8
Contour
 62
   7
 39
0.100
  6
CONTINUOUS
 10
44.34400
 20
83.27100
 30
 0
 11
44.38100
 21
83.30500
  0
LINE
  8
Contour
 62
   7
 39
0.100
  6
CONTINUOUS
 10
44.38100
 20
83.30500
 30
 0
 11
44.47900
 21
83.40300
  0
LINE
  8
Contour
 62
   7
 39
0.100
  6
CONTINUOUS
 10
44.47900
 20
83.40300
 30
 0
 11
44.51400
 21
83.43900
  0
LINE
  8
Contour
 62
   7
 39
0.100
  6
CONTINUOUS
 10
44.51400
 20
83.43900
 30
 0
 11
44.53400
 21
83.46100
  0
LINE
  8
Contour
 62
   7
 39
0.100
  6
CONTINUOUS
 10
44.53400
 20
83.46100
 30
 0
 11
44.60700
 21
83.54400
  0
LINE
  8
Contour
 62
   7
 39
0.100
  6
CONTINUOUS
 10
44.60700
 20
83.54400
 30
 0
 11
44.65300
 21
83.60000
  0
LINE
  8
Contour
 62
   7
 39
0.100
  6
CONTINUOUS
 10
44.65300
 20
83.60000
 30
 0
 11
44.72100
 21
83.68700
  0
LINE
  8
Contour
 62
   7
 39
0.100
  6
CONTINUOUS
 10
44.72100
 20
83.68700
 30
 0
 11
44.75100
 21
83.72700
  0
LINE
  8
Contour
 62
   7
 39
0.100
  6
CONTINUOUS
 10
44.75100
 20
83.72700
 30
 0
 11
44.77400
 21
83.76100
  0
LINE
  8
Contour
 62
   7
 39
0.100
  6
CONTINUOUS
 10
44.77400
 20
83.76100
 30
 0
 11
44.83500
 21
83.85200
  0
LINE
  8
Contour
 62
   7
 39
0.100
  6
CONTINUOUS
 10
44.83500
 20
83.85200
 30
 0
 11
44.87100
 21
83.90800
  0
LINE
  8
Contour
 62
   7
 39
0.100
  6
CONTINUOUS
 10
44.87100
 20
83.90800
 30
 0
 11
44.92700
 21
84.00200
  0
LINE
  8
Contour
 62
   7
 39
0.100
  6
CONTINUOUS
 10
44.92700
 20
84.00200
 30
 0
 11
44.95200
 21
84.04500
  0
LINE
  8
Contour
 62
   7
 39
0.100
  6
CONTINUOUS
 10
44.95200
 20
84.04500
 30
 0
 11
44.96700
 21
84.07300
  0
LINE
  8
Contour
 62
   7
 39
0.100
  6
CONTINUOUS
 10
44.96700
 20
84.07300
 30
 0
 11
45.01700
 21
84.17100
  0
LINE
  8
Contour
 62
   7
 39
0.100
  6
CONTINUOUS
 10
45.01700
 20
84.17100
 30
 0
 11
45.03800
 21
84.21600
  0
LINE
  8
Contour
 62
   7
 39
0.100
  6
CONTINUOUS
 10
45.03800
 20
84.21600
 30
 0
 11
45.04900
 21
84.24000
  0
LINE
  8
Contour
 62
   7
 39
0.100
  6
CONTINUOUS
 10
45.04900
 20
84.24000
 30
 0
 11
45.09300
 21
84.34100
  0
LINE
  8
Contour
 62
   7
 39
0.100
  6
CONTINUOUS
 10
45.09300
 20
84.34100
 30
 0
 11
45.11200
 21
84.38700
  0
LINE
  8
Contour
 62
   7
 39
0.100
  6
CONTINUOUS
 10
45.11200
 20
84.38700
 30
 0
 11
45.12500
 21
84.42100
  0
LINE
  8
Contour
 62
   7
 39
0.100
  6
CONTINUOUS
 10
45.12500
 20
84.42100
 30
 0
 11
45.16200
 21
84.52500
  0
LINE
  8
Contour
 62
   7
 39
0.100
  6
CONTINUOUS
 10
45.16200
 20
84.52500
 30
 0
 11
45.18400
 21
84.59300
  0
LINE
  8
Contour
 62
   7
 39
0.100
  6
CONTINUOUS
 10
45.18400
 20
84.59300
 30
 0
 11
45.21500
 21
84.69900
  0
LINE
  8
Contour
 62
   7
 39
0.100
  6
CONTINUOUS
 10
45.21500
 20
84.69900
 30
 0
 11
45.22800
 21
84.74800
  0
LINE
  8
Contour
 62
   7
 39
0.100
  6
CONTINUOUS
 10
45.22800
 20
84.74800
 30
 0
 11
45.23500
 21
84.77700
  0
LINE
  8
Contour
 62
   7
 39
0.100
  6
CONTINUOUS
 10
45.23500
 20
84.77700
 30
 0
 11
45.25900
 21
84.88400
  0
LINE
  8
Contour
 62
   7
 39
0.100
  6
CONTINUOUS
 10
45.25900
 20
84.88400
 30
 0
 11
45.26900
 21
84.93300
  0
LINE
  8
Contour
 62
   7
 39
0.100
  6
CONTINUOUS
 10
45.26900
 20
84.93300
 30
 0
 11
45.27400
 21
84.96500
  0
LINE
  8
Contour
 62
   7
 39
0.100
  6
CONTINUOUS
 10
45.27400
 20
84.96500
 30
 0
 11
45.29100
 21
85.07400
  0
LINE
  8
Contour
 62
   7
 39
0.100
  6
CONTINUOUS
 10
45.29100
 20
85.07400
 30
 0
 11
45.30000
 21
85.14100
  0
LINE
  8
Contour
 62
   7
 39
0.100
  6
CONTINUOUS
 10
45.30000
 20
85.14100
 30
 0
 11
45.31100
 21
85.25000
  0
LINE
  8
Contour
 62
   7
 39
0.100
  6
CONTINUOUS
 10
45.31100
 20
85.25000
 30
 0
 11
45.31500
 21
85.29900
  0
LINE
  8
Contour
 62
   7
 39
0.100
  6
CONTINUOUS
 10
45.31500
 20
85.29900
 30
 0
 11
45.31700
 21
85.34100
  0
LINE
  8
Contour
 62
   7
 39
0.100
  6
CONTINUOUS
 10
45.31700
 20
85.34100
 30
 0
 11
45.32000
 21
85.45100
  0
LINE
  8
Contour
 62
   7
 39
0.100
  6
CONTINUOUS
 10
45.32000
 20
85.45100
 30
 0
 11
45.32000
 21
85.51900
  0
LINE
  8
Contour
 62
   7
 39
0.100
  6
CONTINUOUS
 10
45.32000
 20
85.51900
 30
 0
 11
45.31700
 21
85.62900
  0
LINE
  8
Contour
 62
   7
 39
0.100
  6
CONTINUOUS
 10
45.31700
 20
85.62900
 30
 0
 11
45.31400
 21
85.67900
  0
LINE
  8
Contour
 62
   7
 39
0.100
  6
CONTINUOUS
 10
45.31400
 20
85.67900
 30
 0
 11
45.31100
 21
85.72000
  0
LINE
  8
Contour
 62
   7
 39
0.100
  6
CONTINUOUS
 10
45.31100
 20
85.72000
 30
 0
 11
45.30000
 21
85.82900
  0
LINE
  8
Contour
 62
   7
 39
0.100
  6
CONTINUOUS
 10
45.30000
 20
85.82900
 30
 0
 11
45.29100
 21
85.89600
  0
LINE
  8
Contour
 62
   7
 39
0.100
  6
CONTINUOUS
 10
45.29100
 20
85.89600
 30
 0
 11
45.27400
 21
86.00500
  0
LINE
  8
Contour
 62
   7
 39
0.100
  6
CONTINUOUS
 10
45.27400
 20
86.00500
 30
 0
 11
45.26500
 21
86.05500
  0
LINE
  8
Contour
 62
   7
 39
0.100
  6
CONTINUOUS
 10
45.26500
 20
86.05500
 30
 0
 11
45.25900
 21
86.08600
  0
LINE
  8
Contour
 62
   7
 39
0.100
  6
CONTINUOUS
 10
45.25900
 20
86.08600
 30
 0
 11
45.23500
 21
86.19300
  0
LINE
  8
Contour
 62
   7
 39
0.100
  6
CONTINUOUS
 10
45.23500
 20
86.19300
 30
 0
 11
45.22300
 21
86.24200
  0
LINE
  8
Contour
 62
   7
 39
0.100
  6
CONTINUOUS
 10
45.22300
 20
86.24200
 30
 0
 11
45.21500
 21
86.27100
  0
LINE
  8
Contour
 62
   7
 39
0.100
  6
CONTINUOUS
 10
45.21500
 20
86.27100
 30
 0
 11
45.18400
 21
86.37700
  0
LINE
  8
Contour
 62
   7
 39
0.100
  6
CONTINUOUS
 10
45.18400
 20
86.37700
 30
 0
 11
45.16200
 21
86.44500
  0
LINE
  8
Contour
 62
   7
 39
0.100
  6
CONTINUOUS
 10
45.16200
 20
86.44500
 30
 0
 11
45.12500
 21
86.54900
  0
LINE
  8
Contour
 62
   7
 39
0.100
  6
CONTINUOUS
 10
45.12500
 20
86.54900
 30
 0
 11
45.10700
 21
86.59500
  0
LINE
  8
Contour
 62
   7
 39
0.100
  6
CONTINUOUS
 10
45.10700
 20
86.59500
 30
 0
 11
45.09300
 21
86.62900
  0
LINE
  8
Contour
 62
   7
 39
0.100
  6
CONTINUOUS
 10
45.09300
 20
86.62900
 30
 0
 11
45.04900
 21
86.73000
  0
LINE
  8
Contour
 62
   7
 39
0.100
  6
CONTINUOUS
 10
45.04900
 20
86.73000
 30
 0
 11
45.02800
 21
86.77500
  0
LINE
  8
Contour
 62
   7
 39
0.100
  6
CONTINUOUS
 10
45.02800
 20
86.77500
 30
 0
 11
45.01700
 21
86.79900
  0
LINE
  8
Contour
 62
   7
 39
0.100
  6
CONTINUOUS
 10
45.01700
 20
86.79900
 30
 0
 11
44.96700
 21
86.89700
  0
LINE
  8
Contour
 62
   7
 39
0.100
  6
CONTINUOUS
 10
44.96700
 20
86.89700
 30
 0
 11
44.94300
 21
86.94100
  0
LINE
  8
Contour
 62
   7
 39
0.100
  6
CONTINUOUS
 10
44.94300
 20
86.94100
 30
 0
 11
44.92700
 21
86.96800
  0
LINE
  8
Contour
 62
   7
 39
0.100
  6
CONTINUOUS
 10
44.92700
 20
86.96800
 30
 0
 11
44.87100
 21
87.06200
  0
LINE
  8
Contour
 62
   7
 39
0.100
  6
CONTINUOUS
 10
44.87100
 20
87.06200
 30
 0
 11
44.83500
 21
87.11800
  0
LINE
  8
Contour
 62
   7
 39
0.100
  6
CONTINUOUS
 10
44.83500
 20
87.11800
 30
 0
 11
44.77400
 21
87.20900
  0
LINE
  8
Contour
 62
   7
 39
0.100
  6
CONTINUOUS
 10
44.77400
 20
87.20900
 30
 0
 11
44.74600
 21
87.25000
  0
LINE
  8
Contour
 62
   7
 39
0.100
  6
CONTINUOUS
 10
44.74600
 20
87.25000
 30
 0
 11
44.72100
 21
87.28300
  0
LINE
  8
Contour
 62
   7
 39
0.100
  6
CONTINUOUS
 10
44.72100
 20
87.28300
 30
 0
 11
44.65300
 21
87.37000
  0
LINE
  8
Contour
 62
   7
 39
0.100
  6
CONTINUOUS
 10
44.65300
 20
87.37000
 30
 0
 11
44.60700
 21
87.42600
  0
LINE
  8
Contour
 62
   7
 39
0.100
  6
CONTINUOUS
 10
44.60700
 20
87.42600
 30
 0
 11
44.53400
 21
87.50900
  0
LINE
  8
Contour
 62
   7
 39
0.100
  6
CONTINUOUS
 10
44.53400
 20
87.50900
 30
 0
 11
44.50000
 21
87.54600
  0
LINE
  8
Contour
 62
   7
 39
0.100
  6
CONTINUOUS
 10
44.50000
 20
87.54600
 30
 0
 11
44.40200
 21
87.64400
  0
LINE
  8
Contour
 62
   7
 39
0.100
  6
CONTINUOUS
 10
44.40200
 20
87.64400
 30
 0
 11
44.36600
 21
87.67900
  0
LINE
  8
Contour
 62
   7
 39
0.100
  6
CONTINUOUS
 10
44.36600
 20
87.67900
 30
 0
 11
44.34400
 21
87.69900
  0
LINE
  8
Contour
 62
   7
 39
0.100
  6
CONTINUOUS
 10
44.34400
 20
87.69900
 30
 0
 11
44.26100
 21
87.77200
  0
LINE
  8
Contour
 62
   7
 39
0.100
  6
CONTINUOUS
 10
44.26100
 20
87.77200
 30
 0
 11
44.20500
 21
87.81800
  0
LINE
  8
Contour
 62
   7
 39
0.100
  6
CONTINUOUS
 10
44.20500
 20
87.81800
 30
 0
 11
44.11800
 21
87.88600
  0
LINE
  8
Contour
 62
   7
 39
0.100
  6
CONTINUOUS
 10
44.11800
 20
87.88600
 30
 0
 11
44.07800
 21
87.91600
  0
LINE
  8
Contour
 62
   7
 39
0.100
  6
CONTINUOUS
 10
44.07800
 20
87.91600
 30
 0
 11
44.04400
 21
87.93900
  0
LINE
  8
Contour
 62
   7
 39
0.100
  6
CONTINUOUS
 10
44.04400
 20
87.93900
 30
 0
 11
43.95300
 21
88.00000
  0
LINE
  8
Contour
 62
   7
 39
0.100
  6
CONTINUOUS
 10
43.95300
 20
88.00000
 30
 0
 11
43.89700
 21
88.03600
  0
LINE
  8
Contour
 62
   7
 39
0.100
  6
CONTINUOUS
 10
43.89700
 20
88.03600
 30
 0
 11
43.80300
 21
88.09200
  0
LINE
  8
Contour
 62
   7
 39
0.100
  6
CONTINUOUS
 10
43.80300
 20
88.09200
 30
 0
 11
43.76000
 21
88.11700
  0
LINE
  8
Contour
 62
   7
 39
0.100
  6
CONTINUOUS
 10
43.76000
 20
88.11700
 30
 0
 11
43.73200
 21
88.13200
  0
LINE
  8
Contour
 62
   7
 39
0.100
  6
CONTINUOUS
 10
43.73200
 20
88.13200
 30
 0
 11
43.63400
 21
88.18200
  0
LINE
  8
Contour
 62
   7
 39
0.100
  6
CONTINUOUS
 10
43.63400
 20
88.18200
 30
 0
 11
43.58900
 21
88.20300
  0
LINE
  8
Contour
 62
   7
 39
0.100
  6
CONTINUOUS
 10
43.58900
 20
88.20300
 30
 0
 11
43.56500
 21
88.21400
  0
LINE
  8
Contour
 62
   7
 39
0.100
  6
CONTINUOUS
 10
43.56500
 20
88.21400
 30
 0
 11
43.46400
 21
88.25800
  0
LINE
  8
Contour
 62
   7
 39
0.100
  6
CONTINUOUS
 10
43.46400
 20
88.25800
 30
 0
 11
43.41800
 21
88.27700
  0
LINE
  8
Contour
 62
   7
 39
0.100
  6
CONTINUOUS
 10
43.41800
 20
88.27700
 30
 0
 11
43.38400
 21
88.29000
  0
LINE
  8
Contour
 62
   7
 39
0.100
  6
CONTINUOUS
 10
43.38400
 20
88.29000
 30
 0
 11
43.28000
 21
88.32700
  0
LINE
  8
Contour
 62
   7
 39
0.100
  6
CONTINUOUS
 10
43.28000
 20
88.32700
 30
 0
 11
43.21200
 21
88.34900
  0
LINE
  8
Contour
 62
   7
 39
0.100
  6
CONTINUOUS
 10
43.21200
 20
88.34900
 30
 0
 11
43.10600
 21
88.38000
  0
LINE
  8
Contour
 62
   7
 39
0.100
  6
CONTINUOUS
 10
43.10600
 20
88.38000
 30
 0
 11
43.05700
 21
88.39300
  0
LINE
  8
Contour
 62
   7
 39
0.100
  6
CONTINUOUS
 10
43.05700
 20
88.39300
 30
 0
 11
43.02800
 21
88.40000
  0
LINE
  8
Contour
 62
   7
 39
0.100
  6
CONTINUOUS
 10
43.02800
 20
88.40000
 30
 0
 11
42.92100
 21
88.42400
  0
LINE
  8
Contour
 62
   7
 39
0.100
  6
CONTINUOUS
 10
42.92100
 20
88.42400
 30
 0
 11
42.87200
 21
88.43400
  0
LINE
  8
Contour
 62
   7
 39
0.100
  6
CONTINUOUS
 10
42.87200
 20
88.43400
 30
 0
 11
42.84000
 21
88.43900
  0
LINE
  8
Contour
 62
   7
 39
0.100
  6
CONTINUOUS
 10
42.84000
 20
88.43900
 30
 0
 11
42.73100
 21
88.45600
  0
LINE
  8
Contour
 62
   7
 39
0.100
  6
CONTINUOUS
 10
42.73100
 20
88.45600
 30
 0
 11
42.66400
 21
88.46500
  0
LINE
  8
Contour
 62
   7
 39
0.100
  6
CONTINUOUS
 10
42.66400
 20
88.46500
 30
 0
 11
42.55500
 21
88.47600
  0
LINE
  8
Contour
 62
   7
 39
0.100
  6
CONTINUOUS
 10
42.55500
 20
88.47600
 30
 0
 11
42.50600
 21
88.48000
  0
LINE
  8
Contour
 62
   7
 39
0.100
  6
CONTINUOUS
 10
42.50600
 20
88.48000
 30
 0
 11
42.46400
 21
88.48200
  0
LINE
  8
Contour
 62
   7
 39
0.100
  6
CONTINUOUS
 10
42.46400
 20
88.48200
 30
 0
 11
42.35400
 21
88.48500
  0
LINE
  8
Contour
 62
   7
 39
0.100
  6
CONTINUOUS
 10
42.35400
 20
88.48500
 30
 0
 11
42.28600
 21
88.48500
  0
LINE
  8
Contour
 62
   7
 39
0.100
  6
CONTINUOUS
 10
42.28600
 20
88.48500
 30
 0
 11
42.17600
 21
88.48200
  0
LINE
  8
Contour
 62
   7
 39
0.100
  6
CONTINUOUS
 10
42.17600
 20
88.48200
 30
 0
 11
42.12600
 21
88.47900
  0
LINE
  8
Contour
 62
   7
 39
0.100
  6
CONTINUOUS
 10
42.12600
 20
88.47900
 30
 0
 11
42.08500
 21
88.47600
  0
LINE
  8
Contour
 62
   7
 39
0.100
  6
CONTINUOUS
 10
42.08500
 20
88.47600
 30
 0
 11
41.97600
 21
88.46500
  0
LINE
  8
Contour
 62
   7
 39
0.100
  6
CONTINUOUS
 10
41.97600
 20
88.46500
 30
 0
 11
41.90900
 21
88.45600
  0
LINE
  8
Contour
 62
   7
 39
0.100
  6
CONTINUOUS
 10
41.90900
 20
88.45600
 30
 0
 11
41.80000
 21
88.43900
  0
LINE
  8
Contour
 62
   7
 39
0.100
  6
CONTINUOUS
 10
41.80000
 20
88.43900
 30
 0
 11
41.75000
 21
88.43000
  0
LINE
  8
Contour
 62
   7
 39
0.100
  6
CONTINUOUS
 10
41.75000
 20
88.43000
 30
 0
 11
41.71900
 21
88.42400
  0
LINE
  8
Contour
 62
   7
 39
0.100
  6
CONTINUOUS
 10
41.71900
 20
88.42400
 30
 0
 11
41.61200
 21
88.40000
  0
LINE
  8
Contour
 62
   7
 39
0.100
  6
CONTINUOUS
 10
41.61200
 20
88.40000
 30
 0
 11
41.56300
 21
88.38800
  0
LINE
  8
Contour
 62
   7
 39
0.100
  6
CONTINUOUS
 10
41.56300
 20
88.38800
 30
 0
 11
41.53400
 21
88.38000
  0
LINE
  8
Contour
 62
   7
 39
0.100
  6
CONTINUOUS
 10
41.53400
 20
88.38000
 30
 0
 11
41.42800
 21
88.34900
  0
LINE
  8
Contour
 62
   7
 39
0.100
  6
CONTINUOUS
 10
41.42800
 20
88.34900
 30
 0
 11
41.36000
 21
88.32700
  0
LINE
  8
Contour
 62
   7
 39
0.100
  6
CONTINUOUS
 10
41.36000
 20
88.32700
 30
 0
 11
41.25600
 21
88.29000
  0
LINE
  8
Contour
 62
   7
 39
0.100
  6
CONTINUOUS
 10
41.25600
 20
88.29000
 30
 0
 11
41.21000
 21
88.27200
  0
LINE
  8
Contour
 62
   7
 39
0.100
  6
CONTINUOUS
 10
41.21000
 20
88.27200
 30
 0
 11
41.17600
 21
88.25800
  0
LINE
  8
Contour
 62
   7
 39
0.100
  6
CONTINUOUS
 10
41.17600
 20
88.25800
 30
 0
 11
41.07500
 21
88.21400
  0
LINE
  8
Contour
 62
   7
 39
0.100
  6
CONTINUOUS
 10
41.07500
 20
88.21400
 30
 0
 11
41.03000
 21
88.19300
  0
LINE
  8
Contour
 62
   7
 39
0.100
  6
CONTINUOUS
 10
41.03000
 20
88.19300
 30
 0
 11
41.00600
 21
88.18200
  0
LINE
  8
Contour
 62
   7
 39
0.100
  6
CONTINUOUS
 10
41.00600
 20
88.18200
 30
 0
 11
40.90800
 21
88.13200
  0
LINE
  8
Contour
 62
   7
 39
0.100
  6
CONTINUOUS
 10
40.90800
 20
88.13200
 30
 0
 11
40.86400
 21
88.10800
  0
LINE
  8
Contour
 62
   7
 39
0.100
  6
CONTINUOUS
 10
40.86400
 20
88.10800
 30
 0
 11
40.83700
 21
88.09200
  0
LINE
  8
Contour
 62
   7
 39
0.100
  6
CONTINUOUS
 10
40.83700
 20
88.09200
 30
 0
 11
40.74300
 21
88.03600
  0
LINE
  8
Contour
 62
   7
 39
0.100
  6
CONTINUOUS
 10
40.74300
 20
88.03600
 30
 0
 11
40.68700
 21
88.00000
  0
LINE
  8
Contour
 62
   7
 39
0.100
  6
CONTINUOUS
 10
40.68700
 20
88.00000
 30
 0
 11
40.59600
 21
87.93900
  0
LINE
  8
Contour
 62
   7
 39
0.100
  6
CONTINUOUS
 10
40.59600
 20
87.93900
 30
 0
 11
40.55500
 21
87.91100
  0
LINE
  8
Contour
 62
   7
 39
0.100
  6
CONTINUOUS
 10
40.55500
 20
87.91100
 30
 0
 11
40.52200
 21
87.88600
  0
LINE
  8
Contour
 62
   7
 39
0.100
  6
CONTINUOUS
 10
40.52200
 20
87.88600
 30
 0
 11
40.43500
 21
87.81800
  0
LINE
  8
Contour
 62
   7
 39
0.100
  6
CONTINUOUS
 10
40.43500
 20
87.81800
 30
 0
 11
40.37900
 21
87.77200
  0
LINE
  8
Contour
 62
   7
 39
0.100
  6
CONTINUOUS
 10
40.37900
 20
87.77200
 30
 0
 11
40.29600
 21
87.69900
  0
LINE
  8
Contour
 62
   7
 39
0.100
  6
CONTINUOUS
 10
40.29600
 20
87.69900
 30
 0
 11
40.25900
 21
87.66500
  0
LINE
  8
Contour
 62
   7
 39
0.100
  6
CONTINUOUS
 10
40.25900
 20
87.66500
 30
 0
 11
40.16100
 21
87.56700
  0
LINE
  8
Contour
 62
   7
 39
0.100
  6
CONTINUOUS
 10
40.16100
 20
87.56700
 30
 0
 11
40.12600
 21
87.53100
  0
LINE
  8
Contour
 62
   7
 39
0.100
  6
CONTINUOUS
 10
40.12600
 20
87.53100
 30
 0
 11
40.10600
 21
87.50900
  0
LINE
  8
Contour
 62
   7
 39
0.100
  6
CONTINUOUS
 10
40.10600
 20
87.50900
 30
 0
 11
40.03300
 21
87.42600
  0
LINE
  8
Contour
 62
   7
 39
0.100
  6
CONTINUOUS
 10
40.03300
 20
87.42600
 30
 0
 11
39.98700
 21
87.37000
  0
LINE
  8
Contour
 62
   7
 39
0.100
  6
CONTINUOUS
 10
39.98700
 20
87.37000
 30
 0
 11
39.91900
 21
87.28300
  0
LINE
  8
Contour
 62
   7
 39
0.100
  6
CONTINUOUS
 10
39.91900
 20
87.28300
 30
 0
 11
39.88900
 21
87.24300
  0
LINE
  8
Contour
 62
   7
 39
0.100
  6
CONTINUOUS
 10
39.88900
 20
87.24300
 30
 0
 11
39.86600
 21
87.20900
  0
LINE
  8
Contour
 62
   7
 39
0.100
  6
CONTINUOUS
 10
39.86600
 20
87.20900
 30
 0
 11
39.80500
 21
87.11800
  0
LINE
  8
Contour
 62
   7
 39
0.100
  6
CONTINUOUS
 10
39.80500
 20
87.11800
 30
 0
 11
39.76900
 21
87.06200
  0
LINE
  8
Contour
 62
   7
 39
0.100
  6
CONTINUOUS
 10
39.76900
 20
87.06200
 30
 0
 11
39.71300
 21
86.96800
  0
LINE
  8
Contour
 62
   7
 39
0.100
  6
CONTINUOUS
 10
39.71300
 20
86.96800
 30
 0
 11
39.68800
 21
86.92500
  0
LINE
  8
Contour
 62
   7
 39
0.100
  6
CONTINUOUS
 10
39.68800
 20
86.92500
 30
 0
 11
39.67300
 21
86.89700
  0
LINE
  8
Contour
 62
   7
 39
0.100
  6
CONTINUOUS
 10
39.67300
 20
86.89700
 30
 0
 11
39.62300
 21
86.79900
  0
LINE
  8
Contour
 62
   7
 39
0.100
  6
CONTINUOUS
 10
39.62300
 20
86.79900
 30
 0
 11
39.60200
 21
86.75400
  0
LINE
  8
Contour
 62
   7
 39
0.100
  6
CONTINUOUS
 10
39.60200
 20
86.75400
 30
 0
 11
39.59100
 21
86.73000
  0
LINE
  8
Contour
 62
   7
 39
0.100
  6
CONTINUOUS
 10
39.59100
 20
86.73000
 30
 0
 11
39.54700
 21
86.62900
  0
LINE
  8
Contour
 62
   7
 39
0.100
  6
CONTINUOUS
 10
39.54700
 20
86.62900
 30
 0
 11
39.52800
 21
86.58300
  0
LINE
  8
Contour
 62
   7
 39
0.100
  6
CONTINUOUS
 10
39.52800
 20
86.58300
 30
 0
 11
39.51500
 21
86.54900
  0
LINE
  8
Contour
 62
   7
 39
0.100
  6
CONTINUOUS
 10
39.51500
 20
86.54900
 30
 0
 11
39.47800
 21
86.44500
  0
LINE
  8
Contour
 62
   7
 39
0.100
  6
CONTINUOUS
 10
39.47800
 20
86.44500
 30
 0
 11
39.45600
 21
86.37700
  0
LINE
  8
Contour
 62
   7
 39
0.100
  6
CONTINUOUS
 10
39.45600
 20
86.37700
 30
 0
 11
39.42500
 21
86.27100
  0
LINE
  8
Contour
 62
   7
 39
0.100
  6
CONTINUOUS
 10
39.42500
 20
86.27100
 30
 0
 11
39.41200
 21
86.22200
  0
LINE
  8
Contour
 62
   7
 39
0.100
  6
CONTINUOUS
 10
39.41200
 20
86.22200
 30
 0
 11
39.40500
 21
86.19300
  0
LINE
  8
Contour
 62
   7
 39
0.100
  6
CONTINUOUS
 10
39.40500
 20
86.19300
 30
 0
 11
39.38100
 21
86.08600
  0
LINE
  8
Contour
 62
   7
 39
0.100
  6
CONTINUOUS
 10
39.38100
 20
86.08600
 30
 0
 11
39.37100
 21
86.03700
  0
LINE
  8
Contour
 62
   7
 39
0.100
  6
CONTINUOUS
 10
39.37100
 20
86.03700
 30
 0
 11
39.36600
 21
86.00500
  0
LINE
  8
Contour
 62
   7
 39
0.100
  6
CONTINUOUS
 10
39.36600
 20
86.00500
 30
 0
 11
39.34900
 21
85.89600
  0
LINE
  8
Contour
 62
   7
 39
0.100
  6
CONTINUOUS
 10
39.34900
 20
85.89600
 30
 0
 11
39.34000
 21
85.82900
  0
LINE
  8
Contour
 62
   7
 39
0.100
  6
CONTINUOUS
 10
39.34000
 20
85.82900
 30
 0
 11
39.32900
 21
85.72000
  0
LINE
  8
Contour
 62
   7
 39
0.100
  6
CONTINUOUS
 10
39.32900
 20
85.72000
 30
 0
 11
39.32500
 21
85.67100
  0
LINE
  8
Contour
 62
   7
 39
0.100
  6
CONTINUOUS
 10
39.32500
 20
85.67100
 30
 0
 11
39.32300
 21
85.62900
  0
LINE
  8
Contour
 62
   7
 39
0.100
  6
CONTINUOUS
 10
39.32300
 20
85.62900
 30
 0
 11
39.32000
 21
85.51900
  0
LINE
  8
Contour
 62
   7
 39
0.100
  6
CONTINUOUS
 10
39.32000
 20
85.51900
 30
 0
 11
39.32000
 21
85.45100
  0
LINE
  8
Contour
 62
   7
 39
0.100
  6
CONTINUOUS
 10
39.32000
 20
85.45100
 30
 0
 11
39.32300
 21
85.34100
  0
LINE
  8
Contour
 62
   7
 39
0.100
  6
CONTINUOUS
 10
39.32300
 20
85.34100
 30
 0
 11
39.32600
 21
85.29100
  0
LINE
  8
Contour
 62
   7
 39
0.100
  6
CONTINUOUS
 10
39.32600
 20
85.29100
 30
 0
 11
39.32900
 21
85.25000
  0
LINE
  8
Contour
 62
   7
 39
0.100
  6
CONTINUOUS
 10
39.32900
 20
85.25000
 30
 0
 11
39.34000
 21
85.14100
  0
LINE
  8
Contour
 62
   7
 39
0.100
  6
CONTINUOUS
 10
39.34000
 20
85.14100
 30
 0
 11
39.34900
 21
85.07400
  0
LINE
  8
Contour
 62
   7
 39
0.100
  6
CONTINUOUS
 10
39.34900
 20
85.07400
 30
 0
 11
39.36600
 21
84.96500
  0
LINE
  8
Contour
 62
   7
 39
0.100
  6
CONTINUOUS
 10
39.36600
 20
84.96500
 30
 0
 11
39.37500
 21
84.91500
  0
LINE
  8
Contour
 62
   7
 39
0.100
  6
CONTINUOUS
 10
39.37500
 20
84.91500
 30
 0
 11
39.38100
 21
84.88400
  0
LINE
  8
Contour
 62
   7
 39
0.100
  6
CONTINUOUS
 10
39.38100
 20
84.88400
 30
 0
 11
39.40500
 21
84.77700
  0
LINE
  8
Contour
 62
   7
 39
0.100
  6
CONTINUOUS
 10
39.40500
 20
84.77700
 30
 0
 11
39.41700
 21
84.72800
  0
LINE
  8
Contour
 62
   7
 39
0.100
  6
CONTINUOUS
 10
39.41700
 20
84.72800
 30
 0
 11
39.42500
 21
84.69900
  0
LINE
  8
Contour
 62
   7
 39
0.100
  6
CONTINUOUS
 10
39.42500
 20
84.69900
 30
 0
 11
39.45600
 21
84.59300
  0
LINE
  8
Contour
 62
   7
 39
0.100
  6
CONTINUOUS
 10
39.45600
 20
84.59300
 30
 0
 11
39.47800
 21
84.52500
  0
LINE
  8
Contour
 62
   7
 39
0.100
  6
CONTINUOUS
 10
39.47800
 20
84.52500
 30
 0
 11
39.51500
 21
84.42100
  0
LINE
  8
Contour
 62
   7
 39
0.100
  6
CONTINUOUS
 10
39.51500
 20
84.42100
 30
 0
 11
39.53300
 21
84.37500
  0
LINE
  8
Contour
 62
   7
 39
0.100
  6
CONTINUOUS
 10
39.53300
 20
84.37500
 30
 0
 11
39.54700
 21
84.34100
  0
LINE
  8
Contour
 62
   7
 39
0.100
  6
CONTINUOUS
 10
39.54700
 20
84.34100
 30
 0
 11
39.59100
 21
84.24000
  0
LINE
  8
Contour
 62
   7
 39
0.100
  6
CONTINUOUS
 10
39.59100
 20
84.24000
 30
 0
 11
39.61200
 21
84.19500
  0
LINE
  8
Contour
 62
   7
 39
0.100
  6
CONTINUOUS
 10
39.61200
 20
84.19500
 30
 0
 11
39.62300
 21
84.17100
  0
LINE
  8
Contour
 62
   7
 39
0.100
  6
CONTINUOUS
 10
39.62300
 20
84.17100
 30
 0
 11
39.67300
 21
84.07300
  0
LINE
  8
Contour
 62
   7
 39
0.100
  6
CONTINUOUS
 10
39.67300
 20
84.07300
 30
 0
 11
39.69700
 21
84.02900
  0
LINE
  8
Contour
 62
   7
 39
0.100
  6
CONTINUOUS
 10
39.69700
 20
84.02900
 30
 0
 11
39.71300
 21
84.00200
  0
LINE
  8
Contour
 62
   7
 39
0.100
  6
CONTINUOUS
 10
39.71300
 20
84.00200
 30
 0
 11
39.76900
 21
83.90800
  0
LINE
  8
Contour
 62
   7
 39
0.100
  6
CONTINUOUS
 10
39.76900
 20
83.90800
 30
 0
 11
39.80500
 21
83.85200
  0
LINE
  8
Contour
 62
   7
 39
0.100
  6
CONTINUOUS
 10
39.80500
 20
83.85200
 30
 0
 11
39.86600
 21
83.76100
  0
LINE
  8
Contour
 62
   7
 39
0.100
  6
CONTINUOUS
 10
39.86600
 20
83.76100
 30
 0
 11
39.89400
 21
83.72000
  0
LINE
  8
Contour
 62
   7
 39
0.100
  6
CONTINUOUS
 10
39.89400
 20
83.72000
 30
 0
 11
39.91900
 21
83.68700
  0
LINE
  8
Contour
 62
   7
 39
0.100
  6
CONTINUOUS
 10
39.91900
 20
83.68700
 30
 0
 11
39.98700
 21
83.60000
  0
LINE
  8
Contour
 62
   7
 39
0.100
  6
CONTINUOUS
 10
39.98700
 20
83.60000
 30
 0
 11
40.03300
 21
83.54400
  0
LINE
  8
Contour
 62
   7
 39
0.100
  6
CONTINUOUS
 10
40.03300
 20
83.54400
 30
 0
 11
40.10600
 21
83.46100
  0
LINE
  8
Contour
 62
   7
 39
0.100
  6
CONTINUOUS
 10
40.10600
 20
83.46100
 30
 0
 11
40.14000
 21
83.42400
  0
LINE
  8
Contour
 62
   7
 39
0.100
  6
CONTINUOUS
 10
40.14000
 20
83.42400
 30
 0
 11
40.23800
 21
83.32600
  0
LINE
  8
Contour
 62
   7
 39
0.100
  6
CONTINUOUS
 10
40.23800
 20
83.32600
 30
 0
 11
40.27400
 21
83.29100
  0
LINE
  8
Contour
 62
   7
 39
0.100
  6
CONTINUOUS
 10
40.27400
 20
83.29100
 30
 0
 11
40.29600
 21
83.27100
  0
LINE
  8
Contour
 62
   7
 39
0.100
  6
CONTINUOUS
 10
40.29600
 20
83.27100
 30
 0
 11
40.37900
 21
83.19800
  0
LINE
  8
Contour
 62
   7
 39
0.100
  6
CONTINUOUS
 10
40.37900
 20
83.19800
 30
 0
 11
40.43500
 21
83.15200
  0
LINE
  8
Contour
 62
   7
 39
0.100
  6
CONTINUOUS
 10
40.43500
 20
83.15200
 30
 0
 11
40.52200
 21
83.08400
  0
LINE
  8
Contour
 62
   7
 39
0.100
  6
CONTINUOUS
 10
40.52200
 20
83.08400
 30
 0
 11
40.56200
 21
83.05400
  0
LINE
  8
Contour
 62
   7
 39
0.100
  6
CONTINUOUS
 10
40.56200
 20
83.05400
 30
 0
 11
40.59600
 21
83.03100
  0
LINE
  8
Contour
 62
   7
 39
0.100
  6
CONTINUOUS
 10
40.59600
 20
83.03100
 30
 0
 11
40.68700
 21
82.97000
  0
LINE
  8
Contour
 62
   7
 39
0.100
  6
CONTINUOUS
 10
40.68700
 20
82.97000
 30
 0
 11
40.74300
 21
82.93400
  0
LINE
  8
Contour
 62
   7
 39
0.100
  6
CONTINUOUS
 10
40.74300
 20
82.93400
 30
 0
 11
40.83700
 21
82.87800
  0
LINE
  8
Contour
 62
   7
 39
0.100
  6
CONTINUOUS
 10
40.83700
 20
82.87800
 30
 0
 11
40.88000
 21
82.85300
  0
LINE
  8
Contour
 62
   7
 39
0.100
  6
CONTINUOUS
 10
40.88000
 20
82.85300
 30
 0
 11
40.90800
 21
82.83800
  0
LINE
  8
Contour
 62
   7
 39
0.100
  6
CONTINUOUS
 10
40.90800
 20
82.83800
 30
 0
 11
41.00600
 21
82.78800
  0
LINE
  8
Contour
 62
   7
 39
0.100
  6
CONTINUOUS
 10
41.00600
 20
82.78800
 30
 0
 11
41.05100
 21
82.76700
  0
LINE
  8
Contour
 62
   7
 39
0.100
  6
CONTINUOUS
 10
41.05100
 20
82.76700
 30
 0
 11
41.07500
 21
82.75600
  0
LINE
  8
Contour
 62
   7
 39
0.100
  6
CONTINUOUS
 10
41.07500
 20
82.75600
 30
 0
 11
41.17600
 21
82.71200
  0
LINE
  8
Contour
 62
   7
 39
0.100
  6
CONTINUOUS
 10
41.17600
 20
82.71200
 30
 0
 11
41.22200
 21
82.69300
  0
LINE
  8
Contour
 62
   7
 39
0.100
  6
CONTINUOUS
 10
41.22200
 20
82.69300
 30
 0
 11
41.25600
 21
82.68000
  0
LINE
  8
Contour
 62
   7
 39
0.100
  6
CONTINUOUS
 10
41.25600
 20
82.68000
 30
 0
 11
41.36000
 21
82.64300
  0
LINE
  8
Contour
 62
   7
 39
0.100
  6
CONTINUOUS
 10
41.36000
 20
82.64300
 30
 0
 11
41.42800
 21
82.62100
  0
LINE
  8
Contour
 62
   7
 39
0.100
  6
CONTINUOUS
 10
41.42800
 20
82.62100
 30
 0
 11
41.53400
 21
82.59000
  0
LINE
  8
Contour
 62
   7
 39
0.100
  6
CONTINUOUS
 10
41.53400
 20
82.59000
 30
 0
 11
41.58300
 21
82.57700
  0
LINE
  8
Contour
 62
   7
 39
0.100
  6
CONTINUOUS
 10
41.58300
 20
82.57700
 30
 0
 11
41.61200
 21
82.57000
  0
LINE
  8
Contour
 62
   7
 39
0.100
  6
CONTINUOUS
 10
41.61200
 20
82.57000
 30
 0
 11
41.71900
 21
82.54600
  0
LINE
  8
Contour
 62
   7
 39
0.100
  6
CONTINUOUS
 10
41.71900
 20
82.54600
 30
 0
 11
41.76800
 21
82.53600
  0
LINE
  8
Contour
 62
   7
 39
0.100
  6
CONTINUOUS
 10
41.76800
 20
82.53600
 30
 0
 11
41.80000
 21
82.53100
  0
LINE
  8
Contour
 62
   7
 39
0.100
  6
CONTINUOUS
 10
41.80000
 20
82.53100
 30
 0
 11
41.90900
 21
82.51400
  0
LINE
  8
Contour
 62
   7
 39
0.100
  6
CONTINUOUS
 10
41.90900
 20
82.51400
 30
 0
 11
41.97600
 21
82.50500
  0
LINE
  8
Contour
 62
   7
 39
0.100
  6
CONTINUOUS
 10
41.97600
 20
82.50500
 30
 0
 11
42.08500
 21
82.49400
  0
LINE
  8
Contour
 62
   7
 39
0.100
  6
CONTINUOUS
 10
42.08500
 20
82.49400
 30
 0
 11
42.13400
 21
82.49000
  0
LINE
  8
Contour
 62
   7
 39
0.100
  6
CONTINUOUS
 10
42.13400
 20
82.49000
 30
 0
 11
42.17600
 21
82.48800
  0
LINE
  8
Contour
 62
   7
 39
0.100
  6
CONTINUOUS
 10
42.17600
 20
82.48800
 30
 0
 11
42.28600
 21
82.48500
  0
LINE
  8
Contour
 62
   7
 39
0.100
  6
CONTINUOUS
 10
42.28600
 20
82.48500
 30
 0
 11
42.35400
 21
82.48500
  0
LINE
  8
Contour
 62
   7
 39
0.100
  6
CONTINUOUS
 10
42.35400
 20
82.48500
 30
 0
 11
42.46400
 21
82.48800
  0
CIRCLE
  8
Contour
 62
   7
 39
0.100
  6
CONTINUOUS
 10
42.32000
 20
85.48500
 30
 0
 40
1.75100
  0
LINE
  8
Contour
 62
   7
 39
0.100
  6
CONTINUOUS
 10
42.46400
 20
82.48800
 30
 0
 11
42.51400
 21
82.49100
  0
LINE
  8
Contour
 62
   7
 39
0.100
  6
CONTINUOUS
 10
42.51400
 20
82.49100
 30
 0
 11
42.55500
 21
82.49400
  0
LINE
  8
Contour
 62
   7
 39
0.100
  6
CONTINUOUS
 10
42.55500
 20
82.49400
 30
 0
 11
42.66400
 21
82.50500
  0
LINE
  8
Contour
 62
   7
 39
0.100
  6
CONTINUOUS
 10
42.66400
 20
82.50500
 30
 0
 11
42.73100
 21
82.51400
  0
LINE
  8
Contour
 62
   7
 39
0.100
  6
CONTINUOUS
 10
42.73100
 20
82.51400
 30
 0
 11
42.84000
 21
82.53100
  0
LINE
  8
Contour
 62
   7
 39
0.100
  6
CONTINUOUS
 10
42.84000
 20
82.53100
 30
 0
 11
42.89000
 21
82.54000
  0
LINE
  8
Contour
 62
   7
 39
0.100
  6
CONTINUOUS
 10
42.89000
 20
82.54000
 30
 0
 11
42.92100
 21
82.54600
  0
LINE
  8
Contour
 62
   7
 39
0.100
  6
CONTINUOUS
 10
42.92100
 20
82.54600
 30
 0
 11
43.02800
 21
82.57000
  0
LINE
  8
Contour
 62
   7
 39
0.100
  6
CONTINUOUS
 10
43.02800
 20
82.57000
 30
 0
 11
43.07700
 21
82.58200
  0
LINE
  8
Contour
 62
   7
 39
0.100
  6
CONTINUOUS
 10
43.07700
 20
82.58200
 30
 0
 11
43.10600
 21
82.59000
  0
LINE
  8
Contour
 62
   7
 39
0.100
  6
CONTINUOUS
 10
43.10600
 20
82.59000
 30
 0
 11
43.21200
 21
82.62100
  0
LINE
  8
Contour
 62
   7
 39
0.100
  6
CONTINUOUS
 10
43.21200
 20
82.62100
 30
 0
 11
43.28000
 21
82.64300
  0
LINE
  8
Contour
 62
   7
 39
0.100
  6
CONTINUOUS
 10
43.28000
 20
82.64300
 30
 0
 11
43.38400
 21
82.68000
  0
LINE
  8
Contour
 62
   7
 39
0.100
  6
CONTINUOUS
 10
43.38400
 20
82.68000
 30
 0
 11
43.43000
 21
82.69800
  0
LINE
  8
Contour
 62
   7
 39
0.100
  6
CONTINUOUS
 10
43.43000
 20
82.69800
 30
 0
 11
43.46400
 21
82.71200
  0
LINE
  8
Contour
 62
   7
 39
0.100
  6
CONTINUOUS
 10
43.46400
 20
82.71200
 30
 0
 11
43.56500
 21
82.75600
  0
LINE
  8
Contour
 62
   7
 39
0.100
  6
CONTINUOUS
 10
43.56500
 20
82.75600
 30
 0
 11
43.61000
 21
82.77700
  0
LINE
  8
Contour
 62
   7
 39
0.100
  6
CONTINUOUS
 10
43.61000
 20
82.77700
 30
 0
 11
43.63400
 21
82.78800
  0
LINE
  8
Contour
 62
   7
 39
0.100
  6
CONTINUOUS
 10
43.63400
 20
82.78800
 30
 0
 11
43.73200
 21
82.83800
  0
LINE
  8
Contour
 62
   7
 39
0.100
  6
CONTINUOUS
 10
43.73200
 20
82.83800
 30
 0
 11
43.77600
 21
82.86200
  0
LINE
  8
Contour
 62
   7
 39
0.100
  6
CONTINUOUS
 10
43.77600
 20
82.86200
 30
 0
 11
43.80300
 21
82.87800
  0
LINE
  8
Contour
 62
   7
 39
0.100
  6
CONTINUOUS
 10
43.80300
 20
82.87800
 30
 0
 11
43.89700
 21
82.93400
  0
LINE
  8
Contour
 62
   7
 39
0.100
  6
CONTINUOUS
 10
43.89700
 20
82.93400
 30
 0
 11
43.95300
 21
82.97000
  0
LINE
  8
Contour
 62
   7
 39
0.100
  6
CONTINUOUS
 10
43.95300
 20
82.97000
 30
 0
 11
44.04400
 21
83.03100
  0
LINE
  8
Contour
 62
   7
 39
0.100
  6
CONTINUOUS
 10
44.04400
 20
83.03100
 30
 0
 11
44.08500
 21
83.05900
  0
LINE
  8
Contour
 62
   7
 39
0.100
  6
CONTINUOUS
 10
44.08500
 20
83.05900
 30
 0
 11
44.11800
 21
83.08400
  0
LINE
  8
Contour
 62
   7
 39
0.100
  6
CONTINUOUS
 10
44.11800
 20
83.08400
 30
 0
 11
44.20500
 21
83.15200
  0
LINE
  8
Contour
 62
   7
 39
0.100
  6
CONTINUOUS
 10
44.20500
 20
83.15200
 30
 0
 11
44.26100
 21
83.19800
  0
LINE
  8
Contour
 62
   7
 39
0.100
  6
CONTINUOUS
 10
44.26100
 20
83.19800
 30
 0
 11
44.34400
 21
83.27100
  0
LINE
  8
Contour
 62
   7
 39
0.100
  6
CONTINUOUS
 10
44.34400
 20
83.27100
 30
 0
 11
44.38100
 21
83.30500
  0
LINE
  8
Contour
 62
   7
 39
0.100
  6
CONTINUOUS
 10
44.38100
 20
83.30500
 30
 0
 11
44.47900
 21
83.40300
  0
LINE
  8
Contour
 62
   7
 39
0.100
  6
CONTINUOUS
 10
44.47900
 20
83.40300
 30
 0
 11
44.51400
 21
83.43900
  0
LINE
  8
Contour
 62
   7
 39
0.100
  6
CONTINUOUS
 10
44.51400
 20
83.43900
 30
 0
 11
44.53400
 21
83.46100
  0
LINE
  8
Contour
 62
   7
 39
0.100
  6
CONTINUOUS
 10
44.53400
 20
83.46100
 30
 0
 11
44.60700
 21
83.54400
  0
LINE
  8
Contour
 62
   7
 39
0.100
  6
CONTINUOUS
 10
44.60700
 20
83.54400
 30
 0
 11
44.65300
 21
83.60000
  0
LINE
  8
Contour
 62
   7
 39
0.100
  6
CONTINUOUS
 10
44.65300
 20
83.60000
 30
 0
 11
44.72100
 21
83.68700
  0
LINE
  8
Contour
 62
   7
 39
0.100
  6
CONTINUOUS
 10
44.72100
 20
83.68700
 30
 0
 11
44.75100
 21
83.72700
  0
LINE
  8
Contour
 62
   7
 39
0.100
  6
CONTINUOUS
 10
44.75100
 20
83.72700
 30
 0
 11
44.77400
 21
83.76100
  0
LINE
  8
Contour
 62
   7
 39
0.100
  6
CONTINUOUS
 10
44.77400
 20
83.76100
 30
 0
 11
44.83500
 21
83.85200
  0
LINE
  8
Contour
 62
   7
 39
0.100
  6
CONTINUOUS
 10
44.83500
 20
83.85200
 30
 0
 11
44.87100
 21
83.90800
  0
LINE
  8
Contour
 62
   7
 39
0.100
  6
CONTINUOUS
 10
44.87100
 20
83.90800
 30
 0
 11
44.92700
 21
84.00200
  0
LINE
  8
Contour
 62
   7
 39
0.100
  6
CONTINUOUS
 10
44.92700
 20
84.00200
 30
 0
 11
44.95200
 21
84.04500
  0
LINE
  8
Contour
 62
   7
 39
0.100
  6
CONTINUOUS
 10
44.95200
 20
84.04500
 30
 0
 11
44.96700
 21
84.07300
  0
LINE
  8
Contour
 62
   7
 39
0.100
  6
CONTINUOUS
 10
44.96700
 20
84.07300
 30
 0
 11
45.01700
 21
84.17100
  0
LINE
  8
Contour
 62
   7
 39
0.100
  6
CONTINUOUS
 10
45.01700
 20
84.17100
 30
 0
 11
45.03800
 21
84.21600
  0
LINE
  8
Contour
 62
   7
 39
0.100
  6
CONTINUOUS
 10
45.03800
 20
84.21600
 30
 0
 11
45.04900
 21
84.24000
  0
LINE
  8
Contour
 62
   7
 39
0.100
  6
CONTINUOUS
 10
45.04900
 20
84.24000
 30
 0
 11
45.09300
 21
84.34100
  0
LINE
  8
Contour
 62
   7
 39
0.100
  6
CONTINUOUS
 10
45.09300
 20
84.34100
 30
 0
 11
45.11200
 21
84.38700
  0
LINE
  8
Contour
 62
   7
 39
0.100
  6
CONTINUOUS
 10
45.11200
 20
84.38700
 30
 0
 11
45.12500
 21
84.42100
  0
LINE
  8
Contour
 62
   7
 39
0.100
  6
CONTINUOUS
 10
45.12500
 20
84.42100
 30
 0
 11
45.16200
 21
84.52500
  0
LINE
  8
Contour
 62
   7
 39
0.100
  6
CONTINUOUS
 10
45.16200
 20
84.52500
 30
 0
 11
45.18400
 21
84.59300
  0
LINE
  8
Contour
 62
   7
 39
0.100
  6
CONTINUOUS
 10
45.18400
 20
84.59300
 30
 0
 11
45.21500
 21
84.69900
  0
LINE
  8
Contour
 62
   7
 39
0.100
  6
CONTINUOUS
 10
45.21500
 20
84.69900
 30
 0
 11
45.22800
 21
84.74800
  0
LINE
  8
Contour
 62
   7
 39
0.100
  6
CONTINUOUS
 10
45.22800
 20
84.74800
 30
 0
 11
45.23500
 21
84.77700
  0
LINE
  8
Contour
 62
   7
 39
0.100
  6
CONTINUOUS
 10
45.23500
 20
84.77700
 30
 0
 11
45.25900
 21
84.88400
  0
LINE
  8
Contour
 62
   7
 39
0.100
  6
CONTINUOUS
 10
45.25900
 20
84.88400
 30
 0
 11
45.26900
 21
84.93300
  0
LINE
  8
Contour
 62
   7
 39
0.100
  6
CONTINUOUS
 10
45.26900
 20
84.93300
 30
 0
 11
45.27400
 21
84.96500
  0
LINE
  8
Contour
 62
   7
 39
0.100
  6
CONTINUOUS
 10
45.27400
 20
84.96500
 30
 0
 11
45.29100
 21
85.07400
  0
LINE
  8
Contour
 62
   7
 39
0.100
  6
CONTINUOUS
 10
45.29100
 20
85.07400
 30
 0
 11
45.30000
 21
85.14100
  0
LINE
  8
Contour
 62
   7
 39
0.100
  6
CONTINUOUS
 10
45.30000
 20
85.14100
 30
 0
 11
45.31100
 21
85.25000
  0
LINE
  8
Contour
 62
   7
 39
0.100
  6
CONTINUOUS
 10
45.31100
 20
85.25000
 30
 0
 11
45.31500
 21
85.29900
  0
LINE
  8
Contour
 62
   7
 39
0.100
  6
CONTINUOUS
 10
45.31500
 20
85.29900
 30
 0
 11
45.31700
 21
85.34100
  0
LINE
  8
Contour
 62
   7
 39
0.100
  6
CONTINUOUS
 10
45.31700
 20
85.34100
 30
 0
 11
45.32000
 21
85.45100
  0
LINE
  8
Contour
 62
   7
 39
0.100
  6
CONTINUOUS
 10
45.32000
 20
85.45100
 30
 0
 11
45.32000
 21
85.51900
  0
LINE
  8
Contour
 62
   7
 39
0.100
  6
CONTINUOUS
 10
45.32000
 20
85.51900
 30
 0
 11
45.31700
 21
85.62900
  0
LINE
  8
Contour
 62
   7
 39
0.100
  6
CONTINUOUS
 10
45.31700
 20
85.62900
 30
 0
 11
45.31400
 21
85.67900
  0
LINE
  8
Contour
 62
   7
 39
0.100
  6
CONTINUOUS
 10
45.31400
 20
85.67900
 30
 0
 11
45.31100
 21
85.72000
  0
LINE
  8
Contour
 62
   7
 39
0.100
  6
CONTINUOUS
 10
45.31100
 20
85.72000
 30
 0
 11
45.30000
 21
85.82900
  0
LINE
  8
Contour
 62
   7
 39
0.100
  6
CONTINUOUS
 10
45.30000
 20
85.82900
 30
 0
 11
45.29100
 21
85.89600
  0
LINE
  8
Contour
 62
   7
 39
0.100
  6
CONTINUOUS
 10
45.29100
 20
85.89600
 30
 0
 11
45.27400
 21
86.00500
  0
LINE
  8
Contour
 62
   7
 39
0.100
  6
CONTINUOUS
 10
45.27400
 20
86.00500
 30
 0
 11
45.26500
 21
86.05500
  0
LINE
  8
Contour
 62
   7
 39
0.100
  6
CONTINUOUS
 10
45.26500
 20
86.05500
 30
 0
 11
45.25900
 21
86.08600
  0
LINE
  8
Contour
 62
   7
 39
0.100
  6
CONTINUOUS
 10
45.25900
 20
86.08600
 30
 0
 11
45.23500
 21
86.19300
  0
LINE
  8
Contour
 62
   7
 39
0.100
  6
CONTINUOUS
 10
45.23500
 20
86.19300
 30
 0
 11
45.22300
 21
86.24200
  0
LINE
  8
Contour
 62
   7
 39
0.100
  6
CONTINUOUS
 10
45.22300
 20
86.24200
 30
 0
 11
45.21500
 21
86.27100
  0
LINE
  8
Contour
 62
   7
 39
0.100
  6
CONTINUOUS
 10
45.21500
 20
86.27100
 30
 0
 11
45.18400
 21
86.37700
  0
LINE
  8
Contour
 62
   7
 39
0.100
  6
CONTINUOUS
 10
45.18400
 20
86.37700
 30
 0
 11
45.16200
 21
86.44500
  0
LINE
  8
Contour
 62
   7
 39
0.100
  6
CONTINUOUS
 10
45.16200
 20
86.44500
 30
 0
 11
45.12500
 21
86.54900
  0
LINE
  8
Contour
 62
   7
 39
0.100
  6
CONTINUOUS
 10
45.12500
 20
86.54900
 30
 0
 11
45.10700
 21
86.59500
  0
LINE
  8
Contour
 62
   7
 39
0.100
  6
CONTINUOUS
 10
45.10700
 20
86.59500
 30
 0
 11
45.09300
 21
86.62900
  0
LINE
  8
Contour
 62
   7
 39
0.100
  6
CONTINUOUS
 10
45.09300
 20
86.62900
 30
 0
 11
45.04900
 21
86.73000
  0
LINE
  8
Contour
 62
   7
 39
0.100
  6
CONTINUOUS
 10
45.04900
 20
86.73000
 30
 0
 11
45.02800
 21
86.77500
  0
LINE
  8
Contour
 62
   7
 39
0.100
  6
CONTINUOUS
 10
45.02800
 20
86.77500
 30
 0
 11
45.01700
 21
86.79900
  0
LINE
  8
Contour
 62
   7
 39
0.100
  6
CONTINUOUS
 10
45.01700
 20
86.79900
 30
 0
 11
44.96700
 21
86.89700
  0
LINE
  8
Contour
 62
   7
 39
0.100
  6
CONTINUOUS
 10
44.96700
 20
86.89700
 30
 0
 11
44.94300
 21
86.94100
  0
LINE
  8
Contour
 62
   7
 39
0.100
  6
CONTINUOUS
 10
44.94300
 20
86.94100
 30
 0
 11
44.92700
 21
86.96800
  0
LINE
  8
Contour
 62
   7
 39
0.100
  6
CONTINUOUS
 10
44.92700
 20
86.96800
 30
 0
 11
44.87100
 21
87.06200
  0
LINE
  8
Contour
 62
   7
 39
0.100
  6
CONTINUOUS
 10
44.87100
 20
87.06200
 30
 0
 11
44.83500
 21
87.11800
  0
LINE
  8
Contour
 62
   7
 39
0.100
  6
CONTINUOUS
 10
44.83500
 20
87.11800
 30
 0
 11
44.77400
 21
87.20900
  0
LINE
  8
Contour
 62
   7
 39
0.100
  6
CONTINUOUS
 10
44.77400
 20
87.20900
 30
 0
 11
44.74600
 21
87.25000
  0
LINE
  8
Contour
 62
   7
 39
0.100
  6
CONTINUOUS
 10
44.74600
 20
87.25000
 30
 0
 11
44.72100
 21
87.28300
  0
LINE
  8
Contour
 62
   7
 39
0.100
  6
CONTINUOUS
 10
44.72100
 20
87.28300
 30
 0
 11
44.65300
 21
87.37000
  0
LINE
  8
Contour
 62
   7
 39
0.100
  6
CONTINUOUS
 10
44.65300
 20
87.37000
 30
 0
 11
44.60700
 21
87.42600
  0
LINE
  8
Contour
 62
   7
 39
0.100
  6
CONTINUOUS
 10
44.60700
 20
87.42600
 30
 0
 11
44.53400
 21
87.50900
  0
LINE
  8
Contour
 62
   7
 39
0.100
  6
CONTINUOUS
 10
44.53400
 20
87.50900
 30
 0
 11
44.50000
 21
87.54600
  0
LINE
  8
Contour
 62
   7
 39
0.100
  6
CONTINUOUS
 10
44.50000
 20
87.54600
 30
 0
 11
44.40200
 21
87.64400
  0
LINE
  8
Contour
 62
   7
 39
0.100
  6
CONTINUOUS
 10
44.40200
 20
87.64400
 30
 0
 11
44.36600
 21
87.67900
  0
LINE
  8
Contour
 62
   7
 39
0.100
  6
CONTINUOUS
 10
44.36600
 20
87.67900
 30
 0
 11
44.34400
 21
87.69900
  0
LINE
  8
Contour
 62
   7
 39
0.100
  6
CONTINUOUS
 10
44.34400
 20
87.69900
 30
 0
 11
44.26100
 21
87.77200
  0
LINE
  8
Contour
 62
   7
 39
0.100
  6
CONTINUOUS
 10
44.26100
 20
87.77200
 30
 0
 11
44.20500
 21
87.81800
  0
LINE
  8
Contour
 62
   7
 39
0.100
  6
CONTINUOUS
 10
44.20500
 20
87.81800
 30
 0
 11
44.11800
 21
87.88600
  0
LINE
  8
Contour
 62
   7
 39
0.100
  6
CONTINUOUS
 10
44.11800
 20
87.88600
 30
 0
 11
44.07800
 21
87.91600
  0
LINE
  8
Contour
 62
   7
 39
0.100
  6
CONTINUOUS
 10
44.07800
 20
87.91600
 30
 0
 11
44.04400
 21
87.93900
  0
LINE
  8
Contour
 62
   7
 39
0.100
  6
CONTINUOUS
 10
44.04400
 20
87.93900
 30
 0
 11
43.95300
 21
88.00000
  0
LINE
  8
Contour
 62
   7
 39
0.100
  6
CONTINUOUS
 10
43.95300
 20
88.00000
 30
 0
 11
43.89700
 21
88.03600
  0
LINE
  8
Contour
 62
   7
 39
0.100
  6
CONTINUOUS
 10
43.89700
 20
88.03600
 30
 0
 11
43.80300
 21
88.09200
  0
LINE
  8
Contour
 62
   7
 39
0.100
  6
CONTINUOUS
 10
43.80300
 20
88.09200
 30
 0
 11
43.76000
 21
88.11700
  0
LINE
  8
Contour
 62
   7
 39
0.100
  6
CONTINUOUS
 10
43.76000
 20
88.11700
 30
 0
 11
43.73200
 21
88.13200
  0
LINE
  8
Contour
 62
   7
 39
0.100
  6
CONTINUOUS
 10
43.73200
 20
88.13200
 30
 0
 11
43.63400
 21
88.18200
  0
LINE
  8
Contour
 62
   7
 39
0.100
  6
CONTINUOUS
 10
43.63400
 20
88.18200
 30
 0
 11
43.58900
 21
88.20300
  0
LINE
  8
Contour
 62
   7
 39
0.100
  6
CONTINUOUS
 10
43.58900
 20
88.20300
 30
 0
 11
43.56500
 21
88.21400
  0
LINE
  8
Contour
 62
   7
 39
0.100
  6
CONTINUOUS
 10
43.56500
 20
88.21400
 30
 0
 11
43.46400
 21
88.25800
  0
LINE
  8
Contour
 62
   7
 39
0.100
  6
CONTINUOUS
 10
43.46400
 20
88.25800
 30
 0
 11
43.41800
 21
88.27700
  0
LINE
  8
Contour
 62
   7
 39
0.100
  6
CONTINUOUS
 10
43.41800
 20
88.27700
 30
 0
 11
43.38400
 21
88.29000
  0
LINE
  8
Contour
 62
   7
 39
0.100
  6
CONTINUOUS
 10
43.38400
 20
88.29000
 30
 0
 11
43.28000
 21
88.32700
  0
LINE
  8
Contour
 62
   7
 39
0.100
  6
CONTINUOUS
 10
43.28000
 20
88.32700
 30
 0
 11
43.21200
 21
88.34900
  0
LINE
  8
Contour
 62
   7
 39
0.100
  6
CONTINUOUS
 10
43.21200
 20
88.34900
 30
 0
 11
43.10600
 21
88.38000
  0
LINE
  8
Contour
 62
   7
 39
0.100
  6
CONTINUOUS
 10
43.10600
 20
88.38000
 30
 0
 11
43.05700
 21
88.39300
  0
LINE
  8
Contour
 62
   7
 39
0.100
  6
CONTINUOUS
 10
43.05700
 20
88.39300
 30
 0
 11
43.02800
 21
88.40000
  0
LINE
  8
Contour
 62
   7
 39
0.100
  6
CONTINUOUS
 10
43.02800
 20
88.40000
 30
 0
 11
42.92100
 21
88.42400
  0
LINE
  8
Contour
 62
   7
 39
0.100
  6
CONTINUOUS
 10
42.92100
 20
88.42400
 30
 0
 11
42.87200
 21
88.43400
  0
LINE
  8
Contour
 62
   7
 39
0.100
  6
CONTINUOUS
 10
42.87200
 20
88.43400
 30
 0
 11
42.84000
 21
88.43900
  0
LINE
  8
Contour
 62
   7
 39
0.100
  6
CONTINUOUS
 10
42.84000
 20
88.43900
 30
 0
 11
42.73100
 21
88.45600
  0
LINE
  8
Contour
 62
   7
 39
0.100
  6
CONTINUOUS
 10
42.73100
 20
88.45600
 30
 0
 11
42.66400
 21
88.46500
  0
LINE
  8
Contour
 62
   7
 39
0.100
  6
CONTINUOUS
 10
42.66400
 20
88.46500
 30
 0
 11
42.55500
 21
88.47600
  0
LINE
  8
Contour
 62
   7
 39
0.100
  6
CONTINUOUS
 10
42.55500
 20
88.47600
 30
 0
 11
42.50600
 21
88.48000
  0
LINE
  8
Contour
 62
   7
 39
0.100
  6
CONTINUOUS
 10
42.50600
 20
88.48000
 30
 0
 11
42.46400
 21
88.48200
  0
LINE
  8
Contour
 62
   7
 39
0.100
  6
CONTINUOUS
 10
42.46400
 20
88.48200
 30
 0
 11
42.35400
 21
88.48500
  0
LINE
  8
Contour
 62
   7
 39
0.100
  6
CONTINUOUS
 10
42.35400
 20
88.48500
 30
 0
 11
42.28600
 21
88.48500
  0
LINE
  8
Contour
 62
   7
 39
0.100
  6
CONTINUOUS
 10
42.28600
 20
88.48500
 30
 0
 11
42.17600
 21
88.48200
  0
LINE
  8
Contour
 62
   7
 39
0.100
  6
CONTINUOUS
 10
42.17600
 20
88.48200
 30
 0
 11
42.12600
 21
88.47900
  0
LINE
  8
Contour
 62
   7
 39
0.100
  6
CONTINUOUS
 10
42.12600
 20
88.47900
 30
 0
 11
42.08500
 21
88.47600
  0
LINE
  8
Contour
 62
   7
 39
0.100
  6
CONTINUOUS
 10
42.08500
 20
88.47600
 30
 0
 11
41.97600
 21
88.46500
  0
LINE
  8
Contour
 62
   7
 39
0.100
  6
CONTINUOUS
 10
41.97600
 20
88.46500
 30
 0
 11
41.90900
 21
88.45600
  0
LINE
  8
Contour
 62
   7
 39
0.100
  6
CONTINUOUS
 10
41.90900
 20
88.45600
 30
 0
 11
41.80000
 21
88.43900
  0
LINE
  8
Contour
 62
   7
 39
0.100
  6
CONTINUOUS
 10
41.80000
 20
88.43900
 30
 0
 11
41.75000
 21
88.43000
  0
LINE
  8
Contour
 62
   7
 39
0.100
  6
CONTINUOUS
 10
41.75000
 20
88.43000
 30
 0
 11
41.71900
 21
88.42400
  0
LINE
  8
Contour
 62
   7
 39
0.100
  6
CONTINUOUS
 10
41.71900
 20
88.42400
 30
 0
 11
41.61200
 21
88.40000
  0
LINE
  8
Contour
 62
   7
 39
0.100
  6
CONTINUOUS
 10
41.61200
 20
88.40000
 30
 0
 11
41.56300
 21
88.38800
  0
LINE
  8
Contour
 62
   7
 39
0.100
  6
CONTINUOUS
 10
41.56300
 20
88.38800
 30
 0
 11
41.53400
 21
88.38000
  0
LINE
  8
Contour
 62
   7
 39
0.100
  6
CONTINUOUS
 10
41.53400
 20
88.38000
 30
 0
 11
41.42800
 21
88.34900
  0
LINE
  8
Contour
 62
   7
 39
0.100
  6
CONTINUOUS
 10
41.42800
 20
88.34900
 30
 0
 11
41.36000
 21
88.32700
  0
LINE
  8
Contour
 62
   7
 39
0.100
  6
CONTINUOUS
 10
41.36000
 20
88.32700
 30
 0
 11
41.25600
 21
88.29000
  0
LINE
  8
Contour
 62
   7
 39
0.100
  6
CONTINUOUS
 10
41.25600
 20
88.29000
 30
 0
 11
41.21000
 21
88.27200
  0
LINE
  8
Contour
 62
   7
 39
0.100
  6
CONTINUOUS
 10
41.21000
 20
88.27200
 30
 0
 11
41.17600
 21
88.25800
  0
LINE
  8
Contour
 62
   7
 39
0.100
  6
CONTINUOUS
 10
41.17600
 20
88.25800
 30
 0
 11
41.07500
 21
88.21400
  0
LINE
  8
Contour
 62
   7
 39
0.100
  6
CONTINUOUS
 10
41.07500
 20
88.21400
 30
 0
 11
41.03000
 21
88.19300
  0
LINE
  8
Contour
 62
   7
 39
0.100
  6
CONTINUOUS
 10
41.03000
 20
88.19300
 30
 0
 11
41.00600
 21
88.18200
  0
LINE
  8
Contour
 62
   7
 39
0.100
  6
CONTINUOUS
 10
41.00600
 20
88.18200
 30
 0
 11
40.90800
 21
88.13200
  0
LINE
  8
Contour
 62
   7
 39
0.100
  6
CONTINUOUS
 10
40.90800
 20
88.13200
 30
 0
 11
40.86400
 21
88.10800
  0
LINE
  8
Contour
 62
   7
 39
0.100
  6
CONTINUOUS
 10
40.86400
 20
88.10800
 30
 0
 11
40.83700
 21
88.09200
  0
LINE
  8
Contour
 62
   7
 39
0.100
  6
CONTINUOUS
 10
40.83700
 20
88.09200
 30
 0
 11
40.74300
 21
88.03600
  0
LINE
  8
Contour
 62
   7
 39
0.100
  6
CONTINUOUS
 10
40.74300
 20
88.03600
 30
 0
 11
40.68700
 21
88.00000
  0
LINE
  8
Contour
 62
   7
 39
0.100
  6
CONTINUOUS
 10
40.68700
 20
88.00000
 30
 0
 11
40.59600
 21
87.93900
  0
LINE
  8
Contour
 62
   7
 39
0.100
  6
CONTINUOUS
 10
40.59600
 20
87.93900
 30
 0
 11
40.55500
 21
87.91100
  0
LINE
  8
Contour
 62
   7
 39
0.100
  6
CONTINUOUS
 10
40.55500
 20
87.91100
 30
 0
 11
40.52200
 21
87.88600
  0
LINE
  8
Contour
 62
   7
 39
0.100
  6
CONTINUOUS
 10
40.52200
 20
87.88600
 30
 0
 11
40.43500
 21
87.81800
  0
LINE
  8
Contour
 62
   7
 39
0.100
  6
CONTINUOUS
 10
40.43500
 20
87.81800
 30
 0
 11
40.37900
 21
87.77200
  0
LINE
  8
Contour
 62
   7
 39
0.100
  6
CONTINUOUS
 10
40.37900
 20
87.77200
 30
 0
 11
40.29600
 21
87.69900
  0
LINE
  8
Contour
 62
   7
 39
0.100
  6
CONTINUOUS
 10
40.29600
 20
87.69900
 30
 0
 11
40.25900
 21
87.66500
  0
LINE
  8
Contour
 62
   7
 39
0.100
  6
CONTINUOUS
 10
40.25900
 20
87.66500
 30
 0
 11
40.16100
 21
87.56700
  0
LINE
  8
Contour
 62
   7
 39
0.100
  6
CONTINUOUS
 10
40.16100
 20
87.56700
 30
 0
 11
40.12600
 21
87.53100
  0
LINE
  8
Contour
 62
   7
 39
0.100
  6
CONTINUOUS
 10
40.12600
 20
87.53100
 30
 0
 11
40.10600
 21
87.50900
  0
LINE
  8
Contour
 62
   7
 39
0.100
  6
CONTINUOUS
 10
40.10600
 20
87.50900
 30
 0
 11
40.03300
 21
87.42600
  0
LINE
  8
Contour
 62
   7
 39
0.100
  6
CONTINUOUS
 10
40.03300
 20
87.42600
 30
 0
 11
39.98700
 21
87.37000
  0
LINE
  8
Contour
 62
   7
 39
0.100
  6
CONTINUOUS
 10
39.98700
 20
87.37000
 30
 0
 11
39.91900
 21
87.28300
  0
LINE
  8
Contour
 62
   7
 39
0.100
  6
CONTINUOUS
 10
39.91900
 20
87.28300
 30
 0
 11
39.88900
 21
87.24300
  0
LINE
  8
Contour
 62
   7
 39
0.100
  6
CONTINUOUS
 10
39.88900
 20
87.24300
 30
 0
 11
39.86600
 21
87.20900
  0
LINE
  8
Contour
 62
   7
 39
0.100
  6
CONTINUOUS
 10
39.86600
 20
87.20900
 30
 0
 11
39.80500
 21
87.11800
  0
LINE
  8
Contour
 62
   7
 39
0.100
  6
CONTINUOUS
 10
39.80500
 20
87.11800
 30
 0
 11
39.76900
 21
87.06200
  0
LINE
  8
Contour
 62
   7
 39
0.100
  6
CONTINUOUS
 10
39.76900
 20
87.06200
 30
 0
 11
39.71300
 21
86.96800
  0
LINE
  8
Contour
 62
   7
 39
0.100
  6
CONTINUOUS
 10
39.71300
 20
86.96800
 30
 0
 11
39.68800
 21
86.92500
  0
LINE
  8
Contour
 62
   7
 39
0.100
  6
CONTINUOUS
 10
39.68800
 20
86.92500
 30
 0
 11
39.67300
 21
86.89700
  0
LINE
  8
Contour
 62
   7
 39
0.100
  6
CONTINUOUS
 10
39.67300
 20
86.89700
 30
 0
 11
39.62300
 21
86.79900
  0
LINE
  8
Contour
 62
   7
 39
0.100
  6
CONTINUOUS
 10
39.62300
 20
86.79900
 30
 0
 11
39.60200
 21
86.75400
  0
LINE
  8
Contour
 62
   7
 39
0.100
  6
CONTINUOUS
 10
39.60200
 20
86.75400
 30
 0
 11
39.59100
 21
86.73000
  0
LINE
  8
Contour
 62
   7
 39
0.100
  6
CONTINUOUS
 10
39.59100
 20
86.73000
 30
 0
 11
39.54700
 21
86.62900
  0
LINE
  8
Contour
 62
   7
 39
0.100
  6
CONTINUOUS
 10
39.54700
 20
86.62900
 30
 0
 11
39.52800
 21
86.58300
  0
LINE
  8
Contour
 62
   7
 39
0.100
  6
CONTINUOUS
 10
39.52800
 20
86.58300
 30
 0
 11
39.51500
 21
86.54900
  0
LINE
  8
Contour
 62
   7
 39
0.100
  6
CONTINUOUS
 10
39.51500
 20
86.54900
 30
 0
 11
39.47800
 21
86.44500
  0
LINE
  8
Contour
 62
   7
 39
0.100
  6
CONTINUOUS
 10
39.47800
 20
86.44500
 30
 0
 11
39.45600
 21
86.37700
  0
LINE
  8
Contour
 62
   7
 39
0.100
  6
CONTINUOUS
 10
39.45600
 20
86.37700
 30
 0
 11
39.42500
 21
86.27100
  0
LINE
  8
Contour
 62
   7
 39
0.100
  6
CONTINUOUS
 10
39.42500
 20
86.27100
 30
 0
 11
39.41200
 21
86.22200
  0
LINE
  8
Contour
 62
   7
 39
0.100
  6
CONTINUOUS
 10
39.41200
 20
86.22200
 30
 0
 11
39.40500
 21
86.19300
  0
LINE
  8
Contour
 62
   7
 39
0.100
  6
CONTINUOUS
 10
39.40500
 20
86.19300
 30
 0
 11
39.38100
 21
86.08600
  0
LINE
  8
Contour
 62
   7
 39
0.100
  6
CONTINUOUS
 10
39.38100
 20
86.08600
 30
 0
 11
39.37100
 21
86.03700
  0
LINE
  8
Contour
 62
   7
 39
0.100
  6
CONTINUOUS
 10
39.37100
 20
86.03700
 30
 0
 11
39.36600
 21
86.00500
  0
LINE
  8
Contour
 62
   7
 39
0.100
  6
CONTINUOUS
 10
39.36600
 20
86.00500
 30
 0
 11
39.34900
 21
85.89600
  0
LINE
  8
Contour
 62
   7
 39
0.100
  6
CONTINUOUS
 10
39.34900
 20
85.89600
 30
 0
 11
39.34000
 21
85.82900
  0
LINE
  8
Contour
 62
   7
 39
0.100
  6
CONTINUOUS
 10
39.34000
 20
85.82900
 30
 0
 11
39.32900
 21
85.72000
  0
LINE
  8
Contour
 62
   7
 39
0.100
  6
CONTINUOUS
 10
39.32900
 20
85.72000
 30
 0
 11
39.32500
 21
85.67100
  0
LINE
  8
Contour
 62
   7
 39
0.100
  6
CONTINUOUS
 10
39.32500
 20
85.67100
 30
 0
 11
39.32300
 21
85.62900
  0
LINE
  8
Contour
 62
   7
 39
0.100
  6
CONTINUOUS
 10
39.32300
 20
85.62900
 30
 0
 11
39.32000
 21
85.51900
  0
LINE
  8
Contour
 62
   7
 39
0.100
  6
CONTINUOUS
 10
39.32000
 20
85.51900
 30
 0
 11
39.32000
 21
85.45100
  0
LINE
  8
Contour
 62
   7
 39
0.100
  6
CONTINUOUS
 10
39.32000
 20
85.45100
 30
 0
 11
39.32300
 21
85.34100
  0
LINE
  8
Contour
 62
   7
 39
0.100
  6
CONTINUOUS
 10
39.32300
 20
85.34100
 30
 0
 11
39.32600
 21
85.29100
  0
LINE
  8
Contour
 62
   7
 39
0.100
  6
CONTINUOUS
 10
39.32600
 20
85.29100
 30
 0
 11
39.32900
 21
85.25000
  0
LINE
  8
Contour
 62
   7
 39
0.100
  6
CONTINUOUS
 10
39.32900
 20
85.25000
 30
 0
 11
39.34000
 21
85.14100
  0
LINE
  8
Contour
 62
   7
 39
0.100
  6
CONTINUOUS
 10
39.34000
 20
85.14100
 30
 0
 11
39.34900
 21
85.07400
  0
LINE
  8
Contour
 62
   7
 39
0.100
  6
CONTINUOUS
 10
39.34900
 20
85.07400
 30
 0
 11
39.36600
 21
84.96500
  0
LINE
  8
Contour
 62
   7
 39
0.100
  6
CONTINUOUS
 10
39.36600
 20
84.96500
 30
 0
 11
39.37500
 21
84.91500
  0
LINE
  8
Contour
 62
   7
 39
0.100
  6
CONTINUOUS
 10
39.37500
 20
84.91500
 30
 0
 11
39.38100
 21
84.88400
  0
LINE
  8
Contour
 62
   7
 39
0.100
  6
CONTINUOUS
 10
39.38100
 20
84.88400
 30
 0
 11
39.40500
 21
84.77700
  0
LINE
  8
Contour
 62
   7
 39
0.100
  6
CONTINUOUS
 10
39.40500
 20
84.77700
 30
 0
 11
39.41700
 21
84.72800
  0
LINE
  8
Contour
 62
   7
 39
0.100
  6
CONTINUOUS
 10
39.41700
 20
84.72800
 30
 0
 11
39.42500
 21
84.69900
  0
LINE
  8
Contour
 62
   7
 39
0.100
  6
CONTINUOUS
 10
39.42500
 20
84.69900
 30
 0
 11
39.45600
 21
84.59300
  0
LINE
  8
Contour
 62
   7
 39
0.100
  6
CONTINUOUS
 10
39.45600
 20
84.59300
 30
 0
 11
39.47800
 21
84.52500
  0
LINE
  8
Contour
 62
   7
 39
0.100
  6
CONTINUOUS
 10
39.47800
 20
84.52500
 30
 0
 11
39.51500
 21
84.42100
  0
LINE
  8
Contour
 62
   7
 39
0.100
  6
CONTINUOUS
 10
39.51500
 20
84.42100
 30
 0
 11
39.53300
 21
84.37500
  0
LINE
  8
Contour
 62
   7
 39
0.100
  6
CONTINUOUS
 10
39.53300
 20
84.37500
 30
 0
 11
39.54700
 21
84.34100
  0
LINE
  8
Contour
 62
   7
 39
0.100
  6
CONTINUOUS
 10
39.54700
 20
84.34100
 30
 0
 11
39.59100
 21
84.24000
  0
LINE
  8
Contour
 62
   7
 39
0.100
  6
CONTINUOUS
 10
39.59100
 20
84.24000
 30
 0
 11
39.61200
 21
84.19500
  0
LINE
  8
Contour
 62
   7
 39
0.100
  6
CONTINUOUS
 10
39.61200
 20
84.19500
 30
 0
 11
39.62300
 21
84.17100
  0
LINE
  8
Contour
 62
   7
 39
0.100
  6
CONTINUOUS
 10
39.62300
 20
84.17100
 30
 0
 11
39.67300
 21
84.07300
  0
LINE
  8
Contour
 62
   7
 39
0.100
  6
CONTINUOUS
 10
39.67300
 20
84.07300
 30
 0
 11
39.69700
 21
84.02900
  0
LINE
  8
Contour
 62
   7
 39
0.100
  6
CONTINUOUS
 10
39.69700
 20
84.02900
 30
 0
 11
39.71300
 21
84.00200
  0
LINE
  8
Contour
 62
   7
 39
0.100
  6
CONTINUOUS
 10
39.71300
 20
84.00200
 30
 0
 11
39.76900
 21
83.90800
  0
LINE
  8
Contour
 62
   7
 39
0.100
  6
CONTINUOUS
 10
39.76900
 20
83.90800
 30
 0
 11
39.80500
 21
83.85200
  0
LINE
  8
Contour
 62
   7
 39
0.100
  6
CONTINUOUS
 10
39.80500
 20
83.85200
 30
 0
 11
39.86600
 21
83.76100
  0
LINE
  8
Contour
 62
   7
 39
0.100
  6
CONTINUOUS
 10
39.86600
 20
83.76100
 30
 0
 11
39.89400
 21
83.72000
  0
LINE
  8
Contour
 62
   7
 39
0.100
  6
CONTINUOUS
 10
39.89400
 20
83.72000
 30
 0
 11
39.91900
 21
83.68700
  0
LINE
  8
Contour
 62
   7
 39
0.100
  6
CONTINUOUS
 10
39.91900
 20
83.68700
 30
 0
 11
39.98700
 21
83.60000
  0
LINE
  8
Contour
 62
   7
 39
0.100
  6
CONTINUOUS
 10
39.98700
 20
83.60000
 30
 0
 11
40.03300
 21
83.54400
  0
LINE
  8
Contour
 62
   7
 39
0.100
  6
CONTINUOUS
 10
40.03300
 20
83.54400
 30
 0
 11
40.10600
 21
83.46100
  0
LINE
  8
Contour
 62
   7
 39
0.100
  6
CONTINUOUS
 10
40.10600
 20
83.46100
 30
 0
 11
40.14000
 21
83.42400
  0
LINE
  8
Contour
 62
   7
 39
0.100
  6
CONTINUOUS
 10
40.14000
 20
83.42400
 30
 0
 11
40.23800
 21
83.32600
  0
LINE
  8
Contour
 62
   7
 39
0.100
  6
CONTINUOUS
 10
40.23800
 20
83.32600
 30
 0
 11
40.27400
 21
83.29100
  0
LINE
  8
Contour
 62
   7
 39
0.100
  6
CONTINUOUS
 10
40.27400
 20
83.29100
 30
 0
 11
40.29600
 21
83.27100
  0
LINE
  8
Contour
 62
   7
 39
0.100
  6
CONTINUOUS
 10
40.29600
 20
83.27100
 30
 0
 11
40.37900
 21
83.19800
  0
LINE
  8
Contour
 62
   7
 39
0.100
  6
CONTINUOUS
 10
40.37900
 20
83.19800
 30
 0
 11
40.43500
 21
83.15200
  0
LINE
  8
Contour
 62
   7
 39
0.100
  6
CONTINUOUS
 10
40.43500
 20
83.15200
 30
 0
 11
40.52200
 21
83.08400
  0
LINE
  8
Contour
 62
   7
 39
0.100
  6
CONTINUOUS
 10
40.52200
 20
83.08400
 30
 0
 11
40.56200
 21
83.05400
  0
LINE
  8
Contour
 62
   7
 39
0.100
  6
CONTINUOUS
 10
40.56200
 20
83.05400
 30
 0
 11
40.59600
 21
83.03100
  0
LINE
  8
Contour
 62
   7
 39
0.100
  6
CONTINUOUS
 10
40.59600
 20
83.03100
 30
 0
 11
40.68700
 21
82.97000
  0
LINE
  8
Contour
 62
   7
 39
0.100
  6
CONTINUOUS
 10
40.68700
 20
82.97000
 30
 0
 11
40.74300
 21
82.93400
  0
LINE
  8
Contour
 62
   7
 39
0.100
  6
CONTINUOUS
 10
40.74300
 20
82.93400
 30
 0
 11
40.83700
 21
82.87800
  0
LINE
  8
Contour
 62
   7
 39
0.100
  6
CONTINUOUS
 10
40.83700
 20
82.87800
 30
 0
 11
40.88000
 21
82.85300
  0
LINE
  8
Contour
 62
   7
 39
0.100
  6
CONTINUOUS
 10
40.88000
 20
82.85300
 30
 0
 11
40.90800
 21
82.83800
  0
LINE
  8
Contour
 62
   7
 39
0.100
  6
CONTINUOUS
 10
40.90800
 20
82.83800
 30
 0
 11
41.00600
 21
82.78800
  0
LINE
  8
Contour
 62
   7
 39
0.100
  6
CONTINUOUS
 10
41.00600
 20
82.78800
 30
 0
 11
41.05100
 21
82.76700
  0
LINE
  8
Contour
 62
   7
 39
0.100
  6
CONTINUOUS
 10
41.05100
 20
82.76700
 30
 0
 11
41.07500
 21
82.75600
  0
LINE
  8
Contour
 62
   7
 39
0.100
  6
CONTINUOUS
 10
41.07500
 20
82.75600
 30
 0
 11
41.17600
 21
82.71200
  0
LINE
  8
Contour
 62
   7
 39
0.100
  6
CONTINUOUS
 10
41.17600
 20
82.71200
 30
 0
 11
41.22200
 21
82.69300
  0
LINE
  8
Contour
 62
   7
 39
0.100
  6
CONTINUOUS
 10
41.22200
 20
82.69300
 30
 0
 11
41.25600
 21
82.68000
  0
LINE
  8
Contour
 62
   7
 39
0.100
  6
CONTINUOUS
 10
41.25600
 20
82.68000
 30
 0
 11
41.36000
 21
82.64300
  0
LINE
  8
Contour
 62
   7
 39
0.100
  6
CONTINUOUS
 10
41.36000
 20
82.64300
 30
 0
 11
41.42800
 21
82.62100
  0
LINE
  8
Contour
 62
   7
 39
0.100
  6
CONTINUOUS
 10
41.42800
 20
82.62100
 30
 0
 11
41.53400
 21
82.59000
  0
LINE
  8
Contour
 62
   7
 39
0.100
  6
CONTINUOUS
 10
41.53400
 20
82.59000
 30
 0
 11
41.58300
 21
82.57700
  0
LINE
  8
Contour
 62
   7
 39
0.100
  6
CONTINUOUS
 10
41.58300
 20
82.57700
 30
 0
 11
41.61200
 21
82.57000
  0
LINE
  8
Contour
 62
   7
 39
0.100
  6
CONTINUOUS
 10
41.61200
 20
82.57000
 30
 0
 11
41.71900
 21
82.54600
  0
LINE
  8
Contour
 62
   7
 39
0.100
  6
CONTINUOUS
 10
41.71900
 20
82.54600
 30
 0
 11
41.76800
 21
82.53600
  0
LINE
  8
Contour
 62
   7
 39
0.100
  6
CONTINUOUS
 10
41.76800
 20
82.53600
 30
 0
 11
41.80000
 21
82.53100
  0
LINE
  8
Contour
 62
   7
 39
0.100
  6
CONTINUOUS
 10
41.80000
 20
82.53100
 30
 0
 11
41.90900
 21
82.51400
  0
LINE
  8
Contour
 62
   7
 39
0.100
  6
CONTINUOUS
 10
41.90900
 20
82.51400
 30
 0
 11
41.97600
 21
82.50500
  0
LINE
  8
Contour
 62
   7
 39
0.100
  6
CONTINUOUS
 10
41.97600
 20
82.50500
 30
 0
 11
42.08500
 21
82.49400
  0
LINE
  8
Contour
 62
   7
 39
0.100
  6
CONTINUOUS
 10
42.08500
 20
82.49400
 30
 0
 11
42.13400
 21
82.49000
  0
LINE
  8
Contour
 62
   7
 39
0.100
  6
CONTINUOUS
 10
42.13400
 20
82.49000
 30
 0
 11
42.17600
 21
82.48800
  0
LINE
  8
Contour
 62
   7
 39
0.100
  6
CONTINUOUS
 10
42.17600
 20
82.48800
 30
 0
 11
42.28600
 21
82.48500
  0
LINE
  8
Contour
 62
   7
 39
0.100
  6
CONTINUOUS
 10
42.28600
 20
82.48500
 30
 0
 11
42.35400
 21
82.48500
  0
LINE
  8
Contour
 62
   7
 39
0.100
  6
CONTINUOUS
 10
42.35400
 20
82.48500
 30
 0
 11
42.46400
 21
82.48800
  0
CIRCLE
  8
Contour
 62
   7
 39
0.100
  6
CONTINUOUS
 10
42.32000
 20
85.48500
 30
 0
 40
1.75100
  0
ARC
  8
Contour
 62
   7
 39
0.100
  6
CONTINUOUS
 10
20.32000
 20
36.98500
 30
 0
 40
1.50000
 50
180.00000
 51
270.00000
  0
LINE
  8
Contour
 62
   7
 39
0.100
  6
CONTINUOUS
 10
20.32000
 20
35.48500
 30
 0
 11
35.32000
 21
35.48500
  0
ARC
  8
Contour
 62
   7
 39
0.100
  6
CONTINUOUS
 10
35.32000
 20
36.98500
 30
 0
 40
1.50000
 50
270.00000
 51
360.00000
  0
LINE
  8
Contour
 62
   7
 39
0.100
  6
CONTINUOUS
 10
36.82000
 20
36.98500
 30
 0
 11
36.82000
 21
45.98500
  0
ARC
  8
Contour
 62
   7
 39
0.100
  6
CONTINUOUS
 10
35.32000
 20
45.98500
 30
 0
 40
1.50000
 50
0.00000
 51
90.00000
  0
LINE
  8
Contour
 62
   7
 39
0.100
  6
CONTINUOUS
 10
35.32000
 20
47.48500
 30
 0
 11
20.32000
 21
47.48500
  0
ARC
  8
Contour
 62
   7
 39
0.100
  6
CONTINUOUS
 10
20.32000
 20
45.98500
 30
 0
 40
1.50000
 50
90.00000
 51
180.00000
  0
LINE
  8
Contour
 62
   7
 39
0.100
  6
CONTINUOUS
 10
18.82000
 20
45.98500
 30
 0
 11
18.82000
 21
36.98500
  0
CIRCLE
  8
Contour
 62
   7
 39
0.100
  6
CONTINUOUS
 10
12.82000
 20
41.48500
 30
 0
 40
2.00000
  0
CIRCLE
  8
Contour
 62
   7
 39
0.100
  6
CONTINUOUS
 10
42.82000
 20
41.48500
 30
 0
 40
2.00000
  0
LINE
  8
Reference_points
 62
   1
 39
0.100
  6
CONTINUOUS
 10
-1.00000
 20
0.00000
 30
 0
 11
1.00000
 21
0.00000
  0
LINE
  8
Reference_points
 62
   1
 39
0.100
  6
CONTINUOUS
 10
0.00000
 20
-1.00000
 30
 0
 11
0.00000
 21
1.00000
  0
LINE
  8
Reference_points
 62
   1
 39
0.100
  6
CONTINUOUS
 10
6.50000
 20
125.50000
 30
 0
 11
8.50000
 21
125.50000
  0
LINE
  8
Reference_points
 62
   1
 39
0.100
  6
CONTINUOUS
 10
7.50000
 20
124.50000
 30
 0
 11
7.50000
 21
126.50000
  0
LINE
  8
Reference_points
 62
   1
 39
0.100
  6
CONTINUOUS
 10
6.50000
 20
3.00000
 30
 0
 11
8.50000
 21
3.00000
  0
LINE
  8
Reference_points
 62
   1
 39
0.100
  6
CONTINUOUS
 10
7.50000
 20
2.00000
 30
 0
 11
7.50000
 21
4.00000
  0
LINE
  8
Reference_points
 62
   1
 39
0.100
  6
CONTINUOUS
 10
47.14000
 20
125.50000
 30
 0
 11
49.14000
 21
125.50000
  0
LINE
  8
Reference_points
 62
   1
 39
0.100
  6
CONTINUOUS
 10
48.14000
 20
124.50000
 30
 0
 11
48.14000
 21
126.50000
  0
LINE
  8
Reference_points
 62
   1
 39
0.100
  6
CONTINUOUS
 10
47.14000
 20
3.00000
 30
 0
 11
49.14000
 21
3.00000
  0
LINE
  8
Reference_points
 62
   1
 39
0.100
  6
CONTINUOUS
 10
48.14000
 20
2.00000
 30
 0
 11
48.14000
 21
4.00000
  0
LINE
  8
Reference_points
 62
   1
 39
0.100
  6
CONTINUOUS
 10
26.82000
 20
85.48500
 30
 0
 11
28.82000
 21
85.48500
  0
LINE
  8
Reference_points
 62
   1
 39
0.100
  6
CONTINUOUS
 10
27.82000
 20
84.48500
 30
 0
 11
27.82000
 21
86.48500
  0
LINE
  8
Reference_points
 62
   1
 39
0.100
  6
CONTINUOUS
 10
12.32000
 20
85.48500
 30
 0
 11
14.32000
 21
85.48500
  0
LINE
  8
Reference_points
 62
   1
 39
0.100
  6
CONTINUOUS
 10
13.32000
 20
84.48500
 30
 0
 11
13.32000
 21
86.48500
  0
LINE
  8
Reference_points
 62
   1
 39
0.100
  6
CONTINUOUS
 10
41.32000
 20
85.48500
 30
 0
 11
43.32000
 21
85.48500
  0
LINE
  8
Reference_points
 62
   1
 39
0.100
  6
CONTINUOUS
 10
42.32000
 20
84.48500
 30
 0
 11
42.32000
 21
86.48500
  0
LINE
  8
Reference_points
 62
   1
 39
0.100
  6
CONTINUOUS
 10
26.82000
 20
85.48500
 30
 0
 11
28.82000
 21
85.48500
  0
LINE
  8
Reference_points
 62
   1
 39
0.100
  6
CONTINUOUS
 10
27.82000
 20
84.48500
 30
 0
 11
27.82000
 21
86.48500
  0
LINE
  8
Reference_points
 62
   1
 39
0.100
  6
CONTINUOUS
 10
26.82000
 20
41.48500
 30
 0
 11
28.82000
 21
41.48500
  0
LINE
  8
Reference_points
 62
   1
 39
0.100
  6
CONTINUOUS
 10
27.82000
 20
40.48500
 30
 0
 11
27.82000
 21
42.48500
  0
LINE
  8
Reference_points
 62
   1
 39
0.100
  6
CONTINUOUS
 10
11.82000
 20
41.48500
 30
 0
 11
13.82000
 21
41.48500
  0
LINE
  8
Reference_points
 62
   1
 39
0.100
  6
CONTINUOUS
 10
12.82000
 20
40.48500
 30
 0
 11
12.82000
 21
42.48500
  0
LINE
  8
Reference_points
 62
   1
 39
0.100
  6
CONTINUOUS
 10
41.82000
 20
41.48500
 30
 0
 11
43.82000
 21
41.48500
  0
LINE
  8
Reference_points
 62
   1
 39
0.100
  6
CONTINUOUS
 10
42.82000
 20
40.48500
 30
 0
 11
42.82000
 21
42.48500
  0
LINE
  8
Reference_points
 62
   1
 39
0.100
  6
CONTINUOUS
 10
26.82000
 20
41.48500
 30
 0
 11
28.82000
 21
41.48500
  0
LINE
  8
Reference_points
 62
   1
 39
0.100
  6
CONTINUOUS
 10
27.82000
 20
40.48500
 30
 0
 11
27.82000
 21
42.48500
  0
LINE
  8
Reference_points
 62
   1
 39
0.100
  6
CONTINUOUS
 10
26.82000
 20
64.23500
 30
 0
 11
28.82000
 21
64.23500
  0
LINE
  8
Reference_points
 62
   1
 39
0.100
  6
CONTINUOUS
 10
27.82000
 20
63.23500
 30
 0
 11
27.82000
 21
65.23500
  0
ENDSEC
  0
EOF
