<?xml version="1.0" encoding="UTF-8" standalone="no"?>
<svg
   xmlns:dc="http://purl.org/dc/elements/1.1/"
   xmlns:cc="http://creativecommons.org/ns#"
   xmlns:rdf="http://www.w3.org/1999/02/22-rdf-syntax-ns#"
   xmlns:svg="http://www.w3.org/2000/svg"
   xmlns="http://www.w3.org/2000/svg"
   xmlns:sodipodi="http://sodipodi.sourceforge.net/DTD/sodipodi-0.dtd"
   xmlns:inkscape="http://www.inkscape.org/namespaces/inkscape"
   id="svg"
   version="1.1"
   width="1.3in"
   height="1.9in"
   style="display:block"
   sodipodi:docname="st7735-4.svg"
   inkscape:version="0.92.2 5c3e80d, 2017-08-06">
  <metadata
     id="metadata23">
    <rdf:RDF>
      <cc:Work
         rdf:about="">
        <dc:format>image/svg+xml</dc:format>
        <dc:type
           rdf:resource="http://purl.org/dc/dcmitype/StillImage" />
        <dc:title></dc:title>
      </cc:Work>
    </rdf:RDF>
  </metadata>
  <defs
     id="defs21" />
  <sodipodi:namedview
     pagecolor="#ffffff"
     bordercolor="#666666"
     borderopacity="1"
     objecttolerance="10"
     gridtolerance="10"
     guidetolerance="10"
     inkscape:pageopacity="0"
     inkscape:pageshadow="2"
     inkscape:window-width="2560"
     inkscape:window-height="1418"
     id="namedview19"
     showgrid="true"
     inkscape:snap-global="true"
     inkscape:snap-bbox="true"
     inkscape:bbox-nodes="true"
     inkscape:snap-bbox-edge-midpoints="true"
     inkscape:snap-bbox-midpoints="true"
     inkscape:snap-nodes="true"
     inkscape:measure-start="75.5,243.875"
     inkscape:measure-end="85.3516,243.89"
     inkscape:zoom="2"
     inkscape:cx="-132.84851"
     inkscape:cy="123.46261"
     inkscape:window-x="0"
     inkscape:window-y="56"
     inkscape:window-maximized="0"
     inkscape:current-layer="layer2"
     inkscape:bbox-paths="true"
     units="in"
     inkscape:snap-intersection-paths="true"
     inkscape:snap-object-midpoints="true"
     inkscape:snap-center="true">
    <inkscape:grid
       type="xygrid"
       id="grid5144"
       originx="4.8"
       originy="3.36"
       units="in"
       spacingx="9.6"
       spacingy="9.6" />
  </sodipodi:namedview>
  <g
     inkscape:groupmode="layer"
     id="layer2"
     inkscape:label="Layer 2"
     style="display:inline"
     transform="translate(0,-429.14727)">
    <g
       id="g1025"
       transform="translate(-57.599998,67.200014)">
      <path
         sodipodi:nodetypes="ccccccccc"
         inkscape:connector-curvature="0"
         id="path27"
         d="m 62.61513,363.64282 c 104.66366,0.0407 104.66366,0.0407 104.66366,0.0407 l 3.20016,4.13527 v 0 l -0.0491,13.46768 -111.488394,-0.0491 v -13.5117 0 z"
         style="display:block;opacity:1;fill:#236c97;fill-opacity:1;stroke:none;stroke-width:0.28878513px;stroke-linecap:butt;stroke-linejoin:miter;stroke-opacity:1" />
      <ellipse
         ry="6.2102404"
         rx="6.2605247"
         cy="372.37479"
         cx="67.510918"
         id="path31"
         style="display:block;opacity:1;fill:#7a7879;fill-opacity:1;stroke-width:0.29638204" />
      <ellipse
         ry="4.5005374"
         rx="4.6513939"
         cy="372.42508"
         cx="67.385201"
         id="path843"
         style="display:block;opacity:1;fill:#ffffff;fill-opacity:0.93981479;stroke-width:0.30932063" />
      <ellipse
         style="display:block;opacity:1;fill:#7a7879;fill-opacity:1;stroke-width:0.29638204"
         id="ellipse855"
         cx="161.32205"
         cy="372.37479"
         rx="6.2605247"
         ry="6.2102404" />
      <ellipse
         style="display:block;opacity:1;fill:#ffffff;fill-opacity:0.93981479;stroke-width:0.30932063"
         id="ellipse857"
         cx="161.19635"
         cy="372.42508"
         rx="4.6513939"
         ry="4.5005374" />
      <ellipse
         ry="3.0991502"
         rx="3.328826"
         cy="368.18726"
         cx="110.37479"
         id="path4549"
         style="display:block;opacity:1;fill:#ffffff;fill-opacity:1;stroke:none;stroke-width:0.28878513;stroke-opacity:1" />
      <ellipse
         style="display:block;opacity:1;fill:#ffffff;fill-opacity:1;stroke:none;stroke-width:0.28878513;stroke-opacity:1"
         id="ellipse4551"
         cx="100.78319"
         cy="368.18726"
         rx="3.328826"
         ry="3.0991502" />
      <ellipse
         ry="3.0991502"
         rx="3.328826"
         cy="368.18726"
         cx="91.191597"
         id="ellipse4553"
         style="display:block;opacity:1;fill:#ffffff;fill-opacity:1;stroke:none;stroke-width:0.28878513;stroke-opacity:1" />
      <ellipse
         style="display:block;opacity:1;fill:#ffffff;fill-opacity:1;stroke:none;stroke-width:0.28878513;stroke-opacity:1"
         id="ellipse4555"
         cx="81.599998"
         cy="368.18726"
         rx="3.328826"
         ry="3.0991502" />
      <ellipse
         style="display:block;opacity:1;fill:#ffffff;fill-opacity:1;stroke:none;stroke-width:0.28878513;stroke-opacity:1"
         id="ellipse4557"
         cx="119.96638"
         cy="368.18726"
         rx="3.328826"
         ry="3.0991502" />
      <ellipse
         ry="3.0991502"
         rx="3.328826"
         cy="368.18726"
         cx="129.55798"
         id="ellipse4559"
         style="display:block;opacity:1;fill:#ffffff;fill-opacity:1;stroke:none;stroke-width:0.28878513;stroke-opacity:1" />
      <ellipse
         style="display:block;opacity:1;fill:#ffffff;fill-opacity:1;stroke:none;stroke-width:0.28878513;stroke-opacity:1"
         id="ellipse4561"
         cx="139.14957"
         cy="368.18726"
         rx="3.328826"
         ry="3.0991502" />
      <ellipse
         ry="3.0991502"
         rx="3.328826"
         cy="368.06226"
         cx="148.74117"
         id="ellipse4563"
         style="display:block;opacity:1;fill:#ffffff;fill-opacity:1;stroke:none;stroke-width:0.28878513;stroke-opacity:1" />
      <g
         id="text4567"
         style="font-style:normal;font-variant:normal;font-weight:normal;font-stretch:normal;font-size:5.00560904px;line-height:1.25;font-family:STIXIntegralsUp;-inkscape-font-specification:'STIXIntegralsUp, Normal';font-variant-ligatures:normal;font-variant-caps:normal;font-variant-numeric:normal;font-feature-settings:normal;text-align:start;letter-spacing:0px;word-spacing:0px;writing-mode:lr-tb;text-anchor:start;display:block;fill:#000000;fill-opacity:1;stroke:none;stroke-width:0.28878513"
         aria-label="GND">
        <path
           inkscape:connector-curvature="0"
           id="path944"
           style="font-style:normal;font-variant:normal;font-weight:normal;font-stretch:normal;font-size:4.23551559px;font-family:'PT Sans';-inkscape-font-specification:'PT Sans, Normal';font-variant-ligatures:normal;font-variant-caps:normal;font-variant-numeric:normal;font-feature-settings:normal;text-align:start;writing-mode:lr-tb;text-anchor:start;fill:#fffdff;fill-opacity:1;stroke-width:0.28878513"
           d="m 78.852932,376.95116 h 0.995347 v 1.30454 q -0.06777,0.0508 -0.165186,0.0932 -0.09318,0.0423 -0.203304,0.072 -0.105888,0.0297 -0.224483,0.0424 -0.114359,0.0169 -0.224482,0.0169 -0.283779,0 -0.520968,-0.089 -0.237189,-0.0932 -0.410845,-0.27954 -0.173657,-0.1906 -0.271073,-0.47862 -0.09742,-0.29225 -0.09742,-0.68615 0,-0.41084 0.118594,-0.70309 0.118595,-0.29225 0.309193,-0.47438 0.190598,-0.18636 0.427787,-0.27107 0.237189,-0.0847 0.474378,-0.0847 0.254131,0 0.419316,0.0297 0.165185,0.0254 0.279544,0.072 l -0.08895,0.30919 q -0.203305,-0.0974 -0.580266,-0.0974 -0.177891,0 -0.355783,0.0635 -0.173656,0.0593 -0.313428,0.2033 -0.139772,0.14401 -0.228718,0.37696 -0.08895,0.23295 -0.08895,0.57603 0,0.31343 0.072,0.54215 0.072,0.22872 0.199069,0.38119 0.131301,0.14825 0.313428,0.22449 0.182127,0.072 0.398139,0.072 0.271073,0 0.461671,-0.10589 v -0.82592 l -0.694625,-0.0847 z" />
        <path
           inkscape:connector-curvature="0"
           id="path946"
           style="font-style:normal;font-variant:normal;font-weight:normal;font-stretch:normal;font-size:4.23551559px;font-family:'PT Sans';-inkscape-font-specification:'PT Sans, Normal';font-variant-ligatures:normal;font-variant-caps:normal;font-variant-numeric:normal;font-feature-settings:normal;text-align:start;writing-mode:lr-tb;text-anchor:start;fill:#fffdff;fill-opacity:1;stroke-width:0.28878513"
           d="m 80.976316,376.48949 -0.228718,-0.42779 h -0.01694 l 0.04236,0.42779 v 1.93986 h -0.33037 v -3.01145 h 0.186362 l 1.418898,1.97799 0.220247,0.40661 h 0.02118 l -0.04659,-0.40661 v -1.9314 h 0.33037 v 3.01145 h -0.186363 z" />
        <path
           inkscape:connector-curvature="0"
           id="path948"
           style="font-style:normal;font-variant:normal;font-weight:normal;font-stretch:normal;font-size:4.23551559px;font-family:'PT Sans';-inkscape-font-specification:'PT Sans, Normal';font-variant-ligatures:normal;font-variant-caps:normal;font-variant-numeric:normal;font-feature-settings:normal;text-align:start;writing-mode:lr-tb;text-anchor:start;fill:#fffdff;fill-opacity:1;stroke-width:0.28878513"
           d="m 83.29665,375.46449 q 0.08048,-0.0127 0.177892,-0.0169 0.101652,-0.008 0.20754,-0.008 0.110123,-0.004 0.211776,-0.004 0.105888,-0.004 0.194833,-0.004 0.355784,0 0.61415,0.11012 0.262602,0.11012 0.432023,0.30919 0.16942,0.19484 0.249895,0.47015 0.08471,0.2753 0.08471,0.60567 0,0.30073 -0.08048,0.58027 -0.07624,0.27531 -0.24566,0.49132 -0.169421,0.21177 -0.440494,0.34308 -0.271073,0.12706 -0.656505,0.12706 -0.06777,0 -0.177891,-0.004 -0.105888,0 -0.220247,-0.008 -0.114359,-0.004 -0.211776,-0.008 -0.09742,-0.004 -0.139772,-0.0127 z m 0.800512,0.27954 q -0.05506,0 -0.122829,0 -0.06353,0 -0.127066,0.004 -0.06353,0.004 -0.118594,0.008 -0.05083,0.004 -0.08048,0.008 v 2.37189 q 0.02118,0.004 0.08048,0.008 0.0593,0 0.12283,0.004 0.06353,0 0.12283,0.004 0.0593,0 0.08047,0 0.296486,0 0.495556,-0.10165 0.203304,-0.10165 0.321899,-0.27107 0.12283,-0.17366 0.173656,-0.39391 0.05083,-0.22448 0.05083,-0.46167 0,-0.20754 -0.04659,-0.41508 -0.04659,-0.21177 -0.160949,-0.38119 -0.114359,-0.16942 -0.309193,-0.27531 -0.190598,-0.11013 -0.482849,-0.11013 z" />
      </g>
      <g
         id="text4575"
         style="font-style:normal;font-variant:normal;font-weight:normal;font-stretch:normal;font-size:5.00560904px;line-height:1.25;font-family:STIXIntegralsUp;-inkscape-font-specification:'STIXIntegralsUp, Normal';font-variant-ligatures:normal;font-variant-caps:normal;font-variant-numeric:normal;font-feature-settings:normal;text-align:start;letter-spacing:0px;word-spacing:0px;writing-mode:lr-tb;text-anchor:start;display:block;fill:#000000;fill-opacity:1;stroke:none;stroke-width:0.28878513"
         aria-label="VCC">
        <path
           inkscape:connector-curvature="0"
           id="path937"
           style="font-style:normal;font-variant:normal;font-weight:normal;font-stretch:normal;font-size:4.23551559px;font-family:'PT Sans';-inkscape-font-specification:'PT Sans, Normal';font-variant-ligatures:normal;font-variant-caps:normal;font-variant-numeric:normal;font-feature-settings:normal;text-align:start;writing-mode:lr-tb;text-anchor:start;fill:#fffdff;fill-opacity:1;stroke-width:0.28878513"
           d="m 88.786911,377.50177 0.101653,0.44897 h 0.0042 l 0.110124,-0.45744 0.715802,-2.02881 h 0.351548 l -1.122412,3.01145 h -0.156714 l -1.143589,-3.01145 h 0.385432 z" />
        <path
           inkscape:connector-curvature="0"
           id="path939"
           style="font-style:normal;font-variant:normal;font-weight:normal;font-stretch:normal;font-size:4.23551559px;font-family:'PT Sans';-inkscape-font-specification:'PT Sans, Normal';font-variant-ligatures:normal;font-variant-caps:normal;font-variant-numeric:normal;font-feature-settings:normal;text-align:start;writing-mode:lr-tb;text-anchor:start;fill:#fffdff;fill-opacity:1;stroke-width:0.28878513"
           d="m 92.213311,378.30652 q -0.127065,0.0974 -0.321899,0.13554 -0.194834,0.0381 -0.41508,0.0381 -0.266838,0 -0.499791,-0.089 -0.232954,-0.0932 -0.40661,-0.27954 -0.173656,-0.18636 -0.275308,-0.47438 -0.101653,-0.29225 -0.101653,-0.69039 0,-0.41508 0.110124,-0.70309 0.114359,-0.29225 0.296486,-0.47438 0.186363,-0.18636 0.41508,-0.27107 0.228718,-0.0847 0.465907,-0.0847 0.254131,0 0.415081,0.0297 0.160949,0.0254 0.275308,0.072 l -0.08471,0.30919 q -0.203305,-0.0974 -0.580266,-0.0974 -0.173656,0 -0.343077,0.0635 -0.16942,0.0635 -0.304957,0.20754 -0.131301,0.144 -0.211775,0.37696 -0.08047,0.23295 -0.08047,0.57179 0,0.30496 0.07624,0.53368 0.07624,0.22871 0.20754,0.38119 0.135537,0.15248 0.313428,0.22872 0.182128,0.0762 0.393903,0.0762 0.190599,0 0.330371,-0.0381 0.144007,-0.0381 0.241424,-0.0974 z" />
        <path
           inkscape:connector-curvature="0"
           id="path941"
           style="font-style:normal;font-variant:normal;font-weight:normal;font-stretch:normal;font-size:4.23551559px;font-family:'PT Sans';-inkscape-font-specification:'PT Sans, Normal';font-variant-ligatures:normal;font-variant-caps:normal;font-variant-numeric:normal;font-feature-settings:normal;text-align:start;writing-mode:lr-tb;text-anchor:start;fill:#fffdff;fill-opacity:1;stroke-width:0.28878513"
           d="m 94.521336,378.30652 q -0.127065,0.0974 -0.321899,0.13554 -0.194834,0.0381 -0.415081,0.0381 -0.266837,0 -0.49979,-0.089 -0.232954,-0.0932 -0.40661,-0.27954 -0.173656,-0.18636 -0.275308,-0.47438 -0.101653,-0.29225 -0.101653,-0.69039 0,-0.41508 0.110124,-0.70309 0.114359,-0.29225 0.296486,-0.47438 0.186362,-0.18636 0.41508,-0.27107 0.228718,-0.0847 0.465907,-0.0847 0.254131,0 0.41508,0.0297 0.16095,0.0254 0.275309,0.072 l -0.08471,0.30919 q -0.203305,-0.0974 -0.580266,-0.0974 -0.173656,0 -0.343077,0.0635 -0.16942,0.0635 -0.304957,0.20754 -0.131301,0.144 -0.211776,0.37696 -0.08047,0.23295 -0.08047,0.57179 0,0.30496 0.07624,0.53368 0.07624,0.22871 0.20754,0.38119 0.135537,0.15248 0.313428,0.22872 0.182127,0.0762 0.393903,0.0762 0.190598,0 0.33037,-0.0381 0.144008,-0.0381 0.241425,-0.0974 z" />
      </g>
      <g
         id="text4579"
         style="font-style:normal;font-variant:normal;font-weight:normal;font-stretch:normal;font-size:5.00560904px;line-height:1.25;font-family:STIXIntegralsUp;-inkscape-font-specification:'STIXIntegralsUp, Normal';font-variant-ligatures:normal;font-variant-caps:normal;font-variant-numeric:normal;font-feature-settings:normal;text-align:start;letter-spacing:0px;word-spacing:0px;writing-mode:lr-tb;text-anchor:start;display:block;fill:#000000;fill-opacity:1;stroke:none;stroke-width:0.28878513"
         aria-label="SCL">
        <path
           inkscape:connector-curvature="0"
           id="path930"
           style="font-style:normal;font-variant:normal;font-weight:normal;font-stretch:normal;font-size:4.23551559px;font-family:'PT Sans';-inkscape-font-specification:'PT Sans, Normal';font-variant-ligatures:normal;font-variant-caps:normal;font-variant-numeric:normal;font-feature-settings:normal;text-align:start;writing-mode:lr-tb;text-anchor:start;fill:#fffdff;fill-opacity:1;stroke-width:0.28878513"
           d="m 98.78032,377.67543 q 0,-0.17789 -0.105887,-0.28802 -0.105888,-0.11435 -0.266838,-0.19906 -0.156714,-0.089 -0.343077,-0.16519 -0.186362,-0.0762 -0.347312,-0.18213 -0.156714,-0.11012 -0.262602,-0.26683 -0.105888,-0.16095 -0.105888,-0.40661 0,-0.34732 0.241425,-0.55062 0.241424,-0.20331 0.686153,-0.20331 0.258367,0 0.470142,0.0381 0.211776,0.0381 0.330371,0.0974 l -0.105888,0.30919 q -0.09742,-0.0466 -0.288015,-0.0889 -0.186363,-0.0424 -0.423552,-0.0424 -0.279544,0 -0.419316,0.12707 -0.139772,0.12283 -0.139772,0.29225 0,0.16518 0.105888,0.27531 0.105888,0.11012 0.262602,0.19907 0.160949,0.0847 0.347312,0.16942 0.186363,0.0847 0.343077,0.19907 0.160949,0.11012 0.266837,0.26683 0.105888,0.15672 0.105888,0.38967 0,0.1906 -0.06777,0.34308 -0.06777,0.15248 -0.199069,0.2626 -0.131301,0.11012 -0.317664,0.16942 -0.186363,0.0593 -0.423552,0.0593 -0.317663,0 -0.525203,-0.0508 -0.207541,-0.0466 -0.3219,-0.10589 l 0.118595,-0.31766 q 0.09742,0.0551 0.288015,0.11012 0.190598,0.0508 0.427787,0.0508 0.139772,0 0.262602,-0.0254 0.12283,-0.0297 0.211776,-0.089 0.08895,-0.0635 0.139772,-0.15671 0.05506,-0.0932 0.05506,-0.22025 z" />
        <path
           inkscape:connector-curvature="0"
           id="path932"
           style="font-style:normal;font-variant:normal;font-weight:normal;font-stretch:normal;font-size:4.23551559px;font-family:'PT Sans';-inkscape-font-specification:'PT Sans, Normal';font-variant-ligatures:normal;font-variant-caps:normal;font-variant-numeric:normal;font-feature-settings:normal;text-align:start;writing-mode:lr-tb;text-anchor:start;fill:#fffdff;fill-opacity:1;stroke-width:0.28878513"
           d="m 101.58953,378.30652 q -0.12707,0.0974 -0.3219,0.13554 -0.19484,0.0381 -0.41508,0.0381 -0.26684,0 -0.49979,-0.089 -0.23296,-0.0932 -0.406614,-0.27954 -0.173656,-0.18636 -0.275308,-0.47438 -0.101653,-0.29225 -0.101653,-0.69039 0,-0.41508 0.110124,-0.70309 0.114359,-0.29225 0.296486,-0.47438 0.186365,-0.18636 0.415085,-0.27107 0.22871,-0.0847 0.4659,-0.0847 0.25413,0 0.41508,0.0297 0.16095,0.0254 0.27531,0.072 l -0.0847,0.30919 q -0.2033,-0.0974 -0.58026,-0.0974 -0.17366,0 -0.34308,0.0635 -0.16942,0.0635 -0.30496,0.20754 -0.1313,0.144 -0.21177,0.37696 -0.08048,0.23295 -0.08048,0.57179 0,0.30496 0.07624,0.53368 0.0762,0.22871 0.20754,0.38119 0.13554,0.15248 0.31343,0.22872 0.18213,0.0762 0.3939,0.0762 0.1906,0 0.33037,-0.0381 0.14401,-0.0381 0.24143,-0.0974 z" />
        <path
           inkscape:connector-curvature="0"
           id="path934"
           style="font-style:normal;font-variant:normal;font-weight:normal;font-stretch:normal;font-size:4.23551559px;font-family:'PT Sans';-inkscape-font-specification:'PT Sans, Normal';font-variant-ligatures:normal;font-variant-caps:normal;font-variant-numeric:normal;font-feature-settings:normal;text-align:start;writing-mode:lr-tb;text-anchor:start;fill:#fffdff;fill-opacity:1;stroke-width:0.28878513"
           d="m 103.86109,378.42935 h -1.75351 v -2.96486 h 0.35155 v 2.65143 h 1.40196 z" />
      </g>
      <g
         id="text4583"
         style="font-style:normal;font-variant:normal;font-weight:normal;font-stretch:normal;font-size:5.00560904px;line-height:1.25;font-family:STIXIntegralsUp;-inkscape-font-specification:'STIXIntegralsUp, Normal';font-variant-ligatures:normal;font-variant-caps:normal;font-variant-numeric:normal;font-feature-settings:normal;text-align:start;letter-spacing:0px;word-spacing:0px;writing-mode:lr-tb;text-anchor:start;display:block;fill:#000000;fill-opacity:1;stroke:none;stroke-width:0.28878513"
         aria-label="SDA">
        <path
           inkscape:connector-curvature="0"
           id="path923"
           style="font-style:normal;font-variant:normal;font-weight:normal;font-stretch:normal;font-size:4.23551559px;font-family:'PT Sans';-inkscape-font-specification:'PT Sans, Normal';font-variant-ligatures:normal;font-variant-caps:normal;font-variant-numeric:normal;font-feature-settings:normal;text-align:start;writing-mode:lr-tb;text-anchor:start;fill:#fffdff;fill-opacity:1;stroke-width:0.28878513"
           d="m 107.97549,377.67543 q 0,-0.17789 -0.10589,-0.28802 -0.10589,-0.11435 -0.26684,-0.19906 -0.15671,-0.089 -0.34307,-0.16519 -0.18637,-0.0762 -0.34732,-0.18213 -0.15671,-0.11012 -0.2626,-0.26683 -0.10589,-0.16095 -0.10589,-0.40661 0,-0.34732 0.24143,-0.55062 0.24142,-0.20331 0.68615,-0.20331 0.25837,0 0.47014,0.0381 0.21178,0.0381 0.33037,0.0974 l -0.10588,0.30919 q -0.0974,-0.0466 -0.28802,-0.0889 -0.18636,-0.0424 -0.42355,-0.0424 -0.27954,0 -0.41932,0.12707 -0.13977,0.12283 -0.13977,0.29225 0,0.16518 0.10589,0.27531 0.10589,0.11012 0.2626,0.19907 0.16095,0.0847 0.34731,0.16942 0.18637,0.0847 0.34308,0.19907 0.16095,0.11012 0.26684,0.26683 0.10589,0.15672 0.10589,0.38967 0,0.1906 -0.0678,0.34308 -0.0678,0.15248 -0.19907,0.2626 -0.1313,0.11012 -0.31767,0.16942 -0.18636,0.0593 -0.42355,0.0593 -0.31766,0 -0.5252,-0.0508 -0.20754,-0.0466 -0.3219,-0.10589 l 0.11859,-0.31766 q 0.0974,0.0551 0.28802,0.11012 0.1906,0.0508 0.42779,0.0508 0.13977,0 0.2626,-0.0254 0.12283,-0.0297 0.21177,-0.089 0.089,-0.0635 0.13978,-0.15671 0.0551,-0.0932 0.0551,-0.22025 z" />
        <path
           inkscape:connector-curvature="0"
           id="path925"
           style="font-style:normal;font-variant:normal;font-weight:normal;font-stretch:normal;font-size:4.23551559px;font-family:'PT Sans';-inkscape-font-specification:'PT Sans, Normal';font-variant-ligatures:normal;font-variant-caps:normal;font-variant-numeric:normal;font-feature-settings:normal;text-align:start;writing-mode:lr-tb;text-anchor:start;fill:#fffdff;fill-opacity:1;stroke-width:0.28878513"
           d="m 108.88718,375.46449 q 0.0805,-0.0127 0.17789,-0.0169 0.10166,-0.008 0.20754,-0.008 0.11013,-0.004 0.21178,-0.004 0.10589,-0.004 0.19483,-0.004 0.35579,0 0.61415,0.11012 0.26261,0.11012 0.43203,0.30919 0.16942,0.19484 0.24989,0.47015 0.0847,0.2753 0.0847,0.60567 0,0.30073 -0.0805,0.58027 -0.0762,0.27531 -0.24566,0.49132 -0.16942,0.21177 -0.4405,0.34308 -0.27107,0.12706 -0.6565,0.12706 -0.0678,0 -0.17789,-0.004 -0.10589,0 -0.22025,-0.008 -0.11436,-0.004 -0.21178,-0.008 -0.0974,-0.004 -0.13977,-0.0127 z m 0.80052,0.27954 q -0.0551,0 -0.12283,0 -0.0635,0 -0.12707,0.004 -0.0635,0.004 -0.11859,0.008 -0.0508,0.004 -0.0805,0.008 v 2.37189 q 0.0212,0.004 0.0805,0.008 0.0593,0 0.12283,0.004 0.0635,0 0.12283,0.004 0.0593,0 0.0805,0 0.29649,0 0.49556,-0.10165 0.2033,-0.10165 0.32189,-0.27107 0.12283,-0.17366 0.17366,-0.39391 0.0508,-0.22448 0.0508,-0.46167 0,-0.20754 -0.0466,-0.41508 -0.0466,-0.21177 -0.16095,-0.38119 -0.11436,-0.16942 -0.3092,-0.27531 -0.19059,-0.11013 -0.48284,-0.11013 z" />
        <path
           inkscape:connector-curvature="0"
           id="path927"
           style="font-style:normal;font-variant:normal;font-weight:normal;font-stretch:normal;font-size:4.23551559px;font-family:'PT Sans';-inkscape-font-specification:'PT Sans, Normal';font-variant-ligatures:normal;font-variant-caps:normal;font-variant-numeric:normal;font-feature-settings:normal;text-align:start;writing-mode:lr-tb;text-anchor:start;fill:#fffdff;fill-opacity:1;stroke-width:0.28878513"
           d="m 112.96135,377.60766 h -1.09276 l -0.29649,0.82169 h -0.34731 l 1.12241,-3.01145 h 0.16095 l 1.12665,3.01145 h -0.36849 z m -0.9784,-0.30496 h 0.87251 l -0.33037,-0.90216 -0.10588,-0.44896 h -0.004 l -0.10589,0.45743 z" />
      </g>
      <g
         id="text4587"
         style="font-style:normal;font-variant:normal;font-weight:normal;font-stretch:normal;font-size:5.00560904px;line-height:1.25;font-family:STIXIntegralsUp;-inkscape-font-specification:'STIXIntegralsUp, Normal';font-variant-ligatures:normal;font-variant-caps:normal;font-variant-numeric:normal;font-feature-settings:normal;text-align:start;letter-spacing:0px;word-spacing:0px;writing-mode:lr-tb;text-anchor:start;display:block;fill:#000000;fill-opacity:1;stroke:none;stroke-width:0.28878513"
         aria-label="RES">
        <path
           inkscape:connector-curvature="0"
           id="path916"
           style="font-style:normal;font-variant:normal;font-weight:normal;font-stretch:normal;font-size:4.23551559px;font-family:'PT Sans';-inkscape-font-specification:'PT Sans, Normal';font-variant-ligatures:normal;font-variant-caps:normal;font-variant-numeric:normal;font-feature-settings:normal;text-align:start;writing-mode:lr-tb;text-anchor:start;fill:#fffdff;fill-opacity:1;stroke-width:0.28878513"
           d="m 116.29792,375.49414 q 0.16095,-0.0297 0.36849,-0.0466 0.21177,-0.0169 0.38543,-0.0169 0.19483,0 0.36849,0.0423 0.17789,0.0424 0.30919,0.13977 0.13554,0.0974 0.21601,0.25413 0.0805,0.15672 0.0805,0.3812 0,0.34731 -0.1906,0.56332 -0.1906,0.21602 -0.48285,0.28802 l 0.2033,0.15671 0.73698,1.17324 H 117.882 l -0.81746,-1.27912 -0.41508,-0.0635 v 1.34266 h -0.35154 z m 0.76239,0.24142 q -0.0551,0 -0.11436,0 -0.0593,0 -0.11436,0.004 -0.0551,0.004 -0.10589,0.008 -0.0466,0.004 -0.0762,0.0127 v 1.09276 h 0.33037 q 0.29225,0 0.48285,-0.14401 0.1906,-0.14401 0.1906,-0.44896 0,-0.22872 -0.15671,-0.37696 -0.15672,-0.14825 -0.43626,-0.14825 z" />
        <path
           inkscape:connector-curvature="0"
           id="path918"
           style="font-style:normal;font-variant:normal;font-weight:normal;font-stretch:normal;font-size:4.23551559px;font-family:'PT Sans';-inkscape-font-specification:'PT Sans, Normal';font-variant-ligatures:normal;font-variant-caps:normal;font-variant-numeric:normal;font-feature-settings:normal;text-align:start;writing-mode:lr-tb;text-anchor:start;fill:#fffdff;fill-opacity:1;stroke-width:0.28878513"
           d="m 118.82103,375.46449 h 1.61373 v 0.31343 h -1.26219 v 0.96993 h 1.1563 v 0.31343 h -1.1563 v 1.05464 h 1.28336 v 0.31343 h -1.6349 z" />
        <path
           inkscape:connector-curvature="0"
           id="path920"
           style="font-style:normal;font-variant:normal;font-weight:normal;font-stretch:normal;font-size:4.23551559px;font-family:'PT Sans';-inkscape-font-specification:'PT Sans, Normal';font-variant-ligatures:normal;font-variant-caps:normal;font-variant-numeric:normal;font-feature-settings:normal;text-align:start;writing-mode:lr-tb;text-anchor:start;fill:#fffdff;fill-opacity:1;stroke-width:0.28878513"
           d="m 122.42611,377.67543 q 0,-0.17789 -0.10589,-0.28802 -0.10588,-0.11435 -0.26683,-0.19906 -0.15672,-0.089 -0.34308,-0.16519 -0.18636,-0.0762 -0.34731,-0.18213 -0.15672,-0.11012 -0.26261,-0.26683 -0.10588,-0.16095 -0.10588,-0.40661 0,-0.34732 0.24142,-0.55062 0.24143,-0.20331 0.68615,-0.20331 0.25837,0 0.47015,0.0381 0.21177,0.0381 0.33037,0.0974 l -0.10589,0.30919 q -0.0974,-0.0466 -0.28802,-0.0889 -0.18636,-0.0424 -0.42355,-0.0424 -0.27954,0 -0.41931,0.12707 -0.13978,0.12283 -0.13978,0.29225 0,0.16518 0.10589,0.27531 0.10589,0.11012 0.2626,0.19907 0.16095,0.0847 0.34732,0.16942 0.18636,0.0847 0.34307,0.19907 0.16095,0.11012 0.26684,0.26683 0.10589,0.15672 0.10589,0.38967 0,0.1906 -0.0678,0.34308 -0.0678,0.15248 -0.19907,0.2626 -0.1313,0.11012 -0.31766,0.16942 -0.18637,0.0593 -0.42355,0.0593 -0.31767,0 -0.52521,-0.0508 -0.20754,-0.0466 -0.3219,-0.10589 l 0.1186,-0.31766 q 0.0974,0.0551 0.28801,0.11012 0.1906,0.0508 0.42779,0.0508 0.13977,0 0.2626,-0.0254 0.12283,-0.0297 0.21178,-0.089 0.0889,-0.0635 0.13977,-0.15671 0.0551,-0.0932 0.0551,-0.22025 z" />
      </g>
      <g
         id="text4591"
         style="font-style:normal;font-variant:normal;font-weight:normal;font-stretch:normal;font-size:5.00560904px;line-height:1.25;font-family:STIXIntegralsUp;-inkscape-font-specification:'STIXIntegralsUp, Normal';font-variant-ligatures:normal;font-variant-caps:normal;font-variant-numeric:normal;font-feature-settings:normal;text-align:start;letter-spacing:0px;word-spacing:0px;writing-mode:lr-tb;text-anchor:start;display:block;fill:#000000;fill-opacity:1;stroke:none;stroke-width:0.28878513"
         aria-label="DC">
        <path
           inkscape:connector-curvature="0"
           id="path911"
           style="font-style:normal;font-variant:normal;font-weight:normal;font-stretch:normal;font-size:4.23551559px;font-family:'PT Sans';-inkscape-font-specification:'PT Sans, Normal';font-variant-ligatures:normal;font-variant-caps:normal;font-variant-numeric:normal;font-feature-settings:normal;text-align:start;writing-mode:lr-tb;text-anchor:start;fill:#fffdff;fill-opacity:1;stroke-width:0.28878513"
           d="m 126.68785,375.46449 q 0.0805,-0.0127 0.17789,-0.0169 0.10165,-0.008 0.20754,-0.008 0.11012,-0.004 0.21177,-0.004 0.10589,-0.004 0.19484,-0.004 0.35578,0 0.61415,0.11012 0.2626,0.11012 0.43202,0.30919 0.16942,0.19484 0.2499,0.47015 0.0847,0.2753 0.0847,0.60567 0,0.30073 -0.0805,0.58027 -0.0762,0.27531 -0.24566,0.49132 -0.16942,0.21177 -0.44049,0.34308 -0.27108,0.12706 -0.65651,0.12706 -0.0678,0 -0.17789,-0.004 -0.10589,0 -0.22025,-0.008 -0.11435,-0.004 -0.21177,-0.008 -0.0974,-0.004 -0.13977,-0.0127 z m 0.80051,0.27954 q -0.0551,0 -0.12283,0 -0.0635,0 -0.12707,0.004 -0.0635,0.004 -0.11859,0.008 -0.0508,0.004 -0.0805,0.008 v 2.37189 q 0.0212,0.004 0.0805,0.008 0.0593,0 0.12283,0.004 0.0635,0 0.12283,0.004 0.0593,0 0.0805,0 0.29649,0 0.49556,-0.10165 0.2033,-0.10165 0.3219,-0.27107 0.12283,-0.17366 0.17365,-0.39391 0.0508,-0.22448 0.0508,-0.46167 0,-0.20754 -0.0466,-0.41508 -0.0466,-0.21177 -0.16095,-0.38119 -0.11436,-0.16942 -0.30919,-0.27531 -0.1906,-0.11013 -0.48285,-0.11013 z" />
        <path
           inkscape:connector-curvature="0"
           id="path913"
           style="font-style:normal;font-variant:normal;font-weight:normal;font-stretch:normal;font-size:4.23551559px;font-family:'PT Sans';-inkscape-font-specification:'PT Sans, Normal';font-variant-ligatures:normal;font-variant-caps:normal;font-variant-numeric:normal;font-feature-settings:normal;text-align:start;writing-mode:lr-tb;text-anchor:start;fill:#fffdff;fill-opacity:1;stroke-width:0.28878513"
           d="m 131.35664,378.30652 q -0.12706,0.0974 -0.3219,0.13554 -0.19483,0.0381 -0.41508,0.0381 -0.26684,0 -0.49979,-0.089 -0.23295,-0.0932 -0.40661,-0.27954 -0.17365,-0.18636 -0.27531,-0.47438 -0.10165,-0.29225 -0.10165,-0.69039 0,-0.41508 0.11012,-0.70309 0.11436,-0.29225 0.29649,-0.47438 0.18636,-0.18636 0.41508,-0.27107 0.22872,-0.0847 0.46591,-0.0847 0.25413,0 0.41508,0.0297 0.16095,0.0254 0.27531,0.072 l -0.0847,0.30919 q -0.20331,-0.0974 -0.58027,-0.0974 -0.17366,0 -0.34308,0.0635 -0.16942,0.0635 -0.30495,0.20754 -0.1313,0.144 -0.21178,0.37696 -0.0805,0.23295 -0.0805,0.57179 0,0.30496 0.0762,0.53368 0.0762,0.22871 0.20754,0.38119 0.13553,0.15248 0.31342,0.22872 0.18213,0.0762 0.39391,0.0762 0.1906,0 0.33037,-0.0381 0.144,-0.0381 0.24142,-0.0974 z" />
      </g>
      <g
         id="text4599"
         style="font-style:normal;font-variant:normal;font-weight:normal;font-stretch:normal;font-size:5.00560904px;line-height:1.25;font-family:STIXIntegralsUp;-inkscape-font-specification:'STIXIntegralsUp, Normal';font-variant-ligatures:normal;font-variant-caps:normal;font-variant-numeric:normal;font-feature-settings:normal;text-align:start;letter-spacing:0px;word-spacing:0px;writing-mode:lr-tb;text-anchor:start;display:block;fill:#000000;fill-opacity:1;stroke:none;stroke-width:0.28878513"
         aria-label="CS">
        <path
           inkscape:connector-curvature="0"
           id="path906"
           style="font-style:normal;font-variant:normal;font-weight:normal;font-stretch:normal;font-size:4.23551559px;font-family:'PT Sans';-inkscape-font-specification:'PT Sans, Normal';font-variant-ligatures:normal;font-variant-caps:normal;font-variant-numeric:normal;font-feature-settings:normal;text-align:start;writing-mode:lr-tb;text-anchor:start;fill:#fffdff;fill-opacity:1;stroke-width:0.28878513"
           d="m 138.41286,378.30652 q -0.12706,0.0974 -0.32189,0.13554 -0.19484,0.0381 -0.41509,0.0381 -0.26683,0 -0.49979,-0.089 -0.23295,-0.0932 -0.40661,-0.27954 -0.17365,-0.18636 -0.2753,-0.47438 -0.10166,-0.29225 -0.10166,-0.69039 0,-0.41508 0.11013,-0.70309 0.11436,-0.29225 0.29648,-0.47438 0.18637,-0.18636 0.41508,-0.27107 0.22872,-0.0847 0.46591,-0.0847 0.25413,0 0.41508,0.0297 0.16095,0.0254 0.27531,0.072 l -0.0847,0.30919 q -0.20331,-0.0974 -0.58027,-0.0974 -0.17365,0 -0.34307,0.0635 -0.16942,0.0635 -0.30496,0.20754 -0.1313,0.144 -0.21178,0.37696 -0.0805,0.23295 -0.0805,0.57179 0,0.30496 0.0762,0.53368 0.0762,0.22871 0.20754,0.38119 0.13553,0.15248 0.31343,0.22872 0.18212,0.0762 0.3939,0.0762 0.1906,0 0.33037,-0.0381 0.14401,-0.0381 0.24142,-0.0974 z" />
        <path
           inkscape:connector-curvature="0"
           id="path908"
           style="font-style:normal;font-variant:normal;font-weight:normal;font-stretch:normal;font-size:4.23551559px;font-family:'PT Sans';-inkscape-font-specification:'PT Sans, Normal';font-variant-ligatures:normal;font-variant-caps:normal;font-variant-numeric:normal;font-feature-settings:normal;text-align:start;writing-mode:lr-tb;text-anchor:start;fill:#fffdff;fill-opacity:1;stroke-width:0.28878513"
           d="m 140.26934,377.67543 q 0,-0.17789 -0.10588,-0.28802 -0.10589,-0.11435 -0.26684,-0.19906 -0.15672,-0.089 -0.34308,-0.16519 -0.18636,-0.0762 -0.34731,-0.18213 -0.15671,-0.11012 -0.2626,-0.26683 -0.10589,-0.16095 -0.10589,-0.40661 0,-0.34732 0.24142,-0.55062 0.24143,-0.20331 0.68616,-0.20331 0.25836,0 0.47014,0.0381 0.21178,0.0381 0.33037,0.0974 l -0.10589,0.30919 q -0.0974,-0.0466 -0.28801,-0.0889 -0.18637,-0.0424 -0.42355,-0.0424 -0.27955,0 -0.41932,0.12707 -0.13977,0.12283 -0.13977,0.29225 0,0.16518 0.10589,0.27531 0.10588,0.11012 0.2626,0.19907 0.16095,0.0847 0.34731,0.16942 0.18636,0.0847 0.34308,0.19907 0.16095,0.11012 0.26683,0.26683 0.10589,0.15672 0.10589,0.38967 0,0.1906 -0.0678,0.34308 -0.0678,0.15248 -0.19907,0.2626 -0.1313,0.11012 -0.31766,0.16942 -0.18636,0.0593 -0.42355,0.0593 -0.31766,0 -0.52521,-0.0508 -0.20754,-0.0466 -0.32189,-0.10589 l 0.11859,-0.31766 q 0.0974,0.0551 0.28802,0.11012 0.19059,0.0508 0.42778,0.0508 0.13977,0 0.2626,-0.0254 0.12283,-0.0297 0.21178,-0.089 0.0889,-0.0635 0.13977,-0.15671 0.0551,-0.0932 0.0551,-0.22025 z" />
      </g>
      <path
         sodipodi:nodetypes="ccccccccccccccccccccccccccccccc"
         inkscape:connector-curvature="0"
         id="path4603"
         d="m 62.212705,493.70445 v -99.38211 l 1.528955,-1.56451 -0.02292,-6.46234 -1.566426,-1.38611 -0.05028,-1.43806 3.310818,-0.065 1.528956,1.45784 28.090113,-0.0356 1.306984,-1.38635 39.665205,-0.004 1.59657,1.3964 25.68311,0.0117 1.61785,-1.42229 3.25347,-0.0356 v 2.93346 l -1.56452,1.54674 v 4.85354 l 1.58229,1.65341 v 99.39989 l -1.54674,1.70674 -0.0356,11.21827 -10.7738,-0.0178 -1.44896,-1.65341 -16.94295,-0.10667 0.12444,-11.23604 -45.041966,0.0178 v 12.94278 l -28.694582,0.0711 -0.07111,-11.59162 z"
         style="display:block;opacity:1;fill:#1f0000;fill-opacity:1;stroke:none;stroke-width:0.28878513px;stroke-linecap:butt;stroke-linejoin:miter;stroke-opacity:1" />
      <rect
         y="388.02609"
         x="67.510918"
         height="102.82227"
         width="96.184624"
         id="rect943"
         style="opacity:1;fill:#ffffff;fill-opacity:1;stroke:none;stroke-width:0.28878513;stroke-opacity:1" />
      <rect
         y="493.17108"
         x="91.796211"
         height="25.458887"
         width="46.224239"
         id="rect945"
         style="opacity:1;fill:#3b3c36;fill-opacity:1;stroke:none;stroke-width:0.28878513;stroke-opacity:1" />
      <path
         sodipodi:nodetypes="ccccc"
         inkscape:connector-curvature="0"
         id="rect971"
         d="m 74.728805,506.68279 17.074559,-0.0503 0.02516,11.98022 -17.0997,0.0252 z"
         style="opacity:1;fill:#93701f;fill-opacity:1;stroke:none;stroke-width:0.28878513;stroke-opacity:1" />
      <path
         sodipodi:nodetypes="cccccc"
         inkscape:connector-curvature="0"
         id="rect973"
         d="m 137.87822,504.94049 16.49851,0.0356 1.49339,1.7423 v 11.91162 h -17.9919 z"
         style="opacity:1;fill:#93701f;fill-opacity:1;stroke:none;stroke-width:0.28878513;stroke-opacity:1" />
      <path
         style="display:block;opacity:1;fill:#236c97;fill-opacity:1;stroke:none;stroke-width:0.28878513px;stroke-linecap:butt;stroke-linejoin:miter;stroke-opacity:1"
         d="m 165.94856,536.18142 c -103.309172,0 -103.263249,-5.5e-4 -103.263249,-5.5e-4 l -3.745011,-3.9052 0.0012,-0.29219 v -13.36949 l 111.47621,1e-5 0.0246,12.75057 z"
         id="path975"
         inkscape:connector-curvature="0"
         sodipodi:nodetypes="cccccccc" />
      <ellipse
         style="display:block;opacity:1;fill:#7a7879;fill-opacity:1;stroke-width:0.29638204"
         id="ellipse983"
         cx="67.510918"
         cy="527.40381"
         rx="6.2605247"
         ry="6.2102404" />
      <ellipse
         style="display:block;opacity:1;fill:#ffffff;fill-opacity:0.93981479;stroke-width:0.30932063"
         id="ellipse985"
         cx="67.385201"
         cy="527.45404"
         rx="4.6513939"
         ry="4.5005374" />
      <ellipse
         ry="6.2102404"
         rx="6.2605247"
         cy="527.40381"
         cx="161.32205"
         id="ellipse987"
         style="display:block;opacity:1;fill:#7a7879;fill-opacity:1;stroke-width:0.29638204" />
      <ellipse
         ry="4.5005374"
         rx="4.6513939"
         cy="527.45404"
         cx="161.19635"
         id="ellipse989"
         style="display:block;opacity:1;fill:#ffffff;fill-opacity:0.93981479;stroke-width:0.30932063" />
      <g
         id="text995"
         style="font-style:normal;font-variant:normal;font-weight:normal;font-stretch:normal;font-size:5.00560904px;line-height:1.25;font-family:STIXIntegralsUp;-inkscape-font-specification:'STIXIntegralsUp, Normal';font-variant-ligatures:normal;font-variant-caps:normal;font-variant-numeric:normal;font-feature-settings:normal;text-align:start;letter-spacing:0px;word-spacing:0px;writing-mode:lr-tb;text-anchor:start;display:block;fill:#000000;fill-opacity:1;stroke:none;stroke-width:0.28878513"
         aria-label="1.44'  128*128  TFT_LCD">
        <path
           inkscape:connector-curvature="0"
           id="path862"
           style="font-style:normal;font-variant:normal;font-weight:normal;font-stretch:normal;font-size:6.54579592px;font-family:'PT Sans';-inkscape-font-specification:'PT Sans, Normal';font-variant-ligatures:normal;font-variant-caps:normal;font-variant-numeric:normal;font-feature-settings:normal;text-align:start;writing-mode:lr-tb;text-anchor:start;fill:#fffdff;fill-opacity:1;stroke-width:0.28878513"
           d="m 82.690672,529.41826 h 0.916412 v -3.16817 l 0.06546,-0.3862 -0.261832,0.30766 -0.720038,0.51711 -0.24874,-0.33383 1.440075,-1.11279 h 0.235649 v 4.17622 h 0.896774 v 0.48439 h -2.323758 z" />
        <path
           inkscape:connector-curvature="0"
           id="path864"
           style="font-style:normal;font-variant:normal;font-weight:normal;font-stretch:normal;font-size:6.54579592px;font-family:'PT Sans';-inkscape-font-specification:'PT Sans, Normal';font-variant-ligatures:normal;font-variant-caps:normal;font-variant-numeric:normal;font-feature-settings:normal;text-align:start;writing-mode:lr-tb;text-anchor:start;fill:#fffdff;fill-opacity:1;stroke-width:0.28878513"
           d="m 85.871418,529.60154 q 0,-0.17673 0.09819,-0.27492 0.104733,-0.10473 0.274923,-0.10473 0.176737,0 0.28147,0.10473 0.104732,0.0982 0.104732,0.27492 0,0.17019 -0.104732,0.27493 -0.104733,0.10473 -0.28147,0.10473 -0.17019,0 -0.274923,-0.10473 -0.09819,-0.10474 -0.09819,-0.27493 z" />
        <path
           inkscape:connector-curvature="0"
           id="path866"
           style="font-style:normal;font-variant:normal;font-weight:normal;font-stretch:normal;font-size:6.54579592px;font-family:'PT Sans';-inkscape-font-specification:'PT Sans, Normal';font-variant-ligatures:normal;font-variant-caps:normal;font-variant-numeric:normal;font-feature-settings:normal;text-align:start;writing-mode:lr-tb;text-anchor:start;fill:#fffdff;fill-opacity:1;stroke-width:0.28878513"
           d="m 90.386994,528.4953 h -0.772403 v 1.40735 h -0.510573 v -1.40735 h -2.016105 v -0.21601 l 2.173205,-3.0307 h 0.353473 v 2.78851 h 0.772403 z m -1.282976,-1.88519 0.06546,-0.53675 h -0.01964 l -0.229103,0.44511 -0.922957,1.25025 -0.314198,0.32074 0.458205,-0.0524 h 0.962232 z" />
        <path
           inkscape:connector-curvature="0"
           id="path868"
           style="font-style:normal;font-variant:normal;font-weight:normal;font-stretch:normal;font-size:6.54579592px;font-family:'PT Sans';-inkscape-font-specification:'PT Sans, Normal';font-variant-ligatures:normal;font-variant-caps:normal;font-variant-numeric:normal;font-feature-settings:normal;text-align:start;writing-mode:lr-tb;text-anchor:start;fill:#fffdff;fill-opacity:1;stroke-width:0.28878513"
           d="m 93.953942,528.4953 h -0.772404 v 1.40735 h -0.510572 v -1.40735 h -2.016105 v -0.21601 l 2.173204,-3.0307 h 0.353473 v 2.78851 h 0.772404 z m -1.282976,-1.88519 0.06546,-0.53675 h -0.01964 l -0.229102,0.44511 -0.922958,1.25025 -0.314198,0.32074 0.458206,-0.0524 h 0.962232 z" />
        <path
           inkscape:connector-curvature="0"
           id="path870"
           style="font-style:normal;font-variant:normal;font-weight:normal;font-stretch:normal;font-size:6.54579592px;font-family:'PT Sans';-inkscape-font-specification:'PT Sans, Normal';font-variant-ligatures:normal;font-variant-caps:normal;font-variant-numeric:normal;font-feature-settings:normal;text-align:start;writing-mode:lr-tb;text-anchor:start;fill:#fffdff;fill-opacity:1;stroke-width:0.28878513"
           d="m 94.680013,525.32059 h 0.510573 l -0.20292,1.26334 h -0.307653 z" />
        <path
           inkscape:connector-curvature="0"
           id="path872"
           style="font-style:normal;font-variant:normal;font-weight:normal;font-stretch:normal;font-size:6.54579592px;font-family:'PT Sans';-inkscape-font-specification:'PT Sans, Normal';font-variant-ligatures:normal;font-variant-caps:normal;font-variant-numeric:normal;font-feature-settings:normal;text-align:start;writing-mode:lr-tb;text-anchor:start;fill:#fffdff;fill-opacity:1;stroke-width:0.28878513"
           d="m 99.195796,529.41826 h 0.916414 v -3.16817 l 0.0654,-0.3862 -0.261827,0.30766 -0.720037,0.51711 -0.248741,-0.33383 1.440075,-1.11279 h 0.23565 v 4.17622 h 0.89677 v 0.48439 h -2.323754 z" />
        <path
           inkscape:connector-curvature="0"
           id="path874"
           style="font-style:normal;font-variant:normal;font-weight:normal;font-stretch:normal;font-size:6.54579592px;font-family:'PT Sans';-inkscape-font-specification:'PT Sans, Normal';font-variant-ligatures:normal;font-variant-caps:normal;font-variant-numeric:normal;font-feature-settings:normal;text-align:start;writing-mode:lr-tb;text-anchor:start;fill:#fffdff;fill-opacity:1;stroke-width:0.28878513"
           d="m 104.97522,526.36137 q 0,0.34693 -0.13092,0.7135 -0.12437,0.36001 -0.33383,0.72658 -0.20292,0.36656 -0.45821,0.72004 -0.25528,0.34692 -0.51057,0.66112 l -0.32074,0.28147 v 0.0262 l 0.41893,-0.072 h 1.42698 v 0.48439 h -2.60522 v -0.18983 q 0.144,-0.15055 0.34692,-0.37311 0.20292,-0.22256 0.41893,-0.49093 0.22256,-0.27493 0.43203,-0.57603 0.21601,-0.30766 0.3862,-0.62185 0.17673,-0.3142 0.28147,-0.62186 0.10473,-0.30765 0.10473,-0.58257 0,-0.32075 -0.18328,-0.53021 -0.18328,-0.21601 -0.5564,-0.21601 -0.24874,0 -0.48438,0.10473 -0.23565,0.0982 -0.40584,0.2291 l -0.21601,-0.37311 q 0.2291,-0.19637 0.5433,-0.30765 0.31419,-0.11128 0.67421,-0.11128 0.28147,0 0.49748,0.0851 0.21601,0.0786 0.36657,0.2291 0.15055,0.15055 0.2291,0.36002 0.0785,0.20292 0.0785,0.44511 z" />
        <path
           inkscape:connector-curvature="0"
           id="path876"
           style="font-style:normal;font-variant:normal;font-weight:normal;font-stretch:normal;font-size:6.54579592px;font-family:'PT Sans';-inkscape-font-specification:'PT Sans, Normal';font-variant-ligatures:normal;font-variant-caps:normal;font-variant-numeric:normal;font-feature-settings:normal;text-align:start;writing-mode:lr-tb;text-anchor:start;fill:#fffdff;fill-opacity:1;stroke-width:0.28878513"
           d="m 106.06786,528.8095 q 0,-0.41238 0.21601,-0.71349 0.21601,-0.30765 0.67422,-0.55639 -0.16365,-0.0982 -0.30766,-0.20292 -0.13746,-0.11128 -0.24874,-0.24874 -0.10473,-0.13747 -0.17019,-0.30766 -0.0589,-0.17019 -0.0589,-0.39274 0,-0.25529 0.0851,-0.46475 0.0916,-0.20947 0.25528,-0.36002 0.17019,-0.15056 0.3993,-0.23565 0.23564,-0.0851 0.5302,-0.0851 0.27493,0 0.49749,0.0786 0.22255,0.0785 0.37311,0.21601 0.15709,0.13746 0.24219,0.32729 0.0851,0.18983 0.0851,0.41893 0,0.37311 -0.1702,0.66113 -0.17019,0.28147 -0.56293,0.55639 0.17019,0.0982 0.32074,0.21601 0.1571,0.11783 0.26838,0.26183 0.11782,0.14401 0.18328,0.32729 0.0655,0.17674 0.0655,0.40584 0,0.28147 -0.0916,0.51712 -0.0916,0.2291 -0.26838,0.3993 -0.17674,0.16364 -0.43202,0.26183 -0.25529,0.0916 -0.58258,0.0916 -0.3142,0 -0.55639,-0.0916 -0.2422,-0.0916 -0.41239,-0.24874 -0.16364,-0.1571 -0.24874,-0.36657 -0.0851,-0.21601 -0.0851,-0.46475 z m 2.16666,-0.0655 q 0,-0.19637 -0.0786,-0.34038 -0.0785,-0.15055 -0.20947,-0.26838 -0.12437,-0.12437 -0.28801,-0.22255 -0.16365,-0.0982 -0.34039,-0.18983 -0.39929,0.22256 -0.56948,0.49748 -0.17019,0.27492 -0.17019,0.52366 0,0.1571 0.0524,0.30111 0.0524,0.14401 0.1571,0.24874 0.10473,0.10473 0.25528,0.17019 0.1571,0.0589 0.36002,0.0589 0.16364,0 0.3142,-0.0458 0.15055,-0.0524 0.26183,-0.14401 0.11782,-0.0982 0.18328,-0.24219 0.072,-0.15055 0.072,-0.34693 z m -1.55136,-2.36958 q 0,0.18329 0.072,0.32729 0.072,0.13747 0.18982,0.24874 0.12437,0.11128 0.28147,0.20947 0.1571,0.0916 0.32729,0.17674 0.29456,-0.22911 0.43203,-0.45166 0.144,-0.22256 0.144,-0.49094 0,-0.33383 -0.20946,-0.51057 -0.20292,-0.18328 -0.49094,-0.18328 -0.17673,0 -0.31419,0.0589 -0.13747,0.0589 -0.23565,0.15055 -0.0982,0.0916 -0.15056,0.21601 -0.0458,0.11783 -0.0458,0.24874 z" />
        <path
           inkscape:connector-curvature="0"
           id="path878"
           style="font-style:normal;font-variant:normal;font-weight:normal;font-stretch:normal;font-size:6.54579592px;font-family:'PT Sans';-inkscape-font-specification:'PT Sans, Normal';font-variant-ligatures:normal;font-variant-caps:normal;font-variant-numeric:normal;font-feature-settings:normal;text-align:start;writing-mode:lr-tb;text-anchor:start;fill:#fffdff;fill-opacity:1;stroke-width:0.28878513"
           d="m 110.04065,525.2224 0.16364,0.27493 0.11782,0.36656 0.13747,-0.37311 0.1571,-0.26183 0.31419,0.17019 -0.17019,0.28147 -0.3011,0.3142 0.44511,-0.0786 h 0.3142 v 0.36656 h -0.30111 l -0.41893,-0.0786 0.30111,0.3142 0.15055,0.25529 -0.30765,0.18328 -0.17019,-0.27492 -0.15056,-0.3993 -0.12437,0.37966 -0.16364,0.27492 -0.32729,-0.18328 0.17674,-0.27492 0.27492,-0.27493 -0.37966,0.0786 h -0.32729 v -0.36656 h 0.32729 l 0.40584,0.0786 -0.29456,-0.28802 -0.17019,-0.3011 z" />
        <path
           inkscape:connector-curvature="0"
           id="path880"
           style="font-style:normal;font-variant:normal;font-weight:normal;font-stretch:normal;font-size:6.54579592px;font-family:'PT Sans';-inkscape-font-specification:'PT Sans, Normal';font-variant-ligatures:normal;font-variant-caps:normal;font-variant-numeric:normal;font-feature-settings:normal;text-align:start;writing-mode:lr-tb;text-anchor:start;fill:#fffdff;fill-opacity:1;stroke-width:0.28878513"
           d="m 112.19789,529.41826 h 0.91642 v -3.16817 l 0.0654,-0.3862 -0.26183,0.30766 -0.72004,0.51711 -0.24874,-0.33383 1.44008,-1.11279 h 0.23565 v 4.17622 h 0.89677 v 0.48439 h -2.32376 z" />
        <path
           inkscape:connector-curvature="0"
           id="path882"
           style="font-style:normal;font-variant:normal;font-weight:normal;font-stretch:normal;font-size:6.54579592px;font-family:'PT Sans';-inkscape-font-specification:'PT Sans, Normal';font-variant-ligatures:normal;font-variant-caps:normal;font-variant-numeric:normal;font-feature-settings:normal;text-align:start;writing-mode:lr-tb;text-anchor:start;fill:#fffdff;fill-opacity:1;stroke-width:0.28878513"
           d="m 117.97732,526.36137 q 0,0.34693 -0.13092,0.7135 -0.12437,0.36001 -0.33383,0.72658 -0.20292,0.36656 -0.45821,0.72004 -0.25528,0.34692 -0.51057,0.66112 l -0.32074,0.28147 v 0.0262 l 0.41893,-0.072 h 1.42698 v 0.48439 h -2.60522 v -0.18983 q 0.144,-0.15055 0.34692,-0.37311 0.20292,-0.22256 0.41893,-0.49093 0.22256,-0.27493 0.43203,-0.57603 0.21601,-0.30766 0.3862,-0.62185 0.17673,-0.3142 0.28147,-0.62186 0.10473,-0.30765 0.10473,-0.58257 0,-0.32075 -0.18328,-0.53021 -0.18328,-0.21601 -0.5564,-0.21601 -0.24874,0 -0.48438,0.10473 -0.23565,0.0982 -0.40584,0.2291 l -0.21601,-0.37311 q 0.2291,-0.19637 0.5433,-0.30765 0.31419,-0.11128 0.67421,-0.11128 0.28147,0 0.49748,0.0851 0.21601,0.0786 0.36657,0.2291 0.15055,0.15055 0.2291,0.36002 0.0786,0.20292 0.0786,0.44511 z" />
        <path
           inkscape:connector-curvature="0"
           id="path884"
           style="font-style:normal;font-variant:normal;font-weight:normal;font-stretch:normal;font-size:6.54579592px;font-family:'PT Sans';-inkscape-font-specification:'PT Sans, Normal';font-variant-ligatures:normal;font-variant-caps:normal;font-variant-numeric:normal;font-feature-settings:normal;text-align:start;writing-mode:lr-tb;text-anchor:start;fill:#fffdff;fill-opacity:1;stroke-width:0.28878513"
           d="m 119.06996,528.8095 q 0,-0.41238 0.21601,-0.71349 0.21601,-0.30765 0.67422,-0.55639 -0.16365,-0.0982 -0.30766,-0.20292 -0.13746,-0.11128 -0.24874,-0.24874 -0.10473,-0.13747 -0.17019,-0.30766 -0.0589,-0.17019 -0.0589,-0.39274 0,-0.25529 0.0851,-0.46475 0.0916,-0.20947 0.25528,-0.36002 0.17019,-0.15056 0.3993,-0.23565 0.23564,-0.0851 0.5302,-0.0851 0.27493,0 0.49749,0.0786 0.22255,0.0785 0.37311,0.21601 0.15709,0.13746 0.24219,0.32729 0.0851,0.18983 0.0851,0.41893 0,0.37311 -0.1702,0.66113 -0.17019,0.28147 -0.56293,0.55639 0.17019,0.0982 0.32074,0.21601 0.1571,0.11783 0.26838,0.26183 0.11782,0.14401 0.18328,0.32729 0.0655,0.17674 0.0655,0.40584 0,0.28147 -0.0916,0.51712 -0.0916,0.2291 -0.26838,0.3993 -0.17674,0.16364 -0.43202,0.26183 -0.25529,0.0916 -0.58258,0.0916 -0.3142,0 -0.55639,-0.0916 -0.2422,-0.0916 -0.41239,-0.24874 -0.16364,-0.1571 -0.24874,-0.36657 -0.0851,-0.21601 -0.0851,-0.46475 z m 2.16666,-0.0655 q 0,-0.19637 -0.0786,-0.34038 -0.0785,-0.15055 -0.20947,-0.26838 -0.12437,-0.12437 -0.28801,-0.22255 -0.16365,-0.0982 -0.34039,-0.18983 -0.39929,0.22256 -0.56948,0.49748 -0.17019,0.27492 -0.17019,0.52366 0,0.1571 0.0524,0.30111 0.0524,0.14401 0.1571,0.24874 0.10473,0.10473 0.25528,0.17019 0.1571,0.0589 0.36002,0.0589 0.16364,0 0.3142,-0.0458 0.15055,-0.0524 0.26183,-0.14401 0.11782,-0.0982 0.18328,-0.24219 0.072,-0.15055 0.072,-0.34693 z m -1.55136,-2.36958 q 0,0.18329 0.072,0.32729 0.072,0.13747 0.18982,0.24874 0.12437,0.11128 0.28147,0.20947 0.1571,0.0916 0.32729,0.17674 0.29456,-0.22911 0.43203,-0.45166 0.144,-0.22256 0.144,-0.49094 0,-0.33383 -0.20946,-0.51057 -0.20292,-0.18328 -0.49094,-0.18328 -0.17673,0 -0.31419,0.0589 -0.13747,0.0589 -0.23565,0.15055 -0.0982,0.0916 -0.15056,0.21601 -0.0458,0.11783 -0.0458,0.24874 z" />
        <path
           inkscape:connector-curvature="0"
           id="path886"
           style="font-style:normal;font-variant:normal;font-weight:normal;font-stretch:normal;font-size:6.54579592px;font-family:'PT Sans';-inkscape-font-specification:'PT Sans, Normal';font-variant-ligatures:normal;font-variant-caps:normal;font-variant-numeric:normal;font-feature-settings:normal;text-align:start;writing-mode:lr-tb;text-anchor:start;fill:#fffdff;fill-opacity:1;stroke-width:0.28878513"
           d="m 129.00535,525.80498 h -1.42698 v 4.09767 h -0.5433 v -4.09767 h -1.42699 v -0.48439 h 3.39727 z" />
        <path
           inkscape:connector-curvature="0"
           id="path888"
           style="font-style:normal;font-variant:normal;font-weight:normal;font-stretch:normal;font-size:6.54579592px;font-family:'PT Sans';-inkscape-font-specification:'PT Sans, Normal';font-variant-ligatures:normal;font-variant-caps:normal;font-variant-numeric:normal;font-feature-settings:normal;text-align:start;writing-mode:lr-tb;text-anchor:start;fill:#fffdff;fill-opacity:1;stroke-width:0.28878513"
           d="m 129.67752,525.32059 h 2.49395 v 0.48439 h -1.95065 v 1.56445 h 1.81973 v 0.48438 h -1.81973 v 2.04884 h -0.5433 z" />
        <path
           inkscape:connector-curvature="0"
           id="path890"
           style="font-style:normal;font-variant:normal;font-weight:normal;font-stretch:normal;font-size:6.54579592px;font-family:'PT Sans';-inkscape-font-specification:'PT Sans, Normal';font-variant-ligatures:normal;font-variant-caps:normal;font-variant-numeric:normal;font-feature-settings:normal;text-align:start;writing-mode:lr-tb;text-anchor:start;fill:#fffdff;fill-opacity:1;stroke-width:0.28878513"
           d="m 136.02418,525.80498 h -1.42698 v 4.09767 h -0.5433 v -4.09767 h -1.42699 v -0.48439 h 3.39727 z" />
        <path
           inkscape:connector-curvature="0"
           id="path892"
           style="font-style:normal;font-variant:normal;font-weight:normal;font-stretch:normal;font-size:6.54579592px;font-family:'PT Sans';-inkscape-font-specification:'PT Sans, Normal';font-variant-ligatures:normal;font-variant-caps:normal;font-variant-numeric:normal;font-feature-settings:normal;text-align:start;writing-mode:lr-tb;text-anchor:start;fill:#fffdff;fill-opacity:1;stroke-width:0.28878513"
           d="m 136.13996,530.78633 h 2.67069 v 0.45821 h -2.67069 z" />
        <path
           inkscape:connector-curvature="0"
           id="path894"
           style="font-style:normal;font-variant:normal;font-weight:normal;font-stretch:normal;font-size:6.54579592px;font-family:'PT Sans';-inkscape-font-specification:'PT Sans, Normal';font-variant-ligatures:normal;font-variant-caps:normal;font-variant-numeric:normal;font-feature-settings:normal;text-align:start;writing-mode:lr-tb;text-anchor:start;fill:#fffdff;fill-opacity:1;stroke-width:0.28878513"
           d="m 142.07833,529.90265 h -2.70996 v -4.58206 h 0.5433 v 4.09767 h 2.16666 z" />
        <path
           inkscape:connector-curvature="0"
           id="path896"
           style="font-style:normal;font-variant:normal;font-weight:normal;font-stretch:normal;font-size:6.54579592px;font-family:'PT Sans';-inkscape-font-specification:'PT Sans, Normal';font-variant-ligatures:normal;font-variant-caps:normal;font-variant-numeric:normal;font-feature-settings:normal;text-align:start;writing-mode:lr-tb;text-anchor:start;fill:#fffdff;fill-opacity:1;stroke-width:0.28878513"
           d="m 145.25416,529.71282 q -0.19637,0.15055 -0.49748,0.20947 -0.3011,0.0589 -0.64148,0.0589 -0.41239,0 -0.77241,-0.13746 -0.36002,-0.14401 -0.62839,-0.43203 -0.26838,-0.28801 -0.42548,-0.73312 -0.1571,-0.45166 -0.1571,-1.06697 0,-0.64149 0.17019,-1.0866 0.17674,-0.45166 0.45821,-0.73313 0.28801,-0.28802 0.64148,-0.41893 0.35348,-0.13092 0.72004,-0.13092 0.39275,0 0.64149,0.0458 0.24874,0.0393 0.42548,0.11128 l -0.13092,0.47784 q -0.3142,-0.15055 -0.89677,-0.15055 -0.26838,0 -0.53021,0.0982 -0.26184,0.0982 -0.4713,0.32074 -0.20292,0.22256 -0.32729,0.58258 -0.12437,0.36002 -0.12437,0.88368 0,0.4713 0.11782,0.82477 0.11783,0.35347 0.32075,0.58912 0.20946,0.23565 0.48439,0.35348 0.28147,0.11782 0.60876,0.11782 0.29456,0 0.51057,-0.0589 0.22255,-0.0589 0.37311,-0.15056 z" />
        <path
           inkscape:connector-curvature="0"
           id="path898"
           style="font-style:normal;font-variant:normal;font-weight:normal;font-stretch:normal;font-size:6.54579592px;font-family:'PT Sans';-inkscape-font-specification:'PT Sans, Normal';font-variant-ligatures:normal;font-variant-caps:normal;font-variant-numeric:normal;font-feature-settings:normal;text-align:start;writing-mode:lr-tb;text-anchor:start;fill:#fffdff;fill-opacity:1;stroke-width:0.28878513"
           d="m 146.05479,525.32059 q 0.12437,-0.0196 0.27493,-0.0262 0.1571,-0.0131 0.32074,-0.0131 0.17019,-0.007 0.32729,-0.007 0.16365,-0.007 0.30111,-0.007 0.54984,0 0.94914,0.17019 0.40584,0.17019 0.66767,0.47784 0.26183,0.30111 0.3862,0.72658 0.13092,0.42548 0.13092,0.93605 0,0.46475 -0.12437,0.89678 -0.11783,0.42547 -0.37966,0.75931 -0.26183,0.32729 -0.68076,0.53021 -0.41893,0.19637 -1.0146,0.19637 -0.10473,0 -0.27492,-0.007 -0.16365,0 -0.34038,-0.0131 -0.17674,-0.007 -0.32729,-0.0131 -0.15056,-0.007 -0.21602,-0.0196 z m 1.23716,0.43202 q -0.0851,0 -0.18983,0 -0.0982,0 -0.19637,0.007 -0.0982,0.007 -0.18328,0.0131 -0.0785,0.007 -0.12437,0.0131 v 3.66565 q 0.0327,0.007 0.12437,0.0131 0.0916,0 0.18982,0.007 0.0982,0 0.18983,0.007 0.0916,0 0.12437,0 0.45821,0 0.76586,-0.1571 0.3142,-0.1571 0.49748,-0.41893 0.18983,-0.26838 0.26838,-0.60876 0.0786,-0.34692 0.0786,-0.71349 0,-0.32074 -0.072,-0.64149 -0.072,-0.32729 -0.24874,-0.58912 -0.17673,-0.26183 -0.47784,-0.42547 -0.29456,-0.1702 -0.74622,-0.1702 z" />
      </g>
      <rect
         y="380.42044"
         x="58.937263"
         height="140.49724"
         width="1.6091307"
         id="rect1002"
         style="opacity:1;fill:#236c97;fill-opacity:1;stroke:none;stroke-width:0.28878513;stroke-opacity:1" />
      <rect
         style="opacity:1;fill:#236c97;fill-opacity:1;stroke:none;stroke-width:0.42913648;stroke-opacity:1"
         id="rect1004"
         width="1.5162097"
         height="140.09358"
         x="168.91052"
         y="380.82407" />
      <g
         id="text1312"
         style="font-style:normal;font-variant:normal;font-weight:normal;font-stretch:normal;font-size:5.00560904px;line-height:1.25;font-family:STIXIntegralsUp;-inkscape-font-specification:'STIXIntegralsUp, Normal';font-variant-ligatures:normal;font-variant-caps:normal;font-variant-numeric:normal;font-feature-settings:normal;text-align:start;letter-spacing:0px;word-spacing:0px;writing-mode:lr-tb;text-anchor:start;display:block;fill:#000000;fill-opacity:1;stroke:none;stroke-width:0.28878513"
         aria-label="BL">
        <path
           inkscape:connector-curvature="0"
           id="path901"
           style="font-style:normal;font-variant:normal;font-weight:normal;font-stretch:normal;font-size:4.23551559px;font-family:'PT Sans';-inkscape-font-specification:'PT Sans, Normal';font-variant-ligatures:normal;font-variant-caps:normal;font-variant-numeric:normal;font-feature-settings:normal;text-align:start;writing-mode:lr-tb;text-anchor:start;fill:#fffdff;fill-opacity:1;stroke-width:0.28878513"
           d="m 147.66506,376.14217 q 0,0.10589 -0.0339,0.21601 -0.0339,0.11013 -0.10166,0.20754 -0.0678,0.0932 -0.17365,0.16519 -0.10589,0.072 -0.2499,0.11012 v 0.017 q 0.12707,0.0212 0.24143,0.072 0.11859,0.0508 0.20754,0.13977 0.0889,0.089 0.144,0.21601 0.0551,0.12707 0.0551,0.30072 0,0.22872 -0.0974,0.39814 -0.0932,0.16519 -0.2499,0.27108 -0.15247,0.10588 -0.35154,0.15671 -0.19907,0.0508 -0.40661,0.0508 -0.072,0 -0.16942,0 -0.0974,0 -0.20331,-0.008 -0.10589,-0.004 -0.21177,-0.0169 -0.10589,-0.008 -0.18637,-0.0297 v -2.91827 q 0.15672,-0.0254 0.36426,-0.0423 0.20754,-0.0169 0.4532,-0.0169 0.16518,0 0.3346,0.0297 0.17366,0.0254 0.31343,0.10588 0.13977,0.0762 0.22872,0.21601 0.0932,0.13978 0.0932,0.36002 z m -0.98264,2.01611 q 0.13554,0 0.2626,-0.0297 0.12707,-0.0339 0.22449,-0.10165 0.0974,-0.072 0.15247,-0.17366 0.0593,-0.10165 0.0593,-0.24142 0,-0.17366 -0.072,-0.27955 -0.0678,-0.10588 -0.18213,-0.16518 -0.11012,-0.0593 -0.2499,-0.0805 -0.13977,-0.0212 -0.27954,-0.0212 h -0.36849 v 1.06311 q 0.0297,0.008 0.0847,0.0127 0.0551,0.004 0.1186,0.008 0.0635,0.004 0.1313,0.008 0.0678,0 0.11859,0 z m -0.23295,-1.38925 q 0.072,0 0.17365,-0.004 0.10166,-0.004 0.16942,-0.0127 0.10166,-0.0339 0.1906,-0.0805 0.089,-0.0508 0.15672,-0.11436 0.072,-0.0678 0.11012,-0.15247 0.0424,-0.089 0.0424,-0.1906 0,-0.13977 -0.0551,-0.22872 -0.0508,-0.0932 -0.13977,-0.14824 -0.0889,-0.0551 -0.2033,-0.0762 -0.11436,-0.0254 -0.23296,-0.0254 -0.13977,0 -0.25836,0.008 -0.11436,0.004 -0.17366,0.017 v 1.00805 z" />
        <path
           inkscape:connector-curvature="0"
           id="path903"
           style="font-style:normal;font-variant:normal;font-weight:normal;font-stretch:normal;font-size:4.23551559px;font-family:'PT Sans';-inkscape-font-specification:'PT Sans, Normal';font-variant-ligatures:normal;font-variant-caps:normal;font-variant-numeric:normal;font-feature-settings:normal;text-align:start;writing-mode:lr-tb;text-anchor:start;fill:#fffdff;fill-opacity:1;stroke-width:0.28878513"
           d="m 150.10465,378.42935 h -1.7535 v -2.96486 h 0.35155 v 2.65143 h 1.40195 z" />
      </g>
    </g>
  </g>
</svg>
