<?xml version="1.0" standalone="no"?>
<!DOCTYPE svg PUBLIC "-//W3C//DTD SVG 1.1//EN" 
  "http://www.w3.org/Graphics/SVG/1.1/DTD/svg11.dtd">
<svg width="101.260mm" height="128.400mm" version="1.1"
     viewBox="0 0 101.260 128.400"
     xmlns="http://www.w3.org/2000/svg"  xmlns:xlink="http://www.w3.org/1999/xlink" 
     xmlns:fpd="http://www.schaeffer-ag.de">
  <desc>Created with the Front Panel Designer by the export of the file '20hp-Ubuntu-instruments-number-one.fpd'.</desc>
  <defs>
    <pattern id="revside-fill" x="1" y="1" width="1.5" height="1.5" patternUnits="userSpaceOnUse">
      <line x1="0" y1="0" x2="1" y2="1" style="stroke-width:0.2; stroke:black; stroke-dasharray:none;" />
      <line x1="0" y1="1" x2="1" y2="0" style="stroke-width:0.2; stroke:black; stroke-dasharray:none;" />
    </pattern>
    <pattern id="revside-fill-silver" x="1" y="1" width="1.5" height="1.5" patternUnits="userSpaceOnUse">
      <line x1="0" y1="0" x2="1.5" y2="1.5" style="stroke-width:0.2; stroke:#e0e0e0; stroke-dasharray:none;" />
      <line x1="0" y1="1.5" x2="1.5" y2="0" style="stroke-width:0.2; stroke:#e0e0e0; stroke-dasharray:none;" />
    </pattern>
  </defs>
<g transform="scale(1,-1) translate(0, -128.400)" 
   fill-rule="evenodd"
   style="stroke-linecap:round; stroke-linejoin:round; stroke-opacity:1.0; stroke-opacity:1.0;">
<path d="
M100.260 128.400
A1.000,1.000 0 0,0 101.260,127.400
L101.260 1.000
A1.000,1.000 0 0,0 100.260,0.000
L1.000 0.000
A1.000,1.000 0 0,0 0.000,1.000
L0.000 127.400
A1.000,1.000 0 0,0 1.000,128.400
L100.260 128.400
" 
fill="#bbbbbb" vector-effect="non-scaling-stroke" stroke="#000000" stroke-width="0.100mm" />
<path d="
M97.250 119.000
A1.000,1.000 0 0,1 96.250,120.000
L51.750 120.000
A1.000,1.000 0 0,1 50.750,119.000
L50.750 91.000
A1.000,1.000 0 0,1 51.750,90.000
L96.250 90.000
A1.000,1.000 0 0,1 97.250,91.000
L97.250 119.000
" 
fill="none" vector-effect="non-scaling-stroke" stroke="#689dbb" stroke-width="0.400mm" fpd:engraving="1" />
<path d="
M92.250 119.750
L55.750 119.750
L55.750 90.250
L92.250 90.250
L92.250 119.750
" 
fill="none" vector-effect="non-scaling-stroke" stroke="#689dbb" stroke-width="0.200mm" fpd:engraving="1" />
<path d="
M47.000 9.000
A15.000,10.000 0.000 1,1 47.000,29.000
A15.000,10.000 0.000 1,1 47.000,9.000
" 
fill="none" vector-effect="non-scaling-stroke" stroke="#689dbb" stroke-width="0.400mm" fpd:engraving="1" />
<path d="
M79.000 9.000
A15.000,10.000 0.000 1,1 79.000,29.000
A15.000,10.000 0.000 1,1 79.000,9.000
" 
fill="none" vector-effect="non-scaling-stroke" stroke="#689dbb" stroke-width="0.400mm" fpd:engraving="1" />
<path d="
M6.000 125.500
A1.500,1.500 0 1,0 9.000,125.500
A1.500,1.500 0 1,0 6.000,125.500
" 
fill="#ffffff" vector-effect="non-scaling-stroke" stroke="#000000" stroke-width="0.100mm" />
<path d="
M87.280 125.500
A1.500,1.500 0 1,0 90.280,125.500
A1.500,1.500 0 1,0 87.280,125.500
" 
fill="#ffffff" vector-effect="non-scaling-stroke" stroke="#000000" stroke-width="0.100mm" />
<path d="
M87.280 3.000
A1.500,1.500 0 1,0 90.280,3.000
A1.500,1.500 0 1,0 87.280,3.000
" 
fill="#ffffff" vector-effect="non-scaling-stroke" stroke="#000000" stroke-width="0.100mm" />
<path d="
M6.000 3.000
A1.500,1.500 0 1,0 9.000,3.000
A1.500,1.500 0 1,0 6.000,3.000
" 
fill="#ffffff" vector-effect="non-scaling-stroke" stroke="#000000" stroke-width="0.100mm" />
<path d="
M20.000 75.000
A5.000,5.000 0 1,0 30.000,75.000
A5.000,5.000 0 1,0 20.000,75.000
" 
fill="#ffffff" vector-effect="non-scaling-stroke" stroke="#000000" stroke-width="0.100mm" />
<path d="
M20.000 55.000
A5.000,5.000 0 1,0 30.000,55.000
A5.000,5.000 0 1,0 20.000,55.000
" 
fill="#ffffff" vector-effect="non-scaling-stroke" stroke="#000000" stroke-width="0.100mm" />
<path d="
M20.000 95.000
A5.000,5.000 0 1,0 30.000,95.000
A5.000,5.000 0 1,0 20.000,95.000
" 
fill="#ffffff" vector-effect="non-scaling-stroke" stroke="#000000" stroke-width="0.100mm" />
<path d="
M10.422 104.149
L10.419 104.249
L10.417 104.302
L10.413 104.345
L10.403 104.446
L10.394 104.518
L10.379 104.617
L10.370 104.669
L10.361 104.714
L10.339 104.812
L10.326 104.863
L10.317 104.897
L10.289 104.993
L10.273 105.044
L10.263 105.073
L10.229 105.168
L10.210 105.217
L10.195 105.254
L10.155 105.346
L10.133 105.394
L10.118 105.425
L10.072 105.515
L10.047 105.562
L10.029 105.592
L9.978 105.678
L9.950 105.723
L9.928 105.757
L9.871 105.840
L9.830 105.896
L9.769 105.976
L9.736 106.017
L9.700 106.060
L9.633 106.135
L9.579 106.192
L9.508 106.263
L9.451 106.317
L9.376 106.384
L9.336 106.419
L9.292 106.453
L9.212 106.514
L9.156 106.555
L9.073 106.612
L9.028 106.641
L8.994 106.662
L8.908 106.713
L8.862 106.739
L8.831 106.756
L8.741 106.802
L8.694 106.825
L8.662 106.839
L8.570 106.879
L8.521 106.899
L8.484 106.913
L8.389 106.947
L8.339 106.964
L8.309 106.973
L8.213 107.001
L8.162 107.015
L8.128 107.023
L8.030 107.045
L7.978 107.056
L7.933 107.063
L7.834 107.078
L7.762 107.087
L7.661 107.097
L7.608 107.101
L7.565 107.103
L7.465 107.106
L7.412 107.107
L7.381 107.106
L7.281 107.103
L7.228 107.101
L7.185 107.097
L7.084 107.087
L7.012 107.078
L6.913 107.063
L6.861 107.054
L6.816 107.045
L6.718 107.023
L6.667 107.010
L6.633 107.001
L6.537 106.973
L6.486 106.957
L6.457 106.947
L6.362 106.913
L6.313 106.894
L6.276 106.879
L6.184 106.839
L6.136 106.817
L6.105 106.802
L6.015 106.756
L5.968 106.731
L5.938 106.713
L5.852 106.662
L5.807 106.634
L5.773 106.612
L5.690 106.555
L5.634 106.514
L5.554 106.453
L5.513 106.420
L5.470 106.384
L5.395 106.317
L5.338 106.263
L5.267 106.192
L5.213 106.135
L5.146 106.060
L5.111 106.020
L5.077 105.976
L5.016 105.896
L4.975 105.840
L4.918 105.757
L4.889 105.712
L4.868 105.678
L4.817 105.592
L4.791 105.546
L4.774 105.515
L4.728 105.425
L4.705 105.378
L4.691 105.346
L4.651 105.254
L4.631 105.205
L4.617 105.168
L4.583 105.073
L4.566 105.023
L4.557 104.993
L4.529 104.897
L4.515 104.846
L4.507 104.812
L4.485 104.714
L4.474 104.662
L4.467 104.617
L4.452 104.518
L4.443 104.446
L4.433 104.345
L4.429 104.292
L4.427 104.249
L4.424 104.149
L4.423 104.096
L4.424 104.065
L4.427 103.965
L4.429 103.912
L4.433 103.869
L4.443 103.768
L4.452 103.696
L4.467 103.597
L4.476 103.545
L4.485 103.500
L4.507 103.402
L4.520 103.351
L4.529 103.317
L4.557 103.221
L4.573 103.170
L4.583 103.141
L4.617 103.046
L4.636 102.997
L4.651 102.960
L4.691 102.868
L4.713 102.820
L4.728 102.789
L4.774 102.699
L4.799 102.652
L4.817 102.622
L4.868 102.536
L4.896 102.491
L4.918 102.457
L4.975 102.374
L5.016 102.318
L5.077 102.238
L5.110 102.197
L5.146 102.154
L5.213 102.079
L5.267 102.022
L5.338 101.951
L5.395 101.897
L5.470 101.830
L5.510 101.795
L5.554 101.761
L5.634 101.700
L5.690 101.659
L5.773 101.602
L5.818 101.573
L5.852 101.552
L5.938 101.501
L5.984 101.475
L6.015 101.458
L6.105 101.412
L6.152 101.389
L6.184 101.375
L6.276 101.335
L6.325 101.315
L6.362 101.301
L6.457 101.267
L6.507 101.250
L6.537 101.241
L6.633 101.213
L6.684 101.199
L6.718 101.191
L6.816 101.169
L6.868 101.158
L6.913 101.151
L7.012 101.136
L7.084 101.127
L7.185 101.117
L7.238 101.113
L7.281 101.111
L7.381 101.108
L7.434 101.107
L7.465 101.108
L7.565 101.111
L7.618 101.113
L7.661 101.117
L7.762 101.127
L7.834 101.136
L7.933 101.151
L7.985 101.160
L8.030 101.169
L8.128 101.191
L8.179 101.204
L8.213 101.213
L8.309 101.241
L8.360 101.257
L8.389 101.267
L8.484 101.301
L8.533 101.320
L8.570 101.335
L8.662 101.375
L8.710 101.397
L8.741 101.412
L8.831 101.458
L8.878 101.483
L8.908 101.501
L8.994 101.552
L9.039 101.580
L9.073 101.602
L9.156 101.659
L9.212 101.700
L9.292 101.761
L9.333 101.794
L9.376 101.830
L9.451 101.897
L9.508 101.951
L9.579 102.022
L9.633 102.079
L9.700 102.154
L9.735 102.194
L9.769 102.238
L9.830 102.318
L9.871 102.374
L9.928 102.457
L9.957 102.502
L9.978 102.536
L10.029 102.622
L10.055 102.668
L10.072 102.699
L10.118 102.789
L10.141 102.836
L10.155 102.868
L10.195 102.960
L10.215 103.009
L10.229 103.046
L10.263 103.141
L10.280 103.191
L10.289 103.221
L10.317 103.317
L10.331 103.368
L10.339 103.402
L10.361 103.500
L10.372 103.552
L10.379 103.597
L10.394 103.696
L10.403 103.768
L10.413 103.869
L10.417 103.922
L10.419 103.965
L10.422 104.065
L10.423 104.118
L10.422 104.149
M7.423 102.507
A1.600,1.600 0 1,0 7.423,105.707
A1.600,1.600 0 1,0 7.423,102.507
" 
fill="#e0e0e0" vector-effect="non-scaling-stroke" stroke="#000000" stroke-width="0.100mm" />
<path d="
M10.422 104.149
L10.419 104.249
L10.417 104.302
L10.413 104.345
L10.403 104.446
L10.394 104.518
L10.379 104.617
L10.370 104.669
L10.361 104.714
L10.339 104.812
L10.326 104.863
L10.317 104.897
L10.289 104.993
L10.273 105.044
L10.263 105.073
L10.229 105.168
L10.210 105.217
L10.195 105.254
L10.155 105.346
L10.133 105.394
L10.118 105.425
L10.072 105.515
L10.047 105.562
L10.029 105.592
L9.978 105.678
L9.950 105.723
L9.928 105.757
L9.871 105.840
L9.830 105.896
L9.769 105.976
L9.736 106.017
L9.700 106.060
L9.633 106.135
L9.579 106.192
L9.508 106.263
L9.451 106.317
L9.376 106.384
L9.336 106.419
L9.292 106.453
L9.212 106.514
L9.156 106.555
L9.073 106.612
L9.028 106.641
L8.994 106.662
L8.908 106.713
L8.862 106.739
L8.831 106.756
L8.741 106.802
L8.694 106.825
L8.662 106.839
L8.570 106.879
L8.521 106.899
L8.484 106.913
L8.389 106.947
L8.339 106.964
L8.309 106.973
L8.213 107.001
L8.162 107.015
L8.128 107.023
L8.030 107.045
L7.978 107.056
L7.933 107.063
L7.834 107.078
L7.762 107.087
L7.661 107.097
L7.608 107.101
L7.565 107.103
L7.465 107.106
L7.412 107.107
L7.381 107.106
L7.281 107.103
L7.228 107.101
L7.185 107.097
L7.084 107.087
L7.012 107.078
L6.913 107.063
L6.861 107.054
L6.816 107.045
L6.718 107.023
L6.667 107.010
L6.633 107.001
L6.537 106.973
L6.486 106.957
L6.457 106.947
L6.362 106.913
L6.313 106.894
L6.276 106.879
L6.184 106.839
L6.136 106.817
L6.105 106.802
L6.015 106.756
L5.968 106.731
L5.938 106.713
L5.852 106.662
L5.807 106.634
L5.773 106.612
L5.690 106.555
L5.634 106.514
L5.554 106.453
L5.513 106.420
L5.470 106.384
L5.395 106.317
L5.338 106.263
L5.267 106.192
L5.213 106.135
L5.146 106.060
L5.111 106.020
L5.077 105.976
L5.016 105.896
L4.975 105.840
L4.918 105.757
L4.889 105.712
L4.868 105.678
L4.817 105.592
L4.791 105.546
L4.774 105.515
L4.728 105.425
L4.705 105.378
L4.691 105.346
L4.651 105.254
L4.631 105.205
L4.617 105.168
L4.583 105.073
L4.566 105.023
L4.557 104.993
L4.529 104.897
L4.515 104.846
L4.507 104.812
L4.485 104.714
L4.474 104.662
L4.467 104.617
L4.452 104.518
L4.443 104.446
L4.433 104.345
L4.429 104.292
L4.427 104.249
L4.424 104.149
L4.423 104.096
L4.424 104.065
L4.427 103.965
L4.429 103.912
L4.433 103.869
L4.443 103.768
L4.452 103.696
L4.467 103.597
L4.476 103.545
L4.485 103.500
L4.507 103.402
L4.520 103.351
L4.529 103.317
L4.557 103.221
L4.573 103.170
L4.583 103.141
L4.617 103.046
L4.636 102.997
L4.651 102.960
L4.691 102.868
L4.713 102.820
L4.728 102.789
L4.774 102.699
L4.799 102.652
L4.817 102.622
L4.868 102.536
L4.896 102.491
L4.918 102.457
L4.975 102.374
L5.016 102.318
L5.077 102.238
L5.110 102.197
L5.146 102.154
L5.213 102.079
L5.267 102.022
L5.338 101.951
L5.395 101.897
L5.470 101.830
L5.510 101.795
L5.554 101.761
L5.634 101.700
L5.690 101.659
L5.773 101.602
L5.818 101.573
L5.852 101.552
L5.938 101.501
L5.984 101.475
L6.015 101.458
L6.105 101.412
L6.152 101.389
L6.184 101.375
L6.276 101.335
L6.325 101.315
L6.362 101.301
L6.457 101.267
L6.507 101.250
L6.537 101.241
L6.633 101.213
L6.684 101.199
L6.718 101.191
L6.816 101.169
L6.868 101.158
L6.913 101.151
L7.012 101.136
L7.084 101.127
L7.185 101.117
L7.238 101.113
L7.281 101.111
L7.381 101.108
L7.434 101.107
L7.465 101.108
L7.565 101.111
L7.618 101.113
L7.661 101.117
L7.762 101.127
L7.834 101.136
L7.933 101.151
L7.985 101.160
L8.030 101.169
L8.128 101.191
L8.179 101.204
L8.213 101.213
L8.309 101.241
L8.360 101.257
L8.389 101.267
L8.484 101.301
L8.533 101.320
L8.570 101.335
L8.662 101.375
L8.710 101.397
L8.741 101.412
L8.831 101.458
L8.878 101.483
L8.908 101.501
L8.994 101.552
L9.039 101.580
L9.073 101.602
L9.156 101.659
L9.212 101.700
L9.292 101.761
L9.333 101.794
L9.376 101.830
L9.451 101.897
L9.508 101.951
L9.579 102.022
L9.633 102.079
L9.700 102.154
L9.735 102.194
L9.769 102.238
L9.830 102.318
L9.871 102.374
L9.928 102.457
L9.957 102.502
L9.978 102.536
L10.029 102.622
L10.055 102.668
L10.072 102.699
L10.118 102.789
L10.141 102.836
L10.155 102.868
L10.195 102.960
L10.215 103.009
L10.229 103.046
L10.263 103.141
L10.280 103.191
L10.289 103.221
L10.317 103.317
L10.331 103.368
L10.339 103.402
L10.361 103.500
L10.372 103.552
L10.379 103.597
L10.394 103.696
L10.403 103.768
L10.413 103.869
L10.417 103.922
L10.419 103.965
L10.422 104.065
L10.423 104.118
L10.422 104.149
" 
fill="none" vector-effect="non-scaling-stroke" stroke="#000000" stroke-width="0.100mm" />
<path d="
M7.423 102.507
A1.600,1.600 0 1,0 7.423,105.707
A1.600,1.600 0 1,0 7.423,102.507
" 
fill="#ffffff" vector-effect="non-scaling-stroke" stroke="#000000" stroke-width="0.100mm" />
<path d="
M10.923 82.107
A1.500,1.500 0 0,1 12.423,83.607
L12.423 95.607
A1.500,1.500 0 0,1 10.923,97.107
L3.923 97.107
A1.500,1.500 0 0,1 2.423,95.607
L2.423 83.607
A1.500,1.500 0 0,1 3.923,82.107
L10.923 82.107
" 
fill="#ffffff" vector-effect="non-scaling-stroke" stroke="#000000" stroke-width="0.100mm" />
<path d="
M10.422 75.149
L10.419 75.249
L10.417 75.302
L10.413 75.345
L10.403 75.446
L10.394 75.518
L10.379 75.617
L10.370 75.669
L10.361 75.714
L10.339 75.812
L10.326 75.863
L10.317 75.897
L10.289 75.993
L10.273 76.044
L10.263 76.073
L10.229 76.168
L10.210 76.217
L10.195 76.254
L10.155 76.346
L10.133 76.394
L10.118 76.425
L10.072 76.515
L10.047 76.562
L10.029 76.592
L9.978 76.678
L9.950 76.723
L9.928 76.757
L9.871 76.840
L9.830 76.896
L9.769 76.976
L9.736 77.017
L9.700 77.060
L9.633 77.135
L9.579 77.192
L9.508 77.263
L9.451 77.317
L9.376 77.384
L9.336 77.419
L9.292 77.453
L9.212 77.514
L9.156 77.555
L9.073 77.612
L9.028 77.641
L8.994 77.662
L8.908 77.713
L8.862 77.739
L8.831 77.756
L8.741 77.802
L8.694 77.825
L8.662 77.839
L8.570 77.879
L8.521 77.899
L8.484 77.913
L8.389 77.947
L8.339 77.964
L8.309 77.973
L8.213 78.001
L8.162 78.015
L8.128 78.023
L8.030 78.045
L7.978 78.056
L7.933 78.063
L7.834 78.078
L7.762 78.087
L7.661 78.097
L7.608 78.101
L7.565 78.103
L7.465 78.106
L7.412 78.107
L7.381 78.106
L7.281 78.103
L7.228 78.101
L7.185 78.097
L7.084 78.087
L7.012 78.078
L6.913 78.063
L6.861 78.054
L6.816 78.045
L6.718 78.023
L6.667 78.010
L6.633 78.001
L6.537 77.973
L6.486 77.957
L6.457 77.947
L6.362 77.913
L6.313 77.894
L6.276 77.879
L6.184 77.839
L6.136 77.817
L6.105 77.802
L6.015 77.756
L5.968 77.731
L5.938 77.713
L5.852 77.662
L5.807 77.634
L5.773 77.612
L5.690 77.555
L5.634 77.514
L5.554 77.453
L5.513 77.420
L5.470 77.384
L5.395 77.317
L5.338 77.263
L5.267 77.192
L5.213 77.135
L5.146 77.060
L5.111 77.020
L5.077 76.976
L5.016 76.896
L4.975 76.840
L4.918 76.757
L4.889 76.712
L4.868 76.678
L4.817 76.592
L4.791 76.546
L4.774 76.515
L4.728 76.425
L4.705 76.378
L4.691 76.346
L4.651 76.254
L4.631 76.205
L4.617 76.168
L4.583 76.073
L4.566 76.023
L4.557 75.993
L4.529 75.897
L4.515 75.846
L4.507 75.812
L4.485 75.714
L4.474 75.662
L4.467 75.617
L4.452 75.518
L4.443 75.446
L4.433 75.345
L4.429 75.292
L4.427 75.249
L4.424 75.149
L4.423 75.096
L4.424 75.065
L4.427 74.965
L4.429 74.912
L4.433 74.869
L4.443 74.768
L4.452 74.696
L4.467 74.597
L4.476 74.545
L4.485 74.500
L4.507 74.402
L4.520 74.351
L4.529 74.317
L4.557 74.221
L4.573 74.170
L4.583 74.141
L4.617 74.046
L4.636 73.997
L4.651 73.960
L4.691 73.868
L4.713 73.820
L4.728 73.789
L4.774 73.699
L4.799 73.652
L4.817 73.622
L4.868 73.536
L4.896 73.491
L4.918 73.457
L4.975 73.374
L5.016 73.318
L5.077 73.238
L5.110 73.197
L5.146 73.154
L5.213 73.079
L5.267 73.022
L5.338 72.951
L5.395 72.897
L5.470 72.830
L5.510 72.795
L5.554 72.761
L5.634 72.700
L5.690 72.659
L5.773 72.602
L5.818 72.573
L5.852 72.552
L5.938 72.501
L5.984 72.475
L6.015 72.458
L6.105 72.412
L6.152 72.389
L6.184 72.375
L6.276 72.335
L6.325 72.315
L6.362 72.301
L6.457 72.267
L6.507 72.250
L6.537 72.241
L6.633 72.213
L6.684 72.199
L6.718 72.191
L6.816 72.169
L6.868 72.158
L6.913 72.151
L7.012 72.136
L7.084 72.127
L7.185 72.117
L7.238 72.113
L7.281 72.111
L7.381 72.108
L7.434 72.107
L7.465 72.108
L7.565 72.111
L7.618 72.113
L7.661 72.117
L7.762 72.127
L7.834 72.136
L7.933 72.151
L7.985 72.160
L8.030 72.169
L8.128 72.191
L8.179 72.204
L8.213 72.213
L8.309 72.241
L8.360 72.257
L8.389 72.267
L8.484 72.301
L8.533 72.320
L8.570 72.335
L8.662 72.375
L8.710 72.397
L8.741 72.412
L8.831 72.458
L8.878 72.483
L8.908 72.501
L8.994 72.552
L9.039 72.580
L9.073 72.602
L9.156 72.659
L9.212 72.700
L9.292 72.761
L9.333 72.794
L9.376 72.830
L9.451 72.897
L9.508 72.951
L9.579 73.022
L9.633 73.079
L9.700 73.154
L9.735 73.194
L9.769 73.238
L9.830 73.318
L9.871 73.374
L9.928 73.457
L9.957 73.502
L9.978 73.536
L10.029 73.622
L10.055 73.668
L10.072 73.699
L10.118 73.789
L10.141 73.836
L10.155 73.868
L10.195 73.960
L10.215 74.009
L10.229 74.046
L10.263 74.141
L10.280 74.191
L10.289 74.221
L10.317 74.317
L10.331 74.368
L10.339 74.402
L10.361 74.500
L10.372 74.552
L10.379 74.597
L10.394 74.696
L10.403 74.768
L10.413 74.869
L10.417 74.922
L10.419 74.965
L10.422 75.065
L10.423 75.118
L10.422 75.149
M7.423 73.507
A1.600,1.600 0 1,0 7.423,76.707
A1.600,1.600 0 1,0 7.423,73.507
" 
fill="#e0e0e0" vector-effect="non-scaling-stroke" stroke="#000000" stroke-width="0.100mm" />
<path d="
M10.422 75.149
L10.419 75.249
L10.417 75.302
L10.413 75.345
L10.403 75.446
L10.394 75.518
L10.379 75.617
L10.370 75.669
L10.361 75.714
L10.339 75.812
L10.326 75.863
L10.317 75.897
L10.289 75.993
L10.273 76.044
L10.263 76.073
L10.229 76.168
L10.210 76.217
L10.195 76.254
L10.155 76.346
L10.133 76.394
L10.118 76.425
L10.072 76.515
L10.047 76.562
L10.029 76.592
L9.978 76.678
L9.950 76.723
L9.928 76.757
L9.871 76.840
L9.830 76.896
L9.769 76.976
L9.736 77.017
L9.700 77.060
L9.633 77.135
L9.579 77.192
L9.508 77.263
L9.451 77.317
L9.376 77.384
L9.336 77.419
L9.292 77.453
L9.212 77.514
L9.156 77.555
L9.073 77.612
L9.028 77.641
L8.994 77.662
L8.908 77.713
L8.862 77.739
L8.831 77.756
L8.741 77.802
L8.694 77.825
L8.662 77.839
L8.570 77.879
L8.521 77.899
L8.484 77.913
L8.389 77.947
L8.339 77.964
L8.309 77.973
L8.213 78.001
L8.162 78.015
L8.128 78.023
L8.030 78.045
L7.978 78.056
L7.933 78.063
L7.834 78.078
L7.762 78.087
L7.661 78.097
L7.608 78.101
L7.565 78.103
L7.465 78.106
L7.412 78.107
L7.381 78.106
L7.281 78.103
L7.228 78.101
L7.185 78.097
L7.084 78.087
L7.012 78.078
L6.913 78.063
L6.861 78.054
L6.816 78.045
L6.718 78.023
L6.667 78.010
L6.633 78.001
L6.537 77.973
L6.486 77.957
L6.457 77.947
L6.362 77.913
L6.313 77.894
L6.276 77.879
L6.184 77.839
L6.136 77.817
L6.105 77.802
L6.015 77.756
L5.968 77.731
L5.938 77.713
L5.852 77.662
L5.807 77.634
L5.773 77.612
L5.690 77.555
L5.634 77.514
L5.554 77.453
L5.513 77.420
L5.470 77.384
L5.395 77.317
L5.338 77.263
L5.267 77.192
L5.213 77.135
L5.146 77.060
L5.111 77.020
L5.077 76.976
L5.016 76.896
L4.975 76.840
L4.918 76.757
L4.889 76.712
L4.868 76.678
L4.817 76.592
L4.791 76.546
L4.774 76.515
L4.728 76.425
L4.705 76.378
L4.691 76.346
L4.651 76.254
L4.631 76.205
L4.617 76.168
L4.583 76.073
L4.566 76.023
L4.557 75.993
L4.529 75.897
L4.515 75.846
L4.507 75.812
L4.485 75.714
L4.474 75.662
L4.467 75.617
L4.452 75.518
L4.443 75.446
L4.433 75.345
L4.429 75.292
L4.427 75.249
L4.424 75.149
L4.423 75.096
L4.424 75.065
L4.427 74.965
L4.429 74.912
L4.433 74.869
L4.443 74.768
L4.452 74.696
L4.467 74.597
L4.476 74.545
L4.485 74.500
L4.507 74.402
L4.520 74.351
L4.529 74.317
L4.557 74.221
L4.573 74.170
L4.583 74.141
L4.617 74.046
L4.636 73.997
L4.651 73.960
L4.691 73.868
L4.713 73.820
L4.728 73.789
L4.774 73.699
L4.799 73.652
L4.817 73.622
L4.868 73.536
L4.896 73.491
L4.918 73.457
L4.975 73.374
L5.016 73.318
L5.077 73.238
L5.110 73.197
L5.146 73.154
L5.213 73.079
L5.267 73.022
L5.338 72.951
L5.395 72.897
L5.470 72.830
L5.510 72.795
L5.554 72.761
L5.634 72.700
L5.690 72.659
L5.773 72.602
L5.818 72.573
L5.852 72.552
L5.938 72.501
L5.984 72.475
L6.015 72.458
L6.105 72.412
L6.152 72.389
L6.184 72.375
L6.276 72.335
L6.325 72.315
L6.362 72.301
L6.457 72.267
L6.507 72.250
L6.537 72.241
L6.633 72.213
L6.684 72.199
L6.718 72.191
L6.816 72.169
L6.868 72.158
L6.913 72.151
L7.012 72.136
L7.084 72.127
L7.185 72.117
L7.238 72.113
L7.281 72.111
L7.381 72.108
L7.434 72.107
L7.465 72.108
L7.565 72.111
L7.618 72.113
L7.661 72.117
L7.762 72.127
L7.834 72.136
L7.933 72.151
L7.985 72.160
L8.030 72.169
L8.128 72.191
L8.179 72.204
L8.213 72.213
L8.309 72.241
L8.360 72.257
L8.389 72.267
L8.484 72.301
L8.533 72.320
L8.570 72.335
L8.662 72.375
L8.710 72.397
L8.741 72.412
L8.831 72.458
L8.878 72.483
L8.908 72.501
L8.994 72.552
L9.039 72.580
L9.073 72.602
L9.156 72.659
L9.212 72.700
L9.292 72.761
L9.333 72.794
L9.376 72.830
L9.451 72.897
L9.508 72.951
L9.579 73.022
L9.633 73.079
L9.700 73.154
L9.735 73.194
L9.769 73.238
L9.830 73.318
L9.871 73.374
L9.928 73.457
L9.957 73.502
L9.978 73.536
L10.029 73.622
L10.055 73.668
L10.072 73.699
L10.118 73.789
L10.141 73.836
L10.155 73.868
L10.195 73.960
L10.215 74.009
L10.229 74.046
L10.263 74.141
L10.280 74.191
L10.289 74.221
L10.317 74.317
L10.331 74.368
L10.339 74.402
L10.361 74.500
L10.372 74.552
L10.379 74.597
L10.394 74.696
L10.403 74.768
L10.413 74.869
L10.417 74.922
L10.419 74.965
L10.422 75.065
L10.423 75.118
L10.422 75.149
" 
fill="none" vector-effect="non-scaling-stroke" stroke="#000000" stroke-width="0.100mm" />
<path d="
M7.423 73.507
A1.600,1.600 0 1,0 7.423,76.707
A1.600,1.600 0 1,0 7.423,73.507
" 
fill="#ffffff" vector-effect="non-scaling-stroke" stroke="#000000" stroke-width="0.100mm" />
<path d="
M7.465 52.108
L7.565 52.111
L7.618 52.113
L7.661 52.117
L7.762 52.127
L7.834 52.136
L7.933 52.151
L7.985 52.160
L8.030 52.169
L8.128 52.191
L8.179 52.204
L8.213 52.213
L8.309 52.241
L8.360 52.257
L8.389 52.267
L8.484 52.301
L8.533 52.320
L8.570 52.335
L8.662 52.375
L8.710 52.397
L8.741 52.412
L8.831 52.458
L8.878 52.483
L8.908 52.501
L8.994 52.552
L9.039 52.580
L9.073 52.602
L9.156 52.659
L9.212 52.700
L9.292 52.761
L9.333 52.794
L9.376 52.830
L9.451 52.897
L9.508 52.951
L9.579 53.022
L9.633 53.079
L9.700 53.154
L9.735 53.194
L9.769 53.238
L9.830 53.318
L9.871 53.374
L9.928 53.457
L9.957 53.502
L9.978 53.536
L10.029 53.622
L10.055 53.668
L10.072 53.699
L10.118 53.789
L10.141 53.836
L10.155 53.868
L10.195 53.960
L10.215 54.009
L10.229 54.046
L10.263 54.141
L10.280 54.191
L10.289 54.221
L10.317 54.317
L10.331 54.368
L10.339 54.402
L10.361 54.500
L10.372 54.552
L10.379 54.597
L10.394 54.696
L10.403 54.768
L10.413 54.869
L10.417 54.922
L10.419 54.965
L10.422 55.065
L10.423 55.118
L10.422 55.149
L10.419 55.249
L10.417 55.302
L10.413 55.345
L10.403 55.446
L10.394 55.518
L10.379 55.617
L10.370 55.669
L10.361 55.714
L10.339 55.812
L10.326 55.863
L10.317 55.897
L10.289 55.993
L10.273 56.044
L10.263 56.073
L10.229 56.168
L10.210 56.217
L10.195 56.254
L10.155 56.346
L10.133 56.394
L10.118 56.425
L10.072 56.515
L10.047 56.562
L10.029 56.592
L9.978 56.678
L9.950 56.723
L9.928 56.757
L9.871 56.840
L9.830 56.896
L9.769 56.976
L9.736 57.017
L9.700 57.060
L9.633 57.135
L9.579 57.192
L9.508 57.263
L9.451 57.317
L9.376 57.384
L9.336 57.419
L9.292 57.453
L9.212 57.514
L9.156 57.555
L9.073 57.612
L9.028 57.641
L8.994 57.662
L8.908 57.713
L8.862 57.739
L8.831 57.756
L8.741 57.802
L8.694 57.825
L8.662 57.839
L8.570 57.879
L8.521 57.899
L8.484 57.913
L8.389 57.947
L8.339 57.964
L8.309 57.973
L8.213 58.001
L8.162 58.015
L8.128 58.023
L8.030 58.045
L7.978 58.056
L7.933 58.063
L7.834 58.078
L7.762 58.087
L7.661 58.097
L7.608 58.101
L7.565 58.103
L7.465 58.106
L7.412 58.107
L7.381 58.106
L7.281 58.103
L7.228 58.101
L7.185 58.097
L7.084 58.087
L7.012 58.078
L6.913 58.063
L6.861 58.054
L6.816 58.045
L6.718 58.023
L6.667 58.010
L6.633 58.001
L6.537 57.973
L6.486 57.957
L6.457 57.947
L6.362 57.913
L6.313 57.894
L6.276 57.879
L6.184 57.839
L6.136 57.817
L6.105 57.802
L6.015 57.756
L5.968 57.731
L5.938 57.713
L5.852 57.662
L5.807 57.634
L5.773 57.612
L5.690 57.555
L5.634 57.514
L5.554 57.453
L5.513 57.420
L5.470 57.384
L5.395 57.317
L5.338 57.263
L5.267 57.192
L5.213 57.135
L5.146 57.060
L5.111 57.020
L5.077 56.976
L5.016 56.896
L4.975 56.840
L4.918 56.757
L4.889 56.712
L4.868 56.678
L4.817 56.592
L4.791 56.546
L4.774 56.515
L4.728 56.425
L4.705 56.378
L4.691 56.346
L4.651 56.254
L4.631 56.205
L4.617 56.168
L4.583 56.073
L4.566 56.023
L4.557 55.993
L4.529 55.897
L4.515 55.846
L4.507 55.812
L4.485 55.714
L4.474 55.662
L4.467 55.617
L4.452 55.518
L4.443 55.446
L4.433 55.345
L4.429 55.292
L4.427 55.249
L4.424 55.149
L4.423 55.096
L4.424 55.065
L4.427 54.965
L4.429 54.912
L4.433 54.869
L4.443 54.768
L4.452 54.696
L4.467 54.597
L4.476 54.545
L4.485 54.500
L4.507 54.402
L4.520 54.351
L4.529 54.317
L4.557 54.221
L4.573 54.170
L4.583 54.141
L4.617 54.046
L4.636 53.997
L4.651 53.960
L4.691 53.868
L4.713 53.820
L4.728 53.789
L4.774 53.699
L4.799 53.652
L4.817 53.622
L4.868 53.536
L4.896 53.491
L4.918 53.457
L4.975 53.374
L5.016 53.318
L5.077 53.238
L5.110 53.197
L5.146 53.154
L5.213 53.079
L5.267 53.022
L5.338 52.951
L5.395 52.897
L5.470 52.830
L5.510 52.795
L5.554 52.761
L5.634 52.700
L5.690 52.659
L5.773 52.602
L5.818 52.573
L5.852 52.552
L5.938 52.501
L5.984 52.475
L6.015 52.458
L6.105 52.412
L6.152 52.389
L6.184 52.375
L6.276 52.335
L6.325 52.315
L6.362 52.301
L6.457 52.267
L6.507 52.250
L6.537 52.241
L6.633 52.213
L6.684 52.199
L6.718 52.191
L6.816 52.169
L6.868 52.158
L6.913 52.151
L7.012 52.136
L7.084 52.127
L7.185 52.117
L7.238 52.113
L7.281 52.111
L7.381 52.108
L7.434 52.107
L7.465 52.108
M5.823 55.107
A1.600,1.600 0 1,0 9.023,55.107
A1.600,1.600 0 1,0 5.823,55.107
" 
fill="#e0e0e0" vector-effect="non-scaling-stroke" stroke="#000000" stroke-width="0.100mm" />
<path d="
M7.465 52.108
L7.565 52.111
L7.618 52.113
L7.661 52.117
L7.762 52.127
L7.834 52.136
L7.933 52.151
L7.985 52.160
L8.030 52.169
L8.128 52.191
L8.179 52.204
L8.213 52.213
L8.309 52.241
L8.360 52.257
L8.389 52.267
L8.484 52.301
L8.533 52.320
L8.570 52.335
L8.662 52.375
L8.710 52.397
L8.741 52.412
L8.831 52.458
L8.878 52.483
L8.908 52.501
L8.994 52.552
L9.039 52.580
L9.073 52.602
L9.156 52.659
L9.212 52.700
L9.292 52.761
L9.333 52.794
L9.376 52.830
L9.451 52.897
L9.508 52.951
L9.579 53.022
L9.633 53.079
L9.700 53.154
L9.735 53.194
L9.769 53.238
L9.830 53.318
L9.871 53.374
L9.928 53.457
L9.957 53.502
L9.978 53.536
L10.029 53.622
L10.055 53.668
L10.072 53.699
L10.118 53.789
L10.141 53.836
L10.155 53.868
L10.195 53.960
L10.215 54.009
L10.229 54.046
L10.263 54.141
L10.280 54.191
L10.289 54.221
L10.317 54.317
L10.331 54.368
L10.339 54.402
L10.361 54.500
L10.372 54.552
L10.379 54.597
L10.394 54.696
L10.403 54.768
L10.413 54.869
L10.417 54.922
L10.419 54.965
L10.422 55.065
L10.423 55.118
L10.422 55.149
L10.419 55.249
L10.417 55.302
L10.413 55.345
L10.403 55.446
L10.394 55.518
L10.379 55.617
L10.370 55.669
L10.361 55.714
L10.339 55.812
L10.326 55.863
L10.317 55.897
L10.289 55.993
L10.273 56.044
L10.263 56.073
L10.229 56.168
L10.210 56.217
L10.195 56.254
L10.155 56.346
L10.133 56.394
L10.118 56.425
L10.072 56.515
L10.047 56.562
L10.029 56.592
L9.978 56.678
L9.950 56.723
L9.928 56.757
L9.871 56.840
L9.830 56.896
L9.769 56.976
L9.736 57.017
L9.700 57.060
L9.633 57.135
L9.579 57.192
L9.508 57.263
L9.451 57.317
L9.376 57.384
L9.336 57.419
L9.292 57.453
L9.212 57.514
L9.156 57.555
L9.073 57.612
L9.028 57.641
L8.994 57.662
L8.908 57.713
L8.862 57.739
L8.831 57.756
L8.741 57.802
L8.694 57.825
L8.662 57.839
L8.570 57.879
L8.521 57.899
L8.484 57.913
L8.389 57.947
L8.339 57.964
L8.309 57.973
L8.213 58.001
L8.162 58.015
L8.128 58.023
L8.030 58.045
L7.978 58.056
L7.933 58.063
L7.834 58.078
L7.762 58.087
L7.661 58.097
L7.608 58.101
L7.565 58.103
L7.465 58.106
L7.412 58.107
L7.381 58.106
L7.281 58.103
L7.228 58.101
L7.185 58.097
L7.084 58.087
L7.012 58.078
L6.913 58.063
L6.861 58.054
L6.816 58.045
L6.718 58.023
L6.667 58.010
L6.633 58.001
L6.537 57.973
L6.486 57.957
L6.457 57.947
L6.362 57.913
L6.313 57.894
L6.276 57.879
L6.184 57.839
L6.136 57.817
L6.105 57.802
L6.015 57.756
L5.968 57.731
L5.938 57.713
L5.852 57.662
L5.807 57.634
L5.773 57.612
L5.690 57.555
L5.634 57.514
L5.554 57.453
L5.513 57.420
L5.470 57.384
L5.395 57.317
L5.338 57.263
L5.267 57.192
L5.213 57.135
L5.146 57.060
L5.111 57.020
L5.077 56.976
L5.016 56.896
L4.975 56.840
L4.918 56.757
L4.889 56.712
L4.868 56.678
L4.817 56.592
L4.791 56.546
L4.774 56.515
L4.728 56.425
L4.705 56.378
L4.691 56.346
L4.651 56.254
L4.631 56.205
L4.617 56.168
L4.583 56.073
L4.566 56.023
L4.557 55.993
L4.529 55.897
L4.515 55.846
L4.507 55.812
L4.485 55.714
L4.474 55.662
L4.467 55.617
L4.452 55.518
L4.443 55.446
L4.433 55.345
L4.429 55.292
L4.427 55.249
L4.424 55.149
L4.423 55.096
L4.424 55.065
L4.427 54.965
L4.429 54.912
L4.433 54.869
L4.443 54.768
L4.452 54.696
L4.467 54.597
L4.476 54.545
L4.485 54.500
L4.507 54.402
L4.520 54.351
L4.529 54.317
L4.557 54.221
L4.573 54.170
L4.583 54.141
L4.617 54.046
L4.636 53.997
L4.651 53.960
L4.691 53.868
L4.713 53.820
L4.728 53.789
L4.774 53.699
L4.799 53.652
L4.817 53.622
L4.868 53.536
L4.896 53.491
L4.918 53.457
L4.975 53.374
L5.016 53.318
L5.077 53.238
L5.110 53.197
L5.146 53.154
L5.213 53.079
L5.267 53.022
L5.338 52.951
L5.395 52.897
L5.470 52.830
L5.510 52.795
L5.554 52.761
L5.634 52.700
L5.690 52.659
L5.773 52.602
L5.818 52.573
L5.852 52.552
L5.938 52.501
L5.984 52.475
L6.015 52.458
L6.105 52.412
L6.152 52.389
L6.184 52.375
L6.276 52.335
L6.325 52.315
L6.362 52.301
L6.457 52.267
L6.507 52.250
L6.537 52.241
L6.633 52.213
L6.684 52.199
L6.718 52.191
L6.816 52.169
L6.868 52.158
L6.913 52.151
L7.012 52.136
L7.084 52.127
L7.185 52.117
L7.238 52.113
L7.281 52.111
L7.381 52.108
L7.434 52.107
L7.465 52.108
" 
fill="none" vector-effect="non-scaling-stroke" stroke="#000000" stroke-width="0.100mm" />
<path d="
M5.823 55.107
A1.600,1.600 0 1,0 9.023,55.107
A1.600,1.600 0 1,0 5.823,55.107
" 
fill="#ffffff" vector-effect="non-scaling-stroke" stroke="#000000" stroke-width="0.100mm" />
<path d="
M10.923 33.107
A1.500,1.500 0 0,1 12.423,34.607
L12.423 46.607
A1.500,1.500 0 0,1 10.923,48.107
L3.923 48.107
A1.500,1.500 0 0,1 2.423,46.607
L2.423 34.607
A1.500,1.500 0 0,1 3.923,33.107
L10.923 33.107
" 
fill="#ffffff" vector-effect="non-scaling-stroke" stroke="#000000" stroke-width="0.100mm" />
<path d="
M7.465 23.108
L7.565 23.111
L7.618 23.113
L7.661 23.117
L7.762 23.127
L7.834 23.136
L7.933 23.151
L7.985 23.160
L8.030 23.169
L8.128 23.191
L8.179 23.204
L8.213 23.213
L8.309 23.241
L8.360 23.257
L8.389 23.267
L8.484 23.301
L8.533 23.320
L8.570 23.335
L8.662 23.375
L8.710 23.397
L8.741 23.412
L8.831 23.458
L8.878 23.483
L8.908 23.501
L8.994 23.552
L9.039 23.580
L9.073 23.602
L9.156 23.659
L9.212 23.700
L9.292 23.761
L9.333 23.794
L9.376 23.830
L9.451 23.897
L9.508 23.951
L9.579 24.022
L9.633 24.079
L9.700 24.154
L9.735 24.194
L9.769 24.238
L9.830 24.318
L9.871 24.374
L9.928 24.457
L9.957 24.502
L9.978 24.536
L10.029 24.622
L10.055 24.668
L10.072 24.699
L10.118 24.789
L10.141 24.836
L10.155 24.868
L10.195 24.960
L10.215 25.009
L10.229 25.046
L10.263 25.141
L10.280 25.191
L10.289 25.221
L10.317 25.317
L10.331 25.368
L10.339 25.402
L10.361 25.500
L10.372 25.552
L10.379 25.597
L10.394 25.696
L10.403 25.768
L10.413 25.869
L10.417 25.922
L10.419 25.965
L10.422 26.065
L10.423 26.118
L10.422 26.149
L10.419 26.249
L10.417 26.302
L10.413 26.345
L10.403 26.446
L10.394 26.518
L10.379 26.617
L10.370 26.669
L10.361 26.714
L10.339 26.812
L10.326 26.863
L10.317 26.897
L10.289 26.993
L10.273 27.044
L10.263 27.073
L10.229 27.168
L10.210 27.217
L10.195 27.254
L10.155 27.346
L10.133 27.394
L10.118 27.425
L10.072 27.515
L10.047 27.562
L10.029 27.592
L9.978 27.678
L9.950 27.723
L9.928 27.757
L9.871 27.840
L9.830 27.896
L9.769 27.976
L9.736 28.017
L9.700 28.060
L9.633 28.135
L9.579 28.192
L9.508 28.263
L9.451 28.317
L9.376 28.384
L9.336 28.419
L9.292 28.453
L9.212 28.514
L9.156 28.555
L9.073 28.612
L9.028 28.641
L8.994 28.662
L8.908 28.713
L8.862 28.739
L8.831 28.756
L8.741 28.802
L8.694 28.825
L8.662 28.839
L8.570 28.879
L8.521 28.899
L8.484 28.913
L8.389 28.947
L8.339 28.964
L8.309 28.973
L8.213 29.001
L8.162 29.015
L8.128 29.023
L8.030 29.045
L7.978 29.056
L7.933 29.063
L7.834 29.078
L7.762 29.087
L7.661 29.097
L7.608 29.101
L7.565 29.103
L7.465 29.106
L7.412 29.107
L7.381 29.106
L7.281 29.103
L7.228 29.101
L7.185 29.097
L7.084 29.087
L7.012 29.078
L6.913 29.063
L6.861 29.054
L6.816 29.045
L6.718 29.023
L6.667 29.010
L6.633 29.001
L6.537 28.973
L6.486 28.957
L6.457 28.947
L6.362 28.913
L6.313 28.894
L6.276 28.879
L6.184 28.839
L6.136 28.817
L6.105 28.802
L6.015 28.756
L5.968 28.731
L5.938 28.713
L5.852 28.662
L5.807 28.634
L5.773 28.612
L5.690 28.555
L5.634 28.514
L5.554 28.453
L5.513 28.420
L5.470 28.384
L5.395 28.317
L5.338 28.263
L5.267 28.192
L5.213 28.135
L5.146 28.060
L5.111 28.020
L5.077 27.976
L5.016 27.896
L4.975 27.840
L4.918 27.757
L4.889 27.712
L4.868 27.678
L4.817 27.592
L4.791 27.546
L4.774 27.515
L4.728 27.425
L4.705 27.378
L4.691 27.346
L4.651 27.254
L4.631 27.205
L4.617 27.168
L4.583 27.073
L4.566 27.023
L4.557 26.993
L4.529 26.897
L4.515 26.846
L4.507 26.812
L4.485 26.714
L4.474 26.662
L4.467 26.617
L4.452 26.518
L4.443 26.446
L4.433 26.345
L4.429 26.292
L4.427 26.249
L4.424 26.149
L4.423 26.096
L4.424 26.065
L4.427 25.965
L4.429 25.912
L4.433 25.869
L4.443 25.768
L4.452 25.696
L4.467 25.597
L4.476 25.545
L4.485 25.500
L4.507 25.402
L4.520 25.351
L4.529 25.317
L4.557 25.221
L4.573 25.170
L4.583 25.141
L4.617 25.046
L4.636 24.997
L4.651 24.960
L4.691 24.868
L4.713 24.820
L4.728 24.789
L4.774 24.699
L4.799 24.652
L4.817 24.622
L4.868 24.536
L4.896 24.491
L4.918 24.457
L4.975 24.374
L5.016 24.318
L5.077 24.238
L5.110 24.197
L5.146 24.154
L5.213 24.079
L5.267 24.022
L5.338 23.951
L5.395 23.897
L5.470 23.830
L5.510 23.795
L5.554 23.761
L5.634 23.700
L5.690 23.659
L5.773 23.602
L5.818 23.573
L5.852 23.552
L5.938 23.501
L5.984 23.475
L6.015 23.458
L6.105 23.412
L6.152 23.389
L6.184 23.375
L6.276 23.335
L6.325 23.315
L6.362 23.301
L6.457 23.267
L6.507 23.250
L6.537 23.241
L6.633 23.213
L6.684 23.199
L6.718 23.191
L6.816 23.169
L6.868 23.158
L6.913 23.151
L7.012 23.136
L7.084 23.127
L7.185 23.117
L7.238 23.113
L7.281 23.111
L7.381 23.108
L7.434 23.107
L7.465 23.108
M5.823 26.107
A1.600,1.600 0 1,0 9.023,26.107
A1.600,1.600 0 1,0 5.823,26.107
" 
fill="#e0e0e0" vector-effect="non-scaling-stroke" stroke="#000000" stroke-width="0.100mm" />
<path d="
M7.465 23.108
L7.565 23.111
L7.618 23.113
L7.661 23.117
L7.762 23.127
L7.834 23.136
L7.933 23.151
L7.985 23.160
L8.030 23.169
L8.128 23.191
L8.179 23.204
L8.213 23.213
L8.309 23.241
L8.360 23.257
L8.389 23.267
L8.484 23.301
L8.533 23.320
L8.570 23.335
L8.662 23.375
L8.710 23.397
L8.741 23.412
L8.831 23.458
L8.878 23.483
L8.908 23.501
L8.994 23.552
L9.039 23.580
L9.073 23.602
L9.156 23.659
L9.212 23.700
L9.292 23.761
L9.333 23.794
L9.376 23.830
L9.451 23.897
L9.508 23.951
L9.579 24.022
L9.633 24.079
L9.700 24.154
L9.735 24.194
L9.769 24.238
L9.830 24.318
L9.871 24.374
L9.928 24.457
L9.957 24.502
L9.978 24.536
L10.029 24.622
L10.055 24.668
L10.072 24.699
L10.118 24.789
L10.141 24.836
L10.155 24.868
L10.195 24.960
L10.215 25.009
L10.229 25.046
L10.263 25.141
L10.280 25.191
L10.289 25.221
L10.317 25.317
L10.331 25.368
L10.339 25.402
L10.361 25.500
L10.372 25.552
L10.379 25.597
L10.394 25.696
L10.403 25.768
L10.413 25.869
L10.417 25.922
L10.419 25.965
L10.422 26.065
L10.423 26.118
L10.422 26.149
L10.419 26.249
L10.417 26.302
L10.413 26.345
L10.403 26.446
L10.394 26.518
L10.379 26.617
L10.370 26.669
L10.361 26.714
L10.339 26.812
L10.326 26.863
L10.317 26.897
L10.289 26.993
L10.273 27.044
L10.263 27.073
L10.229 27.168
L10.210 27.217
L10.195 27.254
L10.155 27.346
L10.133 27.394
L10.118 27.425
L10.072 27.515
L10.047 27.562
L10.029 27.592
L9.978 27.678
L9.950 27.723
L9.928 27.757
L9.871 27.840
L9.830 27.896
L9.769 27.976
L9.736 28.017
L9.700 28.060
L9.633 28.135
L9.579 28.192
L9.508 28.263
L9.451 28.317
L9.376 28.384
L9.336 28.419
L9.292 28.453
L9.212 28.514
L9.156 28.555
L9.073 28.612
L9.028 28.641
L8.994 28.662
L8.908 28.713
L8.862 28.739
L8.831 28.756
L8.741 28.802
L8.694 28.825
L8.662 28.839
L8.570 28.879
L8.521 28.899
L8.484 28.913
L8.389 28.947
L8.339 28.964
L8.309 28.973
L8.213 29.001
L8.162 29.015
L8.128 29.023
L8.030 29.045
L7.978 29.056
L7.933 29.063
L7.834 29.078
L7.762 29.087
L7.661 29.097
L7.608 29.101
L7.565 29.103
L7.465 29.106
L7.412 29.107
L7.381 29.106
L7.281 29.103
L7.228 29.101
L7.185 29.097
L7.084 29.087
L7.012 29.078
L6.913 29.063
L6.861 29.054
L6.816 29.045
L6.718 29.023
L6.667 29.010
L6.633 29.001
L6.537 28.973
L6.486 28.957
L6.457 28.947
L6.362 28.913
L6.313 28.894
L6.276 28.879
L6.184 28.839
L6.136 28.817
L6.105 28.802
L6.015 28.756
L5.968 28.731
L5.938 28.713
L5.852 28.662
L5.807 28.634
L5.773 28.612
L5.690 28.555
L5.634 28.514
L5.554 28.453
L5.513 28.420
L5.470 28.384
L5.395 28.317
L5.338 28.263
L5.267 28.192
L5.213 28.135
L5.146 28.060
L5.111 28.020
L5.077 27.976
L5.016 27.896
L4.975 27.840
L4.918 27.757
L4.889 27.712
L4.868 27.678
L4.817 27.592
L4.791 27.546
L4.774 27.515
L4.728 27.425
L4.705 27.378
L4.691 27.346
L4.651 27.254
L4.631 27.205
L4.617 27.168
L4.583 27.073
L4.566 27.023
L4.557 26.993
L4.529 26.897
L4.515 26.846
L4.507 26.812
L4.485 26.714
L4.474 26.662
L4.467 26.617
L4.452 26.518
L4.443 26.446
L4.433 26.345
L4.429 26.292
L4.427 26.249
L4.424 26.149
L4.423 26.096
L4.424 26.065
L4.427 25.965
L4.429 25.912
L4.433 25.869
L4.443 25.768
L4.452 25.696
L4.467 25.597
L4.476 25.545
L4.485 25.500
L4.507 25.402
L4.520 25.351
L4.529 25.317
L4.557 25.221
L4.573 25.170
L4.583 25.141
L4.617 25.046
L4.636 24.997
L4.651 24.960
L4.691 24.868
L4.713 24.820
L4.728 24.789
L4.774 24.699
L4.799 24.652
L4.817 24.622
L4.868 24.536
L4.896 24.491
L4.918 24.457
L4.975 24.374
L5.016 24.318
L5.077 24.238
L5.110 24.197
L5.146 24.154
L5.213 24.079
L5.267 24.022
L5.338 23.951
L5.395 23.897
L5.470 23.830
L5.510 23.795
L5.554 23.761
L5.634 23.700
L5.690 23.659
L5.773 23.602
L5.818 23.573
L5.852 23.552
L5.938 23.501
L5.984 23.475
L6.015 23.458
L6.105 23.412
L6.152 23.389
L6.184 23.375
L6.276 23.335
L6.325 23.315
L6.362 23.301
L6.457 23.267
L6.507 23.250
L6.537 23.241
L6.633 23.213
L6.684 23.199
L6.718 23.191
L6.816 23.169
L6.868 23.158
L6.913 23.151
L7.012 23.136
L7.084 23.127
L7.185 23.117
L7.238 23.113
L7.281 23.111
L7.381 23.108
L7.434 23.107
L7.465 23.108
" 
fill="none" vector-effect="non-scaling-stroke" stroke="#000000" stroke-width="0.100mm" />
<path d="
M5.823 26.107
A1.600,1.600 0 1,0 9.023,26.107
A1.600,1.600 0 1,0 5.823,26.107
" 
fill="#ffffff" vector-effect="non-scaling-stroke" stroke="#000000" stroke-width="0.100mm" />
<path d="
M91.500 119.250
A0.500,0.500 0 0,1 91.000,119.750
L62.500 119.750
A0.500,0.500 0 0,1 62.000,119.250
L62.000 90.750
A0.500,0.500 0 0,1 62.500,90.250
L91.000 90.250
A0.500,0.500 0 0,1 91.500,90.750
L91.500 119.250
" 
fill="#ffffff" vector-effect="non-scaling-stroke" stroke="#000000" stroke-width="0.100mm" />
<path d="
M93.250 92.513
A1.500,1.500 0 1,0 96.250,92.513
A1.500,1.500 0 1,0 93.250,92.513
" 
fill="#ffffff" vector-effect="non-scaling-stroke" stroke="#000000" stroke-width="0.100mm" />
<path d="
M93.250 117.488
A1.500,1.500 0 1,0 96.250,117.488
A1.500,1.500 0 1,0 93.250,117.488
" 
fill="#ffffff" vector-effect="non-scaling-stroke" stroke="#000000" stroke-width="0.100mm" />
<path d="
M52.000 92.512
A1.500,1.500 0 1,0 55.000,92.512
A1.500,1.500 0 1,0 52.000,92.512
" 
fill="#ffffff" vector-effect="non-scaling-stroke" stroke="#000000" stroke-width="0.100mm" />
<path d="
M52.000 117.487
A1.500,1.500 0 1,0 55.000,117.487
A1.500,1.500 0 1,0 52.000,117.487
" 
fill="#ffffff" vector-effect="non-scaling-stroke" stroke="#000000" stroke-width="0.100mm" />
<path d="
M85.500 77.000
A3.500,3.500 0 1,0 92.500,77.000
A3.500,3.500 0 1,0 85.500,77.000
" 
fill="#ffffff" vector-effect="non-scaling-stroke" stroke="#000000" stroke-width="0.100mm" />
<path d="
M85.500 47.000
A3.500,3.500 0 1,0 92.500,47.000
A3.500,3.500 0 1,0 85.500,47.000
" 
fill="#ffffff" vector-effect="non-scaling-stroke" stroke="#000000" stroke-width="0.100mm" />
<path d="
M55.500 47.000
A3.500,3.500 0 1,0 62.500,47.000
A3.500,3.500 0 1,0 55.500,47.000
" 
fill="#ffffff" vector-effect="non-scaling-stroke" stroke="#000000" stroke-width="0.100mm" />
<path d="
M55.500 77.000
A3.500,3.500 0 1,0 62.500,77.000
A3.500,3.500 0 1,0 55.500,77.000
" 
fill="#ffffff" vector-effect="non-scaling-stroke" stroke="#000000" stroke-width="0.100mm" />
<path d="
M59.479 19.000
A1.229,1.229 0 1,0 57.021,19.000
A1.229,1.229 0 1,0 59.479,19.000
" 
fill="#ffffff" vector-effect="non-scaling-stroke" stroke="#000000" stroke-width="0.100mm" />
<path d="
M56.750 19.000
A1.500,1.500 0 0,1 59.750,19.000
A1.500,1.500 0 0,1 58.250,20.500
" 
fill="none" vector-effect="non-scaling-stroke" stroke="#000000" stroke-width="0.100mm" />
<path d="
M36.979 19.000
A1.229,1.229 0 1,0 34.521,19.000
A1.229,1.229 0 1,0 36.979,19.000
" 
fill="#ffffff" vector-effect="non-scaling-stroke" stroke="#000000" stroke-width="0.100mm" />
<path d="
M34.250 19.000
A1.500,1.500 0 0,1 37.250,19.000
A1.500,1.500 0 0,1 35.750,20.500
" 
fill="none" vector-effect="non-scaling-stroke" stroke="#000000" stroke-width="0.100mm" />
<path d="
M54.250 19.000
A7.250,7.250 0 1,0 39.750,19.000
A7.250,7.250 0 1,0 54.250,19.000
" 
fill="#ffffff" vector-effect="non-scaling-stroke" stroke="#000000" stroke-width="0.100mm" />
<path d="
M89.021 19.000
A1.229,1.229 0 1,0 91.479,19.000
A1.229,1.229 0 1,0 89.021,19.000
" 
fill="#ffffff" vector-effect="non-scaling-stroke" stroke="#000000" stroke-width="0.100mm" />
<path d="
M91.750 19.000
A1.500,1.500 0 1,1 90.250,17.500
" 
fill="none" vector-effect="non-scaling-stroke" stroke="#000000" stroke-width="0.100mm" />
<path d="
M66.521 19.000
A1.229,1.229 0 1,0 68.979,19.000
A1.229,1.229 0 1,0 66.521,19.000
" 
fill="#ffffff" vector-effect="non-scaling-stroke" stroke="#000000" stroke-width="0.100mm" />
<path d="
M69.250 19.000
A1.500,1.500 0 1,1 67.750,17.500
" 
fill="none" vector-effect="non-scaling-stroke" stroke="#000000" stroke-width="0.100mm" />
<path d="
M71.750 19.000
A7.250,7.250 0 1,0 86.250,19.000
A7.250,7.250 0 1,0 71.750,19.000
" 
fill="#ffffff" vector-effect="non-scaling-stroke" stroke="#000000" stroke-width="0.100mm" />
<path d="
M100.260 128.400
A1.000,1.000 0 0,0 101.260,127.400
L101.260 1.000
A1.000,1.000 0 0,0 100.260,0.000
L1.000 0.000
A1.000,1.000 0 0,0 0.000,1.000
L0.000 127.400
A1.000,1.000 0 0,0 1.000,128.400
L100.260 128.400
" 
fill="none" vector-effect="non-scaling-stroke" stroke="#000000" stroke-width="0.100mm" />
<path d="
M-1.000 0.000
L1.000 0.000
M0.000 -1.000
L0.000 1.000
" 
fill="none" vector-effect="non-scaling-stroke" stroke="#ff0000" stroke-width="0.100mm" />
<path d="
M6.500 125.500
L8.500 125.500
M7.500 124.500
L7.500 126.500
" 
fill="none" vector-effect="non-scaling-stroke" stroke="#ff0000" stroke-width="0.100mm" />
<path d="
M87.780 125.500
L89.780 125.500
M88.780 124.500
L88.780 126.500
" 
fill="none" vector-effect="non-scaling-stroke" stroke="#00d000" stroke-width="0.100mm" />
<path d="
M87.780 3.000
L89.780 3.000
M88.780 2.000
L88.780 4.000
" 
fill="none" vector-effect="non-scaling-stroke" stroke="#00d000" stroke-width="0.100mm" />
<path d="
M87.780 64.250
L89.780 64.250
M88.780 63.250
L88.780 65.250
" 
fill="none" vector-effect="non-scaling-stroke" stroke="#ff0000" stroke-width="0.100mm" />
<path d="
M6.500 3.000
L8.500 3.000
M7.500 2.000
L7.500 4.000
" 
fill="none" vector-effect="non-scaling-stroke" stroke="#ff0000" stroke-width="0.100mm" />
<path d="
M24.000 75.000
L26.000 75.000
M25.000 74.000
L25.000 76.000
" 
fill="none" vector-effect="non-scaling-stroke" stroke="#00d000" stroke-width="0.100mm" />
<path d="
M24.000 55.000
L26.000 55.000
M25.000 54.000
L25.000 56.000
" 
fill="none" vector-effect="non-scaling-stroke" stroke="#00d000" stroke-width="0.100mm" />
<path d="
M24.000 95.000
L26.000 95.000
M25.000 94.000
L25.000 96.000
" 
fill="none" vector-effect="non-scaling-stroke" stroke="#00d000" stroke-width="0.100mm" />
<path d="
M24.000 75.000
L26.000 75.000
M25.000 74.000
L25.000 76.000
" 
fill="none" vector-effect="non-scaling-stroke" stroke="#ff0000" stroke-width="0.100mm" />
<path d="
M6.423 104.107
L8.423 104.107
M7.423 103.107
L7.423 105.107
" 
fill="none" vector-effect="non-scaling-stroke" stroke="#00d000" stroke-width="0.100mm" />
<path d="
M6.423 89.607
L8.423 89.607
M7.423 88.607
L7.423 90.607
" 
fill="none" vector-effect="non-scaling-stroke" stroke="#00d000" stroke-width="0.100mm" />
<path d="
M6.423 75.107
L8.423 75.107
M7.423 74.107
L7.423 76.107
" 
fill="none" vector-effect="non-scaling-stroke" stroke="#00d000" stroke-width="0.100mm" />
<path d="
M6.423 89.607
L8.423 89.607
M7.423 88.607
L7.423 90.607
" 
fill="none" vector-effect="non-scaling-stroke" stroke="#ff0000" stroke-width="0.100mm" />
<path d="
M6.423 55.107
L8.423 55.107
M7.423 54.107
L7.423 56.107
" 
fill="none" vector-effect="non-scaling-stroke" stroke="#00d000" stroke-width="0.100mm" />
<path d="
M6.423 40.607
L8.423 40.607
M7.423 39.607
L7.423 41.607
" 
fill="none" vector-effect="non-scaling-stroke" stroke="#00d000" stroke-width="0.100mm" />
<path d="
M6.423 26.107
L8.423 26.107
M7.423 25.107
L7.423 27.107
" 
fill="none" vector-effect="non-scaling-stroke" stroke="#00d000" stroke-width="0.100mm" />
<path d="
M6.423 40.607
L8.423 40.607
M7.423 39.607
L7.423 41.607
" 
fill="none" vector-effect="non-scaling-stroke" stroke="#ff0000" stroke-width="0.100mm" />
<path d="
M75.750 105.000
L77.750 105.000
M76.750 104.000
L76.750 106.000
" 
fill="none" vector-effect="non-scaling-stroke" stroke="#00d000" stroke-width="0.100mm" />
<path d="
M73.000 105.000
L75.000 105.000
M74.000 104.000
L74.000 106.000
" 
fill="none" vector-effect="non-scaling-stroke" stroke="#808080" stroke-width="0.100mm" />
<path d="
M73.000 105.000
L75.000 105.000
M74.000 104.000
L74.000 106.000
" 
fill="none" vector-effect="non-scaling-stroke" stroke="#808080" stroke-width="0.100mm" />
<path d="
M93.750 92.513
L95.750 92.513
M94.750 91.513
L94.750 93.513
" 
fill="none" vector-effect="non-scaling-stroke" stroke="#808080" stroke-width="0.100mm" />
<path d="
M93.750 117.488
L95.750 117.488
M94.750 116.488
L94.750 118.488
" 
fill="none" vector-effect="non-scaling-stroke" stroke="#808080" stroke-width="0.100mm" />
<path d="
M52.500 92.512
L54.500 92.512
M53.500 91.512
L53.500 93.512
" 
fill="none" vector-effect="non-scaling-stroke" stroke="#808080" stroke-width="0.100mm" />
<path d="
M52.500 117.487
L54.500 117.487
M53.500 116.487
L53.500 118.487
" 
fill="none" vector-effect="non-scaling-stroke" stroke="#808080" stroke-width="0.100mm" />
<path d="
M73.000 105.000
L75.000 105.000
M74.000 104.000
L74.000 106.000
" 
fill="none" vector-effect="non-scaling-stroke" stroke="#00d000" stroke-width="0.100mm" />
<path d="
M73.000 105.000
L75.000 105.000
M74.000 104.000
L74.000 106.000
" 
fill="none" vector-effect="non-scaling-stroke" stroke="#ff0000" stroke-width="0.100mm" />
<path d="
M88.000 77.000
L90.000 77.000
M89.000 76.000
L89.000 78.000
" 
fill="none" vector-effect="non-scaling-stroke" stroke="#ff0000" stroke-width="0.100mm" />
<path d="
M88.000 47.000
L90.000 47.000
M89.000 46.000
L89.000 48.000
" 
fill="none" vector-effect="non-scaling-stroke" stroke="#ff0000" stroke-width="0.100mm" />
<path d="
M58.000 47.000
L60.000 47.000
M59.000 46.000
L59.000 48.000
" 
fill="none" vector-effect="non-scaling-stroke" stroke="#ff0000" stroke-width="0.100mm" />
<path d="
M58.000 77.000
L60.000 77.000
M59.000 76.000
L59.000 78.000
" 
fill="none" vector-effect="non-scaling-stroke" stroke="#ff0000" stroke-width="0.100mm" />
<path d="
M57.250 19.000
L59.250 19.000
M58.250 18.000
L58.250 20.000
" 
fill="none" vector-effect="non-scaling-stroke" stroke="#808080" stroke-width="0.100mm" />
<path d="
M34.750 19.000
L36.750 19.000
M35.750 18.000
L35.750 20.000
" 
fill="none" vector-effect="non-scaling-stroke" stroke="#808080" stroke-width="0.100mm" />
<path d="
M46.000 19.000
L48.000 19.000
M47.000 18.000
L47.000 20.000
" 
fill="none" vector-effect="non-scaling-stroke" stroke="#00d000" stroke-width="0.100mm" />
<path d="
M46.000 19.000
L48.000 19.000
M47.000 18.000
L47.000 20.000
" 
fill="none" vector-effect="non-scaling-stroke" stroke="#00d000" stroke-width="0.100mm" />
<path d="
M46.000 19.000
L48.000 19.000
M47.000 18.000
L47.000 20.000
" 
fill="none" vector-effect="non-scaling-stroke" stroke="#ff0000" stroke-width="0.100mm" />
<path d="
M46.000 19.000
L48.000 19.000
M47.000 18.000
L47.000 20.000
" 
fill="none" vector-effect="non-scaling-stroke" stroke="#ff0000" stroke-width="0.100mm" />
<path d="
M89.250 19.000
L91.250 19.000
M90.250 18.000
L90.250 20.000
" 
fill="none" vector-effect="non-scaling-stroke" stroke="#808080" stroke-width="0.100mm" />
<path d="
M66.750 19.000
L68.750 19.000
M67.750 18.000
L67.750 20.000
" 
fill="none" vector-effect="non-scaling-stroke" stroke="#808080" stroke-width="0.100mm" />
<path d="
M78.000 19.000
L80.000 19.000
M79.000 18.000
L79.000 20.000
" 
fill="none" vector-effect="non-scaling-stroke" stroke="#00d000" stroke-width="0.100mm" />
<path d="
M78.000 19.000
L80.000 19.000
M79.000 18.000
L79.000 20.000
" 
fill="none" vector-effect="non-scaling-stroke" stroke="#00d000" stroke-width="0.100mm" />
<path d="
M78.000 19.000
L80.000 19.000
M79.000 18.000
L79.000 20.000
" 
fill="none" vector-effect="non-scaling-stroke" stroke="#ff0000" stroke-width="0.100mm" />
<path d="
M78.000 19.000
L80.000 19.000
M79.000 18.000
L79.000 20.000
" 
fill="none" vector-effect="non-scaling-stroke" stroke="#ff0000" stroke-width="0.100mm" />
</g>
</svg>
