  0
SECTION
  2
HEADER
  9
$MEASUREMENT
  70
  1
  9
$INSUNITS
  70
  4
  0
ENDSEC
  0
SECTION
  2
TABLES
  0
TABLE
  2
LTYPE
 70
     1
  0
LTYPE
  2
CONTINUOUS
 70
    64
  3
Ausgezogene Linie
 72
    65
 73
     0
 40
0.0
  0
ENDTAB
  0
TABLE
  2
LAYER
 70
     3
  0
LAYER
  2
Contour
 70
    64
 62
     7
  6
CONTINUOUS
  0
LAYER
  2
Engraving
 70
    64
 62
     7
  6
CONTINUOUS
  0
LAYER
  2
Reference_points
 70
    64
 62
     1
  6
CONTINUOUS
  0
ENDTAB
  0
TABLE
  2
STYLE
 70
     1
  0
STYLE
  2
TXT
 70
    64
 40
0.0
 41
1.0
 50
0.0
 71
     0
 42
3.500000
  3
TXT
  0
ENDTAB
  0
ENDSEC
  0
SECTION
  2
BLOCKS
  0
ENDSEC
  0
SECTION
  2
ENTITIES
  0
LINE
  8
Contour
 62
   7
 39
0.100
  6
CONTINUOUS
 10
80.94000
 20
128.40000
 30
 0
 11
80.94000
 21
0.00000
  0
LINE
  8
Contour
 62
   7
 39
0.100
  6
CONTINUOUS
 10
80.94000
 20
0.00000
 30
 0
 11
0.00000
 21
0.00000
  0
LINE
  8
Contour
 62
   7
 39
0.100
  6
CONTINUOUS
 10
0.00000
 20
0.00000
 30
 0
 11
0.00000
 21
128.40000
  0
LINE
  8
Contour
 62
   7
 39
0.100
  6
CONTINUOUS
 10
0.00000
 20
128.40000
 30
 0
 11
80.94000
 21
128.40000
  0
ARC
  8
Engraving
 62
   133
 39
0.400
  6
CONTINUOUS
 10
21.00000
 20
50.12500
 30
 0
 40
1.00000
 50
180.00000
 51
270.00000
  0
LINE
  8
Engraving
 62
   133
 39
0.400
  6
CONTINUOUS
 10
21.00000
 20
49.12500
 30
 0
 11
65.50000
 21
49.12500
  0
ARC
  8
Engraving
 62
   133
 39
0.400
  6
CONTINUOUS
 10
65.50000
 20
50.12500
 30
 0
 40
1.00000
 50
270.00000
 51
360.00000
  0
LINE
  8
Engraving
 62
   133
 39
0.400
  6
CONTINUOUS
 10
66.50000
 20
50.12500
 30
 0
 11
66.50000
 21
78.12500
  0
ARC
  8
Engraving
 62
   133
 39
0.400
  6
CONTINUOUS
 10
65.50000
 20
78.12500
 30
 0
 40
1.00000
 50
0.00000
 51
90.00000
  0
LINE
  8
Engraving
 62
   133
 39
0.400
  6
CONTINUOUS
 10
65.50000
 20
79.12500
 30
 0
 11
21.00000
 21
79.12500
  0
ARC
  8
Engraving
 62
   133
 39
0.400
  6
CONTINUOUS
 10
21.00000
 20
78.12500
 30
 0
 40
1.00000
 50
90.00000
 51
180.00000
  0
LINE
  8
Engraving
 62
   133
 39
0.400
  6
CONTINUOUS
 10
20.00000
 20
78.12500
 30
 0
 11
20.00000
 21
50.12500
  0
LINE
  8
Engraving
 62
   133
 39
0.200
  6
CONTINUOUS
 10
25.00000
 20
49.37500
 30
 0
 11
61.50000
 21
49.37500
  0
LINE
  8
Engraving
 62
   133
 39
0.200
  6
CONTINUOUS
 10
61.50000
 20
49.37500
 30
 0
 11
61.50000
 21
78.87500
  0
LINE
  8
Engraving
 62
   133
 39
0.200
  6
CONTINUOUS
 10
61.50000
 20
78.87500
 30
 0
 11
25.00000
 21
78.87500
  0
LINE
  8
Engraving
 62
   133
 39
0.200
  6
CONTINUOUS
 10
25.00000
 20
78.87500
 30
 0
 11
25.00000
 21
49.37500
  0
CIRCLE
  8
Engraving
 62
   133
 39
0.200
  6
CONTINUOUS
 10
40.50000
 20
29.25000
 30
 0
 40
10.00000
  0
CIRCLE
  8
Engraving
 62
   133
 39
0.200
  6
CONTINUOUS
 10
65.25000
 20
29.25000
 30
 0
 40
10.00000
  0
CIRCLE
  8
Engraving
 62
   133
 39
0.200
  6
CONTINUOUS
 10
15.75000
 20
29.25000
 30
 0
 40
10.00000
  0
CIRCLE
  8
Engraving
 62
   133
 39
0.200
  6
CONTINUOUS
 10
40.50000
 20
99.00000
 30
 0
 40
10.00000
  0
CIRCLE
  8
Engraving
 62
   133
 39
0.200
  6
CONTINUOUS
 10
65.25000
 20
99.00000
 30
 0
 40
10.00000
  0
CIRCLE
  8
Engraving
 62
   133
 39
0.200
  6
CONTINUOUS
 10
15.75000
 20
99.00000
 30
 0
 40
10.00000
  0
CIRCLE
  8
Contour
 62
   7
 39
0.100
  6
CONTINUOUS
 10
7.50000
 20
125.50000
 30
 0
 40
1.50000
  0
CIRCLE
  8
Contour
 62
   7
 39
0.100
  6
CONTINUOUS
 10
68.46000
 20
125.50000
 30
 0
 40
1.50000
  0
CIRCLE
  8
Contour
 62
   7
 39
0.100
  6
CONTINUOUS
 10
68.46000
 20
3.00000
 30
 0
 40
1.50000
  0
CIRCLE
  8
Contour
 62
   7
 39
0.100
  6
CONTINUOUS
 10
7.50000
 20
3.00000
 30
 0
 40
1.50000
  0
ARC
  8
Contour
 62
   7
 39
0.100
  6
CONTINUOUS
 10
26.25000
 20
49.87500
 30
 0
 40
0.50000
 50
180.00000
 51
270.00000
  0
LINE
  8
Contour
 62
   7
 39
0.100
  6
CONTINUOUS
 10
26.25000
 20
49.37500
 30
 0
 11
54.75000
 21
49.37500
  0
ARC
  8
Contour
 62
   7
 39
0.100
  6
CONTINUOUS
 10
54.75000
 20
49.87500
 30
 0
 40
0.50000
 50
270.00000
 51
360.00000
  0
LINE
  8
Contour
 62
   7
 39
0.100
  6
CONTINUOUS
 10
55.25000
 20
49.87500
 30
 0
 11
55.25000
 21
78.37500
  0
ARC
  8
Contour
 62
   7
 39
0.100
  6
CONTINUOUS
 10
54.75000
 20
78.37500
 30
 0
 40
0.50000
 50
0.00000
 51
90.00000
  0
LINE
  8
Contour
 62
   7
 39
0.100
  6
CONTINUOUS
 10
54.75000
 20
78.87500
 30
 0
 11
26.25000
 21
78.87500
  0
ARC
  8
Contour
 62
   7
 39
0.100
  6
CONTINUOUS
 10
26.25000
 20
78.37500
 30
 0
 40
0.50000
 50
90.00000
 51
180.00000
  0
LINE
  8
Contour
 62
   7
 39
0.100
  6
CONTINUOUS
 10
25.75000
 20
78.37500
 30
 0
 11
25.75000
 21
49.87500
  0
CIRCLE
  8
Contour
 62
   7
 39
0.100
  6
CONTINUOUS
 10
22.50000
 20
76.62500
 30
 0
 40
1.50000
  0
CIRCLE
  8
Contour
 62
   7
 39
0.100
  6
CONTINUOUS
 10
22.50000
 20
51.62500
 30
 0
 40
1.50000
  0
CIRCLE
  8
Contour
 62
   7
 39
0.100
  6
CONTINUOUS
 10
63.75000
 20
76.62500
 30
 0
 40
1.50000
  0
CIRCLE
  8
Contour
 62
   7
 39
0.100
  6
CONTINUOUS
 10
63.75000
 20
51.62500
 30
 0
 40
1.50000
  0
CIRCLE
  8
Contour
 62
   7
 39
0.100
  6
CONTINUOUS
 10
15.75000
 20
29.25000
 30
 0
 40
3.50000
  0
CIRCLE
  8
Contour
 62
   7
 39
0.100
  6
CONTINUOUS
 10
40.50000
 20
29.25000
 30
 0
 40
3.50000
  0
CIRCLE
  8
Contour
 62
   7
 39
0.100
  6
CONTINUOUS
 10
65.25000
 20
29.25000
 30
 0
 40
3.50000
  0
CIRCLE
  8
Contour
 62
   7
 39
0.100
  6
CONTINUOUS
 10
15.75000
 20
99.00000
 30
 0
 40
3.50000
  0
CIRCLE
  8
Contour
 62
   7
 39
0.100
  6
CONTINUOUS
 10
40.50000
 20
99.00000
 30
 0
 40
3.50000
  0
CIRCLE
  8
Contour
 62
   7
 39
0.100
  6
CONTINUOUS
 10
65.25000
 20
99.00000
 30
 0
 40
3.50000
  0
LINE
  8
Reference_points
 62
   1
 39
0.100
  6
CONTINUOUS
 10
-1.00000
 20
0.00000
 30
 0
 11
1.00000
 21
0.00000
  0
LINE
  8
Reference_points
 62
   1
 39
0.100
  6
CONTINUOUS
 10
0.00000
 20
-1.00000
 30
 0
 11
0.00000
 21
1.00000
  0
LINE
  8
Reference_points
 62
   1
 39
0.100
  6
CONTINUOUS
 10
6.50000
 20
125.50000
 30
 0
 11
8.50000
 21
125.50000
  0
LINE
  8
Reference_points
 62
   1
 39
0.100
  6
CONTINUOUS
 10
7.50000
 20
124.50000
 30
 0
 11
7.50000
 21
126.50000
  0
LINE
  8
Reference_points
 62
   1
 39
0.100
  6
CONTINUOUS
 10
67.46000
 20
125.50000
 30
 0
 11
69.46000
 21
125.50000
  0
LINE
  8
Reference_points
 62
   1
 39
0.100
  6
CONTINUOUS
 10
68.46000
 20
124.50000
 30
 0
 11
68.46000
 21
126.50000
  0
LINE
  8
Reference_points
 62
   1
 39
0.100
  6
CONTINUOUS
 10
67.46000
 20
3.00000
 30
 0
 11
69.46000
 21
3.00000
  0
LINE
  8
Reference_points
 62
   1
 39
0.100
  6
CONTINUOUS
 10
68.46000
 20
2.00000
 30
 0
 11
68.46000
 21
4.00000
  0
LINE
  8
Reference_points
 62
   1
 39
0.100
  6
CONTINUOUS
 10
6.50000
 20
3.00000
 30
 0
 11
8.50000
 21
3.00000
  0
LINE
  8
Reference_points
 62
   1
 39
0.100
  6
CONTINUOUS
 10
7.50000
 20
2.00000
 30
 0
 11
7.50000
 21
4.00000
  0
LINE
  8
Reference_points
 62
   1
 39
0.100
  6
CONTINUOUS
 10
39.50000
 20
64.12500
 30
 0
 11
41.50000
 21
64.12500
  0
LINE
  8
Reference_points
 62
   1
 39
0.100
  6
CONTINUOUS
 10
40.50000
 20
63.12500
 30
 0
 11
40.50000
 21
65.12500
  0
LINE
  8
Reference_points
 62
   1
 39
0.100
  6
CONTINUOUS
 10
42.25000
 20
64.12500
 30
 0
 11
44.25000
 21
64.12500
  0
LINE
  8
Reference_points
 62
   1
 39
0.100
  6
CONTINUOUS
 10
43.25000
 20
63.12500
 30
 0
 11
43.25000
 21
65.12500
  0
LINE
  8
Reference_points
 62
   1
 39
0.100
  6
CONTINUOUS
 10
42.25000
 20
64.12500
 30
 0
 11
44.25000
 21
64.12500
  0
LINE
  8
Reference_points
 62
   1
 39
0.100
  6
CONTINUOUS
 10
43.25000
 20
63.12500
 30
 0
 11
43.25000
 21
65.12500
  0
LINE
  8
Reference_points
 62
   1
 39
0.100
  6
CONTINUOUS
 10
21.50000
 20
76.62500
 30
 0
 11
23.50000
 21
76.62500
  0
LINE
  8
Reference_points
 62
   1
 39
0.100
  6
CONTINUOUS
 10
22.50000
 20
75.62500
 30
 0
 11
22.50000
 21
77.62500
  0
LINE
  8
Reference_points
 62
   1
 39
0.100
  6
CONTINUOUS
 10
21.50000
 20
51.62500
 30
 0
 11
23.50000
 21
51.62500
  0
LINE
  8
Reference_points
 62
   1
 39
0.100
  6
CONTINUOUS
 10
22.50000
 20
50.62500
 30
 0
 11
22.50000
 21
52.62500
  0
LINE
  8
Reference_points
 62
   1
 39
0.100
  6
CONTINUOUS
 10
62.75000
 20
76.62500
 30
 0
 11
64.75000
 21
76.62500
  0
LINE
  8
Reference_points
 62
   1
 39
0.100
  6
CONTINUOUS
 10
63.75000
 20
75.62500
 30
 0
 11
63.75000
 21
77.62500
  0
LINE
  8
Reference_points
 62
   1
 39
0.100
  6
CONTINUOUS
 10
62.75000
 20
51.62500
 30
 0
 11
64.75000
 21
51.62500
  0
LINE
  8
Reference_points
 62
   1
 39
0.100
  6
CONTINUOUS
 10
63.75000
 20
50.62500
 30
 0
 11
63.75000
 21
52.62500
  0
LINE
  8
Reference_points
 62
   1
 39
0.100
  6
CONTINUOUS
 10
42.25000
 20
64.12500
 30
 0
 11
44.25000
 21
64.12500
  0
LINE
  8
Reference_points
 62
   1
 39
0.100
  6
CONTINUOUS
 10
43.25000
 20
63.12500
 30
 0
 11
43.25000
 21
65.12500
  0
LINE
  8
Reference_points
 62
   1
 39
0.100
  6
CONTINUOUS
 10
42.25000
 20
64.12500
 30
 0
 11
44.25000
 21
64.12500
  0
LINE
  8
Reference_points
 62
   1
 39
0.100
  6
CONTINUOUS
 10
43.25000
 20
63.12500
 30
 0
 11
43.25000
 21
65.12500
  0
LINE
  8
Reference_points
 62
   1
 39
0.100
  6
CONTINUOUS
 10
39.50000
 20
29.25000
 30
 0
 11
41.50000
 21
29.25000
  0
LINE
  8
Reference_points
 62
   1
 39
0.100
  6
CONTINUOUS
 10
40.50000
 20
28.25000
 30
 0
 11
40.50000
 21
30.25000
  0
LINE
  8
Reference_points
 62
   1
 39
0.100
  6
CONTINUOUS
 10
64.25000
 20
29.25000
 30
 0
 11
66.25000
 21
29.25000
  0
LINE
  8
Reference_points
 62
   1
 39
0.100
  6
CONTINUOUS
 10
65.25000
 20
28.25000
 30
 0
 11
65.25000
 21
30.25000
  0
LINE
  8
Reference_points
 62
   1
 39
0.100
  6
CONTINUOUS
 10
14.75000
 20
29.25000
 30
 0
 11
16.75000
 21
29.25000
  0
LINE
  8
Reference_points
 62
   1
 39
0.100
  6
CONTINUOUS
 10
15.75000
 20
28.25000
 30
 0
 11
15.75000
 21
30.25000
  0
LINE
  8
Reference_points
 62
   1
 39
0.100
  6
CONTINUOUS
 10
14.75000
 20
29.25000
 30
 0
 11
16.75000
 21
29.25000
  0
LINE
  8
Reference_points
 62
   1
 39
0.100
  6
CONTINUOUS
 10
15.75000
 20
28.25000
 30
 0
 11
15.75000
 21
30.25000
  0
LINE
  8
Reference_points
 62
   1
 39
0.100
  6
CONTINUOUS
 10
39.50000
 20
29.25000
 30
 0
 11
41.50000
 21
29.25000
  0
LINE
  8
Reference_points
 62
   1
 39
0.100
  6
CONTINUOUS
 10
40.50000
 20
28.25000
 30
 0
 11
40.50000
 21
30.25000
  0
LINE
  8
Reference_points
 62
   1
 39
0.100
  6
CONTINUOUS
 10
64.25000
 20
29.25000
 30
 0
 11
66.25000
 21
29.25000
  0
LINE
  8
Reference_points
 62
   1
 39
0.100
  6
CONTINUOUS
 10
65.25000
 20
28.25000
 30
 0
 11
65.25000
 21
30.25000
  0
LINE
  8
Reference_points
 62
   1
 39
0.100
  6
CONTINUOUS
 10
39.50000
 20
29.25000
 30
 0
 11
41.50000
 21
29.25000
  0
LINE
  8
Reference_points
 62
   1
 39
0.100
  6
CONTINUOUS
 10
40.50000
 20
28.25000
 30
 0
 11
40.50000
 21
30.25000
  0
LINE
  8
Reference_points
 62
   1
 39
0.100
  6
CONTINUOUS
 10
39.50000
 20
29.25000
 30
 0
 11
41.50000
 21
29.25000
  0
LINE
  8
Reference_points
 62
   1
 39
0.100
  6
CONTINUOUS
 10
40.50000
 20
28.25000
 30
 0
 11
40.50000
 21
30.25000
  0
LINE
  8
Reference_points
 62
   1
 39
0.100
  6
CONTINUOUS
 10
39.50000
 20
99.00000
 30
 0
 11
41.50000
 21
99.00000
  0
LINE
  8
Reference_points
 62
   1
 39
0.100
  6
CONTINUOUS
 10
40.50000
 20
98.00000
 30
 0
 11
40.50000
 21
100.00000
  0
LINE
  8
Reference_points
 62
   1
 39
0.100
  6
CONTINUOUS
 10
64.25000
 20
99.00000
 30
 0
 11
66.25000
 21
99.00000
  0
LINE
  8
Reference_points
 62
   1
 39
0.100
  6
CONTINUOUS
 10
65.25000
 20
98.00000
 30
 0
 11
65.25000
 21
100.00000
  0
LINE
  8
Reference_points
 62
   1
 39
0.100
  6
CONTINUOUS
 10
14.75000
 20
99.00000
 30
 0
 11
16.75000
 21
99.00000
  0
LINE
  8
Reference_points
 62
   1
 39
0.100
  6
CONTINUOUS
 10
15.75000
 20
98.00000
 30
 0
 11
15.75000
 21
100.00000
  0
LINE
  8
Reference_points
 62
   1
 39
0.100
  6
CONTINUOUS
 10
14.75000
 20
99.00000
 30
 0
 11
16.75000
 21
99.00000
  0
LINE
  8
Reference_points
 62
   1
 39
0.100
  6
CONTINUOUS
 10
15.75000
 20
98.00000
 30
 0
 11
15.75000
 21
100.00000
  0
LINE
  8
Reference_points
 62
   1
 39
0.100
  6
CONTINUOUS
 10
39.50000
 20
99.00000
 30
 0
 11
41.50000
 21
99.00000
  0
LINE
  8
Reference_points
 62
   1
 39
0.100
  6
CONTINUOUS
 10
40.50000
 20
98.00000
 30
 0
 11
40.50000
 21
100.00000
  0
LINE
  8
Reference_points
 62
   1
 39
0.100
  6
CONTINUOUS
 10
64.25000
 20
99.00000
 30
 0
 11
66.25000
 21
99.00000
  0
LINE
  8
Reference_points
 62
   1
 39
0.100
  6
CONTINUOUS
 10
65.25000
 20
98.00000
 30
 0
 11
65.25000
 21
100.00000
  0
LINE
  8
Reference_points
 62
   1
 39
0.100
  6
CONTINUOUS
 10
39.50000
 20
99.00000
 30
 0
 11
41.50000
 21
99.00000
  0
LINE
  8
Reference_points
 62
   1
 39
0.100
  6
CONTINUOUS
 10
40.50000
 20
98.00000
 30
 0
 11
40.50000
 21
100.00000
  0
LINE
  8
Reference_points
 62
   1
 39
0.100
  6
CONTINUOUS
 10
39.50000
 20
99.00000
 30
 0
 11
41.50000
 21
99.00000
  0
LINE
  8
Reference_points
 62
   1
 39
0.100
  6
CONTINUOUS
 10
40.50000
 20
98.00000
 30
 0
 11
40.50000
 21
100.00000
  0
ENDSEC
  0
EOF
