G04 #@! TF.GenerationSoftware,KiCad,Pcbnew,(5.1.4-0-10_14)*
G04 #@! TF.CreationDate,2019-09-27T18:33:15+01:00*
G04 #@! TF.ProjectId,TopBreakout,546f7042-7265-4616-9b6f-75742e6b6963,rev?*
G04 #@! TF.SameCoordinates,Original*
G04 #@! TF.FileFunction,Legend,Bot*
G04 #@! TF.FilePolarity,Positive*
%FSLAX46Y46*%
G04 Gerber Fmt 4.6, Leading zero omitted, Abs format (unit mm)*
G04 Created by KiCad (PCBNEW (5.1.4-0-10_14)) date 2019-09-27 18:33:15*
%MOMM*%
%LPD*%
G04 APERTURE LIST*
%ADD10C,0.250000*%
%ADD11C,0.600000*%
%ADD12C,0.150000*%
%ADD13C,0.120000*%
%ADD14C,0.203200*%
%ADD15C,0.127000*%
%ADD16C,0.076000*%
%ADD17C,0.096520*%
%ADD18C,0.115824*%
%ADD19C,0.154432*%
%ADD20C,0.081280*%
G04 APERTURE END LIST*
D10*
X160379000Y-134416000D02*
G75*
G03X160379000Y-134416000I-125000J0D01*
G01*
D11*
X159254000Y-131966000D02*
G75*
G03X159254000Y-131966000I-300000J0D01*
G01*
D12*
X151654000Y-132966000D02*
X159954000Y-132966000D01*
X151654000Y-124666000D02*
X159954000Y-124666000D01*
X159954000Y-132966000D02*
X159954000Y-124666000D01*
X151654000Y-132966000D02*
X151654000Y-124666000D01*
D13*
X143422000Y-138758000D02*
X143422000Y-137758000D01*
X145122000Y-137758000D02*
X145122000Y-138758000D01*
X139866000Y-138758000D02*
X139866000Y-137758000D01*
X141566000Y-137758000D02*
X141566000Y-138758000D01*
X128194000Y-93352300D02*
X128194000Y-91752300D01*
X128194000Y-91752300D02*
X130794000Y-91752300D01*
X128194000Y-93352300D02*
X130794000Y-93352300D01*
D14*
X149733000Y-86233000D02*
X142240000Y-86233000D01*
X149733000Y-95758000D02*
X149733000Y-86233000D01*
X142240000Y-95758000D02*
X149733000Y-95758000D01*
X142240000Y-86233000D02*
X142240000Y-95758000D01*
D15*
X148965300Y-87426000D02*
G75*
G03X148965300Y-87426000I-599300J0D01*
G01*
D13*
X130394000Y-87196700D02*
X129194000Y-87196700D01*
X129194000Y-88956700D02*
X130394000Y-88956700D01*
X163414000Y-90052000D02*
X162214000Y-90052000D01*
X162214000Y-91812000D02*
X163414000Y-91812000D01*
X130648000Y-96148000D02*
X129448000Y-96148000D01*
X129448000Y-97908000D02*
X130648000Y-97908000D01*
X130394000Y-82686000D02*
X129194000Y-82686000D01*
X129194000Y-84446000D02*
X130394000Y-84446000D01*
X162696000Y-138338000D02*
X162696000Y-139538000D01*
X164456000Y-139538000D02*
X164456000Y-138338000D01*
X154635000Y-139538000D02*
X154635000Y-138338000D01*
X152875000Y-138338000D02*
X152875000Y-139538000D01*
X147964000Y-138338000D02*
X147964000Y-139538000D01*
X149724000Y-139538000D02*
X149724000Y-138338000D01*
X136262000Y-120742000D02*
X136262000Y-119542000D01*
X134502000Y-119542000D02*
X134502000Y-120742000D01*
X157785000Y-138338000D02*
X157785000Y-139538000D01*
X159545000Y-139538000D02*
X159545000Y-138338000D01*
D10*
X181714000Y-135569000D02*
G75*
G03X181714000Y-135569000I-125000J0D01*
G01*
D12*
X184639000Y-141744000D02*
X184639000Y-140369000D01*
X184639000Y-141744000D02*
X174959000Y-141744000D01*
X174959000Y-141744000D02*
X174959000Y-140369000D01*
D10*
X118373000Y-112500000D02*
G75*
G03X118373000Y-112500000I-125000J0D01*
G01*
D12*
X117248000Y-112750000D02*
X116648000Y-112750000D01*
X116648000Y-113600000D02*
X116648000Y-112750000D01*
X117248000Y-115850000D02*
X116648000Y-115850000D01*
X116648000Y-115850000D02*
X116648000Y-115000000D01*
D10*
X121050000Y-126220000D02*
G75*
G03X121050000Y-126220000I-125000J0D01*
G01*
D12*
X122325000Y-125870000D02*
X125325000Y-125870000D01*
X122325000Y-117970000D02*
X125325000Y-117970000D01*
D10*
X134375000Y-134843000D02*
G75*
G03X134375000Y-134843000I-125000J0D01*
G01*
D12*
X136800000Y-140943000D02*
X136800000Y-140743000D01*
X136800000Y-137743000D02*
X136800000Y-136543000D01*
X136800000Y-136543000D02*
X134800000Y-136543000D01*
X136800000Y-140943000D02*
X117200000Y-140943000D01*
X117200000Y-140943000D02*
X117200000Y-140743000D01*
X119200000Y-136543000D02*
X117200000Y-136543000D01*
X117200000Y-137743000D02*
X117200000Y-136543000D01*
D16*
X162580761Y-133912790D02*
X163349809Y-133912790D01*
X163440285Y-133958028D01*
X163485523Y-134003266D01*
X163530761Y-134093742D01*
X163530761Y-134274695D01*
X163485523Y-134365171D01*
X163440285Y-134410409D01*
X163349809Y-134455647D01*
X162580761Y-134455647D01*
X163530761Y-135405647D02*
X163530761Y-134862790D01*
X163530761Y-135134219D02*
X162580761Y-135134219D01*
X162716476Y-135043742D01*
X162806952Y-134953266D01*
X162852190Y-134862790D01*
D12*
X143867142Y-134231142D02*
X143914761Y-134183523D01*
X143962380Y-134040666D01*
X143962380Y-133945428D01*
X143914761Y-133802571D01*
X143819523Y-133707333D01*
X143724285Y-133659714D01*
X143533809Y-133612095D01*
X143390952Y-133612095D01*
X143200476Y-133659714D01*
X143105238Y-133707333D01*
X143010000Y-133802571D01*
X142962380Y-133945428D01*
X142962380Y-134040666D01*
X143010000Y-134183523D01*
X143057619Y-134231142D01*
X143962380Y-135183523D02*
X143962380Y-134612095D01*
X143962380Y-134897809D02*
X142962380Y-134897809D01*
X143105238Y-134802571D01*
X143200476Y-134707333D01*
X143248095Y-134612095D01*
X143962380Y-136135904D02*
X143962380Y-135564476D01*
X143962380Y-135850190D02*
X142962380Y-135850190D01*
X143105238Y-135754952D01*
X143200476Y-135659714D01*
X143248095Y-135564476D01*
X144232380Y-132469142D02*
X144232380Y-132564380D01*
X144280000Y-132659619D01*
X144327619Y-132707238D01*
X144422857Y-132754857D01*
X144613333Y-132802476D01*
X144851428Y-132802476D01*
X145041904Y-132754857D01*
X145137142Y-132707238D01*
X145184761Y-132659619D01*
X145232380Y-132564380D01*
X145232380Y-132469142D01*
X145184761Y-132373904D01*
X145137142Y-132326285D01*
X145041904Y-132278666D01*
X144851428Y-132231047D01*
X144613333Y-132231047D01*
X144422857Y-132278666D01*
X144327619Y-132326285D01*
X144280000Y-132373904D01*
X144232380Y-132469142D01*
X145137142Y-133231047D02*
X145184761Y-133278666D01*
X145232380Y-133231047D01*
X145184761Y-133183428D01*
X145137142Y-133231047D01*
X145232380Y-133231047D01*
X145232380Y-134231047D02*
X145232380Y-133659619D01*
X145232380Y-133945333D02*
X144232380Y-133945333D01*
X144375238Y-133850095D01*
X144470476Y-133754857D01*
X144518095Y-133659619D01*
X144565714Y-135088190D02*
X145232380Y-135088190D01*
X144565714Y-134659619D02*
X145089523Y-134659619D01*
X145184761Y-134707238D01*
X145232380Y-134802476D01*
X145232380Y-134945333D01*
X145184761Y-135040571D01*
X145137142Y-135088190D01*
X144708571Y-135897714D02*
X144708571Y-135564380D01*
X145232380Y-135564380D02*
X144232380Y-135564380D01*
X144232380Y-136040571D01*
X140311142Y-133977142D02*
X140358761Y-133929523D01*
X140406380Y-133786666D01*
X140406380Y-133691428D01*
X140358761Y-133548571D01*
X140263523Y-133453333D01*
X140168285Y-133405714D01*
X139977809Y-133358095D01*
X139834952Y-133358095D01*
X139644476Y-133405714D01*
X139549238Y-133453333D01*
X139454000Y-133548571D01*
X139406380Y-133691428D01*
X139406380Y-133786666D01*
X139454000Y-133929523D01*
X139501619Y-133977142D01*
X140406380Y-134929523D02*
X140406380Y-134358095D01*
X140406380Y-134643809D02*
X139406380Y-134643809D01*
X139549238Y-134548571D01*
X139644476Y-134453333D01*
X139692095Y-134358095D01*
X139406380Y-135548571D02*
X139406380Y-135643809D01*
X139454000Y-135739047D01*
X139501619Y-135786666D01*
X139596857Y-135834285D01*
X139787333Y-135881904D01*
X140025428Y-135881904D01*
X140215904Y-135834285D01*
X140311142Y-135786666D01*
X140358761Y-135739047D01*
X140406380Y-135643809D01*
X140406380Y-135548571D01*
X140358761Y-135453333D01*
X140311142Y-135405714D01*
X140215904Y-135358095D01*
X140025428Y-135310476D01*
X139787333Y-135310476D01*
X139596857Y-135358095D01*
X139501619Y-135405714D01*
X139454000Y-135453333D01*
X139406380Y-135548571D01*
X140676380Y-132469142D02*
X140676380Y-132564380D01*
X140724000Y-132659619D01*
X140771619Y-132707238D01*
X140866857Y-132754857D01*
X141057333Y-132802476D01*
X141295428Y-132802476D01*
X141485904Y-132754857D01*
X141581142Y-132707238D01*
X141628761Y-132659619D01*
X141676380Y-132564380D01*
X141676380Y-132469142D01*
X141628761Y-132373904D01*
X141581142Y-132326285D01*
X141485904Y-132278666D01*
X141295428Y-132231047D01*
X141057333Y-132231047D01*
X140866857Y-132278666D01*
X140771619Y-132326285D01*
X140724000Y-132373904D01*
X140676380Y-132469142D01*
X141581142Y-133231047D02*
X141628761Y-133278666D01*
X141676380Y-133231047D01*
X141628761Y-133183428D01*
X141581142Y-133231047D01*
X141676380Y-133231047D01*
X141676380Y-134231047D02*
X141676380Y-133659619D01*
X141676380Y-133945333D02*
X140676380Y-133945333D01*
X140819238Y-133850095D01*
X140914476Y-133754857D01*
X140962095Y-133659619D01*
X141009714Y-135088190D02*
X141676380Y-135088190D01*
X141009714Y-134659619D02*
X141533523Y-134659619D01*
X141628761Y-134707238D01*
X141676380Y-134802476D01*
X141676380Y-134945333D01*
X141628761Y-135040571D01*
X141581142Y-135088190D01*
X141152571Y-135897714D02*
X141152571Y-135564380D01*
X141676380Y-135564380D02*
X140676380Y-135564380D01*
X140676380Y-136040571D01*
X127484095Y-93162380D02*
X127484095Y-92162380D01*
X127246000Y-92162380D01*
X127103142Y-92210000D01*
X127007904Y-92305238D01*
X126960285Y-92400476D01*
X126912666Y-92590952D01*
X126912666Y-92733809D01*
X126960285Y-92924285D01*
X127007904Y-93019523D01*
X127103142Y-93114761D01*
X127246000Y-93162380D01*
X127484095Y-93162380D01*
X125960285Y-93162380D02*
X126531714Y-93162380D01*
X126246000Y-93162380D02*
X126246000Y-92162380D01*
X126341238Y-92305238D01*
X126436476Y-92400476D01*
X126531714Y-92448095D01*
X126404666Y-88082380D02*
X126738000Y-87606190D01*
X126976095Y-88082380D02*
X126976095Y-87082380D01*
X126595142Y-87082380D01*
X126499904Y-87130000D01*
X126452285Y-87177619D01*
X126404666Y-87272857D01*
X126404666Y-87415714D01*
X126452285Y-87510952D01*
X126499904Y-87558571D01*
X126595142Y-87606190D01*
X126976095Y-87606190D01*
X125499904Y-87082380D02*
X125976095Y-87082380D01*
X126023714Y-87558571D01*
X125976095Y-87510952D01*
X125880857Y-87463333D01*
X125642761Y-87463333D01*
X125547523Y-87510952D01*
X125499904Y-87558571D01*
X125452285Y-87653809D01*
X125452285Y-87891904D01*
X125499904Y-87987142D01*
X125547523Y-88034761D01*
X125642761Y-88082380D01*
X125880857Y-88082380D01*
X125976095Y-88034761D01*
X126023714Y-87987142D01*
X126968095Y-88447619D02*
X126920476Y-88400000D01*
X126825238Y-88352380D01*
X126587142Y-88352380D01*
X126491904Y-88400000D01*
X126444285Y-88447619D01*
X126396666Y-88542857D01*
X126396666Y-88638095D01*
X126444285Y-88780952D01*
X127015714Y-89352380D01*
X126396666Y-89352380D01*
X126015714Y-88447619D02*
X125968095Y-88400000D01*
X125872857Y-88352380D01*
X125634761Y-88352380D01*
X125539523Y-88400000D01*
X125491904Y-88447619D01*
X125444285Y-88542857D01*
X125444285Y-88638095D01*
X125491904Y-88780952D01*
X126063333Y-89352380D01*
X125444285Y-89352380D01*
X124825238Y-88352380D02*
X124730000Y-88352380D01*
X124634761Y-88400000D01*
X124587142Y-88447619D01*
X124539523Y-88542857D01*
X124491904Y-88733333D01*
X124491904Y-88971428D01*
X124539523Y-89161904D01*
X124587142Y-89257142D01*
X124634761Y-89304761D01*
X124730000Y-89352380D01*
X124825238Y-89352380D01*
X124920476Y-89304761D01*
X124968095Y-89257142D01*
X125015714Y-89161904D01*
X125063333Y-88971428D01*
X125063333Y-88733333D01*
X125015714Y-88542857D01*
X124968095Y-88447619D01*
X124920476Y-88400000D01*
X124825238Y-88352380D01*
X166790666Y-92146380D02*
X167124000Y-91670190D01*
X167362095Y-92146380D02*
X167362095Y-91146380D01*
X166981142Y-91146380D01*
X166885904Y-91194000D01*
X166838285Y-91241619D01*
X166790666Y-91336857D01*
X166790666Y-91479714D01*
X166838285Y-91574952D01*
X166885904Y-91622571D01*
X166981142Y-91670190D01*
X167362095Y-91670190D01*
X166457333Y-91146380D02*
X165838285Y-91146380D01*
X166171619Y-91527333D01*
X166028761Y-91527333D01*
X165933523Y-91574952D01*
X165885904Y-91622571D01*
X165838285Y-91717809D01*
X165838285Y-91955904D01*
X165885904Y-92051142D01*
X165933523Y-92098761D01*
X166028761Y-92146380D01*
X166314476Y-92146380D01*
X166409714Y-92098761D01*
X166457333Y-92051142D01*
X168116095Y-89717619D02*
X168068476Y-89670000D01*
X167973238Y-89622380D01*
X167735142Y-89622380D01*
X167639904Y-89670000D01*
X167592285Y-89717619D01*
X167544666Y-89812857D01*
X167544666Y-89908095D01*
X167592285Y-90050952D01*
X168163714Y-90622380D01*
X167544666Y-90622380D01*
X167163714Y-89717619D02*
X167116095Y-89670000D01*
X167020857Y-89622380D01*
X166782761Y-89622380D01*
X166687523Y-89670000D01*
X166639904Y-89717619D01*
X166592285Y-89812857D01*
X166592285Y-89908095D01*
X166639904Y-90050952D01*
X167211333Y-90622380D01*
X166592285Y-90622380D01*
X165973238Y-89622380D02*
X165878000Y-89622380D01*
X165782761Y-89670000D01*
X165735142Y-89717619D01*
X165687523Y-89812857D01*
X165639904Y-90003333D01*
X165639904Y-90241428D01*
X165687523Y-90431904D01*
X165735142Y-90527142D01*
X165782761Y-90574761D01*
X165878000Y-90622380D01*
X165973238Y-90622380D01*
X166068476Y-90574761D01*
X166116095Y-90527142D01*
X166163714Y-90431904D01*
X166211333Y-90241428D01*
X166211333Y-90003333D01*
X166163714Y-89812857D01*
X166116095Y-89717619D01*
X166068476Y-89670000D01*
X165973238Y-89622380D01*
X126658666Y-96972380D02*
X126992000Y-96496190D01*
X127230095Y-96972380D02*
X127230095Y-95972380D01*
X126849142Y-95972380D01*
X126753904Y-96020000D01*
X126706285Y-96067619D01*
X126658666Y-96162857D01*
X126658666Y-96305714D01*
X126706285Y-96400952D01*
X126753904Y-96448571D01*
X126849142Y-96496190D01*
X127230095Y-96496190D01*
X126277714Y-96067619D02*
X126230095Y-96020000D01*
X126134857Y-95972380D01*
X125896761Y-95972380D01*
X125801523Y-96020000D01*
X125753904Y-96067619D01*
X125706285Y-96162857D01*
X125706285Y-96258095D01*
X125753904Y-96400952D01*
X126325333Y-96972380D01*
X125706285Y-96972380D01*
X127222095Y-97337619D02*
X127174476Y-97290000D01*
X127079238Y-97242380D01*
X126841142Y-97242380D01*
X126745904Y-97290000D01*
X126698285Y-97337619D01*
X126650666Y-97432857D01*
X126650666Y-97528095D01*
X126698285Y-97670952D01*
X127269714Y-98242380D01*
X126650666Y-98242380D01*
X126269714Y-97337619D02*
X126222095Y-97290000D01*
X126126857Y-97242380D01*
X125888761Y-97242380D01*
X125793523Y-97290000D01*
X125745904Y-97337619D01*
X125698285Y-97432857D01*
X125698285Y-97528095D01*
X125745904Y-97670952D01*
X126317333Y-98242380D01*
X125698285Y-98242380D01*
X125079238Y-97242380D02*
X124984000Y-97242380D01*
X124888761Y-97290000D01*
X124841142Y-97337619D01*
X124793523Y-97432857D01*
X124745904Y-97623333D01*
X124745904Y-97861428D01*
X124793523Y-98051904D01*
X124841142Y-98147142D01*
X124888761Y-98194761D01*
X124984000Y-98242380D01*
X125079238Y-98242380D01*
X125174476Y-98194761D01*
X125222095Y-98147142D01*
X125269714Y-98051904D01*
X125317333Y-97861428D01*
X125317333Y-97623333D01*
X125269714Y-97432857D01*
X125222095Y-97337619D01*
X125174476Y-97290000D01*
X125079238Y-97242380D01*
X126404666Y-83510380D02*
X126738000Y-83034190D01*
X126976095Y-83510380D02*
X126976095Y-82510380D01*
X126595142Y-82510380D01*
X126499904Y-82558000D01*
X126452285Y-82605619D01*
X126404666Y-82700857D01*
X126404666Y-82843714D01*
X126452285Y-82938952D01*
X126499904Y-82986571D01*
X126595142Y-83034190D01*
X126976095Y-83034190D01*
X125452285Y-83510380D02*
X126023714Y-83510380D01*
X125738000Y-83510380D02*
X125738000Y-82510380D01*
X125833238Y-82653238D01*
X125928476Y-82748476D01*
X126023714Y-82796095D01*
X126968095Y-83875619D02*
X126920476Y-83828000D01*
X126825238Y-83780380D01*
X126587142Y-83780380D01*
X126491904Y-83828000D01*
X126444285Y-83875619D01*
X126396666Y-83970857D01*
X126396666Y-84066095D01*
X126444285Y-84208952D01*
X127015714Y-84780380D01*
X126396666Y-84780380D01*
X126015714Y-83875619D02*
X125968095Y-83828000D01*
X125872857Y-83780380D01*
X125634761Y-83780380D01*
X125539523Y-83828000D01*
X125491904Y-83875619D01*
X125444285Y-83970857D01*
X125444285Y-84066095D01*
X125491904Y-84208952D01*
X126063333Y-84780380D01*
X125444285Y-84780380D01*
X124825238Y-83780380D02*
X124730000Y-83780380D01*
X124634761Y-83828000D01*
X124587142Y-83875619D01*
X124539523Y-83970857D01*
X124491904Y-84161333D01*
X124491904Y-84399428D01*
X124539523Y-84589904D01*
X124587142Y-84685142D01*
X124634761Y-84732761D01*
X124730000Y-84780380D01*
X124825238Y-84780380D01*
X124920476Y-84732761D01*
X124968095Y-84685142D01*
X125015714Y-84589904D01*
X125063333Y-84399428D01*
X125063333Y-84161333D01*
X125015714Y-83970857D01*
X124968095Y-83875619D01*
X124920476Y-83828000D01*
X124825238Y-83780380D01*
X165678380Y-138295142D02*
X165202190Y-137961809D01*
X165678380Y-137723714D02*
X164678380Y-137723714D01*
X164678380Y-138104666D01*
X164726000Y-138199904D01*
X164773619Y-138247523D01*
X164868857Y-138295142D01*
X165011714Y-138295142D01*
X165106952Y-138247523D01*
X165154571Y-138199904D01*
X165202190Y-138104666D01*
X165202190Y-137723714D01*
X165678380Y-139247523D02*
X165678380Y-138676095D01*
X165678380Y-138961809D02*
X164678380Y-138961809D01*
X164821238Y-138866571D01*
X164916476Y-138771333D01*
X164964095Y-138676095D01*
X164678380Y-139866571D02*
X164678380Y-139961809D01*
X164726000Y-140057047D01*
X164773619Y-140104666D01*
X164868857Y-140152285D01*
X165059333Y-140199904D01*
X165297428Y-140199904D01*
X165487904Y-140152285D01*
X165583142Y-140104666D01*
X165630761Y-140057047D01*
X165678380Y-139961809D01*
X165678380Y-139866571D01*
X165630761Y-139771333D01*
X165583142Y-139723714D01*
X165487904Y-139676095D01*
X165297428Y-139628476D01*
X165059333Y-139628476D01*
X164868857Y-139676095D01*
X164773619Y-139723714D01*
X164726000Y-139771333D01*
X164678380Y-139866571D01*
X161611714Y-138009428D02*
X162278380Y-138009428D01*
X161230761Y-137771333D02*
X161945047Y-137533238D01*
X161945047Y-138152285D01*
X162183142Y-138533238D02*
X162230761Y-138580857D01*
X162278380Y-138533238D01*
X162230761Y-138485619D01*
X162183142Y-138533238D01*
X162278380Y-138533238D01*
X161278380Y-138914190D02*
X161278380Y-139580857D01*
X162278380Y-139152285D01*
X162278380Y-139961809D02*
X161278380Y-139961809D01*
X161897428Y-140057047D02*
X162278380Y-140342761D01*
X161611714Y-140342761D02*
X161992666Y-139961809D01*
X153360380Y-136231333D02*
X152884190Y-135898000D01*
X153360380Y-135659904D02*
X152360380Y-135659904D01*
X152360380Y-136040857D01*
X152408000Y-136136095D01*
X152455619Y-136183714D01*
X152550857Y-136231333D01*
X152693714Y-136231333D01*
X152788952Y-136183714D01*
X152836571Y-136136095D01*
X152884190Y-136040857D01*
X152884190Y-135659904D01*
X153360380Y-136707523D02*
X153360380Y-136898000D01*
X153312761Y-136993238D01*
X153265142Y-137040857D01*
X153122285Y-137136095D01*
X152931809Y-137183714D01*
X152550857Y-137183714D01*
X152455619Y-137136095D01*
X152408000Y-137088476D01*
X152360380Y-136993238D01*
X152360380Y-136802761D01*
X152408000Y-136707523D01*
X152455619Y-136659904D01*
X152550857Y-136612285D01*
X152788952Y-136612285D01*
X152884190Y-136659904D01*
X152931809Y-136707523D01*
X152979428Y-136802761D01*
X152979428Y-136993238D01*
X152931809Y-137088476D01*
X152884190Y-137136095D01*
X152788952Y-137183714D01*
X155233714Y-138009428D02*
X155900380Y-138009428D01*
X154852761Y-137771333D02*
X155567047Y-137533238D01*
X155567047Y-138152285D01*
X155805142Y-138533238D02*
X155852761Y-138580857D01*
X155900380Y-138533238D01*
X155852761Y-138485619D01*
X155805142Y-138533238D01*
X155900380Y-138533238D01*
X154900380Y-138914190D02*
X154900380Y-139580857D01*
X155900380Y-139152285D01*
X155900380Y-139961809D02*
X154900380Y-139961809D01*
X155519428Y-140057047D02*
X155900380Y-140342761D01*
X155233714Y-140342761D02*
X155614666Y-139961809D01*
X148788380Y-135977333D02*
X148312190Y-135644000D01*
X148788380Y-135405904D02*
X147788380Y-135405904D01*
X147788380Y-135786857D01*
X147836000Y-135882095D01*
X147883619Y-135929714D01*
X147978857Y-135977333D01*
X148121714Y-135977333D01*
X148216952Y-135929714D01*
X148264571Y-135882095D01*
X148312190Y-135786857D01*
X148312190Y-135405904D01*
X148216952Y-136548761D02*
X148169333Y-136453523D01*
X148121714Y-136405904D01*
X148026476Y-136358285D01*
X147978857Y-136358285D01*
X147883619Y-136405904D01*
X147836000Y-136453523D01*
X147788380Y-136548761D01*
X147788380Y-136739238D01*
X147836000Y-136834476D01*
X147883619Y-136882095D01*
X147978857Y-136929714D01*
X148026476Y-136929714D01*
X148121714Y-136882095D01*
X148169333Y-136834476D01*
X148216952Y-136739238D01*
X148216952Y-136548761D01*
X148264571Y-136453523D01*
X148312190Y-136405904D01*
X148407428Y-136358285D01*
X148597904Y-136358285D01*
X148693142Y-136405904D01*
X148740761Y-136453523D01*
X148788380Y-136548761D01*
X148788380Y-136739238D01*
X148740761Y-136834476D01*
X148693142Y-136882095D01*
X148597904Y-136929714D01*
X148407428Y-136929714D01*
X148312190Y-136882095D01*
X148264571Y-136834476D01*
X148216952Y-136739238D01*
X149391714Y-134453428D02*
X150058380Y-134453428D01*
X149010761Y-134215333D02*
X149725047Y-133977238D01*
X149725047Y-134596285D01*
X149963142Y-134977238D02*
X150010761Y-135024857D01*
X150058380Y-134977238D01*
X150010761Y-134929619D01*
X149963142Y-134977238D01*
X150058380Y-134977238D01*
X149058380Y-135358190D02*
X149058380Y-136024857D01*
X150058380Y-135596285D01*
X150058380Y-136405809D02*
X149058380Y-136405809D01*
X149677428Y-136501047D02*
X150058380Y-136786761D01*
X149391714Y-136786761D02*
X149772666Y-136405809D01*
X134184380Y-119975333D02*
X133708190Y-119642000D01*
X134184380Y-119403904D02*
X133184380Y-119403904D01*
X133184380Y-119784857D01*
X133232000Y-119880095D01*
X133279619Y-119927714D01*
X133374857Y-119975333D01*
X133517714Y-119975333D01*
X133612952Y-119927714D01*
X133660571Y-119880095D01*
X133708190Y-119784857D01*
X133708190Y-119403904D01*
X133184380Y-120308666D02*
X133184380Y-120975333D01*
X134184380Y-120546761D01*
X136917714Y-119213428D02*
X137584380Y-119213428D01*
X136536761Y-118975333D02*
X137251047Y-118737238D01*
X137251047Y-119356285D01*
X137489142Y-119737238D02*
X137536761Y-119784857D01*
X137584380Y-119737238D01*
X137536761Y-119689619D01*
X137489142Y-119737238D01*
X137584380Y-119737238D01*
X136584380Y-120118190D02*
X136584380Y-120784857D01*
X137584380Y-120356285D01*
X137584380Y-121165809D02*
X136584380Y-121165809D01*
X137203428Y-121261047D02*
X137584380Y-121546761D01*
X136917714Y-121546761D02*
X137298666Y-121165809D01*
X159202380Y-136231333D02*
X158726190Y-135898000D01*
X159202380Y-135659904D02*
X158202380Y-135659904D01*
X158202380Y-136040857D01*
X158250000Y-136136095D01*
X158297619Y-136183714D01*
X158392857Y-136231333D01*
X158535714Y-136231333D01*
X158630952Y-136183714D01*
X158678571Y-136136095D01*
X158726190Y-136040857D01*
X158726190Y-135659904D01*
X158535714Y-137088476D02*
X159202380Y-137088476D01*
X158154761Y-136850380D02*
X158869047Y-136612285D01*
X158869047Y-137231333D01*
X156700714Y-138009428D02*
X157367380Y-138009428D01*
X156319761Y-137771333D02*
X157034047Y-137533238D01*
X157034047Y-138152285D01*
X157272142Y-138533238D02*
X157319761Y-138580857D01*
X157367380Y-138533238D01*
X157319761Y-138485619D01*
X157272142Y-138533238D01*
X157367380Y-138533238D01*
X156367380Y-138914190D02*
X156367380Y-139580857D01*
X157367380Y-139152285D01*
X157367380Y-139961809D02*
X156367380Y-139961809D01*
X156986428Y-140057047D02*
X157367380Y-140342761D01*
X156700714Y-140342761D02*
X157081666Y-139961809D01*
D16*
X184363409Y-134898761D02*
X184363409Y-135667809D01*
X184318171Y-135758285D01*
X184272933Y-135803523D01*
X184182457Y-135848761D01*
X184001504Y-135848761D01*
X183911028Y-135803523D01*
X183865790Y-135758285D01*
X183820552Y-135667809D01*
X183820552Y-134898761D01*
X183413409Y-135803523D02*
X183277695Y-135848761D01*
X183051504Y-135848761D01*
X182961028Y-135803523D01*
X182915790Y-135758285D01*
X182870552Y-135667809D01*
X182870552Y-135577333D01*
X182915790Y-135486857D01*
X182961028Y-135441619D01*
X183051504Y-135396380D01*
X183232457Y-135351142D01*
X183322933Y-135305904D01*
X183368171Y-135260666D01*
X183413409Y-135170190D01*
X183413409Y-135079714D01*
X183368171Y-134989238D01*
X183322933Y-134944000D01*
X183232457Y-134898761D01*
X183006266Y-134898761D01*
X182870552Y-134944000D01*
X183141980Y-134763047D02*
X183141980Y-135984476D01*
X182508647Y-134989238D02*
X182463409Y-134944000D01*
X182372933Y-134898761D01*
X182146742Y-134898761D01*
X182056266Y-134944000D01*
X182011028Y-134989238D01*
X181965790Y-135079714D01*
X181965790Y-135170190D01*
X182011028Y-135305904D01*
X182553885Y-135848761D01*
X181965790Y-135848761D01*
X117072409Y-116352761D02*
X117072409Y-117121809D01*
X117027171Y-117212285D01*
X116981933Y-117257523D01*
X116891457Y-117302761D01*
X116710504Y-117302761D01*
X116620028Y-117257523D01*
X116574790Y-117212285D01*
X116529552Y-117121809D01*
X116529552Y-116352761D01*
X115624790Y-116352761D02*
X116077171Y-116352761D01*
X116122409Y-116805142D01*
X116077171Y-116759904D01*
X115986695Y-116714666D01*
X115760504Y-116714666D01*
X115670028Y-116759904D01*
X115624790Y-116805142D01*
X115579552Y-116895619D01*
X115579552Y-117121809D01*
X115624790Y-117212285D01*
X115670028Y-117257523D01*
X115760504Y-117302761D01*
X115986695Y-117302761D01*
X116077171Y-117257523D01*
X116122409Y-117212285D01*
X120148209Y-125374761D02*
X120148209Y-126143809D01*
X120102971Y-126234285D01*
X120057733Y-126279523D01*
X119967257Y-126324761D01*
X119786304Y-126324761D01*
X119695828Y-126279523D01*
X119650590Y-126234285D01*
X119605352Y-126143809D01*
X119605352Y-125374761D01*
X119243447Y-125374761D02*
X118655352Y-125374761D01*
X118972019Y-125736666D01*
X118836304Y-125736666D01*
X118745828Y-125781904D01*
X118700590Y-125827142D01*
X118655352Y-125917619D01*
X118655352Y-126143809D01*
X118700590Y-126234285D01*
X118745828Y-126279523D01*
X118836304Y-126324761D01*
X119107733Y-126324761D01*
X119198209Y-126279523D01*
X119243447Y-126234285D01*
X138252980Y-133722761D02*
X138252980Y-134401333D01*
X138298219Y-134537047D01*
X138388695Y-134627523D01*
X138524409Y-134672761D01*
X138614885Y-134672761D01*
X137845838Y-133813238D02*
X137800600Y-133768000D01*
X137710123Y-133722761D01*
X137483933Y-133722761D01*
X137393457Y-133768000D01*
X137348219Y-133813238D01*
X137302980Y-133903714D01*
X137302980Y-133994190D01*
X137348219Y-134129904D01*
X137891076Y-134672761D01*
X137302980Y-134672761D01*
D17*
X122345595Y-112857642D02*
X122403047Y-112915095D01*
X122575404Y-112972547D01*
X122690309Y-112972547D01*
X122862666Y-112915095D01*
X122977571Y-112800190D01*
X123035023Y-112685285D01*
X123092476Y-112455476D01*
X123092476Y-112283119D01*
X123035023Y-112053309D01*
X122977571Y-111938404D01*
X122862666Y-111823500D01*
X122690309Y-111766047D01*
X122575404Y-111766047D01*
X122403047Y-111823500D01*
X122345595Y-111880952D01*
X121771071Y-112972547D02*
X121541261Y-112972547D01*
X121426357Y-112915095D01*
X121368904Y-112857642D01*
X121253999Y-112685285D01*
X121196547Y-112455476D01*
X121196547Y-111995857D01*
X121253999Y-111880952D01*
X121311452Y-111823500D01*
X121426357Y-111766047D01*
X121656166Y-111766047D01*
X121771071Y-111823500D01*
X121828523Y-111880952D01*
X121885976Y-111995857D01*
X121885976Y-112283119D01*
X121828523Y-112398023D01*
X121771071Y-112455476D01*
X121656166Y-112512928D01*
X121426357Y-112512928D01*
X121311452Y-112455476D01*
X121253999Y-112398023D01*
X121196547Y-112283119D01*
X124178023Y-115830047D02*
X124063118Y-115830047D01*
X123948214Y-115887500D01*
X123890761Y-115944952D01*
X123833309Y-116059857D01*
X123775857Y-116289666D01*
X123775857Y-116576928D01*
X123833309Y-116806738D01*
X123890761Y-116921642D01*
X123948214Y-116979095D01*
X124063118Y-117036547D01*
X124178023Y-117036547D01*
X124292928Y-116979095D01*
X124350380Y-116921642D01*
X124407833Y-116806738D01*
X124465285Y-116576928D01*
X124465285Y-116289666D01*
X124407833Y-116059857D01*
X124350380Y-115944952D01*
X124292928Y-115887500D01*
X124178023Y-115830047D01*
X123258785Y-116921642D02*
X123201333Y-116979095D01*
X123258785Y-117036547D01*
X123316238Y-116979095D01*
X123258785Y-116921642D01*
X123258785Y-117036547D01*
X122052285Y-117036547D02*
X122741714Y-117036547D01*
X122396999Y-117036547D02*
X122396999Y-115830047D01*
X122511904Y-116002404D01*
X122626809Y-116117309D01*
X122741714Y-116174761D01*
X121018142Y-116232214D02*
X121018142Y-117036547D01*
X121535214Y-116232214D02*
X121535214Y-116864190D01*
X121477761Y-116979095D01*
X121362857Y-117036547D01*
X121190499Y-117036547D01*
X121075595Y-116979095D01*
X121018142Y-116921642D01*
X120041452Y-116404571D02*
X120443618Y-116404571D01*
X120443618Y-117036547D02*
X120443618Y-115830047D01*
X119869095Y-115830047D01*
D18*
X162148520Y-117773268D02*
X162176097Y-117800845D01*
X162258828Y-117828422D01*
X162313982Y-117828422D01*
X162396714Y-117800845D01*
X162451868Y-117745691D01*
X162479445Y-117690537D01*
X162507022Y-117580228D01*
X162507022Y-117497497D01*
X162479445Y-117387188D01*
X162451868Y-117332034D01*
X162396714Y-117276880D01*
X162313982Y-117249302D01*
X162258828Y-117249302D01*
X162176097Y-117276880D01*
X162148520Y-117304457D01*
X161817594Y-117497497D02*
X161872748Y-117469920D01*
X161900325Y-117442342D01*
X161927902Y-117387188D01*
X161927902Y-117359611D01*
X161900325Y-117304457D01*
X161872748Y-117276880D01*
X161817594Y-117249302D01*
X161707285Y-117249302D01*
X161652131Y-117276880D01*
X161624554Y-117304457D01*
X161596977Y-117359611D01*
X161596977Y-117387188D01*
X161624554Y-117442342D01*
X161652131Y-117469920D01*
X161707285Y-117497497D01*
X161817594Y-117497497D01*
X161872748Y-117525074D01*
X161900325Y-117552651D01*
X161927902Y-117607805D01*
X161927902Y-117718114D01*
X161900325Y-117773268D01*
X161872748Y-117800845D01*
X161817594Y-117828422D01*
X161707285Y-117828422D01*
X161652131Y-117800845D01*
X161624554Y-117773268D01*
X161596977Y-117718114D01*
X161596977Y-117607805D01*
X161624554Y-117552651D01*
X161652131Y-117525074D01*
X161707285Y-117497497D01*
D19*
X162879314Y-121639390D02*
X163320548Y-121639390D01*
X163099931Y-121639390D02*
X163099931Y-120867230D01*
X163173470Y-120977539D01*
X163247009Y-121051078D01*
X163320548Y-121087847D01*
X162401310Y-120867230D02*
X162327771Y-120867230D01*
X162254232Y-120904000D01*
X162217462Y-120940769D01*
X162180693Y-121014308D01*
X162143923Y-121161386D01*
X162143923Y-121345234D01*
X162180693Y-121492312D01*
X162217462Y-121565851D01*
X162254232Y-121602620D01*
X162327771Y-121639390D01*
X162401310Y-121639390D01*
X162474849Y-121602620D01*
X162511619Y-121565851D01*
X162548388Y-121492312D01*
X162585158Y-121345234D01*
X162585158Y-121161386D01*
X162548388Y-121014308D01*
X162511619Y-120940769D01*
X162474849Y-120904000D01*
X162401310Y-120867230D01*
X161482072Y-121124617D02*
X161482072Y-121639390D01*
X161812998Y-121124617D02*
X161812998Y-121529081D01*
X161776228Y-121602620D01*
X161702689Y-121639390D01*
X161592380Y-121639390D01*
X161518841Y-121602620D01*
X161482072Y-121565851D01*
X160856990Y-121234925D02*
X161114377Y-121234925D01*
X161114377Y-121639390D02*
X161114377Y-120867230D01*
X160746681Y-120867230D01*
D18*
X149550520Y-117519268D02*
X149578097Y-117546845D01*
X149660828Y-117574422D01*
X149715982Y-117574422D01*
X149798714Y-117546845D01*
X149853868Y-117491691D01*
X149881445Y-117436537D01*
X149909022Y-117326228D01*
X149909022Y-117243497D01*
X149881445Y-117133188D01*
X149853868Y-117078034D01*
X149798714Y-117022880D01*
X149715982Y-116995302D01*
X149660828Y-116995302D01*
X149578097Y-117022880D01*
X149550520Y-117050457D01*
X149357480Y-116995302D02*
X148971400Y-116995302D01*
X149219594Y-117574422D01*
D19*
X150465161Y-121639390D02*
X150906396Y-121639390D01*
X150685779Y-121639390D02*
X150685779Y-120867230D01*
X150759318Y-120977539D01*
X150832857Y-121051078D01*
X150906396Y-121087847D01*
X150134236Y-121565851D02*
X150097466Y-121602620D01*
X150134236Y-121639390D01*
X150171005Y-121602620D01*
X150134236Y-121565851D01*
X150134236Y-121639390D01*
X149619462Y-120867230D02*
X149545923Y-120867230D01*
X149472384Y-120904000D01*
X149435615Y-120940769D01*
X149398845Y-121014308D01*
X149362076Y-121161386D01*
X149362076Y-121345234D01*
X149398845Y-121492312D01*
X149435615Y-121565851D01*
X149472384Y-121602620D01*
X149545923Y-121639390D01*
X149619462Y-121639390D01*
X149693001Y-121602620D01*
X149729771Y-121565851D01*
X149766540Y-121492312D01*
X149803310Y-121345234D01*
X149803310Y-121161386D01*
X149766540Y-121014308D01*
X149729771Y-120940769D01*
X149693001Y-120904000D01*
X149619462Y-120867230D01*
X148700224Y-121124617D02*
X148700224Y-121639390D01*
X149031150Y-121124617D02*
X149031150Y-121529081D01*
X148994380Y-121602620D01*
X148920841Y-121639390D01*
X148810533Y-121639390D01*
X148736994Y-121602620D01*
X148700224Y-121565851D01*
X148075142Y-121234925D02*
X148332529Y-121234925D01*
X148332529Y-121639390D02*
X148332529Y-120867230D01*
X147964834Y-120867230D01*
D17*
X129008571Y-112857642D02*
X129066023Y-112915095D01*
X129238381Y-112972547D01*
X129353285Y-112972547D01*
X129525642Y-112915095D01*
X129640547Y-112800190D01*
X129698000Y-112685285D01*
X129755452Y-112455476D01*
X129755452Y-112283119D01*
X129698000Y-112053309D01*
X129640547Y-111938404D01*
X129525642Y-111823500D01*
X129353285Y-111766047D01*
X129238381Y-111766047D01*
X129066023Y-111823500D01*
X129008571Y-111880952D01*
X127974428Y-111766047D02*
X128204238Y-111766047D01*
X128319142Y-111823500D01*
X128376595Y-111880952D01*
X128491500Y-112053309D01*
X128548952Y-112283119D01*
X128548952Y-112742738D01*
X128491500Y-112857642D01*
X128434047Y-112915095D01*
X128319142Y-112972547D01*
X128089333Y-112972547D01*
X127974428Y-112915095D01*
X127916976Y-112857642D01*
X127859523Y-112742738D01*
X127859523Y-112455476D01*
X127916976Y-112340571D01*
X127974428Y-112283119D01*
X128089333Y-112225666D01*
X128319142Y-112225666D01*
X128434047Y-112283119D01*
X128491500Y-112340571D01*
X128548952Y-112455476D01*
X130484190Y-115830047D02*
X130369285Y-115830047D01*
X130254381Y-115887500D01*
X130196928Y-115944952D01*
X130139476Y-116059857D01*
X130082023Y-116289666D01*
X130082023Y-116576928D01*
X130139476Y-116806738D01*
X130196928Y-116921642D01*
X130254381Y-116979095D01*
X130369285Y-117036547D01*
X130484190Y-117036547D01*
X130599095Y-116979095D01*
X130656547Y-116921642D01*
X130714000Y-116806738D01*
X130771452Y-116576928D01*
X130771452Y-116289666D01*
X130714000Y-116059857D01*
X130656547Y-115944952D01*
X130599095Y-115887500D01*
X130484190Y-115830047D01*
X129564952Y-116921642D02*
X129507500Y-116979095D01*
X129564952Y-117036547D01*
X129622404Y-116979095D01*
X129564952Y-116921642D01*
X129564952Y-117036547D01*
X128358452Y-117036547D02*
X129047881Y-117036547D01*
X128703166Y-117036547D02*
X128703166Y-115830047D01*
X128818071Y-116002404D01*
X128932976Y-116117309D01*
X129047881Y-116174761D01*
X127324309Y-116232214D02*
X127324309Y-117036547D01*
X127841381Y-116232214D02*
X127841381Y-116864190D01*
X127783928Y-116979095D01*
X127669023Y-117036547D01*
X127496666Y-117036547D01*
X127381762Y-116979095D01*
X127324309Y-116921642D01*
X126347619Y-116404571D02*
X126749785Y-116404571D01*
X126749785Y-117036547D02*
X126749785Y-115830047D01*
X126175262Y-115830047D01*
D18*
X155900520Y-117519268D02*
X155928097Y-117546845D01*
X156010828Y-117574422D01*
X156065982Y-117574422D01*
X156148714Y-117546845D01*
X156203868Y-117491691D01*
X156231445Y-117436537D01*
X156259022Y-117326228D01*
X156259022Y-117243497D01*
X156231445Y-117133188D01*
X156203868Y-117078034D01*
X156148714Y-117022880D01*
X156065982Y-116995302D01*
X156010828Y-116995302D01*
X155928097Y-117022880D01*
X155900520Y-117050457D01*
X155376554Y-116995302D02*
X155652325Y-116995302D01*
X155679902Y-117271074D01*
X155652325Y-117243497D01*
X155597171Y-117215920D01*
X155459285Y-117215920D01*
X155404131Y-117243497D01*
X155376554Y-117271074D01*
X155348977Y-117326228D01*
X155348977Y-117464114D01*
X155376554Y-117519268D01*
X155404131Y-117546845D01*
X155459285Y-117574422D01*
X155597171Y-117574422D01*
X155652325Y-117546845D01*
X155679902Y-117519268D01*
D19*
X156815161Y-121639390D02*
X157256396Y-121639390D01*
X157035779Y-121639390D02*
X157035779Y-120867230D01*
X157109318Y-120977539D01*
X157182857Y-121051078D01*
X157256396Y-121087847D01*
X156484236Y-121565851D02*
X156447466Y-121602620D01*
X156484236Y-121639390D01*
X156521005Y-121602620D01*
X156484236Y-121565851D01*
X156484236Y-121639390D01*
X155969462Y-120867230D02*
X155895923Y-120867230D01*
X155822384Y-120904000D01*
X155785615Y-120940769D01*
X155748845Y-121014308D01*
X155712076Y-121161386D01*
X155712076Y-121345234D01*
X155748845Y-121492312D01*
X155785615Y-121565851D01*
X155822384Y-121602620D01*
X155895923Y-121639390D01*
X155969462Y-121639390D01*
X156043001Y-121602620D01*
X156079771Y-121565851D01*
X156116540Y-121492312D01*
X156153310Y-121345234D01*
X156153310Y-121161386D01*
X156116540Y-121014308D01*
X156079771Y-120940769D01*
X156043001Y-120904000D01*
X155969462Y-120867230D01*
X155050224Y-121124617D02*
X155050224Y-121639390D01*
X155381150Y-121124617D02*
X155381150Y-121529081D01*
X155344380Y-121602620D01*
X155270841Y-121639390D01*
X155160533Y-121639390D01*
X155086994Y-121602620D01*
X155050224Y-121565851D01*
X154425142Y-121234925D02*
X154682529Y-121234925D01*
X154682529Y-121639390D02*
X154682529Y-120867230D01*
X154314834Y-120867230D01*
D18*
X172949137Y-138601268D02*
X172976714Y-138628845D01*
X173059445Y-138656422D01*
X173114599Y-138656422D01*
X173197331Y-138628845D01*
X173252485Y-138573691D01*
X173280062Y-138518537D01*
X173307639Y-138408228D01*
X173307639Y-138325497D01*
X173280062Y-138215188D01*
X173252485Y-138160034D01*
X173197331Y-138104880D01*
X173114599Y-138077302D01*
X173059445Y-138077302D01*
X172976714Y-138104880D01*
X172949137Y-138132457D01*
X172452748Y-138270342D02*
X172452748Y-138656422D01*
X172590634Y-138049725D02*
X172728519Y-138463382D01*
X172370017Y-138463382D01*
D20*
X174768546Y-138942838D02*
X174676622Y-138942838D01*
X174584698Y-138988800D01*
X174538736Y-139034761D01*
X174492774Y-139126685D01*
X174446812Y-139310533D01*
X174446812Y-139540342D01*
X174492774Y-139724190D01*
X174538736Y-139816114D01*
X174584698Y-139862076D01*
X174676622Y-139908038D01*
X174768546Y-139908038D01*
X174860470Y-139862076D01*
X174906432Y-139816114D01*
X174952393Y-139724190D01*
X174998355Y-139540342D01*
X174998355Y-139310533D01*
X174952393Y-139126685D01*
X174906432Y-139034761D01*
X174860470Y-138988800D01*
X174768546Y-138942838D01*
X174033155Y-139816114D02*
X173987193Y-139862076D01*
X174033155Y-139908038D01*
X174079117Y-139862076D01*
X174033155Y-139816114D01*
X174033155Y-139908038D01*
X173067955Y-139908038D02*
X173619498Y-139908038D01*
X173343727Y-139908038D02*
X173343727Y-138942838D01*
X173435651Y-139080723D01*
X173527574Y-139172647D01*
X173619498Y-139218609D01*
X172240641Y-139264571D02*
X172240641Y-139908038D01*
X172654298Y-139264571D02*
X172654298Y-139770152D01*
X172608336Y-139862076D01*
X172516412Y-139908038D01*
X172378527Y-139908038D01*
X172286603Y-139862076D01*
X172240641Y-139816114D01*
D18*
X167107137Y-129457268D02*
X167134714Y-129484845D01*
X167217445Y-129512422D01*
X167272599Y-129512422D01*
X167355331Y-129484845D01*
X167410485Y-129429691D01*
X167438062Y-129374537D01*
X167465639Y-129264228D01*
X167465639Y-129181497D01*
X167438062Y-129071188D01*
X167410485Y-129016034D01*
X167355331Y-128960880D01*
X167272599Y-128933302D01*
X167217445Y-128933302D01*
X167134714Y-128960880D01*
X167107137Y-128988457D01*
X166914097Y-128933302D02*
X166555594Y-128933302D01*
X166748634Y-129153920D01*
X166665902Y-129153920D01*
X166610748Y-129181497D01*
X166583171Y-129209074D01*
X166555594Y-129264228D01*
X166555594Y-129402114D01*
X166583171Y-129457268D01*
X166610748Y-129484845D01*
X166665902Y-129512422D01*
X166831365Y-129512422D01*
X166886519Y-129484845D01*
X166914097Y-129457268D01*
D20*
X167148546Y-129798838D02*
X167056622Y-129798838D01*
X166964698Y-129844800D01*
X166918736Y-129890761D01*
X166872774Y-129982685D01*
X166826812Y-130166533D01*
X166826812Y-130396342D01*
X166872774Y-130580190D01*
X166918736Y-130672114D01*
X166964698Y-130718076D01*
X167056622Y-130764038D01*
X167148546Y-130764038D01*
X167240470Y-130718076D01*
X167286432Y-130672114D01*
X167332393Y-130580190D01*
X167378355Y-130396342D01*
X167378355Y-130166533D01*
X167332393Y-129982685D01*
X167286432Y-129890761D01*
X167240470Y-129844800D01*
X167148546Y-129798838D01*
X166413155Y-130672114D02*
X166367193Y-130718076D01*
X166413155Y-130764038D01*
X166459117Y-130718076D01*
X166413155Y-130672114D01*
X166413155Y-130764038D01*
X165447955Y-130764038D02*
X165999498Y-130764038D01*
X165723727Y-130764038D02*
X165723727Y-129798838D01*
X165815651Y-129936723D01*
X165907574Y-130028647D01*
X165999498Y-130074609D01*
X164620641Y-130120571D02*
X164620641Y-130764038D01*
X165034298Y-130120571D02*
X165034298Y-130626152D01*
X164988336Y-130718076D01*
X164896412Y-130764038D01*
X164758527Y-130764038D01*
X164666603Y-130718076D01*
X164620641Y-130672114D01*
D18*
X172695137Y-135299268D02*
X172722714Y-135326845D01*
X172805445Y-135354422D01*
X172860599Y-135354422D01*
X172943331Y-135326845D01*
X172998485Y-135271691D01*
X173026062Y-135216537D01*
X173053639Y-135106228D01*
X173053639Y-135023497D01*
X173026062Y-134913188D01*
X172998485Y-134858034D01*
X172943331Y-134802880D01*
X172860599Y-134775302D01*
X172805445Y-134775302D01*
X172722714Y-134802880D01*
X172695137Y-134830457D01*
X172474519Y-134830457D02*
X172446942Y-134802880D01*
X172391788Y-134775302D01*
X172253902Y-134775302D01*
X172198748Y-134802880D01*
X172171171Y-134830457D01*
X172143594Y-134885611D01*
X172143594Y-134940765D01*
X172171171Y-135023497D01*
X172502097Y-135354422D01*
X172143594Y-135354422D01*
D20*
X174768546Y-135640838D02*
X174676622Y-135640838D01*
X174584698Y-135686800D01*
X174538736Y-135732761D01*
X174492774Y-135824685D01*
X174446812Y-136008533D01*
X174446812Y-136238342D01*
X174492774Y-136422190D01*
X174538736Y-136514114D01*
X174584698Y-136560076D01*
X174676622Y-136606038D01*
X174768546Y-136606038D01*
X174860470Y-136560076D01*
X174906432Y-136514114D01*
X174952393Y-136422190D01*
X174998355Y-136238342D01*
X174998355Y-136008533D01*
X174952393Y-135824685D01*
X174906432Y-135732761D01*
X174860470Y-135686800D01*
X174768546Y-135640838D01*
X174033155Y-136514114D02*
X173987193Y-136560076D01*
X174033155Y-136606038D01*
X174079117Y-136560076D01*
X174033155Y-136514114D01*
X174033155Y-136606038D01*
X173067955Y-136606038D02*
X173619498Y-136606038D01*
X173343727Y-136606038D02*
X173343727Y-135640838D01*
X173435651Y-135778723D01*
X173527574Y-135870647D01*
X173619498Y-135916609D01*
X172240641Y-135962571D02*
X172240641Y-136606038D01*
X172654298Y-135962571D02*
X172654298Y-136468152D01*
X172608336Y-136560076D01*
X172516412Y-136606038D01*
X172378527Y-136606038D01*
X172286603Y-136560076D01*
X172240641Y-136514114D01*
D18*
X167107137Y-132505268D02*
X167134714Y-132532845D01*
X167217445Y-132560422D01*
X167272599Y-132560422D01*
X167355331Y-132532845D01*
X167410485Y-132477691D01*
X167438062Y-132422537D01*
X167465639Y-132312228D01*
X167465639Y-132229497D01*
X167438062Y-132119188D01*
X167410485Y-132064034D01*
X167355331Y-132008880D01*
X167272599Y-131981302D01*
X167217445Y-131981302D01*
X167134714Y-132008880D01*
X167107137Y-132036457D01*
X166555594Y-132560422D02*
X166886519Y-132560422D01*
X166721057Y-132560422D02*
X166721057Y-131981302D01*
X166776211Y-132064034D01*
X166831365Y-132119188D01*
X166886519Y-132146765D01*
D20*
X167148546Y-132846838D02*
X167056622Y-132846838D01*
X166964698Y-132892800D01*
X166918736Y-132938761D01*
X166872774Y-133030685D01*
X166826812Y-133214533D01*
X166826812Y-133444342D01*
X166872774Y-133628190D01*
X166918736Y-133720114D01*
X166964698Y-133766076D01*
X167056622Y-133812038D01*
X167148546Y-133812038D01*
X167240470Y-133766076D01*
X167286432Y-133720114D01*
X167332393Y-133628190D01*
X167378355Y-133444342D01*
X167378355Y-133214533D01*
X167332393Y-133030685D01*
X167286432Y-132938761D01*
X167240470Y-132892800D01*
X167148546Y-132846838D01*
X166413155Y-133720114D02*
X166367193Y-133766076D01*
X166413155Y-133812038D01*
X166459117Y-133766076D01*
X166413155Y-133720114D01*
X166413155Y-133812038D01*
X165447955Y-133812038D02*
X165999498Y-133812038D01*
X165723727Y-133812038D02*
X165723727Y-132846838D01*
X165815651Y-132984723D01*
X165907574Y-133076647D01*
X165999498Y-133122609D01*
X164620641Y-133168571D02*
X164620641Y-133812038D01*
X165034298Y-133168571D02*
X165034298Y-133674152D01*
X164988336Y-133766076D01*
X164896412Y-133812038D01*
X164758527Y-133812038D01*
X164666603Y-133766076D01*
X164620641Y-133720114D01*
M02*
