M48
; DRILL file {KiCad (5.1.4-0-10_14)} date Friday, 27 September 2019 at 18:33:20
; FORMAT={-:-/ absolute / inch / decimal}
; #@! TF.CreationDate,2019-09-27T18:33:20+01:00
; #@! TF.GenerationSoftware,Kicad,Pcbnew,(5.1.4-0-10_14)
; #@! TF.FileFunction,Plated,1,2,PTH
FMAT,2
INCH
T1C0.0098
T2C0.0157
T3C0.0276
T4C0.0354
T5C0.0362
T6C0.0400
T7C0.0433
T8C0.0591
T9C0.0906
%
G90
G05
T1
X4.61Y-4.93
X4.63Y-4.65
X4.68Y-3.59
X4.7Y-4.78
X4.7051Y-4.8333
X4.7051Y-4.8848
X4.71Y-4.71
X4.75Y-4.99
X4.79Y-4.6
X4.82Y-4.42
X4.85Y-4.6
X4.86Y-5.21
X4.9Y-4.6
X4.9472Y-5.1754
X4.95Y-4.5
X4.95Y-5.45
X4.951Y-5.1367
X4.9624Y-5.044
X4.9849Y-4.6334
X4.9875Y-5.3154
X4.9903Y-5.1081
X5.05Y-4.71
X5.08Y-4.67
X5.0996Y-5.2619
X5.1Y-4.4
X5.1033Y-5.3109
X5.11Y-5.51
X5.12Y-4.73
X5.12Y-4.87
X5.173Y-4.5749
X5.1865Y-5.3044
X5.19Y-5.47
X5.1983Y-5.2516
X5.2324Y-5.4061
X5.27Y-3.74
X5.28Y-5.47
X5.33Y-5.36
X5.3564Y-4.3991
X5.3917Y-4.699
X5.47Y-3.75
X5.47Y-4.58
X5.47Y-4.69
X5.47Y-5.33
X5.47Y-5.49
X5.4744Y-4.3703
X5.4977Y-4.3479
X5.59Y-5.18
X5.6Y-5.33
X5.61Y-5.49
X5.6494Y-4.772
X5.69Y-3.74
X5.6923Y-5.2706
X5.7384Y-5.4122
X5.81Y-3.42
X5.8164Y-5.5112
X5.82Y-4.94
X5.83Y-5.21
X5.83Y-5.29
X5.8865Y-4.8148
X5.95Y-5.44
X6.0435Y-5.353
X6.06Y-4.61
X6.0619Y-4.7863
X6.1151Y-5.349
X6.14Y-4.77
X6.14Y-5.17
X6.17Y-5.42
X6.3158Y-5.2625
X6.344Y-4.8905
X6.356Y-5.2407
X6.37Y-5.37
X6.39Y-3.31
X6.39Y-4.8
X6.4126Y-5.0301
X6.4136Y-5.1689
X6.415Y-5.1345
X6.418Y-4.9031
X6.4209Y-5.0887
X6.4269Y-5.0514
X6.438Y-4.9585
X6.45Y-5.23
X6.45Y-5.37
X6.4614Y-3.6295
X6.496Y-5.3016
X6.51Y-5.23
X6.51Y-5.41
X6.58Y-5.23
X6.58Y-5.41
X6.63Y-4.98
X6.78Y-5.05
X6.78Y-5.17
X6.78Y-5.23
X6.78Y-5.29
X6.79Y-5.47
X6.82Y-5.47
X6.85Y-5.47
X6.87Y-5.01
X6.94Y-4.71
T2
X4.72Y-4.09
X5.13Y-4.16
X5.46Y-3.01
X6.65Y-4.18
T3
X7.0128Y-4.7949
X7.0128Y-4.8815
X7.0128Y-4.9681
X7.0128Y-5.0548
X7.0561Y-4.8382
X7.0561Y-4.9248
X7.0561Y-5.0115
X7.0561Y-5.0981
T4
X6.888Y-4.7772
X6.888Y-5.1158
T5
X5.3773Y-3.4587
X5.3773Y-3.5571
X5.3773Y-3.6359
X5.3773Y-3.7343
X6.0797Y-3.5473
X6.0797Y-3.6457
X6.2057Y-3.5473
X6.2057Y-3.6457
T6
X5.4742Y-4.5071
X5.5742Y-4.5071
X5.6742Y-4.5071
X5.7742Y-4.5071
X5.8742Y-4.5071
X5.9742Y-4.5071
X6.0742Y-4.5071
X6.1742Y-4.5071
T7
X4.534Y-3.9406
X4.534Y-4.0587
X4.534Y-4.3933
X4.909Y-2.7406
X4.909Y-2.8587
X4.909Y-3.1934
X5.659Y-3.9406
X5.659Y-4.0587
X5.659Y-4.3933
X5.284Y-3.9406
X5.284Y-4.0587
X5.284Y-4.3933
X5.659Y-3.1934
X5.284Y-2.7406
X5.284Y-2.8587
X6.409Y-3.9406
X6.409Y-4.0587
X6.409Y-4.3933
X4.909Y-3.9406
X4.909Y-4.0587
X4.909Y-4.3933
X6.034Y-3.9406
X6.034Y-4.0587
X6.034Y-4.3933
X5.659Y-2.7406
X5.659Y-2.8587
X5.284Y-3.1934
X7.159Y-3.9406
X7.159Y-4.0587
X7.159Y-4.3933
X7.159Y-3.1934
X6.409Y-2.7406
X6.409Y-2.8587
X6.409Y-3.1934
X6.034Y-2.7406
X6.034Y-2.8587
X6.034Y-3.1934
X7.159Y-2.7406
X7.159Y-2.8587
X6.784Y-3.9406
X6.784Y-4.0587
X6.784Y-4.3933
X6.784Y-2.7406
X6.784Y-2.8587
X6.784Y-3.1934
X4.534Y-2.7406
X4.534Y-2.8587
X4.534Y-3.1934
T8
X4.4185Y-3.5972
X4.4819Y-3.7503
X4.635Y-3.42
X4.635Y-3.8137
X4.7881Y-3.7503
X4.8515Y-3.5972
X6.8185Y-3.595
X6.8819Y-3.7481
X7.035Y-3.4178
X7.035Y-3.8115
X7.1881Y-3.7481
X7.2515Y-3.595
T9
X5.484Y-3.3115
X5.484Y-3.8815
X6.0994Y-3.3595
X6.0994Y-3.8335
T0
M30
