G04 #@! TF.GenerationSoftware,KiCad,Pcbnew,(5.1.4-0-10_14)*
G04 #@! TF.CreationDate,2019-09-27T18:33:15+01:00*
G04 #@! TF.ProjectId,TopBreakout,546f7042-7265-4616-9b6f-75742e6b6963,rev?*
G04 #@! TF.SameCoordinates,Original*
G04 #@! TF.FileFunction,Legend,Top*
G04 #@! TF.FilePolarity,Positive*
%FSLAX46Y46*%
G04 Gerber Fmt 4.6, Leading zero omitted, Abs format (unit mm)*
G04 Created by KiCad (PCBNEW (5.1.4-0-10_14)) date 2019-09-27 18:33:15*
%MOMM*%
%LPD*%
G04 APERTURE LIST*
%ADD10C,0.127000*%
%ADD11C,0.060000*%
%ADD12C,0.080000*%
%ADD13C,0.250000*%
%ADD14C,0.150000*%
%ADD15C,0.168910*%
%ADD16C,0.077216*%
%ADD17C,0.096552*%
%ADD18C,0.076000*%
G04 APERTURE END LIST*
D10*
X132944000Y-117941000D02*
X162944000Y-117941000D01*
X162444000Y-159441000D02*
X133444000Y-159441000D01*
X162944000Y-158941000D02*
X162444000Y-159441000D01*
X162944000Y-117941000D02*
X162944000Y-158941000D01*
X132944000Y-158941000D02*
X133444000Y-159441000D01*
X132944000Y-117941000D02*
X132944000Y-158941000D01*
X162944000Y-113941000D02*
X162944000Y-117941000D01*
X161944000Y-112941000D02*
X162944000Y-113941000D01*
X133944000Y-112941000D02*
X161944000Y-112941000D01*
X132944000Y-113941000D02*
X133944000Y-112941000D01*
X132944000Y-117941000D02*
X132944000Y-113941000D01*
X186689000Y-91313000D02*
G75*
G03X186689000Y-91313000I-8000000J0D01*
G01*
X125729000Y-91368000D02*
G75*
G03X125729000Y-91368000I-8000000J0D01*
G01*
D11*
X179455000Y-131641000D02*
X177655000Y-131641000D01*
X179455000Y-119641000D02*
X179455000Y-131641000D01*
X177655000Y-119641000D02*
X179455000Y-119641000D01*
X174555000Y-131641000D02*
X175355000Y-131641000D01*
X174555000Y-119641000D02*
X174555000Y-131641000D01*
X175355000Y-119641000D02*
X174555000Y-119641000D01*
D12*
X177655000Y-118841000D02*
X177655000Y-119641000D01*
X175355000Y-118841000D02*
X177655000Y-118841000D01*
X175355000Y-119641000D02*
X175355000Y-118841000D01*
X177655000Y-131641000D02*
X175355000Y-131641000D01*
D10*
X184529721Y-106591000D02*
G75*
G03X184529721Y-106591000I-2690721J0D01*
G01*
X186339000Y-102091000D02*
X185839000Y-102091000D01*
X186339000Y-102591000D02*
X186339000Y-102091000D01*
X177339000Y-102091000D02*
X177839000Y-102091000D01*
X177339000Y-102591000D02*
X177339000Y-102091000D01*
X177339000Y-112591000D02*
X177339000Y-112091000D01*
X177839000Y-112591000D02*
X177339000Y-112591000D01*
X186339000Y-112591000D02*
X185839000Y-112591000D01*
X186339000Y-112091000D02*
X186339000Y-112591000D01*
X175004721Y-106591000D02*
G75*
G03X175004721Y-106591000I-2690721J0D01*
G01*
X176814000Y-102091000D02*
X176314000Y-102091000D01*
X176814000Y-102591000D02*
X176814000Y-102091000D01*
X167814000Y-102091000D02*
X168314000Y-102091000D01*
X167814000Y-102591000D02*
X167814000Y-102091000D01*
X167814000Y-112591000D02*
X167814000Y-112091000D01*
X168314000Y-112591000D02*
X167814000Y-112591000D01*
X176814000Y-112591000D02*
X176314000Y-112591000D01*
X176814000Y-112091000D02*
X176814000Y-112591000D01*
X165479721Y-106591000D02*
G75*
G03X165479721Y-106591000I-2690721J0D01*
G01*
X167289000Y-102091000D02*
X166789000Y-102091000D01*
X167289000Y-102591000D02*
X167289000Y-102091000D01*
X158289000Y-102091000D02*
X158789000Y-102091000D01*
X158289000Y-102591000D02*
X158289000Y-102091000D01*
X158289000Y-112591000D02*
X158289000Y-112091000D01*
X158789000Y-112591000D02*
X158289000Y-112591000D01*
X167289000Y-112591000D02*
X166789000Y-112591000D01*
X167289000Y-112091000D02*
X167289000Y-112591000D01*
X155954721Y-106591000D02*
G75*
G03X155954721Y-106591000I-2690721J0D01*
G01*
X157764000Y-102091000D02*
X157264000Y-102091000D01*
X157764000Y-102591000D02*
X157764000Y-102091000D01*
X148764000Y-102091000D02*
X149264000Y-102091000D01*
X148764000Y-102591000D02*
X148764000Y-102091000D01*
X148764000Y-112591000D02*
X148764000Y-112091000D01*
X149264000Y-112591000D02*
X148764000Y-112591000D01*
X157764000Y-112591000D02*
X157264000Y-112591000D01*
X157764000Y-112091000D02*
X157764000Y-112591000D01*
X146429721Y-106591000D02*
G75*
G03X146429721Y-106591000I-2690721J0D01*
G01*
X148239000Y-102091000D02*
X147739000Y-102091000D01*
X148239000Y-102591000D02*
X148239000Y-102091000D01*
X139239000Y-102091000D02*
X139739000Y-102091000D01*
X139239000Y-102591000D02*
X139239000Y-102091000D01*
X139239000Y-112591000D02*
X139239000Y-112091000D01*
X139739000Y-112591000D02*
X139239000Y-112591000D01*
X148239000Y-112591000D02*
X147739000Y-112591000D01*
X148239000Y-112091000D02*
X148239000Y-112591000D01*
X136904721Y-106591000D02*
G75*
G03X136904721Y-106591000I-2690721J0D01*
G01*
X138714000Y-102091000D02*
X138214000Y-102091000D01*
X138714000Y-102591000D02*
X138714000Y-102091000D01*
X129714000Y-102091000D02*
X130214000Y-102091000D01*
X129714000Y-102591000D02*
X129714000Y-102091000D01*
X129714000Y-112591000D02*
X129714000Y-112091000D01*
X130214000Y-112591000D02*
X129714000Y-112591000D01*
X138714000Y-112591000D02*
X138214000Y-112591000D01*
X138714000Y-112091000D02*
X138714000Y-112591000D01*
X127379721Y-106591000D02*
G75*
G03X127379721Y-106591000I-2690721J0D01*
G01*
X129189000Y-102091000D02*
X128689000Y-102091000D01*
X129189000Y-102591000D02*
X129189000Y-102091000D01*
X120189000Y-102091000D02*
X120689000Y-102091000D01*
X120189000Y-102591000D02*
X120189000Y-102091000D01*
X120189000Y-112591000D02*
X120189000Y-112091000D01*
X120689000Y-112591000D02*
X120189000Y-112591000D01*
X129189000Y-112591000D02*
X128689000Y-112591000D01*
X129189000Y-112091000D02*
X129189000Y-112591000D01*
X117854721Y-106591000D02*
G75*
G03X117854721Y-106591000I-2690721J0D01*
G01*
X119664000Y-102091000D02*
X119164000Y-102091000D01*
X119664000Y-102591000D02*
X119664000Y-102091000D01*
X110664000Y-102091000D02*
X111164000Y-102091000D01*
X110664000Y-102591000D02*
X110664000Y-102091000D01*
X110664000Y-112591000D02*
X110664000Y-112091000D01*
X111164000Y-112591000D02*
X110664000Y-112591000D01*
X119664000Y-112591000D02*
X119164000Y-112591000D01*
X119664000Y-112091000D02*
X119664000Y-112591000D01*
X184529721Y-76111100D02*
G75*
G03X184529721Y-76111100I-2690721J0D01*
G01*
X186339000Y-71611100D02*
X185839000Y-71611100D01*
X186339000Y-72111100D02*
X186339000Y-71611100D01*
X177339000Y-71611100D02*
X177839000Y-71611100D01*
X177339000Y-72111100D02*
X177339000Y-71611100D01*
X177339000Y-82111100D02*
X177339000Y-81611100D01*
X177839000Y-82111100D02*
X177339000Y-82111100D01*
X186339000Y-82111100D02*
X185839000Y-82111100D01*
X186339000Y-81611100D02*
X186339000Y-82111100D01*
X175004721Y-76111100D02*
G75*
G03X175004721Y-76111100I-2690721J0D01*
G01*
X176814000Y-71611100D02*
X176314000Y-71611100D01*
X176814000Y-72111100D02*
X176814000Y-71611100D01*
X167814000Y-71611100D02*
X168314000Y-71611100D01*
X167814000Y-72111100D02*
X167814000Y-71611100D01*
X167814000Y-82111100D02*
X167814000Y-81611100D01*
X168314000Y-82111100D02*
X167814000Y-82111100D01*
X176814000Y-82111100D02*
X176314000Y-82111100D01*
X176814000Y-81611100D02*
X176814000Y-82111100D01*
X165479721Y-76111100D02*
G75*
G03X165479721Y-76111100I-2690721J0D01*
G01*
X167289000Y-71611100D02*
X166789000Y-71611100D01*
X167289000Y-72111100D02*
X167289000Y-71611100D01*
X158289000Y-71611100D02*
X158789000Y-71611100D01*
X158289000Y-72111100D02*
X158289000Y-71611100D01*
X158289000Y-82111100D02*
X158289000Y-81611100D01*
X158789000Y-82111100D02*
X158289000Y-82111100D01*
X167289000Y-82111100D02*
X166789000Y-82111100D01*
X167289000Y-81611100D02*
X167289000Y-82111100D01*
X155954721Y-76111100D02*
G75*
G03X155954721Y-76111100I-2690721J0D01*
G01*
X157764000Y-71611100D02*
X157264000Y-71611100D01*
X157764000Y-72111100D02*
X157764000Y-71611100D01*
X148764000Y-71611100D02*
X149264000Y-71611100D01*
X148764000Y-72111100D02*
X148764000Y-71611100D01*
X148764000Y-82111100D02*
X148764000Y-81611100D01*
X149264000Y-82111100D02*
X148764000Y-82111100D01*
X157764000Y-82111100D02*
X157264000Y-82111100D01*
X157764000Y-81611100D02*
X157764000Y-82111100D01*
X146429721Y-76111100D02*
G75*
G03X146429721Y-76111100I-2690721J0D01*
G01*
X148239000Y-71611100D02*
X147739000Y-71611100D01*
X148239000Y-72111100D02*
X148239000Y-71611100D01*
X139239000Y-71611100D02*
X139739000Y-71611100D01*
X139239000Y-72111100D02*
X139239000Y-71611100D01*
X139239000Y-82111100D02*
X139239000Y-81611100D01*
X139739000Y-82111100D02*
X139239000Y-82111100D01*
X148239000Y-82111100D02*
X147739000Y-82111100D01*
X148239000Y-81611100D02*
X148239000Y-82111100D01*
X136904721Y-76111100D02*
G75*
G03X136904721Y-76111100I-2690721J0D01*
G01*
X138714000Y-71611100D02*
X138214000Y-71611100D01*
X138714000Y-72111100D02*
X138714000Y-71611100D01*
X129714000Y-71611100D02*
X130214000Y-71611100D01*
X129714000Y-72111100D02*
X129714000Y-71611100D01*
X129714000Y-82111100D02*
X129714000Y-81611100D01*
X130214000Y-82111100D02*
X129714000Y-82111100D01*
X138714000Y-82111100D02*
X138214000Y-82111100D01*
X138714000Y-81611100D02*
X138714000Y-82111100D01*
X127379721Y-76111100D02*
G75*
G03X127379721Y-76111100I-2690721J0D01*
G01*
X129189000Y-71611100D02*
X128689000Y-71611100D01*
X129189000Y-72111100D02*
X129189000Y-71611100D01*
X120189000Y-71611100D02*
X120689000Y-71611100D01*
X120189000Y-72111100D02*
X120189000Y-71611100D01*
X120189000Y-82111100D02*
X120189000Y-81611100D01*
X120689000Y-82111100D02*
X120189000Y-82111100D01*
X129189000Y-82111100D02*
X128689000Y-82111100D01*
X129189000Y-81611100D02*
X129189000Y-82111100D01*
X117854721Y-76111100D02*
G75*
G03X117854721Y-76111100I-2690721J0D01*
G01*
X119664000Y-71611100D02*
X119164000Y-71611100D01*
X119664000Y-72111100D02*
X119664000Y-71611100D01*
X110664000Y-71611100D02*
X111164000Y-71611100D01*
X110664000Y-72111100D02*
X110664000Y-71611100D01*
X110664000Y-82111100D02*
X110664000Y-81611100D01*
X111164000Y-82111100D02*
X110664000Y-82111100D01*
X119664000Y-82111100D02*
X119164000Y-82111100D01*
X119664000Y-81611100D02*
X119664000Y-82111100D01*
X135914000Y-83601100D02*
X137340000Y-83601100D01*
X135914000Y-83601100D02*
G75*
G03X133864000Y-85651100I0J-2050000D01*
G01*
X133864000Y-97051100D02*
X133864000Y-85651100D01*
X133864000Y-97051100D02*
G75*
G03X135914000Y-99101100I2050000J0D01*
G01*
X137340000Y-99101100D02*
X135914000Y-99101100D01*
X141248000Y-99101100D02*
G75*
G03X141864000Y-98485100I0J616000D01*
G01*
X141864000Y-84217100D02*
X141864000Y-98485100D01*
X141864000Y-84217100D02*
G75*
G03X141248000Y-83601100I-616000J0D01*
G01*
D13*
X162224000Y-92601100D02*
G75*
G03X162224000Y-92601100I-125000J0D01*
G01*
D14*
X157049000Y-85151100D02*
X161504000Y-85151100D01*
X150104000Y-85151100D02*
X152799000Y-85151100D01*
X150104000Y-85151100D02*
X150104000Y-97551100D01*
X157049000Y-97551100D02*
X161504000Y-97551100D01*
X150104000Y-97551100D02*
X152799000Y-97551100D01*
X161504000Y-85151100D02*
X161504000Y-97551100D01*
D15*
X170476608Y-100122566D02*
X170476608Y-98433466D01*
X171039641Y-99639966D01*
X171602675Y-98433466D01*
X171602675Y-100122566D01*
X172407008Y-100122566D02*
X172407008Y-98433466D01*
X173211341Y-100122566D02*
X173211341Y-98433466D01*
X173613508Y-98433466D01*
X173854808Y-98513900D01*
X174015675Y-98674766D01*
X174096108Y-98835633D01*
X174176541Y-99157366D01*
X174176541Y-99398666D01*
X174096108Y-99720400D01*
X174015675Y-99881266D01*
X173854808Y-100042133D01*
X173613508Y-100122566D01*
X173211341Y-100122566D01*
X174900441Y-100122566D02*
X174900441Y-98433466D01*
X175302608Y-100283433D02*
X176589541Y-100283433D01*
X177313441Y-98433466D02*
X177635175Y-98433466D01*
X177796041Y-98513900D01*
X177956908Y-98674766D01*
X178037341Y-98996500D01*
X178037341Y-99559533D01*
X177956908Y-99881266D01*
X177796041Y-100042133D01*
X177635175Y-100122566D01*
X177313441Y-100122566D01*
X177152575Y-100042133D01*
X176991708Y-99881266D01*
X176911275Y-99559533D01*
X176911275Y-98996500D01*
X176991708Y-98674766D01*
X177152575Y-98513900D01*
X177313441Y-98433466D01*
X178761241Y-98433466D02*
X178761241Y-99800833D01*
X178841675Y-99961700D01*
X178922108Y-100042133D01*
X179082975Y-100122566D01*
X179404708Y-100122566D01*
X179565575Y-100042133D01*
X179646008Y-99961700D01*
X179726441Y-99800833D01*
X179726441Y-98433466D01*
X180289475Y-98433466D02*
X181254675Y-98433466D01*
X180772075Y-100122566D02*
X180772075Y-98433466D01*
X182702475Y-100122566D02*
X181737275Y-100122566D01*
X182219875Y-100122566D02*
X182219875Y-98433466D01*
X182059008Y-98674766D01*
X181898141Y-98835633D01*
X181737275Y-98916066D01*
X111768741Y-100177566D02*
X111768741Y-98488466D01*
X112331775Y-99694966D01*
X112894808Y-98488466D01*
X112894808Y-100177566D01*
X113699141Y-100177566D02*
X113699141Y-98488466D01*
X114503475Y-100177566D02*
X114503475Y-98488466D01*
X114905641Y-98488466D01*
X115146941Y-98568900D01*
X115307808Y-98729766D01*
X115388241Y-98890633D01*
X115468675Y-99212366D01*
X115468675Y-99453666D01*
X115388241Y-99775400D01*
X115307808Y-99936266D01*
X115146941Y-100097133D01*
X114905641Y-100177566D01*
X114503475Y-100177566D01*
X116192575Y-100177566D02*
X116192575Y-98488466D01*
X116594741Y-100338433D02*
X117881675Y-100338433D01*
X118283841Y-100177566D02*
X118283841Y-98488466D01*
X119088175Y-100177566D02*
X119088175Y-98488466D01*
X120053375Y-100177566D01*
X120053375Y-98488466D01*
X121742475Y-100177566D02*
X120777275Y-100177566D01*
X121259875Y-100177566D02*
X121259875Y-98488466D01*
X121099008Y-98729766D01*
X120938141Y-98890633D01*
X120777275Y-98971066D01*
D14*
X160350460Y-129334497D02*
X159874270Y-129667830D01*
X160350460Y-129905925D02*
X159350460Y-129905925D01*
X159350460Y-129524973D01*
X159398080Y-129429735D01*
X159445699Y-129382116D01*
X159540937Y-129334497D01*
X159683794Y-129334497D01*
X159779032Y-129382116D01*
X159826651Y-129429735D01*
X159874270Y-129524973D01*
X159874270Y-129905925D01*
X160350460Y-128382116D02*
X160350460Y-128953544D01*
X160350460Y-128667830D02*
X159350460Y-128667830D01*
X159493318Y-128763068D01*
X159588556Y-128858306D01*
X159636175Y-128953544D01*
X160350460Y-127429735D02*
X160350460Y-128001163D01*
X160350460Y-127715449D02*
X159350460Y-127715449D01*
X159493318Y-127810687D01*
X159588556Y-127905925D01*
X159636175Y-128001163D01*
D16*
X174326047Y-100855438D02*
X174326047Y-101544866D01*
X174280085Y-101682752D01*
X174188161Y-101774676D01*
X174050276Y-101820638D01*
X173958352Y-101820638D01*
X174785666Y-101820638D02*
X174785666Y-100855438D01*
X175015476Y-100855438D01*
X175153361Y-100901400D01*
X175245285Y-100993323D01*
X175291247Y-101085247D01*
X175337209Y-101269095D01*
X175337209Y-101406980D01*
X175291247Y-101590828D01*
X175245285Y-101682752D01*
X175153361Y-101774676D01*
X175015476Y-101820638D01*
X174785666Y-101820638D01*
X175704904Y-101544866D02*
X176164523Y-101544866D01*
X175612981Y-101820638D02*
X175934714Y-100855438D01*
X176256447Y-101820638D01*
X176716066Y-101269095D02*
X176624142Y-101223133D01*
X176578181Y-101177171D01*
X176532219Y-101085247D01*
X176532219Y-101039285D01*
X176578181Y-100947361D01*
X176624142Y-100901400D01*
X176716066Y-100855438D01*
X176899914Y-100855438D01*
X176991838Y-100901400D01*
X177037800Y-100947361D01*
X177083761Y-101039285D01*
X177083761Y-101085247D01*
X177037800Y-101177171D01*
X176991838Y-101223133D01*
X176899914Y-101269095D01*
X176716066Y-101269095D01*
X176624142Y-101315057D01*
X176578181Y-101361019D01*
X176532219Y-101452942D01*
X176532219Y-101636790D01*
X176578181Y-101728714D01*
X176624142Y-101774676D01*
X176716066Y-101820638D01*
X176899914Y-101820638D01*
X176991838Y-101774676D01*
X177037800Y-101728714D01*
X177083761Y-101636790D01*
X177083761Y-101452942D01*
X177037800Y-101361019D01*
X176991838Y-101315057D01*
X176899914Y-101269095D01*
X164801047Y-100855438D02*
X164801047Y-101544866D01*
X164755085Y-101682752D01*
X164663161Y-101774676D01*
X164525276Y-101820638D01*
X164433352Y-101820638D01*
X165260666Y-101820638D02*
X165260666Y-100855438D01*
X165490476Y-100855438D01*
X165628361Y-100901400D01*
X165720285Y-100993323D01*
X165766247Y-101085247D01*
X165812209Y-101269095D01*
X165812209Y-101406980D01*
X165766247Y-101590828D01*
X165720285Y-101682752D01*
X165628361Y-101774676D01*
X165490476Y-101820638D01*
X165260666Y-101820638D01*
X166179904Y-101544866D02*
X166639523Y-101544866D01*
X166087981Y-101820638D02*
X166409714Y-100855438D01*
X166731447Y-101820638D01*
X166961257Y-100855438D02*
X167604723Y-100855438D01*
X167191066Y-101820638D01*
X155276047Y-100855438D02*
X155276047Y-101544866D01*
X155230085Y-101682752D01*
X155138161Y-101774676D01*
X155000276Y-101820638D01*
X154908352Y-101820638D01*
X155735666Y-101820638D02*
X155735666Y-100855438D01*
X155965476Y-100855438D01*
X156103361Y-100901400D01*
X156195285Y-100993323D01*
X156241247Y-101085247D01*
X156287209Y-101269095D01*
X156287209Y-101406980D01*
X156241247Y-101590828D01*
X156195285Y-101682752D01*
X156103361Y-101774676D01*
X155965476Y-101820638D01*
X155735666Y-101820638D01*
X156654904Y-101544866D02*
X157114523Y-101544866D01*
X156562981Y-101820638D02*
X156884714Y-100855438D01*
X157206447Y-101820638D01*
X157941838Y-100855438D02*
X157757990Y-100855438D01*
X157666066Y-100901400D01*
X157620104Y-100947361D01*
X157528181Y-101085247D01*
X157482219Y-101269095D01*
X157482219Y-101636790D01*
X157528181Y-101728714D01*
X157574142Y-101774676D01*
X157666066Y-101820638D01*
X157849914Y-101820638D01*
X157941838Y-101774676D01*
X157987800Y-101728714D01*
X158033761Y-101636790D01*
X158033761Y-101406980D01*
X157987800Y-101315057D01*
X157941838Y-101269095D01*
X157849914Y-101223133D01*
X157666066Y-101223133D01*
X157574142Y-101269095D01*
X157528181Y-101315057D01*
X157482219Y-101406980D01*
X145751047Y-100855438D02*
X145751047Y-101544866D01*
X145705085Y-101682752D01*
X145613161Y-101774676D01*
X145475276Y-101820638D01*
X145383352Y-101820638D01*
X146210666Y-101820638D02*
X146210666Y-100855438D01*
X146440476Y-100855438D01*
X146578361Y-100901400D01*
X146670285Y-100993323D01*
X146716247Y-101085247D01*
X146762209Y-101269095D01*
X146762209Y-101406980D01*
X146716247Y-101590828D01*
X146670285Y-101682752D01*
X146578361Y-101774676D01*
X146440476Y-101820638D01*
X146210666Y-101820638D01*
X147129904Y-101544866D02*
X147589523Y-101544866D01*
X147037981Y-101820638D02*
X147359714Y-100855438D01*
X147681447Y-101820638D01*
X148462800Y-100855438D02*
X148003181Y-100855438D01*
X147957219Y-101315057D01*
X148003181Y-101269095D01*
X148095104Y-101223133D01*
X148324914Y-101223133D01*
X148416838Y-101269095D01*
X148462800Y-101315057D01*
X148508761Y-101406980D01*
X148508761Y-101636790D01*
X148462800Y-101728714D01*
X148416838Y-101774676D01*
X148324914Y-101820638D01*
X148095104Y-101820638D01*
X148003181Y-101774676D01*
X147957219Y-101728714D01*
X136226047Y-100855438D02*
X136226047Y-101544866D01*
X136180085Y-101682752D01*
X136088161Y-101774676D01*
X135950276Y-101820638D01*
X135858352Y-101820638D01*
X136685666Y-101820638D02*
X136685666Y-100855438D01*
X136915476Y-100855438D01*
X137053361Y-100901400D01*
X137145285Y-100993323D01*
X137191247Y-101085247D01*
X137237209Y-101269095D01*
X137237209Y-101406980D01*
X137191247Y-101590828D01*
X137145285Y-101682752D01*
X137053361Y-101774676D01*
X136915476Y-101820638D01*
X136685666Y-101820638D01*
X137604904Y-101544866D02*
X138064523Y-101544866D01*
X137512981Y-101820638D02*
X137834714Y-100855438D01*
X138156447Y-101820638D01*
X138891838Y-101177171D02*
X138891838Y-101820638D01*
X138662028Y-100809476D02*
X138432219Y-101498904D01*
X139029723Y-101498904D01*
X126701047Y-100855438D02*
X126701047Y-101544866D01*
X126655085Y-101682752D01*
X126563161Y-101774676D01*
X126425276Y-101820638D01*
X126333352Y-101820638D01*
X127160666Y-101820638D02*
X127160666Y-100855438D01*
X127390476Y-100855438D01*
X127528361Y-100901400D01*
X127620285Y-100993323D01*
X127666247Y-101085247D01*
X127712209Y-101269095D01*
X127712209Y-101406980D01*
X127666247Y-101590828D01*
X127620285Y-101682752D01*
X127528361Y-101774676D01*
X127390476Y-101820638D01*
X127160666Y-101820638D01*
X128079904Y-101544866D02*
X128539523Y-101544866D01*
X127987981Y-101820638D02*
X128309714Y-100855438D01*
X128631447Y-101820638D01*
X128861257Y-100855438D02*
X129458761Y-100855438D01*
X129137028Y-101223133D01*
X129274914Y-101223133D01*
X129366838Y-101269095D01*
X129412800Y-101315057D01*
X129458761Y-101406980D01*
X129458761Y-101636790D01*
X129412800Y-101728714D01*
X129366838Y-101774676D01*
X129274914Y-101820638D01*
X128999142Y-101820638D01*
X128907219Y-101774676D01*
X128861257Y-101728714D01*
X117176047Y-100855438D02*
X117176047Y-101544866D01*
X117130085Y-101682752D01*
X117038161Y-101774676D01*
X116900276Y-101820638D01*
X116808352Y-101820638D01*
X117635666Y-101820638D02*
X117635666Y-100855438D01*
X117865476Y-100855438D01*
X118003361Y-100901400D01*
X118095285Y-100993323D01*
X118141247Y-101085247D01*
X118187209Y-101269095D01*
X118187209Y-101406980D01*
X118141247Y-101590828D01*
X118095285Y-101682752D01*
X118003361Y-101774676D01*
X117865476Y-101820638D01*
X117635666Y-101820638D01*
X118554904Y-101544866D02*
X119014523Y-101544866D01*
X118462981Y-101820638D02*
X118784714Y-100855438D01*
X119106447Y-101820638D01*
X119382219Y-100947361D02*
X119428181Y-100901400D01*
X119520104Y-100855438D01*
X119749914Y-100855438D01*
X119841838Y-100901400D01*
X119887800Y-100947361D01*
X119933761Y-101039285D01*
X119933761Y-101131209D01*
X119887800Y-101269095D01*
X119336257Y-101820638D01*
X119933761Y-101820638D01*
X107651047Y-100855438D02*
X107651047Y-101544866D01*
X107605085Y-101682752D01*
X107513161Y-101774676D01*
X107375276Y-101820638D01*
X107283352Y-101820638D01*
X108110666Y-101820638D02*
X108110666Y-100855438D01*
X108340476Y-100855438D01*
X108478361Y-100901400D01*
X108570285Y-100993323D01*
X108616247Y-101085247D01*
X108662209Y-101269095D01*
X108662209Y-101406980D01*
X108616247Y-101590828D01*
X108570285Y-101682752D01*
X108478361Y-101774676D01*
X108340476Y-101820638D01*
X108110666Y-101820638D01*
X109029904Y-101544866D02*
X109489523Y-101544866D01*
X108937981Y-101820638D02*
X109259714Y-100855438D01*
X109581447Y-101820638D01*
X110408761Y-101820638D02*
X109857219Y-101820638D01*
X110132990Y-101820638D02*
X110132990Y-100855438D01*
X110041066Y-100993323D01*
X109949142Y-101085247D01*
X109857219Y-101131209D01*
X174326047Y-70375538D02*
X174326047Y-71064966D01*
X174280085Y-71202852D01*
X174188161Y-71294776D01*
X174050276Y-71340738D01*
X173958352Y-71340738D01*
X174739704Y-71064966D02*
X175199323Y-71064966D01*
X174647781Y-71340738D02*
X174969514Y-70375538D01*
X175291247Y-71340738D01*
X175612981Y-71340738D02*
X175612981Y-70375538D01*
X175842790Y-70375538D01*
X175980676Y-70421500D01*
X176072600Y-70513423D01*
X176118561Y-70605347D01*
X176164523Y-70789195D01*
X176164523Y-70927080D01*
X176118561Y-71110928D01*
X176072600Y-71202852D01*
X175980676Y-71294776D01*
X175842790Y-71340738D01*
X175612981Y-71340738D01*
X176716066Y-70789195D02*
X176624142Y-70743233D01*
X176578181Y-70697271D01*
X176532219Y-70605347D01*
X176532219Y-70559385D01*
X176578181Y-70467461D01*
X176624142Y-70421500D01*
X176716066Y-70375538D01*
X176899914Y-70375538D01*
X176991838Y-70421500D01*
X177037800Y-70467461D01*
X177083761Y-70559385D01*
X177083761Y-70605347D01*
X177037800Y-70697271D01*
X176991838Y-70743233D01*
X176899914Y-70789195D01*
X176716066Y-70789195D01*
X176624142Y-70835157D01*
X176578181Y-70881119D01*
X176532219Y-70973042D01*
X176532219Y-71156890D01*
X176578181Y-71248814D01*
X176624142Y-71294776D01*
X176716066Y-71340738D01*
X176899914Y-71340738D01*
X176991838Y-71294776D01*
X177037800Y-71248814D01*
X177083761Y-71156890D01*
X177083761Y-70973042D01*
X177037800Y-70881119D01*
X176991838Y-70835157D01*
X176899914Y-70789195D01*
X164801047Y-70375538D02*
X164801047Y-71064966D01*
X164755085Y-71202852D01*
X164663161Y-71294776D01*
X164525276Y-71340738D01*
X164433352Y-71340738D01*
X165214704Y-71064966D02*
X165674323Y-71064966D01*
X165122781Y-71340738D02*
X165444514Y-70375538D01*
X165766247Y-71340738D01*
X166087981Y-71340738D02*
X166087981Y-70375538D01*
X166317790Y-70375538D01*
X166455676Y-70421500D01*
X166547600Y-70513423D01*
X166593561Y-70605347D01*
X166639523Y-70789195D01*
X166639523Y-70927080D01*
X166593561Y-71110928D01*
X166547600Y-71202852D01*
X166455676Y-71294776D01*
X166317790Y-71340738D01*
X166087981Y-71340738D01*
X166961257Y-70375538D02*
X167604723Y-70375538D01*
X167191066Y-71340738D01*
X155276047Y-70375538D02*
X155276047Y-71064966D01*
X155230085Y-71202852D01*
X155138161Y-71294776D01*
X155000276Y-71340738D01*
X154908352Y-71340738D01*
X155689704Y-71064966D02*
X156149323Y-71064966D01*
X155597781Y-71340738D02*
X155919514Y-70375538D01*
X156241247Y-71340738D01*
X156562981Y-71340738D02*
X156562981Y-70375538D01*
X156792790Y-70375538D01*
X156930676Y-70421500D01*
X157022600Y-70513423D01*
X157068561Y-70605347D01*
X157114523Y-70789195D01*
X157114523Y-70927080D01*
X157068561Y-71110928D01*
X157022600Y-71202852D01*
X156930676Y-71294776D01*
X156792790Y-71340738D01*
X156562981Y-71340738D01*
X157941838Y-70375538D02*
X157757990Y-70375538D01*
X157666066Y-70421500D01*
X157620104Y-70467461D01*
X157528181Y-70605347D01*
X157482219Y-70789195D01*
X157482219Y-71156890D01*
X157528181Y-71248814D01*
X157574142Y-71294776D01*
X157666066Y-71340738D01*
X157849914Y-71340738D01*
X157941838Y-71294776D01*
X157987800Y-71248814D01*
X158033761Y-71156890D01*
X158033761Y-70927080D01*
X157987800Y-70835157D01*
X157941838Y-70789195D01*
X157849914Y-70743233D01*
X157666066Y-70743233D01*
X157574142Y-70789195D01*
X157528181Y-70835157D01*
X157482219Y-70927080D01*
X145751047Y-70375538D02*
X145751047Y-71064966D01*
X145705085Y-71202852D01*
X145613161Y-71294776D01*
X145475276Y-71340738D01*
X145383352Y-71340738D01*
X146164704Y-71064966D02*
X146624323Y-71064966D01*
X146072781Y-71340738D02*
X146394514Y-70375538D01*
X146716247Y-71340738D01*
X147037981Y-71340738D02*
X147037981Y-70375538D01*
X147267790Y-70375538D01*
X147405676Y-70421500D01*
X147497600Y-70513423D01*
X147543561Y-70605347D01*
X147589523Y-70789195D01*
X147589523Y-70927080D01*
X147543561Y-71110928D01*
X147497600Y-71202852D01*
X147405676Y-71294776D01*
X147267790Y-71340738D01*
X147037981Y-71340738D01*
X148462800Y-70375538D02*
X148003181Y-70375538D01*
X147957219Y-70835157D01*
X148003181Y-70789195D01*
X148095104Y-70743233D01*
X148324914Y-70743233D01*
X148416838Y-70789195D01*
X148462800Y-70835157D01*
X148508761Y-70927080D01*
X148508761Y-71156890D01*
X148462800Y-71248814D01*
X148416838Y-71294776D01*
X148324914Y-71340738D01*
X148095104Y-71340738D01*
X148003181Y-71294776D01*
X147957219Y-71248814D01*
X136226047Y-70375538D02*
X136226047Y-71064966D01*
X136180085Y-71202852D01*
X136088161Y-71294776D01*
X135950276Y-71340738D01*
X135858352Y-71340738D01*
X136639704Y-71064966D02*
X137099323Y-71064966D01*
X136547781Y-71340738D02*
X136869514Y-70375538D01*
X137191247Y-71340738D01*
X137512981Y-71340738D02*
X137512981Y-70375538D01*
X137742790Y-70375538D01*
X137880676Y-70421500D01*
X137972600Y-70513423D01*
X138018561Y-70605347D01*
X138064523Y-70789195D01*
X138064523Y-70927080D01*
X138018561Y-71110928D01*
X137972600Y-71202852D01*
X137880676Y-71294776D01*
X137742790Y-71340738D01*
X137512981Y-71340738D01*
X138891838Y-70697271D02*
X138891838Y-71340738D01*
X138662028Y-70329576D02*
X138432219Y-71019004D01*
X139029723Y-71019004D01*
X126701047Y-70375538D02*
X126701047Y-71064966D01*
X126655085Y-71202852D01*
X126563161Y-71294776D01*
X126425276Y-71340738D01*
X126333352Y-71340738D01*
X127114704Y-71064966D02*
X127574323Y-71064966D01*
X127022781Y-71340738D02*
X127344514Y-70375538D01*
X127666247Y-71340738D01*
X127987981Y-71340738D02*
X127987981Y-70375538D01*
X128217790Y-70375538D01*
X128355676Y-70421500D01*
X128447600Y-70513423D01*
X128493561Y-70605347D01*
X128539523Y-70789195D01*
X128539523Y-70927080D01*
X128493561Y-71110928D01*
X128447600Y-71202852D01*
X128355676Y-71294776D01*
X128217790Y-71340738D01*
X127987981Y-71340738D01*
X128861257Y-70375538D02*
X129458761Y-70375538D01*
X129137028Y-70743233D01*
X129274914Y-70743233D01*
X129366838Y-70789195D01*
X129412800Y-70835157D01*
X129458761Y-70927080D01*
X129458761Y-71156890D01*
X129412800Y-71248814D01*
X129366838Y-71294776D01*
X129274914Y-71340738D01*
X128999142Y-71340738D01*
X128907219Y-71294776D01*
X128861257Y-71248814D01*
X117176047Y-70375538D02*
X117176047Y-71064966D01*
X117130085Y-71202852D01*
X117038161Y-71294776D01*
X116900276Y-71340738D01*
X116808352Y-71340738D01*
X117589704Y-71064966D02*
X118049323Y-71064966D01*
X117497781Y-71340738D02*
X117819514Y-70375538D01*
X118141247Y-71340738D01*
X118462981Y-71340738D02*
X118462981Y-70375538D01*
X118692790Y-70375538D01*
X118830676Y-70421500D01*
X118922600Y-70513423D01*
X118968561Y-70605347D01*
X119014523Y-70789195D01*
X119014523Y-70927080D01*
X118968561Y-71110928D01*
X118922600Y-71202852D01*
X118830676Y-71294776D01*
X118692790Y-71340738D01*
X118462981Y-71340738D01*
X119382219Y-70467461D02*
X119428181Y-70421500D01*
X119520104Y-70375538D01*
X119749914Y-70375538D01*
X119841838Y-70421500D01*
X119887800Y-70467461D01*
X119933761Y-70559385D01*
X119933761Y-70651309D01*
X119887800Y-70789195D01*
X119336257Y-71340738D01*
X119933761Y-71340738D01*
X107651047Y-70375538D02*
X107651047Y-71064966D01*
X107605085Y-71202852D01*
X107513161Y-71294776D01*
X107375276Y-71340738D01*
X107283352Y-71340738D01*
X108064704Y-71064966D02*
X108524323Y-71064966D01*
X107972781Y-71340738D02*
X108294514Y-70375538D01*
X108616247Y-71340738D01*
X108937981Y-71340738D02*
X108937981Y-70375538D01*
X109167790Y-70375538D01*
X109305676Y-70421500D01*
X109397600Y-70513423D01*
X109443561Y-70605347D01*
X109489523Y-70789195D01*
X109489523Y-70927080D01*
X109443561Y-71110928D01*
X109397600Y-71202852D01*
X109305676Y-71294776D01*
X109167790Y-71340738D01*
X108937981Y-71340738D01*
X110408761Y-71340738D02*
X109857219Y-71340738D01*
X110132990Y-71340738D02*
X110132990Y-70375538D01*
X110041066Y-70513423D01*
X109949142Y-70605347D01*
X109857219Y-70651309D01*
D17*
X132027569Y-93657168D02*
X132889647Y-93657168D01*
X133062062Y-93714640D01*
X133177006Y-93829584D01*
X133234478Y-94001999D01*
X133234478Y-94116943D01*
X132027569Y-93197393D02*
X132027569Y-92450259D01*
X132487344Y-92852562D01*
X132487344Y-92680147D01*
X132544815Y-92565203D01*
X132602287Y-92507731D01*
X132717231Y-92450259D01*
X133004590Y-92450259D01*
X133119534Y-92507731D01*
X133177006Y-92565203D01*
X133234478Y-92680147D01*
X133234478Y-93024978D01*
X133177006Y-93139922D01*
X133119534Y-93197393D01*
D18*
X160808761Y-86331452D02*
X161487333Y-86331452D01*
X161623047Y-86376690D01*
X161713523Y-86467166D01*
X161758761Y-86602880D01*
X161758761Y-86693357D01*
X161758761Y-85381452D02*
X161758761Y-85924309D01*
X161758761Y-85652880D02*
X160808761Y-85652880D01*
X160944476Y-85743357D01*
X161034952Y-85833833D01*
X161080190Y-85924309D01*
M02*
