G04 #@! TF.GenerationSoftware,KiCad,Pcbnew,(5.1.4-0-10_14)*
G04 #@! TF.CreationDate,2019-09-27T18:33:15+01:00*
G04 #@! TF.ProjectId,TopBreakout,546f7042-7265-4616-9b6f-75742e6b6963,rev?*
G04 #@! TF.SameCoordinates,Original*
G04 #@! TF.FileFunction,Soldermask,Top*
G04 #@! TF.FilePolarity,Negative*
%FSLAX46Y46*%
G04 Gerber Fmt 4.6, Leading zero omitted, Abs format (unit mm)*
G04 Created by KiCad (PCBNEW (5.1.4-0-10_14)) date 2019-09-27 18:33:15*
%MOMM*%
%LPD*%
G04 APERTURE LIST*
%ADD10C,0.100000*%
G04 APERTURE END LIST*
D10*
G36*
X161042254Y-154468818D02*
G01*
X161415511Y-154623426D01*
X161415513Y-154623427D01*
X161543899Y-154709212D01*
X161751436Y-154847884D01*
X162037116Y-155133564D01*
X162261574Y-155469489D01*
X162416182Y-155842746D01*
X162495000Y-156238993D01*
X162495000Y-156643007D01*
X162416182Y-157039254D01*
X162310624Y-157294093D01*
X162261573Y-157412513D01*
X162037116Y-157748436D01*
X161751436Y-158034116D01*
X161415513Y-158258573D01*
X161415512Y-158258574D01*
X161415511Y-158258574D01*
X161042254Y-158413182D01*
X160646007Y-158492000D01*
X160241993Y-158492000D01*
X159845746Y-158413182D01*
X159472489Y-158258574D01*
X159472488Y-158258574D01*
X159472487Y-158258573D01*
X159136564Y-158034116D01*
X158850884Y-157748436D01*
X158626427Y-157412513D01*
X158577376Y-157294093D01*
X158471818Y-157039254D01*
X158393000Y-156643007D01*
X158393000Y-156238993D01*
X158471818Y-155842746D01*
X158626426Y-155469489D01*
X158850884Y-155133564D01*
X159136564Y-154847884D01*
X159344101Y-154709212D01*
X159472487Y-154623427D01*
X159472489Y-154623426D01*
X159845746Y-154468818D01*
X160241993Y-154390000D01*
X160646007Y-154390000D01*
X161042254Y-154468818D01*
X161042254Y-154468818D01*
G37*
G36*
X135969331Y-154709211D02*
G01*
X136297092Y-154844974D01*
X136592070Y-155042072D01*
X136842928Y-155292930D01*
X137040026Y-155587908D01*
X137175789Y-155915669D01*
X137245000Y-156263616D01*
X137245000Y-156618384D01*
X137175789Y-156966331D01*
X137040026Y-157294092D01*
X136842928Y-157589070D01*
X136592070Y-157839928D01*
X136297092Y-158037026D01*
X135969331Y-158172789D01*
X135621384Y-158242000D01*
X135266616Y-158242000D01*
X134918669Y-158172789D01*
X134590908Y-158037026D01*
X134295930Y-157839928D01*
X134045072Y-157589070D01*
X133847974Y-157294092D01*
X133712211Y-156966331D01*
X133643000Y-156618384D01*
X133643000Y-156263616D01*
X133712211Y-155915669D01*
X133847974Y-155587908D01*
X134045072Y-155292930D01*
X134295930Y-155042072D01*
X134590908Y-154844974D01*
X134918669Y-154709211D01*
X135266616Y-154640000D01*
X135621384Y-154640000D01*
X135969331Y-154709211D01*
X135969331Y-154709211D01*
G37*
G36*
X156879490Y-132241490D02*
G01*
X154778510Y-132241490D01*
X154778510Y-130140510D01*
X156879490Y-130140510D01*
X156879490Y-132241490D01*
X156879490Y-132241490D01*
G37*
G36*
X175681000Y-130667000D02*
G01*
X174229000Y-130667000D01*
X174229000Y-129215000D01*
X175681000Y-129215000D01*
X175681000Y-130667000D01*
X175681000Y-130667000D01*
G37*
G36*
X179337372Y-128926067D02*
G01*
X179393013Y-128937135D01*
X179465113Y-128967000D01*
X179497840Y-128980556D01*
X179592176Y-129043589D01*
X179672411Y-129123824D01*
X179735444Y-129218160D01*
X179778865Y-129322988D01*
X179801000Y-129434268D01*
X179801000Y-129547732D01*
X179778865Y-129659012D01*
X179735444Y-129763840D01*
X179672411Y-129858176D01*
X179592176Y-129938411D01*
X179497840Y-130001444D01*
X179497839Y-130001445D01*
X179497838Y-130001445D01*
X179393013Y-130044865D01*
X179337372Y-130055933D01*
X179281732Y-130067000D01*
X179168268Y-130067000D01*
X179112628Y-130055933D01*
X179056987Y-130044865D01*
X178952162Y-130001445D01*
X178952161Y-130001445D01*
X178952160Y-130001444D01*
X178857824Y-129938411D01*
X178777589Y-129858176D01*
X178714556Y-129763840D01*
X178671135Y-129659012D01*
X178649000Y-129547732D01*
X178649000Y-129434268D01*
X178671135Y-129322988D01*
X178714556Y-129218160D01*
X178777589Y-129123824D01*
X178857824Y-129043589D01*
X178952160Y-128980556D01*
X178984887Y-128967000D01*
X179056987Y-128937135D01*
X179112628Y-128926067D01*
X179168268Y-128915000D01*
X179281732Y-128915000D01*
X179337372Y-128926067D01*
X179337372Y-128926067D01*
G37*
G36*
X178237372Y-127826068D02*
G01*
X178293013Y-127837135D01*
X178365113Y-127867000D01*
X178397840Y-127880556D01*
X178492176Y-127943589D01*
X178572411Y-128023824D01*
X178635444Y-128118160D01*
X178678865Y-128222988D01*
X178701000Y-128334268D01*
X178701000Y-128447732D01*
X178678865Y-128559012D01*
X178635444Y-128663840D01*
X178572411Y-128758176D01*
X178492176Y-128838411D01*
X178397840Y-128901444D01*
X178397839Y-128901445D01*
X178397838Y-128901445D01*
X178293013Y-128944865D01*
X178237372Y-128955932D01*
X178181732Y-128967000D01*
X178068268Y-128967000D01*
X178012628Y-128955932D01*
X177956987Y-128944865D01*
X177852162Y-128901445D01*
X177852161Y-128901445D01*
X177852160Y-128901444D01*
X177757824Y-128838411D01*
X177677589Y-128758176D01*
X177614556Y-128663840D01*
X177571135Y-128559012D01*
X177549000Y-128447732D01*
X177549000Y-128334268D01*
X177571135Y-128222988D01*
X177614556Y-128118160D01*
X177677589Y-128023824D01*
X177757824Y-127943589D01*
X177852160Y-127880556D01*
X177884887Y-127867000D01*
X177956987Y-127837135D01*
X178012628Y-127826068D01*
X178068268Y-127815000D01*
X178181732Y-127815000D01*
X178237372Y-127826068D01*
X178237372Y-127826068D01*
G37*
G36*
X179337372Y-126726067D02*
G01*
X179393013Y-126737135D01*
X179465113Y-126767000D01*
X179497840Y-126780556D01*
X179592176Y-126843589D01*
X179672411Y-126923824D01*
X179735444Y-127018160D01*
X179778865Y-127122988D01*
X179801000Y-127234268D01*
X179801000Y-127347732D01*
X179778865Y-127459012D01*
X179735444Y-127563840D01*
X179672411Y-127658176D01*
X179592176Y-127738411D01*
X179497840Y-127801444D01*
X179497839Y-127801445D01*
X179497838Y-127801445D01*
X179393013Y-127844865D01*
X179337372Y-127855932D01*
X179281732Y-127867000D01*
X179168268Y-127867000D01*
X179112628Y-127855932D01*
X179056987Y-127844865D01*
X178952162Y-127801445D01*
X178952161Y-127801445D01*
X178952160Y-127801444D01*
X178857824Y-127738411D01*
X178777589Y-127658176D01*
X178714556Y-127563840D01*
X178671135Y-127459012D01*
X178649000Y-127347732D01*
X178649000Y-127234268D01*
X178671135Y-127122988D01*
X178714556Y-127018160D01*
X178777589Y-126923824D01*
X178857824Y-126843589D01*
X178952160Y-126780556D01*
X178984887Y-126767000D01*
X179056987Y-126737135D01*
X179112628Y-126726067D01*
X179168268Y-126715000D01*
X179281732Y-126715000D01*
X179337372Y-126726067D01*
X179337372Y-126726067D01*
G37*
G36*
X156879490Y-127161490D02*
G01*
X154778510Y-127161490D01*
X154778510Y-125060510D01*
X156879490Y-125060510D01*
X156879490Y-127161490D01*
X156879490Y-127161490D01*
G37*
G36*
X178237372Y-125626067D02*
G01*
X178293013Y-125637135D01*
X178365113Y-125667000D01*
X178397840Y-125680556D01*
X178492176Y-125743589D01*
X178572411Y-125823824D01*
X178635444Y-125918160D01*
X178678865Y-126022988D01*
X178701000Y-126134268D01*
X178701000Y-126247732D01*
X178678865Y-126359012D01*
X178635444Y-126463840D01*
X178572411Y-126558176D01*
X178492176Y-126638411D01*
X178397840Y-126701444D01*
X178397839Y-126701445D01*
X178397838Y-126701445D01*
X178293013Y-126744865D01*
X178237372Y-126755933D01*
X178181732Y-126767000D01*
X178068268Y-126767000D01*
X178012628Y-126755933D01*
X177956987Y-126744865D01*
X177852162Y-126701445D01*
X177852161Y-126701445D01*
X177852160Y-126701444D01*
X177757824Y-126638411D01*
X177677589Y-126558176D01*
X177614556Y-126463840D01*
X177571135Y-126359012D01*
X177549000Y-126247732D01*
X177549000Y-126134268D01*
X177571135Y-126022988D01*
X177614556Y-125918160D01*
X177677589Y-125823824D01*
X177757824Y-125743589D01*
X177852160Y-125680556D01*
X177884887Y-125667000D01*
X177956987Y-125637135D01*
X178012628Y-125626067D01*
X178068268Y-125615000D01*
X178181732Y-125615000D01*
X178237372Y-125626067D01*
X178237372Y-125626067D01*
G37*
G36*
X179337372Y-124526067D02*
G01*
X179393013Y-124537135D01*
X179465113Y-124567000D01*
X179497840Y-124580556D01*
X179592176Y-124643589D01*
X179672411Y-124723824D01*
X179735444Y-124818160D01*
X179778865Y-124922988D01*
X179801000Y-125034268D01*
X179801000Y-125147732D01*
X179778865Y-125259012D01*
X179735444Y-125363840D01*
X179672411Y-125458176D01*
X179592176Y-125538411D01*
X179497840Y-125601444D01*
X179497839Y-125601445D01*
X179497838Y-125601445D01*
X179393013Y-125644865D01*
X179337372Y-125655932D01*
X179281732Y-125667000D01*
X179168268Y-125667000D01*
X179112628Y-125655932D01*
X179056987Y-125644865D01*
X178952162Y-125601445D01*
X178952161Y-125601445D01*
X178952160Y-125601444D01*
X178857824Y-125538411D01*
X178777589Y-125458176D01*
X178714556Y-125363840D01*
X178671135Y-125259012D01*
X178649000Y-125147732D01*
X178649000Y-125034268D01*
X178671135Y-124922988D01*
X178714556Y-124818160D01*
X178777589Y-124723824D01*
X178857824Y-124643589D01*
X178952160Y-124580556D01*
X178984887Y-124567000D01*
X179056987Y-124537135D01*
X179112628Y-124526067D01*
X179168268Y-124515000D01*
X179281732Y-124515000D01*
X179337372Y-124526067D01*
X179337372Y-124526067D01*
G37*
G36*
X178237372Y-123426068D02*
G01*
X178293013Y-123437135D01*
X178365113Y-123467000D01*
X178397840Y-123480556D01*
X178492176Y-123543589D01*
X178572411Y-123623824D01*
X178635444Y-123718160D01*
X178678865Y-123822988D01*
X178701000Y-123934268D01*
X178701000Y-124047732D01*
X178678865Y-124159012D01*
X178635444Y-124263840D01*
X178572411Y-124358176D01*
X178492176Y-124438411D01*
X178397840Y-124501444D01*
X178397839Y-124501445D01*
X178397838Y-124501445D01*
X178293013Y-124544865D01*
X178237372Y-124555933D01*
X178181732Y-124567000D01*
X178068268Y-124567000D01*
X178012628Y-124555933D01*
X177956987Y-124544865D01*
X177852162Y-124501445D01*
X177852161Y-124501445D01*
X177852160Y-124501444D01*
X177757824Y-124438411D01*
X177677589Y-124358176D01*
X177614556Y-124263840D01*
X177571135Y-124159012D01*
X177549000Y-124047732D01*
X177549000Y-123934268D01*
X177571135Y-123822988D01*
X177614556Y-123718160D01*
X177677589Y-123623824D01*
X177757824Y-123543589D01*
X177852160Y-123480556D01*
X177884887Y-123467000D01*
X177956987Y-123437135D01*
X178012628Y-123426068D01*
X178068268Y-123415000D01*
X178181732Y-123415000D01*
X178237372Y-123426068D01*
X178237372Y-123426068D01*
G37*
G36*
X179337372Y-122326068D02*
G01*
X179393013Y-122337135D01*
X179465113Y-122367000D01*
X179497840Y-122380556D01*
X179592176Y-122443589D01*
X179672411Y-122523824D01*
X179735444Y-122618160D01*
X179778865Y-122722988D01*
X179801000Y-122834268D01*
X179801000Y-122947732D01*
X179778865Y-123059012D01*
X179735444Y-123163840D01*
X179672411Y-123258176D01*
X179592176Y-123338411D01*
X179497840Y-123401444D01*
X179497839Y-123401445D01*
X179497838Y-123401445D01*
X179393013Y-123444865D01*
X179337372Y-123455932D01*
X179281732Y-123467000D01*
X179168268Y-123467000D01*
X179112628Y-123455932D01*
X179056987Y-123444865D01*
X178952162Y-123401445D01*
X178952161Y-123401445D01*
X178952160Y-123401444D01*
X178857824Y-123338411D01*
X178777589Y-123258176D01*
X178714556Y-123163840D01*
X178671135Y-123059012D01*
X178649000Y-122947732D01*
X178649000Y-122834268D01*
X178671135Y-122722988D01*
X178714556Y-122618160D01*
X178777589Y-122523824D01*
X178857824Y-122443589D01*
X178952160Y-122380556D01*
X178984887Y-122367000D01*
X179056987Y-122337135D01*
X179112628Y-122326068D01*
X179168268Y-122315000D01*
X179281732Y-122315000D01*
X179337372Y-122326068D01*
X179337372Y-122326068D01*
G37*
G36*
X178237372Y-121226067D02*
G01*
X178293013Y-121237135D01*
X178397838Y-121280555D01*
X178397840Y-121280556D01*
X178492176Y-121343589D01*
X178572411Y-121423824D01*
X178635444Y-121518160D01*
X178678865Y-121622988D01*
X178701000Y-121734268D01*
X178701000Y-121847732D01*
X178678865Y-121959012D01*
X178635444Y-122063840D01*
X178572411Y-122158176D01*
X178492176Y-122238411D01*
X178397840Y-122301444D01*
X178397839Y-122301445D01*
X178397838Y-122301445D01*
X178293013Y-122344865D01*
X178237372Y-122355933D01*
X178181732Y-122367000D01*
X178068268Y-122367000D01*
X178012628Y-122355933D01*
X177956987Y-122344865D01*
X177852162Y-122301445D01*
X177852161Y-122301445D01*
X177852160Y-122301444D01*
X177757824Y-122238411D01*
X177677589Y-122158176D01*
X177614556Y-122063840D01*
X177571135Y-121959012D01*
X177549000Y-121847732D01*
X177549000Y-121734268D01*
X177571135Y-121622988D01*
X177614556Y-121518160D01*
X177677589Y-121423824D01*
X177757824Y-121343589D01*
X177852160Y-121280556D01*
X177852162Y-121280555D01*
X177956987Y-121237135D01*
X178012628Y-121226067D01*
X178068268Y-121215000D01*
X178181732Y-121215000D01*
X178237372Y-121226067D01*
X178237372Y-121226067D01*
G37*
G36*
X175681000Y-122067000D02*
G01*
X174229000Y-122067000D01*
X174229000Y-120615000D01*
X175681000Y-120615000D01*
X175681000Y-122067000D01*
X175681000Y-122067000D01*
G37*
G36*
X160969331Y-113709211D02*
G01*
X161297092Y-113844974D01*
X161592070Y-114042072D01*
X161842928Y-114292930D01*
X162040026Y-114587908D01*
X162175789Y-114915669D01*
X162245000Y-115263616D01*
X162245000Y-115618384D01*
X162175789Y-115966331D01*
X162040026Y-116294092D01*
X161842928Y-116589070D01*
X161592070Y-116839928D01*
X161297092Y-117037026D01*
X160969331Y-117172789D01*
X160621384Y-117242000D01*
X160266616Y-117242000D01*
X159918669Y-117172789D01*
X159590908Y-117037026D01*
X159295930Y-116839928D01*
X159045072Y-116589070D01*
X158847974Y-116294092D01*
X158712211Y-115966331D01*
X158643000Y-115618384D01*
X158643000Y-115263616D01*
X158712211Y-114915669D01*
X158847974Y-114587908D01*
X159045072Y-114292930D01*
X159295930Y-114042072D01*
X159590908Y-113844974D01*
X159918669Y-113709211D01*
X160266616Y-113640000D01*
X160621384Y-113640000D01*
X160969331Y-113709211D01*
X160969331Y-113709211D01*
G37*
G36*
X135969331Y-113709211D02*
G01*
X136297092Y-113844974D01*
X136592070Y-114042072D01*
X136842928Y-114292930D01*
X137040026Y-114587908D01*
X137175789Y-114915669D01*
X137245000Y-115263616D01*
X137245000Y-115618384D01*
X137175789Y-115966331D01*
X137040026Y-116294092D01*
X136842928Y-116589070D01*
X136592070Y-116839928D01*
X136297092Y-117037026D01*
X135969331Y-117172789D01*
X135621384Y-117242000D01*
X135266616Y-117242000D01*
X134918669Y-117172789D01*
X134590908Y-117037026D01*
X134295930Y-116839928D01*
X134045072Y-116589070D01*
X133847974Y-116294092D01*
X133712211Y-115966331D01*
X133643000Y-115618384D01*
X133643000Y-115263616D01*
X133712211Y-114915669D01*
X133847974Y-114587908D01*
X134045072Y-114292930D01*
X134295930Y-114042072D01*
X134590908Y-113844974D01*
X134918669Y-113709211D01*
X135266616Y-113640000D01*
X135621384Y-113640000D01*
X135969331Y-113709211D01*
X135969331Y-113709211D01*
G37*
G36*
X139333003Y-113528275D02*
G01*
X139333005Y-113528276D01*
X139333006Y-113528276D01*
X139513320Y-113602964D01*
X139675598Y-113711395D01*
X139813605Y-113849402D01*
X139922036Y-114011680D01*
X139996724Y-114191994D01*
X139996725Y-114191997D01*
X140034800Y-114383413D01*
X140034800Y-114578585D01*
X139996724Y-114770006D01*
X139922036Y-114950320D01*
X139813605Y-115112598D01*
X139675598Y-115250605D01*
X139513320Y-115359036D01*
X139333006Y-115433724D01*
X139333005Y-115433724D01*
X139333003Y-115433725D01*
X139141587Y-115471800D01*
X138946413Y-115471800D01*
X138754997Y-115433725D01*
X138754995Y-115433724D01*
X138754994Y-115433724D01*
X138574680Y-115359036D01*
X138412402Y-115250605D01*
X138274395Y-115112598D01*
X138165964Y-114950320D01*
X138091276Y-114770006D01*
X138053200Y-114578585D01*
X138053200Y-114383413D01*
X138091275Y-114191997D01*
X138091276Y-114191994D01*
X138165964Y-114011680D01*
X138274395Y-113849402D01*
X138412402Y-113711395D01*
X138574680Y-113602964D01*
X138754994Y-113528276D01*
X138754995Y-113528276D01*
X138754997Y-113528275D01*
X138946413Y-113490200D01*
X139141587Y-113490200D01*
X139333003Y-113528275D01*
X139333003Y-113528275D01*
G37*
G36*
X141873003Y-113528275D02*
G01*
X141873005Y-113528276D01*
X141873006Y-113528276D01*
X142053320Y-113602964D01*
X142215598Y-113711395D01*
X142353605Y-113849402D01*
X142462036Y-114011680D01*
X142536724Y-114191994D01*
X142536725Y-114191997D01*
X142574800Y-114383413D01*
X142574800Y-114578585D01*
X142536724Y-114770006D01*
X142462036Y-114950320D01*
X142353605Y-115112598D01*
X142215598Y-115250605D01*
X142053320Y-115359036D01*
X141873006Y-115433724D01*
X141873005Y-115433724D01*
X141873003Y-115433725D01*
X141681587Y-115471800D01*
X141486413Y-115471800D01*
X141294997Y-115433725D01*
X141294995Y-115433724D01*
X141294994Y-115433724D01*
X141114680Y-115359036D01*
X140952402Y-115250605D01*
X140814395Y-115112598D01*
X140705964Y-114950320D01*
X140631276Y-114770006D01*
X140593200Y-114578585D01*
X140593200Y-114383413D01*
X140631275Y-114191997D01*
X140631276Y-114191994D01*
X140705964Y-114011680D01*
X140814395Y-113849402D01*
X140952402Y-113711395D01*
X141114680Y-113602964D01*
X141294994Y-113528276D01*
X141294995Y-113528276D01*
X141294997Y-113528275D01*
X141486413Y-113490200D01*
X141681587Y-113490200D01*
X141873003Y-113528275D01*
X141873003Y-113528275D01*
G37*
G36*
X144413003Y-113528275D02*
G01*
X144413005Y-113528276D01*
X144413006Y-113528276D01*
X144593320Y-113602964D01*
X144755598Y-113711395D01*
X144893605Y-113849402D01*
X145002036Y-114011680D01*
X145076724Y-114191994D01*
X145076725Y-114191997D01*
X145114800Y-114383413D01*
X145114800Y-114578585D01*
X145076724Y-114770006D01*
X145002036Y-114950320D01*
X144893605Y-115112598D01*
X144755598Y-115250605D01*
X144593320Y-115359036D01*
X144413006Y-115433724D01*
X144413005Y-115433724D01*
X144413003Y-115433725D01*
X144221587Y-115471800D01*
X144026413Y-115471800D01*
X143834997Y-115433725D01*
X143834995Y-115433724D01*
X143834994Y-115433724D01*
X143654680Y-115359036D01*
X143492402Y-115250605D01*
X143354395Y-115112598D01*
X143245964Y-114950320D01*
X143171276Y-114770006D01*
X143133200Y-114578585D01*
X143133200Y-114383413D01*
X143171275Y-114191997D01*
X143171276Y-114191994D01*
X143245964Y-114011680D01*
X143354395Y-113849402D01*
X143492402Y-113711395D01*
X143654680Y-113602964D01*
X143834994Y-113528276D01*
X143834995Y-113528276D01*
X143834997Y-113528275D01*
X144026413Y-113490200D01*
X144221587Y-113490200D01*
X144413003Y-113528275D01*
X144413003Y-113528275D01*
G37*
G36*
X146953003Y-113528275D02*
G01*
X146953005Y-113528276D01*
X146953006Y-113528276D01*
X147133320Y-113602964D01*
X147295598Y-113711395D01*
X147433605Y-113849402D01*
X147542036Y-114011680D01*
X147616724Y-114191994D01*
X147616725Y-114191997D01*
X147654800Y-114383413D01*
X147654800Y-114578585D01*
X147616724Y-114770006D01*
X147542036Y-114950320D01*
X147433605Y-115112598D01*
X147295598Y-115250605D01*
X147133320Y-115359036D01*
X146953006Y-115433724D01*
X146953005Y-115433724D01*
X146953003Y-115433725D01*
X146761587Y-115471800D01*
X146566413Y-115471800D01*
X146374997Y-115433725D01*
X146374995Y-115433724D01*
X146374994Y-115433724D01*
X146194680Y-115359036D01*
X146032402Y-115250605D01*
X145894395Y-115112598D01*
X145785964Y-114950320D01*
X145711276Y-114770006D01*
X145673200Y-114578585D01*
X145673200Y-114383413D01*
X145711275Y-114191997D01*
X145711276Y-114191994D01*
X145785964Y-114011680D01*
X145894395Y-113849402D01*
X146032402Y-113711395D01*
X146194680Y-113602964D01*
X146374994Y-113528276D01*
X146374995Y-113528276D01*
X146374997Y-113528275D01*
X146566413Y-113490200D01*
X146761587Y-113490200D01*
X146953003Y-113528275D01*
X146953003Y-113528275D01*
G37*
G36*
X149493003Y-113528275D02*
G01*
X149493005Y-113528276D01*
X149493006Y-113528276D01*
X149673320Y-113602964D01*
X149835598Y-113711395D01*
X149973605Y-113849402D01*
X150082036Y-114011680D01*
X150156724Y-114191994D01*
X150156725Y-114191997D01*
X150194800Y-114383413D01*
X150194800Y-114578585D01*
X150156724Y-114770006D01*
X150082036Y-114950320D01*
X149973605Y-115112598D01*
X149835598Y-115250605D01*
X149673320Y-115359036D01*
X149493006Y-115433724D01*
X149493005Y-115433724D01*
X149493003Y-115433725D01*
X149301587Y-115471800D01*
X149106413Y-115471800D01*
X148914997Y-115433725D01*
X148914995Y-115433724D01*
X148914994Y-115433724D01*
X148734680Y-115359036D01*
X148572402Y-115250605D01*
X148434395Y-115112598D01*
X148325964Y-114950320D01*
X148251276Y-114770006D01*
X148213200Y-114578585D01*
X148213200Y-114383413D01*
X148251275Y-114191997D01*
X148251276Y-114191994D01*
X148325964Y-114011680D01*
X148434395Y-113849402D01*
X148572402Y-113711395D01*
X148734680Y-113602964D01*
X148914994Y-113528276D01*
X148914995Y-113528276D01*
X148914997Y-113528275D01*
X149106413Y-113490200D01*
X149301587Y-113490200D01*
X149493003Y-113528275D01*
X149493003Y-113528275D01*
G37*
G36*
X152033003Y-113528275D02*
G01*
X152033005Y-113528276D01*
X152033006Y-113528276D01*
X152213320Y-113602964D01*
X152375598Y-113711395D01*
X152513605Y-113849402D01*
X152622036Y-114011680D01*
X152696724Y-114191994D01*
X152696725Y-114191997D01*
X152734800Y-114383413D01*
X152734800Y-114578585D01*
X152696724Y-114770006D01*
X152622036Y-114950320D01*
X152513605Y-115112598D01*
X152375598Y-115250605D01*
X152213320Y-115359036D01*
X152033006Y-115433724D01*
X152033005Y-115433724D01*
X152033003Y-115433725D01*
X151841587Y-115471800D01*
X151646413Y-115471800D01*
X151454997Y-115433725D01*
X151454995Y-115433724D01*
X151454994Y-115433724D01*
X151274680Y-115359036D01*
X151112402Y-115250605D01*
X150974395Y-115112598D01*
X150865964Y-114950320D01*
X150791276Y-114770006D01*
X150753200Y-114578585D01*
X150753200Y-114383413D01*
X150791275Y-114191997D01*
X150791276Y-114191994D01*
X150865964Y-114011680D01*
X150974395Y-113849402D01*
X151112402Y-113711395D01*
X151274680Y-113602964D01*
X151454994Y-113528276D01*
X151454995Y-113528276D01*
X151454997Y-113528275D01*
X151646413Y-113490200D01*
X151841587Y-113490200D01*
X152033003Y-113528275D01*
X152033003Y-113528275D01*
G37*
G36*
X154573003Y-113528275D02*
G01*
X154573005Y-113528276D01*
X154573006Y-113528276D01*
X154753320Y-113602964D01*
X154915598Y-113711395D01*
X155053605Y-113849402D01*
X155162036Y-114011680D01*
X155236724Y-114191994D01*
X155236725Y-114191997D01*
X155274800Y-114383413D01*
X155274800Y-114578585D01*
X155236724Y-114770006D01*
X155162036Y-114950320D01*
X155053605Y-115112598D01*
X154915598Y-115250605D01*
X154753320Y-115359036D01*
X154573006Y-115433724D01*
X154573005Y-115433724D01*
X154573003Y-115433725D01*
X154381587Y-115471800D01*
X154186413Y-115471800D01*
X153994997Y-115433725D01*
X153994995Y-115433724D01*
X153994994Y-115433724D01*
X153814680Y-115359036D01*
X153652402Y-115250605D01*
X153514395Y-115112598D01*
X153405964Y-114950320D01*
X153331276Y-114770006D01*
X153293200Y-114578585D01*
X153293200Y-114383413D01*
X153331275Y-114191997D01*
X153331276Y-114191994D01*
X153405964Y-114011680D01*
X153514395Y-113849402D01*
X153652402Y-113711395D01*
X153814680Y-113602964D01*
X153994994Y-113528276D01*
X153994995Y-113528276D01*
X153994997Y-113528275D01*
X154186413Y-113490200D01*
X154381587Y-113490200D01*
X154573003Y-113528275D01*
X154573003Y-113528275D01*
G37*
G36*
X157113003Y-113528275D02*
G01*
X157113005Y-113528276D01*
X157113006Y-113528276D01*
X157293320Y-113602964D01*
X157455598Y-113711395D01*
X157593605Y-113849402D01*
X157702036Y-114011680D01*
X157776724Y-114191994D01*
X157776725Y-114191997D01*
X157814800Y-114383413D01*
X157814800Y-114578585D01*
X157776724Y-114770006D01*
X157702036Y-114950320D01*
X157593605Y-115112598D01*
X157455598Y-115250605D01*
X157293320Y-115359036D01*
X157113006Y-115433724D01*
X157113005Y-115433724D01*
X157113003Y-115433725D01*
X156921587Y-115471800D01*
X156726413Y-115471800D01*
X156534997Y-115433725D01*
X156534995Y-115433724D01*
X156534994Y-115433724D01*
X156354680Y-115359036D01*
X156192402Y-115250605D01*
X156054395Y-115112598D01*
X155945964Y-114950320D01*
X155871276Y-114770006D01*
X155833200Y-114578585D01*
X155833200Y-114383413D01*
X155871275Y-114191997D01*
X155871276Y-114191994D01*
X155945964Y-114011680D01*
X156054395Y-113849402D01*
X156192402Y-113711395D01*
X156354680Y-113602964D01*
X156534994Y-113528276D01*
X156534995Y-113528276D01*
X156534997Y-113528275D01*
X156726413Y-113490200D01*
X156921587Y-113490200D01*
X157113003Y-113528275D01*
X157113003Y-113528275D01*
G37*
G36*
X134384899Y-110731832D02*
G01*
X134469520Y-110748664D01*
X134628942Y-110814699D01*
X134772418Y-110910566D01*
X134894434Y-111032582D01*
X134990301Y-111176058D01*
X135056336Y-111335480D01*
X135090000Y-111504721D01*
X135090000Y-111677279D01*
X135056336Y-111846520D01*
X134990301Y-112005942D01*
X134894434Y-112149418D01*
X134772418Y-112271434D01*
X134628942Y-112367301D01*
X134469520Y-112433336D01*
X134384899Y-112450168D01*
X134300280Y-112467000D01*
X134127720Y-112467000D01*
X134043101Y-112450168D01*
X133958480Y-112433336D01*
X133799058Y-112367301D01*
X133655582Y-112271434D01*
X133533566Y-112149418D01*
X133437699Y-112005942D01*
X133371664Y-111846520D01*
X133338000Y-111677279D01*
X133338000Y-111504721D01*
X133371664Y-111335480D01*
X133437699Y-111176058D01*
X133533566Y-111032582D01*
X133655582Y-110910566D01*
X133799058Y-110814699D01*
X133958480Y-110748664D01*
X134043101Y-110731832D01*
X134127720Y-110715000D01*
X134300280Y-110715000D01*
X134384899Y-110731832D01*
X134384899Y-110731832D01*
G37*
G36*
X153434899Y-110731832D02*
G01*
X153519520Y-110748664D01*
X153678942Y-110814699D01*
X153822418Y-110910566D01*
X153944434Y-111032582D01*
X154040301Y-111176058D01*
X154106336Y-111335480D01*
X154140000Y-111504721D01*
X154140000Y-111677279D01*
X154106336Y-111846520D01*
X154040301Y-112005942D01*
X153944434Y-112149418D01*
X153822418Y-112271434D01*
X153678942Y-112367301D01*
X153519520Y-112433336D01*
X153434899Y-112450168D01*
X153350280Y-112467000D01*
X153177720Y-112467000D01*
X153093101Y-112450168D01*
X153008480Y-112433336D01*
X152849058Y-112367301D01*
X152705582Y-112271434D01*
X152583566Y-112149418D01*
X152487699Y-112005942D01*
X152421664Y-111846520D01*
X152388000Y-111677279D01*
X152388000Y-111504721D01*
X152421664Y-111335480D01*
X152487699Y-111176058D01*
X152583566Y-111032582D01*
X152705582Y-110910566D01*
X152849058Y-110814699D01*
X153008480Y-110748664D01*
X153093101Y-110731832D01*
X153177720Y-110715000D01*
X153350280Y-110715000D01*
X153434899Y-110731832D01*
X153434899Y-110731832D01*
G37*
G36*
X124859899Y-110731832D02*
G01*
X124944520Y-110748664D01*
X125103942Y-110814699D01*
X125247418Y-110910566D01*
X125369434Y-111032582D01*
X125465301Y-111176058D01*
X125531336Y-111335480D01*
X125565000Y-111504721D01*
X125565000Y-111677279D01*
X125531336Y-111846520D01*
X125465301Y-112005942D01*
X125369434Y-112149418D01*
X125247418Y-112271434D01*
X125103942Y-112367301D01*
X124944520Y-112433336D01*
X124859899Y-112450168D01*
X124775280Y-112467000D01*
X124602720Y-112467000D01*
X124518101Y-112450168D01*
X124433480Y-112433336D01*
X124274058Y-112367301D01*
X124130582Y-112271434D01*
X124008566Y-112149418D01*
X123912699Y-112005942D01*
X123846664Y-111846520D01*
X123813000Y-111677279D01*
X123813000Y-111504721D01*
X123846664Y-111335480D01*
X123912699Y-111176058D01*
X124008566Y-111032582D01*
X124130582Y-110910566D01*
X124274058Y-110814699D01*
X124433480Y-110748664D01*
X124518101Y-110731832D01*
X124602720Y-110715000D01*
X124775280Y-110715000D01*
X124859899Y-110731832D01*
X124859899Y-110731832D01*
G37*
G36*
X115334899Y-110731832D02*
G01*
X115419520Y-110748664D01*
X115578942Y-110814699D01*
X115722418Y-110910566D01*
X115844434Y-111032582D01*
X115940301Y-111176058D01*
X116006336Y-111335480D01*
X116040000Y-111504721D01*
X116040000Y-111677279D01*
X116006336Y-111846520D01*
X115940301Y-112005942D01*
X115844434Y-112149418D01*
X115722418Y-112271434D01*
X115578942Y-112367301D01*
X115419520Y-112433336D01*
X115334899Y-112450168D01*
X115250280Y-112467000D01*
X115077720Y-112467000D01*
X114993101Y-112450168D01*
X114908480Y-112433336D01*
X114749058Y-112367301D01*
X114605582Y-112271434D01*
X114483566Y-112149418D01*
X114387699Y-112005942D01*
X114321664Y-111846520D01*
X114288000Y-111677279D01*
X114288000Y-111504721D01*
X114321664Y-111335480D01*
X114387699Y-111176058D01*
X114483566Y-111032582D01*
X114605582Y-110910566D01*
X114749058Y-110814699D01*
X114908480Y-110748664D01*
X114993101Y-110731832D01*
X115077720Y-110715000D01*
X115250280Y-110715000D01*
X115334899Y-110731832D01*
X115334899Y-110731832D01*
G37*
G36*
X143909899Y-110731832D02*
G01*
X143994520Y-110748664D01*
X144153942Y-110814699D01*
X144297418Y-110910566D01*
X144419434Y-111032582D01*
X144515301Y-111176058D01*
X144581336Y-111335480D01*
X144615000Y-111504721D01*
X144615000Y-111677279D01*
X144581336Y-111846520D01*
X144515301Y-112005942D01*
X144419434Y-112149418D01*
X144297418Y-112271434D01*
X144153942Y-112367301D01*
X143994520Y-112433336D01*
X143909899Y-112450168D01*
X143825280Y-112467000D01*
X143652720Y-112467000D01*
X143568101Y-112450168D01*
X143483480Y-112433336D01*
X143324058Y-112367301D01*
X143180582Y-112271434D01*
X143058566Y-112149418D01*
X142962699Y-112005942D01*
X142896664Y-111846520D01*
X142863000Y-111677279D01*
X142863000Y-111504721D01*
X142896664Y-111335480D01*
X142962699Y-111176058D01*
X143058566Y-111032582D01*
X143180582Y-110910566D01*
X143324058Y-110814699D01*
X143483480Y-110748664D01*
X143568101Y-110731832D01*
X143652720Y-110715000D01*
X143825280Y-110715000D01*
X143909899Y-110731832D01*
X143909899Y-110731832D01*
G37*
G36*
X162959899Y-110731832D02*
G01*
X163044520Y-110748664D01*
X163203942Y-110814699D01*
X163347418Y-110910566D01*
X163469434Y-111032582D01*
X163565301Y-111176058D01*
X163631336Y-111335480D01*
X163665000Y-111504721D01*
X163665000Y-111677279D01*
X163631336Y-111846520D01*
X163565301Y-112005942D01*
X163469434Y-112149418D01*
X163347418Y-112271434D01*
X163203942Y-112367301D01*
X163044520Y-112433336D01*
X162959899Y-112450168D01*
X162875280Y-112467000D01*
X162702720Y-112467000D01*
X162618101Y-112450168D01*
X162533480Y-112433336D01*
X162374058Y-112367301D01*
X162230582Y-112271434D01*
X162108566Y-112149418D01*
X162012699Y-112005942D01*
X161946664Y-111846520D01*
X161913000Y-111677279D01*
X161913000Y-111504721D01*
X161946664Y-111335480D01*
X162012699Y-111176058D01*
X162108566Y-111032582D01*
X162230582Y-110910566D01*
X162374058Y-110814699D01*
X162533480Y-110748664D01*
X162618101Y-110731832D01*
X162702720Y-110715000D01*
X162875280Y-110715000D01*
X162959899Y-110731832D01*
X162959899Y-110731832D01*
G37*
G36*
X172484899Y-110731832D02*
G01*
X172569520Y-110748664D01*
X172728942Y-110814699D01*
X172872418Y-110910566D01*
X172994434Y-111032582D01*
X173090301Y-111176058D01*
X173156336Y-111335480D01*
X173190000Y-111504721D01*
X173190000Y-111677279D01*
X173156336Y-111846520D01*
X173090301Y-112005942D01*
X172994434Y-112149418D01*
X172872418Y-112271434D01*
X172728942Y-112367301D01*
X172569520Y-112433336D01*
X172484899Y-112450168D01*
X172400280Y-112467000D01*
X172227720Y-112467000D01*
X172143101Y-112450168D01*
X172058480Y-112433336D01*
X171899058Y-112367301D01*
X171755582Y-112271434D01*
X171633566Y-112149418D01*
X171537699Y-112005942D01*
X171471664Y-111846520D01*
X171438000Y-111677279D01*
X171438000Y-111504721D01*
X171471664Y-111335480D01*
X171537699Y-111176058D01*
X171633566Y-111032582D01*
X171755582Y-110910566D01*
X171899058Y-110814699D01*
X172058480Y-110748664D01*
X172143101Y-110731832D01*
X172227720Y-110715000D01*
X172400280Y-110715000D01*
X172484899Y-110731832D01*
X172484899Y-110731832D01*
G37*
G36*
X182009899Y-110731832D02*
G01*
X182094520Y-110748664D01*
X182253942Y-110814699D01*
X182397418Y-110910566D01*
X182519434Y-111032582D01*
X182615301Y-111176058D01*
X182681336Y-111335480D01*
X182715000Y-111504721D01*
X182715000Y-111677279D01*
X182681336Y-111846520D01*
X182615301Y-112005942D01*
X182519434Y-112149418D01*
X182397418Y-112271434D01*
X182253942Y-112367301D01*
X182094520Y-112433336D01*
X182009899Y-112450168D01*
X181925280Y-112467000D01*
X181752720Y-112467000D01*
X181668101Y-112450168D01*
X181583480Y-112433336D01*
X181424058Y-112367301D01*
X181280582Y-112271434D01*
X181158566Y-112149418D01*
X181062699Y-112005942D01*
X180996664Y-111846520D01*
X180963000Y-111677279D01*
X180963000Y-111504721D01*
X180996664Y-111335480D01*
X181062699Y-111176058D01*
X181158566Y-111032582D01*
X181280582Y-110910566D01*
X181424058Y-110814699D01*
X181583480Y-110748664D01*
X181668101Y-110731832D01*
X181752720Y-110715000D01*
X181925280Y-110715000D01*
X182009899Y-110731832D01*
X182009899Y-110731832D01*
G37*
G36*
X182094520Y-102248664D02*
G01*
X182253942Y-102314699D01*
X182397418Y-102410566D01*
X182519434Y-102532582D01*
X182615301Y-102676058D01*
X182681336Y-102835480D01*
X182715000Y-103004721D01*
X182715000Y-103177279D01*
X182681336Y-103346520D01*
X182615301Y-103505942D01*
X182519434Y-103649418D01*
X182397418Y-103771434D01*
X182253942Y-103867301D01*
X182094520Y-103933336D01*
X181925280Y-103967000D01*
X181752720Y-103967000D01*
X181583480Y-103933336D01*
X181424058Y-103867301D01*
X181280582Y-103771434D01*
X181158566Y-103649418D01*
X181062699Y-103505942D01*
X180996664Y-103346520D01*
X180963000Y-103177279D01*
X180963000Y-103004721D01*
X180996664Y-102835480D01*
X181062699Y-102676058D01*
X181158566Y-102532582D01*
X181280582Y-102410566D01*
X181424058Y-102314699D01*
X181583480Y-102248664D01*
X181752720Y-102215000D01*
X181925280Y-102215000D01*
X182094520Y-102248664D01*
X182094520Y-102248664D01*
G37*
G36*
X134469520Y-102248664D02*
G01*
X134628942Y-102314699D01*
X134772418Y-102410566D01*
X134894434Y-102532582D01*
X134990301Y-102676058D01*
X135056336Y-102835480D01*
X135090000Y-103004721D01*
X135090000Y-103177279D01*
X135056336Y-103346520D01*
X134990301Y-103505942D01*
X134894434Y-103649418D01*
X134772418Y-103771434D01*
X134628942Y-103867301D01*
X134469520Y-103933336D01*
X134300280Y-103967000D01*
X134127720Y-103967000D01*
X133958480Y-103933336D01*
X133799058Y-103867301D01*
X133655582Y-103771434D01*
X133533566Y-103649418D01*
X133437699Y-103505942D01*
X133371664Y-103346520D01*
X133338000Y-103177279D01*
X133338000Y-103004721D01*
X133371664Y-102835480D01*
X133437699Y-102676058D01*
X133533566Y-102532582D01*
X133655582Y-102410566D01*
X133799058Y-102314699D01*
X133958480Y-102248664D01*
X134127720Y-102215000D01*
X134300280Y-102215000D01*
X134469520Y-102248664D01*
X134469520Y-102248664D01*
G37*
G36*
X143994520Y-102248664D02*
G01*
X144153942Y-102314699D01*
X144297418Y-102410566D01*
X144419434Y-102532582D01*
X144515301Y-102676058D01*
X144581336Y-102835480D01*
X144615000Y-103004721D01*
X144615000Y-103177279D01*
X144581336Y-103346520D01*
X144515301Y-103505942D01*
X144419434Y-103649418D01*
X144297418Y-103771434D01*
X144153942Y-103867301D01*
X143994520Y-103933336D01*
X143825280Y-103967000D01*
X143652720Y-103967000D01*
X143483480Y-103933336D01*
X143324058Y-103867301D01*
X143180582Y-103771434D01*
X143058566Y-103649418D01*
X142962699Y-103505942D01*
X142896664Y-103346520D01*
X142863000Y-103177279D01*
X142863000Y-103004721D01*
X142896664Y-102835480D01*
X142962699Y-102676058D01*
X143058566Y-102532582D01*
X143180582Y-102410566D01*
X143324058Y-102314699D01*
X143483480Y-102248664D01*
X143652720Y-102215000D01*
X143825280Y-102215000D01*
X143994520Y-102248664D01*
X143994520Y-102248664D01*
G37*
G36*
X172569520Y-102248664D02*
G01*
X172728942Y-102314699D01*
X172872418Y-102410566D01*
X172994434Y-102532582D01*
X173090301Y-102676058D01*
X173156336Y-102835480D01*
X173190000Y-103004721D01*
X173190000Y-103177279D01*
X173156336Y-103346520D01*
X173090301Y-103505942D01*
X172994434Y-103649418D01*
X172872418Y-103771434D01*
X172728942Y-103867301D01*
X172569520Y-103933336D01*
X172400280Y-103967000D01*
X172227720Y-103967000D01*
X172058480Y-103933336D01*
X171899058Y-103867301D01*
X171755582Y-103771434D01*
X171633566Y-103649418D01*
X171537699Y-103505942D01*
X171471664Y-103346520D01*
X171438000Y-103177279D01*
X171438000Y-103004721D01*
X171471664Y-102835480D01*
X171537699Y-102676058D01*
X171633566Y-102532582D01*
X171755582Y-102410566D01*
X171899058Y-102314699D01*
X172058480Y-102248664D01*
X172227720Y-102215000D01*
X172400280Y-102215000D01*
X172569520Y-102248664D01*
X172569520Y-102248664D01*
G37*
G36*
X153519520Y-102248664D02*
G01*
X153678942Y-102314699D01*
X153822418Y-102410566D01*
X153944434Y-102532582D01*
X154040301Y-102676058D01*
X154106336Y-102835480D01*
X154140000Y-103004721D01*
X154140000Y-103177279D01*
X154106336Y-103346520D01*
X154040301Y-103505942D01*
X153944434Y-103649418D01*
X153822418Y-103771434D01*
X153678942Y-103867301D01*
X153519520Y-103933336D01*
X153350280Y-103967000D01*
X153177720Y-103967000D01*
X153008480Y-103933336D01*
X152849058Y-103867301D01*
X152705582Y-103771434D01*
X152583566Y-103649418D01*
X152487699Y-103505942D01*
X152421664Y-103346520D01*
X152388000Y-103177279D01*
X152388000Y-103004721D01*
X152421664Y-102835480D01*
X152487699Y-102676058D01*
X152583566Y-102532582D01*
X152705582Y-102410566D01*
X152849058Y-102314699D01*
X153008480Y-102248664D01*
X153177720Y-102215000D01*
X153350280Y-102215000D01*
X153519520Y-102248664D01*
X153519520Y-102248664D01*
G37*
G36*
X163044520Y-102248664D02*
G01*
X163203942Y-102314699D01*
X163347418Y-102410566D01*
X163469434Y-102532582D01*
X163565301Y-102676058D01*
X163631336Y-102835480D01*
X163665000Y-103004721D01*
X163665000Y-103177279D01*
X163631336Y-103346520D01*
X163565301Y-103505942D01*
X163469434Y-103649418D01*
X163347418Y-103771434D01*
X163203942Y-103867301D01*
X163044520Y-103933336D01*
X162875280Y-103967000D01*
X162702720Y-103967000D01*
X162533480Y-103933336D01*
X162374058Y-103867301D01*
X162230582Y-103771434D01*
X162108566Y-103649418D01*
X162012699Y-103505942D01*
X161946664Y-103346520D01*
X161913000Y-103177279D01*
X161913000Y-103004721D01*
X161946664Y-102835480D01*
X162012699Y-102676058D01*
X162108566Y-102532582D01*
X162230582Y-102410566D01*
X162374058Y-102314699D01*
X162533480Y-102248664D01*
X162702720Y-102215000D01*
X162875280Y-102215000D01*
X163044520Y-102248664D01*
X163044520Y-102248664D01*
G37*
G36*
X124944520Y-102248664D02*
G01*
X125103942Y-102314699D01*
X125247418Y-102410566D01*
X125369434Y-102532582D01*
X125465301Y-102676058D01*
X125531336Y-102835480D01*
X125565000Y-103004721D01*
X125565000Y-103177279D01*
X125531336Y-103346520D01*
X125465301Y-103505942D01*
X125369434Y-103649418D01*
X125247418Y-103771434D01*
X125103942Y-103867301D01*
X124944520Y-103933336D01*
X124775280Y-103967000D01*
X124602720Y-103967000D01*
X124433480Y-103933336D01*
X124274058Y-103867301D01*
X124130582Y-103771434D01*
X124008566Y-103649418D01*
X123912699Y-103505942D01*
X123846664Y-103346520D01*
X123813000Y-103177279D01*
X123813000Y-103004721D01*
X123846664Y-102835480D01*
X123912699Y-102676058D01*
X124008566Y-102532582D01*
X124130582Y-102410566D01*
X124274058Y-102314699D01*
X124433480Y-102248664D01*
X124602720Y-102215000D01*
X124775280Y-102215000D01*
X124944520Y-102248664D01*
X124944520Y-102248664D01*
G37*
G36*
X115419520Y-102248664D02*
G01*
X115578942Y-102314699D01*
X115722418Y-102410566D01*
X115844434Y-102532582D01*
X115940301Y-102676058D01*
X116006336Y-102835480D01*
X116040000Y-103004721D01*
X116040000Y-103177279D01*
X116006336Y-103346520D01*
X115940301Y-103505942D01*
X115844434Y-103649418D01*
X115722418Y-103771434D01*
X115578942Y-103867301D01*
X115419520Y-103933336D01*
X115250280Y-103967000D01*
X115077720Y-103967000D01*
X114908480Y-103933336D01*
X114749058Y-103867301D01*
X114605582Y-103771434D01*
X114483566Y-103649418D01*
X114387699Y-103505942D01*
X114321664Y-103346520D01*
X114288000Y-103177279D01*
X114288000Y-103004721D01*
X114321664Y-102835480D01*
X114387699Y-102676058D01*
X114483566Y-102532582D01*
X114605582Y-102410566D01*
X114749058Y-102314699D01*
X114908480Y-102248664D01*
X115077720Y-102215000D01*
X115250280Y-102215000D01*
X115419520Y-102248664D01*
X115419520Y-102248664D01*
G37*
G36*
X115334899Y-99231832D02*
G01*
X115419520Y-99248664D01*
X115578942Y-99314699D01*
X115722418Y-99410566D01*
X115844434Y-99532582D01*
X115940301Y-99676058D01*
X116006336Y-99835480D01*
X116040000Y-100004721D01*
X116040000Y-100177279D01*
X116006336Y-100346520D01*
X115940301Y-100505942D01*
X115844434Y-100649418D01*
X115722418Y-100771434D01*
X115578942Y-100867301D01*
X115419520Y-100933336D01*
X115250280Y-100967000D01*
X115077720Y-100967000D01*
X114908480Y-100933336D01*
X114749058Y-100867301D01*
X114605582Y-100771434D01*
X114483566Y-100649418D01*
X114387699Y-100505942D01*
X114321664Y-100346520D01*
X114288000Y-100177279D01*
X114288000Y-100004721D01*
X114321664Y-99835480D01*
X114387699Y-99676058D01*
X114483566Y-99532582D01*
X114605582Y-99410566D01*
X114749058Y-99314699D01*
X114908480Y-99248664D01*
X115077720Y-99215000D01*
X115250280Y-99215000D01*
X115334899Y-99231832D01*
X115334899Y-99231832D01*
G37*
G36*
X124859899Y-99231832D02*
G01*
X124944520Y-99248664D01*
X125103942Y-99314699D01*
X125247418Y-99410566D01*
X125369434Y-99532582D01*
X125465301Y-99676058D01*
X125531336Y-99835480D01*
X125565000Y-100004721D01*
X125565000Y-100177279D01*
X125531336Y-100346520D01*
X125465301Y-100505942D01*
X125369434Y-100649418D01*
X125247418Y-100771434D01*
X125103942Y-100867301D01*
X124944520Y-100933336D01*
X124775280Y-100967000D01*
X124602720Y-100967000D01*
X124433480Y-100933336D01*
X124274058Y-100867301D01*
X124130582Y-100771434D01*
X124008566Y-100649418D01*
X123912699Y-100505942D01*
X123846664Y-100346520D01*
X123813000Y-100177279D01*
X123813000Y-100004721D01*
X123846664Y-99835480D01*
X123912699Y-99676058D01*
X124008566Y-99532582D01*
X124130582Y-99410566D01*
X124274058Y-99314699D01*
X124433480Y-99248664D01*
X124602720Y-99215000D01*
X124775280Y-99215000D01*
X124859899Y-99231832D01*
X124859899Y-99231832D01*
G37*
G36*
X134384899Y-99231832D02*
G01*
X134469520Y-99248664D01*
X134628942Y-99314699D01*
X134772418Y-99410566D01*
X134894434Y-99532582D01*
X134990301Y-99676058D01*
X135056336Y-99835480D01*
X135090000Y-100004721D01*
X135090000Y-100177279D01*
X135056336Y-100346520D01*
X134990301Y-100505942D01*
X134894434Y-100649418D01*
X134772418Y-100771434D01*
X134628942Y-100867301D01*
X134469520Y-100933336D01*
X134300280Y-100967000D01*
X134127720Y-100967000D01*
X133958480Y-100933336D01*
X133799058Y-100867301D01*
X133655582Y-100771434D01*
X133533566Y-100649418D01*
X133437699Y-100505942D01*
X133371664Y-100346520D01*
X133338000Y-100177279D01*
X133338000Y-100004721D01*
X133371664Y-99835480D01*
X133437699Y-99676058D01*
X133533566Y-99532582D01*
X133655582Y-99410566D01*
X133799058Y-99314699D01*
X133958480Y-99248664D01*
X134127720Y-99215000D01*
X134300280Y-99215000D01*
X134384899Y-99231832D01*
X134384899Y-99231832D01*
G37*
G36*
X143909899Y-99231832D02*
G01*
X143994520Y-99248664D01*
X144153942Y-99314699D01*
X144297418Y-99410566D01*
X144419434Y-99532582D01*
X144515301Y-99676058D01*
X144581336Y-99835480D01*
X144615000Y-100004721D01*
X144615000Y-100177279D01*
X144581336Y-100346520D01*
X144515301Y-100505942D01*
X144419434Y-100649418D01*
X144297418Y-100771434D01*
X144153942Y-100867301D01*
X143994520Y-100933336D01*
X143825280Y-100967000D01*
X143652720Y-100967000D01*
X143483480Y-100933336D01*
X143324058Y-100867301D01*
X143180582Y-100771434D01*
X143058566Y-100649418D01*
X142962699Y-100505942D01*
X142896664Y-100346520D01*
X142863000Y-100177279D01*
X142863000Y-100004721D01*
X142896664Y-99835480D01*
X142962699Y-99676058D01*
X143058566Y-99532582D01*
X143180582Y-99410566D01*
X143324058Y-99314699D01*
X143483480Y-99248664D01*
X143652720Y-99215000D01*
X143825280Y-99215000D01*
X143909899Y-99231832D01*
X143909899Y-99231832D01*
G37*
G36*
X153434899Y-99231832D02*
G01*
X153519520Y-99248664D01*
X153678942Y-99314699D01*
X153822418Y-99410566D01*
X153944434Y-99532582D01*
X154040301Y-99676058D01*
X154106336Y-99835480D01*
X154140000Y-100004721D01*
X154140000Y-100177279D01*
X154106336Y-100346520D01*
X154040301Y-100505942D01*
X153944434Y-100649418D01*
X153822418Y-100771434D01*
X153678942Y-100867301D01*
X153519520Y-100933336D01*
X153350280Y-100967000D01*
X153177720Y-100967000D01*
X153008480Y-100933336D01*
X152849058Y-100867301D01*
X152705582Y-100771434D01*
X152583566Y-100649418D01*
X152487699Y-100505942D01*
X152421664Y-100346520D01*
X152388000Y-100177279D01*
X152388000Y-100004721D01*
X152421664Y-99835480D01*
X152487699Y-99676058D01*
X152583566Y-99532582D01*
X152705582Y-99410566D01*
X152849058Y-99314699D01*
X153008480Y-99248664D01*
X153177720Y-99215000D01*
X153350280Y-99215000D01*
X153434899Y-99231832D01*
X153434899Y-99231832D01*
G37*
G36*
X162959899Y-99231832D02*
G01*
X163044520Y-99248664D01*
X163203942Y-99314699D01*
X163347418Y-99410566D01*
X163469434Y-99532582D01*
X163565301Y-99676058D01*
X163631336Y-99835480D01*
X163665000Y-100004721D01*
X163665000Y-100177279D01*
X163631336Y-100346520D01*
X163565301Y-100505942D01*
X163469434Y-100649418D01*
X163347418Y-100771434D01*
X163203942Y-100867301D01*
X163044520Y-100933336D01*
X162875280Y-100967000D01*
X162702720Y-100967000D01*
X162533480Y-100933336D01*
X162374058Y-100867301D01*
X162230582Y-100771434D01*
X162108566Y-100649418D01*
X162012699Y-100505942D01*
X161946664Y-100346520D01*
X161913000Y-100177279D01*
X161913000Y-100004721D01*
X161946664Y-99835480D01*
X162012699Y-99676058D01*
X162108566Y-99532582D01*
X162230582Y-99410566D01*
X162374058Y-99314699D01*
X162533480Y-99248664D01*
X162702720Y-99215000D01*
X162875280Y-99215000D01*
X162959899Y-99231832D01*
X162959899Y-99231832D01*
G37*
G36*
X172484899Y-99231832D02*
G01*
X172569520Y-99248664D01*
X172728942Y-99314699D01*
X172872418Y-99410566D01*
X172994434Y-99532582D01*
X173090301Y-99676058D01*
X173156336Y-99835480D01*
X173190000Y-100004721D01*
X173190000Y-100177279D01*
X173156336Y-100346520D01*
X173090301Y-100505942D01*
X172994434Y-100649418D01*
X172872418Y-100771434D01*
X172728942Y-100867301D01*
X172569520Y-100933336D01*
X172400280Y-100967000D01*
X172227720Y-100967000D01*
X172058480Y-100933336D01*
X171899058Y-100867301D01*
X171755582Y-100771434D01*
X171633566Y-100649418D01*
X171537699Y-100505942D01*
X171471664Y-100346520D01*
X171438000Y-100177279D01*
X171438000Y-100004721D01*
X171471664Y-99835480D01*
X171537699Y-99676058D01*
X171633566Y-99532582D01*
X171755582Y-99410566D01*
X171899058Y-99314699D01*
X172058480Y-99248664D01*
X172227720Y-99215000D01*
X172400280Y-99215000D01*
X172484899Y-99231832D01*
X172484899Y-99231832D01*
G37*
G36*
X182009899Y-99231832D02*
G01*
X182094520Y-99248664D01*
X182253942Y-99314699D01*
X182397418Y-99410566D01*
X182519434Y-99532582D01*
X182615301Y-99676058D01*
X182681336Y-99835480D01*
X182715000Y-100004721D01*
X182715000Y-100177279D01*
X182681336Y-100346520D01*
X182615301Y-100505942D01*
X182519434Y-100649418D01*
X182397418Y-100771434D01*
X182253942Y-100867301D01*
X182094520Y-100933336D01*
X181925280Y-100967000D01*
X181752720Y-100967000D01*
X181583480Y-100933336D01*
X181424058Y-100867301D01*
X181280582Y-100771434D01*
X181158566Y-100649418D01*
X181062699Y-100505942D01*
X180996664Y-100346520D01*
X180963000Y-100177279D01*
X180963000Y-100004721D01*
X180996664Y-99835480D01*
X181062699Y-99676058D01*
X181158566Y-99532582D01*
X181280582Y-99410566D01*
X181424058Y-99314699D01*
X181583480Y-99248664D01*
X181752720Y-99215000D01*
X181925280Y-99215000D01*
X182009899Y-99231832D01*
X182009899Y-99231832D01*
G37*
G36*
X139691985Y-96884960D02*
G01*
X139804748Y-96907390D01*
X139856501Y-96928827D01*
X140123408Y-97039383D01*
X140410196Y-97231009D01*
X140654091Y-97474904D01*
X140845717Y-97761692D01*
X140901527Y-97896431D01*
X140977710Y-98080352D01*
X141045000Y-98418642D01*
X141045000Y-98763558D01*
X140977710Y-99101848D01*
X140930841Y-99215000D01*
X140845717Y-99420508D01*
X140654091Y-99707296D01*
X140410196Y-99951191D01*
X140123408Y-100142817D01*
X139936741Y-100220137D01*
X139804748Y-100274810D01*
X139691985Y-100297240D01*
X139466460Y-100342100D01*
X139121540Y-100342100D01*
X138896015Y-100297240D01*
X138783252Y-100274810D01*
X138651259Y-100220137D01*
X138464592Y-100142817D01*
X138177804Y-99951191D01*
X137933909Y-99707296D01*
X137742283Y-99420508D01*
X137657159Y-99215000D01*
X137610290Y-99101848D01*
X137543000Y-98763558D01*
X137543000Y-98418642D01*
X137610290Y-98080352D01*
X137686473Y-97896431D01*
X137742283Y-97761692D01*
X137933909Y-97474904D01*
X138177804Y-97231009D01*
X138464592Y-97039383D01*
X138731499Y-96928827D01*
X138783252Y-96907390D01*
X138896015Y-96884960D01*
X139121540Y-96840100D01*
X139466460Y-96840100D01*
X139691985Y-96884960D01*
X139691985Y-96884960D01*
G37*
G36*
X155449331Y-95639311D02*
G01*
X155777092Y-95775074D01*
X156072070Y-95972172D01*
X156322928Y-96223030D01*
X156520026Y-96518008D01*
X156655789Y-96845769D01*
X156725000Y-97193716D01*
X156725000Y-97548484D01*
X156655789Y-97896431D01*
X156520026Y-98224192D01*
X156322928Y-98519170D01*
X156072070Y-98770028D01*
X155777092Y-98967126D01*
X155449331Y-99102889D01*
X155101384Y-99172100D01*
X154746616Y-99172100D01*
X154398669Y-99102889D01*
X154070908Y-98967126D01*
X153775930Y-98770028D01*
X153525072Y-98519170D01*
X153327974Y-98224192D01*
X153192211Y-97896431D01*
X153123000Y-97548484D01*
X153123000Y-97193716D01*
X153192211Y-96845769D01*
X153327974Y-96518008D01*
X153525072Y-96223030D01*
X153775930Y-95972172D01*
X154070908Y-95775074D01*
X154398669Y-95639311D01*
X154746616Y-95570100D01*
X155101384Y-95570100D01*
X155449331Y-95639311D01*
X155449331Y-95639311D01*
G37*
G36*
X117920560Y-95707064D02*
G01*
X118072027Y-95737193D01*
X118286045Y-95825842D01*
X118286046Y-95825843D01*
X118478654Y-95954539D01*
X118642461Y-96118346D01*
X118677951Y-96171461D01*
X118771158Y-96310955D01*
X118859807Y-96524973D01*
X118905000Y-96752174D01*
X118905000Y-96983826D01*
X118859807Y-97211027D01*
X118771158Y-97425045D01*
X118771157Y-97425046D01*
X118642461Y-97617654D01*
X118478654Y-97781461D01*
X118368360Y-97855157D01*
X118286045Y-97910158D01*
X118072027Y-97998807D01*
X117920560Y-98028936D01*
X117844827Y-98044000D01*
X117613173Y-98044000D01*
X117537440Y-98028936D01*
X117385973Y-97998807D01*
X117171955Y-97910158D01*
X117089640Y-97855157D01*
X116979346Y-97781461D01*
X116815539Y-97617654D01*
X116686843Y-97425046D01*
X116686842Y-97425045D01*
X116598193Y-97211027D01*
X116553000Y-96983826D01*
X116553000Y-96752174D01*
X116598193Y-96524973D01*
X116686842Y-96310955D01*
X116780049Y-96171461D01*
X116815539Y-96118346D01*
X116979346Y-95954539D01*
X117171954Y-95825843D01*
X117171955Y-95825842D01*
X117385973Y-95737193D01*
X117537440Y-95707064D01*
X117613173Y-95692000D01*
X117844827Y-95692000D01*
X117920560Y-95707064D01*
X117920560Y-95707064D01*
G37*
G36*
X178880560Y-95652064D02*
G01*
X179032027Y-95682193D01*
X179246045Y-95770842D01*
X179252380Y-95775075D01*
X179438654Y-95899539D01*
X179602461Y-96063346D01*
X179674699Y-96171459D01*
X179731158Y-96255955D01*
X179819807Y-96469973D01*
X179865000Y-96697174D01*
X179865000Y-96928826D01*
X179819807Y-97156027D01*
X179731158Y-97370045D01*
X179731157Y-97370046D01*
X179602461Y-97562654D01*
X179438654Y-97726461D01*
X179356343Y-97781459D01*
X179246045Y-97855158D01*
X179032027Y-97943807D01*
X178880560Y-97973936D01*
X178804827Y-97989000D01*
X178573173Y-97989000D01*
X178497440Y-97973936D01*
X178345973Y-97943807D01*
X178131955Y-97855158D01*
X178021657Y-97781459D01*
X177939346Y-97726461D01*
X177775539Y-97562654D01*
X177646843Y-97370046D01*
X177646842Y-97370045D01*
X177558193Y-97156027D01*
X177513000Y-96928826D01*
X177513000Y-96697174D01*
X177558193Y-96469973D01*
X177646842Y-96255955D01*
X177703301Y-96171459D01*
X177775539Y-96063346D01*
X177939346Y-95899539D01*
X178125620Y-95775075D01*
X178131955Y-95770842D01*
X178345973Y-95682193D01*
X178497440Y-95652064D01*
X178573173Y-95637000D01*
X178804827Y-95637000D01*
X178880560Y-95652064D01*
X178880560Y-95652064D01*
G37*
G36*
X121810560Y-94097064D02*
G01*
X121962027Y-94127193D01*
X122176045Y-94215842D01*
X122240249Y-94258742D01*
X122368654Y-94344539D01*
X122532461Y-94508346D01*
X122605366Y-94617457D01*
X122661158Y-94700955D01*
X122749807Y-94914973D01*
X122795000Y-95142174D01*
X122795000Y-95373826D01*
X122749807Y-95601027D01*
X122661158Y-95815045D01*
X122653943Y-95825843D01*
X122532461Y-96007654D01*
X122368654Y-96171461D01*
X122291475Y-96223030D01*
X122176045Y-96300158D01*
X121962027Y-96388807D01*
X121810560Y-96418936D01*
X121734827Y-96434000D01*
X121503173Y-96434000D01*
X121427440Y-96418936D01*
X121275973Y-96388807D01*
X121061955Y-96300158D01*
X120946525Y-96223030D01*
X120869346Y-96171461D01*
X120705539Y-96007654D01*
X120584057Y-95825843D01*
X120576842Y-95815045D01*
X120488193Y-95601027D01*
X120443000Y-95373826D01*
X120443000Y-95142174D01*
X120488193Y-94914973D01*
X120576842Y-94700955D01*
X120632634Y-94617457D01*
X120705539Y-94508346D01*
X120869346Y-94344539D01*
X120997751Y-94258742D01*
X121061955Y-94215842D01*
X121275973Y-94127193D01*
X121427440Y-94097064D01*
X121503173Y-94082000D01*
X121734827Y-94082000D01*
X121810560Y-94097064D01*
X121810560Y-94097064D01*
G37*
G36*
X114030560Y-94097064D02*
G01*
X114182027Y-94127193D01*
X114396045Y-94215842D01*
X114460249Y-94258742D01*
X114588654Y-94344539D01*
X114752461Y-94508346D01*
X114825366Y-94617457D01*
X114881158Y-94700955D01*
X114969807Y-94914973D01*
X115015000Y-95142174D01*
X115015000Y-95373826D01*
X114969807Y-95601027D01*
X114881158Y-95815045D01*
X114873943Y-95825843D01*
X114752461Y-96007654D01*
X114588654Y-96171461D01*
X114511475Y-96223030D01*
X114396045Y-96300158D01*
X114182027Y-96388807D01*
X114030560Y-96418936D01*
X113954827Y-96434000D01*
X113723173Y-96434000D01*
X113647440Y-96418936D01*
X113495973Y-96388807D01*
X113281955Y-96300158D01*
X113166525Y-96223030D01*
X113089346Y-96171461D01*
X112925539Y-96007654D01*
X112804057Y-95825843D01*
X112796842Y-95815045D01*
X112708193Y-95601027D01*
X112663000Y-95373826D01*
X112663000Y-95142174D01*
X112708193Y-94914973D01*
X112796842Y-94700955D01*
X112852634Y-94617457D01*
X112925539Y-94508346D01*
X113089346Y-94344539D01*
X113217751Y-94258742D01*
X113281955Y-94215842D01*
X113495973Y-94127193D01*
X113647440Y-94097064D01*
X113723173Y-94082000D01*
X113954827Y-94082000D01*
X114030560Y-94097064D01*
X114030560Y-94097064D01*
G37*
G36*
X182770560Y-94042064D02*
G01*
X182922027Y-94072193D01*
X183136045Y-94160842D01*
X183136046Y-94160843D01*
X183328654Y-94289539D01*
X183492461Y-94453346D01*
X183578258Y-94581751D01*
X183621158Y-94645955D01*
X183709807Y-94859973D01*
X183723735Y-94929993D01*
X183755000Y-95087173D01*
X183755000Y-95318827D01*
X183746470Y-95361708D01*
X183709807Y-95546027D01*
X183621158Y-95760045D01*
X183613943Y-95770843D01*
X183492461Y-95952654D01*
X183328654Y-96116461D01*
X183246343Y-96171459D01*
X183136045Y-96245158D01*
X182922027Y-96333807D01*
X182770560Y-96363936D01*
X182694827Y-96379000D01*
X182463173Y-96379000D01*
X182387440Y-96363936D01*
X182235973Y-96333807D01*
X182021955Y-96245158D01*
X181911657Y-96171459D01*
X181829346Y-96116461D01*
X181665539Y-95952654D01*
X181544057Y-95770843D01*
X181536842Y-95760045D01*
X181448193Y-95546027D01*
X181411530Y-95361708D01*
X181403000Y-95318827D01*
X181403000Y-95087173D01*
X181434265Y-94929993D01*
X181448193Y-94859973D01*
X181536842Y-94645955D01*
X181579742Y-94581751D01*
X181665539Y-94453346D01*
X181829346Y-94289539D01*
X182021954Y-94160843D01*
X182021955Y-94160842D01*
X182235973Y-94072193D01*
X182387440Y-94042064D01*
X182463173Y-94027000D01*
X182694827Y-94027000D01*
X182770560Y-94042064D01*
X182770560Y-94042064D01*
G37*
G36*
X174990560Y-94042064D02*
G01*
X175142027Y-94072193D01*
X175356045Y-94160842D01*
X175356046Y-94160843D01*
X175548654Y-94289539D01*
X175712461Y-94453346D01*
X175798258Y-94581751D01*
X175841158Y-94645955D01*
X175929807Y-94859973D01*
X175943735Y-94929993D01*
X175975000Y-95087173D01*
X175975000Y-95318827D01*
X175966470Y-95361708D01*
X175929807Y-95546027D01*
X175841158Y-95760045D01*
X175833943Y-95770843D01*
X175712461Y-95952654D01*
X175548654Y-96116461D01*
X175466343Y-96171459D01*
X175356045Y-96245158D01*
X175142027Y-96333807D01*
X174990560Y-96363936D01*
X174914827Y-96379000D01*
X174683173Y-96379000D01*
X174607440Y-96363936D01*
X174455973Y-96333807D01*
X174241955Y-96245158D01*
X174131657Y-96171459D01*
X174049346Y-96116461D01*
X173885539Y-95952654D01*
X173764057Y-95770843D01*
X173756842Y-95760045D01*
X173668193Y-95546027D01*
X173631530Y-95361708D01*
X173623000Y-95318827D01*
X173623000Y-95087173D01*
X173654265Y-94929993D01*
X173668193Y-94859973D01*
X173756842Y-94645955D01*
X173799742Y-94581751D01*
X173885539Y-94453346D01*
X174049346Y-94289539D01*
X174241954Y-94160843D01*
X174241955Y-94160842D01*
X174455973Y-94072193D01*
X174607440Y-94042064D01*
X174683173Y-94027000D01*
X174914827Y-94027000D01*
X174990560Y-94042064D01*
X174990560Y-94042064D01*
G37*
G36*
X136817642Y-94080881D02*
G01*
X136963414Y-94141262D01*
X136963416Y-94141263D01*
X137094608Y-94228922D01*
X137206178Y-94340492D01*
X137281584Y-94453346D01*
X137293838Y-94471686D01*
X137354219Y-94617458D01*
X137385000Y-94772207D01*
X137385000Y-94929993D01*
X137354219Y-95084742D01*
X137293838Y-95230514D01*
X137293837Y-95230516D01*
X137206178Y-95361708D01*
X137094608Y-95473278D01*
X136963416Y-95560937D01*
X136963415Y-95560938D01*
X136963414Y-95560938D01*
X136817642Y-95621319D01*
X136662893Y-95652100D01*
X136505107Y-95652100D01*
X136350358Y-95621319D01*
X136204586Y-95560938D01*
X136204585Y-95560938D01*
X136204584Y-95560937D01*
X136073392Y-95473278D01*
X135961822Y-95361708D01*
X135874163Y-95230516D01*
X135874162Y-95230514D01*
X135813781Y-95084742D01*
X135783000Y-94929993D01*
X135783000Y-94772207D01*
X135813781Y-94617458D01*
X135874162Y-94471686D01*
X135886416Y-94453346D01*
X135961822Y-94340492D01*
X136073392Y-94228922D01*
X136204584Y-94141263D01*
X136204586Y-94141262D01*
X136350358Y-94080881D01*
X136505107Y-94050100D01*
X136662893Y-94050100D01*
X136817642Y-94080881D01*
X136817642Y-94080881D01*
G37*
G36*
X158385000Y-93362100D02*
G01*
X156863000Y-93362100D01*
X156863000Y-91840100D01*
X158385000Y-91840100D01*
X158385000Y-93362100D01*
X158385000Y-93362100D01*
G37*
G36*
X154645974Y-91869344D02*
G01*
X154784467Y-91926710D01*
X154784469Y-91926711D01*
X154909109Y-92009993D01*
X155015107Y-92115991D01*
X155088921Y-92226461D01*
X155098390Y-92240633D01*
X155155756Y-92379126D01*
X155185000Y-92526147D01*
X155185000Y-92676053D01*
X155155756Y-92823074D01*
X155139753Y-92861708D01*
X155098389Y-92961569D01*
X155015107Y-93086209D01*
X154909109Y-93192207D01*
X154784469Y-93275489D01*
X154784468Y-93275490D01*
X154784467Y-93275490D01*
X154645974Y-93332856D01*
X154498953Y-93362100D01*
X154349047Y-93362100D01*
X154202026Y-93332856D01*
X154063533Y-93275490D01*
X154063532Y-93275490D01*
X154063531Y-93275489D01*
X153938891Y-93192207D01*
X153832893Y-93086209D01*
X153749611Y-92961569D01*
X153708247Y-92861708D01*
X153692244Y-92823074D01*
X153663000Y-92676053D01*
X153663000Y-92526147D01*
X153692244Y-92379126D01*
X153749610Y-92240633D01*
X153759079Y-92226461D01*
X153832893Y-92115991D01*
X153938891Y-92009993D01*
X154063531Y-91926711D01*
X154063533Y-91926710D01*
X154202026Y-91869344D01*
X154349047Y-91840100D01*
X154498953Y-91840100D01*
X154645974Y-91869344D01*
X154645974Y-91869344D01*
G37*
G36*
X136817642Y-91580881D02*
G01*
X136963414Y-91641262D01*
X136963416Y-91641263D01*
X137094608Y-91728922D01*
X137206178Y-91840492D01*
X137263787Y-91926711D01*
X137293838Y-91971686D01*
X137354219Y-92117458D01*
X137385000Y-92272207D01*
X137385000Y-92429993D01*
X137354219Y-92584742D01*
X137293838Y-92730514D01*
X137293837Y-92730516D01*
X137206178Y-92861708D01*
X137094608Y-92973278D01*
X136963416Y-93060937D01*
X136963415Y-93060938D01*
X136963414Y-93060938D01*
X136817642Y-93121319D01*
X136662893Y-93152100D01*
X136505107Y-93152100D01*
X136350358Y-93121319D01*
X136204586Y-93060938D01*
X136204585Y-93060938D01*
X136204584Y-93060937D01*
X136073392Y-92973278D01*
X135961822Y-92861708D01*
X135874163Y-92730516D01*
X135874162Y-92730514D01*
X135813781Y-92584742D01*
X135783000Y-92429993D01*
X135783000Y-92272207D01*
X135813781Y-92117458D01*
X135874162Y-91971686D01*
X135904213Y-91926711D01*
X135961822Y-91840492D01*
X136073392Y-91728922D01*
X136204584Y-91641263D01*
X136204586Y-91641262D01*
X136350358Y-91580881D01*
X136505107Y-91550100D01*
X136662893Y-91550100D01*
X136817642Y-91580881D01*
X136817642Y-91580881D01*
G37*
G36*
X112420560Y-90207064D02*
G01*
X112572027Y-90237193D01*
X112786045Y-90325842D01*
X112786046Y-90325843D01*
X112978654Y-90454539D01*
X113142461Y-90618346D01*
X113191813Y-90692207D01*
X113271158Y-90810955D01*
X113359807Y-91024973D01*
X113405000Y-91252174D01*
X113405000Y-91483826D01*
X113359807Y-91711027D01*
X113271158Y-91925045D01*
X113239995Y-91971684D01*
X113142461Y-92117654D01*
X112978654Y-92281461D01*
X112868360Y-92355157D01*
X112786045Y-92410158D01*
X112572027Y-92498807D01*
X112434579Y-92526147D01*
X112344827Y-92544000D01*
X112113173Y-92544000D01*
X112023421Y-92526147D01*
X111885973Y-92498807D01*
X111671955Y-92410158D01*
X111589640Y-92355157D01*
X111479346Y-92281461D01*
X111315539Y-92117654D01*
X111218005Y-91971684D01*
X111186842Y-91925045D01*
X111098193Y-91711027D01*
X111053000Y-91483826D01*
X111053000Y-91252174D01*
X111098193Y-91024973D01*
X111186842Y-90810955D01*
X111266187Y-90692207D01*
X111315539Y-90618346D01*
X111479346Y-90454539D01*
X111671954Y-90325843D01*
X111671955Y-90325842D01*
X111885973Y-90237193D01*
X112037440Y-90207064D01*
X112113173Y-90192000D01*
X112344827Y-90192000D01*
X112420560Y-90207064D01*
X112420560Y-90207064D01*
G37*
G36*
X123420560Y-90207064D02*
G01*
X123572027Y-90237193D01*
X123786045Y-90325842D01*
X123786046Y-90325843D01*
X123978654Y-90454539D01*
X124142461Y-90618346D01*
X124191813Y-90692207D01*
X124271158Y-90810955D01*
X124359807Y-91024973D01*
X124405000Y-91252174D01*
X124405000Y-91483826D01*
X124359807Y-91711027D01*
X124271158Y-91925045D01*
X124239995Y-91971684D01*
X124142461Y-92117654D01*
X123978654Y-92281461D01*
X123868360Y-92355157D01*
X123786045Y-92410158D01*
X123572027Y-92498807D01*
X123434579Y-92526147D01*
X123344827Y-92544000D01*
X123113173Y-92544000D01*
X123023421Y-92526147D01*
X122885973Y-92498807D01*
X122671955Y-92410158D01*
X122589640Y-92355157D01*
X122479346Y-92281461D01*
X122315539Y-92117654D01*
X122218005Y-91971684D01*
X122186842Y-91925045D01*
X122098193Y-91711027D01*
X122053000Y-91483826D01*
X122053000Y-91252174D01*
X122098193Y-91024973D01*
X122186842Y-90810955D01*
X122266187Y-90692207D01*
X122315539Y-90618346D01*
X122479346Y-90454539D01*
X122671954Y-90325843D01*
X122671955Y-90325842D01*
X122885973Y-90237193D01*
X123037440Y-90207064D01*
X123113173Y-90192000D01*
X123344827Y-90192000D01*
X123420560Y-90207064D01*
X123420560Y-90207064D01*
G37*
G36*
X173380560Y-90152064D02*
G01*
X173532027Y-90182193D01*
X173746045Y-90270842D01*
X173748089Y-90272208D01*
X173938654Y-90399539D01*
X174102461Y-90563346D01*
X174188258Y-90691751D01*
X174231158Y-90755955D01*
X174319807Y-90969973D01*
X174365000Y-91197174D01*
X174365000Y-91428826D01*
X174319807Y-91656027D01*
X174231158Y-91870045D01*
X174193295Y-91926711D01*
X174102461Y-92062654D01*
X173938654Y-92226461D01*
X173870190Y-92272207D01*
X173746045Y-92355158D01*
X173532027Y-92443807D01*
X173380560Y-92473936D01*
X173304827Y-92489000D01*
X173073173Y-92489000D01*
X172997440Y-92473936D01*
X172845973Y-92443807D01*
X172631955Y-92355158D01*
X172507810Y-92272207D01*
X172439346Y-92226461D01*
X172275539Y-92062654D01*
X172184705Y-91926711D01*
X172146842Y-91870045D01*
X172058193Y-91656027D01*
X172013000Y-91428826D01*
X172013000Y-91197174D01*
X172058193Y-90969973D01*
X172146842Y-90755955D01*
X172189742Y-90691751D01*
X172275539Y-90563346D01*
X172439346Y-90399539D01*
X172629911Y-90272208D01*
X172631955Y-90270842D01*
X172845973Y-90182193D01*
X172997440Y-90152064D01*
X173073173Y-90137000D01*
X173304827Y-90137000D01*
X173380560Y-90152064D01*
X173380560Y-90152064D01*
G37*
G36*
X184380560Y-90152064D02*
G01*
X184532027Y-90182193D01*
X184746045Y-90270842D01*
X184748089Y-90272208D01*
X184938654Y-90399539D01*
X185102461Y-90563346D01*
X185188258Y-90691751D01*
X185231158Y-90755955D01*
X185319807Y-90969973D01*
X185365000Y-91197174D01*
X185365000Y-91428826D01*
X185319807Y-91656027D01*
X185231158Y-91870045D01*
X185193295Y-91926711D01*
X185102461Y-92062654D01*
X184938654Y-92226461D01*
X184870190Y-92272207D01*
X184746045Y-92355158D01*
X184532027Y-92443807D01*
X184380560Y-92473936D01*
X184304827Y-92489000D01*
X184073173Y-92489000D01*
X183997440Y-92473936D01*
X183845973Y-92443807D01*
X183631955Y-92355158D01*
X183507810Y-92272207D01*
X183439346Y-92226461D01*
X183275539Y-92062654D01*
X183184705Y-91926711D01*
X183146842Y-91870045D01*
X183058193Y-91656027D01*
X183013000Y-91428826D01*
X183013000Y-91197174D01*
X183058193Y-90969973D01*
X183146842Y-90755955D01*
X183189742Y-90691751D01*
X183275539Y-90563346D01*
X183439346Y-90399539D01*
X183629911Y-90272208D01*
X183631955Y-90270842D01*
X183845973Y-90182193D01*
X183997440Y-90152064D01*
X184073173Y-90137000D01*
X184304827Y-90137000D01*
X184380560Y-90152064D01*
X184380560Y-90152064D01*
G37*
G36*
X136817642Y-89580881D02*
G01*
X136963414Y-89641262D01*
X136963416Y-89641263D01*
X137094608Y-89728922D01*
X137206178Y-89840492D01*
X137231992Y-89879126D01*
X137293838Y-89971686D01*
X137354219Y-90117458D01*
X137385000Y-90272207D01*
X137385000Y-90429993D01*
X137354219Y-90584742D01*
X137309705Y-90692207D01*
X137293837Y-90730516D01*
X137206178Y-90861708D01*
X137094608Y-90973278D01*
X136963416Y-91060937D01*
X136963415Y-91060938D01*
X136963414Y-91060938D01*
X136817642Y-91121319D01*
X136662893Y-91152100D01*
X136505107Y-91152100D01*
X136350358Y-91121319D01*
X136204586Y-91060938D01*
X136204585Y-91060938D01*
X136204584Y-91060937D01*
X136073392Y-90973278D01*
X135961822Y-90861708D01*
X135874163Y-90730516D01*
X135858295Y-90692207D01*
X135813781Y-90584742D01*
X135783000Y-90429993D01*
X135783000Y-90272207D01*
X135813781Y-90117458D01*
X135874162Y-89971686D01*
X135936008Y-89879126D01*
X135961822Y-89840492D01*
X136073392Y-89728922D01*
X136204584Y-89641263D01*
X136204586Y-89641262D01*
X136350358Y-89580881D01*
X136505107Y-89550100D01*
X136662893Y-89550100D01*
X136817642Y-89580881D01*
X136817642Y-89580881D01*
G37*
G36*
X154645974Y-89369344D02*
G01*
X154784467Y-89426710D01*
X154784469Y-89426711D01*
X154909109Y-89509993D01*
X155015107Y-89615991D01*
X155031993Y-89641263D01*
X155098390Y-89740633D01*
X155155756Y-89879126D01*
X155185000Y-90026147D01*
X155185000Y-90176053D01*
X155155756Y-90323074D01*
X155124083Y-90399539D01*
X155098389Y-90461569D01*
X155015107Y-90586209D01*
X154909109Y-90692207D01*
X154784469Y-90775489D01*
X154784468Y-90775490D01*
X154784467Y-90775490D01*
X154645974Y-90832856D01*
X154498953Y-90862100D01*
X154349047Y-90862100D01*
X154202026Y-90832856D01*
X154063533Y-90775490D01*
X154063532Y-90775490D01*
X154063531Y-90775489D01*
X153938891Y-90692207D01*
X153832893Y-90586209D01*
X153749611Y-90461569D01*
X153723917Y-90399539D01*
X153692244Y-90323074D01*
X153663000Y-90176053D01*
X153663000Y-90026147D01*
X153692244Y-89879126D01*
X153749610Y-89740633D01*
X153816007Y-89641263D01*
X153832893Y-89615991D01*
X153938891Y-89509993D01*
X154063531Y-89426711D01*
X154063533Y-89426710D01*
X154202026Y-89369344D01*
X154349047Y-89340100D01*
X154498953Y-89340100D01*
X154645974Y-89369344D01*
X154645974Y-89369344D01*
G37*
G36*
X157845974Y-89369344D02*
G01*
X157984467Y-89426710D01*
X157984469Y-89426711D01*
X158109109Y-89509993D01*
X158215107Y-89615991D01*
X158231993Y-89641263D01*
X158298390Y-89740633D01*
X158355756Y-89879126D01*
X158385000Y-90026147D01*
X158385000Y-90176053D01*
X158355756Y-90323074D01*
X158324083Y-90399539D01*
X158298389Y-90461569D01*
X158215107Y-90586209D01*
X158109109Y-90692207D01*
X157984469Y-90775489D01*
X157984468Y-90775490D01*
X157984467Y-90775490D01*
X157845974Y-90832856D01*
X157698953Y-90862100D01*
X157549047Y-90862100D01*
X157402026Y-90832856D01*
X157263533Y-90775490D01*
X157263532Y-90775490D01*
X157263531Y-90775489D01*
X157138891Y-90692207D01*
X157032893Y-90586209D01*
X156949611Y-90461569D01*
X156923917Y-90399539D01*
X156892244Y-90323074D01*
X156863000Y-90176053D01*
X156863000Y-90026147D01*
X156892244Y-89879126D01*
X156949610Y-89740633D01*
X157016007Y-89641263D01*
X157032893Y-89615991D01*
X157138891Y-89509993D01*
X157263531Y-89426711D01*
X157263533Y-89426710D01*
X157402026Y-89369344D01*
X157549047Y-89340100D01*
X157698953Y-89340100D01*
X157845974Y-89369344D01*
X157845974Y-89369344D01*
G37*
G36*
X136817642Y-87080881D02*
G01*
X136941295Y-87132100D01*
X136963416Y-87141263D01*
X137094608Y-87228922D01*
X137206178Y-87340492D01*
X137293837Y-87471684D01*
X137293838Y-87471686D01*
X137354219Y-87617458D01*
X137385000Y-87772207D01*
X137385000Y-87929993D01*
X137354219Y-88084742D01*
X137293838Y-88230514D01*
X137293837Y-88230516D01*
X137206178Y-88361708D01*
X137094608Y-88473278D01*
X136963416Y-88560937D01*
X136963415Y-88560938D01*
X136963414Y-88560938D01*
X136817642Y-88621319D01*
X136662893Y-88652100D01*
X136505107Y-88652100D01*
X136350358Y-88621319D01*
X136204586Y-88560938D01*
X136204585Y-88560938D01*
X136204584Y-88560937D01*
X136073392Y-88473278D01*
X135961822Y-88361708D01*
X135874163Y-88230516D01*
X135874162Y-88230514D01*
X135813781Y-88084742D01*
X135783000Y-87929993D01*
X135783000Y-87772207D01*
X135813781Y-87617458D01*
X135874162Y-87471686D01*
X135874163Y-87471684D01*
X135961822Y-87340492D01*
X136073392Y-87228922D01*
X136204584Y-87141263D01*
X136226705Y-87132100D01*
X136350358Y-87080881D01*
X136505107Y-87050100D01*
X136662893Y-87050100D01*
X136817642Y-87080881D01*
X136817642Y-87080881D01*
G37*
G36*
X118905000Y-88044000D02*
G01*
X116553000Y-88044000D01*
X116553000Y-85692000D01*
X118905000Y-85692000D01*
X118905000Y-88044000D01*
X118905000Y-88044000D01*
G37*
G36*
X179865000Y-87989000D02*
G01*
X177513000Y-87989000D01*
X177513000Y-85637000D01*
X179865000Y-85637000D01*
X179865000Y-87989000D01*
X179865000Y-87989000D01*
G37*
G36*
X155449331Y-83599311D02*
G01*
X155777092Y-83735074D01*
X156072070Y-83932172D01*
X156322928Y-84183030D01*
X156520026Y-84478008D01*
X156655789Y-84805769D01*
X156725000Y-85153716D01*
X156725000Y-85508484D01*
X156655789Y-85856431D01*
X156520026Y-86184192D01*
X156322928Y-86479170D01*
X156072070Y-86730028D01*
X155777092Y-86927126D01*
X155449331Y-87062889D01*
X155101384Y-87132100D01*
X154746616Y-87132100D01*
X154398669Y-87062889D01*
X154070908Y-86927126D01*
X153775930Y-86730028D01*
X153525072Y-86479170D01*
X153327974Y-86184192D01*
X153192211Y-85856431D01*
X153123000Y-85508484D01*
X153123000Y-85153716D01*
X153192211Y-84805769D01*
X153327974Y-84478008D01*
X153525072Y-84183030D01*
X153775930Y-83932172D01*
X154070908Y-83735074D01*
X154398669Y-83599311D01*
X154746616Y-83530100D01*
X155101384Y-83530100D01*
X155449331Y-83599311D01*
X155449331Y-83599311D01*
G37*
G36*
X139691985Y-82404960D02*
G01*
X139804748Y-82427390D01*
X139936741Y-82482063D01*
X140123408Y-82559383D01*
X140410196Y-82751009D01*
X140654091Y-82994904D01*
X140845717Y-83281692D01*
X140923037Y-83468359D01*
X140977279Y-83599311D01*
X140977710Y-83600353D01*
X141045000Y-83938640D01*
X141045000Y-84283560D01*
X140977710Y-84621847D01*
X140845717Y-84940508D01*
X140654091Y-85227296D01*
X140410196Y-85471191D01*
X140123408Y-85662817D01*
X139936741Y-85740137D01*
X139804748Y-85794810D01*
X139691985Y-85817240D01*
X139466460Y-85862100D01*
X139121540Y-85862100D01*
X138896015Y-85817240D01*
X138783252Y-85794810D01*
X138651259Y-85740137D01*
X138464592Y-85662817D01*
X138177804Y-85471191D01*
X137933909Y-85227296D01*
X137742283Y-84940508D01*
X137610290Y-84621847D01*
X137543000Y-84283560D01*
X137543000Y-83938640D01*
X137610290Y-83600353D01*
X137610722Y-83599311D01*
X137664963Y-83468359D01*
X137742283Y-83281692D01*
X137933909Y-82994904D01*
X138177804Y-82751009D01*
X138464592Y-82559383D01*
X138651259Y-82482063D01*
X138783252Y-82427390D01*
X138896015Y-82404960D01*
X139121540Y-82360100D01*
X139466460Y-82360100D01*
X139691985Y-82404960D01*
X139691985Y-82404960D01*
G37*
G36*
X162959899Y-80251932D02*
G01*
X163044520Y-80268764D01*
X163203942Y-80334799D01*
X163347418Y-80430666D01*
X163469434Y-80552682D01*
X163565301Y-80696158D01*
X163631336Y-80855580D01*
X163665000Y-81024821D01*
X163665000Y-81197379D01*
X163631336Y-81366620D01*
X163565301Y-81526042D01*
X163469434Y-81669518D01*
X163347418Y-81791534D01*
X163203942Y-81887401D01*
X163044520Y-81953436D01*
X162959899Y-81970268D01*
X162875280Y-81987100D01*
X162702720Y-81987100D01*
X162618101Y-81970268D01*
X162533480Y-81953436D01*
X162374058Y-81887401D01*
X162230582Y-81791534D01*
X162108566Y-81669518D01*
X162012699Y-81526042D01*
X161946664Y-81366620D01*
X161913000Y-81197379D01*
X161913000Y-81024821D01*
X161946664Y-80855580D01*
X162012699Y-80696158D01*
X162108566Y-80552682D01*
X162230582Y-80430666D01*
X162374058Y-80334799D01*
X162533480Y-80268764D01*
X162618101Y-80251932D01*
X162702720Y-80235100D01*
X162875280Y-80235100D01*
X162959899Y-80251932D01*
X162959899Y-80251932D01*
G37*
G36*
X153434899Y-80251932D02*
G01*
X153519520Y-80268764D01*
X153678942Y-80334799D01*
X153822418Y-80430666D01*
X153944434Y-80552682D01*
X154040301Y-80696158D01*
X154106336Y-80855580D01*
X154140000Y-81024821D01*
X154140000Y-81197379D01*
X154106336Y-81366620D01*
X154040301Y-81526042D01*
X153944434Y-81669518D01*
X153822418Y-81791534D01*
X153678942Y-81887401D01*
X153519520Y-81953436D01*
X153434899Y-81970268D01*
X153350280Y-81987100D01*
X153177720Y-81987100D01*
X153093101Y-81970268D01*
X153008480Y-81953436D01*
X152849058Y-81887401D01*
X152705582Y-81791534D01*
X152583566Y-81669518D01*
X152487699Y-81526042D01*
X152421664Y-81366620D01*
X152388000Y-81197379D01*
X152388000Y-81024821D01*
X152421664Y-80855580D01*
X152487699Y-80696158D01*
X152583566Y-80552682D01*
X152705582Y-80430666D01*
X152849058Y-80334799D01*
X153008480Y-80268764D01*
X153093101Y-80251932D01*
X153177720Y-80235100D01*
X153350280Y-80235100D01*
X153434899Y-80251932D01*
X153434899Y-80251932D01*
G37*
G36*
X143909899Y-80251932D02*
G01*
X143994520Y-80268764D01*
X144153942Y-80334799D01*
X144297418Y-80430666D01*
X144419434Y-80552682D01*
X144515301Y-80696158D01*
X144581336Y-80855580D01*
X144615000Y-81024821D01*
X144615000Y-81197379D01*
X144581336Y-81366620D01*
X144515301Y-81526042D01*
X144419434Y-81669518D01*
X144297418Y-81791534D01*
X144153942Y-81887401D01*
X143994520Y-81953436D01*
X143909899Y-81970268D01*
X143825280Y-81987100D01*
X143652720Y-81987100D01*
X143568101Y-81970268D01*
X143483480Y-81953436D01*
X143324058Y-81887401D01*
X143180582Y-81791534D01*
X143058566Y-81669518D01*
X142962699Y-81526042D01*
X142896664Y-81366620D01*
X142863000Y-81197379D01*
X142863000Y-81024821D01*
X142896664Y-80855580D01*
X142962699Y-80696158D01*
X143058566Y-80552682D01*
X143180582Y-80430666D01*
X143324058Y-80334799D01*
X143483480Y-80268764D01*
X143568101Y-80251932D01*
X143652720Y-80235100D01*
X143825280Y-80235100D01*
X143909899Y-80251932D01*
X143909899Y-80251932D01*
G37*
G36*
X134384899Y-80251932D02*
G01*
X134469520Y-80268764D01*
X134628942Y-80334799D01*
X134772418Y-80430666D01*
X134894434Y-80552682D01*
X134990301Y-80696158D01*
X135056336Y-80855580D01*
X135090000Y-81024821D01*
X135090000Y-81197379D01*
X135056336Y-81366620D01*
X134990301Y-81526042D01*
X134894434Y-81669518D01*
X134772418Y-81791534D01*
X134628942Y-81887401D01*
X134469520Y-81953436D01*
X134384899Y-81970268D01*
X134300280Y-81987100D01*
X134127720Y-81987100D01*
X134043101Y-81970268D01*
X133958480Y-81953436D01*
X133799058Y-81887401D01*
X133655582Y-81791534D01*
X133533566Y-81669518D01*
X133437699Y-81526042D01*
X133371664Y-81366620D01*
X133338000Y-81197379D01*
X133338000Y-81024821D01*
X133371664Y-80855580D01*
X133437699Y-80696158D01*
X133533566Y-80552682D01*
X133655582Y-80430666D01*
X133799058Y-80334799D01*
X133958480Y-80268764D01*
X134043101Y-80251932D01*
X134127720Y-80235100D01*
X134300280Y-80235100D01*
X134384899Y-80251932D01*
X134384899Y-80251932D01*
G37*
G36*
X172484899Y-80251932D02*
G01*
X172569520Y-80268764D01*
X172728942Y-80334799D01*
X172872418Y-80430666D01*
X172994434Y-80552682D01*
X173090301Y-80696158D01*
X173156336Y-80855580D01*
X173190000Y-81024821D01*
X173190000Y-81197379D01*
X173156336Y-81366620D01*
X173090301Y-81526042D01*
X172994434Y-81669518D01*
X172872418Y-81791534D01*
X172728942Y-81887401D01*
X172569520Y-81953436D01*
X172484899Y-81970268D01*
X172400280Y-81987100D01*
X172227720Y-81987100D01*
X172143101Y-81970268D01*
X172058480Y-81953436D01*
X171899058Y-81887401D01*
X171755582Y-81791534D01*
X171633566Y-81669518D01*
X171537699Y-81526042D01*
X171471664Y-81366620D01*
X171438000Y-81197379D01*
X171438000Y-81024821D01*
X171471664Y-80855580D01*
X171537699Y-80696158D01*
X171633566Y-80552682D01*
X171755582Y-80430666D01*
X171899058Y-80334799D01*
X172058480Y-80268764D01*
X172143101Y-80251932D01*
X172227720Y-80235100D01*
X172400280Y-80235100D01*
X172484899Y-80251932D01*
X172484899Y-80251932D01*
G37*
G36*
X124859899Y-80251932D02*
G01*
X124944520Y-80268764D01*
X125103942Y-80334799D01*
X125247418Y-80430666D01*
X125369434Y-80552682D01*
X125465301Y-80696158D01*
X125531336Y-80855580D01*
X125565000Y-81024821D01*
X125565000Y-81197379D01*
X125531336Y-81366620D01*
X125465301Y-81526042D01*
X125369434Y-81669518D01*
X125247418Y-81791534D01*
X125103942Y-81887401D01*
X124944520Y-81953436D01*
X124859899Y-81970268D01*
X124775280Y-81987100D01*
X124602720Y-81987100D01*
X124518101Y-81970268D01*
X124433480Y-81953436D01*
X124274058Y-81887401D01*
X124130582Y-81791534D01*
X124008566Y-81669518D01*
X123912699Y-81526042D01*
X123846664Y-81366620D01*
X123813000Y-81197379D01*
X123813000Y-81024821D01*
X123846664Y-80855580D01*
X123912699Y-80696158D01*
X124008566Y-80552682D01*
X124130582Y-80430666D01*
X124274058Y-80334799D01*
X124433480Y-80268764D01*
X124518101Y-80251932D01*
X124602720Y-80235100D01*
X124775280Y-80235100D01*
X124859899Y-80251932D01*
X124859899Y-80251932D01*
G37*
G36*
X115334899Y-80251932D02*
G01*
X115419520Y-80268764D01*
X115578942Y-80334799D01*
X115722418Y-80430666D01*
X115844434Y-80552682D01*
X115940301Y-80696158D01*
X116006336Y-80855580D01*
X116040000Y-81024821D01*
X116040000Y-81197379D01*
X116006336Y-81366620D01*
X115940301Y-81526042D01*
X115844434Y-81669518D01*
X115722418Y-81791534D01*
X115578942Y-81887401D01*
X115419520Y-81953436D01*
X115334899Y-81970268D01*
X115250280Y-81987100D01*
X115077720Y-81987100D01*
X114993101Y-81970268D01*
X114908480Y-81953436D01*
X114749058Y-81887401D01*
X114605582Y-81791534D01*
X114483566Y-81669518D01*
X114387699Y-81526042D01*
X114321664Y-81366620D01*
X114288000Y-81197379D01*
X114288000Y-81024821D01*
X114321664Y-80855580D01*
X114387699Y-80696158D01*
X114483566Y-80552682D01*
X114605582Y-80430666D01*
X114749058Y-80334799D01*
X114908480Y-80268764D01*
X114993101Y-80251932D01*
X115077720Y-80235100D01*
X115250280Y-80235100D01*
X115334899Y-80251932D01*
X115334899Y-80251932D01*
G37*
G36*
X182009899Y-80251932D02*
G01*
X182094520Y-80268764D01*
X182253942Y-80334799D01*
X182397418Y-80430666D01*
X182519434Y-80552682D01*
X182615301Y-80696158D01*
X182681336Y-80855580D01*
X182715000Y-81024821D01*
X182715000Y-81197379D01*
X182681336Y-81366620D01*
X182615301Y-81526042D01*
X182519434Y-81669518D01*
X182397418Y-81791534D01*
X182253942Y-81887401D01*
X182094520Y-81953436D01*
X182009899Y-81970268D01*
X181925280Y-81987100D01*
X181752720Y-81987100D01*
X181668101Y-81970268D01*
X181583480Y-81953436D01*
X181424058Y-81887401D01*
X181280582Y-81791534D01*
X181158566Y-81669518D01*
X181062699Y-81526042D01*
X180996664Y-81366620D01*
X180963000Y-81197379D01*
X180963000Y-81024821D01*
X180996664Y-80855580D01*
X181062699Y-80696158D01*
X181158566Y-80552682D01*
X181280582Y-80430666D01*
X181424058Y-80334799D01*
X181583480Y-80268764D01*
X181668101Y-80251932D01*
X181752720Y-80235100D01*
X181925280Y-80235100D01*
X182009899Y-80251932D01*
X182009899Y-80251932D01*
G37*
G36*
X172484899Y-71751932D02*
G01*
X172569520Y-71768764D01*
X172728942Y-71834799D01*
X172872418Y-71930666D01*
X172994434Y-72052682D01*
X173090301Y-72196158D01*
X173156336Y-72355580D01*
X173190000Y-72524821D01*
X173190000Y-72697379D01*
X173156336Y-72866620D01*
X173090301Y-73026042D01*
X172994434Y-73169518D01*
X172872418Y-73291534D01*
X172728942Y-73387401D01*
X172569520Y-73453436D01*
X172484899Y-73470268D01*
X172400280Y-73487100D01*
X172227720Y-73487100D01*
X172143101Y-73470268D01*
X172058480Y-73453436D01*
X171899058Y-73387401D01*
X171755582Y-73291534D01*
X171633566Y-73169518D01*
X171537699Y-73026042D01*
X171471664Y-72866620D01*
X171438000Y-72697379D01*
X171438000Y-72524821D01*
X171471664Y-72355580D01*
X171537699Y-72196158D01*
X171633566Y-72052682D01*
X171755582Y-71930666D01*
X171899058Y-71834799D01*
X172058480Y-71768764D01*
X172143101Y-71751932D01*
X172227720Y-71735100D01*
X172400280Y-71735100D01*
X172484899Y-71751932D01*
X172484899Y-71751932D01*
G37*
G36*
X124859899Y-71751932D02*
G01*
X124944520Y-71768764D01*
X125103942Y-71834799D01*
X125247418Y-71930666D01*
X125369434Y-72052682D01*
X125465301Y-72196158D01*
X125531336Y-72355580D01*
X125565000Y-72524821D01*
X125565000Y-72697379D01*
X125531336Y-72866620D01*
X125465301Y-73026042D01*
X125369434Y-73169518D01*
X125247418Y-73291534D01*
X125103942Y-73387401D01*
X124944520Y-73453436D01*
X124859899Y-73470268D01*
X124775280Y-73487100D01*
X124602720Y-73487100D01*
X124518101Y-73470268D01*
X124433480Y-73453436D01*
X124274058Y-73387401D01*
X124130582Y-73291534D01*
X124008566Y-73169518D01*
X123912699Y-73026042D01*
X123846664Y-72866620D01*
X123813000Y-72697379D01*
X123813000Y-72524821D01*
X123846664Y-72355580D01*
X123912699Y-72196158D01*
X124008566Y-72052682D01*
X124130582Y-71930666D01*
X124274058Y-71834799D01*
X124433480Y-71768764D01*
X124518101Y-71751932D01*
X124602720Y-71735100D01*
X124775280Y-71735100D01*
X124859899Y-71751932D01*
X124859899Y-71751932D01*
G37*
G36*
X115334899Y-71751932D02*
G01*
X115419520Y-71768764D01*
X115578942Y-71834799D01*
X115722418Y-71930666D01*
X115844434Y-72052682D01*
X115940301Y-72196158D01*
X116006336Y-72355580D01*
X116040000Y-72524821D01*
X116040000Y-72697379D01*
X116006336Y-72866620D01*
X115940301Y-73026042D01*
X115844434Y-73169518D01*
X115722418Y-73291534D01*
X115578942Y-73387401D01*
X115419520Y-73453436D01*
X115334899Y-73470268D01*
X115250280Y-73487100D01*
X115077720Y-73487100D01*
X114993101Y-73470268D01*
X114908480Y-73453436D01*
X114749058Y-73387401D01*
X114605582Y-73291534D01*
X114483566Y-73169518D01*
X114387699Y-73026042D01*
X114321664Y-72866620D01*
X114288000Y-72697379D01*
X114288000Y-72524821D01*
X114321664Y-72355580D01*
X114387699Y-72196158D01*
X114483566Y-72052682D01*
X114605582Y-71930666D01*
X114749058Y-71834799D01*
X114908480Y-71768764D01*
X114993101Y-71751932D01*
X115077720Y-71735100D01*
X115250280Y-71735100D01*
X115334899Y-71751932D01*
X115334899Y-71751932D01*
G37*
G36*
X162959899Y-71751932D02*
G01*
X163044520Y-71768764D01*
X163203942Y-71834799D01*
X163347418Y-71930666D01*
X163469434Y-72052682D01*
X163565301Y-72196158D01*
X163631336Y-72355580D01*
X163665000Y-72524821D01*
X163665000Y-72697379D01*
X163631336Y-72866620D01*
X163565301Y-73026042D01*
X163469434Y-73169518D01*
X163347418Y-73291534D01*
X163203942Y-73387401D01*
X163044520Y-73453436D01*
X162959899Y-73470268D01*
X162875280Y-73487100D01*
X162702720Y-73487100D01*
X162618101Y-73470268D01*
X162533480Y-73453436D01*
X162374058Y-73387401D01*
X162230582Y-73291534D01*
X162108566Y-73169518D01*
X162012699Y-73026042D01*
X161946664Y-72866620D01*
X161913000Y-72697379D01*
X161913000Y-72524821D01*
X161946664Y-72355580D01*
X162012699Y-72196158D01*
X162108566Y-72052682D01*
X162230582Y-71930666D01*
X162374058Y-71834799D01*
X162533480Y-71768764D01*
X162618101Y-71751932D01*
X162702720Y-71735100D01*
X162875280Y-71735100D01*
X162959899Y-71751932D01*
X162959899Y-71751932D01*
G37*
G36*
X182009899Y-71751932D02*
G01*
X182094520Y-71768764D01*
X182253942Y-71834799D01*
X182397418Y-71930666D01*
X182519434Y-72052682D01*
X182615301Y-72196158D01*
X182681336Y-72355580D01*
X182715000Y-72524821D01*
X182715000Y-72697379D01*
X182681336Y-72866620D01*
X182615301Y-73026042D01*
X182519434Y-73169518D01*
X182397418Y-73291534D01*
X182253942Y-73387401D01*
X182094520Y-73453436D01*
X182009899Y-73470268D01*
X181925280Y-73487100D01*
X181752720Y-73487100D01*
X181668101Y-73470268D01*
X181583480Y-73453436D01*
X181424058Y-73387401D01*
X181280582Y-73291534D01*
X181158566Y-73169518D01*
X181062699Y-73026042D01*
X180996664Y-72866620D01*
X180963000Y-72697379D01*
X180963000Y-72524821D01*
X180996664Y-72355580D01*
X181062699Y-72196158D01*
X181158566Y-72052682D01*
X181280582Y-71930666D01*
X181424058Y-71834799D01*
X181583480Y-71768764D01*
X181668101Y-71751932D01*
X181752720Y-71735100D01*
X181925280Y-71735100D01*
X182009899Y-71751932D01*
X182009899Y-71751932D01*
G37*
G36*
X134384899Y-71751932D02*
G01*
X134469520Y-71768764D01*
X134628942Y-71834799D01*
X134772418Y-71930666D01*
X134894434Y-72052682D01*
X134990301Y-72196158D01*
X135056336Y-72355580D01*
X135090000Y-72524821D01*
X135090000Y-72697379D01*
X135056336Y-72866620D01*
X134990301Y-73026042D01*
X134894434Y-73169518D01*
X134772418Y-73291534D01*
X134628942Y-73387401D01*
X134469520Y-73453436D01*
X134384899Y-73470268D01*
X134300280Y-73487100D01*
X134127720Y-73487100D01*
X134043101Y-73470268D01*
X133958480Y-73453436D01*
X133799058Y-73387401D01*
X133655582Y-73291534D01*
X133533566Y-73169518D01*
X133437699Y-73026042D01*
X133371664Y-72866620D01*
X133338000Y-72697379D01*
X133338000Y-72524821D01*
X133371664Y-72355580D01*
X133437699Y-72196158D01*
X133533566Y-72052682D01*
X133655582Y-71930666D01*
X133799058Y-71834799D01*
X133958480Y-71768764D01*
X134043101Y-71751932D01*
X134127720Y-71735100D01*
X134300280Y-71735100D01*
X134384899Y-71751932D01*
X134384899Y-71751932D01*
G37*
G36*
X153434899Y-71751932D02*
G01*
X153519520Y-71768764D01*
X153678942Y-71834799D01*
X153822418Y-71930666D01*
X153944434Y-72052682D01*
X154040301Y-72196158D01*
X154106336Y-72355580D01*
X154140000Y-72524821D01*
X154140000Y-72697379D01*
X154106336Y-72866620D01*
X154040301Y-73026042D01*
X153944434Y-73169518D01*
X153822418Y-73291534D01*
X153678942Y-73387401D01*
X153519520Y-73453436D01*
X153434899Y-73470268D01*
X153350280Y-73487100D01*
X153177720Y-73487100D01*
X153093101Y-73470268D01*
X153008480Y-73453436D01*
X152849058Y-73387401D01*
X152705582Y-73291534D01*
X152583566Y-73169518D01*
X152487699Y-73026042D01*
X152421664Y-72866620D01*
X152388000Y-72697379D01*
X152388000Y-72524821D01*
X152421664Y-72355580D01*
X152487699Y-72196158D01*
X152583566Y-72052682D01*
X152705582Y-71930666D01*
X152849058Y-71834799D01*
X153008480Y-71768764D01*
X153093101Y-71751932D01*
X153177720Y-71735100D01*
X153350280Y-71735100D01*
X153434899Y-71751932D01*
X153434899Y-71751932D01*
G37*
G36*
X143909899Y-71751932D02*
G01*
X143994520Y-71768764D01*
X144153942Y-71834799D01*
X144297418Y-71930666D01*
X144419434Y-72052682D01*
X144515301Y-72196158D01*
X144581336Y-72355580D01*
X144615000Y-72524821D01*
X144615000Y-72697379D01*
X144581336Y-72866620D01*
X144515301Y-73026042D01*
X144419434Y-73169518D01*
X144297418Y-73291534D01*
X144153942Y-73387401D01*
X143994520Y-73453436D01*
X143909899Y-73470268D01*
X143825280Y-73487100D01*
X143652720Y-73487100D01*
X143568101Y-73470268D01*
X143483480Y-73453436D01*
X143324058Y-73387401D01*
X143180582Y-73291534D01*
X143058566Y-73169518D01*
X142962699Y-73026042D01*
X142896664Y-72866620D01*
X142863000Y-72697379D01*
X142863000Y-72524821D01*
X142896664Y-72355580D01*
X142962699Y-72196158D01*
X143058566Y-72052682D01*
X143180582Y-71930666D01*
X143324058Y-71834799D01*
X143483480Y-71768764D01*
X143568101Y-71751932D01*
X143652720Y-71735100D01*
X143825280Y-71735100D01*
X143909899Y-71751932D01*
X143909899Y-71751932D01*
G37*
G36*
X124944520Y-68768764D02*
G01*
X125103942Y-68834799D01*
X125247418Y-68930666D01*
X125369434Y-69052682D01*
X125465301Y-69196158D01*
X125531336Y-69355580D01*
X125565000Y-69524821D01*
X125565000Y-69697379D01*
X125531336Y-69866620D01*
X125465301Y-70026042D01*
X125369434Y-70169518D01*
X125247418Y-70291534D01*
X125103942Y-70387401D01*
X124944520Y-70453436D01*
X124859899Y-70470268D01*
X124775280Y-70487100D01*
X124602720Y-70487100D01*
X124518101Y-70470268D01*
X124433480Y-70453436D01*
X124274058Y-70387401D01*
X124130582Y-70291534D01*
X124008566Y-70169518D01*
X123912699Y-70026042D01*
X123846664Y-69866620D01*
X123813000Y-69697379D01*
X123813000Y-69524821D01*
X123846664Y-69355580D01*
X123912699Y-69196158D01*
X124008566Y-69052682D01*
X124130582Y-68930666D01*
X124274058Y-68834799D01*
X124433480Y-68768764D01*
X124602720Y-68735100D01*
X124775280Y-68735100D01*
X124944520Y-68768764D01*
X124944520Y-68768764D01*
G37*
G36*
X115419520Y-68768764D02*
G01*
X115578942Y-68834799D01*
X115722418Y-68930666D01*
X115844434Y-69052682D01*
X115940301Y-69196158D01*
X116006336Y-69355580D01*
X116040000Y-69524821D01*
X116040000Y-69697379D01*
X116006336Y-69866620D01*
X115940301Y-70026042D01*
X115844434Y-70169518D01*
X115722418Y-70291534D01*
X115578942Y-70387401D01*
X115419520Y-70453436D01*
X115334899Y-70470268D01*
X115250280Y-70487100D01*
X115077720Y-70487100D01*
X114993101Y-70470268D01*
X114908480Y-70453436D01*
X114749058Y-70387401D01*
X114605582Y-70291534D01*
X114483566Y-70169518D01*
X114387699Y-70026042D01*
X114321664Y-69866620D01*
X114288000Y-69697379D01*
X114288000Y-69524821D01*
X114321664Y-69355580D01*
X114387699Y-69196158D01*
X114483566Y-69052682D01*
X114605582Y-68930666D01*
X114749058Y-68834799D01*
X114908480Y-68768764D01*
X115077720Y-68735100D01*
X115250280Y-68735100D01*
X115419520Y-68768764D01*
X115419520Y-68768764D01*
G37*
G36*
X134469520Y-68768764D02*
G01*
X134628942Y-68834799D01*
X134772418Y-68930666D01*
X134894434Y-69052682D01*
X134990301Y-69196158D01*
X135056336Y-69355580D01*
X135090000Y-69524821D01*
X135090000Y-69697379D01*
X135056336Y-69866620D01*
X134990301Y-70026042D01*
X134894434Y-70169518D01*
X134772418Y-70291534D01*
X134628942Y-70387401D01*
X134469520Y-70453436D01*
X134384899Y-70470268D01*
X134300280Y-70487100D01*
X134127720Y-70487100D01*
X134043101Y-70470268D01*
X133958480Y-70453436D01*
X133799058Y-70387401D01*
X133655582Y-70291534D01*
X133533566Y-70169518D01*
X133437699Y-70026042D01*
X133371664Y-69866620D01*
X133338000Y-69697379D01*
X133338000Y-69524821D01*
X133371664Y-69355580D01*
X133437699Y-69196158D01*
X133533566Y-69052682D01*
X133655582Y-68930666D01*
X133799058Y-68834799D01*
X133958480Y-68768764D01*
X134127720Y-68735100D01*
X134300280Y-68735100D01*
X134469520Y-68768764D01*
X134469520Y-68768764D01*
G37*
G36*
X143994520Y-68768764D02*
G01*
X144153942Y-68834799D01*
X144297418Y-68930666D01*
X144419434Y-69052682D01*
X144515301Y-69196158D01*
X144581336Y-69355580D01*
X144615000Y-69524821D01*
X144615000Y-69697379D01*
X144581336Y-69866620D01*
X144515301Y-70026042D01*
X144419434Y-70169518D01*
X144297418Y-70291534D01*
X144153942Y-70387401D01*
X143994520Y-70453436D01*
X143909899Y-70470268D01*
X143825280Y-70487100D01*
X143652720Y-70487100D01*
X143568101Y-70470268D01*
X143483480Y-70453436D01*
X143324058Y-70387401D01*
X143180582Y-70291534D01*
X143058566Y-70169518D01*
X142962699Y-70026042D01*
X142896664Y-69866620D01*
X142863000Y-69697379D01*
X142863000Y-69524821D01*
X142896664Y-69355580D01*
X142962699Y-69196158D01*
X143058566Y-69052682D01*
X143180582Y-68930666D01*
X143324058Y-68834799D01*
X143483480Y-68768764D01*
X143652720Y-68735100D01*
X143825280Y-68735100D01*
X143994520Y-68768764D01*
X143994520Y-68768764D01*
G37*
G36*
X153519520Y-68768764D02*
G01*
X153678942Y-68834799D01*
X153822418Y-68930666D01*
X153944434Y-69052682D01*
X154040301Y-69196158D01*
X154106336Y-69355580D01*
X154140000Y-69524821D01*
X154140000Y-69697379D01*
X154106336Y-69866620D01*
X154040301Y-70026042D01*
X153944434Y-70169518D01*
X153822418Y-70291534D01*
X153678942Y-70387401D01*
X153519520Y-70453436D01*
X153434899Y-70470268D01*
X153350280Y-70487100D01*
X153177720Y-70487100D01*
X153093101Y-70470268D01*
X153008480Y-70453436D01*
X152849058Y-70387401D01*
X152705582Y-70291534D01*
X152583566Y-70169518D01*
X152487699Y-70026042D01*
X152421664Y-69866620D01*
X152388000Y-69697379D01*
X152388000Y-69524821D01*
X152421664Y-69355580D01*
X152487699Y-69196158D01*
X152583566Y-69052682D01*
X152705582Y-68930666D01*
X152849058Y-68834799D01*
X153008480Y-68768764D01*
X153177720Y-68735100D01*
X153350280Y-68735100D01*
X153519520Y-68768764D01*
X153519520Y-68768764D01*
G37*
G36*
X163044520Y-68768764D02*
G01*
X163203942Y-68834799D01*
X163347418Y-68930666D01*
X163469434Y-69052682D01*
X163565301Y-69196158D01*
X163631336Y-69355580D01*
X163665000Y-69524821D01*
X163665000Y-69697379D01*
X163631336Y-69866620D01*
X163565301Y-70026042D01*
X163469434Y-70169518D01*
X163347418Y-70291534D01*
X163203942Y-70387401D01*
X163044520Y-70453436D01*
X162959899Y-70470268D01*
X162875280Y-70487100D01*
X162702720Y-70487100D01*
X162618101Y-70470268D01*
X162533480Y-70453436D01*
X162374058Y-70387401D01*
X162230582Y-70291534D01*
X162108566Y-70169518D01*
X162012699Y-70026042D01*
X161946664Y-69866620D01*
X161913000Y-69697379D01*
X161913000Y-69524821D01*
X161946664Y-69355580D01*
X162012699Y-69196158D01*
X162108566Y-69052682D01*
X162230582Y-68930666D01*
X162374058Y-68834799D01*
X162533480Y-68768764D01*
X162702720Y-68735100D01*
X162875280Y-68735100D01*
X163044520Y-68768764D01*
X163044520Y-68768764D01*
G37*
G36*
X172569520Y-68768764D02*
G01*
X172728942Y-68834799D01*
X172872418Y-68930666D01*
X172994434Y-69052682D01*
X173090301Y-69196158D01*
X173156336Y-69355580D01*
X173190000Y-69524821D01*
X173190000Y-69697379D01*
X173156336Y-69866620D01*
X173090301Y-70026042D01*
X172994434Y-70169518D01*
X172872418Y-70291534D01*
X172728942Y-70387401D01*
X172569520Y-70453436D01*
X172484899Y-70470268D01*
X172400280Y-70487100D01*
X172227720Y-70487100D01*
X172143101Y-70470268D01*
X172058480Y-70453436D01*
X171899058Y-70387401D01*
X171755582Y-70291534D01*
X171633566Y-70169518D01*
X171537699Y-70026042D01*
X171471664Y-69866620D01*
X171438000Y-69697379D01*
X171438000Y-69524821D01*
X171471664Y-69355580D01*
X171537699Y-69196158D01*
X171633566Y-69052682D01*
X171755582Y-68930666D01*
X171899058Y-68834799D01*
X172058480Y-68768764D01*
X172227720Y-68735100D01*
X172400280Y-68735100D01*
X172569520Y-68768764D01*
X172569520Y-68768764D01*
G37*
G36*
X182094520Y-68768764D02*
G01*
X182253942Y-68834799D01*
X182397418Y-68930666D01*
X182519434Y-69052682D01*
X182615301Y-69196158D01*
X182681336Y-69355580D01*
X182715000Y-69524821D01*
X182715000Y-69697379D01*
X182681336Y-69866620D01*
X182615301Y-70026042D01*
X182519434Y-70169518D01*
X182397418Y-70291534D01*
X182253942Y-70387401D01*
X182094520Y-70453436D01*
X182009899Y-70470268D01*
X181925280Y-70487100D01*
X181752720Y-70487100D01*
X181668101Y-70470268D01*
X181583480Y-70453436D01*
X181424058Y-70387401D01*
X181280582Y-70291534D01*
X181158566Y-70169518D01*
X181062699Y-70026042D01*
X180996664Y-69866620D01*
X180963000Y-69697379D01*
X180963000Y-69524821D01*
X180996664Y-69355580D01*
X181062699Y-69196158D01*
X181158566Y-69052682D01*
X181280582Y-68930666D01*
X181424058Y-68834799D01*
X181583480Y-68768764D01*
X181752720Y-68735100D01*
X181925280Y-68735100D01*
X182094520Y-68768764D01*
X182094520Y-68768764D01*
G37*
M02*
