<?xml version="1.0" standalone="no"?>
<!DOCTYPE svg PUBLIC "-//W3C//DTD SVG 1.1//EN" 
  "http://www.w3.org/Graphics/SVG/1.1/DTD/svg11.dtd">
<svg width="101.260mm" height="128.400mm" version="1.1"
     viewBox="0 0 101.260 128.400"
     xmlns="http://www.w3.org/2000/svg"  xmlns:xlink="http://www.w3.org/1999/xlink" 
     xmlns:fpd="http://www.schaeffer-ag.de">
  <desc>Created with the Front Panel Designer by the export of the file '20hp-Ubuntu-instruments-number-two.fpd'.</desc>
  <defs>
    <pattern id="revside-fill" x="1" y="1" width="1.5" height="1.5" patternUnits="userSpaceOnUse">
      <line x1="0" y1="0" x2="1" y2="1" style="stroke-width:0.2; stroke:black; stroke-dasharray:none;" />
      <line x1="0" y1="1" x2="1" y2="0" style="stroke-width:0.2; stroke:black; stroke-dasharray:none;" />
    </pattern>
    <pattern id="revside-fill-silver" x="1" y="1" width="1.5" height="1.5" patternUnits="userSpaceOnUse">
      <line x1="0" y1="0" x2="1.5" y2="1.5" style="stroke-width:0.2; stroke:#e0e0e0; stroke-dasharray:none;" />
      <line x1="0" y1="1.5" x2="1.5" y2="0" style="stroke-width:0.2; stroke:#e0e0e0; stroke-dasharray:none;" />
    </pattern>
  </defs>
<g transform="scale(1,-1) translate( -0.000, -128.400)" 
   fill-rule="evenodd"
   style="stroke-linecap:round; stroke-linejoin:round; stroke-opacity:1.0; stroke-opacity:1.0;">
<path d="
M100.260 128.400
A1.000,1.000 0 0,0 101.260,127.400
L101.260 1.000
A1.000,1.000 0 0,0 100.260,0.000
L1.000 0.000
A1.000,1.000 0 0,0 0.000,1.000
L0.000 127.400
A1.000,1.000 0 0,0 1.000,128.400
L100.260 128.400
" 
fill="#bbbbbb" vector-effect="non-scaling-stroke" stroke="#000000" stroke-width="0.100mm" />
<path d="
M33.650 120.107
A15.000,10.000 180.000 1,1 33.650,100.107
A15.000,10.000 180.000 1,1 33.650,120.107
" 
fill="none" vector-effect="non-scaling-stroke" stroke="#689dbb" stroke-width="0.400mm" fpd:engraving="1" />
<path d="
M69.650 120.107
A15.000,10.000 180.000 1,1 69.650,100.107
A15.000,10.000 180.000 1,1 69.650,120.107
" 
fill="none" vector-effect="non-scaling-stroke" stroke="#689dbb" stroke-width="0.400mm" fpd:engraving="1" />
<path d="
M9.000 56.250
A1.000,1.000 0 0,1 8.000,55.250
L8.000 10.750
A1.000,1.000 0 0,1 9.000,9.750
L37.000 9.750
A1.000,1.000 0 0,1 38.000,10.750
L38.000 55.250
A1.000,1.000 0 0,1 37.000,56.250
L9.000 56.250
" 
fill="none" vector-effect="non-scaling-stroke" stroke="#689dbb" stroke-width="0.400mm" fpd:engraving="1" />
<path d="
M8.250 51.250
L8.250 14.750
L37.750 14.750
L37.750 51.250
L8.250 51.250
" 
fill="none" vector-effect="non-scaling-stroke" stroke="#689dbb" stroke-width="0.200mm" fpd:engraving="1" />
<path d="
M6.000 125.500
A1.500,1.500 0 1,0 9.000,125.500
A1.500,1.500 0 1,0 6.000,125.500
" 
fill="#ffffff" vector-effect="non-scaling-stroke" stroke="#000000" stroke-width="0.100mm" />
<path d="
M87.280 125.500
A1.500,1.500 0 1,0 90.280,125.500
A1.500,1.500 0 1,0 87.280,125.500
" 
fill="#ffffff" vector-effect="non-scaling-stroke" stroke="#000000" stroke-width="0.100mm" />
<path d="
M87.280 3.000
A1.500,1.500 0 1,0 90.280,3.000
A1.500,1.500 0 1,0 87.280,3.000
" 
fill="#ffffff" vector-effect="non-scaling-stroke" stroke="#000000" stroke-width="0.100mm" />
<path d="
M6.000 3.000
A1.500,1.500 0 1,0 9.000,3.000
A1.500,1.500 0 1,0 6.000,3.000
" 
fill="#ffffff" vector-effect="non-scaling-stroke" stroke="#000000" stroke-width="0.100mm" />
<path d="
M50.650 82.000
A5.000,5.000 0 1,0 60.650,82.000
A5.000,5.000 0 1,0 50.650,82.000
" 
fill="#ffffff" vector-effect="non-scaling-stroke" stroke="#000000" stroke-width="0.100mm" />
<path d="
M70.650 82.000
A5.000,5.000 0 1,0 80.650,82.000
A5.000,5.000 0 1,0 70.650,82.000
" 
fill="#ffffff" vector-effect="non-scaling-stroke" stroke="#000000" stroke-width="0.100mm" />
<path d="
M30.650 82.000
A5.000,5.000 0 1,0 40.650,82.000
A5.000,5.000 0 1,0 30.650,82.000
" 
fill="#ffffff" vector-effect="non-scaling-stroke" stroke="#000000" stroke-width="0.100mm" />
<path d="
M82.500 49.000
A3.500,3.500 0 1,0 89.500,49.000
A3.500,3.500 0 1,0 82.500,49.000
" 
fill="#ffffff" vector-effect="non-scaling-stroke" stroke="#000000" stroke-width="0.100mm" />
<path d="
M52.500 49.000
A3.500,3.500 0 1,0 59.500,49.000
A3.500,3.500 0 1,0 52.500,49.000
" 
fill="#ffffff" vector-effect="non-scaling-stroke" stroke="#000000" stroke-width="0.100mm" />
<path d="
M52.500 19.000
A3.500,3.500 0 1,0 59.500,19.000
A3.500,3.500 0 1,0 52.500,19.000
" 
fill="#ffffff" vector-effect="non-scaling-stroke" stroke="#000000" stroke-width="0.100mm" />
<path d="
M82.500 19.000
A3.500,3.500 0 1,0 89.500,19.000
A3.500,3.500 0 1,0 82.500,19.000
" 
fill="#ffffff" vector-effect="non-scaling-stroke" stroke="#000000" stroke-width="0.100mm" />
<path d="
M22.564 107.112
L22.617 107.115
L22.669 107.119
L22.730 107.126
L22.905 107.151
L22.957 107.160
L23.009 107.170
L23.048 107.179
L23.219 107.222
L23.270 107.236
L23.321 107.252
L23.370 107.269
L23.535 107.331
L23.585 107.351
L23.633 107.372
L23.672 107.391
L23.829 107.470
L23.876 107.495
L23.922 107.521
L23.967 107.550
L24.115 107.647
L24.159 107.677
L24.202 107.708
L24.238 107.737
L24.374 107.849
L24.414 107.884
L24.453 107.920
L24.486 107.952
L24.609 108.078
L24.645 108.117
L24.680 108.156
L24.713 108.197
L24.821 108.336
L24.852 108.378
L24.882 108.422
L24.908 108.463
L25.000 108.613
L25.027 108.659
L25.052 108.705
L25.075 108.751
L25.150 108.911
L25.171 108.959
L25.191 109.008
L25.205 109.046
L25.263 109.213
L25.279 109.263
L25.293 109.314
L25.307 109.370
L25.345 109.542
L25.355 109.594
L25.364 109.646
L25.369 109.685
L25.389 109.860
L25.394 109.913
L25.397 109.966
L25.398 110.019
L25.398 110.195
L25.397 110.248
L25.394 110.301
L25.389 110.354
L25.369 110.529
L25.362 110.581
L25.353 110.634
L25.345 110.672
L25.307 110.844
L25.295 110.895
L25.280 110.946
L25.263 111.001
L25.205 111.168
L25.186 111.218
L25.166 111.267
L25.150 111.303
L25.075 111.463
L25.051 111.511
L25.026 111.557
L25.000 111.601
L24.908 111.751
L24.880 111.796
L24.850 111.839
L24.821 111.878
L24.713 112.017
L24.679 112.058
L24.644 112.098
L24.609 112.136
L24.486 112.262
L24.448 112.299
L24.409 112.335
L24.374 112.365
L24.238 112.477
L24.197 112.510
L24.154 112.541
L24.115 112.567
L23.967 112.664
L23.923 112.692
L23.877 112.719
L23.829 112.744
L23.672 112.823
L23.625 112.845
L23.576 112.867
L23.535 112.883
L23.370 112.945
L23.321 112.962
L23.270 112.978
L23.219 112.992
L23.048 113.035
L22.997 113.047
L22.945 113.057
L22.905 113.063
L22.730 113.088
L22.677 113.094
L22.625 113.099
L22.564 113.102
L22.388 113.106
L22.335 113.106
L22.282 113.104
L22.245 113.102
L22.069 113.088
L22.016 113.082
L21.964 113.075
L21.910 113.066
L21.737 113.032
L21.685 113.021
L21.634 113.007
L21.586 112.993
L21.418 112.940
L21.368 112.923
L21.318 112.905
L21.281 112.889
L21.120 112.819
L21.072 112.797
L21.024 112.773
L20.974 112.745
L20.821 112.656
L20.776 112.629
L20.732 112.600
L20.698 112.575
L20.556 112.471
L20.514 112.439
L20.473 112.406
L20.438 112.375
L20.308 112.256
L20.269 112.219
L20.232 112.181
L20.198 112.143
L20.082 112.010
L20.048 111.970
L20.015 111.928
L19.985 111.885
L19.885 111.740
L19.855 111.696
L19.828 111.651
L19.806 111.612
L19.722 111.457
L19.698 111.410
L19.675 111.362
L19.655 111.315
L19.589 111.152
L19.570 111.103
L19.553 111.053
L19.540 111.007
L19.492 110.837
L19.478 110.786
L19.467 110.735
L19.458 110.687
L19.429 110.513
L19.421 110.461
L19.416 110.408
L19.412 110.362
L19.402 110.186
L19.400 110.134
L19.400 110.081
L19.402 110.028
L19.412 109.852
L19.416 109.799
L19.422 109.746
L19.429 109.701
L19.458 109.527
L19.468 109.475
L19.479 109.423
L19.492 109.377
L19.540 109.207
L19.555 109.156
L19.572 109.106
L19.589 109.062
L19.655 108.899
L19.676 108.850
L19.699 108.802
L19.722 108.757
L19.806 108.602
L19.832 108.556
L19.860 108.511
L19.885 108.474
L19.985 108.329
L20.015 108.286
L20.048 108.244
L20.082 108.204
L20.198 108.071
L20.233 108.032
L20.270 107.994
L20.308 107.958
L20.438 107.839
L20.477 107.804
L20.518 107.771
L20.556 107.743
L20.698 107.639
L20.741 107.608
L20.785 107.579
L20.821 107.558
L20.974 107.469
L21.020 107.443
L21.067 107.419
L21.120 107.395
L21.281 107.325
L21.330 107.305
L21.379 107.287
L21.418 107.274
L21.586 107.221
L21.637 107.206
L21.688 107.193
L21.737 107.182
L21.910 107.148
L21.962 107.139
L22.015 107.132
L22.069 107.126
L22.245 107.112
L22.298 107.109
L22.351 107.108
L22.388 107.108
L22.564 107.112
M20.800 110.107
A1.600,1.600 0 1,0 24.000,110.107
A1.600,1.600 0 1,0 20.800,110.107
" 
fill="#e0e0e0" vector-effect="non-scaling-stroke" stroke="#000000" stroke-width="0.100mm" />
<path d="
M22.564 107.112
L22.617 107.115
L22.669 107.119
L22.730 107.126
L22.905 107.151
L22.957 107.160
L23.009 107.170
L23.048 107.179
L23.219 107.222
L23.270 107.236
L23.321 107.252
L23.370 107.269
L23.535 107.331
L23.585 107.351
L23.633 107.372
L23.672 107.391
L23.829 107.470
L23.876 107.495
L23.922 107.521
L23.967 107.550
L24.115 107.647
L24.159 107.677
L24.202 107.708
L24.238 107.737
L24.374 107.849
L24.414 107.884
L24.453 107.920
L24.486 107.952
L24.609 108.078
L24.645 108.117
L24.680 108.156
L24.713 108.197
L24.821 108.336
L24.852 108.378
L24.882 108.422
L24.908 108.463
L25.000 108.613
L25.027 108.659
L25.052 108.705
L25.075 108.751
L25.150 108.911
L25.171 108.959
L25.191 109.008
L25.205 109.046
L25.263 109.213
L25.279 109.263
L25.293 109.314
L25.307 109.370
L25.345 109.542
L25.355 109.594
L25.364 109.646
L25.369 109.685
L25.389 109.860
L25.394 109.913
L25.397 109.966
L25.398 110.019
L25.398 110.195
L25.397 110.248
L25.394 110.301
L25.389 110.354
L25.369 110.529
L25.362 110.581
L25.353 110.634
L25.345 110.672
L25.307 110.844
L25.295 110.895
L25.280 110.946
L25.263 111.001
L25.205 111.168
L25.186 111.218
L25.166 111.267
L25.150 111.303
L25.075 111.463
L25.051 111.511
L25.026 111.557
L25.000 111.601
L24.908 111.751
L24.880 111.796
L24.850 111.839
L24.821 111.878
L24.713 112.017
L24.679 112.058
L24.644 112.098
L24.609 112.136
L24.486 112.262
L24.448 112.299
L24.409 112.335
L24.374 112.365
L24.238 112.477
L24.197 112.510
L24.154 112.541
L24.115 112.567
L23.967 112.664
L23.923 112.692
L23.877 112.719
L23.829 112.744
L23.672 112.823
L23.625 112.845
L23.576 112.867
L23.535 112.883
L23.370 112.945
L23.321 112.962
L23.270 112.978
L23.219 112.992
L23.048 113.035
L22.997 113.047
L22.945 113.057
L22.905 113.063
L22.730 113.088
L22.677 113.094
L22.625 113.099
L22.564 113.102
L22.388 113.106
L22.335 113.106
L22.282 113.104
L22.245 113.102
L22.069 113.088
L22.016 113.082
L21.964 113.075
L21.910 113.066
L21.737 113.032
L21.685 113.021
L21.634 113.007
L21.586 112.993
L21.418 112.940
L21.368 112.923
L21.318 112.905
L21.281 112.889
L21.120 112.819
L21.072 112.797
L21.024 112.773
L20.974 112.745
L20.821 112.656
L20.776 112.629
L20.732 112.600
L20.698 112.575
L20.556 112.471
L20.514 112.439
L20.473 112.406
L20.438 112.375
L20.308 112.256
L20.269 112.219
L20.232 112.181
L20.198 112.143
L20.082 112.010
L20.048 111.970
L20.015 111.928
L19.985 111.885
L19.885 111.740
L19.855 111.696
L19.828 111.651
L19.806 111.612
L19.722 111.457
L19.698 111.410
L19.675 111.362
L19.655 111.315
L19.589 111.152
L19.570 111.103
L19.553 111.053
L19.540 111.007
L19.492 110.837
L19.478 110.786
L19.467 110.735
L19.458 110.687
L19.429 110.513
L19.421 110.461
L19.416 110.408
L19.412 110.362
L19.402 110.186
L19.400 110.134
L19.400 110.081
L19.402 110.028
L19.412 109.852
L19.416 109.799
L19.422 109.746
L19.429 109.701
L19.458 109.527
L19.468 109.475
L19.479 109.423
L19.492 109.377
L19.540 109.207
L19.555 109.156
L19.572 109.106
L19.589 109.062
L19.655 108.899
L19.676 108.850
L19.699 108.802
L19.722 108.757
L19.806 108.602
L19.832 108.556
L19.860 108.511
L19.885 108.474
L19.985 108.329
L20.015 108.286
L20.048 108.244
L20.082 108.204
L20.198 108.071
L20.233 108.032
L20.270 107.994
L20.308 107.958
L20.438 107.839
L20.477 107.804
L20.518 107.771
L20.556 107.743
L20.698 107.639
L20.741 107.608
L20.785 107.579
L20.821 107.558
L20.974 107.469
L21.020 107.443
L21.067 107.419
L21.120 107.395
L21.281 107.325
L21.330 107.305
L21.379 107.287
L21.418 107.274
L21.586 107.221
L21.637 107.206
L21.688 107.193
L21.737 107.182
L21.910 107.148
L21.962 107.139
L22.015 107.132
L22.069 107.126
L22.245 107.112
L22.298 107.109
L22.351 107.108
L22.388 107.108
L22.564 107.112
" 
fill="none" vector-effect="non-scaling-stroke" stroke="#000000" stroke-width="0.100mm" />
<path d="
M20.800 110.107
A1.600,1.600 0 1,0 24.000,110.107
A1.600,1.600 0 1,0 20.800,110.107
" 
fill="#ffffff" vector-effect="non-scaling-stroke" stroke="#000000" stroke-width="0.100mm" />
<path d="
M26.400 110.107
A7.250,7.250 0 1,0 40.900,110.107
A7.250,7.250 0 1,0 26.400,110.107
" 
fill="#ffffff" vector-effect="non-scaling-stroke" stroke="#000000" stroke-width="0.100mm" />
<path d="
M45.064 107.112
L45.117 107.115
L45.169 107.119
L45.230 107.126
L45.405 107.151
L45.457 107.160
L45.509 107.170
L45.548 107.179
L45.719 107.222
L45.770 107.236
L45.821 107.252
L45.870 107.269
L46.035 107.331
L46.085 107.351
L46.133 107.372
L46.172 107.391
L46.329 107.470
L46.376 107.495
L46.422 107.521
L46.467 107.550
L46.615 107.647
L46.659 107.677
L46.702 107.708
L46.738 107.737
L46.874 107.849
L46.914 107.884
L46.953 107.920
L46.986 107.952
L47.109 108.078
L47.145 108.117
L47.180 108.156
L47.213 108.197
L47.321 108.336
L47.352 108.378
L47.382 108.422
L47.408 108.463
L47.500 108.613
L47.527 108.659
L47.552 108.705
L47.575 108.751
L47.650 108.911
L47.671 108.959
L47.691 109.008
L47.705 109.046
L47.763 109.213
L47.779 109.263
L47.793 109.314
L47.807 109.370
L47.845 109.542
L47.855 109.594
L47.864 109.646
L47.869 109.685
L47.889 109.860
L47.894 109.913
L47.897 109.966
L47.898 110.019
L47.898 110.195
L47.897 110.248
L47.894 110.301
L47.889 110.354
L47.869 110.529
L47.862 110.581
L47.853 110.634
L47.845 110.672
L47.807 110.844
L47.795 110.895
L47.780 110.946
L47.763 111.001
L47.705 111.168
L47.686 111.218
L47.666 111.267
L47.650 111.303
L47.575 111.463
L47.551 111.511
L47.526 111.557
L47.500 111.601
L47.408 111.751
L47.380 111.796
L47.350 111.839
L47.321 111.878
L47.213 112.017
L47.179 112.058
L47.144 112.098
L47.109 112.136
L46.986 112.262
L46.948 112.299
L46.909 112.335
L46.874 112.365
L46.738 112.477
L46.697 112.510
L46.654 112.541
L46.615 112.567
L46.467 112.664
L46.423 112.692
L46.377 112.719
L46.329 112.744
L46.172 112.823
L46.125 112.845
L46.076 112.867
L46.035 112.883
L45.870 112.945
L45.821 112.962
L45.770 112.978
L45.719 112.992
L45.548 113.035
L45.497 113.047
L45.445 113.057
L45.405 113.063
L45.230 113.088
L45.177 113.094
L45.125 113.099
L45.064 113.102
L44.888 113.106
L44.835 113.106
L44.782 113.104
L44.745 113.102
L44.569 113.088
L44.516 113.082
L44.464 113.075
L44.410 113.066
L44.237 113.032
L44.185 113.021
L44.134 113.007
L44.086 112.993
L43.918 112.940
L43.868 112.923
L43.818 112.905
L43.781 112.889
L43.620 112.819
L43.572 112.797
L43.524 112.773
L43.474 112.745
L43.321 112.656
L43.276 112.629
L43.232 112.600
L43.198 112.575
L43.056 112.471
L43.014 112.439
L42.973 112.406
L42.938 112.375
L42.808 112.256
L42.769 112.219
L42.732 112.181
L42.698 112.143
L42.582 112.010
L42.548 111.970
L42.515 111.928
L42.485 111.885
L42.385 111.740
L42.355 111.696
L42.328 111.651
L42.306 111.612
L42.222 111.457
L42.198 111.410
L42.175 111.362
L42.155 111.315
L42.089 111.152
L42.070 111.103
L42.053 111.053
L42.040 111.007
L41.992 110.837
L41.978 110.786
L41.967 110.735
L41.958 110.687
L41.929 110.513
L41.921 110.461
L41.916 110.408
L41.912 110.362
L41.902 110.186
L41.900 110.134
L41.900 110.081
L41.902 110.028
L41.912 109.852
L41.916 109.799
L41.922 109.746
L41.929 109.701
L41.958 109.527
L41.968 109.475
L41.979 109.423
L41.992 109.377
L42.040 109.207
L42.055 109.156
L42.072 109.106
L42.089 109.062
L42.155 108.899
L42.176 108.850
L42.199 108.802
L42.222 108.757
L42.306 108.602
L42.332 108.556
L42.360 108.511
L42.385 108.474
L42.485 108.329
L42.515 108.286
L42.548 108.244
L42.582 108.204
L42.698 108.071
L42.733 108.032
L42.770 107.994
L42.808 107.958
L42.938 107.839
L42.977 107.804
L43.018 107.771
L43.056 107.743
L43.198 107.639
L43.241 107.608
L43.285 107.579
L43.321 107.558
L43.474 107.469
L43.520 107.443
L43.567 107.419
L43.620 107.395
L43.781 107.325
L43.830 107.305
L43.879 107.287
L43.918 107.274
L44.086 107.221
L44.137 107.206
L44.188 107.193
L44.237 107.182
L44.410 107.148
L44.462 107.139
L44.515 107.132
L44.569 107.126
L44.745 107.112
L44.798 107.109
L44.851 107.108
L44.888 107.108
L45.064 107.112
M43.300 110.107
A1.600,1.600 0 1,0 46.500,110.107
A1.600,1.600 0 1,0 43.300,110.107
" 
fill="#e0e0e0" vector-effect="non-scaling-stroke" stroke="#000000" stroke-width="0.100mm" />
<path d="
M45.064 107.112
L45.117 107.115
L45.169 107.119
L45.230 107.126
L45.405 107.151
L45.457 107.160
L45.509 107.170
L45.548 107.179
L45.719 107.222
L45.770 107.236
L45.821 107.252
L45.870 107.269
L46.035 107.331
L46.085 107.351
L46.133 107.372
L46.172 107.391
L46.329 107.470
L46.376 107.495
L46.422 107.521
L46.467 107.550
L46.615 107.647
L46.659 107.677
L46.702 107.708
L46.738 107.737
L46.874 107.849
L46.914 107.884
L46.953 107.920
L46.986 107.952
L47.109 108.078
L47.145 108.117
L47.180 108.156
L47.213 108.197
L47.321 108.336
L47.352 108.378
L47.382 108.422
L47.408 108.463
L47.500 108.613
L47.527 108.659
L47.552 108.705
L47.575 108.751
L47.650 108.911
L47.671 108.959
L47.691 109.008
L47.705 109.046
L47.763 109.213
L47.779 109.263
L47.793 109.314
L47.807 109.370
L47.845 109.542
L47.855 109.594
L47.864 109.646
L47.869 109.685
L47.889 109.860
L47.894 109.913
L47.897 109.966
L47.898 110.019
L47.898 110.195
L47.897 110.248
L47.894 110.301
L47.889 110.354
L47.869 110.529
L47.862 110.581
L47.853 110.634
L47.845 110.672
L47.807 110.844
L47.795 110.895
L47.780 110.946
L47.763 111.001
L47.705 111.168
L47.686 111.218
L47.666 111.267
L47.650 111.303
L47.575 111.463
L47.551 111.511
L47.526 111.557
L47.500 111.601
L47.408 111.751
L47.380 111.796
L47.350 111.839
L47.321 111.878
L47.213 112.017
L47.179 112.058
L47.144 112.098
L47.109 112.136
L46.986 112.262
L46.948 112.299
L46.909 112.335
L46.874 112.365
L46.738 112.477
L46.697 112.510
L46.654 112.541
L46.615 112.567
L46.467 112.664
L46.423 112.692
L46.377 112.719
L46.329 112.744
L46.172 112.823
L46.125 112.845
L46.076 112.867
L46.035 112.883
L45.870 112.945
L45.821 112.962
L45.770 112.978
L45.719 112.992
L45.548 113.035
L45.497 113.047
L45.445 113.057
L45.405 113.063
L45.230 113.088
L45.177 113.094
L45.125 113.099
L45.064 113.102
L44.888 113.106
L44.835 113.106
L44.782 113.104
L44.745 113.102
L44.569 113.088
L44.516 113.082
L44.464 113.075
L44.410 113.066
L44.237 113.032
L44.185 113.021
L44.134 113.007
L44.086 112.993
L43.918 112.940
L43.868 112.923
L43.818 112.905
L43.781 112.889
L43.620 112.819
L43.572 112.797
L43.524 112.773
L43.474 112.745
L43.321 112.656
L43.276 112.629
L43.232 112.600
L43.198 112.575
L43.056 112.471
L43.014 112.439
L42.973 112.406
L42.938 112.375
L42.808 112.256
L42.769 112.219
L42.732 112.181
L42.698 112.143
L42.582 112.010
L42.548 111.970
L42.515 111.928
L42.485 111.885
L42.385 111.740
L42.355 111.696
L42.328 111.651
L42.306 111.612
L42.222 111.457
L42.198 111.410
L42.175 111.362
L42.155 111.315
L42.089 111.152
L42.070 111.103
L42.053 111.053
L42.040 111.007
L41.992 110.837
L41.978 110.786
L41.967 110.735
L41.958 110.687
L41.929 110.513
L41.921 110.461
L41.916 110.408
L41.912 110.362
L41.902 110.186
L41.900 110.134
L41.900 110.081
L41.902 110.028
L41.912 109.852
L41.916 109.799
L41.922 109.746
L41.929 109.701
L41.958 109.527
L41.968 109.475
L41.979 109.423
L41.992 109.377
L42.040 109.207
L42.055 109.156
L42.072 109.106
L42.089 109.062
L42.155 108.899
L42.176 108.850
L42.199 108.802
L42.222 108.757
L42.306 108.602
L42.332 108.556
L42.360 108.511
L42.385 108.474
L42.485 108.329
L42.515 108.286
L42.548 108.244
L42.582 108.204
L42.698 108.071
L42.733 108.032
L42.770 107.994
L42.808 107.958
L42.938 107.839
L42.977 107.804
L43.018 107.771
L43.056 107.743
L43.198 107.639
L43.241 107.608
L43.285 107.579
L43.321 107.558
L43.474 107.469
L43.520 107.443
L43.567 107.419
L43.620 107.395
L43.781 107.325
L43.830 107.305
L43.879 107.287
L43.918 107.274
L44.086 107.221
L44.137 107.206
L44.188 107.193
L44.237 107.182
L44.410 107.148
L44.462 107.139
L44.515 107.132
L44.569 107.126
L44.745 107.112
L44.798 107.109
L44.851 107.108
L44.888 107.108
L45.064 107.112
" 
fill="none" vector-effect="non-scaling-stroke" stroke="#000000" stroke-width="0.100mm" />
<path d="
M43.300 110.107
A1.600,1.600 0 1,0 46.500,110.107
A1.600,1.600 0 1,0 43.300,110.107
" 
fill="#ffffff" vector-effect="non-scaling-stroke" stroke="#000000" stroke-width="0.100mm" />
<path d="
M58.564 107.112
L58.617 107.115
L58.669 107.119
L58.730 107.126
L58.905 107.151
L58.957 107.160
L59.009 107.170
L59.048 107.179
L59.219 107.222
L59.270 107.236
L59.321 107.252
L59.370 107.269
L59.535 107.331
L59.585 107.351
L59.633 107.372
L59.672 107.391
L59.829 107.470
L59.876 107.495
L59.922 107.521
L59.967 107.550
L60.115 107.647
L60.159 107.677
L60.202 107.708
L60.238 107.737
L60.374 107.849
L60.414 107.884
L60.453 107.920
L60.486 107.952
L60.609 108.078
L60.645 108.117
L60.680 108.156
L60.713 108.197
L60.821 108.336
L60.852 108.378
L60.882 108.422
L60.908 108.463
L61.000 108.613
L61.027 108.659
L61.052 108.705
L61.075 108.751
L61.150 108.911
L61.171 108.959
L61.191 109.008
L61.205 109.046
L61.263 109.213
L61.279 109.263
L61.293 109.314
L61.307 109.370
L61.345 109.542
L61.355 109.594
L61.364 109.646
L61.369 109.685
L61.389 109.860
L61.394 109.913
L61.397 109.966
L61.398 110.019
L61.398 110.195
L61.397 110.248
L61.394 110.301
L61.389 110.354
L61.369 110.529
L61.362 110.581
L61.353 110.634
L61.345 110.672
L61.307 110.844
L61.295 110.895
L61.280 110.946
L61.263 111.001
L61.205 111.168
L61.186 111.218
L61.166 111.267
L61.150 111.303
L61.075 111.463
L61.051 111.511
L61.026 111.557
L61.000 111.601
L60.908 111.751
L60.880 111.796
L60.850 111.839
L60.821 111.878
L60.713 112.017
L60.679 112.058
L60.644 112.098
L60.609 112.136
L60.486 112.262
L60.448 112.299
L60.409 112.335
L60.374 112.365
L60.238 112.477
L60.197 112.510
L60.154 112.541
L60.115 112.567
L59.967 112.664
L59.923 112.692
L59.877 112.719
L59.829 112.744
L59.672 112.823
L59.625 112.845
L59.576 112.867
L59.535 112.883
L59.370 112.945
L59.321 112.962
L59.270 112.978
L59.219 112.992
L59.048 113.035
L58.997 113.047
L58.945 113.057
L58.905 113.063
L58.730 113.088
L58.677 113.094
L58.625 113.099
L58.564 113.102
L58.388 113.106
L58.335 113.106
L58.282 113.104
L58.245 113.102
L58.069 113.088
L58.016 113.082
L57.964 113.075
L57.910 113.066
L57.737 113.032
L57.685 113.021
L57.634 113.007
L57.586 112.993
L57.418 112.940
L57.368 112.923
L57.318 112.905
L57.281 112.889
L57.120 112.819
L57.072 112.797
L57.024 112.773
L56.974 112.745
L56.821 112.656
L56.776 112.629
L56.732 112.600
L56.698 112.575
L56.556 112.471
L56.514 112.439
L56.473 112.406
L56.438 112.375
L56.308 112.256
L56.269 112.219
L56.232 112.181
L56.198 112.143
L56.082 112.010
L56.048 111.970
L56.015 111.928
L55.985 111.885
L55.885 111.740
L55.855 111.696
L55.828 111.651
L55.806 111.612
L55.722 111.457
L55.698 111.410
L55.675 111.362
L55.655 111.315
L55.589 111.152
L55.570 111.103
L55.553 111.053
L55.540 111.007
L55.492 110.837
L55.478 110.786
L55.467 110.735
L55.458 110.687
L55.429 110.513
L55.421 110.461
L55.416 110.408
L55.412 110.362
L55.402 110.186
L55.400 110.134
L55.400 110.081
L55.402 110.028
L55.412 109.852
L55.416 109.799
L55.422 109.746
L55.429 109.701
L55.458 109.527
L55.468 109.475
L55.479 109.423
L55.492 109.377
L55.540 109.207
L55.555 109.156
L55.572 109.106
L55.589 109.062
L55.655 108.899
L55.676 108.850
L55.699 108.802
L55.722 108.757
L55.806 108.602
L55.832 108.556
L55.860 108.511
L55.885 108.474
L55.985 108.329
L56.015 108.286
L56.048 108.244
L56.082 108.204
L56.198 108.071
L56.233 108.032
L56.270 107.994
L56.308 107.958
L56.438 107.839
L56.477 107.804
L56.518 107.771
L56.556 107.743
L56.698 107.639
L56.741 107.608
L56.785 107.579
L56.821 107.558
L56.974 107.469
L57.020 107.443
L57.067 107.419
L57.120 107.395
L57.281 107.325
L57.330 107.305
L57.379 107.287
L57.418 107.274
L57.586 107.221
L57.637 107.206
L57.688 107.193
L57.737 107.182
L57.910 107.148
L57.962 107.139
L58.015 107.132
L58.069 107.126
L58.245 107.112
L58.298 107.109
L58.351 107.108
L58.388 107.108
L58.564 107.112
M56.800 110.107
A1.600,1.600 0 1,0 60.000,110.107
A1.600,1.600 0 1,0 56.800,110.107
" 
fill="#e0e0e0" vector-effect="non-scaling-stroke" stroke="#000000" stroke-width="0.100mm" />
<path d="
M58.564 107.112
L58.617 107.115
L58.669 107.119
L58.730 107.126
L58.905 107.151
L58.957 107.160
L59.009 107.170
L59.048 107.179
L59.219 107.222
L59.270 107.236
L59.321 107.252
L59.370 107.269
L59.535 107.331
L59.585 107.351
L59.633 107.372
L59.672 107.391
L59.829 107.470
L59.876 107.495
L59.922 107.521
L59.967 107.550
L60.115 107.647
L60.159 107.677
L60.202 107.708
L60.238 107.737
L60.374 107.849
L60.414 107.884
L60.453 107.920
L60.486 107.952
L60.609 108.078
L60.645 108.117
L60.680 108.156
L60.713 108.197
L60.821 108.336
L60.852 108.378
L60.882 108.422
L60.908 108.463
L61.000 108.613
L61.027 108.659
L61.052 108.705
L61.075 108.751
L61.150 108.911
L61.171 108.959
L61.191 109.008
L61.205 109.046
L61.263 109.213
L61.279 109.263
L61.293 109.314
L61.307 109.370
L61.345 109.542
L61.355 109.594
L61.364 109.646
L61.369 109.685
L61.389 109.860
L61.394 109.913
L61.397 109.966
L61.398 110.019
L61.398 110.195
L61.397 110.248
L61.394 110.301
L61.389 110.354
L61.369 110.529
L61.362 110.581
L61.353 110.634
L61.345 110.672
L61.307 110.844
L61.295 110.895
L61.280 110.946
L61.263 111.001
L61.205 111.168
L61.186 111.218
L61.166 111.267
L61.150 111.303
L61.075 111.463
L61.051 111.511
L61.026 111.557
L61.000 111.601
L60.908 111.751
L60.880 111.796
L60.850 111.839
L60.821 111.878
L60.713 112.017
L60.679 112.058
L60.644 112.098
L60.609 112.136
L60.486 112.262
L60.448 112.299
L60.409 112.335
L60.374 112.365
L60.238 112.477
L60.197 112.510
L60.154 112.541
L60.115 112.567
L59.967 112.664
L59.923 112.692
L59.877 112.719
L59.829 112.744
L59.672 112.823
L59.625 112.845
L59.576 112.867
L59.535 112.883
L59.370 112.945
L59.321 112.962
L59.270 112.978
L59.219 112.992
L59.048 113.035
L58.997 113.047
L58.945 113.057
L58.905 113.063
L58.730 113.088
L58.677 113.094
L58.625 113.099
L58.564 113.102
L58.388 113.106
L58.335 113.106
L58.282 113.104
L58.245 113.102
L58.069 113.088
L58.016 113.082
L57.964 113.075
L57.910 113.066
L57.737 113.032
L57.685 113.021
L57.634 113.007
L57.586 112.993
L57.418 112.940
L57.368 112.923
L57.318 112.905
L57.281 112.889
L57.120 112.819
L57.072 112.797
L57.024 112.773
L56.974 112.745
L56.821 112.656
L56.776 112.629
L56.732 112.600
L56.698 112.575
L56.556 112.471
L56.514 112.439
L56.473 112.406
L56.438 112.375
L56.308 112.256
L56.269 112.219
L56.232 112.181
L56.198 112.143
L56.082 112.010
L56.048 111.970
L56.015 111.928
L55.985 111.885
L55.885 111.740
L55.855 111.696
L55.828 111.651
L55.806 111.612
L55.722 111.457
L55.698 111.410
L55.675 111.362
L55.655 111.315
L55.589 111.152
L55.570 111.103
L55.553 111.053
L55.540 111.007
L55.492 110.837
L55.478 110.786
L55.467 110.735
L55.458 110.687
L55.429 110.513
L55.421 110.461
L55.416 110.408
L55.412 110.362
L55.402 110.186
L55.400 110.134
L55.400 110.081
L55.402 110.028
L55.412 109.852
L55.416 109.799
L55.422 109.746
L55.429 109.701
L55.458 109.527
L55.468 109.475
L55.479 109.423
L55.492 109.377
L55.540 109.207
L55.555 109.156
L55.572 109.106
L55.589 109.062
L55.655 108.899
L55.676 108.850
L55.699 108.802
L55.722 108.757
L55.806 108.602
L55.832 108.556
L55.860 108.511
L55.885 108.474
L55.985 108.329
L56.015 108.286
L56.048 108.244
L56.082 108.204
L56.198 108.071
L56.233 108.032
L56.270 107.994
L56.308 107.958
L56.438 107.839
L56.477 107.804
L56.518 107.771
L56.556 107.743
L56.698 107.639
L56.741 107.608
L56.785 107.579
L56.821 107.558
L56.974 107.469
L57.020 107.443
L57.067 107.419
L57.120 107.395
L57.281 107.325
L57.330 107.305
L57.379 107.287
L57.418 107.274
L57.586 107.221
L57.637 107.206
L57.688 107.193
L57.737 107.182
L57.910 107.148
L57.962 107.139
L58.015 107.132
L58.069 107.126
L58.245 107.112
L58.298 107.109
L58.351 107.108
L58.388 107.108
L58.564 107.112
" 
fill="none" vector-effect="non-scaling-stroke" stroke="#000000" stroke-width="0.100mm" />
<path d="
M56.800 110.107
A1.600,1.600 0 1,0 60.000,110.107
A1.600,1.600 0 1,0 56.800,110.107
" 
fill="#ffffff" vector-effect="non-scaling-stroke" stroke="#000000" stroke-width="0.100mm" />
<path d="
M62.400 110.107
A7.250,7.250 0 1,0 76.900,110.107
A7.250,7.250 0 1,0 62.400,110.107
" 
fill="#ffffff" vector-effect="non-scaling-stroke" stroke="#000000" stroke-width="0.100mm" />
<path d="
M81.064 107.112
L81.117 107.115
L81.169 107.119
L81.230 107.126
L81.405 107.151
L81.457 107.160
L81.509 107.170
L81.548 107.179
L81.719 107.222
L81.770 107.236
L81.821 107.252
L81.870 107.269
L82.035 107.331
L82.085 107.351
L82.133 107.372
L82.172 107.391
L82.329 107.470
L82.376 107.495
L82.422 107.521
L82.467 107.550
L82.615 107.647
L82.659 107.677
L82.702 107.708
L82.738 107.737
L82.874 107.849
L82.914 107.884
L82.953 107.920
L82.986 107.952
L83.109 108.078
L83.145 108.117
L83.180 108.156
L83.213 108.197
L83.321 108.336
L83.352 108.378
L83.382 108.422
L83.408 108.463
L83.500 108.613
L83.527 108.659
L83.552 108.705
L83.575 108.751
L83.650 108.911
L83.671 108.959
L83.691 109.008
L83.705 109.046
L83.763 109.213
L83.779 109.263
L83.793 109.314
L83.807 109.370
L83.845 109.542
L83.855 109.594
L83.864 109.646
L83.869 109.685
L83.889 109.860
L83.894 109.913
L83.897 109.966
L83.898 110.019
L83.898 110.195
L83.897 110.248
L83.894 110.301
L83.889 110.354
L83.869 110.529
L83.862 110.581
L83.853 110.634
L83.845 110.672
L83.807 110.844
L83.795 110.895
L83.780 110.946
L83.763 111.001
L83.705 111.168
L83.686 111.218
L83.666 111.267
L83.650 111.303
L83.575 111.463
L83.551 111.511
L83.526 111.557
L83.500 111.601
L83.408 111.751
L83.380 111.796
L83.350 111.839
L83.321 111.878
L83.213 112.017
L83.179 112.058
L83.144 112.098
L83.109 112.136
L82.986 112.262
L82.948 112.299
L82.909 112.335
L82.874 112.365
L82.738 112.477
L82.697 112.510
L82.654 112.541
L82.615 112.567
L82.467 112.664
L82.423 112.692
L82.377 112.719
L82.329 112.744
L82.172 112.823
L82.125 112.845
L82.076 112.867
L82.035 112.883
L81.870 112.945
L81.821 112.962
L81.770 112.978
L81.719 112.992
L81.548 113.035
L81.497 113.047
L81.445 113.057
L81.405 113.063
L81.230 113.088
L81.177 113.094
L81.125 113.099
L81.064 113.102
L80.888 113.106
L80.835 113.106
L80.782 113.104
L80.745 113.102
L80.569 113.088
L80.516 113.082
L80.464 113.075
L80.410 113.066
L80.237 113.032
L80.185 113.021
L80.134 113.007
L80.086 112.993
L79.918 112.940
L79.868 112.923
L79.818 112.905
L79.781 112.889
L79.620 112.819
L79.572 112.797
L79.524 112.773
L79.474 112.745
L79.321 112.656
L79.276 112.629
L79.232 112.600
L79.198 112.575
L79.056 112.471
L79.014 112.439
L78.973 112.406
L78.938 112.375
L78.808 112.256
L78.769 112.219
L78.732 112.181
L78.698 112.143
L78.582 112.010
L78.548 111.970
L78.515 111.928
L78.485 111.885
L78.385 111.740
L78.355 111.696
L78.328 111.651
L78.306 111.612
L78.222 111.457
L78.198 111.410
L78.175 111.362
L78.155 111.315
L78.089 111.152
L78.070 111.103
L78.053 111.053
L78.040 111.007
L77.992 110.837
L77.978 110.786
L77.967 110.735
L77.958 110.687
L77.929 110.513
L77.921 110.461
L77.916 110.408
L77.912 110.362
L77.902 110.186
L77.900 110.134
L77.900 110.081
L77.902 110.028
L77.912 109.852
L77.916 109.799
L77.922 109.746
L77.929 109.701
L77.958 109.527
L77.968 109.475
L77.979 109.423
L77.992 109.377
L78.040 109.207
L78.055 109.156
L78.072 109.106
L78.089 109.062
L78.155 108.899
L78.176 108.850
L78.199 108.802
L78.222 108.757
L78.306 108.602
L78.332 108.556
L78.360 108.511
L78.385 108.474
L78.485 108.329
L78.515 108.286
L78.548 108.244
L78.582 108.204
L78.698 108.071
L78.733 108.032
L78.770 107.994
L78.808 107.958
L78.938 107.839
L78.977 107.804
L79.018 107.771
L79.056 107.743
L79.198 107.639
L79.241 107.608
L79.285 107.579
L79.321 107.558
L79.474 107.469
L79.520 107.443
L79.567 107.419
L79.620 107.395
L79.781 107.325
L79.830 107.305
L79.879 107.287
L79.918 107.274
L80.086 107.221
L80.137 107.206
L80.188 107.193
L80.237 107.182
L80.410 107.148
L80.462 107.139
L80.515 107.132
L80.569 107.126
L80.745 107.112
L80.798 107.109
L80.851 107.108
L80.888 107.108
L81.064 107.112
M79.300 110.107
A1.600,1.600 0 1,0 82.500,110.107
A1.600,1.600 0 1,0 79.300,110.107
" 
fill="#e0e0e0" vector-effect="non-scaling-stroke" stroke="#000000" stroke-width="0.100mm" />
<path d="
M81.064 107.112
L81.117 107.115
L81.169 107.119
L81.230 107.126
L81.405 107.151
L81.457 107.160
L81.509 107.170
L81.548 107.179
L81.719 107.222
L81.770 107.236
L81.821 107.252
L81.870 107.269
L82.035 107.331
L82.085 107.351
L82.133 107.372
L82.172 107.391
L82.329 107.470
L82.376 107.495
L82.422 107.521
L82.467 107.550
L82.615 107.647
L82.659 107.677
L82.702 107.708
L82.738 107.737
L82.874 107.849
L82.914 107.884
L82.953 107.920
L82.986 107.952
L83.109 108.078
L83.145 108.117
L83.180 108.156
L83.213 108.197
L83.321 108.336
L83.352 108.378
L83.382 108.422
L83.408 108.463
L83.500 108.613
L83.527 108.659
L83.552 108.705
L83.575 108.751
L83.650 108.911
L83.671 108.959
L83.691 109.008
L83.705 109.046
L83.763 109.213
L83.779 109.263
L83.793 109.314
L83.807 109.370
L83.845 109.542
L83.855 109.594
L83.864 109.646
L83.869 109.685
L83.889 109.860
L83.894 109.913
L83.897 109.966
L83.898 110.019
L83.898 110.195
L83.897 110.248
L83.894 110.301
L83.889 110.354
L83.869 110.529
L83.862 110.581
L83.853 110.634
L83.845 110.672
L83.807 110.844
L83.795 110.895
L83.780 110.946
L83.763 111.001
L83.705 111.168
L83.686 111.218
L83.666 111.267
L83.650 111.303
L83.575 111.463
L83.551 111.511
L83.526 111.557
L83.500 111.601
L83.408 111.751
L83.380 111.796
L83.350 111.839
L83.321 111.878
L83.213 112.017
L83.179 112.058
L83.144 112.098
L83.109 112.136
L82.986 112.262
L82.948 112.299
L82.909 112.335
L82.874 112.365
L82.738 112.477
L82.697 112.510
L82.654 112.541
L82.615 112.567
L82.467 112.664
L82.423 112.692
L82.377 112.719
L82.329 112.744
L82.172 112.823
L82.125 112.845
L82.076 112.867
L82.035 112.883
L81.870 112.945
L81.821 112.962
L81.770 112.978
L81.719 112.992
L81.548 113.035
L81.497 113.047
L81.445 113.057
L81.405 113.063
L81.230 113.088
L81.177 113.094
L81.125 113.099
L81.064 113.102
L80.888 113.106
L80.835 113.106
L80.782 113.104
L80.745 113.102
L80.569 113.088
L80.516 113.082
L80.464 113.075
L80.410 113.066
L80.237 113.032
L80.185 113.021
L80.134 113.007
L80.086 112.993
L79.918 112.940
L79.868 112.923
L79.818 112.905
L79.781 112.889
L79.620 112.819
L79.572 112.797
L79.524 112.773
L79.474 112.745
L79.321 112.656
L79.276 112.629
L79.232 112.600
L79.198 112.575
L79.056 112.471
L79.014 112.439
L78.973 112.406
L78.938 112.375
L78.808 112.256
L78.769 112.219
L78.732 112.181
L78.698 112.143
L78.582 112.010
L78.548 111.970
L78.515 111.928
L78.485 111.885
L78.385 111.740
L78.355 111.696
L78.328 111.651
L78.306 111.612
L78.222 111.457
L78.198 111.410
L78.175 111.362
L78.155 111.315
L78.089 111.152
L78.070 111.103
L78.053 111.053
L78.040 111.007
L77.992 110.837
L77.978 110.786
L77.967 110.735
L77.958 110.687
L77.929 110.513
L77.921 110.461
L77.916 110.408
L77.912 110.362
L77.902 110.186
L77.900 110.134
L77.900 110.081
L77.902 110.028
L77.912 109.852
L77.916 109.799
L77.922 109.746
L77.929 109.701
L77.958 109.527
L77.968 109.475
L77.979 109.423
L77.992 109.377
L78.040 109.207
L78.055 109.156
L78.072 109.106
L78.089 109.062
L78.155 108.899
L78.176 108.850
L78.199 108.802
L78.222 108.757
L78.306 108.602
L78.332 108.556
L78.360 108.511
L78.385 108.474
L78.485 108.329
L78.515 108.286
L78.548 108.244
L78.582 108.204
L78.698 108.071
L78.733 108.032
L78.770 107.994
L78.808 107.958
L78.938 107.839
L78.977 107.804
L79.018 107.771
L79.056 107.743
L79.198 107.639
L79.241 107.608
L79.285 107.579
L79.321 107.558
L79.474 107.469
L79.520 107.443
L79.567 107.419
L79.620 107.395
L79.781 107.325
L79.830 107.305
L79.879 107.287
L79.918 107.274
L80.086 107.221
L80.137 107.206
L80.188 107.193
L80.237 107.182
L80.410 107.148
L80.462 107.139
L80.515 107.132
L80.569 107.126
L80.745 107.112
L80.798 107.109
L80.851 107.108
L80.888 107.108
L81.064 107.112
" 
fill="none" vector-effect="non-scaling-stroke" stroke="#000000" stroke-width="0.100mm" />
<path d="
M79.300 110.107
A1.600,1.600 0 1,0 82.500,110.107
A1.600,1.600 0 1,0 79.300,110.107
" 
fill="#ffffff" vector-effect="non-scaling-stroke" stroke="#000000" stroke-width="0.100mm" />
<path d="
M94.814 83.612
L94.867 83.615
L94.919 83.619
L94.980 83.626
L95.155 83.651
L95.207 83.660
L95.259 83.670
L95.298 83.679
L95.469 83.722
L95.520 83.736
L95.571 83.752
L95.620 83.769
L95.785 83.831
L95.835 83.851
L95.883 83.872
L95.922 83.891
L96.079 83.970
L96.126 83.995
L96.172 84.021
L96.217 84.050
L96.365 84.147
L96.409 84.177
L96.452 84.208
L96.488 84.237
L96.624 84.349
L96.664 84.384
L96.703 84.420
L96.736 84.452
L96.859 84.578
L96.895 84.617
L96.930 84.656
L96.963 84.697
L97.071 84.836
L97.102 84.878
L97.132 84.922
L97.158 84.963
L97.250 85.113
L97.277 85.159
L97.302 85.205
L97.325 85.251
L97.400 85.411
L97.421 85.459
L97.441 85.508
L97.455 85.546
L97.513 85.713
L97.529 85.763
L97.543 85.814
L97.557 85.870
L97.595 86.042
L97.605 86.094
L97.614 86.146
L97.619 86.185
L97.639 86.360
L97.644 86.413
L97.647 86.466
L97.648 86.519
L97.648 86.695
L97.647 86.748
L97.644 86.801
L97.639 86.854
L97.619 87.029
L97.612 87.081
L97.603 87.134
L97.595 87.172
L97.557 87.344
L97.545 87.395
L97.530 87.446
L97.513 87.501
L97.455 87.668
L97.436 87.718
L97.416 87.767
L97.400 87.803
L97.325 87.963
L97.301 88.011
L97.276 88.057
L97.250 88.101
L97.158 88.251
L97.130 88.296
L97.100 88.339
L97.071 88.378
L96.963 88.517
L96.929 88.558
L96.894 88.598
L96.859 88.636
L96.736 88.762
L96.698 88.799
L96.659 88.835
L96.624 88.865
L96.488 88.977
L96.447 89.010
L96.404 89.041
L96.365 89.067
L96.217 89.164
L96.173 89.192
L96.127 89.219
L96.079 89.244
L95.922 89.323
L95.875 89.345
L95.826 89.367
L95.785 89.383
L95.620 89.445
L95.571 89.462
L95.520 89.478
L95.469 89.492
L95.298 89.535
L95.247 89.547
L95.195 89.557
L95.155 89.563
L94.980 89.588
L94.927 89.594
L94.875 89.599
L94.814 89.602
L94.638 89.606
L94.585 89.606
L94.532 89.604
L94.495 89.602
L94.319 89.588
L94.266 89.582
L94.214 89.575
L94.160 89.566
L93.987 89.532
L93.935 89.521
L93.884 89.507
L93.836 89.493
L93.668 89.440
L93.618 89.423
L93.568 89.405
L93.531 89.389
L93.370 89.319
L93.322 89.297
L93.274 89.273
L93.224 89.245
L93.071 89.156
L93.026 89.129
L92.982 89.100
L92.948 89.075
L92.806 88.971
L92.764 88.939
L92.723 88.906
L92.688 88.875
L92.558 88.756
L92.519 88.719
L92.482 88.681
L92.448 88.643
L92.332 88.510
L92.298 88.470
L92.265 88.428
L92.235 88.385
L92.135 88.240
L92.105 88.196
L92.078 88.151
L92.056 88.112
L91.972 87.957
L91.948 87.910
L91.925 87.862
L91.905 87.815
L91.839 87.652
L91.820 87.603
L91.803 87.553
L91.790 87.507
L91.742 87.337
L91.728 87.286
L91.717 87.235
L91.708 87.187
L91.679 87.013
L91.671 86.961
L91.666 86.908
L91.662 86.862
L91.652 86.686
L91.650 86.634
L91.650 86.581
L91.652 86.528
L91.662 86.352
L91.666 86.299
L91.672 86.246
L91.679 86.201
L91.708 86.027
L91.718 85.975
L91.729 85.923
L91.742 85.877
L91.790 85.707
L91.805 85.656
L91.822 85.606
L91.839 85.562
L91.905 85.399
L91.926 85.350
L91.949 85.302
L91.972 85.257
L92.056 85.102
L92.082 85.056
L92.110 85.011
L92.135 84.974
L92.235 84.829
L92.265 84.786
L92.298 84.744
L92.332 84.704
L92.448 84.571
L92.483 84.532
L92.520 84.494
L92.558 84.458
L92.688 84.339
L92.727 84.304
L92.768 84.271
L92.806 84.243
L92.948 84.139
L92.991 84.108
L93.035 84.079
L93.071 84.058
L93.224 83.969
L93.270 83.943
L93.317 83.919
L93.370 83.895
L93.531 83.825
L93.580 83.805
L93.629 83.787
L93.668 83.774
L93.836 83.721
L93.887 83.706
L93.938 83.693
L93.987 83.682
L94.160 83.648
L94.212 83.639
L94.265 83.632
L94.319 83.626
L94.495 83.612
L94.548 83.609
L94.601 83.608
L94.638 83.608
L94.814 83.612
M93.050 86.607
A1.600,1.600 0 1,0 96.250,86.607
A1.600,1.600 0 1,0 93.050,86.607
" 
fill="#e0e0e0" vector-effect="non-scaling-stroke" stroke="#000000" stroke-width="0.100mm" />
<path d="
M94.814 83.612
L94.867 83.615
L94.919 83.619
L94.980 83.626
L95.155 83.651
L95.207 83.660
L95.259 83.670
L95.298 83.679
L95.469 83.722
L95.520 83.736
L95.571 83.752
L95.620 83.769
L95.785 83.831
L95.835 83.851
L95.883 83.872
L95.922 83.891
L96.079 83.970
L96.126 83.995
L96.172 84.021
L96.217 84.050
L96.365 84.147
L96.409 84.177
L96.452 84.208
L96.488 84.237
L96.624 84.349
L96.664 84.384
L96.703 84.420
L96.736 84.452
L96.859 84.578
L96.895 84.617
L96.930 84.656
L96.963 84.697
L97.071 84.836
L97.102 84.878
L97.132 84.922
L97.158 84.963
L97.250 85.113
L97.277 85.159
L97.302 85.205
L97.325 85.251
L97.400 85.411
L97.421 85.459
L97.441 85.508
L97.455 85.546
L97.513 85.713
L97.529 85.763
L97.543 85.814
L97.557 85.870
L97.595 86.042
L97.605 86.094
L97.614 86.146
L97.619 86.185
L97.639 86.360
L97.644 86.413
L97.647 86.466
L97.648 86.519
L97.648 86.695
L97.647 86.748
L97.644 86.801
L97.639 86.854
L97.619 87.029
L97.612 87.081
L97.603 87.134
L97.595 87.172
L97.557 87.344
L97.545 87.395
L97.530 87.446
L97.513 87.501
L97.455 87.668
L97.436 87.718
L97.416 87.767
L97.400 87.803
L97.325 87.963
L97.301 88.011
L97.276 88.057
L97.250 88.101
L97.158 88.251
L97.130 88.296
L97.100 88.339
L97.071 88.378
L96.963 88.517
L96.929 88.558
L96.894 88.598
L96.859 88.636
L96.736 88.762
L96.698 88.799
L96.659 88.835
L96.624 88.865
L96.488 88.977
L96.447 89.010
L96.404 89.041
L96.365 89.067
L96.217 89.164
L96.173 89.192
L96.127 89.219
L96.079 89.244
L95.922 89.323
L95.875 89.345
L95.826 89.367
L95.785 89.383
L95.620 89.445
L95.571 89.462
L95.520 89.478
L95.469 89.492
L95.298 89.535
L95.247 89.547
L95.195 89.557
L95.155 89.563
L94.980 89.588
L94.927 89.594
L94.875 89.599
L94.814 89.602
L94.638 89.606
L94.585 89.606
L94.532 89.604
L94.495 89.602
L94.319 89.588
L94.266 89.582
L94.214 89.575
L94.160 89.566
L93.987 89.532
L93.935 89.521
L93.884 89.507
L93.836 89.493
L93.668 89.440
L93.618 89.423
L93.568 89.405
L93.531 89.389
L93.370 89.319
L93.322 89.297
L93.274 89.273
L93.224 89.245
L93.071 89.156
L93.026 89.129
L92.982 89.100
L92.948 89.075
L92.806 88.971
L92.764 88.939
L92.723 88.906
L92.688 88.875
L92.558 88.756
L92.519 88.719
L92.482 88.681
L92.448 88.643
L92.332 88.510
L92.298 88.470
L92.265 88.428
L92.235 88.385
L92.135 88.240
L92.105 88.196
L92.078 88.151
L92.056 88.112
L91.972 87.957
L91.948 87.910
L91.925 87.862
L91.905 87.815
L91.839 87.652
L91.820 87.603
L91.803 87.553
L91.790 87.507
L91.742 87.337
L91.728 87.286
L91.717 87.235
L91.708 87.187
L91.679 87.013
L91.671 86.961
L91.666 86.908
L91.662 86.862
L91.652 86.686
L91.650 86.634
L91.650 86.581
L91.652 86.528
L91.662 86.352
L91.666 86.299
L91.672 86.246
L91.679 86.201
L91.708 86.027
L91.718 85.975
L91.729 85.923
L91.742 85.877
L91.790 85.707
L91.805 85.656
L91.822 85.606
L91.839 85.562
L91.905 85.399
L91.926 85.350
L91.949 85.302
L91.972 85.257
L92.056 85.102
L92.082 85.056
L92.110 85.011
L92.135 84.974
L92.235 84.829
L92.265 84.786
L92.298 84.744
L92.332 84.704
L92.448 84.571
L92.483 84.532
L92.520 84.494
L92.558 84.458
L92.688 84.339
L92.727 84.304
L92.768 84.271
L92.806 84.243
L92.948 84.139
L92.991 84.108
L93.035 84.079
L93.071 84.058
L93.224 83.969
L93.270 83.943
L93.317 83.919
L93.370 83.895
L93.531 83.825
L93.580 83.805
L93.629 83.787
L93.668 83.774
L93.836 83.721
L93.887 83.706
L93.938 83.693
L93.987 83.682
L94.160 83.648
L94.212 83.639
L94.265 83.632
L94.319 83.626
L94.495 83.612
L94.548 83.609
L94.601 83.608
L94.638 83.608
L94.814 83.612
" 
fill="none" vector-effect="non-scaling-stroke" stroke="#000000" stroke-width="0.100mm" />
<path d="
M93.050 86.607
A1.600,1.600 0 1,0 96.250,86.607
A1.600,1.600 0 1,0 93.050,86.607
" 
fill="#ffffff" vector-effect="non-scaling-stroke" stroke="#000000" stroke-width="0.100mm" />
<path d="
M90.150 107.107
A0.500,0.500 0 0,1 89.650,106.607
L89.650 95.607
A0.500,0.500 0 0,1 90.150,95.107
L99.150 95.107
A0.500,0.500 0 0,1 99.650,95.607
L99.650 106.607
A0.500,0.500 0 0,1 99.150,107.107
L90.150 107.107
" 
fill="#ffffff" vector-effect="non-scaling-stroke" stroke="#000000" stroke-width="0.100mm" />
<path d="
M94.814 112.612
L94.867 112.615
L94.919 112.619
L94.980 112.626
L95.155 112.651
L95.207 112.660
L95.259 112.670
L95.298 112.679
L95.469 112.722
L95.520 112.736
L95.571 112.752
L95.620 112.769
L95.785 112.831
L95.835 112.851
L95.883 112.872
L95.922 112.891
L96.079 112.970
L96.126 112.995
L96.172 113.021
L96.217 113.050
L96.365 113.147
L96.409 113.177
L96.452 113.208
L96.488 113.237
L96.624 113.349
L96.664 113.384
L96.703 113.420
L96.736 113.452
L96.859 113.578
L96.895 113.617
L96.930 113.656
L96.963 113.697
L97.071 113.836
L97.102 113.878
L97.132 113.922
L97.158 113.963
L97.250 114.113
L97.277 114.159
L97.302 114.205
L97.325 114.251
L97.400 114.411
L97.421 114.459
L97.441 114.508
L97.455 114.546
L97.513 114.713
L97.529 114.763
L97.543 114.814
L97.557 114.870
L97.595 115.042
L97.605 115.094
L97.614 115.146
L97.619 115.185
L97.639 115.360
L97.644 115.413
L97.647 115.466
L97.648 115.519
L97.648 115.695
L97.647 115.748
L97.644 115.801
L97.639 115.854
L97.619 116.029
L97.612 116.081
L97.603 116.134
L97.595 116.172
L97.557 116.344
L97.545 116.395
L97.530 116.446
L97.513 116.501
L97.455 116.668
L97.436 116.718
L97.416 116.767
L97.400 116.803
L97.325 116.963
L97.301 117.011
L97.276 117.057
L97.250 117.101
L97.158 117.251
L97.130 117.296
L97.100 117.339
L97.071 117.378
L96.963 117.517
L96.929 117.558
L96.894 117.598
L96.859 117.636
L96.736 117.762
L96.698 117.799
L96.659 117.835
L96.624 117.865
L96.488 117.977
L96.447 118.010
L96.404 118.041
L96.365 118.067
L96.217 118.164
L96.173 118.192
L96.127 118.219
L96.079 118.244
L95.922 118.323
L95.875 118.345
L95.826 118.367
L95.785 118.383
L95.620 118.445
L95.571 118.462
L95.520 118.478
L95.469 118.492
L95.298 118.535
L95.247 118.547
L95.195 118.557
L95.155 118.563
L94.980 118.588
L94.927 118.594
L94.875 118.599
L94.814 118.602
L94.638 118.606
L94.585 118.606
L94.532 118.604
L94.495 118.602
L94.319 118.588
L94.266 118.582
L94.214 118.575
L94.160 118.566
L93.987 118.532
L93.935 118.521
L93.884 118.507
L93.836 118.493
L93.668 118.440
L93.618 118.423
L93.568 118.405
L93.531 118.389
L93.370 118.319
L93.322 118.297
L93.274 118.273
L93.224 118.245
L93.071 118.156
L93.026 118.129
L92.982 118.100
L92.948 118.075
L92.806 117.971
L92.764 117.939
L92.723 117.906
L92.688 117.875
L92.558 117.756
L92.519 117.719
L92.482 117.681
L92.448 117.643
L92.332 117.510
L92.298 117.470
L92.265 117.428
L92.235 117.385
L92.135 117.240
L92.105 117.196
L92.078 117.151
L92.056 117.112
L91.972 116.957
L91.948 116.910
L91.925 116.862
L91.905 116.815
L91.839 116.652
L91.820 116.603
L91.803 116.553
L91.790 116.507
L91.742 116.337
L91.728 116.286
L91.717 116.235
L91.708 116.187
L91.679 116.013
L91.671 115.961
L91.666 115.908
L91.662 115.862
L91.652 115.686
L91.650 115.634
L91.650 115.581
L91.652 115.528
L91.662 115.352
L91.666 115.299
L91.672 115.246
L91.679 115.201
L91.708 115.027
L91.718 114.975
L91.729 114.923
L91.742 114.877
L91.790 114.707
L91.805 114.656
L91.822 114.606
L91.839 114.562
L91.905 114.399
L91.926 114.350
L91.949 114.302
L91.972 114.257
L92.056 114.102
L92.082 114.056
L92.110 114.011
L92.135 113.974
L92.235 113.829
L92.265 113.786
L92.298 113.744
L92.332 113.704
L92.448 113.571
L92.483 113.532
L92.520 113.494
L92.558 113.458
L92.688 113.339
L92.727 113.304
L92.768 113.271
L92.806 113.243
L92.948 113.139
L92.991 113.108
L93.035 113.079
L93.071 113.058
L93.224 112.969
L93.270 112.943
L93.317 112.919
L93.370 112.895
L93.531 112.825
L93.580 112.805
L93.629 112.787
L93.668 112.774
L93.836 112.721
L93.887 112.706
L93.938 112.693
L93.987 112.682
L94.160 112.648
L94.212 112.639
L94.265 112.632
L94.319 112.626
L94.495 112.612
L94.548 112.609
L94.601 112.608
L94.638 112.608
L94.814 112.612
M93.050 115.607
A1.600,1.600 0 1,0 96.250,115.607
A1.600,1.600 0 1,0 93.050,115.607
" 
fill="#e0e0e0" vector-effect="non-scaling-stroke" stroke="#000000" stroke-width="0.100mm" />
<path d="
M94.814 112.612
L94.867 112.615
L94.919 112.619
L94.980 112.626
L95.155 112.651
L95.207 112.660
L95.259 112.670
L95.298 112.679
L95.469 112.722
L95.520 112.736
L95.571 112.752
L95.620 112.769
L95.785 112.831
L95.835 112.851
L95.883 112.872
L95.922 112.891
L96.079 112.970
L96.126 112.995
L96.172 113.021
L96.217 113.050
L96.365 113.147
L96.409 113.177
L96.452 113.208
L96.488 113.237
L96.624 113.349
L96.664 113.384
L96.703 113.420
L96.736 113.452
L96.859 113.578
L96.895 113.617
L96.930 113.656
L96.963 113.697
L97.071 113.836
L97.102 113.878
L97.132 113.922
L97.158 113.963
L97.250 114.113
L97.277 114.159
L97.302 114.205
L97.325 114.251
L97.400 114.411
L97.421 114.459
L97.441 114.508
L97.455 114.546
L97.513 114.713
L97.529 114.763
L97.543 114.814
L97.557 114.870
L97.595 115.042
L97.605 115.094
L97.614 115.146
L97.619 115.185
L97.639 115.360
L97.644 115.413
L97.647 115.466
L97.648 115.519
L97.648 115.695
L97.647 115.748
L97.644 115.801
L97.639 115.854
L97.619 116.029
L97.612 116.081
L97.603 116.134
L97.595 116.172
L97.557 116.344
L97.545 116.395
L97.530 116.446
L97.513 116.501
L97.455 116.668
L97.436 116.718
L97.416 116.767
L97.400 116.803
L97.325 116.963
L97.301 117.011
L97.276 117.057
L97.250 117.101
L97.158 117.251
L97.130 117.296
L97.100 117.339
L97.071 117.378
L96.963 117.517
L96.929 117.558
L96.894 117.598
L96.859 117.636
L96.736 117.762
L96.698 117.799
L96.659 117.835
L96.624 117.865
L96.488 117.977
L96.447 118.010
L96.404 118.041
L96.365 118.067
L96.217 118.164
L96.173 118.192
L96.127 118.219
L96.079 118.244
L95.922 118.323
L95.875 118.345
L95.826 118.367
L95.785 118.383
L95.620 118.445
L95.571 118.462
L95.520 118.478
L95.469 118.492
L95.298 118.535
L95.247 118.547
L95.195 118.557
L95.155 118.563
L94.980 118.588
L94.927 118.594
L94.875 118.599
L94.814 118.602
L94.638 118.606
L94.585 118.606
L94.532 118.604
L94.495 118.602
L94.319 118.588
L94.266 118.582
L94.214 118.575
L94.160 118.566
L93.987 118.532
L93.935 118.521
L93.884 118.507
L93.836 118.493
L93.668 118.440
L93.618 118.423
L93.568 118.405
L93.531 118.389
L93.370 118.319
L93.322 118.297
L93.274 118.273
L93.224 118.245
L93.071 118.156
L93.026 118.129
L92.982 118.100
L92.948 118.075
L92.806 117.971
L92.764 117.939
L92.723 117.906
L92.688 117.875
L92.558 117.756
L92.519 117.719
L92.482 117.681
L92.448 117.643
L92.332 117.510
L92.298 117.470
L92.265 117.428
L92.235 117.385
L92.135 117.240
L92.105 117.196
L92.078 117.151
L92.056 117.112
L91.972 116.957
L91.948 116.910
L91.925 116.862
L91.905 116.815
L91.839 116.652
L91.820 116.603
L91.803 116.553
L91.790 116.507
L91.742 116.337
L91.728 116.286
L91.717 116.235
L91.708 116.187
L91.679 116.013
L91.671 115.961
L91.666 115.908
L91.662 115.862
L91.652 115.686
L91.650 115.634
L91.650 115.581
L91.652 115.528
L91.662 115.352
L91.666 115.299
L91.672 115.246
L91.679 115.201
L91.708 115.027
L91.718 114.975
L91.729 114.923
L91.742 114.877
L91.790 114.707
L91.805 114.656
L91.822 114.606
L91.839 114.562
L91.905 114.399
L91.926 114.350
L91.949 114.302
L91.972 114.257
L92.056 114.102
L92.082 114.056
L92.110 114.011
L92.135 113.974
L92.235 113.829
L92.265 113.786
L92.298 113.744
L92.332 113.704
L92.448 113.571
L92.483 113.532
L92.520 113.494
L92.558 113.458
L92.688 113.339
L92.727 113.304
L92.768 113.271
L92.806 113.243
L92.948 113.139
L92.991 113.108
L93.035 113.079
L93.071 113.058
L93.224 112.969
L93.270 112.943
L93.317 112.919
L93.370 112.895
L93.531 112.825
L93.580 112.805
L93.629 112.787
L93.668 112.774
L93.836 112.721
L93.887 112.706
L93.938 112.693
L93.987 112.682
L94.160 112.648
L94.212 112.639
L94.265 112.632
L94.319 112.626
L94.495 112.612
L94.548 112.609
L94.601 112.608
L94.638 112.608
L94.814 112.612
" 
fill="none" vector-effect="non-scaling-stroke" stroke="#000000" stroke-width="0.100mm" />
<path d="
M93.050 115.607
A1.600,1.600 0 1,0 96.250,115.607
A1.600,1.600 0 1,0 93.050,115.607
" 
fill="#ffffff" vector-effect="non-scaling-stroke" stroke="#000000" stroke-width="0.100mm" />
<path d="
M8.750 50.500
A0.500,0.500 0 0,1 8.250,50.000
L8.250 21.500
A0.500,0.500 0 0,1 8.750,21.000
L37.250 21.000
A0.500,0.500 0 0,1 37.750,21.500
L37.750 50.000
A0.500,0.500 0 0,1 37.250,50.500
L8.750 50.500
" 
fill="#ffffff" vector-effect="non-scaling-stroke" stroke="#000000" stroke-width="0.100mm" />
<path d="
M35.574 51.602
L35.618 51.606
L35.764 51.620
L35.810 51.625
L35.855 51.633
L35.907 51.643
L36.050 51.677
L36.094 51.689
L36.138 51.703
L36.186 51.720
L36.323 51.773
L36.365 51.790
L36.407 51.809
L36.450 51.832
L36.579 51.903
L36.619 51.926
L36.658 51.951
L36.696 51.978
L36.814 52.065
L36.850 52.093
L36.885 52.122
L36.919 52.153
L37.025 52.255
L37.057 52.288
L37.088 52.322
L37.120 52.360
L37.211 52.475
L37.239 52.512
L37.265 52.550
L37.292 52.593
L37.367 52.720
L37.390 52.760
L37.410 52.801
L37.430 52.846
L37.487 52.981
L37.504 53.023
L37.519 53.066
L37.533 53.111
L37.572 53.253
L37.583 53.297
L37.592 53.342
L37.599 53.388
L37.619 53.534
L37.625 53.580
L37.628 53.626
L37.629 53.677
L37.629 53.823
L37.628 53.869
L37.625 53.915
L37.619 53.966
L37.599 54.112
L37.592 54.157
L37.583 54.202
L37.572 54.247
L37.533 54.389
L37.519 54.433
L37.504 54.476
L37.487 54.519
L37.430 54.654
L37.412 54.696
L37.391 54.737
L37.367 54.780
L37.292 54.907
L37.268 54.946
L37.242 54.984
L37.211 55.025
L37.120 55.140
L37.091 55.175
L37.060 55.209
L37.025 55.245
L36.919 55.347
L36.885 55.378
L36.850 55.407
L36.814 55.435
L36.696 55.522
L36.659 55.549
L36.620 55.573
L36.579 55.597
L36.450 55.668
L36.410 55.689
L36.368 55.709
L36.323 55.727
L36.186 55.780
L36.143 55.796
L36.099 55.810
L36.050 55.823
L35.907 55.857
L35.862 55.866
L35.817 55.874
L35.764 55.880
L35.618 55.894
L35.573 55.898
L35.527 55.899
L35.482 55.898
L35.335 55.893
L35.290 55.891
L35.244 55.886
L35.200 55.880
L35.055 55.856
L35.010 55.847
L34.965 55.837
L34.911 55.822
L34.771 55.778
L34.728 55.763
L34.685 55.746
L34.651 55.732
L34.517 55.671
L34.476 55.651
L34.435 55.629
L34.385 55.598
L34.262 55.519
L34.224 55.494
L34.187 55.467
L34.153 55.440
L34.040 55.345
L34.006 55.314
L33.973 55.283
L33.935 55.243
L33.837 55.134
L33.807 55.099
L33.779 55.063
L33.752 55.026
L33.669 54.905
L33.644 54.867
L33.621 54.827
L33.599 54.786
L33.532 54.654
L33.512 54.613
L33.494 54.571
L33.476 54.524
L33.428 54.386
L33.414 54.342
L33.402 54.298
L33.391 54.248
L33.362 54.104
L33.354 54.059
L33.348 54.014
L33.343 53.968
L33.333 53.821
L33.331 53.775
L33.331 53.730
L33.333 53.679
L33.343 53.532
L33.348 53.486
L33.354 53.441
L33.362 53.396
L33.391 53.252
L33.401 53.207
L33.413 53.163
L33.428 53.114
L33.476 52.976
L33.492 52.933
L33.510 52.891
L33.532 52.846
L33.599 52.714
L33.620 52.673
L33.644 52.634
L33.669 52.595
L33.752 52.474
L33.779 52.437
L33.807 52.401
L33.837 52.366
L33.935 52.257
L33.967 52.224
L33.999 52.192
L34.040 52.155
L34.153 52.060
L34.189 52.032
L34.226 52.004
L34.262 51.981
L34.385 51.902
L34.424 51.878
L34.464 51.855
L34.517 51.829
L34.651 51.768
L34.693 51.750
L34.736 51.734
L34.771 51.722
L34.911 51.678
L34.955 51.666
L35.000 51.655
L35.055 51.644
L35.200 51.620
L35.245 51.614
L35.291 51.609
L35.335 51.607
L35.482 51.602
L35.528 51.601
L35.574 51.602
M34.381 53.750
A1.100,1.100 0 1,0 36.581,53.750
A1.100,1.100 0 1,0 34.381,53.750
" 
fill="#e0e0e0" vector-effect="non-scaling-stroke" stroke="#000000" stroke-width="0.100mm" />
<path d="
M35.574 51.602
L35.618 51.606
L35.764 51.620
L35.810 51.625
L35.855 51.633
L35.907 51.643
L36.050 51.677
L36.094 51.689
L36.138 51.703
L36.186 51.720
L36.323 51.773
L36.365 51.790
L36.407 51.809
L36.450 51.832
L36.579 51.903
L36.619 51.926
L36.658 51.951
L36.696 51.978
L36.814 52.065
L36.850 52.093
L36.885 52.122
L36.919 52.153
L37.025 52.255
L37.057 52.288
L37.088 52.322
L37.120 52.360
L37.211 52.475
L37.239 52.512
L37.265 52.550
L37.292 52.593
L37.367 52.720
L37.390 52.760
L37.410 52.801
L37.430 52.846
L37.487 52.981
L37.504 53.023
L37.519 53.066
L37.533 53.111
L37.572 53.253
L37.583 53.297
L37.592 53.342
L37.599 53.388
L37.619 53.534
L37.625 53.580
L37.628 53.626
L37.629 53.677
L37.629 53.823
L37.628 53.869
L37.625 53.915
L37.619 53.966
L37.599 54.112
L37.592 54.157
L37.583 54.202
L37.572 54.247
L37.533 54.389
L37.519 54.433
L37.504 54.476
L37.487 54.519
L37.430 54.654
L37.412 54.696
L37.391 54.737
L37.367 54.780
L37.292 54.907
L37.268 54.946
L37.242 54.984
L37.211 55.025
L37.120 55.140
L37.091 55.175
L37.060 55.209
L37.025 55.245
L36.919 55.347
L36.885 55.378
L36.850 55.407
L36.814 55.435
L36.696 55.522
L36.659 55.549
L36.620 55.573
L36.579 55.597
L36.450 55.668
L36.410 55.689
L36.368 55.709
L36.323 55.727
L36.186 55.780
L36.143 55.796
L36.099 55.810
L36.050 55.823
L35.907 55.857
L35.862 55.866
L35.817 55.874
L35.764 55.880
L35.618 55.894
L35.573 55.898
L35.527 55.899
L35.482 55.898
L35.335 55.893
L35.290 55.891
L35.244 55.886
L35.200 55.880
L35.055 55.856
L35.010 55.847
L34.965 55.837
L34.911 55.822
L34.771 55.778
L34.728 55.763
L34.685 55.746
L34.651 55.732
L34.517 55.671
L34.476 55.651
L34.435 55.629
L34.385 55.598
L34.262 55.519
L34.224 55.494
L34.187 55.467
L34.153 55.440
L34.040 55.345
L34.006 55.314
L33.973 55.283
L33.935 55.243
L33.837 55.134
L33.807 55.099
L33.779 55.063
L33.752 55.026
L33.669 54.905
L33.644 54.867
L33.621 54.827
L33.599 54.786
L33.532 54.654
L33.512 54.613
L33.494 54.571
L33.476 54.524
L33.428 54.386
L33.414 54.342
L33.402 54.298
L33.391 54.248
L33.362 54.104
L33.354 54.059
L33.348 54.014
L33.343 53.968
L33.333 53.821
L33.331 53.775
L33.331 53.730
L33.333 53.679
L33.343 53.532
L33.348 53.486
L33.354 53.441
L33.362 53.396
L33.391 53.252
L33.401 53.207
L33.413 53.163
L33.428 53.114
L33.476 52.976
L33.492 52.933
L33.510 52.891
L33.532 52.846
L33.599 52.714
L33.620 52.673
L33.644 52.634
L33.669 52.595
L33.752 52.474
L33.779 52.437
L33.807 52.401
L33.837 52.366
L33.935 52.257
L33.967 52.224
L33.999 52.192
L34.040 52.155
L34.153 52.060
L34.189 52.032
L34.226 52.004
L34.262 51.981
L34.385 51.902
L34.424 51.878
L34.464 51.855
L34.517 51.829
L34.651 51.768
L34.693 51.750
L34.736 51.734
L34.771 51.722
L34.911 51.678
L34.955 51.666
L35.000 51.655
L35.055 51.644
L35.200 51.620
L35.245 51.614
L35.291 51.609
L35.335 51.607
L35.482 51.602
L35.528 51.601
L35.574 51.602
" 
fill="none" vector-effect="non-scaling-stroke" stroke="#000000" stroke-width="0.100mm" />
<path d="
M34.381 53.750
A1.100,1.100 0 1,0 36.581,53.750
A1.100,1.100 0 1,0 34.381,53.750
" 
fill="#ffffff" vector-effect="non-scaling-stroke" stroke="#000000" stroke-width="0.100mm" />
<path d="
M10.611 51.602
L10.655 51.606
L10.801 51.620
L10.847 51.625
L10.892 51.633
L10.944 51.643
L11.087 51.677
L11.131 51.689
L11.175 51.703
L11.223 51.720
L11.360 51.773
L11.402 51.790
L11.444 51.809
L11.487 51.832
L11.616 51.903
L11.656 51.926
L11.695 51.951
L11.733 51.978
L11.851 52.065
L11.887 52.093
L11.922 52.122
L11.956 52.153
L12.062 52.255
L12.094 52.288
L12.125 52.322
L12.157 52.360
L12.248 52.475
L12.276 52.512
L12.302 52.550
L12.329 52.593
L12.404 52.720
L12.427 52.760
L12.447 52.801
L12.467 52.846
L12.524 52.981
L12.541 53.023
L12.556 53.066
L12.570 53.111
L12.609 53.253
L12.620 53.297
L12.629 53.342
L12.636 53.388
L12.656 53.534
L12.662 53.580
L12.665 53.626
L12.666 53.677
L12.666 53.823
L12.665 53.869
L12.662 53.915
L12.656 53.966
L12.636 54.112
L12.629 54.157
L12.620 54.202
L12.609 54.247
L12.570 54.389
L12.556 54.433
L12.541 54.476
L12.524 54.519
L12.467 54.654
L12.449 54.696
L12.428 54.737
L12.404 54.780
L12.329 54.907
L12.305 54.946
L12.279 54.984
L12.248 55.025
L12.157 55.140
L12.128 55.175
L12.097 55.209
L12.062 55.245
L11.956 55.347
L11.922 55.378
L11.887 55.407
L11.851 55.435
L11.733 55.522
L11.696 55.549
L11.657 55.573
L11.616 55.597
L11.487 55.668
L11.447 55.689
L11.405 55.709
L11.360 55.727
L11.223 55.780
L11.180 55.796
L11.136 55.810
L11.087 55.823
L10.944 55.857
L10.899 55.866
L10.854 55.874
L10.801 55.880
L10.655 55.894
L10.610 55.898
L10.564 55.899
L10.519 55.898
L10.372 55.893
L10.327 55.891
L10.281 55.886
L10.237 55.880
L10.092 55.856
L10.047 55.847
L10.002 55.837
L9.948 55.822
L9.808 55.778
L9.765 55.763
L9.722 55.746
L9.688 55.732
L9.554 55.671
L9.513 55.651
L9.472 55.629
L9.422 55.598
L9.299 55.519
L9.261 55.494
L9.224 55.467
L9.190 55.440
L9.077 55.345
L9.043 55.314
L9.010 55.283
L8.972 55.243
L8.874 55.134
L8.844 55.099
L8.816 55.063
L8.789 55.026
L8.706 54.905
L8.681 54.867
L8.658 54.827
L8.636 54.786
L8.569 54.654
L8.549 54.613
L8.531 54.571
L8.513 54.524
L8.465 54.386
L8.451 54.342
L8.439 54.298
L8.428 54.248
L8.399 54.104
L8.391 54.059
L8.385 54.014
L8.380 53.968
L8.370 53.821
L8.368 53.775
L8.368 53.730
L8.370 53.679
L8.380 53.532
L8.385 53.486
L8.391 53.441
L8.399 53.396
L8.428 53.252
L8.438 53.207
L8.450 53.163
L8.465 53.114
L8.513 52.976
L8.529 52.933
L8.547 52.891
L8.569 52.846
L8.636 52.714
L8.657 52.673
L8.681 52.634
L8.706 52.595
L8.789 52.474
L8.816 52.437
L8.844 52.401
L8.874 52.366
L8.972 52.257
L9.004 52.224
L9.036 52.192
L9.077 52.155
L9.190 52.060
L9.226 52.032
L9.263 52.004
L9.299 51.981
L9.422 51.902
L9.461 51.878
L9.501 51.855
L9.554 51.829
L9.688 51.768
L9.730 51.750
L9.773 51.734
L9.808 51.722
L9.948 51.678
L9.992 51.666
L10.037 51.655
L10.092 51.644
L10.237 51.620
L10.282 51.614
L10.328 51.609
L10.372 51.607
L10.519 51.602
L10.565 51.601
L10.611 51.602
M9.418 53.750
A1.100,1.100 0 1,0 11.618,53.750
A1.100,1.100 0 1,0 9.418,53.750
" 
fill="#e0e0e0" vector-effect="non-scaling-stroke" stroke="#000000" stroke-width="0.100mm" />
<path d="
M10.611 51.602
L10.655 51.606
L10.801 51.620
L10.847 51.625
L10.892 51.633
L10.944 51.643
L11.087 51.677
L11.131 51.689
L11.175 51.703
L11.223 51.720
L11.360 51.773
L11.402 51.790
L11.444 51.809
L11.487 51.832
L11.616 51.903
L11.656 51.926
L11.695 51.951
L11.733 51.978
L11.851 52.065
L11.887 52.093
L11.922 52.122
L11.956 52.153
L12.062 52.255
L12.094 52.288
L12.125 52.322
L12.157 52.360
L12.248 52.475
L12.276 52.512
L12.302 52.550
L12.329 52.593
L12.404 52.720
L12.427 52.760
L12.447 52.801
L12.467 52.846
L12.524 52.981
L12.541 53.023
L12.556 53.066
L12.570 53.111
L12.609 53.253
L12.620 53.297
L12.629 53.342
L12.636 53.388
L12.656 53.534
L12.662 53.580
L12.665 53.626
L12.666 53.677
L12.666 53.823
L12.665 53.869
L12.662 53.915
L12.656 53.966
L12.636 54.112
L12.629 54.157
L12.620 54.202
L12.609 54.247
L12.570 54.389
L12.556 54.433
L12.541 54.476
L12.524 54.519
L12.467 54.654
L12.449 54.696
L12.428 54.737
L12.404 54.780
L12.329 54.907
L12.305 54.946
L12.279 54.984
L12.248 55.025
L12.157 55.140
L12.128 55.175
L12.097 55.209
L12.062 55.245
L11.956 55.347
L11.922 55.378
L11.887 55.407
L11.851 55.435
L11.733 55.522
L11.696 55.549
L11.657 55.573
L11.616 55.597
L11.487 55.668
L11.447 55.689
L11.405 55.709
L11.360 55.727
L11.223 55.780
L11.180 55.796
L11.136 55.810
L11.087 55.823
L10.944 55.857
L10.899 55.866
L10.854 55.874
L10.801 55.880
L10.655 55.894
L10.610 55.898
L10.564 55.899
L10.519 55.898
L10.372 55.893
L10.327 55.891
L10.281 55.886
L10.237 55.880
L10.092 55.856
L10.047 55.847
L10.002 55.837
L9.948 55.822
L9.808 55.778
L9.765 55.763
L9.722 55.746
L9.688 55.732
L9.554 55.671
L9.513 55.651
L9.472 55.629
L9.422 55.598
L9.299 55.519
L9.261 55.494
L9.224 55.467
L9.190 55.440
L9.077 55.345
L9.043 55.314
L9.010 55.283
L8.972 55.243
L8.874 55.134
L8.844 55.099
L8.816 55.063
L8.789 55.026
L8.706 54.905
L8.681 54.867
L8.658 54.827
L8.636 54.786
L8.569 54.654
L8.549 54.613
L8.531 54.571
L8.513 54.524
L8.465 54.386
L8.451 54.342
L8.439 54.298
L8.428 54.248
L8.399 54.104
L8.391 54.059
L8.385 54.014
L8.380 53.968
L8.370 53.821
L8.368 53.775
L8.368 53.730
L8.370 53.679
L8.380 53.532
L8.385 53.486
L8.391 53.441
L8.399 53.396
L8.428 53.252
L8.438 53.207
L8.450 53.163
L8.465 53.114
L8.513 52.976
L8.529 52.933
L8.547 52.891
L8.569 52.846
L8.636 52.714
L8.657 52.673
L8.681 52.634
L8.706 52.595
L8.789 52.474
L8.816 52.437
L8.844 52.401
L8.874 52.366
L8.972 52.257
L9.004 52.224
L9.036 52.192
L9.077 52.155
L9.190 52.060
L9.226 52.032
L9.263 52.004
L9.299 51.981
L9.422 51.902
L9.461 51.878
L9.501 51.855
L9.554 51.829
L9.688 51.768
L9.730 51.750
L9.773 51.734
L9.808 51.722
L9.948 51.678
L9.992 51.666
L10.037 51.655
L10.092 51.644
L10.237 51.620
L10.282 51.614
L10.328 51.609
L10.372 51.607
L10.519 51.602
L10.565 51.601
L10.611 51.602
" 
fill="none" vector-effect="non-scaling-stroke" stroke="#000000" stroke-width="0.100mm" />
<path d="
M9.418 53.750
A1.100,1.100 0 1,0 11.618,53.750
A1.100,1.100 0 1,0 9.418,53.750
" 
fill="#ffffff" vector-effect="non-scaling-stroke" stroke="#000000" stroke-width="0.100mm" />
<path d="
M35.575 10.352
L35.619 10.356
L35.765 10.370
L35.811 10.375
L35.856 10.383
L35.908 10.393
L36.051 10.427
L36.095 10.439
L36.139 10.453
L36.187 10.470
L36.324 10.523
L36.366 10.540
L36.408 10.559
L36.451 10.582
L36.580 10.653
L36.620 10.676
L36.659 10.701
L36.697 10.728
L36.815 10.815
L36.851 10.843
L36.886 10.872
L36.920 10.903
L37.026 11.005
L37.058 11.038
L37.089 11.072
L37.121 11.110
L37.212 11.225
L37.240 11.262
L37.266 11.300
L37.293 11.343
L37.368 11.470
L37.391 11.510
L37.411 11.551
L37.431 11.596
L37.488 11.731
L37.505 11.773
L37.520 11.816
L37.534 11.861
L37.573 12.003
L37.584 12.047
L37.593 12.092
L37.600 12.138
L37.620 12.284
L37.626 12.330
L37.629 12.376
L37.630 12.427
L37.630 12.573
L37.629 12.619
L37.626 12.665
L37.620 12.716
L37.600 12.862
L37.593 12.907
L37.584 12.952
L37.573 12.997
L37.534 13.139
L37.520 13.183
L37.505 13.226
L37.488 13.269
L37.431 13.404
L37.413 13.446
L37.392 13.487
L37.368 13.530
L37.293 13.657
L37.269 13.696
L37.243 13.734
L37.212 13.775
L37.121 13.890
L37.092 13.925
L37.061 13.959
L37.026 13.995
L36.920 14.097
L36.886 14.128
L36.851 14.157
L36.815 14.185
L36.697 14.272
L36.660 14.299
L36.621 14.323
L36.580 14.347
L36.451 14.418
L36.411 14.439
L36.369 14.459
L36.324 14.477
L36.187 14.530
L36.144 14.546
L36.100 14.560
L36.051 14.573
L35.908 14.607
L35.863 14.616
L35.818 14.624
L35.765 14.630
L35.619 14.644
L35.574 14.648
L35.528 14.649
L35.483 14.648
L35.336 14.643
L35.291 14.641
L35.245 14.636
L35.201 14.630
L35.056 14.606
L35.011 14.597
L34.966 14.587
L34.912 14.572
L34.772 14.528
L34.729 14.513
L34.686 14.496
L34.652 14.482
L34.518 14.421
L34.477 14.401
L34.436 14.379
L34.386 14.348
L34.263 14.269
L34.225 14.244
L34.188 14.217
L34.154 14.190
L34.041 14.095
L34.007 14.064
L33.974 14.033
L33.936 13.993
L33.838 13.884
L33.808 13.849
L33.780 13.813
L33.753 13.776
L33.670 13.655
L33.645 13.617
L33.622 13.577
L33.600 13.536
L33.533 13.404
L33.513 13.363
L33.495 13.321
L33.477 13.274
L33.429 13.136
L33.415 13.092
L33.403 13.048
L33.392 12.998
L33.363 12.854
L33.355 12.809
L33.349 12.764
L33.344 12.718
L33.334 12.571
L33.332 12.525
L33.332 12.480
L33.334 12.429
L33.344 12.282
L33.349 12.236
L33.355 12.191
L33.363 12.146
L33.392 12.002
L33.402 11.957
L33.414 11.913
L33.429 11.864
L33.477 11.726
L33.493 11.683
L33.511 11.641
L33.533 11.596
L33.600 11.464
L33.621 11.423
L33.645 11.384
L33.670 11.345
L33.753 11.224
L33.780 11.187
L33.808 11.151
L33.838 11.116
L33.936 11.007
L33.968 10.974
L34.000 10.942
L34.041 10.905
L34.154 10.810
L34.190 10.782
L34.227 10.754
L34.263 10.731
L34.386 10.652
L34.425 10.628
L34.465 10.605
L34.518 10.579
L34.652 10.518
L34.694 10.500
L34.737 10.484
L34.772 10.472
L34.912 10.428
L34.956 10.416
L35.001 10.405
L35.056 10.394
L35.201 10.370
L35.246 10.364
L35.292 10.359
L35.336 10.357
L35.483 10.352
L35.529 10.351
L35.575 10.352
M34.382 12.500
A1.100,1.100 0 1,0 36.582,12.500
A1.100,1.100 0 1,0 34.382,12.500
" 
fill="#e0e0e0" vector-effect="non-scaling-stroke" stroke="#000000" stroke-width="0.100mm" />
<path d="
M35.575 10.352
L35.619 10.356
L35.765 10.370
L35.811 10.375
L35.856 10.383
L35.908 10.393
L36.051 10.427
L36.095 10.439
L36.139 10.453
L36.187 10.470
L36.324 10.523
L36.366 10.540
L36.408 10.559
L36.451 10.582
L36.580 10.653
L36.620 10.676
L36.659 10.701
L36.697 10.728
L36.815 10.815
L36.851 10.843
L36.886 10.872
L36.920 10.903
L37.026 11.005
L37.058 11.038
L37.089 11.072
L37.121 11.110
L37.212 11.225
L37.240 11.262
L37.266 11.300
L37.293 11.343
L37.368 11.470
L37.391 11.510
L37.411 11.551
L37.431 11.596
L37.488 11.731
L37.505 11.773
L37.520 11.816
L37.534 11.861
L37.573 12.003
L37.584 12.047
L37.593 12.092
L37.600 12.138
L37.620 12.284
L37.626 12.330
L37.629 12.376
L37.630 12.427
L37.630 12.573
L37.629 12.619
L37.626 12.665
L37.620 12.716
L37.600 12.862
L37.593 12.907
L37.584 12.952
L37.573 12.997
L37.534 13.139
L37.520 13.183
L37.505 13.226
L37.488 13.269
L37.431 13.404
L37.413 13.446
L37.392 13.487
L37.368 13.530
L37.293 13.657
L37.269 13.696
L37.243 13.734
L37.212 13.775
L37.121 13.890
L37.092 13.925
L37.061 13.959
L37.026 13.995
L36.920 14.097
L36.886 14.128
L36.851 14.157
L36.815 14.185
L36.697 14.272
L36.660 14.299
L36.621 14.323
L36.580 14.347
L36.451 14.418
L36.411 14.439
L36.369 14.459
L36.324 14.477
L36.187 14.530
L36.144 14.546
L36.100 14.560
L36.051 14.573
L35.908 14.607
L35.863 14.616
L35.818 14.624
L35.765 14.630
L35.619 14.644
L35.574 14.648
L35.528 14.649
L35.483 14.648
L35.336 14.643
L35.291 14.641
L35.245 14.636
L35.201 14.630
L35.056 14.606
L35.011 14.597
L34.966 14.587
L34.912 14.572
L34.772 14.528
L34.729 14.513
L34.686 14.496
L34.652 14.482
L34.518 14.421
L34.477 14.401
L34.436 14.379
L34.386 14.348
L34.263 14.269
L34.225 14.244
L34.188 14.217
L34.154 14.190
L34.041 14.095
L34.007 14.064
L33.974 14.033
L33.936 13.993
L33.838 13.884
L33.808 13.849
L33.780 13.813
L33.753 13.776
L33.670 13.655
L33.645 13.617
L33.622 13.577
L33.600 13.536
L33.533 13.404
L33.513 13.363
L33.495 13.321
L33.477 13.274
L33.429 13.136
L33.415 13.092
L33.403 13.048
L33.392 12.998
L33.363 12.854
L33.355 12.809
L33.349 12.764
L33.344 12.718
L33.334 12.571
L33.332 12.525
L33.332 12.480
L33.334 12.429
L33.344 12.282
L33.349 12.236
L33.355 12.191
L33.363 12.146
L33.392 12.002
L33.402 11.957
L33.414 11.913
L33.429 11.864
L33.477 11.726
L33.493 11.683
L33.511 11.641
L33.533 11.596
L33.600 11.464
L33.621 11.423
L33.645 11.384
L33.670 11.345
L33.753 11.224
L33.780 11.187
L33.808 11.151
L33.838 11.116
L33.936 11.007
L33.968 10.974
L34.000 10.942
L34.041 10.905
L34.154 10.810
L34.190 10.782
L34.227 10.754
L34.263 10.731
L34.386 10.652
L34.425 10.628
L34.465 10.605
L34.518 10.579
L34.652 10.518
L34.694 10.500
L34.737 10.484
L34.772 10.472
L34.912 10.428
L34.956 10.416
L35.001 10.405
L35.056 10.394
L35.201 10.370
L35.246 10.364
L35.292 10.359
L35.336 10.357
L35.483 10.352
L35.529 10.351
L35.575 10.352
" 
fill="none" vector-effect="non-scaling-stroke" stroke="#000000" stroke-width="0.100mm" />
<path d="
M34.382 12.500
A1.100,1.100 0 1,0 36.582,12.500
A1.100,1.100 0 1,0 34.382,12.500
" 
fill="#ffffff" vector-effect="non-scaling-stroke" stroke="#000000" stroke-width="0.100mm" />
<path d="
M10.612 10.352
L10.656 10.356
L10.802 10.370
L10.848 10.375
L10.893 10.383
L10.945 10.393
L11.088 10.427
L11.132 10.439
L11.176 10.453
L11.224 10.470
L11.361 10.523
L11.403 10.540
L11.445 10.559
L11.488 10.582
L11.617 10.653
L11.657 10.676
L11.696 10.701
L11.734 10.728
L11.852 10.815
L11.888 10.843
L11.923 10.872
L11.957 10.903
L12.063 11.005
L12.095 11.038
L12.126 11.072
L12.158 11.110
L12.249 11.225
L12.277 11.262
L12.303 11.300
L12.330 11.343
L12.405 11.470
L12.428 11.510
L12.448 11.551
L12.468 11.596
L12.525 11.731
L12.542 11.773
L12.557 11.816
L12.571 11.861
L12.610 12.003
L12.621 12.047
L12.630 12.092
L12.637 12.138
L12.657 12.284
L12.663 12.330
L12.666 12.376
L12.667 12.427
L12.667 12.573
L12.666 12.619
L12.663 12.665
L12.657 12.716
L12.637 12.862
L12.630 12.907
L12.621 12.952
L12.610 12.997
L12.571 13.139
L12.557 13.183
L12.542 13.226
L12.525 13.269
L12.468 13.404
L12.450 13.446
L12.429 13.487
L12.405 13.530
L12.330 13.657
L12.306 13.696
L12.280 13.734
L12.249 13.775
L12.158 13.890
L12.129 13.925
L12.098 13.959
L12.063 13.995
L11.957 14.097
L11.923 14.128
L11.888 14.157
L11.852 14.185
L11.734 14.272
L11.697 14.299
L11.658 14.323
L11.617 14.347
L11.488 14.418
L11.448 14.439
L11.406 14.459
L11.361 14.477
L11.224 14.530
L11.181 14.546
L11.137 14.560
L11.088 14.573
L10.945 14.607
L10.900 14.616
L10.855 14.624
L10.802 14.630
L10.656 14.644
L10.611 14.648
L10.565 14.649
L10.520 14.648
L10.373 14.643
L10.328 14.641
L10.282 14.636
L10.238 14.630
L10.093 14.606
L10.048 14.597
L10.003 14.587
L9.949 14.572
L9.809 14.528
L9.766 14.513
L9.723 14.496
L9.689 14.482
L9.555 14.421
L9.514 14.401
L9.473 14.379
L9.423 14.348
L9.300 14.269
L9.262 14.244
L9.225 14.217
L9.191 14.190
L9.078 14.095
L9.044 14.064
L9.011 14.033
L8.973 13.993
L8.875 13.884
L8.845 13.849
L8.817 13.813
L8.790 13.776
L8.707 13.655
L8.682 13.617
L8.659 13.577
L8.637 13.536
L8.570 13.404
L8.550 13.363
L8.532 13.321
L8.514 13.274
L8.466 13.136
L8.452 13.092
L8.440 13.048
L8.429 12.998
L8.400 12.854
L8.392 12.809
L8.386 12.764
L8.381 12.718
L8.371 12.571
L8.369 12.525
L8.369 12.480
L8.371 12.429
L8.381 12.282
L8.386 12.236
L8.392 12.191
L8.400 12.146
L8.429 12.002
L8.439 11.957
L8.451 11.913
L8.466 11.864
L8.514 11.726
L8.530 11.683
L8.548 11.641
L8.570 11.596
L8.637 11.464
L8.658 11.423
L8.682 11.384
L8.707 11.345
L8.790 11.224
L8.817 11.187
L8.845 11.151
L8.875 11.116
L8.973 11.007
L9.005 10.974
L9.037 10.942
L9.078 10.905
L9.191 10.810
L9.227 10.782
L9.264 10.754
L9.300 10.731
L9.423 10.652
L9.462 10.628
L9.502 10.605
L9.555 10.579
L9.689 10.518
L9.731 10.500
L9.774 10.484
L9.809 10.472
L9.949 10.428
L9.993 10.416
L10.038 10.405
L10.093 10.394
L10.238 10.370
L10.283 10.364
L10.329 10.359
L10.373 10.357
L10.520 10.352
L10.566 10.351
L10.612 10.352
M9.419 12.500
A1.100,1.100 0 1,0 11.619,12.500
A1.100,1.100 0 1,0 9.419,12.500
" 
fill="#e0e0e0" vector-effect="non-scaling-stroke" stroke="#000000" stroke-width="0.100mm" />
<path d="
M10.612 10.352
L10.656 10.356
L10.802 10.370
L10.848 10.375
L10.893 10.383
L10.945 10.393
L11.088 10.427
L11.132 10.439
L11.176 10.453
L11.224 10.470
L11.361 10.523
L11.403 10.540
L11.445 10.559
L11.488 10.582
L11.617 10.653
L11.657 10.676
L11.696 10.701
L11.734 10.728
L11.852 10.815
L11.888 10.843
L11.923 10.872
L11.957 10.903
L12.063 11.005
L12.095 11.038
L12.126 11.072
L12.158 11.110
L12.249 11.225
L12.277 11.262
L12.303 11.300
L12.330 11.343
L12.405 11.470
L12.428 11.510
L12.448 11.551
L12.468 11.596
L12.525 11.731
L12.542 11.773
L12.557 11.816
L12.571 11.861
L12.610 12.003
L12.621 12.047
L12.630 12.092
L12.637 12.138
L12.657 12.284
L12.663 12.330
L12.666 12.376
L12.667 12.427
L12.667 12.573
L12.666 12.619
L12.663 12.665
L12.657 12.716
L12.637 12.862
L12.630 12.907
L12.621 12.952
L12.610 12.997
L12.571 13.139
L12.557 13.183
L12.542 13.226
L12.525 13.269
L12.468 13.404
L12.450 13.446
L12.429 13.487
L12.405 13.530
L12.330 13.657
L12.306 13.696
L12.280 13.734
L12.249 13.775
L12.158 13.890
L12.129 13.925
L12.098 13.959
L12.063 13.995
L11.957 14.097
L11.923 14.128
L11.888 14.157
L11.852 14.185
L11.734 14.272
L11.697 14.299
L11.658 14.323
L11.617 14.347
L11.488 14.418
L11.448 14.439
L11.406 14.459
L11.361 14.477
L11.224 14.530
L11.181 14.546
L11.137 14.560
L11.088 14.573
L10.945 14.607
L10.900 14.616
L10.855 14.624
L10.802 14.630
L10.656 14.644
L10.611 14.648
L10.565 14.649
L10.520 14.648
L10.373 14.643
L10.328 14.641
L10.282 14.636
L10.238 14.630
L10.093 14.606
L10.048 14.597
L10.003 14.587
L9.949 14.572
L9.809 14.528
L9.766 14.513
L9.723 14.496
L9.689 14.482
L9.555 14.421
L9.514 14.401
L9.473 14.379
L9.423 14.348
L9.300 14.269
L9.262 14.244
L9.225 14.217
L9.191 14.190
L9.078 14.095
L9.044 14.064
L9.011 14.033
L8.973 13.993
L8.875 13.884
L8.845 13.849
L8.817 13.813
L8.790 13.776
L8.707 13.655
L8.682 13.617
L8.659 13.577
L8.637 13.536
L8.570 13.404
L8.550 13.363
L8.532 13.321
L8.514 13.274
L8.466 13.136
L8.452 13.092
L8.440 13.048
L8.429 12.998
L8.400 12.854
L8.392 12.809
L8.386 12.764
L8.381 12.718
L8.371 12.571
L8.369 12.525
L8.369 12.480
L8.371 12.429
L8.381 12.282
L8.386 12.236
L8.392 12.191
L8.400 12.146
L8.429 12.002
L8.439 11.957
L8.451 11.913
L8.466 11.864
L8.514 11.726
L8.530 11.683
L8.548 11.641
L8.570 11.596
L8.637 11.464
L8.658 11.423
L8.682 11.384
L8.707 11.345
L8.790 11.224
L8.817 11.187
L8.845 11.151
L8.875 11.116
L8.973 11.007
L9.005 10.974
L9.037 10.942
L9.078 10.905
L9.191 10.810
L9.227 10.782
L9.264 10.754
L9.300 10.731
L9.423 10.652
L9.462 10.628
L9.502 10.605
L9.555 10.579
L9.689 10.518
L9.731 10.500
L9.774 10.484
L9.809 10.472
L9.949 10.428
L9.993 10.416
L10.038 10.405
L10.093 10.394
L10.238 10.370
L10.283 10.364
L10.329 10.359
L10.373 10.357
L10.520 10.352
L10.566 10.351
L10.612 10.352
" 
fill="none" vector-effect="non-scaling-stroke" stroke="#000000" stroke-width="0.100mm" />
<path d="
M9.419 12.500
A1.100,1.100 0 1,0 11.619,12.500
A1.100,1.100 0 1,0 9.419,12.500
" 
fill="#ffffff" vector-effect="non-scaling-stroke" stroke="#000000" stroke-width="0.100mm" />
<path d="
M7.814 83.612
L7.867 83.615
L7.919 83.619
L7.980 83.626
L8.155 83.651
L8.207 83.660
L8.259 83.670
L8.298 83.679
L8.469 83.722
L8.520 83.736
L8.571 83.752
L8.620 83.769
L8.785 83.831
L8.835 83.851
L8.883 83.872
L8.922 83.891
L9.079 83.970
L9.126 83.995
L9.172 84.021
L9.217 84.050
L9.365 84.147
L9.409 84.177
L9.452 84.208
L9.488 84.237
L9.624 84.349
L9.664 84.384
L9.703 84.420
L9.736 84.452
L9.859 84.578
L9.895 84.617
L9.930 84.656
L9.963 84.697
L10.071 84.836
L10.102 84.878
L10.132 84.922
L10.158 84.963
L10.250 85.113
L10.277 85.159
L10.302 85.205
L10.325 85.251
L10.400 85.411
L10.421 85.459
L10.441 85.508
L10.455 85.546
L10.513 85.713
L10.529 85.763
L10.543 85.814
L10.557 85.870
L10.595 86.042
L10.605 86.094
L10.614 86.146
L10.619 86.185
L10.639 86.360
L10.644 86.413
L10.647 86.466
L10.648 86.519
L10.648 86.695
L10.647 86.748
L10.644 86.801
L10.639 86.854
L10.619 87.029
L10.612 87.081
L10.603 87.134
L10.595 87.172
L10.557 87.344
L10.545 87.395
L10.530 87.446
L10.513 87.501
L10.455 87.668
L10.436 87.718
L10.416 87.767
L10.400 87.803
L10.325 87.963
L10.301 88.011
L10.276 88.057
L10.250 88.101
L10.158 88.251
L10.130 88.296
L10.100 88.339
L10.071 88.378
L9.963 88.517
L9.929 88.558
L9.894 88.598
L9.859 88.636
L9.736 88.762
L9.698 88.799
L9.659 88.835
L9.624 88.865
L9.488 88.977
L9.447 89.010
L9.404 89.041
L9.365 89.067
L9.217 89.164
L9.173 89.192
L9.127 89.219
L9.079 89.244
L8.922 89.323
L8.875 89.345
L8.826 89.367
L8.785 89.383
L8.620 89.445
L8.571 89.462
L8.520 89.478
L8.469 89.492
L8.298 89.535
L8.247 89.547
L8.195 89.557
L8.155 89.563
L7.980 89.588
L7.927 89.594
L7.875 89.599
L7.814 89.602
L7.638 89.606
L7.585 89.606
L7.532 89.604
L7.495 89.602
L7.319 89.588
L7.266 89.582
L7.214 89.575
L7.160 89.566
L6.987 89.532
L6.935 89.521
L6.884 89.507
L6.836 89.493
L6.668 89.440
L6.618 89.423
L6.568 89.405
L6.531 89.389
L6.370 89.319
L6.322 89.297
L6.274 89.273
L6.224 89.245
L6.071 89.156
L6.026 89.129
L5.982 89.100
L5.948 89.075
L5.806 88.971
L5.764 88.939
L5.723 88.906
L5.688 88.875
L5.558 88.756
L5.519 88.719
L5.482 88.681
L5.448 88.643
L5.332 88.510
L5.298 88.470
L5.265 88.428
L5.235 88.385
L5.135 88.240
L5.105 88.196
L5.078 88.151
L5.056 88.112
L4.972 87.957
L4.948 87.910
L4.925 87.862
L4.905 87.815
L4.839 87.652
L4.820 87.603
L4.803 87.553
L4.790 87.507
L4.742 87.337
L4.728 87.286
L4.717 87.235
L4.708 87.187
L4.679 87.013
L4.671 86.961
L4.666 86.908
L4.662 86.862
L4.652 86.686
L4.650 86.634
L4.650 86.581
L4.652 86.528
L4.662 86.352
L4.666 86.299
L4.672 86.246
L4.679 86.201
L4.708 86.027
L4.718 85.975
L4.729 85.923
L4.742 85.877
L4.790 85.707
L4.805 85.656
L4.822 85.606
L4.839 85.562
L4.905 85.399
L4.926 85.350
L4.949 85.302
L4.972 85.257
L5.056 85.102
L5.082 85.056
L5.110 85.011
L5.135 84.974
L5.235 84.829
L5.265 84.786
L5.298 84.744
L5.332 84.704
L5.448 84.571
L5.483 84.532
L5.520 84.494
L5.558 84.458
L5.688 84.339
L5.727 84.304
L5.768 84.271
L5.806 84.243
L5.948 84.139
L5.991 84.108
L6.035 84.079
L6.071 84.058
L6.224 83.969
L6.270 83.943
L6.317 83.919
L6.370 83.895
L6.531 83.825
L6.580 83.805
L6.629 83.787
L6.668 83.774
L6.836 83.721
L6.887 83.706
L6.938 83.693
L6.987 83.682
L7.160 83.648
L7.212 83.639
L7.265 83.632
L7.319 83.626
L7.495 83.612
L7.548 83.609
L7.601 83.608
L7.638 83.608
L7.814 83.612
M6.050 86.607
A1.600,1.600 0 1,0 9.250,86.607
A1.600,1.600 0 1,0 6.050,86.607
" 
fill="#e0e0e0" vector-effect="non-scaling-stroke" stroke="#000000" stroke-width="0.100mm" />
<path d="
M7.814 83.612
L7.867 83.615
L7.919 83.619
L7.980 83.626
L8.155 83.651
L8.207 83.660
L8.259 83.670
L8.298 83.679
L8.469 83.722
L8.520 83.736
L8.571 83.752
L8.620 83.769
L8.785 83.831
L8.835 83.851
L8.883 83.872
L8.922 83.891
L9.079 83.970
L9.126 83.995
L9.172 84.021
L9.217 84.050
L9.365 84.147
L9.409 84.177
L9.452 84.208
L9.488 84.237
L9.624 84.349
L9.664 84.384
L9.703 84.420
L9.736 84.452
L9.859 84.578
L9.895 84.617
L9.930 84.656
L9.963 84.697
L10.071 84.836
L10.102 84.878
L10.132 84.922
L10.158 84.963
L10.250 85.113
L10.277 85.159
L10.302 85.205
L10.325 85.251
L10.400 85.411
L10.421 85.459
L10.441 85.508
L10.455 85.546
L10.513 85.713
L10.529 85.763
L10.543 85.814
L10.557 85.870
L10.595 86.042
L10.605 86.094
L10.614 86.146
L10.619 86.185
L10.639 86.360
L10.644 86.413
L10.647 86.466
L10.648 86.519
L10.648 86.695
L10.647 86.748
L10.644 86.801
L10.639 86.854
L10.619 87.029
L10.612 87.081
L10.603 87.134
L10.595 87.172
L10.557 87.344
L10.545 87.395
L10.530 87.446
L10.513 87.501
L10.455 87.668
L10.436 87.718
L10.416 87.767
L10.400 87.803
L10.325 87.963
L10.301 88.011
L10.276 88.057
L10.250 88.101
L10.158 88.251
L10.130 88.296
L10.100 88.339
L10.071 88.378
L9.963 88.517
L9.929 88.558
L9.894 88.598
L9.859 88.636
L9.736 88.762
L9.698 88.799
L9.659 88.835
L9.624 88.865
L9.488 88.977
L9.447 89.010
L9.404 89.041
L9.365 89.067
L9.217 89.164
L9.173 89.192
L9.127 89.219
L9.079 89.244
L8.922 89.323
L8.875 89.345
L8.826 89.367
L8.785 89.383
L8.620 89.445
L8.571 89.462
L8.520 89.478
L8.469 89.492
L8.298 89.535
L8.247 89.547
L8.195 89.557
L8.155 89.563
L7.980 89.588
L7.927 89.594
L7.875 89.599
L7.814 89.602
L7.638 89.606
L7.585 89.606
L7.532 89.604
L7.495 89.602
L7.319 89.588
L7.266 89.582
L7.214 89.575
L7.160 89.566
L6.987 89.532
L6.935 89.521
L6.884 89.507
L6.836 89.493
L6.668 89.440
L6.618 89.423
L6.568 89.405
L6.531 89.389
L6.370 89.319
L6.322 89.297
L6.274 89.273
L6.224 89.245
L6.071 89.156
L6.026 89.129
L5.982 89.100
L5.948 89.075
L5.806 88.971
L5.764 88.939
L5.723 88.906
L5.688 88.875
L5.558 88.756
L5.519 88.719
L5.482 88.681
L5.448 88.643
L5.332 88.510
L5.298 88.470
L5.265 88.428
L5.235 88.385
L5.135 88.240
L5.105 88.196
L5.078 88.151
L5.056 88.112
L4.972 87.957
L4.948 87.910
L4.925 87.862
L4.905 87.815
L4.839 87.652
L4.820 87.603
L4.803 87.553
L4.790 87.507
L4.742 87.337
L4.728 87.286
L4.717 87.235
L4.708 87.187
L4.679 87.013
L4.671 86.961
L4.666 86.908
L4.662 86.862
L4.652 86.686
L4.650 86.634
L4.650 86.581
L4.652 86.528
L4.662 86.352
L4.666 86.299
L4.672 86.246
L4.679 86.201
L4.708 86.027
L4.718 85.975
L4.729 85.923
L4.742 85.877
L4.790 85.707
L4.805 85.656
L4.822 85.606
L4.839 85.562
L4.905 85.399
L4.926 85.350
L4.949 85.302
L4.972 85.257
L5.056 85.102
L5.082 85.056
L5.110 85.011
L5.135 84.974
L5.235 84.829
L5.265 84.786
L5.298 84.744
L5.332 84.704
L5.448 84.571
L5.483 84.532
L5.520 84.494
L5.558 84.458
L5.688 84.339
L5.727 84.304
L5.768 84.271
L5.806 84.243
L5.948 84.139
L5.991 84.108
L6.035 84.079
L6.071 84.058
L6.224 83.969
L6.270 83.943
L6.317 83.919
L6.370 83.895
L6.531 83.825
L6.580 83.805
L6.629 83.787
L6.668 83.774
L6.836 83.721
L6.887 83.706
L6.938 83.693
L6.987 83.682
L7.160 83.648
L7.212 83.639
L7.265 83.632
L7.319 83.626
L7.495 83.612
L7.548 83.609
L7.601 83.608
L7.638 83.608
L7.814 83.612
" 
fill="none" vector-effect="non-scaling-stroke" stroke="#000000" stroke-width="0.100mm" />
<path d="
M6.050 86.607
A1.600,1.600 0 1,0 9.250,86.607
A1.600,1.600 0 1,0 6.050,86.607
" 
fill="#ffffff" vector-effect="non-scaling-stroke" stroke="#000000" stroke-width="0.100mm" />
<path d="
M4.900 108.107
A0.500,0.500 0 0,1 4.400,107.607
L4.400 94.607
A0.500,0.500 0 0,1 4.900,94.107
L10.400 94.107
A0.500,0.500 0 0,1 10.900,94.607
L10.900 107.607
A0.500,0.500 0 0,1 10.400,108.107
L4.900 108.107
" 
fill="#ffffff" vector-effect="non-scaling-stroke" stroke="#000000" stroke-width="0.100mm" />
<path d="
M7.814 112.612
L7.867 112.615
L7.919 112.619
L7.980 112.626
L8.155 112.651
L8.207 112.660
L8.259 112.670
L8.298 112.679
L8.469 112.722
L8.520 112.736
L8.571 112.752
L8.620 112.769
L8.785 112.831
L8.835 112.851
L8.883 112.872
L8.922 112.891
L9.079 112.970
L9.126 112.995
L9.172 113.021
L9.217 113.050
L9.365 113.147
L9.409 113.177
L9.452 113.208
L9.488 113.237
L9.624 113.349
L9.664 113.384
L9.703 113.420
L9.736 113.452
L9.859 113.578
L9.895 113.617
L9.930 113.656
L9.963 113.697
L10.071 113.836
L10.102 113.878
L10.132 113.922
L10.158 113.963
L10.250 114.113
L10.277 114.159
L10.302 114.205
L10.325 114.251
L10.400 114.411
L10.421 114.459
L10.441 114.508
L10.455 114.546
L10.513 114.713
L10.529 114.763
L10.543 114.814
L10.557 114.870
L10.595 115.042
L10.605 115.094
L10.614 115.146
L10.619 115.185
L10.639 115.360
L10.644 115.413
L10.647 115.466
L10.648 115.519
L10.648 115.695
L10.647 115.748
L10.644 115.801
L10.639 115.854
L10.619 116.029
L10.612 116.081
L10.603 116.134
L10.595 116.172
L10.557 116.344
L10.545 116.395
L10.530 116.446
L10.513 116.501
L10.455 116.668
L10.436 116.718
L10.416 116.767
L10.400 116.803
L10.325 116.963
L10.301 117.011
L10.276 117.057
L10.250 117.101
L10.158 117.251
L10.130 117.296
L10.100 117.339
L10.071 117.378
L9.963 117.517
L9.929 117.558
L9.894 117.598
L9.859 117.636
L9.736 117.762
L9.698 117.799
L9.659 117.835
L9.624 117.865
L9.488 117.977
L9.447 118.010
L9.404 118.041
L9.365 118.067
L9.217 118.164
L9.173 118.192
L9.127 118.219
L9.079 118.244
L8.922 118.323
L8.875 118.345
L8.826 118.367
L8.785 118.383
L8.620 118.445
L8.571 118.462
L8.520 118.478
L8.469 118.492
L8.298 118.535
L8.247 118.547
L8.195 118.557
L8.155 118.563
L7.980 118.588
L7.927 118.594
L7.875 118.599
L7.814 118.602
L7.638 118.606
L7.585 118.606
L7.532 118.604
L7.495 118.602
L7.319 118.588
L7.266 118.582
L7.214 118.575
L7.160 118.566
L6.987 118.532
L6.935 118.521
L6.884 118.507
L6.836 118.493
L6.668 118.440
L6.618 118.423
L6.568 118.405
L6.531 118.389
L6.370 118.319
L6.322 118.297
L6.274 118.273
L6.224 118.245
L6.071 118.156
L6.026 118.129
L5.982 118.100
L5.948 118.075
L5.806 117.971
L5.764 117.939
L5.723 117.906
L5.688 117.875
L5.558 117.756
L5.519 117.719
L5.482 117.681
L5.448 117.643
L5.332 117.510
L5.298 117.470
L5.265 117.428
L5.235 117.385
L5.135 117.240
L5.105 117.196
L5.078 117.151
L5.056 117.112
L4.972 116.957
L4.948 116.910
L4.925 116.862
L4.905 116.815
L4.839 116.652
L4.820 116.603
L4.803 116.553
L4.790 116.507
L4.742 116.337
L4.728 116.286
L4.717 116.235
L4.708 116.187
L4.679 116.013
L4.671 115.961
L4.666 115.908
L4.662 115.862
L4.652 115.686
L4.650 115.634
L4.650 115.581
L4.652 115.528
L4.662 115.352
L4.666 115.299
L4.672 115.246
L4.679 115.201
L4.708 115.027
L4.718 114.975
L4.729 114.923
L4.742 114.877
L4.790 114.707
L4.805 114.656
L4.822 114.606
L4.839 114.562
L4.905 114.399
L4.926 114.350
L4.949 114.302
L4.972 114.257
L5.056 114.102
L5.082 114.056
L5.110 114.011
L5.135 113.974
L5.235 113.829
L5.265 113.786
L5.298 113.744
L5.332 113.704
L5.448 113.571
L5.483 113.532
L5.520 113.494
L5.558 113.458
L5.688 113.339
L5.727 113.304
L5.768 113.271
L5.806 113.243
L5.948 113.139
L5.991 113.108
L6.035 113.079
L6.071 113.058
L6.224 112.969
L6.270 112.943
L6.317 112.919
L6.370 112.895
L6.531 112.825
L6.580 112.805
L6.629 112.787
L6.668 112.774
L6.836 112.721
L6.887 112.706
L6.938 112.693
L6.987 112.682
L7.160 112.648
L7.212 112.639
L7.265 112.632
L7.319 112.626
L7.495 112.612
L7.548 112.609
L7.601 112.608
L7.638 112.608
L7.814 112.612
M6.050 115.607
A1.600,1.600 0 1,0 9.250,115.607
A1.600,1.600 0 1,0 6.050,115.607
" 
fill="#e0e0e0" vector-effect="non-scaling-stroke" stroke="#000000" stroke-width="0.100mm" />
<path d="
M7.814 112.612
L7.867 112.615
L7.919 112.619
L7.980 112.626
L8.155 112.651
L8.207 112.660
L8.259 112.670
L8.298 112.679
L8.469 112.722
L8.520 112.736
L8.571 112.752
L8.620 112.769
L8.785 112.831
L8.835 112.851
L8.883 112.872
L8.922 112.891
L9.079 112.970
L9.126 112.995
L9.172 113.021
L9.217 113.050
L9.365 113.147
L9.409 113.177
L9.452 113.208
L9.488 113.237
L9.624 113.349
L9.664 113.384
L9.703 113.420
L9.736 113.452
L9.859 113.578
L9.895 113.617
L9.930 113.656
L9.963 113.697
L10.071 113.836
L10.102 113.878
L10.132 113.922
L10.158 113.963
L10.250 114.113
L10.277 114.159
L10.302 114.205
L10.325 114.251
L10.400 114.411
L10.421 114.459
L10.441 114.508
L10.455 114.546
L10.513 114.713
L10.529 114.763
L10.543 114.814
L10.557 114.870
L10.595 115.042
L10.605 115.094
L10.614 115.146
L10.619 115.185
L10.639 115.360
L10.644 115.413
L10.647 115.466
L10.648 115.519
L10.648 115.695
L10.647 115.748
L10.644 115.801
L10.639 115.854
L10.619 116.029
L10.612 116.081
L10.603 116.134
L10.595 116.172
L10.557 116.344
L10.545 116.395
L10.530 116.446
L10.513 116.501
L10.455 116.668
L10.436 116.718
L10.416 116.767
L10.400 116.803
L10.325 116.963
L10.301 117.011
L10.276 117.057
L10.250 117.101
L10.158 117.251
L10.130 117.296
L10.100 117.339
L10.071 117.378
L9.963 117.517
L9.929 117.558
L9.894 117.598
L9.859 117.636
L9.736 117.762
L9.698 117.799
L9.659 117.835
L9.624 117.865
L9.488 117.977
L9.447 118.010
L9.404 118.041
L9.365 118.067
L9.217 118.164
L9.173 118.192
L9.127 118.219
L9.079 118.244
L8.922 118.323
L8.875 118.345
L8.826 118.367
L8.785 118.383
L8.620 118.445
L8.571 118.462
L8.520 118.478
L8.469 118.492
L8.298 118.535
L8.247 118.547
L8.195 118.557
L8.155 118.563
L7.980 118.588
L7.927 118.594
L7.875 118.599
L7.814 118.602
L7.638 118.606
L7.585 118.606
L7.532 118.604
L7.495 118.602
L7.319 118.588
L7.266 118.582
L7.214 118.575
L7.160 118.566
L6.987 118.532
L6.935 118.521
L6.884 118.507
L6.836 118.493
L6.668 118.440
L6.618 118.423
L6.568 118.405
L6.531 118.389
L6.370 118.319
L6.322 118.297
L6.274 118.273
L6.224 118.245
L6.071 118.156
L6.026 118.129
L5.982 118.100
L5.948 118.075
L5.806 117.971
L5.764 117.939
L5.723 117.906
L5.688 117.875
L5.558 117.756
L5.519 117.719
L5.482 117.681
L5.448 117.643
L5.332 117.510
L5.298 117.470
L5.265 117.428
L5.235 117.385
L5.135 117.240
L5.105 117.196
L5.078 117.151
L5.056 117.112
L4.972 116.957
L4.948 116.910
L4.925 116.862
L4.905 116.815
L4.839 116.652
L4.820 116.603
L4.803 116.553
L4.790 116.507
L4.742 116.337
L4.728 116.286
L4.717 116.235
L4.708 116.187
L4.679 116.013
L4.671 115.961
L4.666 115.908
L4.662 115.862
L4.652 115.686
L4.650 115.634
L4.650 115.581
L4.652 115.528
L4.662 115.352
L4.666 115.299
L4.672 115.246
L4.679 115.201
L4.708 115.027
L4.718 114.975
L4.729 114.923
L4.742 114.877
L4.790 114.707
L4.805 114.656
L4.822 114.606
L4.839 114.562
L4.905 114.399
L4.926 114.350
L4.949 114.302
L4.972 114.257
L5.056 114.102
L5.082 114.056
L5.110 114.011
L5.135 113.974
L5.235 113.829
L5.265 113.786
L5.298 113.744
L5.332 113.704
L5.448 113.571
L5.483 113.532
L5.520 113.494
L5.558 113.458
L5.688 113.339
L5.727 113.304
L5.768 113.271
L5.806 113.243
L5.948 113.139
L5.991 113.108
L6.035 113.079
L6.071 113.058
L6.224 112.969
L6.270 112.943
L6.317 112.919
L6.370 112.895
L6.531 112.825
L6.580 112.805
L6.629 112.787
L6.668 112.774
L6.836 112.721
L6.887 112.706
L6.938 112.693
L6.987 112.682
L7.160 112.648
L7.212 112.639
L7.265 112.632
L7.319 112.626
L7.495 112.612
L7.548 112.609
L7.601 112.608
L7.638 112.608
L7.814 112.612
" 
fill="none" vector-effect="non-scaling-stroke" stroke="#000000" stroke-width="0.100mm" />
<path d="
M6.050 115.607
A1.600,1.600 0 1,0 9.250,115.607
A1.600,1.600 0 1,0 6.050,115.607
" 
fill="#ffffff" vector-effect="non-scaling-stroke" stroke="#000000" stroke-width="0.100mm" />
<path d="
M100.260 128.400
A1.000,1.000 0 0,0 101.260,127.400
L101.260 1.000
A1.000,1.000 0 0,0 100.260,0.000
L1.000 0.000
A1.000,1.000 0 0,0 0.000,1.000
L0.000 127.400
A1.000,1.000 0 0,0 1.000,128.400
L100.260 128.400
" 
fill="none" vector-effect="non-scaling-stroke" stroke="#000000" stroke-width="0.100mm" />
<path d="
M-0.940 0.000
L0.940 0.000
M0.000 -0.940
L0.000 0.940
" 
fill="none" vector-effect="non-scaling-stroke" stroke="#ff0000" stroke-width="0.100mm" />
<path d="
M6.560 125.500
L8.440 125.500
M7.500 124.560
L7.500 126.440
" 
fill="none" vector-effect="non-scaling-stroke" stroke="#ff0000" stroke-width="0.100mm" />
<path d="
M87.840 125.500
L89.720 125.500
M88.780 124.560
L88.780 126.440
" 
fill="none" vector-effect="non-scaling-stroke" stroke="#00d000" stroke-width="0.100mm" />
<path d="
M87.840 3.000
L89.720 3.000
M88.780 2.060
L88.780 3.940
" 
fill="none" vector-effect="non-scaling-stroke" stroke="#00d000" stroke-width="0.100mm" />
<path d="
M87.840 64.250
L89.720 64.250
M88.780 63.310
L88.780 65.190
" 
fill="none" vector-effect="non-scaling-stroke" stroke="#ff0000" stroke-width="0.100mm" />
<path d="
M6.560 3.000
L8.440 3.000
M7.500 2.060
L7.500 3.940
" 
fill="none" vector-effect="non-scaling-stroke" stroke="#ff0000" stroke-width="0.100mm" />
<path d="
M54.710 82.000
L56.590 82.000
M55.650 81.060
L55.650 82.940
" 
fill="none" vector-effect="non-scaling-stroke" stroke="#00d000" stroke-width="0.100mm" />
<path d="
M74.710 82.000
L76.590 82.000
M75.650 81.060
L75.650 82.940
" 
fill="none" vector-effect="non-scaling-stroke" stroke="#00d000" stroke-width="0.100mm" />
<path d="
M34.710 82.000
L36.590 82.000
M35.650 81.060
L35.650 82.940
" 
fill="none" vector-effect="non-scaling-stroke" stroke="#00d000" stroke-width="0.100mm" />
<path d="
M54.710 82.000
L56.590 82.000
M55.650 81.060
L55.650 82.940
" 
fill="none" vector-effect="non-scaling-stroke" stroke="#ff0000" stroke-width="0.100mm" />
<path d="
M85.060 49.000
L86.940 49.000
M86.000 48.060
L86.000 49.940
" 
fill="none" vector-effect="non-scaling-stroke" stroke="#00d000" stroke-width="0.100mm" />
<path d="
M55.060 49.000
L56.940 49.000
M56.000 48.060
L56.000 49.940
" 
fill="none" vector-effect="non-scaling-stroke" stroke="#00d000" stroke-width="0.100mm" />
<path d="
M55.060 19.000
L56.940 19.000
M56.000 18.060
L56.000 19.940
" 
fill="none" vector-effect="non-scaling-stroke" stroke="#00d000" stroke-width="0.100mm" />
<path d="
M85.060 19.000
L86.940 19.000
M86.000 18.060
L86.000 19.940
" 
fill="none" vector-effect="non-scaling-stroke" stroke="#00d000" stroke-width="0.100mm" />
<path d="
M70.060 34.000
L71.940 34.000
M71.000 33.060
L71.000 34.940
" 
fill="none" vector-effect="non-scaling-stroke" stroke="#ff0000" stroke-width="0.100mm" />
<path d="
M32.710 110.107
L34.590 110.107
M33.650 109.167
L33.650 111.047
" 
fill="none" vector-effect="non-scaling-stroke" stroke="#00d000" stroke-width="0.100mm" />
<path d="
M21.460 110.107
L23.340 110.107
M22.400 109.167
L22.400 111.047
" 
fill="none" vector-effect="non-scaling-stroke" stroke="#00d000" stroke-width="0.100mm" />
<path d="
M32.710 110.107
L34.590 110.107
M33.650 109.167
L33.650 111.047
" 
fill="none" vector-effect="non-scaling-stroke" stroke="#00d000" stroke-width="0.100mm" />
<path d="
M43.960 110.107
L45.840 110.107
M44.900 109.167
L44.900 111.047
" 
fill="none" vector-effect="non-scaling-stroke" stroke="#00d000" stroke-width="0.100mm" />
<path d="
M32.710 110.107
L34.590 110.107
M33.650 109.167
L33.650 111.047
" 
fill="none" vector-effect="non-scaling-stroke" stroke="#ff0000" stroke-width="0.100mm" />
<path d="
M57.460 110.107
L59.340 110.107
M58.400 109.167
L58.400 111.047
" 
fill="none" vector-effect="non-scaling-stroke" stroke="#00d000" stroke-width="0.100mm" />
<path d="
M68.710 110.107
L70.590 110.107
M69.650 109.167
L69.650 111.047
" 
fill="none" vector-effect="non-scaling-stroke" stroke="#00d000" stroke-width="0.100mm" />
<path d="
M79.960 110.107
L81.840 110.107
M80.900 109.167
L80.900 111.047
" 
fill="none" vector-effect="non-scaling-stroke" stroke="#00d000" stroke-width="0.100mm" />
<path d="
M68.710 110.107
L70.590 110.107
M69.650 109.167
L69.650 111.047
" 
fill="none" vector-effect="non-scaling-stroke" stroke="#00d000" stroke-width="0.100mm" />
<path d="
M68.710 110.107
L70.590 110.107
M69.650 109.167
L69.650 111.047
" 
fill="none" vector-effect="non-scaling-stroke" stroke="#ff0000" stroke-width="0.100mm" />
<path d="
M93.710 86.607
L95.590 86.607
M94.650 85.667
L94.650 87.547
" 
fill="none" vector-effect="non-scaling-stroke" stroke="#00d000" stroke-width="0.100mm" />
<path d="
M93.710 101.107
L95.590 101.107
M94.650 100.167
L94.650 102.047
" 
fill="none" vector-effect="non-scaling-stroke" stroke="#00d000" stroke-width="0.100mm" />
<path d="
M93.710 115.607
L95.590 115.607
M94.650 114.667
L94.650 116.547
" 
fill="none" vector-effect="non-scaling-stroke" stroke="#00d000" stroke-width="0.100mm" />
<path d="
M93.710 101.107
L95.590 101.107
M94.650 100.167
L94.650 102.047
" 
fill="none" vector-effect="non-scaling-stroke" stroke="#ff0000" stroke-width="0.100mm" />
<path d="
M22.060 35.750
L23.940 35.750
M23.000 34.810
L23.000 36.690
" 
fill="none" vector-effect="non-scaling-stroke" stroke="#00d000" stroke-width="0.100mm" />
<path d="
M22.060 33.000
L23.940 33.000
M23.000 32.060
L23.000 33.940
" 
fill="none" vector-effect="non-scaling-stroke" stroke="#00d000" stroke-width="0.100mm" />
<path d="
M22.060 33.000
L23.940 33.000
M23.000 32.060
L23.000 33.940
" 
fill="none" vector-effect="non-scaling-stroke" stroke="#00d000" stroke-width="0.100mm" />
<path d="
M34.541 53.750
L36.421 53.750
M35.481 52.810
L35.481 54.690
" 
fill="none" vector-effect="non-scaling-stroke" stroke="#00d000" stroke-width="0.100mm" />
<path d="
M9.578 53.750
L11.458 53.750
M10.518 52.810
L10.518 54.690
" 
fill="none" vector-effect="non-scaling-stroke" stroke="#00d000" stroke-width="0.100mm" />
<path d="
M34.542 12.500
L36.422 12.500
M35.482 11.560
L35.482 13.440
" 
fill="none" vector-effect="non-scaling-stroke" stroke="#00d000" stroke-width="0.100mm" />
<path d="
M9.579 12.500
L11.459 12.500
M10.519 11.560
L10.519 13.440
" 
fill="none" vector-effect="non-scaling-stroke" stroke="#00d000" stroke-width="0.100mm" />
<path d="
M22.060 33.000
L23.940 33.000
M23.000 32.060
L23.000 33.940
" 
fill="none" vector-effect="non-scaling-stroke" stroke="#ff0000" stroke-width="0.100mm" />
<path d="
M6.710 86.607
L8.590 86.607
M7.650 85.667
L7.650 87.547
" 
fill="none" vector-effect="non-scaling-stroke" stroke="#00d000" stroke-width="0.100mm" />
<path d="
M6.710 101.107
L8.590 101.107
M7.650 100.167
L7.650 102.047
" 
fill="none" vector-effect="non-scaling-stroke" stroke="#00d000" stroke-width="0.100mm" />
<path d="
M6.710 115.607
L8.590 115.607
M7.650 114.667
L7.650 116.547
" 
fill="none" vector-effect="non-scaling-stroke" stroke="#00d000" stroke-width="0.100mm" />
<path d="
M6.710 101.107
L8.590 101.107
M7.650 100.167
L7.650 102.047
" 
fill="none" vector-effect="non-scaling-stroke" stroke="#ff0000" stroke-width="0.100mm" />
</g>
</svg>
