<?xml version="1.0" standalone="no"?>
<!DOCTYPE svg PUBLIC "-//W3C//DTD SVG 1.1//EN" 
  "http://www.w3.org/Graphics/SVG/1.1/DTD/svg11.dtd">
<svg width="60.620mm" height="128.400mm" version="1.1"
     viewBox="0 0 60.620 128.400"
     xmlns="http://www.w3.org/2000/svg"  xmlns:xlink="http://www.w3.org/1999/xlink" 
     xmlns:fpd="http://www.schaeffer-ag.de">
  <desc>Created with the Front Panel Designer by the export of the file '12hp-usb-host-A-and-type-B.fpd'.</desc>
  <defs>
    <pattern id="revside-fill" x="1" y="1" width="1.5" height="1.5" patternUnits="userSpaceOnUse">
      <line x1="0" y1="0" x2="1" y2="1" style="stroke-width:0.2; stroke:black; stroke-dasharray:none;" />
      <line x1="0" y1="1" x2="1" y2="0" style="stroke-width:0.2; stroke:black; stroke-dasharray:none;" />
    </pattern>
    <pattern id="revside-fill-silver" x="1" y="1" width="1.5" height="1.5" patternUnits="userSpaceOnUse">
      <line x1="0" y1="0" x2="1.5" y2="1.5" style="stroke-width:0.2; stroke:#e0e0e0; stroke-dasharray:none;" />
      <line x1="0" y1="1.5" x2="1.5" y2="0" style="stroke-width:0.2; stroke:#e0e0e0; stroke-dasharray:none;" />
    </pattern>
  </defs>
<g transform="scale(1,-1) translate(0, -128.400)" 
   fill-rule="evenodd"
   style="stroke-linecap:round; stroke-linejoin:round; stroke-opacity:1.0; stroke-opacity:1.0;">
<path d="
M60.620 128.400
L60.620 0.000
L0.000 0.000
L0.000 128.400
L60.620 128.400
" 
fill="#cccccc" vector-effect="non-scaling-stroke" stroke="#000000" stroke-width="0.100mm" />
<path d="
M6.000 125.500
A1.500,1.500 0 1,0 9.000,125.500
A1.500,1.500 0 1,0 6.000,125.500
" 
fill="#ffffff" vector-effect="non-scaling-stroke" stroke="#000000" stroke-width="0.100mm" />
<path d="
M6.000 3.000
A1.500,1.500 0 1,0 9.000,3.000
A1.500,1.500 0 1,0 6.000,3.000
" 
fill="#ffffff" vector-effect="non-scaling-stroke" stroke="#000000" stroke-width="0.100mm" />
<path d="
M46.640 125.500
A1.500,1.500 0 1,0 49.640,125.500
A1.500,1.500 0 1,0 46.640,125.500
" 
fill="#ffffff" vector-effect="non-scaling-stroke" stroke="#000000" stroke-width="0.100mm" />
<path d="
M46.640 3.000
A1.500,1.500 0 1,0 49.640,3.000
A1.500,1.500 0 1,0 46.640,3.000
" 
fill="#ffffff" vector-effect="non-scaling-stroke" stroke="#000000" stroke-width="0.100mm" />
<path d="
M18.820 79.485
A1.500,1.500 0 0,1 20.320,77.985
L35.320 77.985
A1.500,1.500 0 0,1 36.820,79.485
L36.820 91.485
A1.500,1.500 0 0,1 35.320,92.985
L20.320 92.985
A1.500,1.500 0 0,1 18.820,91.485
L18.820 79.485
" 
fill="#ffffff" vector-effect="non-scaling-stroke" stroke="#000000" stroke-width="0.100mm" />
<path d="
M13.464 82.488
L13.514 82.491
L13.555 82.494
L13.664 82.505
L13.731 82.514
L13.840 82.531
L13.890 82.540
L13.921 82.546
L14.028 82.570
L14.077 82.582
L14.106 82.590
L14.212 82.621
L14.280 82.643
L14.384 82.680
L14.430 82.698
L14.464 82.712
L14.565 82.756
L14.610 82.777
L14.634 82.788
L14.732 82.838
L14.776 82.862
L14.803 82.878
L14.897 82.934
L14.953 82.970
L15.044 83.031
L15.085 83.059
L15.118 83.084
L15.205 83.152
L15.261 83.198
L15.344 83.271
L15.381 83.305
L15.479 83.403
L15.514 83.439
L15.534 83.461
L15.607 83.544
L15.653 83.600
L15.721 83.687
L15.751 83.727
L15.774 83.761
L15.835 83.852
L15.871 83.908
L15.927 84.002
L15.952 84.045
L15.967 84.073
L16.017 84.171
L16.038 84.216
L16.049 84.240
L16.093 84.341
L16.112 84.387
L16.125 84.421
L16.162 84.525
L16.184 84.593
L16.215 84.699
L16.228 84.748
L16.235 84.777
L16.259 84.884
L16.269 84.933
L16.274 84.965
L16.291 85.074
L16.300 85.141
L16.311 85.250
L16.315 85.299
L16.317 85.341
L16.320 85.451
L16.320 85.519
L16.317 85.629
L16.314 85.679
L16.311 85.720
L16.300 85.829
L16.291 85.896
L16.274 86.005
L16.265 86.055
L16.259 86.086
L16.235 86.193
L16.223 86.242
L16.215 86.271
L16.184 86.377
L16.162 86.445
L16.125 86.549
L16.107 86.595
L16.093 86.629
L16.049 86.730
L16.028 86.775
L16.017 86.799
L15.967 86.897
L15.943 86.941
L15.927 86.968
L15.871 87.062
L15.835 87.118
L15.774 87.209
L15.746 87.250
L15.721 87.283
L15.653 87.370
L15.607 87.426
L15.534 87.509
L15.500 87.546
L15.402 87.644
L15.366 87.679
L15.344 87.699
L15.261 87.772
L15.205 87.818
L15.118 87.886
L15.078 87.916
L15.044 87.939
L14.953 88.000
L14.897 88.036
L14.803 88.092
L14.760 88.117
L14.732 88.132
L14.634 88.182
L14.589 88.203
L14.565 88.214
L14.464 88.258
L14.418 88.277
L14.384 88.290
L14.280 88.327
L14.212 88.349
L14.106 88.380
L14.057 88.393
L14.028 88.400
L13.921 88.424
L13.872 88.434
L13.840 88.439
L13.731 88.456
L13.664 88.465
L13.555 88.476
L13.506 88.480
L13.464 88.482
L13.354 88.485
L13.286 88.485
L13.176 88.482
L13.126 88.479
L13.085 88.476
L12.976 88.465
L12.909 88.456
L12.800 88.439
L12.750 88.430
L12.719 88.424
L12.612 88.400
L12.563 88.388
L12.534 88.380
L12.428 88.349
L12.360 88.327
L12.256 88.290
L12.210 88.272
L12.176 88.258
L12.075 88.214
L12.030 88.193
L12.006 88.182
L11.908 88.132
L11.864 88.108
L11.837 88.092
L11.743 88.036
L11.687 88.000
L11.596 87.939
L11.555 87.911
L11.522 87.886
L11.435 87.818
L11.379 87.772
L11.296 87.699
L11.259 87.665
L11.161 87.567
L11.126 87.531
L11.106 87.509
L11.033 87.426
L10.987 87.370
L10.919 87.283
L10.889 87.243
L10.866 87.209
L10.805 87.118
L10.769 87.062
L10.713 86.968
L10.688 86.925
L10.673 86.897
L10.623 86.799
L10.602 86.754
L10.591 86.730
L10.547 86.629
L10.528 86.583
L10.515 86.549
L10.478 86.445
L10.456 86.377
L10.425 86.271
L10.412 86.222
L10.405 86.193
L10.381 86.086
L10.371 86.037
L10.366 86.005
L10.349 85.896
L10.340 85.829
L10.329 85.720
L10.325 85.671
L10.323 85.629
L10.320 85.519
L10.320 85.451
L10.323 85.341
L10.326 85.291
L10.329 85.250
L10.340 85.141
L10.349 85.074
L10.366 84.965
L10.375 84.915
L10.381 84.884
L10.405 84.777
L10.417 84.728
L10.425 84.699
L10.456 84.593
L10.478 84.525
L10.515 84.421
L10.533 84.375
L10.547 84.341
L10.591 84.240
L10.612 84.195
L10.623 84.171
L10.673 84.073
L10.697 84.029
L10.713 84.002
L10.769 83.908
L10.805 83.852
L10.866 83.761
L10.894 83.720
L10.919 83.687
L10.987 83.600
L11.033 83.544
L11.106 83.461
L11.140 83.424
L11.238 83.326
L11.274 83.291
L11.296 83.271
L11.379 83.198
L11.435 83.152
L11.522 83.084
L11.562 83.054
L11.596 83.031
L11.687 82.970
L11.743 82.934
L11.837 82.878
L11.880 82.853
L11.908 82.838
L12.006 82.788
L12.051 82.767
L12.075 82.756
L12.176 82.712
L12.222 82.693
L12.256 82.680
L12.360 82.643
L12.428 82.621
L12.534 82.590
L12.583 82.577
L12.612 82.570
L12.719 82.546
L12.768 82.536
L12.800 82.531
L12.909 82.514
L12.976 82.505
L13.085 82.494
L13.134 82.490
L13.176 82.488
L13.286 82.485
L13.354 82.485
L13.464 82.488
M11.569 85.485
A1.751,1.751 0 1,0 15.071,85.485
A1.751,1.751 0 1,0 11.569,85.485
" 
fill="#e0e0e0" vector-effect="non-scaling-stroke" stroke="#000000" stroke-width="0.100mm" />
<path d="
M13.464 82.488
L13.514 82.491
L13.555 82.494
L13.664 82.505
L13.731 82.514
L13.840 82.531
L13.890 82.540
L13.921 82.546
L14.028 82.570
L14.077 82.582
L14.106 82.590
L14.212 82.621
L14.280 82.643
L14.384 82.680
L14.430 82.698
L14.464 82.712
L14.565 82.756
L14.610 82.777
L14.634 82.788
L14.732 82.838
L14.776 82.862
L14.803 82.878
L14.897 82.934
L14.953 82.970
L15.044 83.031
L15.085 83.059
L15.118 83.084
L15.205 83.152
L15.261 83.198
L15.344 83.271
L15.381 83.305
L15.479 83.403
L15.514 83.439
L15.534 83.461
L15.607 83.544
L15.653 83.600
L15.721 83.687
L15.751 83.727
L15.774 83.761
L15.835 83.852
L15.871 83.908
L15.927 84.002
L15.952 84.045
L15.967 84.073
L16.017 84.171
L16.038 84.216
L16.049 84.240
L16.093 84.341
L16.112 84.387
L16.125 84.421
L16.162 84.525
L16.184 84.593
L16.215 84.699
L16.228 84.748
L16.235 84.777
L16.259 84.884
L16.269 84.933
L16.274 84.965
L16.291 85.074
L16.300 85.141
L16.311 85.250
L16.315 85.299
L16.317 85.341
L16.320 85.451
L16.320 85.519
L16.317 85.629
L16.314 85.679
L16.311 85.720
L16.300 85.829
L16.291 85.896
L16.274 86.005
L16.265 86.055
L16.259 86.086
L16.235 86.193
L16.223 86.242
L16.215 86.271
L16.184 86.377
L16.162 86.445
L16.125 86.549
L16.107 86.595
L16.093 86.629
L16.049 86.730
L16.028 86.775
L16.017 86.799
L15.967 86.897
L15.943 86.941
L15.927 86.968
L15.871 87.062
L15.835 87.118
L15.774 87.209
L15.746 87.250
L15.721 87.283
L15.653 87.370
L15.607 87.426
L15.534 87.509
L15.500 87.546
L15.402 87.644
L15.366 87.679
L15.344 87.699
L15.261 87.772
L15.205 87.818
L15.118 87.886
L15.078 87.916
L15.044 87.939
L14.953 88.000
L14.897 88.036
L14.803 88.092
L14.760 88.117
L14.732 88.132
L14.634 88.182
L14.589 88.203
L14.565 88.214
L14.464 88.258
L14.418 88.277
L14.384 88.290
L14.280 88.327
L14.212 88.349
L14.106 88.380
L14.057 88.393
L14.028 88.400
L13.921 88.424
L13.872 88.434
L13.840 88.439
L13.731 88.456
L13.664 88.465
L13.555 88.476
L13.506 88.480
L13.464 88.482
L13.354 88.485
L13.286 88.485
L13.176 88.482
L13.126 88.479
L13.085 88.476
L12.976 88.465
L12.909 88.456
L12.800 88.439
L12.750 88.430
L12.719 88.424
L12.612 88.400
L12.563 88.388
L12.534 88.380
L12.428 88.349
L12.360 88.327
L12.256 88.290
L12.210 88.272
L12.176 88.258
L12.075 88.214
L12.030 88.193
L12.006 88.182
L11.908 88.132
L11.864 88.108
L11.837 88.092
L11.743 88.036
L11.687 88.000
L11.596 87.939
L11.555 87.911
L11.522 87.886
L11.435 87.818
L11.379 87.772
L11.296 87.699
L11.259 87.665
L11.161 87.567
L11.126 87.531
L11.106 87.509
L11.033 87.426
L10.987 87.370
L10.919 87.283
L10.889 87.243
L10.866 87.209
L10.805 87.118
L10.769 87.062
L10.713 86.968
L10.688 86.925
L10.673 86.897
L10.623 86.799
L10.602 86.754
L10.591 86.730
L10.547 86.629
L10.528 86.583
L10.515 86.549
L10.478 86.445
L10.456 86.377
L10.425 86.271
L10.412 86.222
L10.405 86.193
L10.381 86.086
L10.371 86.037
L10.366 86.005
L10.349 85.896
L10.340 85.829
L10.329 85.720
L10.325 85.671
L10.323 85.629
L10.320 85.519
L10.320 85.451
L10.323 85.341
L10.326 85.291
L10.329 85.250
L10.340 85.141
L10.349 85.074
L10.366 84.965
L10.375 84.915
L10.381 84.884
L10.405 84.777
L10.417 84.728
L10.425 84.699
L10.456 84.593
L10.478 84.525
L10.515 84.421
L10.533 84.375
L10.547 84.341
L10.591 84.240
L10.612 84.195
L10.623 84.171
L10.673 84.073
L10.697 84.029
L10.713 84.002
L10.769 83.908
L10.805 83.852
L10.866 83.761
L10.894 83.720
L10.919 83.687
L10.987 83.600
L11.033 83.544
L11.106 83.461
L11.140 83.424
L11.238 83.326
L11.274 83.291
L11.296 83.271
L11.379 83.198
L11.435 83.152
L11.522 83.084
L11.562 83.054
L11.596 83.031
L11.687 82.970
L11.743 82.934
L11.837 82.878
L11.880 82.853
L11.908 82.838
L12.006 82.788
L12.051 82.767
L12.075 82.756
L12.176 82.712
L12.222 82.693
L12.256 82.680
L12.360 82.643
L12.428 82.621
L12.534 82.590
L12.583 82.577
L12.612 82.570
L12.719 82.546
L12.768 82.536
L12.800 82.531
L12.909 82.514
L12.976 82.505
L13.085 82.494
L13.134 82.490
L13.176 82.488
L13.286 82.485
L13.354 82.485
L13.464 82.488
" 
fill="none" vector-effect="non-scaling-stroke" stroke="#000000" stroke-width="0.100mm" />
<path d="
M11.569 85.485
A1.751,1.751 0 1,0 15.071,85.485
A1.751,1.751 0 1,0 11.569,85.485
" 
fill="#ffffff" vector-effect="non-scaling-stroke" stroke="#000000" stroke-width="0.100mm" />
<path d="
M42.464 82.488
L42.514 82.491
L42.555 82.494
L42.664 82.505
L42.731 82.514
L42.840 82.531
L42.890 82.540
L42.921 82.546
L43.028 82.570
L43.077 82.582
L43.106 82.590
L43.212 82.621
L43.280 82.643
L43.384 82.680
L43.430 82.698
L43.464 82.712
L43.565 82.756
L43.610 82.777
L43.634 82.788
L43.732 82.838
L43.776 82.862
L43.803 82.878
L43.897 82.934
L43.953 82.970
L44.044 83.031
L44.085 83.059
L44.118 83.084
L44.205 83.152
L44.261 83.198
L44.344 83.271
L44.381 83.305
L44.479 83.403
L44.514 83.439
L44.534 83.461
L44.607 83.544
L44.653 83.600
L44.721 83.687
L44.751 83.727
L44.774 83.761
L44.835 83.852
L44.871 83.908
L44.927 84.002
L44.952 84.045
L44.967 84.073
L45.017 84.171
L45.038 84.216
L45.049 84.240
L45.093 84.341
L45.112 84.387
L45.125 84.421
L45.162 84.525
L45.184 84.593
L45.215 84.699
L45.228 84.748
L45.235 84.777
L45.259 84.884
L45.269 84.933
L45.274 84.965
L45.291 85.074
L45.300 85.141
L45.311 85.250
L45.315 85.299
L45.317 85.341
L45.320 85.451
L45.320 85.519
L45.317 85.629
L45.314 85.679
L45.311 85.720
L45.300 85.829
L45.291 85.896
L45.274 86.005
L45.265 86.055
L45.259 86.086
L45.235 86.193
L45.223 86.242
L45.215 86.271
L45.184 86.377
L45.162 86.445
L45.125 86.549
L45.107 86.595
L45.093 86.629
L45.049 86.730
L45.028 86.775
L45.017 86.799
L44.967 86.897
L44.943 86.941
L44.927 86.968
L44.871 87.062
L44.835 87.118
L44.774 87.209
L44.746 87.250
L44.721 87.283
L44.653 87.370
L44.607 87.426
L44.534 87.509
L44.500 87.546
L44.402 87.644
L44.366 87.679
L44.344 87.699
L44.261 87.772
L44.205 87.818
L44.118 87.886
L44.078 87.916
L44.044 87.939
L43.953 88.000
L43.897 88.036
L43.803 88.092
L43.760 88.117
L43.732 88.132
L43.634 88.182
L43.589 88.203
L43.565 88.214
L43.464 88.258
L43.418 88.277
L43.384 88.290
L43.280 88.327
L43.212 88.349
L43.106 88.380
L43.057 88.393
L43.028 88.400
L42.921 88.424
L42.872 88.434
L42.840 88.439
L42.731 88.456
L42.664 88.465
L42.555 88.476
L42.506 88.480
L42.464 88.482
L42.354 88.485
L42.286 88.485
L42.176 88.482
L42.126 88.479
L42.085 88.476
L41.976 88.465
L41.909 88.456
L41.800 88.439
L41.750 88.430
L41.719 88.424
L41.612 88.400
L41.563 88.388
L41.534 88.380
L41.428 88.349
L41.360 88.327
L41.256 88.290
L41.210 88.272
L41.176 88.258
L41.075 88.214
L41.030 88.193
L41.006 88.182
L40.908 88.132
L40.864 88.108
L40.837 88.092
L40.743 88.036
L40.687 88.000
L40.596 87.939
L40.555 87.911
L40.522 87.886
L40.435 87.818
L40.379 87.772
L40.296 87.699
L40.259 87.665
L40.161 87.567
L40.126 87.531
L40.106 87.509
L40.033 87.426
L39.987 87.370
L39.919 87.283
L39.889 87.243
L39.866 87.209
L39.805 87.118
L39.769 87.062
L39.713 86.968
L39.688 86.925
L39.673 86.897
L39.623 86.799
L39.602 86.754
L39.591 86.730
L39.547 86.629
L39.528 86.583
L39.515 86.549
L39.478 86.445
L39.456 86.377
L39.425 86.271
L39.412 86.222
L39.405 86.193
L39.381 86.086
L39.371 86.037
L39.366 86.005
L39.349 85.896
L39.340 85.829
L39.329 85.720
L39.325 85.671
L39.323 85.629
L39.320 85.519
L39.320 85.451
L39.323 85.341
L39.326 85.291
L39.329 85.250
L39.340 85.141
L39.349 85.074
L39.366 84.965
L39.375 84.915
L39.381 84.884
L39.405 84.777
L39.417 84.728
L39.425 84.699
L39.456 84.593
L39.478 84.525
L39.515 84.421
L39.533 84.375
L39.547 84.341
L39.591 84.240
L39.612 84.195
L39.623 84.171
L39.673 84.073
L39.697 84.029
L39.713 84.002
L39.769 83.908
L39.805 83.852
L39.866 83.761
L39.894 83.720
L39.919 83.687
L39.987 83.600
L40.033 83.544
L40.106 83.461
L40.140 83.424
L40.238 83.326
L40.274 83.291
L40.296 83.271
L40.379 83.198
L40.435 83.152
L40.522 83.084
L40.562 83.054
L40.596 83.031
L40.687 82.970
L40.743 82.934
L40.837 82.878
L40.880 82.853
L40.908 82.838
L41.006 82.788
L41.051 82.767
L41.075 82.756
L41.176 82.712
L41.222 82.693
L41.256 82.680
L41.360 82.643
L41.428 82.621
L41.534 82.590
L41.583 82.577
L41.612 82.570
L41.719 82.546
L41.768 82.536
L41.800 82.531
L41.909 82.514
L41.976 82.505
L42.085 82.494
L42.134 82.490
L42.176 82.488
L42.286 82.485
L42.354 82.485
L42.464 82.488
M40.569 85.485
A1.751,1.751 0 1,0 44.071,85.485
A1.751,1.751 0 1,0 40.569,85.485
" 
fill="#e0e0e0" vector-effect="non-scaling-stroke" stroke="#000000" stroke-width="0.100mm" />
<path d="
M42.464 82.488
L42.514 82.491
L42.555 82.494
L42.664 82.505
L42.731 82.514
L42.840 82.531
L42.890 82.540
L42.921 82.546
L43.028 82.570
L43.077 82.582
L43.106 82.590
L43.212 82.621
L43.280 82.643
L43.384 82.680
L43.430 82.698
L43.464 82.712
L43.565 82.756
L43.610 82.777
L43.634 82.788
L43.732 82.838
L43.776 82.862
L43.803 82.878
L43.897 82.934
L43.953 82.970
L44.044 83.031
L44.085 83.059
L44.118 83.084
L44.205 83.152
L44.261 83.198
L44.344 83.271
L44.381 83.305
L44.479 83.403
L44.514 83.439
L44.534 83.461
L44.607 83.544
L44.653 83.600
L44.721 83.687
L44.751 83.727
L44.774 83.761
L44.835 83.852
L44.871 83.908
L44.927 84.002
L44.952 84.045
L44.967 84.073
L45.017 84.171
L45.038 84.216
L45.049 84.240
L45.093 84.341
L45.112 84.387
L45.125 84.421
L45.162 84.525
L45.184 84.593
L45.215 84.699
L45.228 84.748
L45.235 84.777
L45.259 84.884
L45.269 84.933
L45.274 84.965
L45.291 85.074
L45.300 85.141
L45.311 85.250
L45.315 85.299
L45.317 85.341
L45.320 85.451
L45.320 85.519
L45.317 85.629
L45.314 85.679
L45.311 85.720
L45.300 85.829
L45.291 85.896
L45.274 86.005
L45.265 86.055
L45.259 86.086
L45.235 86.193
L45.223 86.242
L45.215 86.271
L45.184 86.377
L45.162 86.445
L45.125 86.549
L45.107 86.595
L45.093 86.629
L45.049 86.730
L45.028 86.775
L45.017 86.799
L44.967 86.897
L44.943 86.941
L44.927 86.968
L44.871 87.062
L44.835 87.118
L44.774 87.209
L44.746 87.250
L44.721 87.283
L44.653 87.370
L44.607 87.426
L44.534 87.509
L44.500 87.546
L44.402 87.644
L44.366 87.679
L44.344 87.699
L44.261 87.772
L44.205 87.818
L44.118 87.886
L44.078 87.916
L44.044 87.939
L43.953 88.000
L43.897 88.036
L43.803 88.092
L43.760 88.117
L43.732 88.132
L43.634 88.182
L43.589 88.203
L43.565 88.214
L43.464 88.258
L43.418 88.277
L43.384 88.290
L43.280 88.327
L43.212 88.349
L43.106 88.380
L43.057 88.393
L43.028 88.400
L42.921 88.424
L42.872 88.434
L42.840 88.439
L42.731 88.456
L42.664 88.465
L42.555 88.476
L42.506 88.480
L42.464 88.482
L42.354 88.485
L42.286 88.485
L42.176 88.482
L42.126 88.479
L42.085 88.476
L41.976 88.465
L41.909 88.456
L41.800 88.439
L41.750 88.430
L41.719 88.424
L41.612 88.400
L41.563 88.388
L41.534 88.380
L41.428 88.349
L41.360 88.327
L41.256 88.290
L41.210 88.272
L41.176 88.258
L41.075 88.214
L41.030 88.193
L41.006 88.182
L40.908 88.132
L40.864 88.108
L40.837 88.092
L40.743 88.036
L40.687 88.000
L40.596 87.939
L40.555 87.911
L40.522 87.886
L40.435 87.818
L40.379 87.772
L40.296 87.699
L40.259 87.665
L40.161 87.567
L40.126 87.531
L40.106 87.509
L40.033 87.426
L39.987 87.370
L39.919 87.283
L39.889 87.243
L39.866 87.209
L39.805 87.118
L39.769 87.062
L39.713 86.968
L39.688 86.925
L39.673 86.897
L39.623 86.799
L39.602 86.754
L39.591 86.730
L39.547 86.629
L39.528 86.583
L39.515 86.549
L39.478 86.445
L39.456 86.377
L39.425 86.271
L39.412 86.222
L39.405 86.193
L39.381 86.086
L39.371 86.037
L39.366 86.005
L39.349 85.896
L39.340 85.829
L39.329 85.720
L39.325 85.671
L39.323 85.629
L39.320 85.519
L39.320 85.451
L39.323 85.341
L39.326 85.291
L39.329 85.250
L39.340 85.141
L39.349 85.074
L39.366 84.965
L39.375 84.915
L39.381 84.884
L39.405 84.777
L39.417 84.728
L39.425 84.699
L39.456 84.593
L39.478 84.525
L39.515 84.421
L39.533 84.375
L39.547 84.341
L39.591 84.240
L39.612 84.195
L39.623 84.171
L39.673 84.073
L39.697 84.029
L39.713 84.002
L39.769 83.908
L39.805 83.852
L39.866 83.761
L39.894 83.720
L39.919 83.687
L39.987 83.600
L40.033 83.544
L40.106 83.461
L40.140 83.424
L40.238 83.326
L40.274 83.291
L40.296 83.271
L40.379 83.198
L40.435 83.152
L40.522 83.084
L40.562 83.054
L40.596 83.031
L40.687 82.970
L40.743 82.934
L40.837 82.878
L40.880 82.853
L40.908 82.838
L41.006 82.788
L41.051 82.767
L41.075 82.756
L41.176 82.712
L41.222 82.693
L41.256 82.680
L41.360 82.643
L41.428 82.621
L41.534 82.590
L41.583 82.577
L41.612 82.570
L41.719 82.546
L41.768 82.536
L41.800 82.531
L41.909 82.514
L41.976 82.505
L42.085 82.494
L42.134 82.490
L42.176 82.488
L42.286 82.485
L42.354 82.485
L42.464 82.488
" 
fill="none" vector-effect="non-scaling-stroke" stroke="#000000" stroke-width="0.100mm" />
<path d="
M40.569 85.485
A1.751,1.751 0 1,0 44.071,85.485
A1.751,1.751 0 1,0 40.569,85.485
" 
fill="#ffffff" vector-effect="non-scaling-stroke" stroke="#000000" stroke-width="0.100mm" />
<path d="
M18.820 36.985
A1.500,1.500 0 0,1 20.320,35.485
L35.320 35.485
A1.500,1.500 0 0,1 36.820,36.985
L36.820 45.985
A1.500,1.500 0 0,1 35.320,47.485
L20.320 47.485
A1.500,1.500 0 0,1 18.820,45.985
L18.820 36.985
" 
fill="#ffffff" vector-effect="non-scaling-stroke" stroke="#000000" stroke-width="0.100mm" />
<path d="
M10.820 41.485
A2.000,2.000 0 1,0 14.820,41.485
A2.000,2.000 0 1,0 10.820,41.485
" 
fill="#ffffff" vector-effect="non-scaling-stroke" stroke="#000000" stroke-width="0.100mm" />
<path d="
M40.820 41.485
A2.000,2.000 0 1,0 44.820,41.485
A2.000,2.000 0 1,0 40.820,41.485
" 
fill="#ffffff" vector-effect="non-scaling-stroke" stroke="#000000" stroke-width="0.100mm" />
<path d="
M60.620 128.400
L60.620 0.000
L0.000 0.000
L0.000 128.400
L60.620 128.400
" 
fill="none" vector-effect="non-scaling-stroke" stroke="#000000" stroke-width="0.100mm" />
<path d="
M-1.000 0.000
L1.000 0.000
M0.000 -1.000
L0.000 1.000
" 
fill="none" vector-effect="non-scaling-stroke" stroke="#ff0000" stroke-width="0.100mm" />
<path d="
M6.500 125.500
L8.500 125.500
M7.500 124.500
L7.500 126.500
" 
fill="none" vector-effect="non-scaling-stroke" stroke="#ff0000" stroke-width="0.100mm" />
<path d="
M6.500 3.000
L8.500 3.000
M7.500 2.000
L7.500 4.000
" 
fill="none" vector-effect="non-scaling-stroke" stroke="#ff0000" stroke-width="0.100mm" />
<path d="
M47.140 125.500
L49.140 125.500
M48.140 124.500
L48.140 126.500
" 
fill="none" vector-effect="non-scaling-stroke" stroke="#ff0000" stroke-width="0.100mm" />
<path d="
M47.140 3.000
L49.140 3.000
M48.140 2.000
L48.140 4.000
" 
fill="none" vector-effect="non-scaling-stroke" stroke="#ff0000" stroke-width="0.100mm" />
<path d="
M26.820 85.485
L28.820 85.485
M27.820 84.485
L27.820 86.485
" 
fill="none" vector-effect="non-scaling-stroke" stroke="#808080" stroke-width="0.100mm" />
<path d="
M12.320 85.485
L14.320 85.485
M13.320 84.485
L13.320 86.485
" 
fill="none" vector-effect="non-scaling-stroke" stroke="#808080" stroke-width="0.100mm" />
<path d="
M41.320 85.485
L43.320 85.485
M42.320 84.485
L42.320 86.485
" 
fill="none" vector-effect="non-scaling-stroke" stroke="#808080" stroke-width="0.100mm" />
<path d="
M26.820 85.485
L28.820 85.485
M27.820 84.485
L27.820 86.485
" 
fill="none" vector-effect="non-scaling-stroke" stroke="#00d000" stroke-width="0.100mm" />
<path d="
M26.820 41.485
L28.820 41.485
M27.820 40.485
L27.820 42.485
" 
fill="none" vector-effect="non-scaling-stroke" stroke="#808080" stroke-width="0.100mm" />
<path d="
M11.820 41.485
L13.820 41.485
M12.820 40.485
L12.820 42.485
" 
fill="none" vector-effect="non-scaling-stroke" stroke="#808080" stroke-width="0.100mm" />
<path d="
M41.820 41.485
L43.820 41.485
M42.820 40.485
L42.820 42.485
" 
fill="none" vector-effect="non-scaling-stroke" stroke="#808080" stroke-width="0.100mm" />
<path d="
M26.820 41.485
L28.820 41.485
M27.820 40.485
L27.820 42.485
" 
fill="none" vector-effect="non-scaling-stroke" stroke="#00d000" stroke-width="0.100mm" />
<path d="
M26.820 64.235
L28.820 64.235
M27.820 63.235
L27.820 65.235
" 
fill="none" vector-effect="non-scaling-stroke" stroke="#ff0000" stroke-width="0.100mm" />
</g>
</svg>
