  0
SECTION
  2
HEADER
  9
$MEASUREMENT
  70
  1
  9
$INSUNITS
  70
  4
  0
ENDSEC
  0
SECTION
  2
TABLES
  0
TABLE
  2
LTYPE
 70
     1
  0
LTYPE
  2
CONTINUOUS
 70
    64
  3
Ausgezogene Linie
 72
    65
 73
     0
 40
0.0
  0
ENDTAB
  0
TABLE
  2
LAYER
 70
     3
  0
LAYER
  2
Contour
 70
    64
 62
     7
  6
CONTINUOUS
  0
LAYER
  2
Engraving
 70
    64
 62
     7
  6
CONTINUOUS
  0
LAYER
  2
Reference_points
 70
    64
 62
     1
  6
CONTINUOUS
  0
ENDTAB
  0
TABLE
  2
STYLE
 70
     1
  0
STYLE
  2
TXT
 70
    64
 40
0.0
 41
1.0
 50
0.0
 71
     0
 42
3.500000
  3
TXT
  0
ENDTAB
  0
ENDSEC
  0
SECTION
  2
BLOCKS
  0
ENDSEC
  0
SECTION
  2
ENTITIES
  0
LINE
  8
Contour
 62
   7
 39
0.100
  6
CONTINUOUS
 10
80.94000
 20
128.40000
 30
 0
 11
80.94000
 21
0.00000
  0
LINE
  8
Contour
 62
   7
 39
0.100
  6
CONTINUOUS
 10
80.94000
 20
0.00000
 30
 0
 11
0.00000
 21
0.00000
  0
LINE
  8
Contour
 62
   7
 39
0.100
  6
CONTINUOUS
 10
0.00000
 20
0.00000
 30
 0
 11
0.00000
 21
128.40000
  0
LINE
  8
Contour
 62
   7
 39
0.100
  6
CONTINUOUS
 10
0.00000
 20
128.40000
 30
 0
 11
80.94000
 21
128.40000
  0
LINE
  8
Engraving
 62
   133
 39
0.400
  6
CONTINUOUS
 10
15.40000
 20
107.12500
 30
 0
 11
15.40000
 21
21.12500
  0
LINE
  8
Engraving
 62
   133
 39
0.400
  6
CONTINUOUS
 10
15.40000
 20
21.12500
 30
 0
 11
65.40000
 21
21.12500
  0
LINE
  8
Engraving
 62
   133
 39
0.400
  6
CONTINUOUS
 10
65.40000
 20
21.12500
 30
 0
 11
65.40000
 21
107.12500
  0
LINE
  8
Engraving
 62
   133
 39
0.400
  6
CONTINUOUS
 10
65.40000
 20
107.12500
 30
 0
 11
15.40000
 21
107.12500
  0
LINE
  8
Engraving
 62
   133
 39
0.200
  6
CONTINUOUS
 10
22.69000
 20
21.92500
 30
 0
 11
55.71000
 21
21.92500
  0
LINE
  8
Engraving
 62
   133
 39
0.200
  6
CONTINUOUS
 10
55.71000
 20
21.92500
 30
 0
 11
55.71000
 21
23.92500
  0
LINE
  8
Engraving
 62
   133
 39
0.200
  6
CONTINUOUS
 10
55.71000
 20
23.92500
 30
 0
 11
22.69000
 21
23.92500
  0
LINE
  8
Engraving
 62
   133
 39
0.200
  6
CONTINUOUS
 10
22.69000
 20
23.92500
 30
 0
 11
22.69000
 21
21.92500
  0
LINE
  8
Engraving
 62
   133
 39
0.200
  6
CONTINUOUS
 10
23.06500
 20
22.30000
 30
 0
 11
24.31500
 21
22.30000
  0
LINE
  8
Engraving
 62
   133
 39
0.200
  6
CONTINUOUS
 10
24.31500
 20
22.30000
 30
 0
 11
24.31500
 21
23.55000
  0
LINE
  8
Engraving
 62
   133
 39
0.200
  6
CONTINUOUS
 10
24.31500
 20
23.55000
 30
 0
 11
23.06500
 21
23.55000
  0
LINE
  8
Engraving
 62
   133
 39
0.200
  6
CONTINUOUS
 10
23.06500
 20
23.55000
 30
 0
 11
23.06500
 21
22.30000
  0
CIRCLE
  8
Engraving
 62
   253
 39
0.200
  6
CONTINUOUS
 10
62.59900
 20
27.84500
 30
 0
 40
2.25000
  0
CIRCLE
  8
Engraving
 62
   253
 39
0.200
  6
CONTINUOUS
 10
62.59800
 20
104.32500
 30
 0
 40
2.25000
  0
CIRCLE
  8
Engraving
 62
   253
 39
0.200
  6
CONTINUOUS
 10
18.20000
 20
104.32500
 30
 0
 40
2.25000
  0
CIRCLE
  8
Engraving
 62
   253
 39
0.200
  6
CONTINUOUS
 10
18.20000
 20
27.84500
 30
 0
 40
2.25000
  0
CIRCLE
  8
Contour
 62
   7
 39
0.100
  6
CONTINUOUS
 10
7.50000
 20
125.50000
 30
 0
 40
1.50000
  0
CIRCLE
  8
Contour
 62
   7
 39
0.100
  6
CONTINUOUS
 10
7.50000
 20
3.00000
 30
 0
 40
1.50000
  0
CIRCLE
  8
Contour
 62
   7
 39
0.100
  6
CONTINUOUS
 10
68.46000
 20
125.50000
 30
 0
 40
1.50000
  0
CIRCLE
  8
Contour
 62
   7
 39
0.100
  6
CONTINUOUS
 10
68.46000
 20
3.00000
 30
 0
 40
1.50000
  0
ARC
  8
Contour
 62
   7
 39
0.100
  6
CONTINUOUS
 10
15.90000
 20
100.42500
 30
 0
 40
0.50000
 50
90.00000
 51
180.00000
  0
LINE
  8
Contour
 62
   7
 39
0.100
  6
CONTINUOUS
 10
15.40000
 20
100.42500
 30
 0
 11
15.40000
 21
32.22500
  0
ARC
  8
Contour
 62
   7
 39
0.100
  6
CONTINUOUS
 10
15.90000
 20
32.22500
 30
 0
 40
0.50000
 50
180.00000
 51
270.00000
  0
LINE
  8
Contour
 62
   7
 39
0.100
  6
CONTINUOUS
 10
15.90000
 20
31.72500
 30
 0
 11
64.90000
 21
31.72500
  0
ARC
  8
Contour
 62
   7
 39
0.100
  6
CONTINUOUS
 10
64.90000
 20
32.22500
 30
 0
 40
0.50000
 50
270.00000
 51
360.00000
  0
LINE
  8
Contour
 62
   7
 39
0.100
  6
CONTINUOUS
 10
65.40000
 20
32.22500
 30
 0
 11
65.40000
 21
100.42500
  0
ARC
  8
Contour
 62
   7
 39
0.100
  6
CONTINUOUS
 10
64.90000
 20
100.42500
 30
 0
 40
0.50000
 50
0.00000
 51
90.00000
  0
LINE
  8
Contour
 62
   7
 39
0.100
  6
CONTINUOUS
 10
64.90000
 20
100.92500
 30
 0
 11
15.90000
 21
100.92500
  0
CIRCLE
  8
Contour
 62
   7
 39
0.100
  6
CONTINUOUS
 10
62.59900
 20
27.84500
 30
 0
 40
1.50000
  0
CIRCLE
  8
Contour
 62
   7
 39
0.100
  6
CONTINUOUS
 10
62.59800
 20
104.32500
 30
 0
 40
1.50000
  0
CIRCLE
  8
Contour
 62
   7
 39
0.100
  6
CONTINUOUS
 10
18.20000
 20
104.32500
 30
 0
 40
1.50000
  0
CIRCLE
  8
Contour
 62
   7
 39
0.100
  6
CONTINUOUS
 10
18.20000
 20
27.84500
 30
 0
 40
1.50000
  0
LINE
  8
Reference_points
 62
   1
 39
0.100
  6
CONTINUOUS
 10
-1.00000
 20
0.00000
 30
 0
 11
1.00000
 21
0.00000
  0
LINE
  8
Reference_points
 62
   1
 39
0.100
  6
CONTINUOUS
 10
0.00000
 20
-1.00000
 30
 0
 11
0.00000
 21
1.00000
  0
LINE
  8
Reference_points
 62
   1
 39
0.100
  6
CONTINUOUS
 10
6.50000
 20
125.50000
 30
 0
 11
8.50000
 21
125.50000
  0
LINE
  8
Reference_points
 62
   1
 39
0.100
  6
CONTINUOUS
 10
7.50000
 20
124.50000
 30
 0
 11
7.50000
 21
126.50000
  0
LINE
  8
Reference_points
 62
   1
 39
0.100
  6
CONTINUOUS
 10
6.50000
 20
3.00000
 30
 0
 11
8.50000
 21
3.00000
  0
LINE
  8
Reference_points
 62
   1
 39
0.100
  6
CONTINUOUS
 10
7.50000
 20
2.00000
 30
 0
 11
7.50000
 21
4.00000
  0
LINE
  8
Reference_points
 62
   1
 39
0.100
  6
CONTINUOUS
 10
67.46000
 20
125.50000
 30
 0
 11
69.46000
 21
125.50000
  0
LINE
  8
Reference_points
 62
   1
 39
0.100
  6
CONTINUOUS
 10
68.46000
 20
124.50000
 30
 0
 11
68.46000
 21
126.50000
  0
LINE
  8
Reference_points
 62
   1
 39
0.100
  6
CONTINUOUS
 10
67.46000
 20
3.00000
 30
 0
 11
69.46000
 21
3.00000
  0
LINE
  8
Reference_points
 62
   1
 39
0.100
  6
CONTINUOUS
 10
68.46000
 20
2.00000
 30
 0
 11
68.46000
 21
4.00000
  0
LINE
  8
Reference_points
 62
   1
 39
0.100
  6
CONTINUOUS
 10
39.40000
 20
64.12500
 30
 0
 11
41.40000
 21
64.12500
  0
LINE
  8
Reference_points
 62
   1
 39
0.100
  6
CONTINUOUS
 10
40.40000
 20
63.12500
 30
 0
 11
40.40000
 21
65.12500
  0
LINE
  8
Reference_points
 62
   1
 39
0.100
  6
CONTINUOUS
 10
39.40000
 20
66.32500
 30
 0
 11
41.40000
 21
66.32500
  0
LINE
  8
Reference_points
 62
   1
 39
0.100
  6
CONTINUOUS
 10
40.40000
 20
65.32500
 30
 0
 11
40.40000
 21
67.32500
  0
LINE
  8
Reference_points
 62
   1
 39
0.100
  6
CONTINUOUS
 10
61.59900
 20
27.84500
 30
 0
 11
63.59900
 21
27.84500
  0
LINE
  8
Reference_points
 62
   1
 39
0.100
  6
CONTINUOUS
 10
62.59900
 20
26.84500
 30
 0
 11
62.59900
 21
28.84500
  0
LINE
  8
Reference_points
 62
   1
 39
0.100
  6
CONTINUOUS
 10
61.59900
 20
27.84500
 30
 0
 11
63.59900
 21
27.84500
  0
LINE
  8
Reference_points
 62
   1
 39
0.100
  6
CONTINUOUS
 10
62.59900
 20
26.84500
 30
 0
 11
62.59900
 21
28.84500
  0
LINE
  8
Reference_points
 62
   1
 39
0.100
  6
CONTINUOUS
 10
61.59800
 20
104.32500
 30
 0
 11
63.59800
 21
104.32500
  0
LINE
  8
Reference_points
 62
   1
 39
0.100
  6
CONTINUOUS
 10
62.59800
 20
103.32500
 30
 0
 11
62.59800
 21
105.32500
  0
LINE
  8
Reference_points
 62
   1
 39
0.100
  6
CONTINUOUS
 10
61.59800
 20
104.32500
 30
 0
 11
63.59800
 21
104.32500
  0
LINE
  8
Reference_points
 62
   1
 39
0.100
  6
CONTINUOUS
 10
62.59800
 20
103.32500
 30
 0
 11
62.59800
 21
105.32500
  0
LINE
  8
Reference_points
 62
   1
 39
0.100
  6
CONTINUOUS
 10
17.20000
 20
104.32500
 30
 0
 11
19.20000
 21
104.32500
  0
LINE
  8
Reference_points
 62
   1
 39
0.100
  6
CONTINUOUS
 10
18.20000
 20
103.32500
 30
 0
 11
18.20000
 21
105.32500
  0
LINE
  8
Reference_points
 62
   1
 39
0.100
  6
CONTINUOUS
 10
17.20000
 20
104.32500
 30
 0
 11
19.20000
 21
104.32500
  0
LINE
  8
Reference_points
 62
   1
 39
0.100
  6
CONTINUOUS
 10
18.20000
 20
103.32500
 30
 0
 11
18.20000
 21
105.32500
  0
LINE
  8
Reference_points
 62
   1
 39
0.100
  6
CONTINUOUS
 10
17.20000
 20
27.84500
 30
 0
 11
19.20000
 21
27.84500
  0
LINE
  8
Reference_points
 62
   1
 39
0.100
  6
CONTINUOUS
 10
18.20000
 20
26.84500
 30
 0
 11
18.20000
 21
28.84500
  0
LINE
  8
Reference_points
 62
   1
 39
0.100
  6
CONTINUOUS
 10
17.20000
 20
27.84500
 30
 0
 11
19.20000
 21
27.84500
  0
LINE
  8
Reference_points
 62
   1
 39
0.100
  6
CONTINUOUS
 10
18.20000
 20
26.84500
 30
 0
 11
18.20000
 21
28.84500
  0
LINE
  8
Reference_points
 62
   1
 39
0.100
  6
CONTINUOUS
 10
38.20000
 20
22.92500
 30
 0
 11
40.20000
 21
22.92500
  0
LINE
  8
Reference_points
 62
   1
 39
0.100
  6
CONTINUOUS
 10
39.20000
 20
21.92500
 30
 0
 11
39.20000
 21
23.92500
  0
LINE
  8
Reference_points
 62
   1
 39
0.100
  6
CONTINUOUS
 10
22.69000
 20
22.92500
 30
 0
 11
24.69000
 21
22.92500
  0
LINE
  8
Reference_points
 62
   1
 39
0.100
  6
CONTINUOUS
 10
23.69000
 20
21.92500
 30
 0
 11
23.69000
 21
23.92500
  0
LINE
  8
Reference_points
 62
   1
 39
0.100
  6
CONTINUOUS
 10
39.40000
 20
64.12500
 30
 0
 11
41.40000
 21
64.12500
  0
LINE
  8
Reference_points
 62
   1
 39
0.100
  6
CONTINUOUS
 10
40.40000
 20
63.12500
 30
 0
 11
40.40000
 21
65.12500
  0
ENDSEC
  0
EOF
