G04 #@! TF.GenerationSoftware,KiCad,Pcbnew,(5.1.4-0-10_14)*
G04 #@! TF.CreationDate,2019-09-22T18:22:58+01:00*
G04 #@! TF.ProjectId,knobs,6b6e6f62-732e-46b6-9963-61645f706362,rev?*
G04 #@! TF.SameCoordinates,Original*
G04 #@! TF.FileFunction,Paste,Bot*
G04 #@! TF.FilePolarity,Positive*
%FSLAX46Y46*%
G04 Gerber Fmt 4.6, Leading zero omitted, Abs format (unit mm)*
G04 Created by KiCad (PCBNEW (5.1.4-0-10_14)) date 2019-09-22 18:22:58*
%MOMM*%
%LPD*%
G04 APERTURE LIST*
%ADD10C,0.100000*%
%ADD11C,1.100000*%
%ADD12R,1.150000X0.750000*%
%ADD13R,0.950000X1.400000*%
%ADD14R,1.500000X1.300000*%
%ADD15R,1.300000X1.500000*%
%ADD16C,0.950000*%
%ADD17R,3.683000X1.270000*%
%ADD18R,1.500000X3.400000*%
%ADD19R,1.000000X3.500000*%
%ADD20C,1.600000*%
%ADD21C,1.800000*%
%ADD22C,1.900000*%
%ADD23C,0.400000*%
%ADD24C,0.800000*%
%ADD25C,0.600000*%
%ADD26C,1.000000*%
%ADD27R,1.800000X1.600000*%
G04 APERTURE END LIST*
D10*
G36*
X152431000Y-111119000D02*
G01*
X152431000Y-109784000D01*
X151096000Y-109784000D01*
X151096000Y-111119000D01*
X152431000Y-111119000D01*
G37*
G36*
X152431000Y-114519000D02*
G01*
X152431000Y-113184000D01*
X151096000Y-113184000D01*
X151096000Y-114519000D01*
X152431000Y-114519000D01*
G37*
G36*
X152431000Y-112819000D02*
G01*
X152431000Y-111484000D01*
X151096000Y-111484000D01*
X151096000Y-112819000D01*
X152431000Y-112819000D01*
G37*
G36*
X150731000Y-111119000D02*
G01*
X150731000Y-109784000D01*
X149396000Y-109784000D01*
X149396000Y-111119000D01*
X150731000Y-111119000D01*
G37*
G36*
X149031000Y-111119000D02*
G01*
X149031000Y-109784000D01*
X147696000Y-109784000D01*
X147696000Y-111119000D01*
X149031000Y-111119000D01*
G37*
G36*
X149031000Y-112819000D02*
G01*
X149031000Y-111484000D01*
X147696000Y-111484000D01*
X147696000Y-112819000D01*
X149031000Y-112819000D01*
G37*
G36*
X149031000Y-114519000D02*
G01*
X149031000Y-113184000D01*
X147696000Y-113184000D01*
X147696000Y-114519000D01*
X149031000Y-114519000D01*
G37*
G36*
X150731000Y-114519000D02*
G01*
X150731000Y-113184000D01*
X149396000Y-113184000D01*
X149396000Y-114519000D01*
X150731000Y-114519000D01*
G37*
G36*
X150731000Y-112819000D02*
G01*
X150731000Y-111484000D01*
X149396000Y-111484000D01*
X149396000Y-112819000D01*
X150731000Y-112819000D01*
G37*
G36*
X153891000Y-109319000D02*
G01*
X153251000Y-109319000D01*
X153166000Y-109404000D01*
X153251000Y-109489000D01*
X153891000Y-109489000D01*
X153891000Y-109319000D01*
G37*
G36*
X153891000Y-109819000D02*
G01*
X153251000Y-109819000D01*
X153166000Y-109904000D01*
X153251000Y-109989000D01*
X153891000Y-109989000D01*
X153891000Y-109819000D01*
G37*
G36*
X153891000Y-110319000D02*
G01*
X153251000Y-110319000D01*
X153166000Y-110404000D01*
X153251000Y-110489000D01*
X153891000Y-110489000D01*
X153891000Y-110319000D01*
G37*
G36*
X153891000Y-110819000D02*
G01*
X153251000Y-110819000D01*
X153166000Y-110904000D01*
X153251000Y-110989000D01*
X153891000Y-110989000D01*
X153891000Y-110819000D01*
G37*
G36*
X153891000Y-111319000D02*
G01*
X153251000Y-111319000D01*
X153166000Y-111404000D01*
X153251000Y-111489000D01*
X153891000Y-111489000D01*
X153891000Y-111319000D01*
G37*
G36*
X153891000Y-111819000D02*
G01*
X153251000Y-111819000D01*
X153166000Y-111904000D01*
X153251000Y-111989000D01*
X153891000Y-111989000D01*
X153891000Y-111819000D01*
G37*
G36*
X153891000Y-112319000D02*
G01*
X153251000Y-112319000D01*
X153166000Y-112404000D01*
X153251000Y-112489000D01*
X153891000Y-112489000D01*
X153891000Y-112319000D01*
G37*
G36*
X153891000Y-112819000D02*
G01*
X153251000Y-112819000D01*
X153166000Y-112904000D01*
X153251000Y-112989000D01*
X153891000Y-112989000D01*
X153891000Y-112819000D01*
G37*
G36*
X153891000Y-113319000D02*
G01*
X153251000Y-113319000D01*
X153166000Y-113404000D01*
X153251000Y-113489000D01*
X153891000Y-113489000D01*
X153891000Y-113319000D01*
G37*
G36*
X153891000Y-113819000D02*
G01*
X153251000Y-113819000D01*
X153166000Y-113904000D01*
X153251000Y-113989000D01*
X153891000Y-113989000D01*
X153891000Y-113819000D01*
G37*
G36*
X153891000Y-114319000D02*
G01*
X153251000Y-114319000D01*
X153166000Y-114404000D01*
X153251000Y-114489000D01*
X153891000Y-114489000D01*
X153891000Y-114319000D01*
G37*
G36*
X153891000Y-114819000D02*
G01*
X153251000Y-114819000D01*
X153166000Y-114904000D01*
X153251000Y-114989000D01*
X153891000Y-114989000D01*
X153891000Y-114819000D01*
G37*
G36*
X152731000Y-108329000D02*
G01*
X152731000Y-108969000D01*
X152816000Y-109054000D01*
X152901000Y-108969000D01*
X152901000Y-108329000D01*
X152731000Y-108329000D01*
G37*
G36*
X147231000Y-108329000D02*
G01*
X147231000Y-108969000D01*
X147316000Y-109054000D01*
X147401000Y-108969000D01*
X147401000Y-108329000D01*
X147231000Y-108329000D01*
G37*
G36*
X147731000Y-108329000D02*
G01*
X147731000Y-108969000D01*
X147816000Y-109054000D01*
X147901000Y-108969000D01*
X147901000Y-108329000D01*
X147731000Y-108329000D01*
G37*
G36*
X148231000Y-108329000D02*
G01*
X148231000Y-108969000D01*
X148316000Y-109054000D01*
X148401000Y-108969000D01*
X148401000Y-108329000D01*
X148231000Y-108329000D01*
G37*
G36*
X148731000Y-108329000D02*
G01*
X148731000Y-108969000D01*
X148816000Y-109054000D01*
X148901000Y-108969000D01*
X148901000Y-108329000D01*
X148731000Y-108329000D01*
G37*
G36*
X149231000Y-108329000D02*
G01*
X149231000Y-108969000D01*
X149316000Y-109054000D01*
X149401000Y-108969000D01*
X149401000Y-108329000D01*
X149231000Y-108329000D01*
G37*
G36*
X149731000Y-108329000D02*
G01*
X149731000Y-108969000D01*
X149816000Y-109054000D01*
X149901000Y-108969000D01*
X149901000Y-108329000D01*
X149731000Y-108329000D01*
G37*
G36*
X150231000Y-108329000D02*
G01*
X150231000Y-108969000D01*
X150316000Y-109054000D01*
X150401000Y-108969000D01*
X150401000Y-108329000D01*
X150231000Y-108329000D01*
G37*
G36*
X150731000Y-108329000D02*
G01*
X150731000Y-108969000D01*
X150816000Y-109054000D01*
X150901000Y-108969000D01*
X150901000Y-108329000D01*
X150731000Y-108329000D01*
G37*
G36*
X151231000Y-108329000D02*
G01*
X151231000Y-108969000D01*
X151316000Y-109054000D01*
X151401000Y-108969000D01*
X151401000Y-108329000D01*
X151231000Y-108329000D01*
G37*
G36*
X151731000Y-108329000D02*
G01*
X151731000Y-108969000D01*
X151816000Y-109054000D01*
X151901000Y-108969000D01*
X151901000Y-108329000D01*
X151731000Y-108329000D01*
G37*
G36*
X152231000Y-108329000D02*
G01*
X152231000Y-108969000D01*
X152316000Y-109054000D01*
X152401000Y-108969000D01*
X152401000Y-108329000D01*
X152231000Y-108329000D01*
G37*
G36*
X146241000Y-109489000D02*
G01*
X146881000Y-109489000D01*
X146966000Y-109404000D01*
X146881000Y-109319000D01*
X146241000Y-109319000D01*
X146241000Y-109489000D01*
G37*
G36*
X146241000Y-114989000D02*
G01*
X146881000Y-114989000D01*
X146966000Y-114904000D01*
X146881000Y-114819000D01*
X146241000Y-114819000D01*
X146241000Y-114989000D01*
G37*
G36*
X146241000Y-114489000D02*
G01*
X146881000Y-114489000D01*
X146966000Y-114404000D01*
X146881000Y-114319000D01*
X146241000Y-114319000D01*
X146241000Y-114489000D01*
G37*
G36*
X146241000Y-113989000D02*
G01*
X146881000Y-113989000D01*
X146966000Y-113904000D01*
X146881000Y-113819000D01*
X146241000Y-113819000D01*
X146241000Y-113989000D01*
G37*
G36*
X146241000Y-113489000D02*
G01*
X146881000Y-113489000D01*
X146966000Y-113404000D01*
X146881000Y-113319000D01*
X146241000Y-113319000D01*
X146241000Y-113489000D01*
G37*
G36*
X146241000Y-112989000D02*
G01*
X146881000Y-112989000D01*
X146966000Y-112904000D01*
X146881000Y-112819000D01*
X146241000Y-112819000D01*
X146241000Y-112989000D01*
G37*
G36*
X146241000Y-112489000D02*
G01*
X146881000Y-112489000D01*
X146966000Y-112404000D01*
X146881000Y-112319000D01*
X146241000Y-112319000D01*
X146241000Y-112489000D01*
G37*
G36*
X146241000Y-111989000D02*
G01*
X146881000Y-111989000D01*
X146966000Y-111904000D01*
X146881000Y-111819000D01*
X146241000Y-111819000D01*
X146241000Y-111989000D01*
G37*
G36*
X146241000Y-111489000D02*
G01*
X146881000Y-111489000D01*
X146966000Y-111404000D01*
X146881000Y-111319000D01*
X146241000Y-111319000D01*
X146241000Y-111489000D01*
G37*
G36*
X146241000Y-110989000D02*
G01*
X146881000Y-110989000D01*
X146966000Y-110904000D01*
X146881000Y-110819000D01*
X146241000Y-110819000D01*
X146241000Y-110989000D01*
G37*
G36*
X146241000Y-110489000D02*
G01*
X146881000Y-110489000D01*
X146966000Y-110404000D01*
X146881000Y-110319000D01*
X146241000Y-110319000D01*
X146241000Y-110489000D01*
G37*
G36*
X146241000Y-109989000D02*
G01*
X146881000Y-109989000D01*
X146966000Y-109904000D01*
X146881000Y-109819000D01*
X146241000Y-109819000D01*
X146241000Y-109989000D01*
G37*
G36*
X152901000Y-115979000D02*
G01*
X152901000Y-115339000D01*
X152816000Y-115254000D01*
X152731000Y-115339000D01*
X152731000Y-115979000D01*
X152901000Y-115979000D01*
G37*
G36*
X152401000Y-115979000D02*
G01*
X152401000Y-115339000D01*
X152316000Y-115254000D01*
X152231000Y-115339000D01*
X152231000Y-115979000D01*
X152401000Y-115979000D01*
G37*
G36*
X151901000Y-115979000D02*
G01*
X151901000Y-115339000D01*
X151816000Y-115254000D01*
X151731000Y-115339000D01*
X151731000Y-115979000D01*
X151901000Y-115979000D01*
G37*
G36*
X151401000Y-115979000D02*
G01*
X151401000Y-115339000D01*
X151316000Y-115254000D01*
X151231000Y-115339000D01*
X151231000Y-115979000D01*
X151401000Y-115979000D01*
G37*
G36*
X150901000Y-115979000D02*
G01*
X150901000Y-115339000D01*
X150816000Y-115254000D01*
X150731000Y-115339000D01*
X150731000Y-115979000D01*
X150901000Y-115979000D01*
G37*
G36*
X150401000Y-115979000D02*
G01*
X150401000Y-115339000D01*
X150316000Y-115254000D01*
X150231000Y-115339000D01*
X150231000Y-115979000D01*
X150401000Y-115979000D01*
G37*
G36*
X149901000Y-115979000D02*
G01*
X149901000Y-115339000D01*
X149816000Y-115254000D01*
X149731000Y-115339000D01*
X149731000Y-115979000D01*
X149901000Y-115979000D01*
G37*
G36*
X149401000Y-115979000D02*
G01*
X149401000Y-115339000D01*
X149316000Y-115254000D01*
X149231000Y-115339000D01*
X149231000Y-115979000D01*
X149401000Y-115979000D01*
G37*
G36*
X148901000Y-115979000D02*
G01*
X148901000Y-115339000D01*
X148816000Y-115254000D01*
X148731000Y-115339000D01*
X148731000Y-115979000D01*
X148901000Y-115979000D01*
G37*
G36*
X148401000Y-115979000D02*
G01*
X148401000Y-115339000D01*
X148316000Y-115254000D01*
X148231000Y-115339000D01*
X148231000Y-115979000D01*
X148401000Y-115979000D01*
G37*
G36*
X147901000Y-115979000D02*
G01*
X147901000Y-115339000D01*
X147816000Y-115254000D01*
X147731000Y-115339000D01*
X147731000Y-115979000D01*
X147901000Y-115979000D01*
G37*
G36*
X147401000Y-115979000D02*
G01*
X147401000Y-115339000D01*
X147316000Y-115254000D01*
X147231000Y-115339000D01*
X147231000Y-115979000D01*
X147401000Y-115979000D01*
G37*
G36*
X141242000Y-105908000D02*
G01*
X141242000Y-107408000D01*
X140142000Y-107408000D01*
X140142000Y-105908000D01*
X141242000Y-105908000D01*
G37*
G36*
X138242000Y-105908000D02*
G01*
X138242000Y-107408000D01*
X137142000Y-107408000D01*
X137142000Y-105908000D01*
X138242000Y-105908000D01*
G37*
G36*
X140292000Y-108208000D02*
G01*
X139692000Y-107608000D01*
X139692000Y-105908000D01*
X138692000Y-105908000D01*
X138692000Y-107608000D01*
X138092000Y-108208000D01*
X138092000Y-110408000D01*
X138692000Y-111008000D01*
X139692000Y-111008000D01*
X140292000Y-110408000D01*
X140292000Y-108208000D01*
G37*
G36*
X155259117Y-118442079D02*
G01*
X155260719Y-118442317D01*
X155262290Y-118442710D01*
X155263814Y-118443256D01*
X155265278Y-118443948D01*
X155266667Y-118444781D01*
X155267967Y-118445745D01*
X155269167Y-118446833D01*
X155270255Y-118448033D01*
X155271219Y-118449333D01*
X155272052Y-118450722D01*
X155272744Y-118452186D01*
X155273290Y-118453710D01*
X155273683Y-118455281D01*
X155273921Y-118456883D01*
X155274000Y-118458500D01*
X155274000Y-120325500D01*
X155273921Y-120327117D01*
X155273683Y-120328719D01*
X155273290Y-120330290D01*
X155272744Y-120331814D01*
X155272052Y-120333278D01*
X155271219Y-120334667D01*
X155270255Y-120335967D01*
X155269167Y-120337167D01*
X155267967Y-120338255D01*
X155266667Y-120339219D01*
X155265278Y-120340052D01*
X155263814Y-120340744D01*
X155262290Y-120341290D01*
X155260719Y-120341683D01*
X155259117Y-120341921D01*
X155257500Y-120342000D01*
X154190500Y-120342000D01*
X154188883Y-120341921D01*
X154187281Y-120341683D01*
X154185710Y-120341290D01*
X154184186Y-120340744D01*
X154182722Y-120340052D01*
X154181333Y-120339219D01*
X154180033Y-120338255D01*
X154178833Y-120337167D01*
X154177745Y-120335967D01*
X154176781Y-120334667D01*
X154175948Y-120333278D01*
X154175256Y-120331814D01*
X154174710Y-120330290D01*
X154174317Y-120328719D01*
X154174079Y-120327117D01*
X154174000Y-120325500D01*
X154174000Y-118458500D01*
X154174079Y-118456883D01*
X154174317Y-118455281D01*
X154174710Y-118453710D01*
X154175256Y-118452186D01*
X154175948Y-118450722D01*
X154176781Y-118449333D01*
X154177745Y-118448033D01*
X154178833Y-118446833D01*
X154180033Y-118445745D01*
X154181333Y-118444781D01*
X154182722Y-118443948D01*
X154184186Y-118443256D01*
X154185710Y-118442710D01*
X154187281Y-118442317D01*
X154188883Y-118442079D01*
X154190500Y-118442000D01*
X155257500Y-118442000D01*
X155259117Y-118442079D01*
X155259117Y-118442079D01*
G37*
D11*
X154724000Y-119392000D03*
D10*
G36*
X152759117Y-118442079D02*
G01*
X152760719Y-118442317D01*
X152762290Y-118442710D01*
X152763814Y-118443256D01*
X152765278Y-118443948D01*
X152766667Y-118444781D01*
X152767967Y-118445745D01*
X152769167Y-118446833D01*
X152770255Y-118448033D01*
X152771219Y-118449333D01*
X152772052Y-118450722D01*
X152772744Y-118452186D01*
X152773290Y-118453710D01*
X152773683Y-118455281D01*
X152773921Y-118456883D01*
X152774000Y-118458500D01*
X152774000Y-120325500D01*
X152773921Y-120327117D01*
X152773683Y-120328719D01*
X152773290Y-120330290D01*
X152772744Y-120331814D01*
X152772052Y-120333278D01*
X152771219Y-120334667D01*
X152770255Y-120335967D01*
X152769167Y-120337167D01*
X152767967Y-120338255D01*
X152766667Y-120339219D01*
X152765278Y-120340052D01*
X152763814Y-120340744D01*
X152762290Y-120341290D01*
X152760719Y-120341683D01*
X152759117Y-120341921D01*
X152757500Y-120342000D01*
X151690500Y-120342000D01*
X151688883Y-120341921D01*
X151687281Y-120341683D01*
X151685710Y-120341290D01*
X151684186Y-120340744D01*
X151682722Y-120340052D01*
X151681333Y-120339219D01*
X151680033Y-120338255D01*
X151678833Y-120337167D01*
X151677745Y-120335967D01*
X151676781Y-120334667D01*
X151675948Y-120333278D01*
X151675256Y-120331814D01*
X151674710Y-120330290D01*
X151674317Y-120328719D01*
X151674079Y-120327117D01*
X151674000Y-120325500D01*
X151674000Y-118458500D01*
X151674079Y-118456883D01*
X151674317Y-118455281D01*
X151674710Y-118453710D01*
X151675256Y-118452186D01*
X151675948Y-118450722D01*
X151676781Y-118449333D01*
X151677745Y-118448033D01*
X151678833Y-118446833D01*
X151680033Y-118445745D01*
X151681333Y-118444781D01*
X151682722Y-118443948D01*
X151684186Y-118443256D01*
X151685710Y-118442710D01*
X151687281Y-118442317D01*
X151688883Y-118442079D01*
X151690500Y-118442000D01*
X152757500Y-118442000D01*
X152759117Y-118442079D01*
X152759117Y-118442079D01*
G37*
D11*
X152224000Y-119392000D03*
D12*
X99286100Y-95389300D03*
X99286100Y-98439300D03*
X96136100Y-95389300D03*
X96136100Y-98439300D03*
D13*
X95636100Y-96914300D03*
X99786100Y-96914300D03*
D14*
X109220000Y-103897000D03*
X109220000Y-101997000D03*
X123746000Y-126762000D03*
X123746000Y-128662000D03*
X104696000Y-103897000D03*
X104696000Y-101997000D03*
X100569000Y-101997000D03*
X100569000Y-103897000D03*
X95885000Y-101997000D03*
X95885000Y-103897000D03*
D15*
X107869000Y-113107000D03*
X105969000Y-113107000D03*
X110175000Y-120650000D03*
X112075000Y-120650000D03*
D14*
X160020000Y-100518000D03*
X160020000Y-98618000D03*
D10*
G36*
X138978147Y-119274069D02*
G01*
X138979530Y-119274274D01*
X138980887Y-119274614D01*
X138982203Y-119275085D01*
X138983467Y-119275683D01*
X138984667Y-119276402D01*
X138985790Y-119277235D01*
X138986826Y-119278174D01*
X138987765Y-119279210D01*
X138988598Y-119280333D01*
X138989317Y-119281533D01*
X138989915Y-119282797D01*
X138990386Y-119284113D01*
X138990726Y-119285470D01*
X138990931Y-119286853D01*
X138991000Y-119288250D01*
X138991000Y-120259750D01*
X138990931Y-120261147D01*
X138990726Y-120262530D01*
X138990386Y-120263887D01*
X138989915Y-120265203D01*
X138989317Y-120266467D01*
X138988598Y-120267667D01*
X138987765Y-120268790D01*
X138986826Y-120269826D01*
X138985790Y-120270765D01*
X138984667Y-120271598D01*
X138983467Y-120272317D01*
X138982203Y-120272915D01*
X138980887Y-120273386D01*
X138979530Y-120273726D01*
X138978147Y-120273931D01*
X138976750Y-120274000D01*
X138055250Y-120274000D01*
X138053853Y-120273931D01*
X138052470Y-120273726D01*
X138051113Y-120273386D01*
X138049797Y-120272915D01*
X138048533Y-120272317D01*
X138047333Y-120271598D01*
X138046210Y-120270765D01*
X138045174Y-120269826D01*
X138044235Y-120268790D01*
X138043402Y-120267667D01*
X138042683Y-120266467D01*
X138042085Y-120265203D01*
X138041614Y-120263887D01*
X138041274Y-120262530D01*
X138041069Y-120261147D01*
X138041000Y-120259750D01*
X138041000Y-119288250D01*
X138041069Y-119286853D01*
X138041274Y-119285470D01*
X138041614Y-119284113D01*
X138042085Y-119282797D01*
X138042683Y-119281533D01*
X138043402Y-119280333D01*
X138044235Y-119279210D01*
X138045174Y-119278174D01*
X138046210Y-119277235D01*
X138047333Y-119276402D01*
X138048533Y-119275683D01*
X138049797Y-119275085D01*
X138051113Y-119274614D01*
X138052470Y-119274274D01*
X138053853Y-119274069D01*
X138055250Y-119274000D01*
X138976750Y-119274000D01*
X138978147Y-119274069D01*
X138978147Y-119274069D01*
G37*
D16*
X138516000Y-119774000D03*
D10*
G36*
X137378147Y-119274069D02*
G01*
X137379530Y-119274274D01*
X137380887Y-119274614D01*
X137382203Y-119275085D01*
X137383467Y-119275683D01*
X137384667Y-119276402D01*
X137385790Y-119277235D01*
X137386826Y-119278174D01*
X137387765Y-119279210D01*
X137388598Y-119280333D01*
X137389317Y-119281533D01*
X137389915Y-119282797D01*
X137390386Y-119284113D01*
X137390726Y-119285470D01*
X137390931Y-119286853D01*
X137391000Y-119288250D01*
X137391000Y-120259750D01*
X137390931Y-120261147D01*
X137390726Y-120262530D01*
X137390386Y-120263887D01*
X137389915Y-120265203D01*
X137389317Y-120266467D01*
X137388598Y-120267667D01*
X137387765Y-120268790D01*
X137386826Y-120269826D01*
X137385790Y-120270765D01*
X137384667Y-120271598D01*
X137383467Y-120272317D01*
X137382203Y-120272915D01*
X137380887Y-120273386D01*
X137379530Y-120273726D01*
X137378147Y-120273931D01*
X137376750Y-120274000D01*
X136455250Y-120274000D01*
X136453853Y-120273931D01*
X136452470Y-120273726D01*
X136451113Y-120273386D01*
X136449797Y-120272915D01*
X136448533Y-120272317D01*
X136447333Y-120271598D01*
X136446210Y-120270765D01*
X136445174Y-120269826D01*
X136444235Y-120268790D01*
X136443402Y-120267667D01*
X136442683Y-120266467D01*
X136442085Y-120265203D01*
X136441614Y-120263887D01*
X136441274Y-120262530D01*
X136441069Y-120261147D01*
X136441000Y-120259750D01*
X136441000Y-119288250D01*
X136441069Y-119286853D01*
X136441274Y-119285470D01*
X136441614Y-119284113D01*
X136442085Y-119282797D01*
X136442683Y-119281533D01*
X136443402Y-119280333D01*
X136444235Y-119279210D01*
X136445174Y-119278174D01*
X136446210Y-119277235D01*
X136447333Y-119276402D01*
X136448533Y-119275683D01*
X136449797Y-119275085D01*
X136451113Y-119274614D01*
X136452470Y-119274274D01*
X136453853Y-119274069D01*
X136455250Y-119274000D01*
X137376750Y-119274000D01*
X137378147Y-119274069D01*
X137378147Y-119274069D01*
G37*
D16*
X136916000Y-119774000D03*
D10*
G36*
X144442147Y-97925069D02*
G01*
X144443530Y-97925274D01*
X144444887Y-97925614D01*
X144446203Y-97926085D01*
X144447467Y-97926683D01*
X144448667Y-97927402D01*
X144449790Y-97928235D01*
X144450826Y-97929174D01*
X144451765Y-97930210D01*
X144452598Y-97931333D01*
X144453317Y-97932533D01*
X144453915Y-97933797D01*
X144454386Y-97935113D01*
X144454726Y-97936470D01*
X144454931Y-97937853D01*
X144455000Y-97939250D01*
X144455000Y-98910750D01*
X144454931Y-98912147D01*
X144454726Y-98913530D01*
X144454386Y-98914887D01*
X144453915Y-98916203D01*
X144453317Y-98917467D01*
X144452598Y-98918667D01*
X144451765Y-98919790D01*
X144450826Y-98920826D01*
X144449790Y-98921765D01*
X144448667Y-98922598D01*
X144447467Y-98923317D01*
X144446203Y-98923915D01*
X144444887Y-98924386D01*
X144443530Y-98924726D01*
X144442147Y-98924931D01*
X144440750Y-98925000D01*
X143519250Y-98925000D01*
X143517853Y-98924931D01*
X143516470Y-98924726D01*
X143515113Y-98924386D01*
X143513797Y-98923915D01*
X143512533Y-98923317D01*
X143511333Y-98922598D01*
X143510210Y-98921765D01*
X143509174Y-98920826D01*
X143508235Y-98919790D01*
X143507402Y-98918667D01*
X143506683Y-98917467D01*
X143506085Y-98916203D01*
X143505614Y-98914887D01*
X143505274Y-98913530D01*
X143505069Y-98912147D01*
X143505000Y-98910750D01*
X143505000Y-97939250D01*
X143505069Y-97937853D01*
X143505274Y-97936470D01*
X143505614Y-97935113D01*
X143506085Y-97933797D01*
X143506683Y-97932533D01*
X143507402Y-97931333D01*
X143508235Y-97930210D01*
X143509174Y-97929174D01*
X143510210Y-97928235D01*
X143511333Y-97927402D01*
X143512533Y-97926683D01*
X143513797Y-97926085D01*
X143515113Y-97925614D01*
X143516470Y-97925274D01*
X143517853Y-97925069D01*
X143519250Y-97925000D01*
X144440750Y-97925000D01*
X144442147Y-97925069D01*
X144442147Y-97925069D01*
G37*
D16*
X143980000Y-98425000D03*
D10*
G36*
X146042147Y-97925069D02*
G01*
X146043530Y-97925274D01*
X146044887Y-97925614D01*
X146046203Y-97926085D01*
X146047467Y-97926683D01*
X146048667Y-97927402D01*
X146049790Y-97928235D01*
X146050826Y-97929174D01*
X146051765Y-97930210D01*
X146052598Y-97931333D01*
X146053317Y-97932533D01*
X146053915Y-97933797D01*
X146054386Y-97935113D01*
X146054726Y-97936470D01*
X146054931Y-97937853D01*
X146055000Y-97939250D01*
X146055000Y-98910750D01*
X146054931Y-98912147D01*
X146054726Y-98913530D01*
X146054386Y-98914887D01*
X146053915Y-98916203D01*
X146053317Y-98917467D01*
X146052598Y-98918667D01*
X146051765Y-98919790D01*
X146050826Y-98920826D01*
X146049790Y-98921765D01*
X146048667Y-98922598D01*
X146047467Y-98923317D01*
X146046203Y-98923915D01*
X146044887Y-98924386D01*
X146043530Y-98924726D01*
X146042147Y-98924931D01*
X146040750Y-98925000D01*
X145119250Y-98925000D01*
X145117853Y-98924931D01*
X145116470Y-98924726D01*
X145115113Y-98924386D01*
X145113797Y-98923915D01*
X145112533Y-98923317D01*
X145111333Y-98922598D01*
X145110210Y-98921765D01*
X145109174Y-98920826D01*
X145108235Y-98919790D01*
X145107402Y-98918667D01*
X145106683Y-98917467D01*
X145106085Y-98916203D01*
X145105614Y-98914887D01*
X145105274Y-98913530D01*
X145105069Y-98912147D01*
X145105000Y-98910750D01*
X145105000Y-97939250D01*
X145105069Y-97937853D01*
X145105274Y-97936470D01*
X145105614Y-97935113D01*
X145106085Y-97933797D01*
X145106683Y-97932533D01*
X145107402Y-97931333D01*
X145108235Y-97930210D01*
X145109174Y-97929174D01*
X145110210Y-97928235D01*
X145111333Y-97927402D01*
X145112533Y-97926683D01*
X145113797Y-97926085D01*
X145115113Y-97925614D01*
X145116470Y-97925274D01*
X145117853Y-97925069D01*
X145119250Y-97925000D01*
X146040750Y-97925000D01*
X146042147Y-97925069D01*
X146042147Y-97925069D01*
G37*
D16*
X145580000Y-98425000D03*
D17*
X96123600Y-110249000D03*
X96123600Y-112789000D03*
X100568600Y-110249000D03*
X100568600Y-112789000D03*
X100568600Y-115329000D03*
X96123600Y-115329000D03*
D18*
X129826000Y-97471800D03*
X140526000Y-97471800D03*
D19*
X138176000Y-103221800D03*
X136176000Y-103221800D03*
X134176000Y-103221800D03*
X132176000Y-103221800D03*
D10*
G36*
X150449352Y-99161916D02*
G01*
X150451682Y-99162261D01*
X150453967Y-99162833D01*
X150456184Y-99163627D01*
X150458314Y-99164634D01*
X150460334Y-99165845D01*
X150462225Y-99167248D01*
X150463971Y-99168829D01*
X150465552Y-99170575D01*
X150466955Y-99172466D01*
X150468166Y-99174486D01*
X150469173Y-99176616D01*
X150469967Y-99178833D01*
X150470539Y-99181118D01*
X150470884Y-99183448D01*
X150471000Y-99185800D01*
X150471000Y-100737800D01*
X150470884Y-100740152D01*
X150470539Y-100742482D01*
X150469967Y-100744767D01*
X150469173Y-100746984D01*
X150468166Y-100749114D01*
X150466955Y-100751134D01*
X150465552Y-100753025D01*
X150463971Y-100754771D01*
X150462225Y-100756352D01*
X150460334Y-100757755D01*
X150458314Y-100758966D01*
X150456184Y-100759973D01*
X150453967Y-100760767D01*
X150451682Y-100761339D01*
X150449352Y-100761684D01*
X150447000Y-100761800D01*
X148395000Y-100761800D01*
X148392648Y-100761684D01*
X148390318Y-100761339D01*
X148388033Y-100760767D01*
X148385816Y-100759973D01*
X148383686Y-100758966D01*
X148381666Y-100757755D01*
X148379775Y-100756352D01*
X148378029Y-100754771D01*
X148376448Y-100753025D01*
X148375045Y-100751134D01*
X148373834Y-100749114D01*
X148372827Y-100746984D01*
X148372033Y-100744767D01*
X148371461Y-100742482D01*
X148371116Y-100740152D01*
X148371000Y-100737800D01*
X148371000Y-99185800D01*
X148371116Y-99183448D01*
X148371461Y-99181118D01*
X148372033Y-99178833D01*
X148372827Y-99176616D01*
X148373834Y-99174486D01*
X148375045Y-99172466D01*
X148376448Y-99170575D01*
X148378029Y-99168829D01*
X148379775Y-99167248D01*
X148381666Y-99165845D01*
X148383686Y-99164634D01*
X148385816Y-99163627D01*
X148388033Y-99162833D01*
X148390318Y-99162261D01*
X148392648Y-99161916D01*
X148395000Y-99161800D01*
X150447000Y-99161800D01*
X150449352Y-99161916D01*
X150449352Y-99161916D01*
G37*
D20*
X149421000Y-99961800D03*
D10*
G36*
X149396646Y-96461930D02*
G01*
X149399267Y-96462319D01*
X149401838Y-96462963D01*
X149404332Y-96463855D01*
X149406728Y-96464988D01*
X149409000Y-96466350D01*
X149411129Y-96467929D01*
X149413092Y-96469708D01*
X149414871Y-96471671D01*
X149416450Y-96473800D01*
X149417812Y-96476072D01*
X149418945Y-96478468D01*
X149419837Y-96480962D01*
X149420481Y-96483533D01*
X149420870Y-96486154D01*
X149421000Y-96488800D01*
X149421000Y-98334800D01*
X149420870Y-98337446D01*
X149420481Y-98340067D01*
X149419837Y-98342638D01*
X149418945Y-98345132D01*
X149417812Y-98347528D01*
X149416450Y-98349800D01*
X149414871Y-98351929D01*
X149413092Y-98353892D01*
X149411129Y-98355671D01*
X149409000Y-98357250D01*
X149406728Y-98358612D01*
X149404332Y-98359745D01*
X149401838Y-98360637D01*
X149399267Y-98361281D01*
X149396646Y-98361670D01*
X149394000Y-98361800D01*
X147648000Y-98361800D01*
X147645354Y-98361670D01*
X147642733Y-98361281D01*
X147640162Y-98360637D01*
X147637668Y-98359745D01*
X147635272Y-98358612D01*
X147633000Y-98357250D01*
X147630871Y-98355671D01*
X147628908Y-98353892D01*
X147627129Y-98351929D01*
X147625550Y-98349800D01*
X147624188Y-98347528D01*
X147623055Y-98345132D01*
X147622163Y-98342638D01*
X147621519Y-98340067D01*
X147621130Y-98337446D01*
X147621000Y-98334800D01*
X147621000Y-96488800D01*
X147621130Y-96486154D01*
X147621519Y-96483533D01*
X147622163Y-96480962D01*
X147623055Y-96478468D01*
X147624188Y-96476072D01*
X147625550Y-96473800D01*
X147627129Y-96471671D01*
X147628908Y-96469708D01*
X147630871Y-96467929D01*
X147633000Y-96466350D01*
X147635272Y-96464988D01*
X147637668Y-96463855D01*
X147640162Y-96462963D01*
X147642733Y-96462319D01*
X147645354Y-96461930D01*
X147648000Y-96461800D01*
X149394000Y-96461800D01*
X149396646Y-96461930D01*
X149396646Y-96461930D01*
G37*
D21*
X148521000Y-97411800D03*
D10*
G36*
X152245293Y-96461937D02*
G01*
X152248060Y-96462348D01*
X152250773Y-96463027D01*
X152253406Y-96463969D01*
X152255935Y-96465165D01*
X152258334Y-96466603D01*
X152260580Y-96468269D01*
X152262653Y-96470147D01*
X152264531Y-96472220D01*
X152266197Y-96474466D01*
X152267635Y-96476865D01*
X152268831Y-96479394D01*
X152269773Y-96482027D01*
X152270452Y-96484740D01*
X152270863Y-96487507D01*
X152271000Y-96490300D01*
X152271000Y-98333300D01*
X152270863Y-98336093D01*
X152270452Y-98338860D01*
X152269773Y-98341573D01*
X152268831Y-98344206D01*
X152267635Y-98346735D01*
X152266197Y-98349134D01*
X152264531Y-98351380D01*
X152262653Y-98353453D01*
X152260580Y-98355331D01*
X152258334Y-98356997D01*
X152255935Y-98358435D01*
X152253406Y-98359631D01*
X152250773Y-98360573D01*
X152248060Y-98361252D01*
X152245293Y-98361663D01*
X152242500Y-98361800D01*
X150399500Y-98361800D01*
X150396707Y-98361663D01*
X150393940Y-98361252D01*
X150391227Y-98360573D01*
X150388594Y-98359631D01*
X150386065Y-98358435D01*
X150383666Y-98356997D01*
X150381420Y-98355331D01*
X150379347Y-98353453D01*
X150377469Y-98351380D01*
X150375803Y-98349134D01*
X150374365Y-98346735D01*
X150373169Y-98344206D01*
X150372227Y-98341573D01*
X150371548Y-98338860D01*
X150371137Y-98336093D01*
X150371000Y-98333300D01*
X150371000Y-96490300D01*
X150371137Y-96487507D01*
X150371548Y-96484740D01*
X150372227Y-96482027D01*
X150373169Y-96479394D01*
X150374365Y-96476865D01*
X150375803Y-96474466D01*
X150377469Y-96472220D01*
X150379347Y-96470147D01*
X150381420Y-96468269D01*
X150383666Y-96466603D01*
X150386065Y-96465165D01*
X150388594Y-96463969D01*
X150391227Y-96463027D01*
X150393940Y-96462348D01*
X150396707Y-96461937D01*
X150399500Y-96461800D01*
X152242500Y-96461800D01*
X152245293Y-96461937D01*
X152245293Y-96461937D01*
G37*
D22*
X151321000Y-97411800D03*
D10*
G36*
X154645293Y-96461937D02*
G01*
X154648060Y-96462348D01*
X154650773Y-96463027D01*
X154653406Y-96463969D01*
X154655935Y-96465165D01*
X154658334Y-96466603D01*
X154660580Y-96468269D01*
X154662653Y-96470147D01*
X154664531Y-96472220D01*
X154666197Y-96474466D01*
X154667635Y-96476865D01*
X154668831Y-96479394D01*
X154669773Y-96482027D01*
X154670452Y-96484740D01*
X154670863Y-96487507D01*
X154671000Y-96490300D01*
X154671000Y-98333300D01*
X154670863Y-98336093D01*
X154670452Y-98338860D01*
X154669773Y-98341573D01*
X154668831Y-98344206D01*
X154667635Y-98346735D01*
X154666197Y-98349134D01*
X154664531Y-98351380D01*
X154662653Y-98353453D01*
X154660580Y-98355331D01*
X154658334Y-98356997D01*
X154655935Y-98358435D01*
X154653406Y-98359631D01*
X154650773Y-98360573D01*
X154648060Y-98361252D01*
X154645293Y-98361663D01*
X154642500Y-98361800D01*
X152799500Y-98361800D01*
X152796707Y-98361663D01*
X152793940Y-98361252D01*
X152791227Y-98360573D01*
X152788594Y-98359631D01*
X152786065Y-98358435D01*
X152783666Y-98356997D01*
X152781420Y-98355331D01*
X152779347Y-98353453D01*
X152777469Y-98351380D01*
X152775803Y-98349134D01*
X152774365Y-98346735D01*
X152773169Y-98344206D01*
X152772227Y-98341573D01*
X152771548Y-98338860D01*
X152771137Y-98336093D01*
X152771000Y-98333300D01*
X152771000Y-96490300D01*
X152771137Y-96487507D01*
X152771548Y-96484740D01*
X152772227Y-96482027D01*
X152773169Y-96479394D01*
X152774365Y-96476865D01*
X152775803Y-96474466D01*
X152777469Y-96472220D01*
X152779347Y-96470147D01*
X152781420Y-96468269D01*
X152783666Y-96466603D01*
X152786065Y-96465165D01*
X152788594Y-96463969D01*
X152791227Y-96463027D01*
X152793940Y-96462348D01*
X152796707Y-96461937D01*
X152799500Y-96461800D01*
X154642500Y-96461800D01*
X154645293Y-96461937D01*
X154645293Y-96461937D01*
G37*
D22*
X153721000Y-97411800D03*
D10*
G36*
X157396646Y-96461930D02*
G01*
X157399267Y-96462319D01*
X157401838Y-96462963D01*
X157404332Y-96463855D01*
X157406728Y-96464988D01*
X157409000Y-96466350D01*
X157411129Y-96467929D01*
X157413092Y-96469708D01*
X157414871Y-96471671D01*
X157416450Y-96473800D01*
X157417812Y-96476072D01*
X157418945Y-96478468D01*
X157419837Y-96480962D01*
X157420481Y-96483533D01*
X157420870Y-96486154D01*
X157421000Y-96488800D01*
X157421000Y-98334800D01*
X157420870Y-98337446D01*
X157420481Y-98340067D01*
X157419837Y-98342638D01*
X157418945Y-98345132D01*
X157417812Y-98347528D01*
X157416450Y-98349800D01*
X157414871Y-98351929D01*
X157413092Y-98353892D01*
X157411129Y-98355671D01*
X157409000Y-98357250D01*
X157406728Y-98358612D01*
X157404332Y-98359745D01*
X157401838Y-98360637D01*
X157399267Y-98361281D01*
X157396646Y-98361670D01*
X157394000Y-98361800D01*
X155648000Y-98361800D01*
X155645354Y-98361670D01*
X155642733Y-98361281D01*
X155640162Y-98360637D01*
X155637668Y-98359745D01*
X155635272Y-98358612D01*
X155633000Y-98357250D01*
X155630871Y-98355671D01*
X155628908Y-98353892D01*
X155627129Y-98351929D01*
X155625550Y-98349800D01*
X155624188Y-98347528D01*
X155623055Y-98345132D01*
X155622163Y-98342638D01*
X155621519Y-98340067D01*
X155621130Y-98337446D01*
X155621000Y-98334800D01*
X155621000Y-96488800D01*
X155621130Y-96486154D01*
X155621519Y-96483533D01*
X155622163Y-96480962D01*
X155623055Y-96478468D01*
X155624188Y-96476072D01*
X155625550Y-96473800D01*
X155627129Y-96471671D01*
X155628908Y-96469708D01*
X155630871Y-96467929D01*
X155633000Y-96466350D01*
X155635272Y-96464988D01*
X155637668Y-96463855D01*
X155640162Y-96462963D01*
X155642733Y-96462319D01*
X155645354Y-96461930D01*
X155648000Y-96461800D01*
X157394000Y-96461800D01*
X157396646Y-96461930D01*
X157396646Y-96461930D01*
G37*
D21*
X156521000Y-97411800D03*
D10*
G36*
X156649352Y-99161916D02*
G01*
X156651682Y-99162261D01*
X156653967Y-99162833D01*
X156656184Y-99163627D01*
X156658314Y-99164634D01*
X156660334Y-99165845D01*
X156662225Y-99167248D01*
X156663971Y-99168829D01*
X156665552Y-99170575D01*
X156666955Y-99172466D01*
X156668166Y-99174486D01*
X156669173Y-99176616D01*
X156669967Y-99178833D01*
X156670539Y-99181118D01*
X156670884Y-99183448D01*
X156671000Y-99185800D01*
X156671000Y-100737800D01*
X156670884Y-100740152D01*
X156670539Y-100742482D01*
X156669967Y-100744767D01*
X156669173Y-100746984D01*
X156668166Y-100749114D01*
X156666955Y-100751134D01*
X156665552Y-100753025D01*
X156663971Y-100754771D01*
X156662225Y-100756352D01*
X156660334Y-100757755D01*
X156658314Y-100758966D01*
X156656184Y-100759973D01*
X156653967Y-100760767D01*
X156651682Y-100761339D01*
X156649352Y-100761684D01*
X156647000Y-100761800D01*
X154595000Y-100761800D01*
X154592648Y-100761684D01*
X154590318Y-100761339D01*
X154588033Y-100760767D01*
X154585816Y-100759973D01*
X154583686Y-100758966D01*
X154581666Y-100757755D01*
X154579775Y-100756352D01*
X154578029Y-100754771D01*
X154576448Y-100753025D01*
X154575045Y-100751134D01*
X154573834Y-100749114D01*
X154572827Y-100746984D01*
X154572033Y-100744767D01*
X154571461Y-100742482D01*
X154571116Y-100740152D01*
X154571000Y-100737800D01*
X154571000Y-99185800D01*
X154571116Y-99183448D01*
X154571461Y-99181118D01*
X154572033Y-99178833D01*
X154572827Y-99176616D01*
X154573834Y-99174486D01*
X154575045Y-99172466D01*
X154576448Y-99170575D01*
X154578029Y-99168829D01*
X154579775Y-99167248D01*
X154581666Y-99165845D01*
X154583686Y-99164634D01*
X154585816Y-99163627D01*
X154588033Y-99162833D01*
X154590318Y-99162261D01*
X154592648Y-99161916D01*
X154595000Y-99161800D01*
X156647000Y-99161800D01*
X156649352Y-99161916D01*
X156649352Y-99161916D01*
G37*
D20*
X155621000Y-99961800D03*
D10*
G36*
X154015588Y-99411829D02*
G01*
X154016171Y-99411915D01*
X154016742Y-99412058D01*
X154017296Y-99412257D01*
X154017828Y-99412508D01*
X154018333Y-99412811D01*
X154018806Y-99413162D01*
X154019243Y-99413557D01*
X154019638Y-99413994D01*
X154019989Y-99414467D01*
X154020292Y-99414972D01*
X154020543Y-99415504D01*
X154020742Y-99416058D01*
X154020885Y-99416629D01*
X154020971Y-99417212D01*
X154021000Y-99417800D01*
X154021000Y-100755800D01*
X154020971Y-100756388D01*
X154020885Y-100756971D01*
X154020742Y-100757542D01*
X154020543Y-100758096D01*
X154020292Y-100758628D01*
X154019989Y-100759133D01*
X154019638Y-100759606D01*
X154019243Y-100760043D01*
X154018806Y-100760438D01*
X154018333Y-100760789D01*
X154017828Y-100761092D01*
X154017296Y-100761343D01*
X154016742Y-100761542D01*
X154016171Y-100761685D01*
X154015588Y-100761771D01*
X154015000Y-100761800D01*
X153627000Y-100761800D01*
X153626412Y-100761771D01*
X153625829Y-100761685D01*
X153625258Y-100761542D01*
X153624704Y-100761343D01*
X153624172Y-100761092D01*
X153623667Y-100760789D01*
X153623194Y-100760438D01*
X153622757Y-100760043D01*
X153622362Y-100759606D01*
X153622011Y-100759133D01*
X153621708Y-100758628D01*
X153621457Y-100758096D01*
X153621258Y-100757542D01*
X153621115Y-100756971D01*
X153621029Y-100756388D01*
X153621000Y-100755800D01*
X153621000Y-99417800D01*
X153621029Y-99417212D01*
X153621115Y-99416629D01*
X153621258Y-99416058D01*
X153621457Y-99415504D01*
X153621708Y-99414972D01*
X153622011Y-99414467D01*
X153622362Y-99413994D01*
X153622757Y-99413557D01*
X153623194Y-99413162D01*
X153623667Y-99412811D01*
X153624172Y-99412508D01*
X153624704Y-99412257D01*
X153625258Y-99412058D01*
X153625829Y-99411915D01*
X153626412Y-99411829D01*
X153627000Y-99411800D01*
X154015000Y-99411800D01*
X154015588Y-99411829D01*
X154015588Y-99411829D01*
G37*
D23*
X153821000Y-100086800D03*
D10*
G36*
X153365588Y-99411829D02*
G01*
X153366171Y-99411915D01*
X153366742Y-99412058D01*
X153367296Y-99412257D01*
X153367828Y-99412508D01*
X153368333Y-99412811D01*
X153368806Y-99413162D01*
X153369243Y-99413557D01*
X153369638Y-99413994D01*
X153369989Y-99414467D01*
X153370292Y-99414972D01*
X153370543Y-99415504D01*
X153370742Y-99416058D01*
X153370885Y-99416629D01*
X153370971Y-99417212D01*
X153371000Y-99417800D01*
X153371000Y-100755800D01*
X153370971Y-100756388D01*
X153370885Y-100756971D01*
X153370742Y-100757542D01*
X153370543Y-100758096D01*
X153370292Y-100758628D01*
X153369989Y-100759133D01*
X153369638Y-100759606D01*
X153369243Y-100760043D01*
X153368806Y-100760438D01*
X153368333Y-100760789D01*
X153367828Y-100761092D01*
X153367296Y-100761343D01*
X153366742Y-100761542D01*
X153366171Y-100761685D01*
X153365588Y-100761771D01*
X153365000Y-100761800D01*
X152977000Y-100761800D01*
X152976412Y-100761771D01*
X152975829Y-100761685D01*
X152975258Y-100761542D01*
X152974704Y-100761343D01*
X152974172Y-100761092D01*
X152973667Y-100760789D01*
X152973194Y-100760438D01*
X152972757Y-100760043D01*
X152972362Y-100759606D01*
X152972011Y-100759133D01*
X152971708Y-100758628D01*
X152971457Y-100758096D01*
X152971258Y-100757542D01*
X152971115Y-100756971D01*
X152971029Y-100756388D01*
X152971000Y-100755800D01*
X152971000Y-99417800D01*
X152971029Y-99417212D01*
X152971115Y-99416629D01*
X152971258Y-99416058D01*
X152971457Y-99415504D01*
X152971708Y-99414972D01*
X152972011Y-99414467D01*
X152972362Y-99413994D01*
X152972757Y-99413557D01*
X152973194Y-99413162D01*
X152973667Y-99412811D01*
X152974172Y-99412508D01*
X152974704Y-99412257D01*
X152975258Y-99412058D01*
X152975829Y-99411915D01*
X152976412Y-99411829D01*
X152977000Y-99411800D01*
X153365000Y-99411800D01*
X153365588Y-99411829D01*
X153365588Y-99411829D01*
G37*
D23*
X153171000Y-100086800D03*
D10*
G36*
X152715588Y-99411829D02*
G01*
X152716171Y-99411915D01*
X152716742Y-99412058D01*
X152717296Y-99412257D01*
X152717828Y-99412508D01*
X152718333Y-99412811D01*
X152718806Y-99413162D01*
X152719243Y-99413557D01*
X152719638Y-99413994D01*
X152719989Y-99414467D01*
X152720292Y-99414972D01*
X152720543Y-99415504D01*
X152720742Y-99416058D01*
X152720885Y-99416629D01*
X152720971Y-99417212D01*
X152721000Y-99417800D01*
X152721000Y-100755800D01*
X152720971Y-100756388D01*
X152720885Y-100756971D01*
X152720742Y-100757542D01*
X152720543Y-100758096D01*
X152720292Y-100758628D01*
X152719989Y-100759133D01*
X152719638Y-100759606D01*
X152719243Y-100760043D01*
X152718806Y-100760438D01*
X152718333Y-100760789D01*
X152717828Y-100761092D01*
X152717296Y-100761343D01*
X152716742Y-100761542D01*
X152716171Y-100761685D01*
X152715588Y-100761771D01*
X152715000Y-100761800D01*
X152327000Y-100761800D01*
X152326412Y-100761771D01*
X152325829Y-100761685D01*
X152325258Y-100761542D01*
X152324704Y-100761343D01*
X152324172Y-100761092D01*
X152323667Y-100760789D01*
X152323194Y-100760438D01*
X152322757Y-100760043D01*
X152322362Y-100759606D01*
X152322011Y-100759133D01*
X152321708Y-100758628D01*
X152321457Y-100758096D01*
X152321258Y-100757542D01*
X152321115Y-100756971D01*
X152321029Y-100756388D01*
X152321000Y-100755800D01*
X152321000Y-99417800D01*
X152321029Y-99417212D01*
X152321115Y-99416629D01*
X152321258Y-99416058D01*
X152321457Y-99415504D01*
X152321708Y-99414972D01*
X152322011Y-99414467D01*
X152322362Y-99413994D01*
X152322757Y-99413557D01*
X152323194Y-99413162D01*
X152323667Y-99412811D01*
X152324172Y-99412508D01*
X152324704Y-99412257D01*
X152325258Y-99412058D01*
X152325829Y-99411915D01*
X152326412Y-99411829D01*
X152327000Y-99411800D01*
X152715000Y-99411800D01*
X152715588Y-99411829D01*
X152715588Y-99411829D01*
G37*
D23*
X152521000Y-100086800D03*
D10*
G36*
X152065588Y-99411829D02*
G01*
X152066171Y-99411915D01*
X152066742Y-99412058D01*
X152067296Y-99412257D01*
X152067828Y-99412508D01*
X152068333Y-99412811D01*
X152068806Y-99413162D01*
X152069243Y-99413557D01*
X152069638Y-99413994D01*
X152069989Y-99414467D01*
X152070292Y-99414972D01*
X152070543Y-99415504D01*
X152070742Y-99416058D01*
X152070885Y-99416629D01*
X152070971Y-99417212D01*
X152071000Y-99417800D01*
X152071000Y-100755800D01*
X152070971Y-100756388D01*
X152070885Y-100756971D01*
X152070742Y-100757542D01*
X152070543Y-100758096D01*
X152070292Y-100758628D01*
X152069989Y-100759133D01*
X152069638Y-100759606D01*
X152069243Y-100760043D01*
X152068806Y-100760438D01*
X152068333Y-100760789D01*
X152067828Y-100761092D01*
X152067296Y-100761343D01*
X152066742Y-100761542D01*
X152066171Y-100761685D01*
X152065588Y-100761771D01*
X152065000Y-100761800D01*
X151677000Y-100761800D01*
X151676412Y-100761771D01*
X151675829Y-100761685D01*
X151675258Y-100761542D01*
X151674704Y-100761343D01*
X151674172Y-100761092D01*
X151673667Y-100760789D01*
X151673194Y-100760438D01*
X151672757Y-100760043D01*
X151672362Y-100759606D01*
X151672011Y-100759133D01*
X151671708Y-100758628D01*
X151671457Y-100758096D01*
X151671258Y-100757542D01*
X151671115Y-100756971D01*
X151671029Y-100756388D01*
X151671000Y-100755800D01*
X151671000Y-99417800D01*
X151671029Y-99417212D01*
X151671115Y-99416629D01*
X151671258Y-99416058D01*
X151671457Y-99415504D01*
X151671708Y-99414972D01*
X151672011Y-99414467D01*
X151672362Y-99413994D01*
X151672757Y-99413557D01*
X151673194Y-99413162D01*
X151673667Y-99412811D01*
X151674172Y-99412508D01*
X151674704Y-99412257D01*
X151675258Y-99412058D01*
X151675829Y-99411915D01*
X151676412Y-99411829D01*
X151677000Y-99411800D01*
X152065000Y-99411800D01*
X152065588Y-99411829D01*
X152065588Y-99411829D01*
G37*
D23*
X151871000Y-100086800D03*
D10*
G36*
X151415588Y-99411829D02*
G01*
X151416171Y-99411915D01*
X151416742Y-99412058D01*
X151417296Y-99412257D01*
X151417828Y-99412508D01*
X151418333Y-99412811D01*
X151418806Y-99413162D01*
X151419243Y-99413557D01*
X151419638Y-99413994D01*
X151419989Y-99414467D01*
X151420292Y-99414972D01*
X151420543Y-99415504D01*
X151420742Y-99416058D01*
X151420885Y-99416629D01*
X151420971Y-99417212D01*
X151421000Y-99417800D01*
X151421000Y-100755800D01*
X151420971Y-100756388D01*
X151420885Y-100756971D01*
X151420742Y-100757542D01*
X151420543Y-100758096D01*
X151420292Y-100758628D01*
X151419989Y-100759133D01*
X151419638Y-100759606D01*
X151419243Y-100760043D01*
X151418806Y-100760438D01*
X151418333Y-100760789D01*
X151417828Y-100761092D01*
X151417296Y-100761343D01*
X151416742Y-100761542D01*
X151416171Y-100761685D01*
X151415588Y-100761771D01*
X151415000Y-100761800D01*
X151027000Y-100761800D01*
X151026412Y-100761771D01*
X151025829Y-100761685D01*
X151025258Y-100761542D01*
X151024704Y-100761343D01*
X151024172Y-100761092D01*
X151023667Y-100760789D01*
X151023194Y-100760438D01*
X151022757Y-100760043D01*
X151022362Y-100759606D01*
X151022011Y-100759133D01*
X151021708Y-100758628D01*
X151021457Y-100758096D01*
X151021258Y-100757542D01*
X151021115Y-100756971D01*
X151021029Y-100756388D01*
X151021000Y-100755800D01*
X151021000Y-99417800D01*
X151021029Y-99417212D01*
X151021115Y-99416629D01*
X151021258Y-99416058D01*
X151021457Y-99415504D01*
X151021708Y-99414972D01*
X151022011Y-99414467D01*
X151022362Y-99413994D01*
X151022757Y-99413557D01*
X151023194Y-99413162D01*
X151023667Y-99412811D01*
X151024172Y-99412508D01*
X151024704Y-99412257D01*
X151025258Y-99412058D01*
X151025829Y-99411915D01*
X151026412Y-99411829D01*
X151027000Y-99411800D01*
X151415000Y-99411800D01*
X151415588Y-99411829D01*
X151415588Y-99411829D01*
G37*
D23*
X151221000Y-100086800D03*
D10*
G36*
X151099176Y-101735058D02*
G01*
X151100341Y-101735231D01*
X151101483Y-101735517D01*
X151102592Y-101735913D01*
X151103657Y-101736417D01*
X151104667Y-101737022D01*
X151105613Y-101737724D01*
X151106485Y-101738515D01*
X151107276Y-101739387D01*
X151107978Y-101740333D01*
X151108583Y-101741343D01*
X151109087Y-101742408D01*
X151109483Y-101743517D01*
X151109769Y-101744659D01*
X151109942Y-101745824D01*
X151110000Y-101747000D01*
X151110000Y-102723000D01*
X151109942Y-102724176D01*
X151109769Y-102725341D01*
X151109483Y-102726483D01*
X151109087Y-102727592D01*
X151108583Y-102728657D01*
X151107978Y-102729667D01*
X151107276Y-102730613D01*
X151106485Y-102731485D01*
X151105613Y-102732276D01*
X151104667Y-102732978D01*
X151103657Y-102733583D01*
X151102592Y-102734087D01*
X151101483Y-102734483D01*
X151100341Y-102734769D01*
X151099176Y-102734942D01*
X151098000Y-102735000D01*
X150322000Y-102735000D01*
X150320824Y-102734942D01*
X150319659Y-102734769D01*
X150318517Y-102734483D01*
X150317408Y-102734087D01*
X150316343Y-102733583D01*
X150315333Y-102732978D01*
X150314387Y-102732276D01*
X150313515Y-102731485D01*
X150312724Y-102730613D01*
X150312022Y-102729667D01*
X150311417Y-102728657D01*
X150310913Y-102727592D01*
X150310517Y-102726483D01*
X150310231Y-102725341D01*
X150310058Y-102724176D01*
X150310000Y-102723000D01*
X150310000Y-101747000D01*
X150310058Y-101745824D01*
X150310231Y-101744659D01*
X150310517Y-101743517D01*
X150310913Y-101742408D01*
X150311417Y-101741343D01*
X150312022Y-101740333D01*
X150312724Y-101739387D01*
X150313515Y-101738515D01*
X150314387Y-101737724D01*
X150315333Y-101737022D01*
X150316343Y-101736417D01*
X150317408Y-101735913D01*
X150318517Y-101735517D01*
X150319659Y-101735231D01*
X150320824Y-101735058D01*
X150322000Y-101735000D01*
X151098000Y-101735000D01*
X151099176Y-101735058D01*
X151099176Y-101735058D01*
G37*
D24*
X150710000Y-102235000D03*
D10*
G36*
X149399176Y-101735058D02*
G01*
X149400341Y-101735231D01*
X149401483Y-101735517D01*
X149402592Y-101735913D01*
X149403657Y-101736417D01*
X149404667Y-101737022D01*
X149405613Y-101737724D01*
X149406485Y-101738515D01*
X149407276Y-101739387D01*
X149407978Y-101740333D01*
X149408583Y-101741343D01*
X149409087Y-101742408D01*
X149409483Y-101743517D01*
X149409769Y-101744659D01*
X149409942Y-101745824D01*
X149410000Y-101747000D01*
X149410000Y-102723000D01*
X149409942Y-102724176D01*
X149409769Y-102725341D01*
X149409483Y-102726483D01*
X149409087Y-102727592D01*
X149408583Y-102728657D01*
X149407978Y-102729667D01*
X149407276Y-102730613D01*
X149406485Y-102731485D01*
X149405613Y-102732276D01*
X149404667Y-102732978D01*
X149403657Y-102733583D01*
X149402592Y-102734087D01*
X149401483Y-102734483D01*
X149400341Y-102734769D01*
X149399176Y-102734942D01*
X149398000Y-102735000D01*
X148622000Y-102735000D01*
X148620824Y-102734942D01*
X148619659Y-102734769D01*
X148618517Y-102734483D01*
X148617408Y-102734087D01*
X148616343Y-102733583D01*
X148615333Y-102732978D01*
X148614387Y-102732276D01*
X148613515Y-102731485D01*
X148612724Y-102730613D01*
X148612022Y-102729667D01*
X148611417Y-102728657D01*
X148610913Y-102727592D01*
X148610517Y-102726483D01*
X148610231Y-102725341D01*
X148610058Y-102724176D01*
X148610000Y-102723000D01*
X148610000Y-101747000D01*
X148610058Y-101745824D01*
X148610231Y-101744659D01*
X148610517Y-101743517D01*
X148610913Y-101742408D01*
X148611417Y-101741343D01*
X148612022Y-101740333D01*
X148612724Y-101739387D01*
X148613515Y-101738515D01*
X148614387Y-101737724D01*
X148615333Y-101737022D01*
X148616343Y-101736417D01*
X148617408Y-101735913D01*
X148618517Y-101735517D01*
X148619659Y-101735231D01*
X148620824Y-101735058D01*
X148622000Y-101735000D01*
X149398000Y-101735000D01*
X149399176Y-101735058D01*
X149399176Y-101735058D01*
G37*
D24*
X149010000Y-102235000D03*
D10*
G36*
X151562882Y-104302043D02*
G01*
X151563756Y-104302173D01*
X151564613Y-104302388D01*
X151565444Y-104302685D01*
X151566243Y-104303063D01*
X151567000Y-104303517D01*
X151567710Y-104304043D01*
X151568364Y-104304636D01*
X151568957Y-104305290D01*
X151569483Y-104306000D01*
X151569937Y-104306757D01*
X151570315Y-104307556D01*
X151570612Y-104308387D01*
X151570827Y-104309244D01*
X151570957Y-104310118D01*
X151571000Y-104311000D01*
X151571000Y-104893000D01*
X151570957Y-104893882D01*
X151570827Y-104894756D01*
X151570612Y-104895613D01*
X151570315Y-104896444D01*
X151569937Y-104897243D01*
X151569483Y-104898000D01*
X151568957Y-104898710D01*
X151568364Y-104899364D01*
X151567710Y-104899957D01*
X151567000Y-104900483D01*
X151566243Y-104900937D01*
X151565444Y-104901315D01*
X151564613Y-104901612D01*
X151563756Y-104901827D01*
X151562882Y-104901957D01*
X151562000Y-104902000D01*
X150580000Y-104902000D01*
X150579118Y-104901957D01*
X150578244Y-104901827D01*
X150577387Y-104901612D01*
X150576556Y-104901315D01*
X150575757Y-104900937D01*
X150575000Y-104900483D01*
X150574290Y-104899957D01*
X150573636Y-104899364D01*
X150573043Y-104898710D01*
X150572517Y-104898000D01*
X150572063Y-104897243D01*
X150571685Y-104896444D01*
X150571388Y-104895613D01*
X150571173Y-104894756D01*
X150571043Y-104893882D01*
X150571000Y-104893000D01*
X150571000Y-104311000D01*
X150571043Y-104310118D01*
X150571173Y-104309244D01*
X150571388Y-104308387D01*
X150571685Y-104307556D01*
X150572063Y-104306757D01*
X150572517Y-104306000D01*
X150573043Y-104305290D01*
X150573636Y-104304636D01*
X150574290Y-104304043D01*
X150575000Y-104303517D01*
X150575757Y-104303063D01*
X150576556Y-104302685D01*
X150577387Y-104302388D01*
X150578244Y-104302173D01*
X150579118Y-104302043D01*
X150580000Y-104302000D01*
X151562000Y-104302000D01*
X151562882Y-104302043D01*
X151562882Y-104302043D01*
G37*
D25*
X151071000Y-104602000D03*
D10*
G36*
X151562882Y-106202043D02*
G01*
X151563756Y-106202173D01*
X151564613Y-106202388D01*
X151565444Y-106202685D01*
X151566243Y-106203063D01*
X151567000Y-106203517D01*
X151567710Y-106204043D01*
X151568364Y-106204636D01*
X151568957Y-106205290D01*
X151569483Y-106206000D01*
X151569937Y-106206757D01*
X151570315Y-106207556D01*
X151570612Y-106208387D01*
X151570827Y-106209244D01*
X151570957Y-106210118D01*
X151571000Y-106211000D01*
X151571000Y-106793000D01*
X151570957Y-106793882D01*
X151570827Y-106794756D01*
X151570612Y-106795613D01*
X151570315Y-106796444D01*
X151569937Y-106797243D01*
X151569483Y-106798000D01*
X151568957Y-106798710D01*
X151568364Y-106799364D01*
X151567710Y-106799957D01*
X151567000Y-106800483D01*
X151566243Y-106800937D01*
X151565444Y-106801315D01*
X151564613Y-106801612D01*
X151563756Y-106801827D01*
X151562882Y-106801957D01*
X151562000Y-106802000D01*
X150580000Y-106802000D01*
X150579118Y-106801957D01*
X150578244Y-106801827D01*
X150577387Y-106801612D01*
X150576556Y-106801315D01*
X150575757Y-106800937D01*
X150575000Y-106800483D01*
X150574290Y-106799957D01*
X150573636Y-106799364D01*
X150573043Y-106798710D01*
X150572517Y-106798000D01*
X150572063Y-106797243D01*
X150571685Y-106796444D01*
X150571388Y-106795613D01*
X150571173Y-106794756D01*
X150571043Y-106793882D01*
X150571000Y-106793000D01*
X150571000Y-106211000D01*
X150571043Y-106210118D01*
X150571173Y-106209244D01*
X150571388Y-106208387D01*
X150571685Y-106207556D01*
X150572063Y-106206757D01*
X150572517Y-106206000D01*
X150573043Y-106205290D01*
X150573636Y-106204636D01*
X150574290Y-106204043D01*
X150575000Y-106203517D01*
X150575757Y-106203063D01*
X150576556Y-106202685D01*
X150577387Y-106202388D01*
X150578244Y-106202173D01*
X150579118Y-106202043D01*
X150580000Y-106202000D01*
X151562000Y-106202000D01*
X151562882Y-106202043D01*
X151562882Y-106202043D01*
G37*
D25*
X151071000Y-106502000D03*
D10*
G36*
X153862882Y-106202043D02*
G01*
X153863756Y-106202173D01*
X153864613Y-106202388D01*
X153865444Y-106202685D01*
X153866243Y-106203063D01*
X153867000Y-106203517D01*
X153867710Y-106204043D01*
X153868364Y-106204636D01*
X153868957Y-106205290D01*
X153869483Y-106206000D01*
X153869937Y-106206757D01*
X153870315Y-106207556D01*
X153870612Y-106208387D01*
X153870827Y-106209244D01*
X153870957Y-106210118D01*
X153871000Y-106211000D01*
X153871000Y-106793000D01*
X153870957Y-106793882D01*
X153870827Y-106794756D01*
X153870612Y-106795613D01*
X153870315Y-106796444D01*
X153869937Y-106797243D01*
X153869483Y-106798000D01*
X153868957Y-106798710D01*
X153868364Y-106799364D01*
X153867710Y-106799957D01*
X153867000Y-106800483D01*
X153866243Y-106800937D01*
X153865444Y-106801315D01*
X153864613Y-106801612D01*
X153863756Y-106801827D01*
X153862882Y-106801957D01*
X153862000Y-106802000D01*
X152880000Y-106802000D01*
X152879118Y-106801957D01*
X152878244Y-106801827D01*
X152877387Y-106801612D01*
X152876556Y-106801315D01*
X152875757Y-106800937D01*
X152875000Y-106800483D01*
X152874290Y-106799957D01*
X152873636Y-106799364D01*
X152873043Y-106798710D01*
X152872517Y-106798000D01*
X152872063Y-106797243D01*
X152871685Y-106796444D01*
X152871388Y-106795613D01*
X152871173Y-106794756D01*
X152871043Y-106793882D01*
X152871000Y-106793000D01*
X152871000Y-106211000D01*
X152871043Y-106210118D01*
X152871173Y-106209244D01*
X152871388Y-106208387D01*
X152871685Y-106207556D01*
X152872063Y-106206757D01*
X152872517Y-106206000D01*
X152873043Y-106205290D01*
X152873636Y-106204636D01*
X152874290Y-106204043D01*
X152875000Y-106203517D01*
X152875757Y-106203063D01*
X152876556Y-106202685D01*
X152877387Y-106202388D01*
X152878244Y-106202173D01*
X152879118Y-106202043D01*
X152880000Y-106202000D01*
X153862000Y-106202000D01*
X153862882Y-106202043D01*
X153862882Y-106202043D01*
G37*
D25*
X153371000Y-106502000D03*
D10*
G36*
X153857470Y-104302072D02*
G01*
X153858926Y-104302288D01*
X153860354Y-104302646D01*
X153861740Y-104303142D01*
X153863071Y-104303771D01*
X153864334Y-104304528D01*
X153865516Y-104305405D01*
X153866607Y-104306393D01*
X153867595Y-104307484D01*
X153868472Y-104308666D01*
X153869229Y-104309929D01*
X153869858Y-104311260D01*
X153870354Y-104312646D01*
X153870712Y-104314074D01*
X153870928Y-104315530D01*
X153871000Y-104317000D01*
X153871000Y-105287000D01*
X153870928Y-105288470D01*
X153870712Y-105289926D01*
X153870354Y-105291354D01*
X153869858Y-105292740D01*
X153869229Y-105294071D01*
X153868472Y-105295334D01*
X153867595Y-105296516D01*
X153866607Y-105297607D01*
X153865516Y-105298595D01*
X153864334Y-105299472D01*
X153863071Y-105300229D01*
X153861740Y-105300858D01*
X153860354Y-105301354D01*
X153858926Y-105301712D01*
X153857470Y-105301928D01*
X153856000Y-105302000D01*
X152886000Y-105302000D01*
X152884530Y-105301928D01*
X152883074Y-105301712D01*
X152881646Y-105301354D01*
X152880260Y-105300858D01*
X152878929Y-105300229D01*
X152877666Y-105299472D01*
X152876484Y-105298595D01*
X152875393Y-105297607D01*
X152874405Y-105296516D01*
X152873528Y-105295334D01*
X152872771Y-105294071D01*
X152872142Y-105292740D01*
X152871646Y-105291354D01*
X152871288Y-105289926D01*
X152871072Y-105288470D01*
X152871000Y-105287000D01*
X152871000Y-104317000D01*
X152871072Y-104315530D01*
X152871288Y-104314074D01*
X152871646Y-104312646D01*
X152872142Y-104311260D01*
X152872771Y-104309929D01*
X152873528Y-104308666D01*
X152874405Y-104307484D01*
X152875393Y-104306393D01*
X152876484Y-104305405D01*
X152877666Y-104304528D01*
X152878929Y-104303771D01*
X152880260Y-104303142D01*
X152881646Y-104302646D01*
X152883074Y-104302288D01*
X152884530Y-104302072D01*
X152886000Y-104302000D01*
X153856000Y-104302000D01*
X153857470Y-104302072D01*
X153857470Y-104302072D01*
G37*
D26*
X153371000Y-104802000D03*
D14*
X159306000Y-109934000D03*
X159306000Y-111834000D03*
D15*
X136741000Y-127563000D03*
X138641000Y-127563000D03*
D14*
X142494000Y-114366000D03*
X142494000Y-116266000D03*
D15*
X163436000Y-117234000D03*
X165336000Y-117234000D03*
X137052000Y-123461000D03*
X138952000Y-123461000D03*
X131051000Y-114694000D03*
X132951000Y-114694000D03*
D14*
X158036000Y-119459000D03*
X158036000Y-121359000D03*
D15*
X163436000Y-112154000D03*
X165336000Y-112154000D03*
D14*
X149366000Y-119532000D03*
X149366000Y-121432000D03*
D15*
X138666000Y-114694000D03*
X136766000Y-114694000D03*
X104699000Y-97866800D03*
X106599000Y-97866800D03*
X158938000Y-104648000D03*
X157038000Y-104648000D03*
D27*
X143510000Y-101724000D03*
X143510000Y-104524000D03*
D14*
X146558000Y-103820000D03*
X146558000Y-101920000D03*
M02*
