M48
; DRILL file {KiCad (5.99.0-237-g608461437)} date Sat 16 Nov 2019 14:33:35 GMT
; FORMAT={-:-/ absolute / inch / decimal}
; #@! TF.CreationDate,2019-11-16T14:33:35+00:00
; #@! TF.GenerationSoftware,Kicad,Pcbnew,(5.99.0-237-g608461437)
; #@! TF.FileFunction,Plated,1,2,PTH
FMAT,2
INCH
T1C0.0079
T2C0.0433
T3C0.0437
T4C0.0827
%
G90
G05
T1
X4.04Y-4.74
X4.12Y-4.61
X4.15Y-4.32
X4.27Y-4.37
X4.39Y-4.415
X4.465Y-4.33
X4.49Y-4.25
X4.74Y-4.01
X4.86Y-3.96
X4.91Y-4.7
X4.91Y-4.91
X4.91Y-5.16
X4.92Y-4.51
X5.1026Y-4.369
X5.1209Y-4.4017
X5.1412Y-4.4277
X5.2151Y-4.4535
X5.23Y-4.7
X5.275Y-4.2
X5.275Y-4.325
X5.53Y-4.39
X5.55Y-4.5
X5.575Y-4.35
X5.6046Y-4.6403
X5.6287Y-4.6642
X5.63Y-4.39
X5.67Y-4.39
X5.6816Y-4.5873
X5.6966Y-4.0672
X5.7044Y-4.1398
X5.7053Y-4.4895
X5.71Y-4.3294
X5.7148Y-4.2019
X5.7264Y-4.3925
X5.7367Y-4.4895
X5.7736Y-4.5505
X5.7952Y-4.5819
X5.7996Y-4.2077
X5.8Y-4.7
X5.8051Y-4.3039
X5.8224Y-4.2215
X5.8329Y-4.5908
X5.8622Y-4.2307
X5.8671Y-4.5851
X5.8795Y-4.2501
X5.9Y-4.0161
X5.925Y-4.475
X5.9376Y-4.6124
X5.9535Y-4.7616
X6.0129Y-4.3045
X6.0282Y-4.2301
X6.0394Y-4.1613
X6.06Y-4.0
X6.06Y-4.05
X6.0736Y-4.4996
X6.0839Y-4.3703
X6.0851Y-4.4485
X6.0917Y-4.4766
X6.11Y-4.35
X6.11Y-4.41
X6.12Y-4.25
X6.13Y-4.56
X6.14Y-4.03
X6.15Y-4.25
X6.1517Y-4.4091
X6.17Y-4.52
X6.2Y-4.2
X6.2Y-4.58
X6.2188Y-4.3031
X6.22Y-4.53
X6.25Y-4.2
X6.27Y-4.63
X6.34Y-4.69
X6.37Y-4.26
X6.38Y-4.51
X6.39Y-3.81
X6.39Y-4.29
X6.4126Y-4.37
X6.42Y-4.76
X6.43Y-4.5077
X6.48Y-4.26
X6.4996Y-4.6715
X6.52Y-4.26
X6.5291Y-4.6758
X6.53Y-3.82
X6.53Y-3.95
X6.53Y-4.04
X6.53Y-4.15
X6.59Y-4.58
X6.61Y-3.82
X6.61Y-3.95
X6.61Y-4.05
X6.61Y-4.14
X6.61Y-4.71
X6.66Y-4.71
X6.67Y-4.41
X6.7Y-4.41
X6.73Y-4.48
X6.748Y-4.6357
X6.76Y-4.48
X6.78Y-4.54
X6.81Y-4.54
X6.85Y-4.525
X6.87Y-3.99
X6.94Y-4.22
X6.97Y-4.68
X7.13Y-4.56
X7.29Y-3.985
X7.32Y-4.32
X7.34Y-4.94
X7.4748Y-4.3167
X7.63Y-4.38
X7.77Y-4.02
X7.84Y-4.61
T2
X6.7925Y-3.8494
X6.8516Y-4.4203
X6.8713Y-3.8494
X6.95Y-3.8494
X6.95Y-4.4203
X7.0287Y-3.8494
X7.0484Y-4.4203
X7.1075Y-3.8494
X3.8617Y-5.1513
X3.9601Y-5.1513
X4.0585Y-5.1513
X4.5425Y-3.8494
X4.6016Y-4.4203
X4.6213Y-3.8494
X4.7Y-3.8494
X4.7Y-4.4203
X4.7787Y-3.8494
X4.7984Y-4.4203
X4.8575Y-3.8494
X3.8617Y-3.6329
X3.9601Y-3.6329
X4.0585Y-3.6329
X7.5425Y-3.7244
X7.6016Y-4.2953
X7.6213Y-3.7244
X7.7Y-3.7244
X7.7Y-4.2953
X7.7787Y-3.7244
X7.7984Y-4.2953
X7.8575Y-3.7244
X5.7316Y-5.1513
X5.83Y-5.1513
X5.9285Y-5.1513
X7.6016Y-5.1513
X7.7Y-5.1513
X7.7984Y-5.1513
T3
X4.6344Y-5.0655
X4.7344Y-5.0655
T4
X6.7315Y-4.125
X7.1685Y-4.125
X3.7829Y-4.8757
X4.1372Y-4.8757
X4.4815Y-4.125
X4.9185Y-4.125
X3.7829Y-3.3574
X4.1372Y-3.3574
X7.4815Y-4.0
X7.9185Y-4.0
X5.6529Y-4.8757
X6.0072Y-4.8757
X7.5228Y-4.8757
X7.8772Y-4.8757
T0
M30
