G04 #@! TF.GenerationSoftware,KiCad,Pcbnew,(5.1.4-0-10_14)*
G04 #@! TF.CreationDate,2019-09-22T18:22:58+01:00*
G04 #@! TF.ProjectId,knobs,6b6e6f62-732e-46b6-9963-61645f706362,rev?*
G04 #@! TF.SameCoordinates,Original*
G04 #@! TF.FileFunction,Legend,Top*
G04 #@! TF.FilePolarity,Positive*
%FSLAX46Y46*%
G04 Gerber Fmt 4.6, Leading zero omitted, Abs format (unit mm)*
G04 Created by KiCad (PCBNEW (5.1.4-0-10_14)) date 2019-09-22 18:22:58*
%MOMM*%
%LPD*%
G04 APERTURE LIST*
%ADD10C,0.025000*%
%ADD11C,0.121920*%
%ADD12C,0.304800*%
%ADD13C,0.203200*%
%ADD14C,0.142240*%
%ADD15C,0.050800*%
%ADD16C,0.081076*%
%ADD17C,0.096520*%
%ADD18C,0.115824*%
G04 APERTURE END LIST*
D10*
X144921101Y-124506824D02*
X144921101Y-125006824D01*
X154161101Y-125306824D02*
X153661101Y-125306824D01*
D11*
X108820857Y-131158923D02*
X109786057Y-130814209D01*
X108820857Y-130469494D01*
X109786057Y-129159580D02*
X109786057Y-129986894D01*
X109786057Y-129573237D02*
X108338257Y-129573237D01*
X108545085Y-129711123D01*
X108682971Y-129849009D01*
X108751914Y-129986894D01*
X109648171Y-128539094D02*
X109717114Y-128470152D01*
X109786057Y-128539094D01*
X109717114Y-128608037D01*
X109648171Y-128539094D01*
X109786057Y-128539094D01*
X108338257Y-127987552D02*
X108338257Y-127091294D01*
X108889800Y-127573894D01*
X108889800Y-127367066D01*
X108958742Y-127229180D01*
X109027685Y-127160237D01*
X109165571Y-127091294D01*
X109510285Y-127091294D01*
X109648171Y-127160237D01*
X109717114Y-127229180D01*
X109786057Y-127367066D01*
X109786057Y-127780723D01*
X109717114Y-127918609D01*
X109648171Y-127987552D01*
D12*
X154968506Y-128968216D02*
X154968506Y-125348716D01*
X156175006Y-127934074D01*
X157381506Y-125348716D01*
X157381506Y-128968216D01*
X159794506Y-125348716D02*
X160483935Y-125348716D01*
X160828649Y-125521074D01*
X161173363Y-125865788D01*
X161345721Y-126555216D01*
X161345721Y-127761716D01*
X161173363Y-128451145D01*
X160828649Y-128795859D01*
X160483935Y-128968216D01*
X159794506Y-128968216D01*
X159449792Y-128795859D01*
X159105078Y-128451145D01*
X158932721Y-127761716D01*
X158932721Y-126555216D01*
X159105078Y-125865788D01*
X159449792Y-125521074D01*
X159794506Y-125348716D01*
X163586363Y-125348716D02*
X164275792Y-125348716D01*
X164620506Y-125521074D01*
X164965221Y-125865788D01*
X165137578Y-126555216D01*
X165137578Y-127761716D01*
X164965221Y-128451145D01*
X164620506Y-128795859D01*
X164275792Y-128968216D01*
X163586363Y-128968216D01*
X163241649Y-128795859D01*
X162896935Y-128451145D01*
X162724578Y-127761716D01*
X162724578Y-126555216D01*
X162896935Y-125865788D01*
X163241649Y-125521074D01*
X163586363Y-125348716D01*
X168412363Y-128968216D02*
X166688792Y-128968216D01*
X166688792Y-125348716D01*
X169618863Y-127072288D02*
X170825363Y-127072288D01*
X171342435Y-128968216D02*
X169618863Y-128968216D01*
X169618863Y-125348716D01*
X171342435Y-125348716D01*
X172376578Y-125348716D02*
X174444863Y-125348716D01*
X173410721Y-128968216D02*
X173410721Y-125348716D01*
D13*
X175728954Y-129025669D02*
X175728954Y-127417002D01*
X175728954Y-127646812D02*
X175843859Y-127531907D01*
X176073669Y-127417002D01*
X176418383Y-127417002D01*
X176648192Y-127531907D01*
X176763097Y-127761716D01*
X176763097Y-129025669D01*
X176763097Y-127761716D02*
X176878002Y-127531907D01*
X177107811Y-127417002D01*
X177452526Y-127417002D01*
X177682335Y-127531907D01*
X177797240Y-127761716D01*
X177797240Y-129025669D01*
X179291002Y-129025669D02*
X179061192Y-128910764D01*
X178946288Y-128795859D01*
X178831383Y-128566050D01*
X178831383Y-127876621D01*
X178946288Y-127646812D01*
X179061192Y-127531907D01*
X179291002Y-127417002D01*
X179635716Y-127417002D01*
X179865526Y-127531907D01*
X179980431Y-127646812D01*
X180095335Y-127876621D01*
X180095335Y-128566050D01*
X179980431Y-128795859D01*
X179865526Y-128910764D01*
X179635716Y-129025669D01*
X179291002Y-129025669D01*
X182163621Y-129025669D02*
X182163621Y-126612669D01*
X182163621Y-128910764D02*
X181933811Y-129025669D01*
X181474192Y-129025669D01*
X181244383Y-128910764D01*
X181129478Y-128795859D01*
X181014573Y-128566050D01*
X181014573Y-127876621D01*
X181129478Y-127646812D01*
X181244383Y-127531907D01*
X181474192Y-127417002D01*
X181933811Y-127417002D01*
X182163621Y-127531907D01*
X184346811Y-127417002D02*
X184346811Y-129025669D01*
X183312669Y-127417002D02*
X183312669Y-128680954D01*
X183427573Y-128910764D01*
X183657383Y-129025669D01*
X184002097Y-129025669D01*
X184231907Y-128910764D01*
X184346811Y-128795859D01*
X185840573Y-129025669D02*
X185610764Y-128910764D01*
X185495859Y-128680954D01*
X185495859Y-126612669D01*
X187793954Y-129025669D02*
X187793954Y-127761716D01*
X187679050Y-127531907D01*
X187449240Y-127417002D01*
X186989621Y-127417002D01*
X186759811Y-127531907D01*
X187793954Y-128910764D02*
X187564145Y-129025669D01*
X186989621Y-129025669D01*
X186759811Y-128910764D01*
X186644907Y-128680954D01*
X186644907Y-128451145D01*
X186759811Y-128221335D01*
X186989621Y-128106431D01*
X187564145Y-128106431D01*
X187793954Y-127991526D01*
X188943002Y-129025669D02*
X188943002Y-127417002D01*
X188943002Y-127876621D02*
X189057907Y-127646812D01*
X189172811Y-127531907D01*
X189402621Y-127417002D01*
X189632431Y-127417002D01*
D14*
X176240873Y-131282640D02*
X176240873Y-130397874D01*
X176160440Y-130237007D01*
X175999573Y-130156574D01*
X175677840Y-130156574D01*
X175516973Y-130237007D01*
X176240873Y-131202207D02*
X176080007Y-131282640D01*
X175677840Y-131282640D01*
X175516973Y-131202207D01*
X175436540Y-131041340D01*
X175436540Y-130880474D01*
X175516973Y-130719607D01*
X175677840Y-130639174D01*
X176080007Y-130639174D01*
X176240873Y-130558740D01*
X177769107Y-130156574D02*
X177769107Y-131282640D01*
X177045207Y-130156574D02*
X177045207Y-131041340D01*
X177125640Y-131202207D01*
X177286507Y-131282640D01*
X177527807Y-131282640D01*
X177688673Y-131202207D01*
X177769107Y-131121774D01*
X179297340Y-131282640D02*
X179297340Y-129593540D01*
X179297340Y-131202207D02*
X179136473Y-131282640D01*
X178814740Y-131282640D01*
X178653873Y-131202207D01*
X178573440Y-131121774D01*
X178493007Y-130960907D01*
X178493007Y-130478307D01*
X178573440Y-130317440D01*
X178653873Y-130237007D01*
X178814740Y-130156574D01*
X179136473Y-130156574D01*
X179297340Y-130237007D01*
X180101673Y-131282640D02*
X180101673Y-130156574D01*
X180101673Y-129593540D02*
X180021240Y-129673974D01*
X180101673Y-129754407D01*
X180182107Y-129673974D01*
X180101673Y-129593540D01*
X180101673Y-129754407D01*
X181147307Y-131282640D02*
X180986440Y-131202207D01*
X180906007Y-131121774D01*
X180825573Y-130960907D01*
X180825573Y-130478307D01*
X180906007Y-130317440D01*
X180986440Y-130237007D01*
X181147307Y-130156574D01*
X181388607Y-130156574D01*
X181549473Y-130237007D01*
X181629907Y-130317440D01*
X181710340Y-130478307D01*
X181710340Y-130960907D01*
X181629907Y-131121774D01*
X181549473Y-131202207D01*
X181388607Y-131282640D01*
X181147307Y-131282640D01*
X107631917Y-131585377D02*
X105942817Y-131585377D01*
X106988451Y-131424510D02*
X107631917Y-130941910D01*
X106505851Y-130941910D02*
X107149317Y-131585377D01*
X106505851Y-130218010D02*
X107631917Y-130218010D01*
X106666717Y-130218010D02*
X106586284Y-130137577D01*
X106505851Y-129976710D01*
X106505851Y-129735410D01*
X106586284Y-129574544D01*
X106747151Y-129494110D01*
X107631917Y-129494110D01*
X107631917Y-128448477D02*
X107551484Y-128609344D01*
X107471051Y-128689777D01*
X107310184Y-128770210D01*
X106827584Y-128770210D01*
X106666717Y-128689777D01*
X106586284Y-128609344D01*
X106505851Y-128448477D01*
X106505851Y-128207177D01*
X106586284Y-128046310D01*
X106666717Y-127965877D01*
X106827584Y-127885444D01*
X107310184Y-127885444D01*
X107471051Y-127965877D01*
X107551484Y-128046310D01*
X107631917Y-128207177D01*
X107631917Y-128448477D01*
X107631917Y-127161544D02*
X105942817Y-127161544D01*
X106586284Y-127161544D02*
X106505851Y-127000677D01*
X106505851Y-126678944D01*
X106586284Y-126518077D01*
X106666717Y-126437644D01*
X106827584Y-126357210D01*
X107310184Y-126357210D01*
X107471051Y-126437644D01*
X107551484Y-126518077D01*
X107631917Y-126678944D01*
X107631917Y-127000677D01*
X107551484Y-127161544D01*
X107551484Y-123622477D02*
X107631917Y-123783344D01*
X107631917Y-124105077D01*
X107551484Y-124265944D01*
X107471051Y-124346377D01*
X107310184Y-124426810D01*
X106827584Y-124426810D01*
X106666717Y-124346377D01*
X106586284Y-124265944D01*
X106505851Y-124105077D01*
X106505851Y-123783344D01*
X106586284Y-123622477D01*
X107631917Y-122657277D02*
X107551484Y-122818144D01*
X107471051Y-122898577D01*
X107310184Y-122979010D01*
X106827584Y-122979010D01*
X106666717Y-122898577D01*
X106586284Y-122818144D01*
X106505851Y-122657277D01*
X106505851Y-122415977D01*
X106586284Y-122255110D01*
X106666717Y-122174677D01*
X106827584Y-122094244D01*
X107310184Y-122094244D01*
X107471051Y-122174677D01*
X107551484Y-122255110D01*
X107631917Y-122415977D01*
X107631917Y-122657277D01*
X106505851Y-121370344D02*
X107631917Y-121370344D01*
X106666717Y-121370344D02*
X106586284Y-121289910D01*
X106505851Y-121129044D01*
X106505851Y-120887744D01*
X106586284Y-120726877D01*
X106747151Y-120646444D01*
X107631917Y-120646444D01*
X106505851Y-120083410D02*
X106505851Y-119439944D01*
X105942817Y-119842110D02*
X107390617Y-119842110D01*
X107551484Y-119761677D01*
X107631917Y-119600810D01*
X107631917Y-119439944D01*
X107631917Y-118876910D02*
X106505851Y-118876910D01*
X106827584Y-118876910D02*
X106666717Y-118796477D01*
X106586284Y-118716044D01*
X106505851Y-118555177D01*
X106505851Y-118394310D01*
X107631917Y-117589977D02*
X107551484Y-117750844D01*
X107471051Y-117831277D01*
X107310184Y-117911710D01*
X106827584Y-117911710D01*
X106666717Y-117831277D01*
X106586284Y-117750844D01*
X106505851Y-117589977D01*
X106505851Y-117348677D01*
X106586284Y-117187810D01*
X106666717Y-117107377D01*
X106827584Y-117026944D01*
X107310184Y-117026944D01*
X107471051Y-117107377D01*
X107551484Y-117187810D01*
X107631917Y-117348677D01*
X107631917Y-117589977D01*
X107631917Y-116061744D02*
X107551484Y-116222610D01*
X107390617Y-116303044D01*
X105942817Y-116303044D01*
X107631917Y-115176977D02*
X107551484Y-115337844D01*
X107390617Y-115418277D01*
X105942817Y-115418277D01*
X107551484Y-113890044D02*
X107631917Y-114050910D01*
X107631917Y-114372644D01*
X107551484Y-114533510D01*
X107390617Y-114613944D01*
X106747151Y-114613944D01*
X106586284Y-114533510D01*
X106505851Y-114372644D01*
X106505851Y-114050910D01*
X106586284Y-113890044D01*
X106747151Y-113809610D01*
X106908017Y-113809610D01*
X107068884Y-114613944D01*
X107631917Y-113085710D02*
X106505851Y-113085710D01*
X106827584Y-113085710D02*
X106666717Y-113005277D01*
X106586284Y-112924844D01*
X106505851Y-112763977D01*
X106505851Y-112603110D01*
D13*
X200336000Y-126027000D02*
X200336000Y-129227000D01*
X200336000Y-119027000D02*
X200336000Y-121227000D01*
X191036000Y-129227000D02*
X191036000Y-126027000D01*
X191036000Y-121227000D02*
X191036000Y-119027000D01*
X200336000Y-119027000D02*
X199786000Y-119027000D01*
X199786000Y-119027000D02*
X199786000Y-118477000D01*
X199786000Y-129777000D02*
X199786000Y-129227000D01*
X199786000Y-129227000D02*
X200336000Y-129227000D01*
X191036000Y-129227000D02*
X191586000Y-129227000D01*
X191586000Y-129227000D02*
X191586000Y-129777000D01*
X191586000Y-118477000D02*
X191586000Y-119027000D01*
X191586000Y-119027000D02*
X191036000Y-119027000D01*
X199786000Y-129777000D02*
X191586000Y-129777000D01*
X191586000Y-118477000D02*
X199786000Y-118477000D01*
D15*
X196702000Y-123877000D02*
G75*
G03X196702000Y-123877000I-1016000J0D01*
G01*
X197083000Y-123877000D02*
G75*
G03X197083000Y-123877000I-1397000J0D01*
G01*
D13*
X152619000Y-126144000D02*
X152619000Y-129344000D01*
X152619000Y-119144000D02*
X152619000Y-121344000D01*
X143319000Y-129344000D02*
X143319000Y-126144000D01*
X143319000Y-121344000D02*
X143319000Y-119144000D01*
X152619000Y-119144000D02*
X152069000Y-119144000D01*
X152069000Y-119144000D02*
X152069000Y-118594000D01*
X152069000Y-129894000D02*
X152069000Y-129344000D01*
X152069000Y-129344000D02*
X152619000Y-129344000D01*
X143319000Y-129344000D02*
X143869000Y-129344000D01*
X143869000Y-129344000D02*
X143869000Y-129894000D01*
X143869000Y-118594000D02*
X143869000Y-119144000D01*
X143869000Y-119144000D02*
X143319000Y-119144000D01*
X152069000Y-129894000D02*
X143869000Y-129894000D01*
X143869000Y-118594000D02*
X152069000Y-118594000D01*
D15*
X148985000Y-123994000D02*
G75*
G03X148985000Y-123994000I-1016000J0D01*
G01*
X149366000Y-123994000D02*
G75*
G03X149366000Y-123994000I-1397000J0D01*
G01*
D13*
X105001000Y-125992000D02*
X105001000Y-129192000D01*
X105001000Y-118992000D02*
X105001000Y-121192000D01*
X95701000Y-129192000D02*
X95701000Y-125992000D01*
X95701000Y-121192000D02*
X95701000Y-118992000D01*
X105001000Y-118992000D02*
X104451000Y-118992000D01*
X104451000Y-118992000D02*
X104451000Y-118442000D01*
X104451000Y-129742000D02*
X104451000Y-129192000D01*
X104451000Y-129192000D02*
X105001000Y-129192000D01*
X95701000Y-129192000D02*
X96251000Y-129192000D01*
X96251000Y-129192000D02*
X96251000Y-129742000D01*
X96251000Y-118442000D02*
X96251000Y-118992000D01*
X96251000Y-118992000D02*
X95701000Y-118992000D01*
X104451000Y-129742000D02*
X96251000Y-129742000D01*
X96251000Y-118442000D02*
X104451000Y-118442000D01*
D15*
X101367000Y-123842000D02*
G75*
G03X101367000Y-123842000I-1016000J0D01*
G01*
X101748000Y-123842000D02*
G75*
G03X101748000Y-123842000I-1397000J0D01*
G01*
D13*
X105236000Y-87426800D02*
X105236000Y-90626800D01*
X105236000Y-80426800D02*
X105236000Y-82626800D01*
X95936000Y-90626800D02*
X95936000Y-87426800D01*
X95936000Y-82626800D02*
X95936000Y-80426800D01*
X105236000Y-80426800D02*
X104686000Y-80426800D01*
X104686000Y-80426800D02*
X104686000Y-79876800D01*
X104686000Y-91176800D02*
X104686000Y-90626800D01*
X104686000Y-90626800D02*
X105236000Y-90626800D01*
X95936000Y-90626800D02*
X96486000Y-90626800D01*
X96486000Y-90626800D02*
X96486000Y-91176800D01*
X96486000Y-79876800D02*
X96486000Y-80426800D01*
X96486000Y-80426800D02*
X95936000Y-80426800D01*
X104686000Y-91176800D02*
X96486000Y-91176800D01*
X96486000Y-79876800D02*
X104686000Y-79876800D01*
D15*
X101602000Y-85276800D02*
G75*
G03X101602000Y-85276800I-1016000J0D01*
G01*
X101983000Y-85276800D02*
G75*
G03X101983000Y-85276800I-1397000J0D01*
G01*
D13*
X179530000Y-104140000D02*
G75*
G03X179530000Y-104140000I-3000000J0D01*
G01*
X170330000Y-105840000D02*
X170330000Y-110033800D01*
X171136200Y-110840000D02*
X173130000Y-110840000D01*
X171136200Y-110840000D02*
G75*
G02X170330000Y-110033800I0J806200D01*
G01*
X181923800Y-110840000D02*
X179930000Y-110840000D01*
X181923800Y-110840000D02*
G75*
G03X182730000Y-110033800I0J806200D01*
G01*
X182730000Y-105840000D02*
X182730000Y-110033800D01*
X182730000Y-102440000D02*
X182730000Y-98246200D01*
X181923800Y-97440000D02*
X180430000Y-97440000D01*
X181923800Y-97440000D02*
G75*
G02X182730000Y-98246200I0J-806200D01*
G01*
X171136200Y-97440000D02*
X172630000Y-97440000D01*
X171136200Y-97440000D02*
G75*
G03X170330000Y-98246200I0J-806200D01*
G01*
X170330000Y-102440000D02*
X170330000Y-98246200D01*
X198586000Y-98508600D02*
G75*
G03X198586000Y-98508600I-3000000J0D01*
G01*
X189386000Y-100208600D02*
X189386000Y-104402400D01*
X190192200Y-105208600D02*
X192186000Y-105208600D01*
X190192200Y-105208600D02*
G75*
G02X189386000Y-104402400I0J806200D01*
G01*
X200979800Y-105208600D02*
X198986000Y-105208600D01*
X200979800Y-105208600D02*
G75*
G03X201786000Y-104402400I0J806200D01*
G01*
X201786000Y-100208600D02*
X201786000Y-104402400D01*
X201786000Y-96808600D02*
X201786000Y-92614800D01*
X200979800Y-91808600D02*
X199486000Y-91808600D01*
X200979800Y-91808600D02*
G75*
G02X201786000Y-92614800I0J-806200D01*
G01*
X190192200Y-91808600D02*
X191686000Y-91808600D01*
X190192200Y-91808600D02*
G75*
G03X189386000Y-92614800I0J-806200D01*
G01*
X189386000Y-96808600D02*
X189386000Y-92614800D01*
X122380000Y-104775000D02*
G75*
G03X122380000Y-104775000I-3000000J0D01*
G01*
X113180000Y-106475000D02*
X113180000Y-110668800D01*
X113986200Y-111475000D02*
X115980000Y-111475000D01*
X113986200Y-111475000D02*
G75*
G02X113180000Y-110668800I0J806200D01*
G01*
X124773800Y-111475000D02*
X122780000Y-111475000D01*
X124773800Y-111475000D02*
G75*
G03X125580000Y-110668800I0J806200D01*
G01*
X125580000Y-106475000D02*
X125580000Y-110668800D01*
X125580000Y-103075000D02*
X125580000Y-98881200D01*
X124773800Y-98075000D02*
X123280000Y-98075000D01*
X124773800Y-98075000D02*
G75*
G02X125580000Y-98881200I0J-806200D01*
G01*
X113986200Y-98075000D02*
X115480000Y-98075000D01*
X113986200Y-98075000D02*
G75*
G03X113180000Y-98881200I0J-806200D01*
G01*
X113180000Y-103075000D02*
X113180000Y-98881200D01*
D16*
X192025219Y-120275280D02*
X192363039Y-121288740D01*
X192700859Y-120275280D01*
X193617799Y-121288740D02*
X193279979Y-120806140D01*
X193038679Y-121288740D02*
X193038679Y-120275280D01*
X193424759Y-120275280D01*
X193521279Y-120323540D01*
X193569539Y-120371800D01*
X193617799Y-120468320D01*
X193617799Y-120613100D01*
X193569539Y-120709620D01*
X193521279Y-120757880D01*
X193424759Y-120806140D01*
X193038679Y-120806140D01*
X193955619Y-120275280D02*
X194582999Y-120275280D01*
X194245179Y-120661360D01*
X194389959Y-120661360D01*
X194486479Y-120709620D01*
X194534739Y-120757880D01*
X194582999Y-120854400D01*
X194582999Y-121095700D01*
X194534739Y-121192220D01*
X194486479Y-121240480D01*
X194389959Y-121288740D01*
X194100399Y-121288740D01*
X194003879Y-121240480D01*
X193955619Y-121192220D01*
D17*
X192800523Y-126423047D02*
X192225999Y-126423047D01*
X192168547Y-126997571D01*
X192225999Y-126940119D01*
X192340904Y-126882666D01*
X192628166Y-126882666D01*
X192743071Y-126940119D01*
X192800523Y-126997571D01*
X192857976Y-127112476D01*
X192857976Y-127399738D01*
X192800523Y-127514642D01*
X192743071Y-127572095D01*
X192628166Y-127629547D01*
X192340904Y-127629547D01*
X192225999Y-127572095D01*
X192168547Y-127514642D01*
X193604857Y-126423047D02*
X193719761Y-126423047D01*
X193834666Y-126480500D01*
X193892118Y-126537952D01*
X193949571Y-126652857D01*
X194007023Y-126882666D01*
X194007023Y-127169928D01*
X193949571Y-127399738D01*
X193892118Y-127514642D01*
X193834666Y-127572095D01*
X193719761Y-127629547D01*
X193604857Y-127629547D01*
X193489952Y-127572095D01*
X193432499Y-127514642D01*
X193375047Y-127399738D01*
X193317595Y-127169928D01*
X193317595Y-126882666D01*
X193375047Y-126652857D01*
X193432499Y-126537952D01*
X193489952Y-126480500D01*
X193604857Y-126423047D01*
X194524095Y-127629547D02*
X194524095Y-126423047D01*
X194638999Y-127169928D02*
X194983714Y-127629547D01*
X194983714Y-126825214D02*
X194524095Y-127284833D01*
D16*
X144308219Y-120392280D02*
X144646039Y-121405740D01*
X144983859Y-120392280D01*
X145900799Y-121405740D02*
X145562979Y-120923140D01*
X145321679Y-121405740D02*
X145321679Y-120392280D01*
X145707759Y-120392280D01*
X145804279Y-120440540D01*
X145852539Y-120488800D01*
X145900799Y-120585320D01*
X145900799Y-120730100D01*
X145852539Y-120826620D01*
X145804279Y-120874880D01*
X145707759Y-120923140D01*
X145321679Y-120923140D01*
X146769479Y-120730100D02*
X146769479Y-121405740D01*
X146528179Y-120344020D02*
X146286879Y-121067920D01*
X146914259Y-121067920D01*
D17*
X145083523Y-126540047D02*
X144508999Y-126540047D01*
X144451547Y-127114571D01*
X144508999Y-127057119D01*
X144623904Y-126999666D01*
X144911166Y-126999666D01*
X145026071Y-127057119D01*
X145083523Y-127114571D01*
X145140976Y-127229476D01*
X145140976Y-127516738D01*
X145083523Y-127631642D01*
X145026071Y-127689095D01*
X144911166Y-127746547D01*
X144623904Y-127746547D01*
X144508999Y-127689095D01*
X144451547Y-127631642D01*
X145887857Y-126540047D02*
X146002761Y-126540047D01*
X146117666Y-126597500D01*
X146175118Y-126654952D01*
X146232571Y-126769857D01*
X146290023Y-126999666D01*
X146290023Y-127286928D01*
X146232571Y-127516738D01*
X146175118Y-127631642D01*
X146117666Y-127689095D01*
X146002761Y-127746547D01*
X145887857Y-127746547D01*
X145772952Y-127689095D01*
X145715499Y-127631642D01*
X145658047Y-127516738D01*
X145600595Y-127286928D01*
X145600595Y-126999666D01*
X145658047Y-126769857D01*
X145715499Y-126654952D01*
X145772952Y-126597500D01*
X145887857Y-126540047D01*
X146807095Y-127746547D02*
X146807095Y-126540047D01*
X146921999Y-127286928D02*
X147266714Y-127746547D01*
X147266714Y-126942214D02*
X146807095Y-127401833D01*
D16*
X96690219Y-120240280D02*
X97028039Y-121253740D01*
X97365859Y-120240280D01*
X98282799Y-121253740D02*
X97944979Y-120771140D01*
X97703679Y-121253740D02*
X97703679Y-120240280D01*
X98089759Y-120240280D01*
X98186279Y-120288540D01*
X98234539Y-120336800D01*
X98282799Y-120433320D01*
X98282799Y-120578100D01*
X98234539Y-120674620D01*
X98186279Y-120722880D01*
X98089759Y-120771140D01*
X97703679Y-120771140D01*
X98668879Y-120336800D02*
X98717139Y-120288540D01*
X98813659Y-120240280D01*
X99054959Y-120240280D01*
X99151479Y-120288540D01*
X99199739Y-120336800D01*
X99247999Y-120433320D01*
X99247999Y-120529840D01*
X99199739Y-120674620D01*
X98620619Y-121253740D01*
X99247999Y-121253740D01*
D17*
X97465523Y-126388047D02*
X96890999Y-126388047D01*
X96833547Y-126962571D01*
X96890999Y-126905119D01*
X97005904Y-126847666D01*
X97293166Y-126847666D01*
X97408071Y-126905119D01*
X97465523Y-126962571D01*
X97522976Y-127077476D01*
X97522976Y-127364738D01*
X97465523Y-127479642D01*
X97408071Y-127537095D01*
X97293166Y-127594547D01*
X97005904Y-127594547D01*
X96890999Y-127537095D01*
X96833547Y-127479642D01*
X98269857Y-126388047D02*
X98384761Y-126388047D01*
X98499666Y-126445500D01*
X98557118Y-126502952D01*
X98614571Y-126617857D01*
X98672023Y-126847666D01*
X98672023Y-127134928D01*
X98614571Y-127364738D01*
X98557118Y-127479642D01*
X98499666Y-127537095D01*
X98384761Y-127594547D01*
X98269857Y-127594547D01*
X98154952Y-127537095D01*
X98097499Y-127479642D01*
X98040047Y-127364738D01*
X97982595Y-127134928D01*
X97982595Y-126847666D01*
X98040047Y-126617857D01*
X98097499Y-126502952D01*
X98154952Y-126445500D01*
X98269857Y-126388047D01*
X99189095Y-127594547D02*
X99189095Y-126388047D01*
X99303999Y-127134928D02*
X99648714Y-127594547D01*
X99648714Y-126790214D02*
X99189095Y-127249833D01*
D16*
X96925219Y-81675080D02*
X97263039Y-82688540D01*
X97600859Y-81675080D01*
X98517799Y-82688540D02*
X98179979Y-82205940D01*
X97938679Y-82688540D02*
X97938679Y-81675080D01*
X98324759Y-81675080D01*
X98421279Y-81723340D01*
X98469539Y-81771600D01*
X98517799Y-81868120D01*
X98517799Y-82012900D01*
X98469539Y-82109420D01*
X98421279Y-82157680D01*
X98324759Y-82205940D01*
X97938679Y-82205940D01*
X99482999Y-82688540D02*
X98903879Y-82688540D01*
X99193439Y-82688540D02*
X99193439Y-81675080D01*
X99096919Y-81819860D01*
X99000399Y-81916380D01*
X98903879Y-81964640D01*
D17*
X97700523Y-87822847D02*
X97125999Y-87822847D01*
X97068547Y-88397371D01*
X97125999Y-88339919D01*
X97240904Y-88282466D01*
X97528166Y-88282466D01*
X97643071Y-88339919D01*
X97700523Y-88397371D01*
X97757976Y-88512276D01*
X97757976Y-88799538D01*
X97700523Y-88914442D01*
X97643071Y-88971895D01*
X97528166Y-89029347D01*
X97240904Y-89029347D01*
X97125999Y-88971895D01*
X97068547Y-88914442D01*
X98504857Y-87822847D02*
X98619761Y-87822847D01*
X98734666Y-87880300D01*
X98792118Y-87937752D01*
X98849571Y-88052657D01*
X98907023Y-88282466D01*
X98907023Y-88569728D01*
X98849571Y-88799538D01*
X98792118Y-88914442D01*
X98734666Y-88971895D01*
X98619761Y-89029347D01*
X98504857Y-89029347D01*
X98389952Y-88971895D01*
X98332499Y-88914442D01*
X98275047Y-88799538D01*
X98217595Y-88569728D01*
X98217595Y-88282466D01*
X98275047Y-88052657D01*
X98332499Y-87937752D01*
X98389952Y-87880300D01*
X98504857Y-87822847D01*
X99424095Y-89029347D02*
X99424095Y-87822847D01*
X99538999Y-88569728D02*
X99883714Y-89029347D01*
X99883714Y-88225014D02*
X99424095Y-88684633D01*
D11*
X169766342Y-101750222D02*
X169931805Y-101308988D01*
X170097268Y-101750222D01*
X170152422Y-101033217D02*
X169573302Y-101033217D01*
X170152422Y-100702291D01*
X169573302Y-100702291D01*
X170152422Y-100178325D02*
X169849074Y-100178325D01*
X169793920Y-100205902D01*
X169766342Y-100261057D01*
X169766342Y-100371365D01*
X169793920Y-100426520D01*
X170124845Y-100178325D02*
X170152422Y-100233480D01*
X170152422Y-100371365D01*
X170124845Y-100426520D01*
X170069691Y-100454097D01*
X170014537Y-100454097D01*
X169959382Y-100426520D01*
X169931805Y-100371365D01*
X169931805Y-100233480D01*
X169904228Y-100178325D01*
X170152422Y-99902554D02*
X169766342Y-99902554D01*
X169821497Y-99902554D02*
X169793920Y-99874977D01*
X169766342Y-99819822D01*
X169766342Y-99737091D01*
X169793920Y-99681937D01*
X169849074Y-99654360D01*
X170152422Y-99654360D01*
X169849074Y-99654360D02*
X169793920Y-99626782D01*
X169766342Y-99571628D01*
X169766342Y-99488897D01*
X169793920Y-99433742D01*
X169849074Y-99406165D01*
X170152422Y-99406165D01*
X170124845Y-98909777D02*
X170152422Y-98964931D01*
X170152422Y-99075240D01*
X170124845Y-99130394D01*
X170069691Y-99157971D01*
X169849074Y-99157971D01*
X169793920Y-99130394D01*
X169766342Y-99075240D01*
X169766342Y-98964931D01*
X169793920Y-98909777D01*
X169849074Y-98882200D01*
X169904228Y-98882200D01*
X169959382Y-99157971D01*
D18*
X195820405Y-99280760D02*
X195847982Y-99198028D01*
X195847982Y-99060142D01*
X195820405Y-99004988D01*
X195792828Y-98977411D01*
X195737674Y-98949834D01*
X195682520Y-98949834D01*
X195627365Y-98977411D01*
X195599788Y-99004988D01*
X195572211Y-99060142D01*
X195544634Y-99170451D01*
X195517057Y-99225605D01*
X195489480Y-99253182D01*
X195434325Y-99280760D01*
X195379171Y-99280760D01*
X195324017Y-99253182D01*
X195296440Y-99225605D01*
X195268862Y-99170451D01*
X195268862Y-99032565D01*
X195296440Y-98949834D01*
X195268862Y-98756794D02*
X195847982Y-98618908D01*
X195434325Y-98508600D01*
X195847982Y-98398291D01*
X195268862Y-98260405D01*
X195324017Y-98067365D02*
X195296440Y-98039788D01*
X195268862Y-97984634D01*
X195268862Y-97846748D01*
X195296440Y-97791594D01*
X195324017Y-97764017D01*
X195379171Y-97736440D01*
X195434325Y-97736440D01*
X195517057Y-97764017D01*
X195847982Y-98094942D01*
X195847982Y-97736440D01*
X195847982Y-101362834D02*
X195572211Y-101555874D01*
X195847982Y-101693760D02*
X195268862Y-101693760D01*
X195268862Y-101473142D01*
X195296440Y-101417988D01*
X195324017Y-101390411D01*
X195379171Y-101362834D01*
X195461902Y-101362834D01*
X195517057Y-101390411D01*
X195544634Y-101417988D01*
X195572211Y-101473142D01*
X195572211Y-101693760D01*
X195847982Y-101031908D02*
X195820405Y-101087062D01*
X195792828Y-101114640D01*
X195737674Y-101142217D01*
X195572211Y-101142217D01*
X195517057Y-101114640D01*
X195489480Y-101087062D01*
X195461902Y-101031908D01*
X195461902Y-100949177D01*
X195489480Y-100894022D01*
X195517057Y-100866445D01*
X195572211Y-100838868D01*
X195737674Y-100838868D01*
X195792828Y-100866445D01*
X195820405Y-100894022D01*
X195847982Y-100949177D01*
X195847982Y-101031908D01*
X195461902Y-100673405D02*
X195461902Y-100452788D01*
X195268862Y-100590674D02*
X195765251Y-100590674D01*
X195820405Y-100563097D01*
X195847982Y-100507942D01*
X195847982Y-100452788D01*
X195847982Y-100011554D02*
X195544634Y-100011554D01*
X195489480Y-100039131D01*
X195461902Y-100094285D01*
X195461902Y-100204594D01*
X195489480Y-100259748D01*
X195820405Y-100011554D02*
X195847982Y-100066708D01*
X195847982Y-100204594D01*
X195820405Y-100259748D01*
X195765251Y-100287325D01*
X195710097Y-100287325D01*
X195654942Y-100259748D01*
X195627365Y-100204594D01*
X195627365Y-100066708D01*
X195599788Y-100011554D01*
X195847982Y-99735782D02*
X195461902Y-99735782D01*
X195572211Y-99735782D02*
X195517057Y-99708205D01*
X195489480Y-99680628D01*
X195461902Y-99625474D01*
X195461902Y-99570320D01*
X195461902Y-99432434D02*
X195847982Y-99294548D01*
X195461902Y-99156662D02*
X195847982Y-99294548D01*
X195985868Y-99349702D01*
X196013445Y-99377280D01*
X196041022Y-99432434D01*
X195544634Y-98494811D02*
X195544634Y-98301771D01*
X195847982Y-98219040D02*
X195847982Y-98494811D01*
X195268862Y-98494811D01*
X195268862Y-98219040D01*
X195461902Y-97970845D02*
X195847982Y-97970845D01*
X195517057Y-97970845D02*
X195489480Y-97943268D01*
X195461902Y-97888114D01*
X195461902Y-97805382D01*
X195489480Y-97750228D01*
X195544634Y-97722651D01*
X195847982Y-97722651D01*
X195820405Y-97198685D02*
X195847982Y-97253840D01*
X195847982Y-97364148D01*
X195820405Y-97419302D01*
X195792828Y-97446880D01*
X195737674Y-97474457D01*
X195572211Y-97474457D01*
X195517057Y-97446880D01*
X195489480Y-97419302D01*
X195461902Y-97364148D01*
X195461902Y-97253840D01*
X195489480Y-97198685D01*
X195847982Y-96867760D02*
X195820405Y-96922914D01*
X195792828Y-96950491D01*
X195737674Y-96978068D01*
X195572211Y-96978068D01*
X195517057Y-96950491D01*
X195489480Y-96922914D01*
X195461902Y-96867760D01*
X195461902Y-96785028D01*
X195489480Y-96729874D01*
X195517057Y-96702297D01*
X195572211Y-96674720D01*
X195737674Y-96674720D01*
X195792828Y-96702297D01*
X195820405Y-96729874D01*
X195847982Y-96785028D01*
X195847982Y-96867760D01*
X195847982Y-96178331D02*
X195268862Y-96178331D01*
X195820405Y-96178331D02*
X195847982Y-96233485D01*
X195847982Y-96343794D01*
X195820405Y-96398948D01*
X195792828Y-96426525D01*
X195737674Y-96454102D01*
X195572211Y-96454102D01*
X195517057Y-96426525D01*
X195489480Y-96398948D01*
X195461902Y-96343794D01*
X195461902Y-96233485D01*
X195489480Y-96178331D01*
X195820405Y-95681942D02*
X195847982Y-95737097D01*
X195847982Y-95847405D01*
X195820405Y-95902560D01*
X195765251Y-95930137D01*
X195544634Y-95930137D01*
X195489480Y-95902560D01*
X195461902Y-95847405D01*
X195461902Y-95737097D01*
X195489480Y-95681942D01*
X195544634Y-95654365D01*
X195599788Y-95654365D01*
X195654942Y-95930137D01*
X195847982Y-95406171D02*
X195461902Y-95406171D01*
X195572211Y-95406171D02*
X195517057Y-95378594D01*
X195489480Y-95351017D01*
X195461902Y-95295862D01*
X195461902Y-95240708D01*
D11*
X188822342Y-96118822D02*
X188987805Y-95677588D01*
X189153268Y-96118822D01*
X189208422Y-95401817D02*
X188629302Y-95401817D01*
X189208422Y-95070891D01*
X188629302Y-95070891D01*
X189208422Y-94546925D02*
X188905074Y-94546925D01*
X188849920Y-94574502D01*
X188822342Y-94629657D01*
X188822342Y-94739965D01*
X188849920Y-94795120D01*
X189180845Y-94546925D02*
X189208422Y-94602080D01*
X189208422Y-94739965D01*
X189180845Y-94795120D01*
X189125691Y-94822697D01*
X189070537Y-94822697D01*
X189015382Y-94795120D01*
X188987805Y-94739965D01*
X188987805Y-94602080D01*
X188960228Y-94546925D01*
X189208422Y-94271154D02*
X188822342Y-94271154D01*
X188877497Y-94271154D02*
X188849920Y-94243577D01*
X188822342Y-94188422D01*
X188822342Y-94105691D01*
X188849920Y-94050537D01*
X188905074Y-94022960D01*
X189208422Y-94022960D01*
X188905074Y-94022960D02*
X188849920Y-93995382D01*
X188822342Y-93940228D01*
X188822342Y-93857497D01*
X188849920Y-93802342D01*
X188905074Y-93774765D01*
X189208422Y-93774765D01*
X189180845Y-93278377D02*
X189208422Y-93333531D01*
X189208422Y-93443840D01*
X189180845Y-93498994D01*
X189125691Y-93526571D01*
X188905074Y-93526571D01*
X188849920Y-93498994D01*
X188822342Y-93443840D01*
X188822342Y-93333531D01*
X188849920Y-93278377D01*
X188905074Y-93250800D01*
X188960228Y-93250800D01*
X189015382Y-93526571D01*
X112616342Y-102385222D02*
X112781805Y-101943988D01*
X112947268Y-102385222D01*
X113002422Y-101668217D02*
X112423302Y-101668217D01*
X113002422Y-101337291D01*
X112423302Y-101337291D01*
X113002422Y-100813325D02*
X112699074Y-100813325D01*
X112643920Y-100840902D01*
X112616342Y-100896057D01*
X112616342Y-101006365D01*
X112643920Y-101061520D01*
X112974845Y-100813325D02*
X113002422Y-100868480D01*
X113002422Y-101006365D01*
X112974845Y-101061520D01*
X112919691Y-101089097D01*
X112864537Y-101089097D01*
X112809382Y-101061520D01*
X112781805Y-101006365D01*
X112781805Y-100868480D01*
X112754228Y-100813325D01*
X113002422Y-100537554D02*
X112616342Y-100537554D01*
X112671497Y-100537554D02*
X112643920Y-100509977D01*
X112616342Y-100454822D01*
X112616342Y-100372091D01*
X112643920Y-100316937D01*
X112699074Y-100289360D01*
X113002422Y-100289360D01*
X112699074Y-100289360D02*
X112643920Y-100261782D01*
X112616342Y-100206628D01*
X112616342Y-100123897D01*
X112643920Y-100068742D01*
X112699074Y-100041165D01*
X113002422Y-100041165D01*
X112974845Y-99544777D02*
X113002422Y-99599931D01*
X113002422Y-99710240D01*
X112974845Y-99765394D01*
X112919691Y-99792971D01*
X112699074Y-99792971D01*
X112643920Y-99765394D01*
X112616342Y-99710240D01*
X112616342Y-99599931D01*
X112643920Y-99544777D01*
X112699074Y-99517200D01*
X112754228Y-99517200D01*
X112809382Y-99792971D01*
D17*
X165684357Y-104082547D02*
X165282190Y-103508023D01*
X164994928Y-104082547D02*
X164994928Y-102876047D01*
X165454547Y-102876047D01*
X165569452Y-102933500D01*
X165626904Y-102990952D01*
X165684357Y-103105857D01*
X165684357Y-103278214D01*
X165626904Y-103393119D01*
X165569452Y-103450571D01*
X165454547Y-103508023D01*
X164994928Y-103508023D01*
X166086523Y-102876047D02*
X166833404Y-102876047D01*
X166431238Y-103335666D01*
X166603595Y-103335666D01*
X166718500Y-103393119D01*
X166775952Y-103450571D01*
X166833404Y-103565476D01*
X166833404Y-103852738D01*
X166775952Y-103967642D01*
X166718500Y-104025095D01*
X166603595Y-104082547D01*
X166258881Y-104082547D01*
X166143976Y-104025095D01*
X166086523Y-103967642D01*
X167982452Y-104082547D02*
X167293023Y-104082547D01*
X167637738Y-104082547D02*
X167637738Y-102876047D01*
X167522833Y-103048404D01*
X167407928Y-103163309D01*
X167293023Y-103220761D01*
X165563404Y-105987547D02*
X164873976Y-105987547D01*
X165218690Y-105987547D02*
X165218690Y-104781047D01*
X165103785Y-104953404D01*
X164988881Y-105068309D01*
X164873976Y-105125761D01*
X166310285Y-104781047D02*
X166425190Y-104781047D01*
X166540095Y-104838500D01*
X166597547Y-104895952D01*
X166655000Y-105010857D01*
X166712452Y-105240666D01*
X166712452Y-105527928D01*
X166655000Y-105757738D01*
X166597547Y-105872642D01*
X166540095Y-105930095D01*
X166425190Y-105987547D01*
X166310285Y-105987547D01*
X166195381Y-105930095D01*
X166137928Y-105872642D01*
X166080476Y-105757738D01*
X166023023Y-105527928D01*
X166023023Y-105240666D01*
X166080476Y-105010857D01*
X166137928Y-104895952D01*
X166195381Y-104838500D01*
X166310285Y-104781047D01*
X156159357Y-103447547D02*
X155757190Y-102873023D01*
X155469928Y-103447547D02*
X155469928Y-102241047D01*
X155929547Y-102241047D01*
X156044452Y-102298500D01*
X156101904Y-102355952D01*
X156159357Y-102470857D01*
X156159357Y-102643214D01*
X156101904Y-102758119D01*
X156044452Y-102815571D01*
X155929547Y-102873023D01*
X155469928Y-102873023D01*
X156561523Y-102241047D02*
X157308404Y-102241047D01*
X156906238Y-102700666D01*
X157078595Y-102700666D01*
X157193500Y-102758119D01*
X157250952Y-102815571D01*
X157308404Y-102930476D01*
X157308404Y-103217738D01*
X157250952Y-103332642D01*
X157193500Y-103390095D01*
X157078595Y-103447547D01*
X156733881Y-103447547D01*
X156618976Y-103390095D01*
X156561523Y-103332642D01*
X158055285Y-102241047D02*
X158170190Y-102241047D01*
X158285095Y-102298500D01*
X158342547Y-102355952D01*
X158400000Y-102470857D01*
X158457452Y-102700666D01*
X158457452Y-102987928D01*
X158400000Y-103217738D01*
X158342547Y-103332642D01*
X158285095Y-103390095D01*
X158170190Y-103447547D01*
X158055285Y-103447547D01*
X157940381Y-103390095D01*
X157882928Y-103332642D01*
X157825476Y-103217738D01*
X157768023Y-102987928D01*
X157768023Y-102700666D01*
X157825476Y-102470857D01*
X157882928Y-102355952D01*
X157940381Y-102298500D01*
X158055285Y-102241047D01*
X156673404Y-106622547D02*
X155983976Y-106622547D01*
X156328690Y-106622547D02*
X156328690Y-105416047D01*
X156213785Y-105588404D01*
X156098881Y-105703309D01*
X155983976Y-105760761D01*
X157420285Y-105416047D02*
X157535190Y-105416047D01*
X157650095Y-105473500D01*
X157707547Y-105530952D01*
X157765000Y-105645857D01*
X157822452Y-105875666D01*
X157822452Y-106162928D01*
X157765000Y-106392738D01*
X157707547Y-106507642D01*
X157650095Y-106565095D01*
X157535190Y-106622547D01*
X157420285Y-106622547D01*
X157305381Y-106565095D01*
X157247928Y-106507642D01*
X157190476Y-106392738D01*
X157133023Y-106162928D01*
X157133023Y-105875666D01*
X157190476Y-105645857D01*
X157247928Y-105530952D01*
X157305381Y-105473500D01*
X157420285Y-105416047D01*
X152804428Y-97732547D02*
X152402261Y-97158023D01*
X152114999Y-97732547D02*
X152114999Y-96526047D01*
X152574618Y-96526047D01*
X152689523Y-96583500D01*
X152746976Y-96640952D01*
X152804428Y-96755857D01*
X152804428Y-96928214D01*
X152746976Y-97043119D01*
X152689523Y-97100571D01*
X152574618Y-97158023D01*
X152114999Y-97158023D01*
X153264047Y-96640952D02*
X153321499Y-96583500D01*
X153436404Y-96526047D01*
X153723666Y-96526047D01*
X153838571Y-96583500D01*
X153896023Y-96640952D01*
X153953476Y-96755857D01*
X153953476Y-96870761D01*
X153896023Y-97043119D01*
X153206595Y-97732547D01*
X153953476Y-97732547D01*
X154527999Y-97732547D02*
X154757809Y-97732547D01*
X154872714Y-97675095D01*
X154930166Y-97617642D01*
X155045071Y-97445285D01*
X155102523Y-97215476D01*
X155102523Y-96755857D01*
X155045071Y-96640952D01*
X154987618Y-96583500D01*
X154872714Y-96526047D01*
X154642904Y-96526047D01*
X154527999Y-96583500D01*
X154470547Y-96640952D01*
X154413095Y-96755857D01*
X154413095Y-97043119D01*
X154470547Y-97158023D01*
X154527999Y-97215476D01*
X154642904Y-97272928D01*
X154872714Y-97272928D01*
X154987618Y-97215476D01*
X155045071Y-97158023D01*
X155102523Y-97043119D01*
X153381976Y-99637547D02*
X152692547Y-99637547D01*
X153037261Y-99637547D02*
X153037261Y-98431047D01*
X152922357Y-98603404D01*
X152807452Y-98718309D01*
X152692547Y-98775761D01*
X154128857Y-98431047D02*
X154243761Y-98431047D01*
X154358666Y-98488500D01*
X154416118Y-98545952D01*
X154473571Y-98660857D01*
X154531023Y-98890666D01*
X154531023Y-99177928D01*
X154473571Y-99407738D01*
X154416118Y-99522642D01*
X154358666Y-99580095D01*
X154243761Y-99637547D01*
X154128857Y-99637547D01*
X154013952Y-99580095D01*
X153956499Y-99522642D01*
X153899047Y-99407738D01*
X153841595Y-99177928D01*
X153841595Y-98890666D01*
X153899047Y-98660857D01*
X153956499Y-98545952D01*
X154013952Y-98488500D01*
X154128857Y-98431047D01*
X165504428Y-97732547D02*
X165102261Y-97158023D01*
X164814999Y-97732547D02*
X164814999Y-96526047D01*
X165274618Y-96526047D01*
X165389523Y-96583500D01*
X165446976Y-96640952D01*
X165504428Y-96755857D01*
X165504428Y-96928214D01*
X165446976Y-97043119D01*
X165389523Y-97100571D01*
X165274618Y-97158023D01*
X164814999Y-97158023D01*
X165964047Y-96640952D02*
X166021499Y-96583500D01*
X166136404Y-96526047D01*
X166423666Y-96526047D01*
X166538571Y-96583500D01*
X166596023Y-96640952D01*
X166653476Y-96755857D01*
X166653476Y-96870761D01*
X166596023Y-97043119D01*
X165906595Y-97732547D01*
X166653476Y-97732547D01*
X167342904Y-97043119D02*
X167227999Y-96985666D01*
X167170547Y-96928214D01*
X167113095Y-96813309D01*
X167113095Y-96755857D01*
X167170547Y-96640952D01*
X167227999Y-96583500D01*
X167342904Y-96526047D01*
X167572714Y-96526047D01*
X167687618Y-96583500D01*
X167745071Y-96640952D01*
X167802523Y-96755857D01*
X167802523Y-96813309D01*
X167745071Y-96928214D01*
X167687618Y-96985666D01*
X167572714Y-97043119D01*
X167342904Y-97043119D01*
X167227999Y-97100571D01*
X167170547Y-97158023D01*
X167113095Y-97272928D01*
X167113095Y-97502738D01*
X167170547Y-97617642D01*
X167227999Y-97675095D01*
X167342904Y-97732547D01*
X167572714Y-97732547D01*
X167687618Y-97675095D01*
X167745071Y-97617642D01*
X167802523Y-97502738D01*
X167802523Y-97272928D01*
X167745071Y-97158023D01*
X167687618Y-97100571D01*
X167572714Y-97043119D01*
X166081976Y-99637547D02*
X165392547Y-99637547D01*
X165737261Y-99637547D02*
X165737261Y-98431047D01*
X165622357Y-98603404D01*
X165507452Y-98718309D01*
X165392547Y-98775761D01*
X166828857Y-98431047D02*
X166943761Y-98431047D01*
X167058666Y-98488500D01*
X167116118Y-98545952D01*
X167173571Y-98660857D01*
X167231023Y-98890666D01*
X167231023Y-99177928D01*
X167173571Y-99407738D01*
X167116118Y-99522642D01*
X167058666Y-99580095D01*
X166943761Y-99637547D01*
X166828857Y-99637547D01*
X166713952Y-99580095D01*
X166656499Y-99522642D01*
X166599047Y-99407738D01*
X166541595Y-99177928D01*
X166541595Y-98890666D01*
X166599047Y-98660857D01*
X166656499Y-98545952D01*
X166713952Y-98488500D01*
X166828857Y-98431047D01*
X167748095Y-99637547D02*
X167748095Y-98431047D01*
X167862999Y-99177928D02*
X168207714Y-99637547D01*
X168207714Y-98833214D02*
X167748095Y-99292833D01*
X159694428Y-120657547D02*
X159292261Y-120083023D01*
X159004999Y-120657547D02*
X159004999Y-119451047D01*
X159464618Y-119451047D01*
X159579523Y-119508500D01*
X159636976Y-119565952D01*
X159694428Y-119680857D01*
X159694428Y-119853214D01*
X159636976Y-119968119D01*
X159579523Y-120025571D01*
X159464618Y-120083023D01*
X159004999Y-120083023D01*
X160154047Y-119565952D02*
X160211499Y-119508500D01*
X160326404Y-119451047D01*
X160613666Y-119451047D01*
X160728571Y-119508500D01*
X160786023Y-119565952D01*
X160843476Y-119680857D01*
X160843476Y-119795761D01*
X160786023Y-119968119D01*
X160096595Y-120657547D01*
X160843476Y-120657547D01*
X161245642Y-119451047D02*
X162049976Y-119451047D01*
X161532904Y-120657547D01*
X159636976Y-124467547D02*
X158947547Y-124467547D01*
X159292261Y-124467547D02*
X159292261Y-123261047D01*
X159177357Y-123433404D01*
X159062452Y-123548309D01*
X158947547Y-123605761D01*
X160383857Y-123261047D02*
X160498761Y-123261047D01*
X160613666Y-123318500D01*
X160671118Y-123375952D01*
X160728571Y-123490857D01*
X160786023Y-123720666D01*
X160786023Y-124007928D01*
X160728571Y-124237738D01*
X160671118Y-124352642D01*
X160613666Y-124410095D01*
X160498761Y-124467547D01*
X160383857Y-124467547D01*
X160268952Y-124410095D01*
X160211499Y-124352642D01*
X160154047Y-124237738D01*
X160096595Y-124007928D01*
X160096595Y-123720666D01*
X160154047Y-123490857D01*
X160211499Y-123375952D01*
X160268952Y-123318500D01*
X160383857Y-123261047D01*
X161303095Y-124467547D02*
X161303095Y-123261047D01*
X161417999Y-124007928D02*
X161762714Y-124467547D01*
X161762714Y-123663214D02*
X161303095Y-124122833D01*
X159789428Y-111702547D02*
X159387261Y-111128023D01*
X159099999Y-111702547D02*
X159099999Y-110496047D01*
X159559618Y-110496047D01*
X159674523Y-110553500D01*
X159731976Y-110610952D01*
X159789428Y-110725857D01*
X159789428Y-110898214D01*
X159731976Y-111013119D01*
X159674523Y-111070571D01*
X159559618Y-111128023D01*
X159099999Y-111128023D01*
X160249047Y-110610952D02*
X160306499Y-110553500D01*
X160421404Y-110496047D01*
X160708666Y-110496047D01*
X160823571Y-110553500D01*
X160881023Y-110610952D01*
X160938476Y-110725857D01*
X160938476Y-110840761D01*
X160881023Y-111013119D01*
X160191595Y-111702547D01*
X160938476Y-111702547D01*
X161972618Y-110496047D02*
X161742809Y-110496047D01*
X161627904Y-110553500D01*
X161570452Y-110610952D01*
X161455547Y-110783309D01*
X161398095Y-111013119D01*
X161398095Y-111472738D01*
X161455547Y-111587642D01*
X161512999Y-111645095D01*
X161627904Y-111702547D01*
X161857714Y-111702547D01*
X161972618Y-111645095D01*
X162030071Y-111587642D01*
X162087523Y-111472738D01*
X162087523Y-111185476D01*
X162030071Y-111070571D01*
X161972618Y-111013119D01*
X161857714Y-110955666D01*
X161627904Y-110955666D01*
X161512999Y-111013119D01*
X161455547Y-111070571D01*
X161398095Y-111185476D01*
X159636976Y-115512547D02*
X158947547Y-115512547D01*
X159292261Y-115512547D02*
X159292261Y-114306047D01*
X159177357Y-114478404D01*
X159062452Y-114593309D01*
X158947547Y-114650761D01*
X160383857Y-114306047D02*
X160498761Y-114306047D01*
X160613666Y-114363500D01*
X160671118Y-114420952D01*
X160728571Y-114535857D01*
X160786023Y-114765666D01*
X160786023Y-115052928D01*
X160728571Y-115282738D01*
X160671118Y-115397642D01*
X160613666Y-115455095D01*
X160498761Y-115512547D01*
X160383857Y-115512547D01*
X160268952Y-115455095D01*
X160211499Y-115397642D01*
X160154047Y-115282738D01*
X160096595Y-115052928D01*
X160096595Y-114765666D01*
X160154047Y-114535857D01*
X160211499Y-114420952D01*
X160268952Y-114363500D01*
X160383857Y-114306047D01*
X161303095Y-115512547D02*
X161303095Y-114306047D01*
X161417999Y-115052928D02*
X161762714Y-115512547D01*
X161762714Y-114708214D02*
X161303095Y-115167833D01*
X177569428Y-115512547D02*
X177167261Y-114938023D01*
X176879999Y-115512547D02*
X176879999Y-114306047D01*
X177339618Y-114306047D01*
X177454523Y-114363500D01*
X177511976Y-114420952D01*
X177569428Y-114535857D01*
X177569428Y-114708214D01*
X177511976Y-114823119D01*
X177454523Y-114880571D01*
X177339618Y-114938023D01*
X176879999Y-114938023D01*
X178029047Y-114420952D02*
X178086499Y-114363500D01*
X178201404Y-114306047D01*
X178488666Y-114306047D01*
X178603571Y-114363500D01*
X178661023Y-114420952D01*
X178718476Y-114535857D01*
X178718476Y-114650761D01*
X178661023Y-114823119D01*
X177971595Y-115512547D01*
X178718476Y-115512547D01*
X179810071Y-114306047D02*
X179235547Y-114306047D01*
X179178095Y-114880571D01*
X179235547Y-114823119D01*
X179350452Y-114765666D01*
X179637714Y-114765666D01*
X179752618Y-114823119D01*
X179810071Y-114880571D01*
X179867523Y-114995476D01*
X179867523Y-115282738D01*
X179810071Y-115397642D01*
X179752618Y-115455095D01*
X179637714Y-115512547D01*
X179350452Y-115512547D01*
X179235547Y-115455095D01*
X179178095Y-115397642D01*
X177511976Y-116782547D02*
X176822547Y-116782547D01*
X177167261Y-116782547D02*
X177167261Y-115576047D01*
X177052357Y-115748404D01*
X176937452Y-115863309D01*
X176822547Y-115920761D01*
X178258857Y-115576047D02*
X178373761Y-115576047D01*
X178488666Y-115633500D01*
X178546118Y-115690952D01*
X178603571Y-115805857D01*
X178661023Y-116035666D01*
X178661023Y-116322928D01*
X178603571Y-116552738D01*
X178546118Y-116667642D01*
X178488666Y-116725095D01*
X178373761Y-116782547D01*
X178258857Y-116782547D01*
X178143952Y-116725095D01*
X178086499Y-116667642D01*
X178029047Y-116552738D01*
X177971595Y-116322928D01*
X177971595Y-116035666D01*
X178029047Y-115805857D01*
X178086499Y-115690952D01*
X178143952Y-115633500D01*
X178258857Y-115576047D01*
X179178095Y-116782547D02*
X179178095Y-115576047D01*
X179292999Y-116322928D02*
X179637714Y-116782547D01*
X179637714Y-115978214D02*
X179178095Y-116437833D01*
X130684428Y-107257547D02*
X130282261Y-106683023D01*
X129994999Y-107257547D02*
X129994999Y-106051047D01*
X130454618Y-106051047D01*
X130569523Y-106108500D01*
X130626976Y-106165952D01*
X130684428Y-106280857D01*
X130684428Y-106453214D01*
X130626976Y-106568119D01*
X130569523Y-106625571D01*
X130454618Y-106683023D01*
X129994999Y-106683023D01*
X131144047Y-106165952D02*
X131201499Y-106108500D01*
X131316404Y-106051047D01*
X131603666Y-106051047D01*
X131718571Y-106108500D01*
X131776023Y-106165952D01*
X131833476Y-106280857D01*
X131833476Y-106395761D01*
X131776023Y-106568119D01*
X131086595Y-107257547D01*
X131833476Y-107257547D01*
X132867618Y-106453214D02*
X132867618Y-107257547D01*
X132580357Y-105993595D02*
X132293095Y-106855380D01*
X133039976Y-106855380D01*
X130626976Y-111067547D02*
X129937547Y-111067547D01*
X130282261Y-111067547D02*
X130282261Y-109861047D01*
X130167357Y-110033404D01*
X130052452Y-110148309D01*
X129937547Y-110205761D01*
X131373857Y-109861047D02*
X131488761Y-109861047D01*
X131603666Y-109918500D01*
X131661118Y-109975952D01*
X131718571Y-110090857D01*
X131776023Y-110320666D01*
X131776023Y-110607928D01*
X131718571Y-110837738D01*
X131661118Y-110952642D01*
X131603666Y-111010095D01*
X131488761Y-111067547D01*
X131373857Y-111067547D01*
X131258952Y-111010095D01*
X131201499Y-110952642D01*
X131144047Y-110837738D01*
X131086595Y-110607928D01*
X131086595Y-110320666D01*
X131144047Y-110090857D01*
X131201499Y-109975952D01*
X131258952Y-109918500D01*
X131373857Y-109861047D01*
X132293095Y-111067547D02*
X132293095Y-109861047D01*
X132407999Y-110607928D02*
X132752714Y-111067547D01*
X132752714Y-110263214D02*
X132293095Y-110722833D01*
X195529357Y-115512547D02*
X195127190Y-114938023D01*
X194839928Y-115512547D02*
X194839928Y-114306047D01*
X195299547Y-114306047D01*
X195414452Y-114363500D01*
X195471904Y-114420952D01*
X195529357Y-114535857D01*
X195529357Y-114708214D01*
X195471904Y-114823119D01*
X195414452Y-114880571D01*
X195299547Y-114938023D01*
X194839928Y-114938023D01*
X195988976Y-114420952D02*
X196046428Y-114363500D01*
X196161333Y-114306047D01*
X196448595Y-114306047D01*
X196563500Y-114363500D01*
X196620952Y-114420952D01*
X196678404Y-114535857D01*
X196678404Y-114650761D01*
X196620952Y-114823119D01*
X195931523Y-115512547D01*
X196678404Y-115512547D01*
X197080571Y-114306047D02*
X197827452Y-114306047D01*
X197425285Y-114765666D01*
X197597642Y-114765666D01*
X197712547Y-114823119D01*
X197770000Y-114880571D01*
X197827452Y-114995476D01*
X197827452Y-115282738D01*
X197770000Y-115397642D01*
X197712547Y-115455095D01*
X197597642Y-115512547D01*
X197252928Y-115512547D01*
X197138023Y-115455095D01*
X197080571Y-115397642D01*
X195408404Y-117417547D02*
X194718976Y-117417547D01*
X195063690Y-117417547D02*
X195063690Y-116211047D01*
X194948785Y-116383404D01*
X194833881Y-116498309D01*
X194718976Y-116555761D01*
X196155285Y-116211047D02*
X196270190Y-116211047D01*
X196385095Y-116268500D01*
X196442547Y-116325952D01*
X196500000Y-116440857D01*
X196557452Y-116670666D01*
X196557452Y-116957928D01*
X196500000Y-117187738D01*
X196442547Y-117302642D01*
X196385095Y-117360095D01*
X196270190Y-117417547D01*
X196155285Y-117417547D01*
X196040381Y-117360095D01*
X195982928Y-117302642D01*
X195925476Y-117187738D01*
X195868023Y-116957928D01*
X195868023Y-116670666D01*
X195925476Y-116440857D01*
X195982928Y-116325952D01*
X196040381Y-116268500D01*
X196155285Y-116211047D01*
X158699357Y-97732547D02*
X158297190Y-97158023D01*
X158009928Y-97732547D02*
X158009928Y-96526047D01*
X158469547Y-96526047D01*
X158584452Y-96583500D01*
X158641904Y-96640952D01*
X158699357Y-96755857D01*
X158699357Y-96928214D01*
X158641904Y-97043119D01*
X158584452Y-97100571D01*
X158469547Y-97158023D01*
X158009928Y-97158023D01*
X159158976Y-96640952D02*
X159216428Y-96583500D01*
X159331333Y-96526047D01*
X159618595Y-96526047D01*
X159733500Y-96583500D01*
X159790952Y-96640952D01*
X159848404Y-96755857D01*
X159848404Y-96870761D01*
X159790952Y-97043119D01*
X159101523Y-97732547D01*
X159848404Y-97732547D01*
X160308023Y-96640952D02*
X160365476Y-96583500D01*
X160480381Y-96526047D01*
X160767642Y-96526047D01*
X160882547Y-96583500D01*
X160940000Y-96640952D01*
X160997452Y-96755857D01*
X160997452Y-96870761D01*
X160940000Y-97043119D01*
X160250571Y-97732547D01*
X160997452Y-97732547D01*
X159213404Y-99637547D02*
X158523976Y-99637547D01*
X158868690Y-99637547D02*
X158868690Y-98431047D01*
X158753785Y-98603404D01*
X158638881Y-98718309D01*
X158523976Y-98775761D01*
X159960285Y-98431047D02*
X160075190Y-98431047D01*
X160190095Y-98488500D01*
X160247547Y-98545952D01*
X160305000Y-98660857D01*
X160362452Y-98890666D01*
X160362452Y-99177928D01*
X160305000Y-99407738D01*
X160247547Y-99522642D01*
X160190095Y-99580095D01*
X160075190Y-99637547D01*
X159960285Y-99637547D01*
X159845381Y-99580095D01*
X159787928Y-99522642D01*
X159730476Y-99407738D01*
X159673023Y-99177928D01*
X159673023Y-98890666D01*
X159730476Y-98660857D01*
X159787928Y-98545952D01*
X159845381Y-98488500D01*
X159960285Y-98431047D01*
X191084357Y-110432547D02*
X190682190Y-109858023D01*
X190394928Y-110432547D02*
X190394928Y-109226047D01*
X190854547Y-109226047D01*
X190969452Y-109283500D01*
X191026904Y-109340952D01*
X191084357Y-109455857D01*
X191084357Y-109628214D01*
X191026904Y-109743119D01*
X190969452Y-109800571D01*
X190854547Y-109858023D01*
X190394928Y-109858023D01*
X191543976Y-109340952D02*
X191601428Y-109283500D01*
X191716333Y-109226047D01*
X192003595Y-109226047D01*
X192118500Y-109283500D01*
X192175952Y-109340952D01*
X192233404Y-109455857D01*
X192233404Y-109570761D01*
X192175952Y-109743119D01*
X191486523Y-110432547D01*
X192233404Y-110432547D01*
X193382452Y-110432547D02*
X192693023Y-110432547D01*
X193037738Y-110432547D02*
X193037738Y-109226047D01*
X192922833Y-109398404D01*
X192807928Y-109513309D01*
X192693023Y-109570761D01*
X190963404Y-112337547D02*
X190273976Y-112337547D01*
X190618690Y-112337547D02*
X190618690Y-111131047D01*
X190503785Y-111303404D01*
X190388881Y-111418309D01*
X190273976Y-111475761D01*
X191710285Y-111131047D02*
X191825190Y-111131047D01*
X191940095Y-111188500D01*
X191997547Y-111245952D01*
X192055000Y-111360857D01*
X192112452Y-111590666D01*
X192112452Y-111877928D01*
X192055000Y-112107738D01*
X191997547Y-112222642D01*
X191940095Y-112280095D01*
X191825190Y-112337547D01*
X191710285Y-112337547D01*
X191595381Y-112280095D01*
X191537928Y-112222642D01*
X191480476Y-112107738D01*
X191423023Y-111877928D01*
X191423023Y-111590666D01*
X191480476Y-111360857D01*
X191537928Y-111245952D01*
X191595381Y-111188500D01*
X191710285Y-111131047D01*
X201699428Y-111067547D02*
X201297261Y-110493023D01*
X201009999Y-111067547D02*
X201009999Y-109861047D01*
X201469618Y-109861047D01*
X201584523Y-109918500D01*
X201641976Y-109975952D01*
X201699428Y-110090857D01*
X201699428Y-110263214D01*
X201641976Y-110378119D01*
X201584523Y-110435571D01*
X201469618Y-110493023D01*
X201009999Y-110493023D01*
X202848476Y-111067547D02*
X202159047Y-111067547D01*
X202503761Y-111067547D02*
X202503761Y-109861047D01*
X202388857Y-110033404D01*
X202273952Y-110148309D01*
X202159047Y-110205761D01*
X203422999Y-111067547D02*
X203652809Y-111067547D01*
X203767714Y-111010095D01*
X203825166Y-110952642D01*
X203940071Y-110780285D01*
X203997523Y-110550476D01*
X203997523Y-110090857D01*
X203940071Y-109975952D01*
X203882618Y-109918500D01*
X203767714Y-109861047D01*
X203537904Y-109861047D01*
X203422999Y-109918500D01*
X203365547Y-109975952D01*
X203308095Y-110090857D01*
X203308095Y-110378119D01*
X203365547Y-110493023D01*
X203422999Y-110550476D01*
X203537904Y-110607928D01*
X203767714Y-110607928D01*
X203882618Y-110550476D01*
X203940071Y-110493023D01*
X203997523Y-110378119D01*
X198466976Y-113607547D02*
X197777547Y-113607547D01*
X198122261Y-113607547D02*
X198122261Y-112401047D01*
X198007357Y-112573404D01*
X197892452Y-112688309D01*
X197777547Y-112745761D01*
X199213857Y-112401047D02*
X199328761Y-112401047D01*
X199443666Y-112458500D01*
X199501118Y-112515952D01*
X199558571Y-112630857D01*
X199616023Y-112860666D01*
X199616023Y-113147928D01*
X199558571Y-113377738D01*
X199501118Y-113492642D01*
X199443666Y-113550095D01*
X199328761Y-113607547D01*
X199213857Y-113607547D01*
X199098952Y-113550095D01*
X199041499Y-113492642D01*
X198984047Y-113377738D01*
X198926595Y-113147928D01*
X198926595Y-112860666D01*
X198984047Y-112630857D01*
X199041499Y-112515952D01*
X199098952Y-112458500D01*
X199213857Y-112401047D01*
X200133095Y-113607547D02*
X200133095Y-112401047D01*
X200247999Y-113147928D02*
X200592714Y-113607547D01*
X200592714Y-112803214D02*
X200133095Y-113262833D01*
X165944428Y-120657547D02*
X165542261Y-120083023D01*
X165254999Y-120657547D02*
X165254999Y-119451047D01*
X165714618Y-119451047D01*
X165829523Y-119508500D01*
X165886976Y-119565952D01*
X165944428Y-119680857D01*
X165944428Y-119853214D01*
X165886976Y-119968119D01*
X165829523Y-120025571D01*
X165714618Y-120083023D01*
X165254999Y-120083023D01*
X167093476Y-120657547D02*
X166404047Y-120657547D01*
X166748761Y-120657547D02*
X166748761Y-119451047D01*
X166633857Y-119623404D01*
X166518952Y-119738309D01*
X166404047Y-119795761D01*
X167495642Y-119451047D02*
X168299976Y-119451047D01*
X167782904Y-120657547D01*
X165886976Y-124467547D02*
X165197547Y-124467547D01*
X165542261Y-124467547D02*
X165542261Y-123261047D01*
X165427357Y-123433404D01*
X165312452Y-123548309D01*
X165197547Y-123605761D01*
X166633857Y-123261047D02*
X166748761Y-123261047D01*
X166863666Y-123318500D01*
X166921118Y-123375952D01*
X166978571Y-123490857D01*
X167036023Y-123720666D01*
X167036023Y-124007928D01*
X166978571Y-124237738D01*
X166921118Y-124352642D01*
X166863666Y-124410095D01*
X166748761Y-124467547D01*
X166633857Y-124467547D01*
X166518952Y-124410095D01*
X166461499Y-124352642D01*
X166404047Y-124237738D01*
X166346595Y-124007928D01*
X166346595Y-123720666D01*
X166404047Y-123490857D01*
X166461499Y-123375952D01*
X166518952Y-123318500D01*
X166633857Y-123261047D01*
X167553095Y-124467547D02*
X167553095Y-123261047D01*
X167667999Y-124007928D02*
X168012714Y-124467547D01*
X168012714Y-123663214D02*
X167553095Y-124122833D01*
X165944428Y-111702547D02*
X165542261Y-111128023D01*
X165254999Y-111702547D02*
X165254999Y-110496047D01*
X165714618Y-110496047D01*
X165829523Y-110553500D01*
X165886976Y-110610952D01*
X165944428Y-110725857D01*
X165944428Y-110898214D01*
X165886976Y-111013119D01*
X165829523Y-111070571D01*
X165714618Y-111128023D01*
X165254999Y-111128023D01*
X167093476Y-111702547D02*
X166404047Y-111702547D01*
X166748761Y-111702547D02*
X166748761Y-110496047D01*
X166633857Y-110668404D01*
X166518952Y-110783309D01*
X166404047Y-110840761D01*
X168127618Y-110898214D02*
X168127618Y-111702547D01*
X167840357Y-110438595D02*
X167553095Y-111300380D01*
X168299976Y-111300380D01*
X165886976Y-115512547D02*
X165197547Y-115512547D01*
X165542261Y-115512547D02*
X165542261Y-114306047D01*
X165427357Y-114478404D01*
X165312452Y-114593309D01*
X165197547Y-114650761D01*
X166633857Y-114306047D02*
X166748761Y-114306047D01*
X166863666Y-114363500D01*
X166921118Y-114420952D01*
X166978571Y-114535857D01*
X167036023Y-114765666D01*
X167036023Y-115052928D01*
X166978571Y-115282738D01*
X166921118Y-115397642D01*
X166863666Y-115455095D01*
X166748761Y-115512547D01*
X166633857Y-115512547D01*
X166518952Y-115455095D01*
X166461499Y-115397642D01*
X166404047Y-115282738D01*
X166346595Y-115052928D01*
X166346595Y-114765666D01*
X166404047Y-114535857D01*
X166461499Y-114420952D01*
X166518952Y-114363500D01*
X166633857Y-114306047D01*
X167553095Y-115512547D02*
X167553095Y-114306047D01*
X167667999Y-115052928D02*
X168012714Y-115512547D01*
X168012714Y-114708214D02*
X167553095Y-115167833D01*
X181552547Y-115800571D02*
X180978023Y-116202738D01*
X181552547Y-116490000D02*
X180346047Y-116490000D01*
X180346047Y-116030381D01*
X180403500Y-115915476D01*
X180460952Y-115858023D01*
X180575857Y-115800571D01*
X180748214Y-115800571D01*
X180863119Y-115858023D01*
X180920571Y-115915476D01*
X180978023Y-116030381D01*
X180978023Y-116490000D01*
X181552547Y-114651523D02*
X181552547Y-115340952D01*
X181552547Y-114996238D02*
X180346047Y-114996238D01*
X180518404Y-115111142D01*
X180633309Y-115226047D01*
X180690761Y-115340952D01*
X180460952Y-114191904D02*
X180403500Y-114134452D01*
X180346047Y-114019547D01*
X180346047Y-113732285D01*
X180403500Y-113617381D01*
X180460952Y-113559928D01*
X180575857Y-113502476D01*
X180690761Y-113502476D01*
X180863119Y-113559928D01*
X181552547Y-114249357D01*
X181552547Y-113502476D01*
X183457547Y-115858023D02*
X183457547Y-116547452D01*
X183457547Y-116202738D02*
X182251047Y-116202738D01*
X182423404Y-116317642D01*
X182538309Y-116432547D01*
X182595761Y-116547452D01*
X182251047Y-115111142D02*
X182251047Y-114996238D01*
X182308500Y-114881333D01*
X182365952Y-114823881D01*
X182480857Y-114766428D01*
X182710666Y-114708976D01*
X182997928Y-114708976D01*
X183227738Y-114766428D01*
X183342642Y-114823881D01*
X183400095Y-114881333D01*
X183457547Y-114996238D01*
X183457547Y-115111142D01*
X183400095Y-115226047D01*
X183342642Y-115283500D01*
X183227738Y-115340952D01*
X182997928Y-115398404D01*
X182710666Y-115398404D01*
X182480857Y-115340952D01*
X182365952Y-115283500D01*
X182308500Y-115226047D01*
X182251047Y-115111142D01*
X183457547Y-114191904D02*
X182251047Y-114191904D01*
X182997928Y-114077000D02*
X183457547Y-113732285D01*
X182653214Y-113732285D02*
X183112833Y-114191904D01*
X177749357Y-121862547D02*
X177347190Y-121288023D01*
X177059928Y-121862547D02*
X177059928Y-120656047D01*
X177519547Y-120656047D01*
X177634452Y-120713500D01*
X177691904Y-120770952D01*
X177749357Y-120885857D01*
X177749357Y-121058214D01*
X177691904Y-121173119D01*
X177634452Y-121230571D01*
X177519547Y-121288023D01*
X177059928Y-121288023D01*
X178898404Y-121862547D02*
X178208976Y-121862547D01*
X178553690Y-121862547D02*
X178553690Y-120656047D01*
X178438785Y-120828404D01*
X178323881Y-120943309D01*
X178208976Y-121000761D01*
X180047452Y-121862547D02*
X179358023Y-121862547D01*
X179702738Y-121862547D02*
X179702738Y-120656047D01*
X179587833Y-120828404D01*
X179472928Y-120943309D01*
X179358023Y-121000761D01*
X177921714Y-123767547D02*
X177232285Y-123767547D01*
X177577000Y-123767547D02*
X177577000Y-122561047D01*
X177462095Y-122733404D01*
X177347190Y-122848309D01*
X177232285Y-122905761D01*
X178668595Y-122561047D02*
X178783500Y-122561047D01*
X178898404Y-122618500D01*
X178955857Y-122675952D01*
X179013309Y-122790857D01*
X179070762Y-123020666D01*
X179070762Y-123307928D01*
X179013309Y-123537738D01*
X178955857Y-123652642D01*
X178898404Y-123710095D01*
X178783500Y-123767547D01*
X178668595Y-123767547D01*
X178553690Y-123710095D01*
X178496238Y-123652642D01*
X178438785Y-123537738D01*
X178381333Y-123307928D01*
X178381333Y-123020666D01*
X178438785Y-122790857D01*
X178496238Y-122675952D01*
X178553690Y-122618500D01*
X178668595Y-122561047D01*
X179587833Y-123767547D02*
X179587833Y-122561047D01*
X179702738Y-123307928D02*
X180047452Y-123767547D01*
X180047452Y-122963214D02*
X179587833Y-123422833D01*
X145819428Y-97732547D02*
X145417261Y-97158023D01*
X145129999Y-97732547D02*
X145129999Y-96526047D01*
X145589618Y-96526047D01*
X145704523Y-96583500D01*
X145761976Y-96640952D01*
X145819428Y-96755857D01*
X145819428Y-96928214D01*
X145761976Y-97043119D01*
X145704523Y-97100571D01*
X145589618Y-97158023D01*
X145129999Y-97158023D01*
X146968476Y-97732547D02*
X146279047Y-97732547D01*
X146623761Y-97732547D02*
X146623761Y-96526047D01*
X146508857Y-96698404D01*
X146393952Y-96813309D01*
X146279047Y-96870761D01*
X147715357Y-96526047D02*
X147830261Y-96526047D01*
X147945166Y-96583500D01*
X148002618Y-96640952D01*
X148060071Y-96755857D01*
X148117523Y-96985666D01*
X148117523Y-97272928D01*
X148060071Y-97502738D01*
X148002618Y-97617642D01*
X147945166Y-97675095D01*
X147830261Y-97732547D01*
X147715357Y-97732547D01*
X147600452Y-97675095D01*
X147542999Y-97617642D01*
X147485547Y-97502738D01*
X147428095Y-97272928D01*
X147428095Y-96985666D01*
X147485547Y-96755857D01*
X147542999Y-96640952D01*
X147600452Y-96583500D01*
X147715357Y-96526047D01*
X145761976Y-99637547D02*
X145072547Y-99637547D01*
X145417261Y-99637547D02*
X145417261Y-98431047D01*
X145302357Y-98603404D01*
X145187452Y-98718309D01*
X145072547Y-98775761D01*
X146508857Y-98431047D02*
X146623761Y-98431047D01*
X146738666Y-98488500D01*
X146796118Y-98545952D01*
X146853571Y-98660857D01*
X146911023Y-98890666D01*
X146911023Y-99177928D01*
X146853571Y-99407738D01*
X146796118Y-99522642D01*
X146738666Y-99580095D01*
X146623761Y-99637547D01*
X146508857Y-99637547D01*
X146393952Y-99580095D01*
X146336499Y-99522642D01*
X146279047Y-99407738D01*
X146221595Y-99177928D01*
X146221595Y-98890666D01*
X146279047Y-98660857D01*
X146336499Y-98545952D01*
X146393952Y-98488500D01*
X146508857Y-98431047D01*
X130579428Y-100272547D02*
X130177261Y-99698023D01*
X129889999Y-100272547D02*
X129889999Y-99066047D01*
X130349618Y-99066047D01*
X130464523Y-99123500D01*
X130521976Y-99180952D01*
X130579428Y-99295857D01*
X130579428Y-99468214D01*
X130521976Y-99583119D01*
X130464523Y-99640571D01*
X130349618Y-99698023D01*
X129889999Y-99698023D01*
X131153952Y-100272547D02*
X131383761Y-100272547D01*
X131498666Y-100215095D01*
X131556118Y-100157642D01*
X131671023Y-99985285D01*
X131728476Y-99755476D01*
X131728476Y-99295857D01*
X131671023Y-99180952D01*
X131613571Y-99123500D01*
X131498666Y-99066047D01*
X131268857Y-99066047D01*
X131153952Y-99123500D01*
X131096499Y-99180952D01*
X131039047Y-99295857D01*
X131039047Y-99583119D01*
X131096499Y-99698023D01*
X131153952Y-99755476D01*
X131268857Y-99812928D01*
X131498666Y-99812928D01*
X131613571Y-99755476D01*
X131671023Y-99698023D01*
X131728476Y-99583119D01*
X130521976Y-104082547D02*
X129832547Y-104082547D01*
X130177261Y-104082547D02*
X130177261Y-102876047D01*
X130062357Y-103048404D01*
X129947452Y-103163309D01*
X129832547Y-103220761D01*
X131268857Y-102876047D02*
X131383761Y-102876047D01*
X131498666Y-102933500D01*
X131556118Y-102990952D01*
X131613571Y-103105857D01*
X131671023Y-103335666D01*
X131671023Y-103622928D01*
X131613571Y-103852738D01*
X131556118Y-103967642D01*
X131498666Y-104025095D01*
X131383761Y-104082547D01*
X131268857Y-104082547D01*
X131153952Y-104025095D01*
X131096499Y-103967642D01*
X131039047Y-103852738D01*
X130981595Y-103622928D01*
X130981595Y-103335666D01*
X131039047Y-103105857D01*
X131096499Y-102990952D01*
X131153952Y-102933500D01*
X131268857Y-102876047D01*
X136929428Y-100272547D02*
X136527261Y-99698023D01*
X136239999Y-100272547D02*
X136239999Y-99066047D01*
X136699618Y-99066047D01*
X136814523Y-99123500D01*
X136871976Y-99180952D01*
X136929428Y-99295857D01*
X136929428Y-99468214D01*
X136871976Y-99583119D01*
X136814523Y-99640571D01*
X136699618Y-99698023D01*
X136239999Y-99698023D01*
X137618857Y-99583119D02*
X137503952Y-99525666D01*
X137446499Y-99468214D01*
X137389047Y-99353309D01*
X137389047Y-99295857D01*
X137446499Y-99180952D01*
X137503952Y-99123500D01*
X137618857Y-99066047D01*
X137848666Y-99066047D01*
X137963571Y-99123500D01*
X138021023Y-99180952D01*
X138078476Y-99295857D01*
X138078476Y-99353309D01*
X138021023Y-99468214D01*
X137963571Y-99525666D01*
X137848666Y-99583119D01*
X137618857Y-99583119D01*
X137503952Y-99640571D01*
X137446499Y-99698023D01*
X137389047Y-99812928D01*
X137389047Y-100042738D01*
X137446499Y-100157642D01*
X137503952Y-100215095D01*
X137618857Y-100272547D01*
X137848666Y-100272547D01*
X137963571Y-100215095D01*
X138021023Y-100157642D01*
X138078476Y-100042738D01*
X138078476Y-99812928D01*
X138021023Y-99698023D01*
X137963571Y-99640571D01*
X137848666Y-99583119D01*
X136871976Y-104082547D02*
X136182547Y-104082547D01*
X136527261Y-104082547D02*
X136527261Y-102876047D01*
X136412357Y-103048404D01*
X136297452Y-103163309D01*
X136182547Y-103220761D01*
X137618857Y-102876047D02*
X137733761Y-102876047D01*
X137848666Y-102933500D01*
X137906118Y-102990952D01*
X137963571Y-103105857D01*
X138021023Y-103335666D01*
X138021023Y-103622928D01*
X137963571Y-103852738D01*
X137906118Y-103967642D01*
X137848666Y-104025095D01*
X137733761Y-104082547D01*
X137618857Y-104082547D01*
X137503952Y-104025095D01*
X137446499Y-103967642D01*
X137389047Y-103852738D01*
X137331595Y-103622928D01*
X137331595Y-103335666D01*
X137389047Y-103105857D01*
X137446499Y-102990952D01*
X137503952Y-102933500D01*
X137618857Y-102876047D01*
X107084428Y-97732547D02*
X106682261Y-97158023D01*
X106394999Y-97732547D02*
X106394999Y-96526047D01*
X106854618Y-96526047D01*
X106969523Y-96583500D01*
X107026976Y-96640952D01*
X107084428Y-96755857D01*
X107084428Y-96928214D01*
X107026976Y-97043119D01*
X106969523Y-97100571D01*
X106854618Y-97158023D01*
X106394999Y-97158023D01*
X108118571Y-96526047D02*
X107888761Y-96526047D01*
X107773857Y-96583500D01*
X107716404Y-96640952D01*
X107601499Y-96813309D01*
X107544047Y-97043119D01*
X107544047Y-97502738D01*
X107601499Y-97617642D01*
X107658952Y-97675095D01*
X107773857Y-97732547D01*
X108003666Y-97732547D01*
X108118571Y-97675095D01*
X108176023Y-97617642D01*
X108233476Y-97502738D01*
X108233476Y-97215476D01*
X108176023Y-97100571D01*
X108118571Y-97043119D01*
X108003666Y-96985666D01*
X107773857Y-96985666D01*
X107658952Y-97043119D01*
X107601499Y-97100571D01*
X107544047Y-97215476D01*
X106391976Y-99637547D02*
X105702547Y-99637547D01*
X106047261Y-99637547D02*
X106047261Y-98431047D01*
X105932357Y-98603404D01*
X105817452Y-98718309D01*
X105702547Y-98775761D01*
X107138857Y-98431047D02*
X107253761Y-98431047D01*
X107368666Y-98488500D01*
X107426118Y-98545952D01*
X107483571Y-98660857D01*
X107541023Y-98890666D01*
X107541023Y-99177928D01*
X107483571Y-99407738D01*
X107426118Y-99522642D01*
X107368666Y-99580095D01*
X107253761Y-99637547D01*
X107138857Y-99637547D01*
X107023952Y-99580095D01*
X106966499Y-99522642D01*
X106909047Y-99407738D01*
X106851595Y-99177928D01*
X106851595Y-98890666D01*
X106909047Y-98660857D01*
X106966499Y-98545952D01*
X107023952Y-98488500D01*
X107138857Y-98431047D01*
X108058095Y-99637547D02*
X108058095Y-98431047D01*
X108172999Y-99177928D02*
X108517714Y-99637547D01*
X108517714Y-98833214D02*
X108058095Y-99292833D01*
X105814428Y-108527547D02*
X105412261Y-107953023D01*
X105124999Y-108527547D02*
X105124999Y-107321047D01*
X105584618Y-107321047D01*
X105699523Y-107378500D01*
X105756976Y-107435952D01*
X105814428Y-107550857D01*
X105814428Y-107723214D01*
X105756976Y-107838119D01*
X105699523Y-107895571D01*
X105584618Y-107953023D01*
X105124999Y-107953023D01*
X106906023Y-107321047D02*
X106331499Y-107321047D01*
X106274047Y-107895571D01*
X106331499Y-107838119D01*
X106446404Y-107780666D01*
X106733666Y-107780666D01*
X106848571Y-107838119D01*
X106906023Y-107895571D01*
X106963476Y-108010476D01*
X106963476Y-108297738D01*
X106906023Y-108412642D01*
X106848571Y-108470095D01*
X106733666Y-108527547D01*
X106446404Y-108527547D01*
X106331499Y-108470095D01*
X106274047Y-108412642D01*
X105121976Y-110432547D02*
X104432547Y-110432547D01*
X104777261Y-110432547D02*
X104777261Y-109226047D01*
X104662357Y-109398404D01*
X104547452Y-109513309D01*
X104432547Y-109570761D01*
X105868857Y-109226047D02*
X105983761Y-109226047D01*
X106098666Y-109283500D01*
X106156118Y-109340952D01*
X106213571Y-109455857D01*
X106271023Y-109685666D01*
X106271023Y-109972928D01*
X106213571Y-110202738D01*
X106156118Y-110317642D01*
X106098666Y-110375095D01*
X105983761Y-110432547D01*
X105868857Y-110432547D01*
X105753952Y-110375095D01*
X105696499Y-110317642D01*
X105639047Y-110202738D01*
X105581595Y-109972928D01*
X105581595Y-109685666D01*
X105639047Y-109455857D01*
X105696499Y-109340952D01*
X105753952Y-109283500D01*
X105868857Y-109226047D01*
X106788095Y-110432547D02*
X106788095Y-109226047D01*
X106902999Y-109972928D02*
X107247714Y-110432547D01*
X107247714Y-109628214D02*
X106788095Y-110087833D01*
X112164428Y-113607547D02*
X111762261Y-113033023D01*
X111474999Y-113607547D02*
X111474999Y-112401047D01*
X111934618Y-112401047D01*
X112049523Y-112458500D01*
X112106976Y-112515952D01*
X112164428Y-112630857D01*
X112164428Y-112803214D01*
X112106976Y-112918119D01*
X112049523Y-112975571D01*
X111934618Y-113033023D01*
X111474999Y-113033023D01*
X113198571Y-112803214D02*
X113198571Y-113607547D01*
X112911309Y-112343595D02*
X112624047Y-113205380D01*
X113370928Y-113205380D01*
X112106976Y-115512547D02*
X111417547Y-115512547D01*
X111762261Y-115512547D02*
X111762261Y-114306047D01*
X111647357Y-114478404D01*
X111532452Y-114593309D01*
X111417547Y-114650761D01*
X112853857Y-114306047D02*
X112968761Y-114306047D01*
X113083666Y-114363500D01*
X113141118Y-114420952D01*
X113198571Y-114535857D01*
X113256023Y-114765666D01*
X113256023Y-115052928D01*
X113198571Y-115282738D01*
X113141118Y-115397642D01*
X113083666Y-115455095D01*
X112968761Y-115512547D01*
X112853857Y-115512547D01*
X112738952Y-115455095D01*
X112681499Y-115397642D01*
X112624047Y-115282738D01*
X112566595Y-115052928D01*
X112566595Y-114765666D01*
X112624047Y-114535857D01*
X112681499Y-114420952D01*
X112738952Y-114363500D01*
X112853857Y-114306047D01*
X113773095Y-115512547D02*
X113773095Y-114306047D01*
X113887999Y-115052928D02*
X114232714Y-115512547D01*
X114232714Y-114708214D02*
X113773095Y-115167833D01*
X113434428Y-119322547D02*
X113032261Y-118748023D01*
X112744999Y-119322547D02*
X112744999Y-118116047D01*
X113204618Y-118116047D01*
X113319523Y-118173500D01*
X113376976Y-118230952D01*
X113434428Y-118345857D01*
X113434428Y-118518214D01*
X113376976Y-118633119D01*
X113319523Y-118690571D01*
X113204618Y-118748023D01*
X112744999Y-118748023D01*
X114583476Y-119322547D02*
X113894047Y-119322547D01*
X114238761Y-119322547D02*
X114238761Y-118116047D01*
X114123857Y-118288404D01*
X114008952Y-118403309D01*
X113894047Y-118460761D01*
X114326976Y-123132547D02*
X113637547Y-123132547D01*
X113982261Y-123132547D02*
X113982261Y-121926047D01*
X113867357Y-122098404D01*
X113752452Y-122213309D01*
X113637547Y-122270761D01*
X115073857Y-121926047D02*
X115188761Y-121926047D01*
X115303666Y-121983500D01*
X115361118Y-122040952D01*
X115418571Y-122155857D01*
X115476023Y-122385666D01*
X115476023Y-122672928D01*
X115418571Y-122902738D01*
X115361118Y-123017642D01*
X115303666Y-123075095D01*
X115188761Y-123132547D01*
X115073857Y-123132547D01*
X114958952Y-123075095D01*
X114901499Y-123017642D01*
X114844047Y-122902738D01*
X114786595Y-122672928D01*
X114786595Y-122385666D01*
X114844047Y-122155857D01*
X114901499Y-122040952D01*
X114958952Y-121983500D01*
X115073857Y-121926047D01*
X115993095Y-123132547D02*
X115993095Y-121926047D01*
X116107999Y-122672928D02*
X116452714Y-123132547D01*
X116452714Y-122328214D02*
X115993095Y-122787833D01*
X129414428Y-114192642D02*
X129356976Y-114250095D01*
X129184618Y-114307547D01*
X129069714Y-114307547D01*
X128897357Y-114250095D01*
X128782452Y-114135190D01*
X128724999Y-114020285D01*
X128667547Y-113790476D01*
X128667547Y-113618119D01*
X128724999Y-113388309D01*
X128782452Y-113273404D01*
X128897357Y-113158500D01*
X129069714Y-113101047D01*
X129184618Y-113101047D01*
X129356976Y-113158500D01*
X129414428Y-113215952D01*
X130563476Y-114307547D02*
X129874047Y-114307547D01*
X130218761Y-114307547D02*
X130218761Y-113101047D01*
X130103857Y-113273404D01*
X129988952Y-113388309D01*
X129874047Y-113445761D01*
X131597618Y-113503214D02*
X131597618Y-114307547D01*
X131310357Y-113043595D02*
X131023095Y-113905380D01*
X131769976Y-113905380D01*
X129356976Y-118117547D02*
X128667547Y-118117547D01*
X129012261Y-118117547D02*
X129012261Y-116911047D01*
X128897357Y-117083404D01*
X128782452Y-117198309D01*
X128667547Y-117255761D01*
X130103857Y-116911047D02*
X130218761Y-116911047D01*
X130333666Y-116968500D01*
X130391118Y-117025952D01*
X130448571Y-117140857D01*
X130506023Y-117370666D01*
X130506023Y-117657928D01*
X130448571Y-117887738D01*
X130391118Y-118002642D01*
X130333666Y-118060095D01*
X130218761Y-118117547D01*
X130103857Y-118117547D01*
X129988952Y-118060095D01*
X129931499Y-118002642D01*
X129874047Y-117887738D01*
X129816595Y-117657928D01*
X129816595Y-117370666D01*
X129874047Y-117140857D01*
X129931499Y-117025952D01*
X129988952Y-116968500D01*
X130103857Y-116911047D01*
X131023095Y-117313214D02*
X131023095Y-118117547D01*
X131023095Y-117428119D02*
X131080547Y-117370666D01*
X131195452Y-117313214D01*
X131367809Y-117313214D01*
X131482714Y-117370666D01*
X131540166Y-117485571D01*
X131540166Y-118117547D01*
X132516857Y-117485571D02*
X132114690Y-117485571D01*
X132114690Y-118117547D02*
X132114690Y-116911047D01*
X132689214Y-116911047D01*
X136167428Y-107269642D02*
X136109976Y-107327095D01*
X135937618Y-107384547D01*
X135822714Y-107384547D01*
X135650357Y-107327095D01*
X135535452Y-107212190D01*
X135477999Y-107097285D01*
X135420547Y-106867476D01*
X135420547Y-106695119D01*
X135477999Y-106465309D01*
X135535452Y-106350404D01*
X135650357Y-106235500D01*
X135822714Y-106178047D01*
X135937618Y-106178047D01*
X136109976Y-106235500D01*
X136167428Y-106292952D01*
X137316476Y-107384547D02*
X136627047Y-107384547D01*
X136971761Y-107384547D02*
X136971761Y-106178047D01*
X136856857Y-106350404D01*
X136741952Y-106465309D01*
X136627047Y-106522761D01*
X137718642Y-106178047D02*
X138465523Y-106178047D01*
X138063357Y-106637666D01*
X138235714Y-106637666D01*
X138350618Y-106695119D01*
X138408071Y-106752571D01*
X138465523Y-106867476D01*
X138465523Y-107154738D01*
X138408071Y-107269642D01*
X138350618Y-107327095D01*
X138235714Y-107384547D01*
X137890999Y-107384547D01*
X137776095Y-107327095D01*
X137718642Y-107269642D01*
X136109976Y-111194547D02*
X135420547Y-111194547D01*
X135765261Y-111194547D02*
X135765261Y-109988047D01*
X135650357Y-110160404D01*
X135535452Y-110275309D01*
X135420547Y-110332761D01*
X136856857Y-109988047D02*
X136971761Y-109988047D01*
X137086666Y-110045500D01*
X137144118Y-110102952D01*
X137201571Y-110217857D01*
X137259023Y-110447666D01*
X137259023Y-110734928D01*
X137201571Y-110964738D01*
X137144118Y-111079642D01*
X137086666Y-111137095D01*
X136971761Y-111194547D01*
X136856857Y-111194547D01*
X136741952Y-111137095D01*
X136684499Y-111079642D01*
X136627047Y-110964738D01*
X136569595Y-110734928D01*
X136569595Y-110447666D01*
X136627047Y-110217857D01*
X136684499Y-110102952D01*
X136741952Y-110045500D01*
X136856857Y-109988047D01*
X137776095Y-110390214D02*
X137776095Y-111194547D01*
X137776095Y-110505119D02*
X137833547Y-110447666D01*
X137948452Y-110390214D01*
X138120809Y-110390214D01*
X138235714Y-110447666D01*
X138293166Y-110562571D01*
X138293166Y-111194547D01*
X139269857Y-110562571D02*
X138867690Y-110562571D01*
X138867690Y-111194547D02*
X138867690Y-109988047D01*
X139442214Y-109988047D01*
X150322642Y-109450571D02*
X150380095Y-109508023D01*
X150437547Y-109680381D01*
X150437547Y-109795285D01*
X150380095Y-109967642D01*
X150265190Y-110082547D01*
X150150285Y-110140000D01*
X149920476Y-110197452D01*
X149748119Y-110197452D01*
X149518309Y-110140000D01*
X149403404Y-110082547D01*
X149288500Y-109967642D01*
X149231047Y-109795285D01*
X149231047Y-109680381D01*
X149288500Y-109508023D01*
X149345952Y-109450571D01*
X150437547Y-108301523D02*
X150437547Y-108990952D01*
X150437547Y-108646238D02*
X149231047Y-108646238D01*
X149403404Y-108761142D01*
X149518309Y-108876047D01*
X149575761Y-108990952D01*
X149345952Y-107841904D02*
X149288500Y-107784452D01*
X149231047Y-107669547D01*
X149231047Y-107382285D01*
X149288500Y-107267381D01*
X149345952Y-107209928D01*
X149460857Y-107152476D01*
X149575761Y-107152476D01*
X149748119Y-107209928D01*
X150437547Y-107899357D01*
X150437547Y-107152476D01*
X151707547Y-110143023D02*
X151707547Y-110832452D01*
X151707547Y-110487738D02*
X150501047Y-110487738D01*
X150673404Y-110602642D01*
X150788309Y-110717547D01*
X150845761Y-110832452D01*
X150501047Y-109396142D02*
X150501047Y-109281238D01*
X150558500Y-109166333D01*
X150615952Y-109108881D01*
X150730857Y-109051428D01*
X150960666Y-108993976D01*
X151247928Y-108993976D01*
X151477738Y-109051428D01*
X151592642Y-109108881D01*
X151650095Y-109166333D01*
X151707547Y-109281238D01*
X151707547Y-109396142D01*
X151650095Y-109511047D01*
X151592642Y-109568500D01*
X151477738Y-109625952D01*
X151247928Y-109683404D01*
X150960666Y-109683404D01*
X150730857Y-109625952D01*
X150615952Y-109568500D01*
X150558500Y-109511047D01*
X150501047Y-109396142D01*
X150903214Y-108476904D02*
X151707547Y-108476904D01*
X151018119Y-108476904D02*
X150960666Y-108419452D01*
X150903214Y-108304547D01*
X150903214Y-108132190D01*
X150960666Y-108017285D01*
X151075571Y-107959833D01*
X151707547Y-107959833D01*
X151075571Y-106983142D02*
X151075571Y-107385309D01*
X151707547Y-107385309D02*
X150501047Y-107385309D01*
X150501047Y-106810785D01*
X146222357Y-107084428D02*
X146164904Y-107026976D01*
X146107452Y-106854618D01*
X146107452Y-106739714D01*
X146164904Y-106567357D01*
X146279809Y-106452452D01*
X146394714Y-106394999D01*
X146624523Y-106337547D01*
X146796880Y-106337547D01*
X147026690Y-106394999D01*
X147141595Y-106452452D01*
X147256500Y-106567357D01*
X147313952Y-106739714D01*
X147313952Y-106854618D01*
X147256500Y-107026976D01*
X147199047Y-107084428D01*
X147313952Y-107486595D02*
X147313952Y-108233476D01*
X146854333Y-107831309D01*
X146854333Y-108003666D01*
X146796880Y-108118571D01*
X146739428Y-108176023D01*
X146624523Y-108233476D01*
X146337261Y-108233476D01*
X146222357Y-108176023D01*
X146164904Y-108118571D01*
X146107452Y-108003666D01*
X146107452Y-107658952D01*
X146164904Y-107544047D01*
X146222357Y-107486595D01*
X144202452Y-107661976D02*
X144202452Y-106972547D01*
X144202452Y-107317261D02*
X145408952Y-107317261D01*
X145236595Y-107202357D01*
X145121690Y-107087452D01*
X145064238Y-106972547D01*
X145408952Y-108408857D02*
X145408952Y-108523761D01*
X145351500Y-108638666D01*
X145294047Y-108696118D01*
X145179142Y-108753571D01*
X144949333Y-108811023D01*
X144662071Y-108811023D01*
X144432261Y-108753571D01*
X144317357Y-108696118D01*
X144259904Y-108638666D01*
X144202452Y-108523761D01*
X144202452Y-108408857D01*
X144259904Y-108293952D01*
X144317357Y-108236499D01*
X144432261Y-108179047D01*
X144662071Y-108121595D01*
X144949333Y-108121595D01*
X145179142Y-108179047D01*
X145294047Y-108236499D01*
X145351500Y-108293952D01*
X145408952Y-108408857D01*
X145006785Y-109328095D02*
X144202452Y-109328095D01*
X144891880Y-109328095D02*
X144949333Y-109385547D01*
X145006785Y-109500452D01*
X145006785Y-109672809D01*
X144949333Y-109787714D01*
X144834428Y-109845166D01*
X144202452Y-109845166D01*
X144834428Y-110821857D02*
X144834428Y-110419690D01*
X144202452Y-110419690D02*
X145408952Y-110419690D01*
X145408952Y-110994214D01*
X120187357Y-119149428D02*
X120129904Y-119091976D01*
X120072452Y-118919618D01*
X120072452Y-118804714D01*
X120129904Y-118632357D01*
X120244809Y-118517452D01*
X120359714Y-118459999D01*
X120589523Y-118402547D01*
X120761880Y-118402547D01*
X120991690Y-118459999D01*
X121106595Y-118517452D01*
X121221500Y-118632357D01*
X121278952Y-118804714D01*
X121278952Y-118919618D01*
X121221500Y-119091976D01*
X121164047Y-119149428D01*
X121164047Y-119609047D02*
X121221500Y-119666499D01*
X121278952Y-119781404D01*
X121278952Y-120068666D01*
X121221500Y-120183571D01*
X121164047Y-120241023D01*
X121049142Y-120298476D01*
X120934238Y-120298476D01*
X120761880Y-120241023D01*
X120072452Y-119551595D01*
X120072452Y-120298476D01*
X118167452Y-119091976D02*
X118167452Y-118402547D01*
X118167452Y-118747261D02*
X119373952Y-118747261D01*
X119201595Y-118632357D01*
X119086690Y-118517452D01*
X119029238Y-118402547D01*
X119373952Y-119838857D02*
X119373952Y-119953761D01*
X119316500Y-120068666D01*
X119259047Y-120126118D01*
X119144142Y-120183571D01*
X118914333Y-120241023D01*
X118627071Y-120241023D01*
X118397261Y-120183571D01*
X118282357Y-120126118D01*
X118224904Y-120068666D01*
X118167452Y-119953761D01*
X118167452Y-119838857D01*
X118224904Y-119723952D01*
X118282357Y-119666499D01*
X118397261Y-119609047D01*
X118627071Y-119551595D01*
X118914333Y-119551595D01*
X119144142Y-119609047D01*
X119259047Y-119666499D01*
X119316500Y-119723952D01*
X119373952Y-119838857D01*
X118971785Y-120758095D02*
X118167452Y-120758095D01*
X118856880Y-120758095D02*
X118914333Y-120815547D01*
X118971785Y-120930452D01*
X118971785Y-121102809D01*
X118914333Y-121217714D01*
X118799428Y-121275166D01*
X118167452Y-121275166D01*
X118799428Y-122251857D02*
X118799428Y-121849690D01*
X118167452Y-121849690D02*
X119373952Y-121849690D01*
X119373952Y-122424214D01*
X116668404Y-124922642D02*
X116610952Y-124980095D01*
X116438595Y-125037547D01*
X116323690Y-125037547D01*
X116151333Y-124980095D01*
X116036428Y-124865190D01*
X115978976Y-124750285D01*
X115921523Y-124520476D01*
X115921523Y-124348119D01*
X115978976Y-124118309D01*
X116036428Y-124003404D01*
X116151333Y-123888500D01*
X116323690Y-123831047D01*
X116438595Y-123831047D01*
X116610952Y-123888500D01*
X116668404Y-123945952D01*
X117817452Y-125037547D02*
X117128023Y-125037547D01*
X117472738Y-125037547D02*
X117472738Y-123831047D01*
X117357833Y-124003404D01*
X117242928Y-124118309D01*
X117128023Y-124175761D01*
X116447666Y-126942547D02*
X115758238Y-126942547D01*
X116102952Y-126942547D02*
X116102952Y-125736047D01*
X115988047Y-125908404D01*
X115873142Y-126023309D01*
X115758238Y-126080761D01*
X117194547Y-125736047D02*
X117309452Y-125736047D01*
X117424357Y-125793500D01*
X117481809Y-125850952D01*
X117539262Y-125965857D01*
X117596714Y-126195666D01*
X117596714Y-126482928D01*
X117539262Y-126712738D01*
X117481809Y-126827642D01*
X117424357Y-126885095D01*
X117309452Y-126942547D01*
X117194547Y-126942547D01*
X117079642Y-126885095D01*
X117022190Y-126827642D01*
X116964738Y-126712738D01*
X116907285Y-126482928D01*
X116907285Y-126195666D01*
X116964738Y-125965857D01*
X117022190Y-125850952D01*
X117079642Y-125793500D01*
X117194547Y-125736047D01*
X118113785Y-126138214D02*
X118113785Y-126942547D01*
X118113785Y-126253119D02*
X118171238Y-126195666D01*
X118286142Y-126138214D01*
X118458500Y-126138214D01*
X118573404Y-126195666D01*
X118630857Y-126310571D01*
X118630857Y-126942547D01*
X119607547Y-126310571D02*
X119205381Y-126310571D01*
X119205381Y-126942547D02*
X119205381Y-125736047D01*
X119779904Y-125736047D01*
M02*
