G04 #@! TF.GenerationSoftware,KiCad,Pcbnew,(5.99.0-237-g608461437)*
G04 #@! TF.CreationDate,2019-11-16T14:33:28+00:00*
G04 #@! TF.ProjectId,knobs,6b6e6f62-732e-46b6-9963-61645f706362,rev?*
G04 #@! TF.SameCoordinates,Original*
G04 #@! TF.FileFunction,Paste,Bot*
G04 #@! TF.FilePolarity,Positive*
%FSLAX46Y46*%
G04 Gerber Fmt 4.6, Leading zero omitted, Abs format (unit mm)*
G04 Created by KiCad (PCBNEW (5.99.0-237-g608461437)) date 2019-11-16 14:33:28*
%MOMM*%
%LPD*%
G04 APERTURE LIST*
%ADD10C,0.100000*%
%ADD11C,1.100000*%
%ADD12R,1.150000X0.750000*%
%ADD13R,0.950000X1.400000*%
%ADD14R,1.500000X1.300000*%
%ADD15R,1.300000X1.500000*%
%ADD16C,0.950000*%
%ADD17R,3.683000X1.270000*%
%ADD18R,1.500000X3.400000*%
%ADD19R,1.000000X3.500000*%
%ADD20C,1.600000*%
%ADD21C,1.800000*%
%ADD22C,1.900000*%
%ADD23C,0.400000*%
%ADD24C,0.800000*%
%ADD25C,0.600000*%
%ADD26C,1.000000*%
%ADD27R,1.800000X1.600000*%
G04 APERTURE END LIST*
D10*
G36*
X152431000Y-111119000D02*
G01*
X151096000Y-111119000D01*
X151096000Y-109784000D01*
X152431000Y-109784000D01*
X152431000Y-111119000D01*
G37*
G36*
X152431000Y-114519000D02*
G01*
X151096000Y-114519000D01*
X151096000Y-113184000D01*
X152431000Y-113184000D01*
X152431000Y-114519000D01*
G37*
G36*
X152431000Y-112819000D02*
G01*
X151096000Y-112819000D01*
X151096000Y-111484000D01*
X152431000Y-111484000D01*
X152431000Y-112819000D01*
G37*
G36*
X150731000Y-111119000D02*
G01*
X149396000Y-111119000D01*
X149396000Y-109784000D01*
X150731000Y-109784000D01*
X150731000Y-111119000D01*
G37*
G36*
X149031000Y-111119000D02*
G01*
X147696000Y-111119000D01*
X147696000Y-109784000D01*
X149031000Y-109784000D01*
X149031000Y-111119000D01*
G37*
G36*
X149031000Y-112819000D02*
G01*
X147696000Y-112819000D01*
X147696000Y-111484000D01*
X149031000Y-111484000D01*
X149031000Y-112819000D01*
G37*
G36*
X149031000Y-114519000D02*
G01*
X147696000Y-114519000D01*
X147696000Y-113184000D01*
X149031000Y-113184000D01*
X149031000Y-114519000D01*
G37*
G36*
X150731000Y-114519000D02*
G01*
X149396000Y-114519000D01*
X149396000Y-113184000D01*
X150731000Y-113184000D01*
X150731000Y-114519000D01*
G37*
G36*
X150731000Y-112819000D02*
G01*
X149396000Y-112819000D01*
X149396000Y-111484000D01*
X150731000Y-111484000D01*
X150731000Y-112819000D01*
G37*
G36*
X153891000Y-109489000D02*
G01*
X153251000Y-109489000D01*
X153166000Y-109404000D01*
X153251000Y-109319000D01*
X153891000Y-109319000D01*
X153891000Y-109489000D01*
G37*
G36*
X153891000Y-109989000D02*
G01*
X153251000Y-109989000D01*
X153166000Y-109904000D01*
X153251000Y-109819000D01*
X153891000Y-109819000D01*
X153891000Y-109989000D01*
G37*
G36*
X153891000Y-110489000D02*
G01*
X153251000Y-110489000D01*
X153166000Y-110404000D01*
X153251000Y-110319000D01*
X153891000Y-110319000D01*
X153891000Y-110489000D01*
G37*
G36*
X153891000Y-110989000D02*
G01*
X153251000Y-110989000D01*
X153166000Y-110904000D01*
X153251000Y-110819000D01*
X153891000Y-110819000D01*
X153891000Y-110989000D01*
G37*
G36*
X153891000Y-111489000D02*
G01*
X153251000Y-111489000D01*
X153166000Y-111404000D01*
X153251000Y-111319000D01*
X153891000Y-111319000D01*
X153891000Y-111489000D01*
G37*
G36*
X153891000Y-111989000D02*
G01*
X153251000Y-111989000D01*
X153166000Y-111904000D01*
X153251000Y-111819000D01*
X153891000Y-111819000D01*
X153891000Y-111989000D01*
G37*
G36*
X153891000Y-112489000D02*
G01*
X153251000Y-112489000D01*
X153166000Y-112404000D01*
X153251000Y-112319000D01*
X153891000Y-112319000D01*
X153891000Y-112489000D01*
G37*
G36*
X153891000Y-112989000D02*
G01*
X153251000Y-112989000D01*
X153166000Y-112904000D01*
X153251000Y-112819000D01*
X153891000Y-112819000D01*
X153891000Y-112989000D01*
G37*
G36*
X153891000Y-113489000D02*
G01*
X153251000Y-113489000D01*
X153166000Y-113404000D01*
X153251000Y-113319000D01*
X153891000Y-113319000D01*
X153891000Y-113489000D01*
G37*
G36*
X153891000Y-113989000D02*
G01*
X153251000Y-113989000D01*
X153166000Y-113904000D01*
X153251000Y-113819000D01*
X153891000Y-113819000D01*
X153891000Y-113989000D01*
G37*
G36*
X153891000Y-114489000D02*
G01*
X153251000Y-114489000D01*
X153166000Y-114404000D01*
X153251000Y-114319000D01*
X153891000Y-114319000D01*
X153891000Y-114489000D01*
G37*
G36*
X153891000Y-114989000D02*
G01*
X153251000Y-114989000D01*
X153166000Y-114904000D01*
X153251000Y-114819000D01*
X153891000Y-114819000D01*
X153891000Y-114989000D01*
G37*
G36*
X152901000Y-108969000D02*
G01*
X152816000Y-109054000D01*
X152731000Y-108969000D01*
X152731000Y-108329000D01*
X152901000Y-108329000D01*
X152901000Y-108969000D01*
G37*
G36*
X147401000Y-108969000D02*
G01*
X147316000Y-109054000D01*
X147231000Y-108969000D01*
X147231000Y-108329000D01*
X147401000Y-108329000D01*
X147401000Y-108969000D01*
G37*
G36*
X147901000Y-108969000D02*
G01*
X147816000Y-109054000D01*
X147731000Y-108969000D01*
X147731000Y-108329000D01*
X147901000Y-108329000D01*
X147901000Y-108969000D01*
G37*
G36*
X148401000Y-108969000D02*
G01*
X148316000Y-109054000D01*
X148231000Y-108969000D01*
X148231000Y-108329000D01*
X148401000Y-108329000D01*
X148401000Y-108969000D01*
G37*
G36*
X148901000Y-108969000D02*
G01*
X148816000Y-109054000D01*
X148731000Y-108969000D01*
X148731000Y-108329000D01*
X148901000Y-108329000D01*
X148901000Y-108969000D01*
G37*
G36*
X149401000Y-108969000D02*
G01*
X149316000Y-109054000D01*
X149231000Y-108969000D01*
X149231000Y-108329000D01*
X149401000Y-108329000D01*
X149401000Y-108969000D01*
G37*
G36*
X149901000Y-108969000D02*
G01*
X149816000Y-109054000D01*
X149731000Y-108969000D01*
X149731000Y-108329000D01*
X149901000Y-108329000D01*
X149901000Y-108969000D01*
G37*
G36*
X150401000Y-108969000D02*
G01*
X150316000Y-109054000D01*
X150231000Y-108969000D01*
X150231000Y-108329000D01*
X150401000Y-108329000D01*
X150401000Y-108969000D01*
G37*
G36*
X150901000Y-108969000D02*
G01*
X150816000Y-109054000D01*
X150731000Y-108969000D01*
X150731000Y-108329000D01*
X150901000Y-108329000D01*
X150901000Y-108969000D01*
G37*
G36*
X151401000Y-108969000D02*
G01*
X151316000Y-109054000D01*
X151231000Y-108969000D01*
X151231000Y-108329000D01*
X151401000Y-108329000D01*
X151401000Y-108969000D01*
G37*
G36*
X151901000Y-108969000D02*
G01*
X151816000Y-109054000D01*
X151731000Y-108969000D01*
X151731000Y-108329000D01*
X151901000Y-108329000D01*
X151901000Y-108969000D01*
G37*
G36*
X152401000Y-108969000D02*
G01*
X152316000Y-109054000D01*
X152231000Y-108969000D01*
X152231000Y-108329000D01*
X152401000Y-108329000D01*
X152401000Y-108969000D01*
G37*
G36*
X146966000Y-109404000D02*
G01*
X146881000Y-109489000D01*
X146241000Y-109489000D01*
X146241000Y-109319000D01*
X146881000Y-109319000D01*
X146966000Y-109404000D01*
G37*
G36*
X146966000Y-114904000D02*
G01*
X146881000Y-114989000D01*
X146241000Y-114989000D01*
X146241000Y-114819000D01*
X146881000Y-114819000D01*
X146966000Y-114904000D01*
G37*
G36*
X146966000Y-114404000D02*
G01*
X146881000Y-114489000D01*
X146241000Y-114489000D01*
X146241000Y-114319000D01*
X146881000Y-114319000D01*
X146966000Y-114404000D01*
G37*
G36*
X146966000Y-113904000D02*
G01*
X146881000Y-113989000D01*
X146241000Y-113989000D01*
X146241000Y-113819000D01*
X146881000Y-113819000D01*
X146966000Y-113904000D01*
G37*
G36*
X146966000Y-113404000D02*
G01*
X146881000Y-113489000D01*
X146241000Y-113489000D01*
X146241000Y-113319000D01*
X146881000Y-113319000D01*
X146966000Y-113404000D01*
G37*
G36*
X146966000Y-112904000D02*
G01*
X146881000Y-112989000D01*
X146241000Y-112989000D01*
X146241000Y-112819000D01*
X146881000Y-112819000D01*
X146966000Y-112904000D01*
G37*
G36*
X146966000Y-112404000D02*
G01*
X146881000Y-112489000D01*
X146241000Y-112489000D01*
X146241000Y-112319000D01*
X146881000Y-112319000D01*
X146966000Y-112404000D01*
G37*
G36*
X146966000Y-111904000D02*
G01*
X146881000Y-111989000D01*
X146241000Y-111989000D01*
X146241000Y-111819000D01*
X146881000Y-111819000D01*
X146966000Y-111904000D01*
G37*
G36*
X146966000Y-111404000D02*
G01*
X146881000Y-111489000D01*
X146241000Y-111489000D01*
X146241000Y-111319000D01*
X146881000Y-111319000D01*
X146966000Y-111404000D01*
G37*
G36*
X146966000Y-110904000D02*
G01*
X146881000Y-110989000D01*
X146241000Y-110989000D01*
X146241000Y-110819000D01*
X146881000Y-110819000D01*
X146966000Y-110904000D01*
G37*
G36*
X146966000Y-110404000D02*
G01*
X146881000Y-110489000D01*
X146241000Y-110489000D01*
X146241000Y-110319000D01*
X146881000Y-110319000D01*
X146966000Y-110404000D01*
G37*
G36*
X146966000Y-109904000D02*
G01*
X146881000Y-109989000D01*
X146241000Y-109989000D01*
X146241000Y-109819000D01*
X146881000Y-109819000D01*
X146966000Y-109904000D01*
G37*
G36*
X152901000Y-115339000D02*
G01*
X152901000Y-115979000D01*
X152731000Y-115979000D01*
X152731000Y-115339000D01*
X152816000Y-115254000D01*
X152901000Y-115339000D01*
G37*
G36*
X152401000Y-115339000D02*
G01*
X152401000Y-115979000D01*
X152231000Y-115979000D01*
X152231000Y-115339000D01*
X152316000Y-115254000D01*
X152401000Y-115339000D01*
G37*
G36*
X151901000Y-115339000D02*
G01*
X151901000Y-115979000D01*
X151731000Y-115979000D01*
X151731000Y-115339000D01*
X151816000Y-115254000D01*
X151901000Y-115339000D01*
G37*
G36*
X151401000Y-115339000D02*
G01*
X151401000Y-115979000D01*
X151231000Y-115979000D01*
X151231000Y-115339000D01*
X151316000Y-115254000D01*
X151401000Y-115339000D01*
G37*
G36*
X150901000Y-115339000D02*
G01*
X150901000Y-115979000D01*
X150731000Y-115979000D01*
X150731000Y-115339000D01*
X150816000Y-115254000D01*
X150901000Y-115339000D01*
G37*
G36*
X150401000Y-115339000D02*
G01*
X150401000Y-115979000D01*
X150231000Y-115979000D01*
X150231000Y-115339000D01*
X150316000Y-115254000D01*
X150401000Y-115339000D01*
G37*
G36*
X149901000Y-115339000D02*
G01*
X149901000Y-115979000D01*
X149731000Y-115979000D01*
X149731000Y-115339000D01*
X149816000Y-115254000D01*
X149901000Y-115339000D01*
G37*
G36*
X149401000Y-115339000D02*
G01*
X149401000Y-115979000D01*
X149231000Y-115979000D01*
X149231000Y-115339000D01*
X149316000Y-115254000D01*
X149401000Y-115339000D01*
G37*
G36*
X148901000Y-115339000D02*
G01*
X148901000Y-115979000D01*
X148731000Y-115979000D01*
X148731000Y-115339000D01*
X148816000Y-115254000D01*
X148901000Y-115339000D01*
G37*
G36*
X148401000Y-115339000D02*
G01*
X148401000Y-115979000D01*
X148231000Y-115979000D01*
X148231000Y-115339000D01*
X148316000Y-115254000D01*
X148401000Y-115339000D01*
G37*
G36*
X147901000Y-115339000D02*
G01*
X147901000Y-115979000D01*
X147731000Y-115979000D01*
X147731000Y-115339000D01*
X147816000Y-115254000D01*
X147901000Y-115339000D01*
G37*
G36*
X147401000Y-115339000D02*
G01*
X147401000Y-115979000D01*
X147231000Y-115979000D01*
X147231000Y-115339000D01*
X147316000Y-115254000D01*
X147401000Y-115339000D01*
G37*
G36*
X141242000Y-107408000D02*
G01*
X140142000Y-107408000D01*
X140142000Y-105908000D01*
X141242000Y-105908000D01*
X141242000Y-107408000D01*
G37*
G36*
X138242000Y-107408000D02*
G01*
X137142000Y-107408000D01*
X137142000Y-105908000D01*
X138242000Y-105908000D01*
X138242000Y-107408000D01*
G37*
G36*
X139692000Y-107608000D02*
G01*
X140292000Y-108208000D01*
X140292000Y-110408000D01*
X139692000Y-111008000D01*
X138692000Y-111008000D01*
X138092000Y-110408000D01*
X138092000Y-108208000D01*
X138692000Y-107608000D01*
X138692000Y-105908000D01*
X139692000Y-105908000D01*
X139692000Y-107608000D01*
G37*
G36*
X155263814Y-118443256D02*
G01*
X155269167Y-118446833D01*
X155272744Y-118452186D01*
X155274000Y-118458500D01*
X155274000Y-120325500D01*
X155272744Y-120331814D01*
X155269167Y-120337167D01*
X155263814Y-120340744D01*
X155257500Y-120342000D01*
X154190500Y-120342000D01*
X154184186Y-120340744D01*
X154178833Y-120337167D01*
X154175256Y-120331814D01*
X154174000Y-120325500D01*
X154174000Y-118458500D01*
X154175256Y-118452186D01*
X154178833Y-118446833D01*
X154184186Y-118443256D01*
X154190500Y-118442000D01*
X155257500Y-118442000D01*
X155263814Y-118443256D01*
G37*
D11*
X154724000Y-119392000D03*
D10*
G36*
X152763814Y-118443256D02*
G01*
X152769167Y-118446833D01*
X152772744Y-118452186D01*
X152774000Y-118458500D01*
X152774000Y-120325500D01*
X152772744Y-120331814D01*
X152769167Y-120337167D01*
X152763814Y-120340744D01*
X152757500Y-120342000D01*
X151690500Y-120342000D01*
X151684186Y-120340744D01*
X151678833Y-120337167D01*
X151675256Y-120331814D01*
X151674000Y-120325500D01*
X151674000Y-118458500D01*
X151675256Y-118452186D01*
X151678833Y-118446833D01*
X151684186Y-118443256D01*
X151690500Y-118442000D01*
X152757500Y-118442000D01*
X152763814Y-118443256D01*
G37*
D11*
X152224000Y-119392000D03*
D12*
X99286100Y-95389300D03*
X99286100Y-98439300D03*
X96136100Y-95389300D03*
X96136100Y-98439300D03*
D13*
X95636100Y-96914300D03*
X99786100Y-96914300D03*
D14*
X109220000Y-103897000D03*
X109220000Y-101997000D03*
X123746000Y-126762000D03*
X123746000Y-128662000D03*
X104696000Y-103897000D03*
X104696000Y-101997000D03*
X100569000Y-101997000D03*
X100569000Y-103897000D03*
X95885000Y-101997000D03*
X95885000Y-103897000D03*
D15*
X107869000Y-113107000D03*
X105969000Y-113107000D03*
X110175000Y-120650000D03*
X112075000Y-120650000D03*
D14*
X160020000Y-100518000D03*
X160020000Y-98618000D03*
D10*
G36*
X138982203Y-119275085D02*
G01*
X138986826Y-119278174D01*
X138989915Y-119282797D01*
X138991000Y-119288250D01*
X138991000Y-120259750D01*
X138989915Y-120265203D01*
X138986826Y-120269826D01*
X138982203Y-120272915D01*
X138976750Y-120274000D01*
X138055250Y-120274000D01*
X138049797Y-120272915D01*
X138045174Y-120269826D01*
X138042085Y-120265203D01*
X138041000Y-120259750D01*
X138041000Y-119288250D01*
X138042085Y-119282797D01*
X138045174Y-119278174D01*
X138049797Y-119275085D01*
X138055250Y-119274000D01*
X138976750Y-119274000D01*
X138982203Y-119275085D01*
G37*
D16*
X138516000Y-119774000D03*
D10*
G36*
X137382203Y-119275085D02*
G01*
X137386826Y-119278174D01*
X137389915Y-119282797D01*
X137391000Y-119288250D01*
X137391000Y-120259750D01*
X137389915Y-120265203D01*
X137386826Y-120269826D01*
X137382203Y-120272915D01*
X137376750Y-120274000D01*
X136455250Y-120274000D01*
X136449797Y-120272915D01*
X136445174Y-120269826D01*
X136442085Y-120265203D01*
X136441000Y-120259750D01*
X136441000Y-119288250D01*
X136442085Y-119282797D01*
X136445174Y-119278174D01*
X136449797Y-119275085D01*
X136455250Y-119274000D01*
X137376750Y-119274000D01*
X137382203Y-119275085D01*
G37*
D16*
X136916000Y-119774000D03*
D10*
G36*
X144446203Y-97926085D02*
G01*
X144450826Y-97929174D01*
X144453915Y-97933797D01*
X144455000Y-97939250D01*
X144455000Y-98910750D01*
X144453915Y-98916203D01*
X144450826Y-98920826D01*
X144446203Y-98923915D01*
X144440750Y-98925000D01*
X143519250Y-98925000D01*
X143513797Y-98923915D01*
X143509174Y-98920826D01*
X143506085Y-98916203D01*
X143505000Y-98910750D01*
X143505000Y-97939250D01*
X143506085Y-97933797D01*
X143509174Y-97929174D01*
X143513797Y-97926085D01*
X143519250Y-97925000D01*
X144440750Y-97925000D01*
X144446203Y-97926085D01*
G37*
D16*
X143980000Y-98425000D03*
D10*
G36*
X146046203Y-97926085D02*
G01*
X146050826Y-97929174D01*
X146053915Y-97933797D01*
X146055000Y-97939250D01*
X146055000Y-98910750D01*
X146053915Y-98916203D01*
X146050826Y-98920826D01*
X146046203Y-98923915D01*
X146040750Y-98925000D01*
X145119250Y-98925000D01*
X145113797Y-98923915D01*
X145109174Y-98920826D01*
X145106085Y-98916203D01*
X145105000Y-98910750D01*
X145105000Y-97939250D01*
X145106085Y-97933797D01*
X145109174Y-97929174D01*
X145113797Y-97926085D01*
X145119250Y-97925000D01*
X146040750Y-97925000D01*
X146046203Y-97926085D01*
G37*
D16*
X145580000Y-98425000D03*
D17*
X96123600Y-110249000D03*
X96123600Y-112789000D03*
X100568600Y-110249000D03*
X100568600Y-112789000D03*
X100568600Y-115329000D03*
X96123600Y-115329000D03*
D18*
X129826000Y-97471800D03*
X140526000Y-97471800D03*
D19*
X138176000Y-103221800D03*
X136176000Y-103221800D03*
X134176000Y-103221800D03*
X132176000Y-103221800D03*
D10*
G36*
X150456184Y-99163627D02*
G01*
X150463971Y-99168829D01*
X150469173Y-99176616D01*
X150471000Y-99185800D01*
X150471000Y-100737800D01*
X150469173Y-100746984D01*
X150463971Y-100754771D01*
X150456184Y-100759973D01*
X150447000Y-100761800D01*
X148395000Y-100761800D01*
X148385816Y-100759973D01*
X148378029Y-100754771D01*
X148372827Y-100746984D01*
X148371000Y-100737800D01*
X148371000Y-99185800D01*
X148372827Y-99176616D01*
X148378029Y-99168829D01*
X148385816Y-99163627D01*
X148395000Y-99161800D01*
X150447000Y-99161800D01*
X150456184Y-99163627D01*
G37*
D20*
X149421000Y-99961800D03*
D10*
G36*
X149404332Y-96463855D02*
G01*
X149413092Y-96469708D01*
X149418945Y-96478468D01*
X149421000Y-96488800D01*
X149421000Y-98334800D01*
X149418945Y-98345132D01*
X149413092Y-98353892D01*
X149404332Y-98359745D01*
X149394000Y-98361800D01*
X147648000Y-98361800D01*
X147637668Y-98359745D01*
X147628908Y-98353892D01*
X147623055Y-98345132D01*
X147621000Y-98334800D01*
X147621000Y-96488800D01*
X147623055Y-96478468D01*
X147628908Y-96469708D01*
X147637668Y-96463855D01*
X147648000Y-96461800D01*
X149394000Y-96461800D01*
X149404332Y-96463855D01*
G37*
D21*
X148521000Y-97411800D03*
D10*
G36*
X152253406Y-96463969D02*
G01*
X152262653Y-96470147D01*
X152268831Y-96479394D01*
X152271000Y-96490300D01*
X152271000Y-98333300D01*
X152268831Y-98344206D01*
X152262653Y-98353453D01*
X152253406Y-98359631D01*
X152242500Y-98361800D01*
X150399500Y-98361800D01*
X150388594Y-98359631D01*
X150379347Y-98353453D01*
X150373169Y-98344206D01*
X150371000Y-98333300D01*
X150371000Y-96490300D01*
X150373169Y-96479394D01*
X150379347Y-96470147D01*
X150388594Y-96463969D01*
X150399500Y-96461800D01*
X152242500Y-96461800D01*
X152253406Y-96463969D01*
G37*
D22*
X151321000Y-97411800D03*
D10*
G36*
X154653406Y-96463969D02*
G01*
X154662653Y-96470147D01*
X154668831Y-96479394D01*
X154671000Y-96490300D01*
X154671000Y-98333300D01*
X154668831Y-98344206D01*
X154662653Y-98353453D01*
X154653406Y-98359631D01*
X154642500Y-98361800D01*
X152799500Y-98361800D01*
X152788594Y-98359631D01*
X152779347Y-98353453D01*
X152773169Y-98344206D01*
X152771000Y-98333300D01*
X152771000Y-96490300D01*
X152773169Y-96479394D01*
X152779347Y-96470147D01*
X152788594Y-96463969D01*
X152799500Y-96461800D01*
X154642500Y-96461800D01*
X154653406Y-96463969D01*
G37*
D22*
X153721000Y-97411800D03*
D10*
G36*
X157404332Y-96463855D02*
G01*
X157413092Y-96469708D01*
X157418945Y-96478468D01*
X157421000Y-96488800D01*
X157421000Y-98334800D01*
X157418945Y-98345132D01*
X157413092Y-98353892D01*
X157404332Y-98359745D01*
X157394000Y-98361800D01*
X155648000Y-98361800D01*
X155637668Y-98359745D01*
X155628908Y-98353892D01*
X155623055Y-98345132D01*
X155621000Y-98334800D01*
X155621000Y-96488800D01*
X155623055Y-96478468D01*
X155628908Y-96469708D01*
X155637668Y-96463855D01*
X155648000Y-96461800D01*
X157394000Y-96461800D01*
X157404332Y-96463855D01*
G37*
D21*
X156521000Y-97411800D03*
D10*
G36*
X156656184Y-99163627D02*
G01*
X156663971Y-99168829D01*
X156669173Y-99176616D01*
X156671000Y-99185800D01*
X156671000Y-100737800D01*
X156669173Y-100746984D01*
X156663971Y-100754771D01*
X156656184Y-100759973D01*
X156647000Y-100761800D01*
X154595000Y-100761800D01*
X154585816Y-100759973D01*
X154578029Y-100754771D01*
X154572827Y-100746984D01*
X154571000Y-100737800D01*
X154571000Y-99185800D01*
X154572827Y-99176616D01*
X154578029Y-99168829D01*
X154585816Y-99163627D01*
X154595000Y-99161800D01*
X156647000Y-99161800D01*
X156656184Y-99163627D01*
G37*
D20*
X155621000Y-99961800D03*
D10*
G36*
X154017296Y-99412257D02*
G01*
X154019243Y-99413557D01*
X154020543Y-99415504D01*
X154021000Y-99417800D01*
X154021000Y-100755800D01*
X154020543Y-100758096D01*
X154019243Y-100760043D01*
X154017296Y-100761343D01*
X154015000Y-100761800D01*
X153627000Y-100761800D01*
X153624704Y-100761343D01*
X153622757Y-100760043D01*
X153621457Y-100758096D01*
X153621000Y-100755800D01*
X153621000Y-99417800D01*
X153621457Y-99415504D01*
X153622757Y-99413557D01*
X153624704Y-99412257D01*
X153627000Y-99411800D01*
X154015000Y-99411800D01*
X154017296Y-99412257D01*
G37*
D23*
X153821000Y-100086800D03*
D10*
G36*
X153367296Y-99412257D02*
G01*
X153369243Y-99413557D01*
X153370543Y-99415504D01*
X153371000Y-99417800D01*
X153371000Y-100755800D01*
X153370543Y-100758096D01*
X153369243Y-100760043D01*
X153367296Y-100761343D01*
X153365000Y-100761800D01*
X152977000Y-100761800D01*
X152974704Y-100761343D01*
X152972757Y-100760043D01*
X152971457Y-100758096D01*
X152971000Y-100755800D01*
X152971000Y-99417800D01*
X152971457Y-99415504D01*
X152972757Y-99413557D01*
X152974704Y-99412257D01*
X152977000Y-99411800D01*
X153365000Y-99411800D01*
X153367296Y-99412257D01*
G37*
D23*
X153171000Y-100086800D03*
D10*
G36*
X152717296Y-99412257D02*
G01*
X152719243Y-99413557D01*
X152720543Y-99415504D01*
X152721000Y-99417800D01*
X152721000Y-100755800D01*
X152720543Y-100758096D01*
X152719243Y-100760043D01*
X152717296Y-100761343D01*
X152715000Y-100761800D01*
X152327000Y-100761800D01*
X152324704Y-100761343D01*
X152322757Y-100760043D01*
X152321457Y-100758096D01*
X152321000Y-100755800D01*
X152321000Y-99417800D01*
X152321457Y-99415504D01*
X152322757Y-99413557D01*
X152324704Y-99412257D01*
X152327000Y-99411800D01*
X152715000Y-99411800D01*
X152717296Y-99412257D01*
G37*
D23*
X152521000Y-100086800D03*
D10*
G36*
X152067296Y-99412257D02*
G01*
X152069243Y-99413557D01*
X152070543Y-99415504D01*
X152071000Y-99417800D01*
X152071000Y-100755800D01*
X152070543Y-100758096D01*
X152069243Y-100760043D01*
X152067296Y-100761343D01*
X152065000Y-100761800D01*
X151677000Y-100761800D01*
X151674704Y-100761343D01*
X151672757Y-100760043D01*
X151671457Y-100758096D01*
X151671000Y-100755800D01*
X151671000Y-99417800D01*
X151671457Y-99415504D01*
X151672757Y-99413557D01*
X151674704Y-99412257D01*
X151677000Y-99411800D01*
X152065000Y-99411800D01*
X152067296Y-99412257D01*
G37*
D23*
X151871000Y-100086800D03*
D10*
G36*
X151417296Y-99412257D02*
G01*
X151419243Y-99413557D01*
X151420543Y-99415504D01*
X151421000Y-99417800D01*
X151421000Y-100755800D01*
X151420543Y-100758096D01*
X151419243Y-100760043D01*
X151417296Y-100761343D01*
X151415000Y-100761800D01*
X151027000Y-100761800D01*
X151024704Y-100761343D01*
X151022757Y-100760043D01*
X151021457Y-100758096D01*
X151021000Y-100755800D01*
X151021000Y-99417800D01*
X151021457Y-99415504D01*
X151022757Y-99413557D01*
X151024704Y-99412257D01*
X151027000Y-99411800D01*
X151415000Y-99411800D01*
X151417296Y-99412257D01*
G37*
D23*
X151221000Y-100086800D03*
D10*
G36*
X151102592Y-101735913D02*
G01*
X151106485Y-101738515D01*
X151109087Y-101742408D01*
X151110000Y-101747000D01*
X151110000Y-102723000D01*
X151109087Y-102727592D01*
X151106485Y-102731485D01*
X151102592Y-102734087D01*
X151098000Y-102735000D01*
X150322000Y-102735000D01*
X150317408Y-102734087D01*
X150313515Y-102731485D01*
X150310913Y-102727592D01*
X150310000Y-102723000D01*
X150310000Y-101747000D01*
X150310913Y-101742408D01*
X150313515Y-101738515D01*
X150317408Y-101735913D01*
X150322000Y-101735000D01*
X151098000Y-101735000D01*
X151102592Y-101735913D01*
G37*
D24*
X150710000Y-102235000D03*
D10*
G36*
X149402592Y-101735913D02*
G01*
X149406485Y-101738515D01*
X149409087Y-101742408D01*
X149410000Y-101747000D01*
X149410000Y-102723000D01*
X149409087Y-102727592D01*
X149406485Y-102731485D01*
X149402592Y-102734087D01*
X149398000Y-102735000D01*
X148622000Y-102735000D01*
X148617408Y-102734087D01*
X148613515Y-102731485D01*
X148610913Y-102727592D01*
X148610000Y-102723000D01*
X148610000Y-101747000D01*
X148610913Y-101742408D01*
X148613515Y-101738515D01*
X148617408Y-101735913D01*
X148622000Y-101735000D01*
X149398000Y-101735000D01*
X149402592Y-101735913D01*
G37*
D24*
X149010000Y-102235000D03*
D10*
G36*
X151565444Y-104302685D02*
G01*
X151568364Y-104304636D01*
X151570315Y-104307556D01*
X151571000Y-104311000D01*
X151571000Y-104893000D01*
X151570315Y-104896444D01*
X151568364Y-104899364D01*
X151565444Y-104901315D01*
X151562000Y-104902000D01*
X150580000Y-104902000D01*
X150576556Y-104901315D01*
X150573636Y-104899364D01*
X150571685Y-104896444D01*
X150571000Y-104893000D01*
X150571000Y-104311000D01*
X150571685Y-104307556D01*
X150573636Y-104304636D01*
X150576556Y-104302685D01*
X150580000Y-104302000D01*
X151562000Y-104302000D01*
X151565444Y-104302685D01*
G37*
D25*
X151071000Y-104602000D03*
D10*
G36*
X151565444Y-106202685D02*
G01*
X151568364Y-106204636D01*
X151570315Y-106207556D01*
X151571000Y-106211000D01*
X151571000Y-106793000D01*
X151570315Y-106796444D01*
X151568364Y-106799364D01*
X151565444Y-106801315D01*
X151562000Y-106802000D01*
X150580000Y-106802000D01*
X150576556Y-106801315D01*
X150573636Y-106799364D01*
X150571685Y-106796444D01*
X150571000Y-106793000D01*
X150571000Y-106211000D01*
X150571685Y-106207556D01*
X150573636Y-106204636D01*
X150576556Y-106202685D01*
X150580000Y-106202000D01*
X151562000Y-106202000D01*
X151565444Y-106202685D01*
G37*
D25*
X151071000Y-106502000D03*
D10*
G36*
X153865444Y-106202685D02*
G01*
X153868364Y-106204636D01*
X153870315Y-106207556D01*
X153871000Y-106211000D01*
X153871000Y-106793000D01*
X153870315Y-106796444D01*
X153868364Y-106799364D01*
X153865444Y-106801315D01*
X153862000Y-106802000D01*
X152880000Y-106802000D01*
X152876556Y-106801315D01*
X152873636Y-106799364D01*
X152871685Y-106796444D01*
X152871000Y-106793000D01*
X152871000Y-106211000D01*
X152871685Y-106207556D01*
X152873636Y-106204636D01*
X152876556Y-106202685D01*
X152880000Y-106202000D01*
X153862000Y-106202000D01*
X153865444Y-106202685D01*
G37*
D25*
X153371000Y-106502000D03*
D10*
G36*
X153861740Y-104303142D02*
G01*
X153866607Y-104306393D01*
X153869858Y-104311260D01*
X153871000Y-104317000D01*
X153871000Y-105287000D01*
X153869858Y-105292740D01*
X153866607Y-105297607D01*
X153861740Y-105300858D01*
X153856000Y-105302000D01*
X152886000Y-105302000D01*
X152880260Y-105300858D01*
X152875393Y-105297607D01*
X152872142Y-105292740D01*
X152871000Y-105287000D01*
X152871000Y-104317000D01*
X152872142Y-104311260D01*
X152875393Y-104306393D01*
X152880260Y-104303142D01*
X152886000Y-104302000D01*
X153856000Y-104302000D01*
X153861740Y-104303142D01*
G37*
D26*
X153371000Y-104802000D03*
D14*
X159306000Y-109934000D03*
X159306000Y-111834000D03*
D15*
X136741000Y-127563000D03*
X138641000Y-127563000D03*
D14*
X142494000Y-114366000D03*
X142494000Y-116266000D03*
D15*
X163436000Y-117234000D03*
X165336000Y-117234000D03*
X137052000Y-123461000D03*
X138952000Y-123461000D03*
X131051000Y-114694000D03*
X132951000Y-114694000D03*
D14*
X158036000Y-119459000D03*
X158036000Y-121359000D03*
D15*
X163436000Y-112154000D03*
X165336000Y-112154000D03*
D14*
X149366000Y-119532000D03*
X149366000Y-121432000D03*
D15*
X138666000Y-114694000D03*
X136766000Y-114694000D03*
X104699000Y-97866800D03*
X106599000Y-97866800D03*
X158938000Y-104648000D03*
X157038000Y-104648000D03*
D27*
X143510000Y-101724000D03*
X143510000Y-104524000D03*
D14*
X146558000Y-103820000D03*
X146558000Y-101920000D03*
M02*
