<?xml version="1.0" encoding="UTF-8" standalone="no"?>
<svg
   xmlns:dc="http://purl.org/dc/elements/1.1/"
   xmlns:cc="http://creativecommons.org/ns#"
   xmlns:rdf="http://www.w3.org/1999/02/22-rdf-syntax-ns#"
   xmlns:svg="http://www.w3.org/2000/svg"
   xmlns="http://www.w3.org/2000/svg"
   xmlns:sodipodi="http://sodipodi.sourceforge.net/DTD/sodipodi-0.dtd"
   xmlns:inkscape="http://www.inkscape.org/namespaces/inkscape"
   version="1.1"
   width="11.0515cm"
   height="5.4356cm"
   viewBox="0 0 43510 21400 "
   id="svg1770"
   sodipodi:docname="knobs-brd.svg"
   inkscape:version="0.92.3 (2405546, 2018-03-11)">
  <metadata
     id="metadata1776">
    <rdf:RDF>
      <cc:Work
         rdf:about="">
        <dc:format>image/svg+xml</dc:format>
        <dc:type
           rdf:resource="http://purl.org/dc/dcmitype/StillImage" />
      </cc:Work>
    </rdf:RDF>
  </metadata>
  <defs
     id="defs1774" />
  <sodipodi:namedview
     pagecolor="#ffffff"
     bordercolor="#666666"
     borderopacity="1"
     objecttolerance="10"
     gridtolerance="10"
     guidetolerance="10"
     inkscape:pageopacity="0"
     inkscape:pageshadow="2"
     inkscape:window-width="1668"
     inkscape:window-height="694"
     id="namedview1772"
     showgrid="false"
     inkscape:zoom="2.5473163"
     inkscape:cx="199.033"
     inkscape:cy="110.96397"
     inkscape:window-x="416"
     inkscape:window-y="247"
     inkscape:window-maximized="0"
     inkscape:current-layer="svg1770" />
  <title
     id="title2">SVG Picture created as knobs-brd.svg date 2019/10/24 15:21:08 </title>
  <desc
     id="desc4">Picture generated by PCBNEW </desc>
  <g
     style="fill:#000000; fill-opacity:1;stroke:#000000; stroke-opacity:1; stroke-linecap:round; stroke-linejoin:round; "
     transform="translate(0 0) scale(1 1)"
     id="g6" />
  <g
     style="fill:#000000; fill-opacity:0.0;  stroke:#000000; stroke-width:-0.000393701; stroke-opacity:1;  stroke-linecap:round; stroke-linejoin:round;"
     id="g8" />
  <g
     style="fill:#000000; fill-opacity:0.0;  stroke:#000000; stroke-width:9.84252; stroke-opacity:1;  stroke-linecap:round; stroke-linejoin:round;"
     id="g14">
    <path
       d="M20353 18378 L20353 18575 "
       id="path10" />
    <path
       d="M23991 18693 L23794 18693 "
       id="path12" />
  </g>
  <g
     style="fill:#000000;fill-opacity:0;stroke:#000000;stroke-width:48;stroke-linecap:round;stroke-linejoin:round;stroke-opacity:1"
     id="g34">
    <g
       transform="rotate(-90,6547.83,21110.1)"
       id="g18">
      <text
         x="6547.8301"
         y="21110.1"
         textLength="1840.83"
         font-size="760"
         lengthAdjust="spacingAndGlyphs"
         id="text16"
         style="font-size:760px;text-anchor:start;opacity:0">v1.3</text>
    </g>
  </g>
  <g
     style="fill:#000000; fill-opacity:0.0;  stroke:#000000; stroke-width:20; stroke-opacity:1;  stroke-linecap:round; stroke-linejoin:round;"
     id="g176">
    <circle
       cx="40339.6"
       cy="18130.6"
       r="550"
       id="circle172" />
    <circle
       cx="40339.6"
       cy="18130.6"
       r="400"
       id="circle174" />
  </g>
  <g
     style="fill:#000000; fill-opacity:0.0;  stroke:#000000; stroke-width:80; stroke-opacity:1;  stroke-linecap:round; stroke-linejoin:round;"
     id="g206">
    <path
       d="M38725 16004 L41953 16004 "
       id="path178" />
    <path
       d="M41953 20453 L38725 20453 "
       id="path180" />
    <path
       d="M38725 16221 L38508 16221 "
       id="path182" />
    <path
       d="M38725 16004 L38725 16221 "
       id="path184" />
    <path
       d="M38725 20236 L38725 20453 "
       id="path186" />
    <path
       d="M38508 20236 L38725 20236 "
       id="path188" />
    <path
       d="M41953 20236 L42170 20236 "
       id="path190" />
    <path
       d="M41953 20453 L41953 20236 "
       id="path192" />
    <path
       d="M41953 16221 L41953 16004 "
       id="path194" />
    <path
       d="M42170 16221 L41953 16221 "
       id="path196" />
    <path
       d="M38508 17087 L38508 16221 "
       id="path198" />
    <path
       d="M38508 20236 L38508 18977 "
       id="path200" />
    <path
       d="M42170 16221 L42170 17087 "
       id="path202" />
    <path
       d="M42170 18977 L42170 20236 "
       id="path204" />
  </g>
  <g
     style="fill:#000000; fill-opacity:0.0;  stroke:#000000; stroke-width:20; stroke-opacity:1;  stroke-linecap:round; stroke-linejoin:round;"
     id="g212">
    <circle
       cx="21553.3"
       cy="18176.6"
       r="550"
       id="circle208" />
    <circle
       cx="21553.3"
       cy="18176.6"
       r="400"
       id="circle210" />
  </g>
  <g
     style="fill:#000000; fill-opacity:0.0;  stroke:#000000; stroke-width:80; stroke-opacity:1;  stroke-linecap:round; stroke-linejoin:round;"
     id="g242">
    <path
       d="M19939 16050 L23167 16050 "
       id="path214" />
    <path
       d="M23167 20499 L19939 20499 "
       id="path216" />
    <path
       d="M19939 16267 L19722 16267 "
       id="path218" />
    <path
       d="M19939 16050 L19939 16267 "
       id="path220" />
    <path
       d="M19939 20282 L19939 20499 "
       id="path222" />
    <path
       d="M19722 20282 L19939 20282 "
       id="path224" />
    <path
       d="M23167 20282 L23384 20282 "
       id="path226" />
    <path
       d="M23167 20499 L23167 20282 "
       id="path228" />
    <path
       d="M23167 16267 L23167 16050 "
       id="path230" />
    <path
       d="M23384 16267 L23167 16267 "
       id="path232" />
    <path
       d="M19722 17133 L19722 16267 "
       id="path234" />
    <path
       d="M19722 20282 L19722 19023 "
       id="path236" />
    <path
       d="M23384 16267 L23384 17133 "
       id="path238" />
    <path
       d="M23384 19023 L23384 20282 "
       id="path240" />
  </g>
  <g
     style="fill:#000000; fill-opacity:0.0;  stroke:#000000; stroke-width:20; stroke-opacity:1;  stroke-linecap:round; stroke-linejoin:round;"
     id="g248">
    <circle
       cx="2806.1"
       cy="18116.8"
       r="550"
       id="circle244" />
    <circle
       cx="2806.1"
       cy="18116.8"
       r="400"
       id="circle246" />
  </g>
  <g
     style="fill:#000000; fill-opacity:0.0;  stroke:#000000; stroke-width:80; stroke-opacity:1;  stroke-linecap:round; stroke-linejoin:round;"
     id="g278">
    <path
       d="M1191 15990 L4420 15990 "
       id="path250" />
    <path
       d="M4420 20439 L1191 20439 "
       id="path252" />
    <path
       d="M1191 16207 L975 16207 "
       id="path254" />
    <path
       d="M1191 15990 L1191 16207 "
       id="path256" />
    <path
       d="M1191 20223 L1191 20439 "
       id="path258" />
    <path
       d="M975 20223 L1191 20223 "
       id="path260" />
    <path
       d="M4420 20223 L4636 20223 "
       id="path262" />
    <path
       d="M4420 20439 L4420 20223 "
       id="path264" />
    <path
       d="M4420 16207 L4420 15990 "
       id="path266" />
    <path
       d="M4636 16207 L4420 16207 "
       id="path268" />
    <path
       d="M975 17073 L975 16207 "
       id="path270" />
    <path
       d="M975 20223 L975 18963 "
       id="path272" />
    <path
       d="M4636 16207 L4636 17073 "
       id="path274" />
    <path
       d="M4636 18963 L4636 20223 "
       id="path276" />
  </g>
  <g
     style="fill:#000000; fill-opacity:0.0;  stroke:#000000; stroke-width:20; stroke-opacity:1;  stroke-linecap:round; stroke-linejoin:round;"
     id="g284">
    <circle
       cx="2898.62"
       cy="2933.63"
       r="550"
       id="circle280" />
    <circle
       cx="2898.62"
       cy="2933.63"
       r="400"
       id="circle282" />
  </g>
  <g
     style="fill:#000000; fill-opacity:0.0;  stroke:#000000; stroke-width:80; stroke-opacity:1;  stroke-linecap:round; stroke-linejoin:round;"
     id="g392">
    <path
       d="M1284 807 L4512 807 "
       id="path286" />
    <path
       d="M4512 5256 L1284 5256 "
       id="path288" />
    <path
       d="M1284 1024 L1067 1024 "
       id="path290" />
    <path
       d="M1284 807 L1284 1024 "
       id="path292" />
    <path
       d="M1284 5039 L1284 5256 "
       id="path294" />
    <path
       d="M1067 5039 L1284 5039 "
       id="path296" />
    <path
       d="M4512 5039 L4729 5039 "
       id="path298" />
    <path
       d="M4512 5256 L4512 5039 "
       id="path300" />
    <path
       d="M4512 1024 L4512 807 "
       id="path302" />
    <path
       d="M4729 1024 L4512 1024 "
       id="path304" />
    <path
       d="M1067 1890 L1067 1024 "
       id="path306" />
    <path
       d="M1067 5039 L1067 3780 "
       id="path308" />
    <path
       d="M4729 1024 L4729 1890 "
       id="path310" />
    <path
       d="M4729 3780 L4729 5039 "
       id="path312" />
    <path
       d="M30356 9690 L30356 8039 "
       id="path314" />
    <path
       d="M30674.3 7722.29 A317.402 317.402 0.0 0 0 30356.9 8039.69 "
       id="path316" />
    <path
       d="M30674 7722 L31262 7722 "
       id="path318" />
    <path
       d="M35238.8 8039.69 A317.402 317.402 0.0 0 0 34921.4 7722.29 "
       id="path320" />
    <path
       d="M34921 7722 L34333 7722 "
       id="path322" />
    <path
       d="M35238 9690 L35238 8039 "
       id="path324" />
    <path
       d="M35238 11029 L35238 12680 "
       id="path326" />
    <path
       d="M34921.4 12997.9 A317.402 317.402 0.0 0 0 35238.8 12680.5 "
       id="path328" />
    <path
       d="M34921 12997 L34136 12997 "
       id="path330" />
    <path
       d="M30356.9 12680.5 A317.402 317.402 0.0 0 0 30674.3 12997.9 "
       id="path332" />
    <path
       d="M30674 12997 L31459 12997 "
       id="path334" />
    <path
       d="M30356 11029 L30356 12680 "
       id="path336" />
    <circle
       cx="32797.8"
       cy="10360.1"
       r="1181.1"
       id="circle338" />
    <path
       d="M37856 8690 L37856 7039 "
       id="path340" />
    <path
       d="M38174.3 6722.29 A317.402 317.402 0.0 0 0 37856.9 7039.69 "
       id="path342" />
    <path
       d="M38174 6722 L38762 6722 "
       id="path344" />
    <path
       d="M42738.8 7039.69 A317.402 317.402 0.0 0 0 42421.4 6722.29 "
       id="path346" />
    <path
       d="M42421 6722 L41833 6722 "
       id="path348" />
    <path
       d="M42738 8690 L42738 7039 "
       id="path350" />
    <path
       d="M42738 10029 L42738 11680 "
       id="path352" />
    <path
       d="M42421.4 11997.9 A317.402 317.402 0.0 0 0 42738.8 11680.5 "
       id="path354" />
    <path
       d="M42421 11997 L41636 11997 "
       id="path356" />
    <path
       d="M37856.9 11680.5 A317.402 317.402 0.0 0 0 38174.3 11997.9 "
       id="path358" />
    <path
       d="M38174 11997 L38959 11997 "
       id="path360" />
    <path
       d="M37856 10029 L37856 11680 "
       id="path362" />
    <circle
       cx="40297.8"
       cy="9360.09"
       r="1181.1"
       id="circle364" />
    <path
       d="M7856 9940 L7856 8289 "
       id="path366" />
    <path
       d="M8174.29 7972.29 A317.402 317.402 0.0 0 0 7856.88 8289.69 "
       id="path368" />
    <path
       d="M8174 7972 L8762 7972 "
       id="path370" />
    <path
       d="M12738.8 8289.69 A317.402 317.402 0.0 0 0 12421.4 7972.29 "
       id="path372" />
    <path
       d="M12421 7972 L11833 7972 "
       id="path374" />
    <path
       d="M12738 9940 L12738 8289 "
       id="path376" />
    <path
       d="M12738 11279 L12738 12930 "
       id="path378" />
    <path
       d="M12421.4 13247.9 A317.402 317.402 0.0 0 0 12738.8 12930.5 "
       id="path380" />
    <path
       d="M12421 13247 L11636 13247 "
       id="path382" />
    <path
       d="M7856.88 12930.5 A317.402 317.402 0.0 0 0 8174.29 13247.9 "
       id="path384" />
    <path
       d="M8174 13247 L8959 13247 "
       id="path386" />
    <path
       d="M7856 11279 L7856 12930 "
       id="path388" />
    <circle
       cx="10297.8"
       cy="10610.1"
       r="1181.1"
       id="circle390" />
  </g>
  <g
     style="fill:#000000; fill-opacity:0.0;  stroke:#000000; stroke-width:38; stroke-opacity:1;  stroke-linecap:round; stroke-linejoin:round;"
     id="g1590" />
  <g
     style="fill:#000000; fill-opacity:0.0;  stroke:#000000; stroke-width:19.685; stroke-opacity:1;  stroke-linecap:round; stroke-linejoin:round;"
     id="g1768">
    <path
       d="M5547.83 6360.09 A512.652 512.652 0.0 0 0 6047.83 6860.09 "
       id="path1592" />
    <path
       d="M43497.8 5960.09 A200 200 0.0 0 0 43297.8 5760.09 "
       id="path1594" />
    <path
       d="M36697 6860 L36797 6860 "
       id="path1596" />
    <path
       d="M36997 5960 L36997 6660 "
       id="path1598" />
    <path
       d="M37197.8 5760.09 A200 200 0.0 0 0 36997.8 5960.09 "
       id="path1600" />
    <path
       d="M36797.8 6860.09 A200 200 0.0 0 0 36997.8 6660.09 "
       id="path1602" />
    <path
       d="M6047 6860 L36697 6860 "
       id="path1604" />
    <path
       d="M16 640 L16 20140 "
       id="path1606" />
    <path
       d="M16.7661 20140.3 A1131.92 1131.92 0.0 0 0 1016.77 21390.3 "
       id="path1608" />
    <path
       d="M1016 21390 L42516 21390 "
       id="path1610" />
    <path
       d="M42516.8 21390.3 A991.926 991.926 0.0 0 0 43508.7 20400 "
       id="path1612" />
    <path
       d="M43508 20399 L43497 5960 "
       id="path1614" />
    <path
       d="M43297 5760 L37197 5760 "
       id="path1616" />
    <path
       d="M5547 6360 L5547 890 "
       id="path1618" />
    <path
       d="M5547.83 890.334 A870.079 870.079 0.0 0 0 4677.75 20.2555 "
       id="path1620" />
    <path
       d="M4677 20 L886 20 "
       id="path1622" />
    <path
       d="M886.845 20.2556 A755.491 755.491 0.0 0 0 16.7663 640.334 "
       id="path1624" />
    <g
       id="g1626" />
    <g
       id="g1628" />
    <g
       id="g1630" />
    <g
       id="g1632" />
    <g
       id="g1634" />
    <g
       id="g1636" />
    <g
       id="g1638" />
    <g
       id="g1640" />
    <g
       id="g1642" />
    <g
       id="g1644" />
    <g
       id="g1646" />
    <g
       id="g1648" />
    <g
       id="g1650" />
    <g
       id="g1652" />
    <g
       id="g1654" />
    <g
       id="g1656" />
    <g
       id="g1658" />
    <g
       id="g1660" />
    <g
       id="g1662" />
    <g
       id="g1664" />
    <g
       id="g1666" />
    <g
       id="g1668" />
    <g
       id="g1670" />
    <g
       id="g1672" />
    <g
       id="g1674" />
    <g
       id="g1676" />
    <g
       id="g1678" />
    <g
       id="g1680" />
    <g
       id="g1682" />
    <g
       id="g1684" />
    <g
       id="g1686" />
    <g
       id="g1688" />
    <g
       id="g1690" />
    <g
       id="g1692" />
    <g
       id="g1694" />
    <g
       id="g1696" />
    <g
       id="g1698" />
    <g
       id="g1700" />
    <g
       id="g1702" />
    <g
       id="g1704" />
    <g
       id="g1706" />
    <g
       id="g1708" />
    <g
       id="g1710" />
    <g
       id="g1712" />
    <g
       id="g1714" />
    <g
       id="g1716" />
    <g
       id="g1718" />
    <g
       id="g1720" />
    <g
       id="g1722" />
    <g
       id="g1724" />
    <g
       id="g1726" />
    <g
       id="g1728" />
    <g
       id="g1730" />
    <g
       id="g1732" />
    <g
       id="g1734" />
    <g
       id="g1736" />
    <g
       id="g1738" />
    <g
       id="g1740" />
    <g
       id="g1742" />
    <g
       id="g1744" />
    <g
       id="g1746" />
    <g
       id="g1748" />
    <g
       id="g1750" />
    <g
       id="g1752" />
    <g
       id="g1754" />
    <g
       id="g1756" />
    <g
       id="g1758" />
    <g
       id="g1760" />
    <g
       id="g1762" />
    <g
       id="g1764" />
    <g
       id="g1766" />
  </g>
</svg>
